<?xml version="1.0" encoding="utf-8"?>
<!-- Generator: Adobe Illustrator 24.0.1, SVG Export Plug-In . SVG Version: 6.00 Build 0)  -->
<svg version="1.1" xmlns="http://www.w3.org/2000/svg" xmlns:xlink="http://www.w3.org/1999/xlink" x="0px" y="0px"
	 viewBox="0 0 517.1 841.9" style="enable-background:new 0 0 517.1 841.9;" xml:space="preserve">
<style type="text/css">
	.st0{fill:#DCDDDD;}
	.st1{fill:none;stroke:#040000;stroke-width:0.5;}
	.st2{fill:none;stroke:#040000;}
	.st3{enable-background:new    ;}
	.st4{clip-path:url(#SVGID_2_);}
	.st5{font-family:'FZLTHJW--GB1-0';}
	.st6{font-size:6px;}
	.st7{clip-path:url(#SVGID_4_);}
	.st8{clip-path:url(#SVGID_6_);}
	.st9{clip-path:url(#SVGID_8_);}
	.st10{clip-path:url(#SVGID_10_);}
	.st11{clip-path:url(#SVGID_12_);}
	.st12{clip-path:url(#SVGID_14_);}
	.st13{clip-path:url(#SVGID_16_);}
	.st14{clip-path:url(#SVGID_18_);}
	.st15{clip-path:url(#SVGID_20_);}
	.st16{fill:none;stroke:#000000;stroke-width:0.5;stroke-miterlimit:10;}
	.st17{fill:#9FD9F6;stroke:#000000;stroke-width:0.5;stroke-miterlimit:10;}
	.st18{fill:none;stroke:#E60012;stroke-width:3;stroke-miterlimit:10;}
	.st19{fill:none;stroke:#000000;stroke-width:3;}
	.st20{fill:none;stroke:#000000;stroke-width:3;stroke-linejoin:round;stroke-miterlimit:10;}
	.st21{fill:none;stroke:#F29C97;stroke-width:3;stroke-linecap:round;stroke-miterlimit:10;}
	.st22{fill:none;stroke:#89438F;stroke-width:3;stroke-linecap:round;stroke-miterlimit:10;}
	.st23{fill:none;stroke:#000000;stroke-width:0.75;}
	.st24{fill:none;stroke:#000000;stroke-width:0.5;stroke-linejoin:round;}
	.st25{fill:none;stroke:#FFFFFF;stroke-width:0.5;stroke-linecap:round;}
	.st26{fill:none;stroke:#FFFFFF;}
	.st27{fill:none;stroke:#000000;stroke-width:0.6;stroke-linejoin:round;}
	.st28{fill:#FFFFFF;}
	.st29{fill:none;stroke:#000000;stroke-width:0.72;stroke-linecap:round;stroke-linejoin:round;}
	.st30{fill:none;stroke:#FFFFFF;stroke-width:0.5;}
	.st31{fill:none;stroke:#040000;stroke-width:0.25;stroke-linecap:round;stroke-linejoin:round;}
	.st32{fill:none;stroke:#000000;stroke-width:0.25;stroke-linecap:round;stroke-linejoin:round;}
	.st33{fill:none;stroke:#000000;stroke-width:1.3;}
	.st34{fill:none;stroke:#000000;stroke-width:0.5;stroke-linecap:round;stroke-linejoin:round;}
	.st35{font-size:4px;}
	.st36{fill:none;stroke:#000000;stroke-width:0.25;}
	.st37{clip-path:url(#SVGID_22_);}
	.st38{clip-path:url(#SVGID_24_);}
	.st39{clip-path:url(#SVGID_26_);}
	.st40{clip-path:url(#SVGID_28_);}
	.st41{clip-path:url(#SVGID_30_);}
	.st42{clip-path:url(#SVGID_32_);}
	.st43{clip-path:url(#SVGID_34_);}
	.st44{clip-path:url(#SVGID_36_);}
	.st45{clip-path:url(#SVGID_38_);}
	.st46{fill:none;stroke:#FFF100;stroke-width:3;stroke-linecap:round;stroke-miterlimit:10;}
	.st47{stroke:#FFFFFF;stroke-width:0.5;}
	.st48{fill:#FFFFFF;stroke:#000000;stroke-width:0.25;}
	.st49{fill:none;stroke:#000000;stroke-width:0.6001;stroke-linecap:round;stroke-linejoin:round;}
	.st50{fill:none;stroke:#000000;stroke-width:0.6001;stroke-linecap:round;}
	.st51{fill:#005EAD;}
</style>
<g id="图层_1">
	<polyline class="st0" points="44,41.9 461.5,41.9 461.5,99.7 44,99.7 	"/>
	<line class="st1" x1="44" y1="47.6" x2="461.5" y2="47.6"/>
	<line class="st2" x1="44" y1="41.6" x2="461.5" y2="41.6"/>
	<line class="st1" x1="44" y1="58.9" x2="461.5" y2="58.9"/>
	<line class="st1" x1="44" y1="70.6" x2="461.5" y2="70.6"/>
	<line class="st1" x1="44" y1="82.3" x2="461.5" y2="82.3"/>
	<line class="st1" x1="44" y1="93.9" x2="461.5" y2="93.9"/>
	<line class="st2" x1="44" y1="99.7" x2="461.5" y2="99.7"/>
	<g class="st3">
		<g>
			<defs>
				<rect id="SVGID_1_" x="464.6" y="44.5" width="7.3" height="6.7"/>
			</defs>
			<clipPath id="SVGID_2_">
				<use xlink:href="#SVGID_1_"  style="overflow:visible;"/>
			</clipPath>
			<g class="st4">
				<text transform="matrix(1 0 0 1 464.5778 49.6302)" class="st5 st6">30</text>
			</g>
		</g>
	</g>
	<g class="st3">
		<g>
			<defs>
				<rect id="SVGID_3_" x="464.6" y="55.6" width="10.4" height="6.7"/>
			</defs>
			<clipPath id="SVGID_4_">
				<use xlink:href="#SVGID_3_"  style="overflow:visible;"/>
			</clipPath>
			<g class="st7">
				<text transform="matrix(1 0 0 1 464.5778 60.7963)" class="st5 st6">IG1</text>
			</g>
		</g>
	</g>
	<g class="st3">
		<g>
			<defs>
				<rect id="SVGID_5_" x="464.6" y="67.3" width="10.4" height="6.7"/>
			</defs>
			<clipPath id="SVGID_6_">
				<use xlink:href="#SVGID_5_"  style="overflow:visible;"/>
			</clipPath>
			<g class="st8">
				<text transform="matrix(1 0 0 1 464.5778 72.4213)" class="st5 st6">IG3</text>
			</g>
		</g>
	</g>
	<g class="st3">
		<g>
			<defs>
				<rect id="SVGID_7_" x="464.6" y="78.8" width="10.4" height="6.7"/>
			</defs>
			<clipPath id="SVGID_8_">
				<use xlink:href="#SVGID_7_"  style="overflow:visible;"/>
			</clipPath>
			<g class="st9">
				<text transform="matrix(1 0 0 1 464.5778 83.9252)" class="st5 st6">IG4</text>
			</g>
		</g>
	</g>
	<g class="st3">
		<g>
			<defs>
				<rect id="SVGID_9_" x="464.6" y="91" width="13.9" height="6.7"/>
			</defs>
			<clipPath id="SVGID_10_">
				<use xlink:href="#SVGID_9_"  style="overflow:visible;"/>
			</clipPath>
			<g class="st10">
				<text transform="matrix(1 0 0 1 464.5778 96.1283)" class="st5 st6">ACC</text>
			</g>
		</g>
	</g>
	<g class="st3">
		<g>
			<defs>
				<rect id="SVGID_11_" x="33.2" y="44.6" width="7.3" height="6.7"/>
			</defs>
			<clipPath id="SVGID_12_">
				<use xlink:href="#SVGID_11_"  style="overflow:visible;"/>
			</clipPath>
			<g class="st11">
				<text transform="matrix(1 0 0 1 33.2295 49.7123)" class="st5 st6">30</text>
			</g>
		</g>
	</g>
	<g class="st3">
		<g>
			<defs>
				<rect id="SVGID_13_" x="30.1" y="55.7" width="10.4" height="6.7"/>
			</defs>
			<clipPath id="SVGID_14_">
				<use xlink:href="#SVGID_13_"  style="overflow:visible;"/>
			</clipPath>
			<g class="st12">
				<text transform="matrix(1 0 0 1 30.0654 60.8783)" class="st5 st6">IG1</text>
			</g>
		</g>
	</g>
	<g class="st3">
		<g>
			<defs>
				<rect id="SVGID_15_" x="30.1" y="67.3" width="10.4" height="6.7"/>
			</defs>
			<clipPath id="SVGID_16_">
				<use xlink:href="#SVGID_15_"  style="overflow:visible;"/>
			</clipPath>
			<g class="st13">
				<text transform="matrix(1 0 0 1 30.1123 72.5033)" class="st5 st6">IG3</text>
			</g>
		</g>
	</g>
	<g class="st3">
		<g>
			<defs>
				<rect id="SVGID_17_" x="30.1" y="78.8" width="10.4" height="6.7"/>
			</defs>
			<clipPath id="SVGID_18_">
				<use xlink:href="#SVGID_17_"  style="overflow:visible;"/>
			</clipPath>
			<g class="st14">
				<text transform="matrix(1 0 0 1 30.0654 84.0033)" class="st5 st6">IG4</text>
			</g>
		</g>
	</g>
	<g class="st3">
		<g>
			<defs>
				<rect id="SVGID_19_" x="26.6" y="91" width="13.9" height="6.7"/>
			</defs>
			<clipPath id="SVGID_20_">
				<use xlink:href="#SVGID_19_"  style="overflow:visible;"/>
			</clipPath>
			<g class="st15">
				<text transform="matrix(1 0 0 1 26.5732 96.1283)" class="st5 st6">ACC</text>
			</g>
		</g>
	</g>
	<rect x="128.1" y="118.7" class="st0" width="51.6" height="51.3"/>
	<rect x="128.1" y="118.7" class="st16" width="51.6" height="51.3"/>
	<polyline class="st17" points="413.3,466.6 62.4,466.6 62.4,433.8 413.3,433.8 413.3,466.6 	"/>
	<polyline class="st18" points="97.1,423.7 97.1,373 153.8,373 	"/>
	<line class="st18" x1="153.8" y1="180.3" x2="153.8" y2="425.7"/>
	<line class="st19" x1="153.3" y1="476.7" x2="153.3" y2="766.8"/>
	<polyline class="st19" points="153.3,566.8 209.9,566.8 209.9,476.8 	"/>
	<polyline class="st19" points="97,476.7 97,566.8 153.6,566.8 	"/>
	<line class="st20" x1="276.8" y1="477" x2="276.8" y2="766.8"/>
	<line class="st21" x1="276.2" y1="181.3" x2="276.2" y2="425.8"/>
	<line class="st22" x1="332.9" y1="182.3" x2="332.9" y2="426.8"/>
	<path class="st23" d="M153.6,150c-1.2,0-2.2,1-2.2,2.2c0,1.2,1,2.2,2.2,2.2c1.2,0,2.2-1,2.2-2.2C155.9,151,154.9,150,153.6,150"/>
	<path class="st23" d="M153.6,134.2c-1.2,0-2.2,1-2.2,2.1c0,1.2,1,2.2,2.2,2.2c1.2,0,2.2-0.9,2.2-2.2
		C155.9,135.2,154.9,134.2,153.6,134.2"/>
	<path class="st23" d="M152.2,137.9c-0.1,2.5,0.2,3.2,1.3,4.3c1.2,1.2,2.4,1.7,2.8,3.7c0.4,1.6-0.1,3.5-1.1,4.5"/>
	<path class="st23" d="M155,150.5c0.2-0.8,0-2.9-0.6-3.7c-0.9-1.2-2.7-2.1-3.3-4c-0.9-2.8,0.7-4.6,1.1-5"/>
	<polyline class="st24" points="153.6,154.4 153.6,157.4 153.6,169.9 	"/>
	<polyline class="st24" points="153.6,134.1 153.6,130.1 153.6,82.3 	"/>
	<path d="M150.7,82.4c0-1.7,1.3-2.9,2.8-2.9c1.6,0,2.9,1.2,2.9,2.9c0,1.5-1.3,2.7-2.9,2.7C152,85.1,150.7,83.9,150.7,82.4"/>
	<path class="st25" d="M150.7,82.4c0-1.7,1.3-2.9,2.8-2.9c1.6,0,2.9,1.2,2.9,2.9c0,1.5-1.3,2.7-2.9,2.7
		C152,85.1,150.7,83.9,150.7,82.4z"/>
	<path class="st26" d="M150.7,82.4c0-1.7,1.3-2.9,2.8-2.9c1.6,0,2.9,1.2,2.9,2.9c0,1.5-1.3,2.7-2.9,2.7
		C152,85.1,150.7,83.9,150.7,82.4"/>
	<line class="st27" x1="153.8" y1="425.7" x2="153.8" y2="433.9"/>
	<path class="st28" d="M153.7,422.6c-1.7,0-3,1.4-3,3c0,1.8,1.4,3.2,3,3.2c1.8,0,3.2-1.4,3.2-3.2C156.9,424,155.5,422.6,153.7,422.6
		"/>
	<path d="M153.7,423.1c-1.4,0-2.5,1.2-2.5,2.5c0,1.6,1.1,2.7,2.5,2.7v1.2c-2,0-3.7-1.6-3.7-3.8c0-2.1,1.7-3.7,3.7-3.7V423.1z
		 M153.7,429.5c2.2,0,3.8-1.7,3.8-3.8s-1.6-3.7-3.8-3.7v1.1c1.6,0,2.7,1.2,2.7,2.5c0,1.6-1.2,2.7-2.7,2.7V429.5"/>
	<rect x="149.7" y="425.8" class="st28" width="8.1" height="4.1"/>
	<rect x="153.3" y="424.8" width="1" height="4.2"/>
	<rect x="153.3" y="424.8" class="st29" width="1" height="4.2"/>
	<line class="st27" x1="97.1" y1="425.7" x2="97.1" y2="433.9"/>
	<path class="st28" d="M97,422.6c-1.7,0-3,1.4-3,3c0,1.8,1.4,3.2,3,3.2c1.8,0,3.2-1.4,3.2-3.2C100.2,424,98.8,422.6,97,422.6"/>
	<path d="M97,423.1c-1.4,0-2.5,1.2-2.5,2.5c0,1.6,1.1,2.7,2.5,2.7v1.2c-2,0-3.7-1.6-3.7-3.8c0-2.1,1.7-3.7,3.7-3.7V423.1z M97,429.5
		c2.2,0,3.8-1.7,3.8-3.8S99.2,422,97,422v1.1c1.6,0,2.7,1.2,2.7,2.5c0,1.6-1.2,2.7-2.7,2.7V429.5"/>
	<rect x="93" y="425.8" class="st28" width="8.1" height="4.1"/>
	<rect x="96.6" y="424.8" width="1" height="4.2"/>
	<rect x="96.6" y="424.8" class="st29" width="1" height="4.2"/>
	<line class="st27" x1="276.2" y1="425.7" x2="276.2" y2="433.9"/>
	<path class="st28" d="M276.1,422.6c-1.7,0-3,1.4-3,3c0,1.8,1.4,3.2,3,3.2c1.8,0,3.2-1.4,3.2-3.2C279.3,424,277.9,422.6,276.1,422.6
		"/>
	<path d="M276.2,423.1c-1.4,0-2.5,1.2-2.5,2.5c0,1.6,1.1,2.7,2.5,2.7v1.2c-2,0-3.7-1.6-3.7-3.8c0-2.1,1.7-3.7,3.7-3.7V423.1z
		 M276.2,429.5c2.2,0,3.8-1.7,3.8-3.8s-1.6-3.7-3.8-3.7v1.1c1.6,0,2.7,1.2,2.7,2.5c0,1.6-1.2,2.7-2.7,2.7V429.5"/>
	<rect x="272.2" y="425.8" class="st28" width="8.1" height="4.1"/>
	<rect x="275.7" y="424.8" width="1" height="4.2"/>
	<rect x="275.7" y="424.8" class="st29" width="1" height="4.2"/>
	<line class="st27" x1="332.9" y1="425.7" x2="332.9" y2="433.9"/>
	<path class="st28" d="M332.8,422.6c-1.7,0-3,1.4-3,3c0,1.8,1.4,3.2,3,3.2c1.8,0,3.2-1.4,3.2-3.2C336,424,334.6,422.6,332.8,422.6"
		/>
	<path d="M332.9,423.1c-1.4,0-2.5,1.2-2.5,2.5c0,1.6,1.1,2.7,2.5,2.7v1.2c-2,0-3.7-1.6-3.7-3.8c0-2.1,1.7-3.7,3.7-3.7V423.1z
		 M332.9,429.5c2.2,0,3.8-1.7,3.8-3.8s-1.6-3.7-3.8-3.7v1.1c1.6,0,2.7,1.2,2.7,2.5c0,1.6-1.2,2.7-2.7,2.7V429.5"/>
	<rect x="328.9" y="425.8" class="st28" width="8.1" height="4.1"/>
	<rect x="332.4" y="424.8" width="1" height="4.2"/>
	<rect x="332.4" y="424.8" class="st29" width="1" height="4.2"/>
	<path d="M156.9,372.9c0,1.7-1.3,2.9-2.8,2.9c-1.6,0-2.9-1.2-2.9-2.9c0-1.5,1.3-2.7,2.9-2.7C155.6,370.2,156.9,371.4,156.9,372.9"/>
	<path class="st30" d="M156.9,372.9c0,1.7-1.3,2.9-2.8,2.9c-1.6,0-2.9-1.2-2.9-2.9c0-1.5,1.3-2.7,2.9-2.7
		C155.6,370.2,156.9,371.4,156.9,372.9z"/>
	<line class="st27" x1="153.6" y1="178.1" x2="153.6" y2="169.9"/>
	<path class="st28" d="M153.5,181.2c-1.7,0-3-1.4-3-3c0-1.8,1.4-3.2,3-3.2c1.8,0,3.2,1.4,3.2,3.2
		C156.7,179.8,155.3,181.2,153.5,181.2"/>
	<path d="M153.5,181.8c-2,0-3.7-1.6-3.7-3.7c0-2.2,1.7-3.8,3.7-3.8v1.2c-1.4,0-2.5,1.1-2.5,2.7c0,1.3,1.1,2.5,2.5,2.5V181.8z
		 M153.5,174.3v1.2c1.5,0,2.7,1.1,2.7,2.7c0,1.3-1.1,2.5-2.7,2.5v1.1c2.2,0,3.8-1.6,3.8-3.7C157.3,176,155.7,174.3,153.5,174.3"/>
	<rect x="149.5" y="173.9" class="st28" width="8.1" height="4.1"/>
	<rect x="153.1" y="174.8" width="1" height="4.2"/>
	<rect x="153.1" y="174.8" class="st29" width="1" height="4.2"/>
	<path class="st16" d="M273.1,299.3c-1.9,0-3.4-1.7-3.4-3.8c0-2.1,1.5-3.8,3.4-3.8l62.9,7.6c1.9,0,3.4-1.7,3.4-3.8
		c0-2.1-1.5-3.8-3.4-3.8L273.1,299.3z"/>
	<line class="st27" x1="153.3" y1="474.9" x2="153.3" y2="466.7"/>
	<path class="st28" d="M153.2,478c-1.7,0-3-1.4-3-3c0-1.8,1.4-3.2,3-3.2c1.8,0,3.2,1.4,3.2,3.2C156.4,476.6,155,478,153.2,478"/>
	<path d="M153.2,478.6c-2,0-3.7-1.6-3.7-3.7c0-2.2,1.7-3.8,3.7-3.8v1.2c-1.4,0-2.5,1.1-2.5,2.7c0,1.3,1.1,2.5,2.5,2.5V478.6z
		 M153.2,471.1v1.2c1.5,0,2.7,1.1,2.7,2.7c0,1.3-1.1,2.5-2.7,2.5v1.1c2.2,0,3.8-1.6,3.8-3.7C157,472.8,155.4,471.1,153.2,471.1"/>
	<rect x="149.2" y="470.7" class="st28" width="8.1" height="4.1"/>
	<rect x="152.8" y="471.6" width="1" height="4.2"/>
	<rect x="152.8" y="471.6" class="st29" width="1" height="4.2"/>
	<line class="st27" x1="210" y1="474.9" x2="210" y2="466.7"/>
	<path class="st28" d="M209.9,478c-1.7,0-3-1.4-3-3c0-1.8,1.4-3.2,3-3.2c1.8,0,3.2,1.4,3.2,3.2C213.1,476.6,211.7,478,209.9,478"/>
	<path d="M209.9,478.6c-2,0-3.7-1.6-3.7-3.7c0-2.2,1.7-3.8,3.7-3.8v1.2c-1.4,0-2.5,1.1-2.5,2.7c0,1.3,1.1,2.5,2.5,2.5V478.6z
		 M209.9,471.1v1.2c1.5,0,2.7,1.1,2.7,2.7c0,1.3-1.1,2.5-2.7,2.5v1.1c2.2,0,3.8-1.6,3.8-3.7C213.7,472.8,212.1,471.1,209.9,471.1"/>
	<rect x="205.9" y="470.7" class="st28" width="8.1" height="4.1"/>
	<rect x="209.5" y="471.6" width="1" height="4.2"/>
	<rect x="209.5" y="471.6" class="st29" width="1" height="4.2"/>
	<line class="st27" x1="97.1" y1="474.9" x2="97.1" y2="466.7"/>
	<path class="st28" d="M97,478c-1.7,0-3-1.4-3-3c0-1.8,1.4-3.2,3-3.2c1.8,0,3.2,1.4,3.2,3.2C100.2,476.6,98.8,478,97,478"/>
	<path d="M97,478.6c-2,0-3.7-1.6-3.7-3.7c0-2.2,1.7-3.8,3.7-3.8v1.2c-1.4,0-2.5,1.1-2.5,2.7c0,1.3,1.1,2.5,2.5,2.5V478.6z M97,471.1
		v1.2c1.5,0,2.7,1.1,2.7,2.7c0,1.3-1.1,2.5-2.7,2.5v1.1c2.2,0,3.8-1.6,3.8-3.7C100.8,472.8,99.2,471.1,97,471.1"/>
	<rect x="93" y="470.7" class="st28" width="8.1" height="4.1"/>
	<rect x="96.6" y="471.6" width="1" height="4.2"/>
	<rect x="96.6" y="471.6" class="st29" width="1" height="4.2"/>
	<line class="st27" x1="276.8" y1="474.9" x2="276.8" y2="466.7"/>
	<path class="st28" d="M276.7,478c-1.7,0-3-1.4-3-3c0-1.8,1.4-3.2,3-3.2c1.8,0,3.2,1.4,3.2,3.2C279.9,476.6,278.5,478,276.7,478"/>
	<path d="M276.7,478.6c-2,0-3.7-1.6-3.7-3.7c0-2.2,1.7-3.8,3.7-3.8v1.2c-1.4,0-2.5,1.1-2.5,2.7c0,1.3,1.1,2.5,2.5,2.5V478.6z
		 M276.7,471.1v1.2c1.5,0,2.7,1.1,2.7,2.7c0,1.3-1.1,2.5-2.7,2.5v1.1c2.2,0,3.8-1.6,3.8-3.7C280.5,472.8,278.9,471.1,276.7,471.1"/>
	<rect x="272.7" y="470.7" class="st28" width="8.1" height="4.1"/>
	<rect x="276.3" y="471.6" width="1" height="4.2"/>
	<rect x="276.3" y="471.6" class="st29" width="1" height="4.2"/>
	<rect x="142.6" y="773.6" class="st28" width="20.3" height="8.2"/>
	<rect x="143" y="774" class="st28" width="19.7" height="7.6"/>
	<rect x="143" y="774" class="st31" width="19.7" height="7.6"/>
	<rect x="266.7" y="773.6" class="st28" width="20.3" height="8.2"/>
	<rect x="267" y="774" class="st28" width="19.7" height="7.6"/>
	<rect x="267" y="774" class="st32" width="19.7" height="7.6"/>
	<line class="st33" x1="276.9" y1="764.2" x2="276.9" y2="766.8"/>
	<line class="st33" x1="269.9" y1="766.8" x2="283.7" y2="766.8"/>
	<line class="st33" x1="272.7" y1="769.1" x2="280.9" y2="769.1"/>
	<line class="st33" x1="279.2" y1="771.2" x2="274.4" y2="771.2"/>
	<line class="st33" x1="145.8" y1="767.1" x2="159.7" y2="767.1"/>
	<line class="st33" x1="148.7" y1="769.3" x2="156.8" y2="769.3"/>
	<line class="st33" x1="155.2" y1="771.4" x2="150.3" y2="771.4"/>
	<path d="M156.4,566.7c0,1.7-1.3,2.9-2.8,2.9c-1.6,0-2.9-1.2-2.9-2.9c0-1.5,1.3-2.7,2.9-2.7C155.1,564,156.4,565.2,156.4,566.7"/>
	<path class="st30" d="M156.4,566.7c0,1.7-1.3,2.9-2.8,2.9c-1.6,0-2.9-1.2-2.9-2.9c0-1.5,1.3-2.7,2.9-2.7
		C155.1,564,156.4,565.2,156.4,566.7z"/>
	<path class="st34" d="M337.6,178.5l-0.5-2.2c0,0-0.5-2.7-2.9-2.8h-28.1l-1.7-2.9l-1.7,2.9h-28c-2.4,0.1-2.8,2.8-2.8,2.8l-0.5,2.2"
		/>
	<text transform="matrix(1 0 0 1 158.9302 149.4153)" class="st5 st6">10A</text>
	<text transform="matrix(1 0 0 1 145.0664 438.4189)" class="st5 st35">IG4 Power supply</text>
	<text transform="matrix(1 0 0 1 88.3906 438.4189)" class="st5 st35">IG4 Power supply</text>
	<text transform="matrix(1 0 0 1 93.0703 465.2871)" class="st5 st35">Ground </text>
	<rect x="156.4" y="557.1" class="st28" width="25.3" height="5.6"/>
	<rect x="156.4" y="557.1" class="st36" width="25.3" height="5.6"/>
	<text transform="matrix(1 0 0 1 157.1358 562.0175)" class="st5 st6">SP3218</text>
	<rect x="158.6" y="369.7" class="st28" width="24.7" height="6.1"/>
	<rect x="158.6" y="369.5" class="st36" width="25.3" height="7.2"/>
	<text transform="matrix(1 0 0 1 158.5527 375.0942)" class="st5 st6">SP3217</text>
	<text transform="matrix(1 0 0 1 148.071 465.289)" class="st5 st35">Ground  2</text>
	<text transform="matrix(1 0 0 1 199.9509 465.289)" class="st5 st35">Impact signal ground</text>
	<text transform="matrix(1 0 0 1 269.2124 465.289)" class="st5 st35">Negative ground </text>
	<text transform="matrix(1 0 0 1 325.7786 438.4209)" class="st5 st35">CAN_L</text>
	<text transform="matrix(1 0 0 1 266.8321 438.4209)" class="st5 st35">CAN_H</text>
	<text transform="matrix(1 0 0 1 254.533 168.7893)" class="st5 st6">See Energy Network Circuit Diagram</text>
	<rect x="148.8" y="395.5" class="st28" width="9.8" height="7.1"/>
	<text transform="matrix(1 0 0 1 146.004 400.6758)" class="st5 st6">R 0.5</text>
	<rect x="148.8" y="338.2" class="st28" width="9.8" height="7.1"/>
	<text transform="matrix(1 0 0 1 146.004 343.3424)" class="st5 st6">R 0.5</text>
	<rect x="148.8" y="199.7" class="st28" width="9.8" height="7.1"/>
	<text transform="matrix(1 0 0 1 146.004 204.8892)" class="st5 st6">R 0.5</text>
	<rect x="148.8" y="264.4" class="st28" width="9.8" height="7.1"/>
	<text transform="matrix(1 0 0 1 146.004 269.5559)" class="st5 st6">R 0.5</text>
	<rect x="92.1" y="395.5" class="st28" width="9.8" height="7.1"/>
	<text transform="matrix(1 0 0 1 88.3908 400.6758)" class="st5 st6">R 0.5</text>
	<rect x="262.2" y="395.5" class="st28" width="28.1" height="7.1"/>
	<g class="st3">
		<g>
			<defs>
				<rect id="SVGID_21_" x="266.8" y="395.5" width="18.8" height="6.7"/>
			</defs>
			<clipPath id="SVGID_22_">
				<use xlink:href="#SVGID_21_"  style="overflow:visible;"/>
			</clipPath>
			<g class="st37">
				<text transform="matrix(1 0 0 1 266.8323 400.6758)" class="st5 st6">P 0.35</text>
			</g>
		</g>
	</g>
	<rect x="318.9" y="395.5" class="st28" width="28.1" height="7.1"/>
	<g class="st3">
		<g>
			<defs>
				<rect id="SVGID_23_" x="323.5" y="395.5" width="18.8" height="6.7"/>
			</defs>
			<clipPath id="SVGID_24_">
				<use xlink:href="#SVGID_23_"  style="overflow:visible;"/>
			</clipPath>
			<g class="st38">
				<text transform="matrix(1 0 0 1 323.4901 400.6758)" class="st5 st6">V 0.35</text>
			</g>
		</g>
	</g>
	<rect x="139.2" y="500.8" class="st28" width="28.1" height="7.1"/>
	<g class="st3">
		<g>
			<defs>
				<rect id="SVGID_25_" x="145.7" y="501" width="15.2" height="6.7"/>
			</defs>
			<clipPath id="SVGID_26_">
				<use xlink:href="#SVGID_25_"  style="overflow:visible;"/>
			</clipPath>
			<g class="st39">
				<text transform="matrix(1 0 0 1 145.6765 506.1953)" class="st5 st6">B 0.5</text>
			</g>
		</g>
	</g>
	<rect x="139.2" y="599.8" class="st28" width="28.1" height="7.1"/>
	<g class="st3">
		<g>
			<defs>
				<rect id="SVGID_27_" x="145.7" y="600" width="15.2" height="6.7"/>
			</defs>
			<clipPath id="SVGID_28_">
				<use xlink:href="#SVGID_27_"  style="overflow:visible;"/>
			</clipPath>
			<g class="st40">
				<text transform="matrix(1 0 0 1 145.6765 605.1487)" class="st5 st6">B 0.5</text>
			</g>
		</g>
	</g>
	<rect x="139.2" y="679.1" class="st28" width="28.1" height="7.1"/>
	<g class="st3">
		<g>
			<defs>
				<rect id="SVGID_29_" x="145.7" y="679.3" width="15.2" height="6.7"/>
			</defs>
			<clipPath id="SVGID_30_">
				<use xlink:href="#SVGID_29_"  style="overflow:visible;"/>
			</clipPath>
			<g class="st41">
				<text transform="matrix(1 0 0 1 145.6765 684.4821)" class="st5 st6">B 0.5</text>
			</g>
		</g>
	</g>
	<rect x="139.2" y="736.1" class="st28" width="28.1" height="7.1"/>
	<g class="st3">
		<g>
			<defs>
				<rect id="SVGID_31_" x="145.7" y="736.3" width="15.2" height="6.7"/>
			</defs>
			<clipPath id="SVGID_32_">
				<use xlink:href="#SVGID_31_"  style="overflow:visible;"/>
			</clipPath>
			<g class="st42">
				<text transform="matrix(1 0 0 1 145.6765 741.4821)" class="st5 st6">B 0.5</text>
			</g>
		</g>
	</g>
	<rect x="83" y="500.8" class="st28" width="28.1" height="7.1"/>
	<g class="st3">
		<g>
			<defs>
				<rect id="SVGID_33_" x="89.5" y="501" width="15.2" height="6.7"/>
			</defs>
			<clipPath id="SVGID_34_">
				<use xlink:href="#SVGID_33_"  style="overflow:visible;"/>
			</clipPath>
			<g class="st43">
				<text transform="matrix(1 0 0 1 89.4863 506.1953)" class="st5 st6">B 0.5</text>
			</g>
		</g>
	</g>
	<rect x="195.9" y="500.8" class="st28" width="28.1" height="7.1"/>
	<g class="st3">
		<g>
			<defs>
				<rect id="SVGID_35_" x="202.4" y="501" width="15.2" height="6.7"/>
			</defs>
			<clipPath id="SVGID_36_">
				<use xlink:href="#SVGID_35_"  style="overflow:visible;"/>
			</clipPath>
			<g class="st44">
				<text transform="matrix(1 0 0 1 202.3694 506.1953)" class="st5 st6">B 0.5</text>
			</g>
		</g>
	</g>
	<rect x="262.8" y="500.8" class="st28" width="28.1" height="7.1"/>
	<g class="st3">
		<g>
			<defs>
				<rect id="SVGID_37_" x="267.4" y="501" width="18.9" height="6.7"/>
			</defs>
			<clipPath id="SVGID_38_">
				<use xlink:href="#SVGID_37_"  style="overflow:visible;"/>
			</clipPath>
			<g class="st45">
				<text transform="matrix(1 0 0 1 267.3636 506.1953)" class="st5 st6">B 16.0</text>
			</g>
		</g>
	</g>
	<g class="st3">
		<g>
			<defs>
				<rect id="SVGID_39_" x="145.1" y="774.4" width="15.3" height="6.7"/>
			</defs>
			<clipPath id="SVGID_40_">
				<use xlink:href="#SVGID_39_"  style="overflow:visible;"/>
			</clipPath>
		</g>
	</g>
	<line class="st46" x1="334" y1="477.8" x2="334" y2="712.8"/>
	<path class="st47" d="M336.8,647.6c-0.2,1.5-1.4,2.5-2.8,2.5c-1.6,0-2.9-1.2-2.9-2.9c0-1.6,1.4-2.9,3.2-2.7
		C335.8,644.7,337,646.1,336.8,647.6z"/>
	<g id="_x30_2-上针脚_4_">
		<line class="st27" x1="334" y1="475.1" x2="334" y2="466.9"/>
		<path class="st28" d="M333.9,478.2c-1.7,0-3-1.4-3-3c0-1.8,1.4-3.2,3-3.2c1.8,0,3.2,1.4,3.2,3.2
			C337.1,476.8,335.7,478.2,333.9,478.2"/>
		<path d="M334,478.8c-2,0-3.7-1.6-3.7-3.7c0-2.2,1.7-3.8,3.7-3.8v1.2c-1.4,0-2.5,1.1-2.5,2.7c0,1.3,1.1,2.5,2.5,2.5V478.8z
			 M334,471.3v1.2c1.5,0,2.7,1.1,2.7,2.7c0,1.3-1.1,2.5-2.7,2.5v1.1c2.2,0,3.8-1.6,3.8-3.7S336.1,471.3,334,471.3"/>
		<rect x="329.9" y="470.9" class="st28" width="8.1" height="4.1"/>
		<rect x="333.5" y="471.8" width="1" height="4.2"/>
		<rect x="333.5" y="471.8" class="st29" width="1" height="4.2"/>
	</g>
	<rect x="330.3" y="679.1" class="st28" width="6.8" height="7.1"/>
	<g>
		<text transform="matrix(1 0 0 1 326.4183 684.4814)" class="st5 st6">Y 0.5</text>
	</g>
	<rect x="330.3" y="500.8" class="st28" width="6.8" height="7.1"/>
	<g>
		<text transform="matrix(1 0 0 1 326.4183 506.1947)" class="st5 st6">Y 0.5</text>
	</g>
	<rect x="330.3" y="599.8" class="st28" width="6.8" height="7.1"/>
	<g>
		<text transform="matrix(1 0 0 1 326.4183 605.1481)" class="st5 st6">Y 0.5</text>
	</g>
	<g>
		<text transform="matrix(1 0 0 1 326 465.2869)" class="st5 st35">Impact signal</text>
	</g>
	<rect x="339.5" y="644.5" class="st48" width="25.3" height="5.6"/>
	<text transform="matrix(1 0 0 1 340.1721 649.3838)" class="st5 st6">SP2407</text>
	<path class="st47" d="M156.2,715.4c-0.2,1.5-1.4,2.5-2.8,2.5c-1.6,0-2.9-1.2-2.9-2.9c0-1.6,1.4-2.9,3.2-2.7
		C155.2,712.5,156.3,713.9,156.2,715.4z"/>
	<rect x="158.8" y="711.3" class="st48" width="25.3" height="6.7"/>
	<text transform="matrix(1 0 0 1 159.5028 716.5647)" class="st5 st6">SP3319</text>
	<g>
		<rect x="149.3" y="288.9" class="st28" width="8.5" height="18.8"/>
		<g>
			<g>
				<line class="st49" x1="153.4" y1="297.6" x2="153.4" y2="289.4"/>
			</g>
			<g>
				<line class="st50" x1="153.5" y1="300.8" x2="153.5" y2="307.3"/>
			</g>
			<g>
				<g>
					<g>
						<path class="st28" d="M153.5,300.7c-1.7,0-3.2-1.4-3.2-3.2c0-1.8,1.5-3.2,3.2-3.2c1.8,0,3.2,1.4,3.2,3.2
							C156.6,299.3,155.2,300.7,153.5,300.7z"/>
						<path d="M153.5,301.3c-2,0-3.7-1.8-3.7-3.8h1.1c0,1.4,1.1,2.5,2.5,2.5c1.5,0,2.7-1.1,2.7-2.5h1.1
							C157.3,299.5,155.6,301.3,153.5,301.3L153.5,301.3z M149.8,297.5h1.1c0-1.4,1.1-2.5,2.5-2.5c1.5,0,2.7,1.1,2.7,2.5h1.1
							c0-2.2-1.6-3.8-3.8-3.8C151.4,293.7,149.8,295.3,149.8,297.5z"/>
					</g>
					<rect x="149.3" y="293.3" class="st28" width="8.5" height="4.1"/>
					<rect x="152.8" y="294.2" width="1" height="4.2"/>
					<rect x="152.8" y="294.2" class="st29" width="1" height="4.2"/>
				</g>
			</g>
		</g>
	</g>
	<g>
		<g>
			<g>
				<text transform="matrix(1 0 0 1 158.748 294.5523)" class="st51 st5 st6">KJH01</text>
			</g>
		</g>
	</g>
	<g>
		<g>
			<g>
				<text transform="matrix(1 0 0 1 158.748 301.969)" class="st51 st5 st6">HJK01</text>
			</g>
		</g>
	</g>
	<g>
		<g>
			<g>
				<text transform="matrix(1 0 0 1 158.748 308.469)" class="st51 st5 st6">-2</text>
			</g>
		</g>
	</g>
	<g>
		<rect x="149.3" y="225.4" class="st28" width="8.5" height="18.8"/>
		<g>
			<g>
				<line class="st49" x1="153.7" y1="235.5" x2="153.7" y2="243.7"/>
			</g>
			<g>
				<line class="st50" x1="153.6" y1="232.3" x2="153.6" y2="225.8"/>
			</g>
			<g>
				<g>
					<g>
						<path class="st28" d="M153.6,232.4c1.7,0,3.2,1.4,3.2,3.2s-1.5,3.2-3.2,3.2c-1.8,0-3.2-1.4-3.2-3.2
							C150.5,233.8,151.9,232.4,153.6,232.4z"/>
						<path d="M153.6,231.8c2,0,3.7,1.8,3.7,3.8h-1.1c0-1.4-1.1-2.5-2.5-2.5c-1.5,0-2.7,1.1-2.7,2.5h-1.1
							C149.8,233.6,151.5,231.8,153.6,231.8L153.6,231.8z M157.3,235.6h-1.1c0,1.4-1.1,2.5-2.5,2.5c-1.5,0-2.7-1.1-2.7-2.5h-1.1
							c0,2.2,1.6,3.8,3.8,3.8C155.7,239.4,157.3,237.8,157.3,235.6z"/>
					</g>
					<rect x="149.3" y="235.7" class="st28" width="8.5" height="4.1"/>
					<rect x="153.3" y="234.7" width="1" height="4.2"/>
					<rect x="153.3" y="234.7" class="st29" width="1" height="4.2"/>
				</g>
			</g>
		</g>
	</g>
	<g>
		<g>
			<g>
				<text transform="matrix(1 0 0 1 158.748 230.9817)" class="st51 st5 st6">BJK01</text>
			</g>
		</g>
	</g>
	<g>
		<g>
			<g>
				<text transform="matrix(1 0 0 1 158.748 238.3984)" class="st51 st5 st6">KJB01</text>
			</g>
		</g>
	</g>
	<g>
		<g>
			<g>
				<text transform="matrix(1 0 0 1 158.748 244.8984)" class="st51 st5 st6">-27</text>
			</g>
		</g>
	</g>
	<g>
		<rect x="329.9" y="534.2" class="st28" width="8.5" height="18.8"/>
		<g>
			<g>
				<line class="st49" x1="334.3" y1="544.3" x2="334.3" y2="552.5"/>
			</g>
			<g>
				<line class="st50" x1="334.2" y1="541.1" x2="334.2" y2="534.6"/>
			</g>
			<g>
				<g>
					<g>
						<path class="st28" d="M334.2,541.2c1.7,0,3.2,1.4,3.2,3.2c0,1.8-1.5,3.2-3.2,3.2c-1.8,0-3.2-1.4-3.2-3.2
							C331.1,542.6,332.5,541.2,334.2,541.2z"/>
						<path d="M334.2,540.6c2,0,3.7,1.8,3.7,3.8h-1.1c0-1.4-1.1-2.5-2.5-2.5c-1.5,0-2.7,1.1-2.7,2.5h-1.1
							C330.4,542.4,332.1,540.6,334.2,540.6L334.2,540.6z M337.9,544.4h-1.1c0,1.4-1.1,2.5-2.5,2.5c-1.5,0-2.7-1.1-2.7-2.5h-1.1
							c0,2.2,1.6,3.8,3.8,3.8C336.3,548.2,337.9,546.6,337.9,544.4z"/>
					</g>
					<rect x="329.9" y="544.5" class="st28" width="8.5" height="4.1"/>
					<rect x="333.9" y="543.5" width="1" height="4.2"/>
					<rect x="333.9" y="543.5" class="st29" width="1" height="4.2"/>
				</g>
			</g>
		</g>
	</g>
	<g>
		<g>
			<g>
				<text transform="matrix(1 0 0 1 339.3077 539.8035)" class="st51 st5 st6">HJK01</text>
			</g>
		</g>
	</g>
	<g>
		<g>
			<g>
				<text transform="matrix(1 0 0 1 339.3077 547.2202)" class="st51 st5 st6">KJH01</text>
			</g>
		</g>
	</g>
	<g>
		<g>
			<g>
				<text transform="matrix(1 0 0 1 339.3077 553.7202)" class="st51 st5 st6">-1</text>
			</g>
		</g>
	</g>
	<g>
		<rect x="148.8" y="637" class="st28" width="8.5" height="18.8"/>
		<g>
			<g>
				<line class="st49" x1="153.2" y1="647.1" x2="153.2" y2="655.3"/>
			</g>
			<g>
				<line class="st50" x1="153.1" y1="643.9" x2="153.1" y2="637.4"/>
			</g>
			<g>
				<g>
					<g>
						<path class="st28" d="M153.1,644c1.7,0,3.2,1.4,3.2,3.2s-1.5,3.2-3.2,3.2c-1.8,0-3.2-1.4-3.2-3.2
							C150,645.4,151.4,644,153.1,644z"/>
						<path d="M153.1,643.4c2,0,3.7,1.8,3.7,3.8h-1.1c0-1.4-1.1-2.5-2.5-2.5c-1.5,0-2.7,1.1-2.7,2.5h-1.1
							C149.3,645.2,151,643.4,153.1,643.4L153.1,643.4z M156.8,647.2h-1.1c0,1.4-1.1,2.5-2.5,2.5c-1.5,0-2.7-1.1-2.7-2.5h-1.1
							c0,2.2,1.6,3.8,3.8,3.8C155.2,651,156.8,649.4,156.8,647.2z"/>
					</g>
					<rect x="148.8" y="647.3" class="st28" width="8.5" height="4.1"/>
					<rect x="152.8" y="646.3" width="1" height="4.2"/>
					<rect x="152.8" y="646.3" class="st29" width="1" height="4.2"/>
				</g>
			</g>
		</g>
	</g>
	<g>
		<g>
			<g>
				<text transform="matrix(1 0 0 1 158.259 642.6251)" class="st51 st5 st6">HJK01</text>
			</g>
		</g>
	</g>
	<g>
		<g>
			<g>
				<text transform="matrix(1 0 0 1 158.259 650.0417)" class="st51 st5 st6">KJH01</text>
			</g>
		</g>
	</g>
	<g>
		<g>
			<g>
				<text transform="matrix(1 0 0 1 158.259 656.5418)" class="st51 st5 st6">-5</text>
			</g>
		</g>
	</g>
</g>
<g id="图层_2">
	<g>
		<text transform="matrix(1 0 0 1 185.2095 144.8328)" class="st51 st5 st6">Front Compartment Distribution Box</text>
	</g>
	<g>
		<text transform="matrix(1 0 0 1 158.7256 142.7991)" class="st51 st5 st6">F1/24</text>
	</g>
	<g>
		<text transform="matrix(1 0 0 1 159.877 177.473)" class="st51 st5 st6">B1C</text>
	</g>
	<g>
		<text transform="matrix(1 0 0 1 172.5435 177.473)" class="st51 st5 st6">-32</text>
	</g>
	<g>
		<text transform="matrix(1 0 0 1 282.0254 431.2552)" class="st51 st5 st6">H01</text>
	</g>
	<g>
		<text transform="matrix(1 0 0 1 293.2339 431.2557)" class="st51 st5 st6">-5</text>
	</g>
	<g>
		<text transform="matrix(1 0 0 1 338.6919 431.2552)" class="st51 st5 st6">H01</text>
	</g>
	<g>
		<text transform="matrix(1 0 0 1 349.9004 431.2557)" class="st51 st5 st6">-14</text>
	</g>
	<g>
		<text transform="matrix(1 0 0 1 102.2227 473.8075)" class="st51 st5 st6">H01</text>
	</g>
	<g>
		<text transform="matrix(1 0 0 1 113.811 473.807)" class="st51 st5 st6">-1</text>
	</g>
	<g>
		<text transform="matrix(1 0 0 1 158.8594 473.8075)" class="st51 st5 st6">H01</text>
	</g>
	<g>
		<text transform="matrix(1 0 0 1 170.4478 473.807)" class="st51 st5 st6">-6</text>
	</g>
	<g>
		<text transform="matrix(1 0 0 1 216.6523 473.8075)" class="st51 st5 st6">H01</text>
	</g>
	<g>
		<text transform="matrix(1 0 0 1 228.2407 473.807)" class="st51 st5 st6">-8</text>
	</g>
	<g>
		<text transform="matrix(1 0 0 1 283.8164 473.8075)" class="st51 st5 st6">Fr02</text>
	</g>
	<g>
		<text transform="matrix(1 0 0 1 297.2329 473.807)" class="st51 st5 st6">-1</text>
	</g>
	<g>
		<text transform="matrix(1 0 0 1 269.9922 780.3578)" class="st51 st5 st6">Fr01</text>
	</g>
	<g>
		<text transform="matrix(1 0 0 1 145.0605 779.5521)" class="st51 st5 st6">Ek07</text>
	</g>
	<g>
		<text transform="matrix(1 0 0 1 213.8735 452.6425)" class="st51 st5 st6">Rear  Drive Motor Control Module</text>
	</g>
	<g>
		<text transform="matrix(1 0 0 1 102.2275 431.2557)" class="st51 st5 st6">H01</text>
	</g>
	<g>
		<text transform="matrix(1 0 0 1 113.811 431.2557)" class="st51 st5 st6">-10</text>
	</g>
	<g>
		<text transform="matrix(1 0 0 1 158.7354 431.2557)" class="st51 st5 st6">H01</text>
	</g>
	<g>
		<text transform="matrix(1 0 0 1 170.3188 431.2557)" class="st51 st5 st6">-11</text>
	</g>
	<g>
		<text transform="matrix(1 0 0 1 316.5293 729.7201)" class="st51 st5 st6">Airbag Controller</text>
	</g>
	<g>
		<text transform="matrix(1 0 0 1 320.0674 721.8729)" class="st51 st5 st6">KG10</text>
	</g>
	<g>
		<text transform="matrix(1 0 0 1 336.7549 721.8729)" class="st51 st5 st6">-46</text>
	</g>
	<g>
		<text transform="matrix(1 0 0 1 338.5537 473.8075)" class="st51 st5 st6">H01</text>
	</g>
	<g>
		<text transform="matrix(1 0 0 1 350.2285 473.8075)" class="st51 st5 st6">-3</text>
	</g>
</g>
</svg>
