<?xml version="1.0" encoding="utf-8"?>
<!-- Generator: Adobe Illustrator 24.0.1, SVG Export Plug-In . SVG Version: 6.00 Build 0)  -->
<svg version="1.1" id="图层_1" xmlns="http://www.w3.org/2000/svg" xmlns:xlink="http://www.w3.org/1999/xlink" x="0px" y="0px"
	 viewBox="0 0 1502 841.9" style="enable-background:new 0 0 1502 841.9;" xml:space="preserve">
<style type="text/css">
	.st0{fill:#DCDDDD;}
	.st1{fill:none;stroke:#000000;stroke-width:0.5;}
	.st2{fill:none;stroke:#000000;}
	.st3{font-family:'FZLTHJW--GB1-0';}
	.st4{font-size:6px;}
	.st5{fill:#9FD9F6;}
	.st6{fill:none;stroke:#000000;stroke-width:0.5;stroke-linecap:round;stroke-miterlimit:10;}
	.st7{fill:none;stroke:#000000;stroke-width:0.5;stroke-miterlimit:10;}
	.st8{fill:none;stroke:#F29C97;stroke-width:3;stroke-linecap:round;stroke-miterlimit:10;}
	.st9{fill:none;stroke:#000000;stroke-width:3;stroke-miterlimit:10;}
	.st10{fill:none;stroke:#E60012;stroke-miterlimit:10;}
	.st11{fill:none;stroke:#FFFFFF;stroke-miterlimit:10;}
	.st12{fill:none;stroke:#FFF100;stroke-width:3;stroke-miterlimit:10;}
	.st13{fill:none;stroke:#E60012;stroke-width:3;stroke-miterlimit:10;}
	.st14{fill:none;stroke:#009944;stroke-width:3;stroke-miterlimit:10;}
	.st15{fill:none;stroke:#009944;stroke-miterlimit:10;}
	.st16{fill:none;stroke:#005EAD;stroke-miterlimit:10;}
	.st17{fill:none;stroke:#000000;stroke-miterlimit:10;}
	.st18{fill:none;stroke:#F6AE6A;stroke-width:3;stroke-miterlimit:10;}
	.st19{fill:none;stroke:#89438F;stroke-width:3;stroke-linecap:round;stroke-miterlimit:10;}
	.st20{fill:none;stroke:#000000;stroke-width:0.75;}
	.st21{fill:none;stroke:#000000;stroke-width:0.5;stroke-linejoin:round;}
	.st22{fill:none;stroke:#FFFFFF;stroke-width:0.5;stroke-linecap:round;}
	.st23{fill:none;stroke:#FFFFFF;}
	.st24{fill:none;stroke:#000000;stroke-width:0.6;stroke-linejoin:round;}
	.st25{fill:#FFFFFF;}
	.st26{fill:none;stroke:#000000;stroke-width:0.72;stroke-linecap:round;stroke-linejoin:round;}
	.st27{fill:#070102;}
	.st28{fill:none;stroke:#FFFFFF;stroke-width:0.5;}
	.st29{fill:none;stroke:#000000;stroke-width:1.3;}
	.st30{fill:none;stroke:#000000;stroke-width:0.5;stroke-linecap:round;stroke-linejoin:round;}
	.st31{enable-background:new    ;}
	.st32{fill:none;stroke:#070102;stroke-width:0.25;stroke-linecap:round;stroke-linejoin:round;}
	.st33{font-size:5.958px;}
	.st34{fill:none;stroke:#070102;stroke-width:0.25;}
	.st35{font-size:4px;}
	.st36{fill:#005EAD;}
	.st37{fill:none;stroke:#898989;stroke-miterlimit:10;}
	.st38{fill:#FFFFFF;stroke:#000000;stroke-width:0.25;stroke-linecap:round;stroke-linejoin:round;}
	.st39{fill:#FFFFFF;stroke:#000000;stroke-width:0.25;}
	.st40{stroke:#FFFFFF;stroke-width:0.5;}
	.st41{fill:#DCDDDD;stroke:#000000;stroke-width:0.5;stroke-linecap:round;stroke-miterlimit:10;}
	.st42{fill:none;stroke:#040000;stroke-width:0.75;}
	.st43{fill:#E60012;stroke:#E60012;stroke-width:3;stroke-miterlimit:10;}
	.st44{fill:none;stroke:#000000;stroke-width:0.6;stroke-linecap:round;stroke-linejoin:round;}
	.st45{stroke:#FFFFFF;stroke-width:0.5;stroke-linecap:round;}
	.st46{fill:none;stroke:#FFFFFF;stroke-width:1.0001;}
	.st47{fill:none;stroke:#E60012;stroke-width:3;stroke-linecap:round;stroke-miterlimit:10;}
	.st48{fill:#E60012;stroke:#E60012;stroke-width:3;stroke-linecap:round;stroke-miterlimit:10;}
	.st49{fill:none;stroke:#FFFFFF;stroke-linecap:round;stroke-miterlimit:10;}
	.st50{fill:#DCDDDD;stroke:#0A0204;stroke-linecap:round;}
	.st51{fill:none;stroke:#070102;stroke-width:0.6001;}
	.st52{fill:none;stroke:#070102;stroke-width:0.6001;stroke-linecap:round;stroke-dasharray:3.0005,1.8003;}
	.st53{fill:#FFFFFF;stroke:#070102;stroke-width:0.6001;}
	.st54{fill:none;stroke:#070102;stroke-width:0.6001;stroke-linecap:round;stroke-linejoin:round;}
	.st55{fill:#FFFFFF;stroke:#0A0204;stroke-width:1.0001;}
	.st56{fill:none;stroke:#0A0204;stroke-width:1.0001;}
	.st57{fill:#090103;}
	.st58{fill:none;stroke:#FFFFFF;stroke-width:0.6001;}
	.st59{fill:#065AA1;}
	.st60{fill:#040000;}
</style>
<g>
	<polyline class="st0" points="44.7,42.9 1463.9,42.9 1463.9,98.5 44.7,98.5 	"/>
	<line class="st1" x1="44.7" y1="48.6" x2="1463.9" y2="48.6"/>
	<line class="st2" x1="44.7" y1="42.6" x2="1463.9" y2="42.6"/>
	<line class="st1" x1="44.7" y1="59.8" x2="1463.9" y2="59.8"/>
	<line class="st1" x1="44.7" y1="70.9" x2="1463.9" y2="70.9"/>
	<line class="st1" x1="44.7" y1="82.1" x2="1463.8" y2="82.1"/>
	<line class="st1" x1="44.7" y1="93.3" x2="1463.9" y2="93.3"/>
	<line class="st2" x1="44.7" y1="98.5" x2="1463.9" y2="98.5"/>
	<text transform="matrix(1 0 0 1 1468.0702 50.6302)" class="st3 st4">30</text>
	<text transform="matrix(1 0 0 1 1468.0702 61.7963)" class="st3 st4">IG1</text>
	<text transform="matrix(1 0 0 1 1468.0702 73.4183)" class="st3 st4">IG3</text>
	<text transform="matrix(1 0 0 1 1468.0702 84.9203)" class="st3 st4">IG4</text>
	<text transform="matrix(1 0 0 1 1468.0702 95.3363)" class="st3 st4">ACC</text>
	<text transform="matrix(1 0 0 1 34.3418 50.7084)" class="st3 st4">30</text>
	<text transform="matrix(1 0 0 1 31.1797 61.8744)" class="st3 st4">IG1</text>
	<text transform="matrix(1 0 0 1 31.2275 73.4965)" class="st3 st4">IG3</text>
	<text transform="matrix(1 0 0 1 31.1313 84.9984)" class="st3 st4">IG4</text>
	<text transform="matrix(1 0 0 1 27.6396 94.8324)" class="st3 st4">ACC</text>
</g>
<path class="st5" d="M645.5,557.6H51v-32.9h594.5c0,0-6.4,9.7,0,16.5C651.9,548.1,645.5,557.6,645.5,557.6"/>
<path class="st6" d="M645.5,557.6H51v-32.9h594.5c0,0-6.4,9.7,0,16.5C651.9,548.1,645.5,557.6,645.5,557.6"/>
<path class="st5" d="M1443.3,338.9h-960V306h960c0,0-6.4,9.6,0,16.5C1449.6,329.3,1443.3,338.9,1443.3,338.9"/>
<path class="st6" d="M1443.3,338.9h-960V306h960c0,0-6.4,9.6,0,16.5C1449.6,329.3,1443.3,338.9,1443.3,338.9"/>
<rect x="478.4" y="132.4" class="st0" width="48.9" height="51.3"/>
<rect x="478.4" y="132.4" class="st7" width="48.9" height="51.3"/>
<rect x="772.5" y="703.6" class="st5" width="673.9" height="32.9"/>
<rect x="772.5" y="703.6" class="st6" width="673.9" height="32.9"/>
<line class="st8" x1="559.6" y1="567.4" x2="559.6" y2="781.6"/>
<line class="st9" x1="1189" y1="348" x2="1189" y2="694.5"/>
<line class="st9" x1="1132.3" y1="348" x2="1132.3" y2="694.5"/>
<line class="st10" x1="1189" y1="348" x2="1189" y2="694.5"/>
<line class="st11" x1="1132.3" y1="348" x2="1132.3" y2="694.5"/>
<line class="st12" x1="502.9" y1="348" x2="502.9" y2="513"/>
<line class="st13" x1="559.6" y1="348" x2="559.6" y2="513"/>
<line class="st14" x1="616.3" y1="348" x2="616.3" y2="513"/>
<line class="st15" x1="502.9" y1="348" x2="502.9" y2="513"/>
<line class="st11" x1="559.6" y1="348" x2="559.6" y2="513"/>
<line class="st16" x1="616.3" y1="348" x2="616.3" y2="513"/>
<line class="st9" x1="678.7" y1="348" x2="678.7" y2="800.1"/>
<polyline class="st9" points="735.4,348 735.4,557.6 678.7,557.6 "/>
<line class="st9" x1="1359" y1="348" x2="1359" y2="694.5"/>
<line class="st13" x1="1302.3" y1="348" x2="1302.3" y2="694.5"/>
<line class="st13" x1="1245.6" y1="348" x2="1245.6" y2="694.5"/>
<line class="st16" x1="1245.6" y1="348" x2="1245.6" y2="694.5"/>
<line class="st15" x1="1075.6" y1="348" x2="1075.6" y2="694.5"/>
<line class="st16" x1="1018.9" y1="348" x2="1018.9" y2="694.5"/>
<line class="st10" x1="962.2" y1="348" x2="962.2" y2="694.5"/>
<line class="st17" x1="905.5" y1="348" x2="905.5" y2="694.5"/>
<line class="st18" x1="848.8" y1="348" x2="848.8" y2="694.5"/>
<rect x="790.6" y="348" class="st7" width="3" height="346.5"/>
<rect x="904" y="348" class="st7" width="3" height="346.5"/>
<line class="st16" x1="1415.7" y1="348" x2="1415.7" y2="694.5"/>
<rect x="1414.2" y="348" class="st7" width="3" height="346.5"/>
<rect x="960.7" y="348" class="st7" width="3" height="346.5"/>
<rect x="1017.4" y="348" class="st7" width="3" height="346.5"/>
<rect x="1074.1" y="348" class="st7" width="3" height="346.5"/>
<line class="st8" x1="620.9" y1="187.6" x2="620.9" y2="294.1"/>
<line class="st19" x1="677.6" y1="187.6" x2="677.6" y2="294.1"/>
<line class="st12" x1="502.8" y1="195.2" x2="502.8" y2="294.7"/>
<line class="st10" x1="502.8" y1="195.2" x2="502.8" y2="294.7"/>
<line class="st19" x1="616.2" y1="566.8" x2="616.2" y2="783"/>
<path class="st20" d="M502.9,163.7c-1.2,0-2.2,1-2.2,2.2c0,1.2,1,2.2,2.2,2.2c1.2,0,2.2-1,2.2-2.2
	C505.2,164.7,504.2,163.7,502.9,163.7"/>
<path class="st20" d="M502.9,147.9c-1.2,0-2.2,1-2.2,2.1c0,1.2,1,2.2,2.2,2.2c1.2,0,2.2-0.9,2.2-2.2
	C505.2,148.9,504.2,147.9,502.9,147.9"/>
<path class="st20" d="M501.5,151.7c-0.1,2.5,0.2,3.2,1.3,4.3c1.2,1.2,2.4,1.7,2.8,3.7c0.4,1.6-0.1,3.5-1.1,4.5"/>
<path class="st20" d="M504.4,164.2c0.2-0.8,0-2.9-0.6-3.7c-0.9-1.2-2.7-2.1-3.3-4c-0.9-2.8,0.7-4.6,1.1-5"/>
<polyline class="st21" points="502.9,168.1 502.9,171.1 502.9,183.6 "/>
<polyline class="st21" points="502.9,147.8 502.9,143.6 502.9,47.6 "/>
<path d="M500,47.7c0-1.7,1.3-2.9,2.8-2.9c1.6,0,2.9,1.2,2.9,2.9c0,1.5-1.3,2.7-2.9,2.7C501.3,50.4,500,49.2,500,47.7"/>
<path class="st22" d="M500,47.7c0-1.7,1.3-2.9,2.8-2.9c1.6,0,2.9,1.2,2.9,2.9c0,1.5-1.3,2.7-2.9,2.7C501.3,50.4,500,49.2,500,47.7z"
	/>
<path class="st23" d="M500,47.7c0-1.7,1.3-2.9,2.8-2.9c1.6,0,2.9,1.2,2.9,2.9c0,1.5-1.3,2.7-2.9,2.7C501.3,50.4,500,49.2,500,47.7"
	/>
<line class="st9" x1="173.2" y1="568.4" x2="173.2" y2="800.1"/>
<line class="st9" x1="384.6" y1="568.4" x2="384.6" y2="800.2"/>
<line class="st24" x1="502.9" y1="191.8" x2="502.9" y2="183.6"/>
<path class="st25" d="M502.8,194.9c-1.7,0-3-1.4-3-3c0-1.8,1.4-3.2,3-3.2c1.8,0,3.2,1.4,3.2,3.2C506,193.5,504.6,194.9,502.8,194.9"
	/>
<path d="M502.8,195.5c-2,0-3.7-1.6-3.7-3.7c0-2.2,1.7-3.8,3.7-3.8v1.2c-1.4,0-2.5,1.1-2.5,2.7c0,1.3,1.1,2.5,2.5,2.5V195.5z
	 M502.8,188v1.2c1.5,0,2.7,1.1,2.7,2.7c0,1.3-1.1,2.5-2.7,2.5v1.1c2.2,0,3.8-1.6,3.8-3.7C506.6,189.7,505,188,502.8,188"/>
<rect x="498.8" y="187.6" class="st25" width="8.1" height="4.1"/>
<rect x="502.4" y="188.5" width="1" height="4.2"/>
<rect x="502.4" y="188.5" class="st26" width="1" height="4.2"/>
<path class="st27" d="M502.8,242.3c1.4,0,2.6,1.2,2.6,2.6c0,1.4-1.2,2.6-2.6,2.6c-1.4,0-2.6-1.2-2.6-2.6
	C500.2,243.5,501.4,242.3,502.8,242.3"/>
<path class="st28" d="M502.8,242.3c1.4,0,2.6,1.2,2.6,2.6c0,1.4-1.2,2.6-2.6,2.6c-1.4,0-2.6-1.2-2.6-2.6
	C500.2,243.5,501.4,242.3,502.8,242.3z"/>
<path class="st27" d="M678.7,555c1.4,0,2.6,1.2,2.6,2.6s-1.2,2.6-2.6,2.6c-1.4,0-2.6-1.2-2.6-2.6S677.2,555,678.7,555"/>
<path class="st28" d="M678.7,555c1.4,0,2.6,1.2,2.6,2.6s-1.2,2.6-2.6,2.6c-1.4,0-2.6-1.2-2.6-2.6S677.2,555,678.7,555z"/>
<path class="st27" d="M678.7,674.4c1.4,0,2.6,1.2,2.6,2.6c0,1.4-1.2,2.6-2.6,2.6c-1.4,0-2.6-1.2-2.6-2.6
	C676.1,675.6,677.2,674.4,678.7,674.4"/>
<path class="st28" d="M678.7,674.4c1.4,0,2.6,1.2,2.6,2.6c0,1.4-1.2,2.6-2.6,2.6c-1.4,0-2.6-1.2-2.6-2.6
	C676.1,675.6,677.2,674.4,678.7,674.4z"/>
<line class="st24" x1="616.3" y1="516.4" x2="616.3" y2="524.6"/>
<path class="st25" d="M616.2,513.3c-1.7,0-3,1.4-3,3c0,1.8,1.4,3.2,3,3.2c1.8,0,3.2-1.4,3.2-3.2C619.4,514.7,618,513.3,616.2,513.3"
	/>
<path d="M616.2,513.8c-1.4,0-2.5,1.2-2.5,2.5c0,1.6,1.1,2.7,2.5,2.7v1.2c-2,0-3.7-1.6-3.7-3.8c0-2.1,1.7-3.7,3.7-3.7V513.8z
	 M616.2,520.2c2.2,0,3.8-1.7,3.8-3.8c0-2.1-1.6-3.7-3.8-3.7v1.1c1.6,0,2.7,1.2,2.7,2.5c0,1.6-1.2,2.7-2.7,2.7V520.2"/>
<rect x="612.2" y="516.5" class="st25" width="8.1" height="4.1"/>
<rect x="615.8" y="515.5" width="1" height="4.2"/>
<rect x="615.8" y="515.5" class="st26" width="1" height="4.2"/>
<line class="st24" x1="502.9" y1="516.4" x2="502.9" y2="524.6"/>
<path class="st25" d="M502.8,513.3c-1.7,0-3,1.4-3,3c0,1.8,1.4,3.2,3,3.2c1.8,0,3.2-1.4,3.2-3.2C506,514.7,504.6,513.3,502.8,513.3"
	/>
<path d="M502.8,513.8c-1.4,0-2.5,1.2-2.5,2.5c0,1.6,1.1,2.7,2.5,2.7v1.2c-2,0-3.7-1.6-3.7-3.8c0-2.1,1.7-3.7,3.7-3.7V513.8z
	 M502.8,520.2c2.2,0,3.8-1.7,3.8-3.8c0-2.1-1.6-3.7-3.8-3.7v1.1c1.6,0,2.7,1.2,2.7,2.5c0,1.6-1.2,2.7-2.7,2.7V520.2"/>
<rect x="498.8" y="516.5" class="st25" width="8.1" height="4.1"/>
<rect x="502.4" y="515.5" width="1" height="4.2"/>
<rect x="502.4" y="515.5" class="st26" width="1" height="4.2"/>
<line class="st24" x1="559.6" y1="516.4" x2="559.6" y2="524.6"/>
<path class="st25" d="M559.5,513.3c-1.7,0-3,1.4-3,3c0,1.8,1.4,3.2,3,3.2c1.8,0,3.2-1.4,3.2-3.2
	C562.7,514.7,561.3,513.3,559.5,513.3"/>
<path d="M559.5,513.8c-1.4,0-2.5,1.2-2.5,2.5c0,1.6,1.1,2.7,2.5,2.7v1.2c-2,0-3.7-1.6-3.7-3.8c0-2.1,1.7-3.7,3.7-3.7V513.8z
	 M559.5,520.2c2.2,0,3.8-1.7,3.8-3.8c0-2.1-1.6-3.7-3.8-3.7v1.1c1.6,0,2.7,1.2,2.7,2.5c0,1.6-1.2,2.7-2.7,2.7V520.2"/>
<rect x="555.5" y="516.5" class="st25" width="8.1" height="4.1"/>
<rect x="559.1" y="515.5" width="1" height="4.2"/>
<rect x="559.1" y="515.5" class="st26" width="1" height="4.2"/>
<line class="st24" x1="616.3" y1="347.1" x2="616.3" y2="338.9"/>
<path class="st25" d="M616.2,350.2c-1.7,0-3-1.4-3-3c0-1.8,1.4-3.2,3-3.2c1.8,0,3.2,1.4,3.2,3.2C619.4,348.8,618,350.2,616.2,350.2"
	/>
<path d="M616.2,350.8c-2,0-3.7-1.6-3.7-3.7c0-2.2,1.7-3.8,3.7-3.8v1.2c-1.4,0-2.5,1.1-2.5,2.7c0,1.3,1.1,2.5,2.5,2.5V350.8z
	 M616.2,343.3v1.2c1.5,0,2.7,1.1,2.7,2.7c0,1.3-1.1,2.5-2.7,2.5v1.1c2.2,0,3.8-1.6,3.8-3.7S618.4,343.3,616.2,343.3"/>
<rect x="612.2" y="342.9" class="st25" width="8.1" height="4.1"/>
<rect x="615.8" y="343.8" width="1" height="4.2"/>
<rect x="615.8" y="343.8" class="st26" width="1" height="4.2"/>
<line class="st24" x1="792.1" y1="347.1" x2="792.1" y2="338.9"/>
<path class="st25" d="M792,350.2c-1.7,0-3-1.4-3-3c0-1.8,1.4-3.2,3-3.2c1.8,0,3.2,1.4,3.2,3.2C795.2,348.8,793.8,350.2,792,350.2"/>
<path d="M792.1,350.8c-2,0-3.7-1.6-3.7-3.7c0-2.2,1.7-3.8,3.7-3.8v1.2c-1.4,0-2.5,1.1-2.5,2.7c0,1.3,1.1,2.5,2.5,2.5V350.8z
	 M792.1,343.3v1.2c1.5,0,2.7,1.1,2.7,2.7c0,1.3-1.1,2.5-2.7,2.5v1.1c2.2,0,3.8-1.6,3.8-3.7S794.3,343.3,792.1,343.3"/>
<rect x="788.1" y="342.9" class="st25" width="8.1" height="4.1"/>
<rect x="791.6" y="343.8" width="1" height="4.2"/>
<rect x="791.6" y="343.8" class="st26" width="1" height="4.2"/>
<line class="st24" x1="848.8" y1="347.1" x2="848.8" y2="338.9"/>
<path class="st25" d="M848.7,350.2c-1.7,0-3-1.4-3-3c0-1.8,1.4-3.2,3-3.2c1.8,0,3.2,1.4,3.2,3.2
	C851.9,348.8,850.5,350.2,848.7,350.2"/>
<path d="M848.7,350.8c-2,0-3.7-1.6-3.7-3.7c0-2.2,1.7-3.8,3.7-3.8v1.2c-1.4,0-2.5,1.1-2.5,2.7c0,1.3,1.1,2.5,2.5,2.5V350.8z
	 M848.7,343.3v1.2c1.5,0,2.7,1.1,2.7,2.7c0,1.3-1.1,2.5-2.7,2.5v1.1c2.2,0,3.8-1.6,3.8-3.7S850.9,343.3,848.7,343.3"/>
<rect x="844.7" y="342.9" class="st25" width="8.1" height="4.1"/>
<rect x="848.3" y="343.8" width="1" height="4.2"/>
<rect x="848.3" y="343.8" class="st26" width="1" height="4.2"/>
<line class="st24" x1="905.5" y1="347.1" x2="905.5" y2="338.9"/>
<path class="st25" d="M905.4,350.2c-1.7,0-3-1.4-3-3c0-1.8,1.4-3.2,3-3.2c1.8,0,3.2,1.4,3.2,3.2
	C908.6,348.8,907.2,350.2,905.4,350.2"/>
<path d="M905.4,350.8c-2,0-3.7-1.6-3.7-3.7c0-2.2,1.7-3.8,3.7-3.8v1.2c-1.4,0-2.5,1.1-2.5,2.7c0,1.3,1.1,2.5,2.5,2.5V350.8z
	 M905.4,343.3v1.2c1.5,0,2.7,1.1,2.7,2.7c0,1.3-1.1,2.5-2.7,2.5v1.1c2.2,0,3.8-1.6,3.8-3.7S907.6,343.3,905.4,343.3"/>
<rect x="901.4" y="342.9" class="st25" width="8.1" height="4.1"/>
<rect x="905" y="343.8" width="1" height="4.2"/>
<rect x="905" y="343.8" class="st26" width="1" height="4.2"/>
<line class="st24" x1="962.2" y1="347.1" x2="962.2" y2="338.9"/>
<path class="st25" d="M962.1,350.2c-1.7,0-3-1.4-3-3c0-1.8,1.4-3.2,3-3.2c1.8,0,3.2,1.4,3.2,3.2
	C965.3,348.8,963.9,350.2,962.1,350.2"/>
<path d="M962.1,350.8c-2,0-3.7-1.6-3.7-3.7c0-2.2,1.7-3.8,3.7-3.8v1.2c-1.4,0-2.5,1.1-2.5,2.7c0,1.3,1.1,2.5,2.5,2.5V350.8z
	 M962.1,343.3v1.2c1.5,0,2.7,1.1,2.7,2.7c0,1.3-1.1,2.5-2.7,2.5v1.1c2.2,0,3.8-1.6,3.8-3.7S964.3,343.3,962.1,343.3"/>
<rect x="958.1" y="342.9" class="st25" width="8.1" height="4.1"/>
<rect x="961.7" y="343.8" width="1" height="4.2"/>
<rect x="961.7" y="343.8" class="st26" width="1" height="4.2"/>
<line class="st24" x1="1018.9" y1="347.1" x2="1018.9" y2="338.9"/>
<path class="st25" d="M1018.8,350.2c-1.7,0-3-1.4-3-3c0-1.8,1.4-3.2,3-3.2c1.8,0,3.2,1.4,3.2,3.2
	C1022,348.8,1020.6,350.2,1018.8,350.2"/>
<path d="M1018.8,350.8c-2,0-3.7-1.6-3.7-3.7c0-2.2,1.7-3.8,3.7-3.8v1.2c-1.4,0-2.5,1.1-2.5,2.7c0,1.3,1.1,2.5,2.5,2.5V350.8z
	 M1018.8,343.3v1.2c1.5,0,2.7,1.1,2.7,2.7c0,1.3-1.1,2.5-2.7,2.5v1.1c2.2,0,3.8-1.6,3.8-3.7S1021,343.3,1018.8,343.3"/>
<rect x="1014.8" y="342.9" class="st25" width="8.1" height="4.1"/>
<rect x="1018.4" y="343.8" width="1" height="4.2"/>
<rect x="1018.4" y="343.8" class="st26" width="1" height="4.2"/>
<line class="st24" x1="1075.6" y1="347.1" x2="1075.6" y2="338.9"/>
<path class="st25" d="M1075.5,350.2c-1.7,0-3-1.4-3-3c0-1.8,1.4-3.2,3-3.2c1.8,0,3.2,1.4,3.2,3.2
	C1078.7,348.8,1077.3,350.2,1075.5,350.2"/>
<path d="M1075.5,350.8c-2,0-3.7-1.6-3.7-3.7c0-2.2,1.7-3.8,3.7-3.8v1.2c-1.4,0-2.5,1.1-2.5,2.7c0,1.3,1.1,2.5,2.5,2.5V350.8z
	 M1075.5,343.3v1.2c1.5,0,2.7,1.1,2.7,2.7c0,1.3-1.1,2.5-2.7,2.5v1.1c2.2,0,3.8-1.6,3.8-3.7S1077.7,343.3,1075.5,343.3"/>
<rect x="1071.5" y="342.9" class="st25" width="8.1" height="4.1"/>
<rect x="1075.1" y="343.8" width="1" height="4.2"/>
<rect x="1075.1" y="343.8" class="st26" width="1" height="4.2"/>
<line class="st24" x1="1132.3" y1="347.1" x2="1132.3" y2="338.9"/>
<path class="st25" d="M1132.2,350.2c-1.7,0-3-1.4-3-3c0-1.8,1.4-3.2,3-3.2c1.8,0,3.2,1.4,3.2,3.2
	C1135.4,348.8,1134,350.2,1132.2,350.2"/>
<path d="M1132.2,350.8c-2,0-3.7-1.6-3.7-3.7c0-2.2,1.7-3.8,3.7-3.8v1.2c-1.4,0-2.5,1.1-2.5,2.7c0,1.3,1.1,2.5,2.5,2.5V350.8z
	 M1132.2,343.3v1.2c1.5,0,2.7,1.1,2.7,2.7c0,1.3-1.1,2.5-2.7,2.5v1.1c2.2,0,3.8-1.6,3.8-3.7S1134.4,343.3,1132.2,343.3"/>
<rect x="1128.2" y="342.9" class="st25" width="8.1" height="4.1"/>
<rect x="1131.8" y="343.8" width="1" height="4.2"/>
<rect x="1131.8" y="343.8" class="st26" width="1" height="4.2"/>
<line class="st24" x1="1189" y1="347.1" x2="1189" y2="338.9"/>
<path class="st25" d="M1188.9,350.2c-1.7,0-3-1.4-3-3c0-1.8,1.4-3.2,3-3.2c1.8,0,3.2,1.4,3.2,3.2
	C1192.1,348.8,1190.7,350.2,1188.9,350.2"/>
<path d="M1188.9,350.8c-2,0-3.7-1.6-3.7-3.7c0-2.2,1.7-3.8,3.7-3.8v1.2c-1.4,0-2.5,1.1-2.5,2.7c0,1.3,1.1,2.5,2.5,2.5V350.8z
	 M1188.9,343.3v1.2c1.5,0,2.7,1.1,2.7,2.7c0,1.3-1.1,2.5-2.7,2.5v1.1c2.2,0,3.8-1.6,3.8-3.7S1191.1,343.3,1188.9,343.3"/>
<rect x="1184.9" y="342.9" class="st25" width="8.1" height="4.1"/>
<rect x="1188.5" y="343.8" width="1" height="4.2"/>
<rect x="1188.5" y="343.8" class="st26" width="1" height="4.2"/>
<line class="st24" x1="1245.6" y1="347.1" x2="1245.6" y2="338.9"/>
<path class="st25" d="M1245.5,350.2c-1.7,0-3-1.4-3-3c0-1.8,1.4-3.2,3-3.2c1.8,0,3.2,1.4,3.2,3.2
	C1248.7,348.8,1247.3,350.2,1245.5,350.2"/>
<path d="M1245.6,350.8c-2,0-3.7-1.6-3.7-3.7c0-2.2,1.7-3.8,3.7-3.8v1.2c-1.4,0-2.5,1.1-2.5,2.7c0,1.3,1.1,2.5,2.5,2.5V350.8z
	 M1245.6,343.3v1.2c1.5,0,2.7,1.1,2.7,2.7c0,1.3-1.1,2.5-2.7,2.5v1.1c2.2,0,3.8-1.6,3.8-3.7S1247.8,343.3,1245.6,343.3"/>
<rect x="1241.6" y="342.9" class="st25" width="8.1" height="4.1"/>
<rect x="1245.1" y="343.8" width="1" height="4.2"/>
<rect x="1245.1" y="343.8" class="st26" width="1" height="4.2"/>
<line class="st24" x1="1302.3" y1="347.1" x2="1302.3" y2="338.9"/>
<path class="st25" d="M1302.2,350.2c-1.7,0-3-1.4-3-3c0-1.8,1.4-3.2,3-3.2c1.8,0,3.2,1.4,3.2,3.2
	C1305.4,348.8,1304,350.2,1302.2,350.2"/>
<path d="M1302.3,350.8c-2,0-3.7-1.6-3.7-3.7c0-2.2,1.7-3.8,3.7-3.8v1.2c-1.4,0-2.5,1.1-2.5,2.7c0,1.3,1.1,2.5,2.5,2.5V350.8z
	 M1302.3,343.3v1.2c1.5,0,2.7,1.1,2.7,2.7c0,1.3-1.1,2.5-2.7,2.5v1.1c2.2,0,3.8-1.6,3.8-3.7S1304.5,343.3,1302.3,343.3"/>
<rect x="1298.3" y="342.9" class="st25" width="8.1" height="4.1"/>
<rect x="1301.8" y="343.8" width="1" height="4.2"/>
<rect x="1301.8" y="343.8" class="st26" width="1" height="4.2"/>
<line class="st24" x1="1359" y1="347.1" x2="1359" y2="338.9"/>
<path class="st25" d="M1358.9,350.2c-1.7,0-3-1.4-3-3c0-1.8,1.4-3.2,3-3.2c1.8,0,3.2,1.4,3.2,3.2
	C1362.1,348.8,1360.7,350.2,1358.9,350.2"/>
<path d="M1359,350.8c-2,0-3.7-1.6-3.7-3.7c0-2.2,1.7-3.8,3.7-3.8v1.2c-1.4,0-2.5,1.1-2.5,2.7c0,1.3,1.1,2.5,2.5,2.5V350.8z
	 M1359,343.3v1.2c1.5,0,2.7,1.1,2.7,2.7c0,1.3-1.1,2.5-2.7,2.5v1.1c2.2,0,3.8-1.6,3.8-3.7S1361.2,343.3,1359,343.3"/>
<rect x="1355" y="342.9" class="st25" width="8.1" height="4.1"/>
<rect x="1358.5" y="343.8" width="1" height="4.2"/>
<rect x="1358.5" y="343.8" class="st26" width="1" height="4.2"/>
<line class="st24" x1="1415.7" y1="347.1" x2="1415.7" y2="338.9"/>
<path class="st25" d="M1415.6,350.2c-1.7,0-3-1.4-3-3c0-1.8,1.4-3.2,3-3.2c1.8,0,3.2,1.4,3.2,3.2
	C1418.8,348.8,1417.4,350.2,1415.6,350.2"/>
<path d="M1415.7,350.8c-2,0-3.7-1.6-3.7-3.7c0-2.2,1.7-3.8,3.7-3.8v1.2c-1.4,0-2.5,1.1-2.5,2.7c0,1.3,1.1,2.5,2.5,2.5V350.8z
	 M1415.7,343.3v1.2c1.5,0,2.7,1.1,2.7,2.7c0,1.3-1.1,2.5-2.7,2.5v1.1c2.2,0,3.8-1.6,3.8-3.7S1417.9,343.3,1415.7,343.3"/>
<rect x="1411.7" y="342.9" class="st25" width="8.1" height="4.1"/>
<rect x="1415.2" y="343.8" width="1" height="4.2"/>
<rect x="1415.2" y="343.8" class="st26" width="1" height="4.2"/>
<line class="st24" x1="678.7" y1="347.1" x2="678.7" y2="338.9"/>
<path class="st25" d="M678.6,350.2c-1.7,0-3-1.4-3-3c0-1.8,1.4-3.2,3-3.2c1.8,0,3.2,1.4,3.2,3.2
	C681.8,348.8,680.4,350.2,678.6,350.2"/>
<path d="M678.6,350.8c-2,0-3.7-1.6-3.7-3.7c0-2.2,1.7-3.8,3.7-3.8v1.2c-1.4,0-2.5,1.1-2.5,2.7c0,1.3,1.1,2.5,2.5,2.5V350.8z
	 M678.6,343.3v1.2c1.5,0,2.7,1.1,2.7,2.7c0,1.3-1.1,2.5-2.7,2.5v1.1c2.2,0,3.8-1.6,3.8-3.7S680.8,343.3,678.6,343.3"/>
<rect x="674.6" y="342.9" class="st25" width="8.1" height="4.1"/>
<rect x="678.2" y="343.8" width="1" height="4.2"/>
<rect x="678.2" y="343.8" class="st26" width="1" height="4.2"/>
<line class="st24" x1="735.4" y1="347.1" x2="735.4" y2="338.9"/>
<path class="st25" d="M735.3,350.2c-1.7,0-3-1.4-3-3c0-1.8,1.4-3.2,3-3.2c1.8,0,3.2,1.4,3.2,3.2
	C738.5,348.8,737.1,350.2,735.3,350.2"/>
<path d="M735.3,350.8c-2,0-3.7-1.6-3.7-3.7c0-2.2,1.7-3.8,3.7-3.8v1.2c-1.4,0-2.5,1.1-2.5,2.7c0,1.3,1.1,2.5,2.5,2.5V350.8z
	 M735.3,343.3v1.2c1.5,0,2.7,1.1,2.7,2.7c0,1.3-1.1,2.5-2.7,2.5v1.1c2.2,0,3.8-1.6,3.8-3.7S737.5,343.3,735.3,343.3"/>
<rect x="731.3" y="342.9" class="st25" width="8.1" height="4.1"/>
<rect x="734.9" y="343.8" width="1" height="4.2"/>
<rect x="734.9" y="343.8" class="st26" width="1" height="4.2"/>
<line class="st24" x1="848.8" y1="695.4" x2="848.8" y2="703.6"/>
<path class="st25" d="M848.7,692.3c-1.7,0-3,1.4-3,3c0,1.8,1.4,3.2,3,3.2c1.8,0,3.2-1.4,3.2-3.2
	C851.9,693.7,850.5,692.3,848.7,692.3"/>
<path d="M848.7,692.8c-1.4,0-2.5,1.2-2.5,2.5c0,1.6,1.1,2.7,2.5,2.7v1.2c-2,0-3.7-1.6-3.7-3.8c0-2.1,1.7-3.7,3.7-3.7V692.8z
	 M848.7,699.2c2.2,0,3.8-1.7,3.8-3.8c0-2.1-1.6-3.7-3.8-3.7v1.1c1.6,0,2.7,1.2,2.7,2.5c0,1.6-1.2,2.7-2.7,2.7V699.2"/>
<rect x="844.7" y="695.5" class="st25" width="8.1" height="4.1"/>
<rect x="848.3" y="694.5" width="1" height="4.2"/>
<rect x="848.3" y="694.5" class="st26" width="1" height="4.2"/>
<line class="st24" x1="905.5" y1="695.4" x2="905.5" y2="703.6"/>
<path class="st25" d="M905.4,692.3c-1.7,0-3,1.4-3,3c0,1.8,1.4,3.2,3,3.2c1.8,0,3.2-1.4,3.2-3.2
	C908.6,693.7,907.2,692.3,905.4,692.3"/>
<path d="M905.4,692.8c-1.4,0-2.5,1.2-2.5,2.5c0,1.6,1.1,2.7,2.5,2.7v1.2c-2,0-3.7-1.6-3.7-3.8c0-2.1,1.7-3.7,3.7-3.7V692.8z
	 M905.4,699.2c2.2,0,3.8-1.7,3.8-3.8c0-2.1-1.6-3.7-3.8-3.7v1.1c1.6,0,2.7,1.2,2.7,2.5c0,1.6-1.2,2.7-2.7,2.7V699.2"/>
<rect x="901.4" y="695.5" class="st25" width="8.1" height="4.1"/>
<rect x="905" y="694.5" width="1" height="4.2"/>
<rect x="905" y="694.5" class="st26" width="1" height="4.2"/>
<line class="st24" x1="962.2" y1="695.4" x2="962.2" y2="703.6"/>
<path class="st25" d="M962.1,692.3c-1.7,0-3,1.4-3,3c0,1.8,1.4,3.2,3,3.2c1.8,0,3.2-1.4,3.2-3.2
	C965.3,693.7,963.9,692.3,962.1,692.3"/>
<path d="M962.1,692.8c-1.4,0-2.5,1.2-2.5,2.5c0,1.6,1.1,2.7,2.5,2.7v1.2c-2,0-3.7-1.6-3.7-3.8c0-2.1,1.7-3.7,3.7-3.7V692.8z
	 M962.1,699.2c2.2,0,3.8-1.7,3.8-3.8c0-2.1-1.6-3.7-3.8-3.7v1.1c1.6,0,2.7,1.2,2.7,2.5c0,1.6-1.2,2.7-2.7,2.7V699.2"/>
<rect x="958.1" y="695.5" class="st25" width="8.1" height="4.1"/>
<rect x="961.7" y="694.5" width="1" height="4.2"/>
<rect x="961.7" y="694.5" class="st26" width="1" height="4.2"/>
<line class="st24" x1="1018.9" y1="695.4" x2="1018.9" y2="703.6"/>
<path class="st25" d="M1018.8,692.3c-1.7,0-3,1.4-3,3c0,1.8,1.4,3.2,3,3.2c1.8,0,3.2-1.4,3.2-3.2
	C1022,693.7,1020.6,692.3,1018.8,692.3"/>
<path d="M1018.8,692.8c-1.4,0-2.5,1.2-2.5,2.5c0,1.6,1.1,2.7,2.5,2.7v1.2c-2,0-3.7-1.6-3.7-3.8c0-2.1,1.7-3.7,3.7-3.7V692.8z
	 M1018.8,699.2c2.2,0,3.8-1.7,3.8-3.8c0-2.1-1.6-3.7-3.8-3.7v1.1c1.6,0,2.7,1.2,2.7,2.5c0,1.6-1.2,2.7-2.7,2.7V699.2"/>
<rect x="1014.8" y="695.5" class="st25" width="8.1" height="4.1"/>
<rect x="1018.4" y="694.5" width="1" height="4.2"/>
<rect x="1018.4" y="694.5" class="st26" width="1" height="4.2"/>
<line class="st24" x1="1075.6" y1="695.4" x2="1075.6" y2="703.6"/>
<path class="st25" d="M1075.5,692.3c-1.7,0-3,1.4-3,3c0,1.8,1.4,3.2,3,3.2c1.8,0,3.2-1.4,3.2-3.2
	C1078.7,693.7,1077.3,692.3,1075.5,692.3"/>
<path d="M1075.5,692.8c-1.4,0-2.5,1.2-2.5,2.5c0,1.6,1.1,2.7,2.5,2.7v1.2c-2,0-3.7-1.6-3.7-3.8c0-2.1,1.7-3.7,3.7-3.7V692.8z
	 M1075.5,699.2c2.2,0,3.8-1.7,3.8-3.8c0-2.1-1.6-3.7-3.8-3.7v1.1c1.6,0,2.7,1.2,2.7,2.5c0,1.6-1.2,2.7-2.7,2.7V699.2"/>
<rect x="1071.5" y="695.5" class="st25" width="8.1" height="4.1"/>
<rect x="1075.1" y="694.5" width="1" height="4.2"/>
<rect x="1075.1" y="694.5" class="st26" width="1" height="4.2"/>
<line class="st24" x1="1132.3" y1="695.4" x2="1132.3" y2="703.6"/>
<path class="st25" d="M1132.2,692.3c-1.7,0-3,1.4-3,3c0,1.8,1.4,3.2,3,3.2c1.8,0,3.2-1.4,3.2-3.2
	C1135.4,693.7,1134,692.3,1132.2,692.3"/>
<path d="M1132.2,692.8c-1.4,0-2.5,1.2-2.5,2.5c0,1.6,1.1,2.7,2.5,2.7v1.2c-2,0-3.7-1.6-3.7-3.8c0-2.1,1.7-3.7,3.7-3.7V692.8z
	 M1132.2,699.2c2.2,0,3.8-1.7,3.8-3.8c0-2.1-1.6-3.7-3.8-3.7v1.1c1.6,0,2.7,1.2,2.7,2.5c0,1.6-1.2,2.7-2.7,2.7V699.2"/>
<rect x="1128.2" y="695.5" class="st25" width="8.1" height="4.1"/>
<rect x="1131.8" y="694.5" width="1" height="4.2"/>
<rect x="1131.8" y="694.5" class="st26" width="1" height="4.2"/>
<line class="st24" x1="1189" y1="695.4" x2="1189" y2="703.6"/>
<path class="st25" d="M1188.9,692.3c-1.7,0-3,1.4-3,3c0,1.8,1.4,3.2,3,3.2c1.8,0,3.2-1.4,3.2-3.2
	C1192.1,693.7,1190.7,692.3,1188.9,692.3"/>
<path d="M1188.9,692.8c-1.4,0-2.5,1.2-2.5,2.5c0,1.6,1.1,2.7,2.5,2.7v1.2c-2,0-3.7-1.6-3.7-3.8c0-2.1,1.7-3.7,3.7-3.7V692.8z
	 M1188.9,699.2c2.2,0,3.8-1.7,3.8-3.8c0-2.1-1.6-3.7-3.8-3.7v1.1c1.6,0,2.7,1.2,2.7,2.5c0,1.6-1.2,2.7-2.7,2.7V699.2"/>
<rect x="1184.9" y="695.5" class="st25" width="8.1" height="4.1"/>
<rect x="1188.5" y="694.5" width="1" height="4.2"/>
<rect x="1188.5" y="694.5" class="st26" width="1" height="4.2"/>
<line class="st24" x1="1245.6" y1="695.4" x2="1245.6" y2="703.6"/>
<path class="st25" d="M1245.5,692.3c-1.7,0-3,1.4-3,3c0,1.8,1.4,3.2,3,3.2c1.8,0,3.2-1.4,3.2-3.2
	C1248.7,693.7,1247.3,692.3,1245.5,692.3"/>
<path d="M1245.6,692.8c-1.4,0-2.5,1.2-2.5,2.5c0,1.6,1.1,2.7,2.5,2.7v1.2c-2,0-3.7-1.6-3.7-3.8c0-2.1,1.7-3.7,3.7-3.7V692.8z
	 M1245.6,699.2c2.2,0,3.8-1.7,3.8-3.8c0-2.1-1.6-3.7-3.8-3.7v1.1c1.6,0,2.7,1.2,2.7,2.5c0,1.6-1.2,2.7-2.7,2.7V699.2"/>
<rect x="1241.6" y="695.5" class="st25" width="8.1" height="4.1"/>
<rect x="1245.1" y="694.5" width="1" height="4.2"/>
<rect x="1245.1" y="694.5" class="st26" width="1" height="4.2"/>
<line class="st24" x1="1302.3" y1="695.4" x2="1302.3" y2="703.6"/>
<path class="st25" d="M1302.2,692.3c-1.7,0-3,1.4-3,3c0,1.8,1.4,3.2,3,3.2c1.8,0,3.2-1.4,3.2-3.2
	C1305.4,693.7,1304,692.3,1302.2,692.3"/>
<path d="M1302.3,692.8c-1.4,0-2.5,1.2-2.5,2.5c0,1.6,1.1,2.7,2.5,2.7v1.2c-2,0-3.7-1.6-3.7-3.8c0-2.1,1.7-3.7,3.7-3.7V692.8z
	 M1302.3,699.2c2.2,0,3.8-1.7,3.8-3.8c0-2.1-1.6-3.7-3.8-3.7v1.1c1.6,0,2.7,1.2,2.7,2.5c0,1.6-1.2,2.7-2.7,2.7V699.2"/>
<rect x="1298.3" y="695.5" class="st25" width="8.1" height="4.1"/>
<rect x="1301.8" y="694.5" width="1" height="4.2"/>
<rect x="1301.8" y="694.5" class="st26" width="1" height="4.2"/>
<line class="st24" x1="1359" y1="695.4" x2="1359" y2="703.6"/>
<path class="st25" d="M1358.9,692.3c-1.7,0-3,1.4-3,3c0,1.8,1.4,3.2,3,3.2c1.8,0,3.2-1.4,3.2-3.2
	C1362.1,693.7,1360.7,692.3,1358.9,692.3"/>
<path d="M1359,692.8c-1.4,0-2.5,1.2-2.5,2.5c0,1.6,1.1,2.7,2.5,2.7v1.2c-2,0-3.7-1.6-3.7-3.8c0-2.1,1.7-3.7,3.7-3.7V692.8z
	 M1359,699.2c2.2,0,3.8-1.7,3.8-3.8c0-2.1-1.6-3.7-3.8-3.7v1.1c1.6,0,2.7,1.2,2.7,2.5c0,1.6-1.2,2.7-2.7,2.7V699.2"/>
<rect x="1355" y="695.5" class="st25" width="8.1" height="4.1"/>
<rect x="1358.5" y="694.5" width="1" height="4.2"/>
<rect x="1358.5" y="694.5" class="st26" width="1" height="4.2"/>
<line class="st24" x1="1415.7" y1="695.4" x2="1415.7" y2="703.6"/>
<path class="st25" d="M1415.6,692.3c-1.7,0-3,1.4-3,3c0,1.8,1.4,3.2,3,3.2c1.8,0,3.2-1.4,3.2-3.2
	C1418.8,693.7,1417.4,692.3,1415.6,692.3"/>
<path d="M1415.7,692.8c-1.4,0-2.5,1.2-2.5,2.5c0,1.6,1.1,2.7,2.5,2.7v1.2c-2,0-3.7-1.6-3.7-3.8c0-2.1,1.7-3.7,3.7-3.7V692.8z
	 M1415.7,699.2c2.2,0,3.8-1.7,3.8-3.8c0-2.1-1.6-3.7-3.8-3.7v1.1c1.6,0,2.7,1.2,2.7,2.5c0,1.6-1.2,2.7-2.7,2.7V699.2"/>
<rect x="1411.7" y="695.5" class="st25" width="8.1" height="4.1"/>
<rect x="1415.2" y="694.5" width="1" height="4.2"/>
<rect x="1415.2" y="694.5" class="st26" width="1" height="4.2"/>
<line class="st24" x1="792.1" y1="695.4" x2="792.1" y2="703.6"/>
<path class="st25" d="M792,692.3c-1.7,0-3,1.4-3,3c0,1.8,1.4,3.2,3,3.2c1.8,0,3.2-1.4,3.2-3.2C795.2,693.7,793.8,692.3,792,692.3"/>
<path d="M792.1,692.8c-1.4,0-2.5,1.2-2.5,2.5c0,1.6,1.1,2.7,2.5,2.7v1.2c-2,0-3.7-1.6-3.7-3.8c0-2.1,1.7-3.7,3.7-3.7V692.8z
	 M792.1,699.2c2.2,0,3.8-1.7,3.8-3.8c0-2.1-1.6-3.7-3.8-3.7v1.1c1.6,0,2.7,1.2,2.7,2.5c0,1.6-1.2,2.7-2.7,2.7V699.2"/>
<rect x="788.1" y="695.5" class="st25" width="8.1" height="4.1"/>
<rect x="791.6" y="694.5" width="1" height="4.2"/>
<rect x="791.6" y="694.5" class="st26" width="1" height="4.2"/>
<line class="st24" x1="502.9" y1="347.1" x2="502.9" y2="338.9"/>
<path class="st25" d="M502.8,350.2c-1.7,0-3-1.4-3-3c0-1.8,1.4-3.2,3-3.2c1.8,0,3.2,1.4,3.2,3.2C506,348.8,504.6,350.2,502.8,350.2"
	/>
<path d="M502.8,350.8c-2,0-3.7-1.6-3.7-3.7c0-2.2,1.7-3.8,3.7-3.8v1.2c-1.4,0-2.5,1.1-2.5,2.7c0,1.3,1.1,2.5,2.5,2.5V350.8z
	 M502.8,343.3v1.2c1.5,0,2.7,1.1,2.7,2.7c0,1.3-1.1,2.5-2.7,2.5v1.1c2.2,0,3.8-1.6,3.8-3.7S505,343.3,502.8,343.3"/>
<rect x="498.8" y="342.9" class="st25" width="8.1" height="4.1"/>
<rect x="502.4" y="343.8" width="1" height="4.2"/>
<rect x="502.4" y="343.8" class="st26" width="1" height="4.2"/>
<line class="st24" x1="502.9" y1="297.8" x2="502.9" y2="306"/>
<path class="st25" d="M502.8,294.7c-1.7,0-3,1.4-3,3c0,1.8,1.4,3.2,3,3.2c1.8,0,3.2-1.4,3.2-3.2C506,296.1,504.6,294.7,502.8,294.7"
	/>
<path d="M502.8,295.2c-1.4,0-2.5,1.2-2.5,2.5c0,1.6,1.1,2.7,2.5,2.7v1.2c-2,0-3.7-1.6-3.7-3.8c0-2.1,1.7-3.7,3.7-3.7V295.2z
	 M502.8,301.6c2.2,0,3.8-1.7,3.8-3.8c0-2.1-1.6-3.7-3.8-3.7v1.1c1.6,0,2.7,1.2,2.7,2.5c0,1.6-1.2,2.7-2.7,2.7V301.6"/>
<rect x="498.8" y="297.9" class="st25" width="8.1" height="4.1"/>
<rect x="502.4" y="296.9" width="1" height="4.2"/>
<rect x="502.4" y="296.9" class="st26" width="1" height="4.2"/>
<line class="st24" x1="559.6" y1="347.1" x2="559.6" y2="338.9"/>
<path class="st25" d="M559.5,350.2c-1.7,0-3-1.4-3-3c0-1.8,1.4-3.2,3-3.2c1.8,0,3.2,1.4,3.2,3.2
	C562.7,348.8,561.3,350.2,559.5,350.2"/>
<path d="M559.5,350.8c-2,0-3.7-1.6-3.7-3.7c0-2.2,1.7-3.8,3.7-3.8v1.2c-1.4,0-2.5,1.1-2.5,2.7c0,1.3,1.1,2.5,2.5,2.5V350.8z
	 M559.5,343.3v1.2c1.5,0,2.7,1.1,2.7,2.7c0,1.3-1.1,2.5-2.7,2.5v1.1c2.2,0,3.8-1.6,3.8-3.7S561.7,343.3,559.5,343.3"/>
<rect x="555.5" y="342.9" class="st25" width="8.1" height="4.1"/>
<rect x="559.1" y="343.8" width="1" height="4.2"/>
<rect x="559.1" y="343.8" class="st26" width="1" height="4.2"/>
<line class="st29" x1="166.3" y1="800.1" x2="180.2" y2="800.1"/>
<line class="st29" x1="169.2" y1="802.3" x2="177.3" y2="802.3"/>
<line class="st29" x1="175.7" y1="804.4" x2="170.8" y2="804.4"/>
<line class="st29" x1="377.7" y1="800.1" x2="391.6" y2="800.1"/>
<line class="st29" x1="380.6" y1="802.3" x2="388.7" y2="802.3"/>
<line class="st29" x1="387.1" y1="804.4" x2="382.2" y2="804.4"/>
<line class="st29" x1="671.7" y1="800.1" x2="685.6" y2="800.1"/>
<line class="st29" x1="674.6" y1="802.3" x2="682.7" y2="802.3"/>
<line class="st29" x1="681.1" y1="804.4" x2="676.2" y2="804.4"/>
<line class="st24" x1="173.2" y1="565.8" x2="173.2" y2="557.6"/>
<path class="st25" d="M173.1,568.9c-1.7,0-3-1.4-3-3c0-1.8,1.4-3.2,3-3.2c1.8,0,3.2,1.4,3.2,3.2
	C176.3,567.5,174.9,568.9,173.1,568.9"/>
<path d="M173.2,569.5c-2,0-3.7-1.6-3.7-3.7c0-2.2,1.7-3.8,3.7-3.8v1.2c-1.4,0-2.5,1.1-2.5,2.7c0,1.3,1.1,2.5,2.5,2.5V569.5z
	 M173.2,562v1.2c1.5,0,2.7,1.1,2.7,2.7c0,1.3-1.1,2.5-2.7,2.5v1.1c2.2,0,3.8-1.6,3.8-3.7C177,563.7,175.4,562,173.2,562"/>
<rect x="169.2" y="561.6" class="st25" width="8.1" height="4.1"/>
<rect x="172.7" y="562.5" width="1" height="4.2"/>
<rect x="172.7" y="562.5" class="st26" width="1" height="4.2"/>
<line class="st24" x1="384.6" y1="565.8" x2="384.6" y2="557.6"/>
<path class="st25" d="M384.5,568.9c-1.7,0-3-1.4-3-3c0-1.8,1.4-3.2,3-3.2c1.8,0,3.2,1.4,3.2,3.2
	C387.7,567.5,386.3,568.9,384.5,568.9"/>
<path d="M384.6,569.5c-2,0-3.7-1.6-3.7-3.7c0-2.2,1.7-3.8,3.7-3.8v1.2c-1.4,0-2.5,1.1-2.5,2.7c0,1.3,1.1,2.5,2.5,2.5V569.5z
	 M384.6,562v1.2c1.5,0,2.7,1.1,2.7,2.7c0,1.3-1.1,2.5-2.7,2.5v1.1c2.2,0,3.8-1.6,3.8-3.7C388.4,563.7,386.8,562,384.6,562"/>
<rect x="380.6" y="561.6" class="st25" width="8.1" height="4.1"/>
<rect x="384.1" y="562.5" width="1" height="4.2"/>
<rect x="384.1" y="562.5" class="st26" width="1" height="4.2"/>
<line class="st9" x1="248" y1="568.4" x2="248" y2="800.2"/>
<line class="st29" x1="241.1" y1="800.1" x2="255" y2="800.1"/>
<line class="st29" x1="244" y1="802.3" x2="252.1" y2="802.3"/>
<line class="st29" x1="250.5" y1="804.4" x2="245.6" y2="804.4"/>
<line class="st24" x1="248" y1="565.8" x2="248" y2="557.6"/>
<path class="st25" d="M247.9,568.9c-1.7,0-3-1.4-3-3c0-1.8,1.4-3.2,3-3.2c1.8,0,3.2,1.4,3.2,3.2
	C251.1,567.5,249.7,568.9,247.9,568.9"/>
<path d="M248,569.5c-2,0-3.7-1.6-3.7-3.7c0-2.2,1.7-3.8,3.7-3.8v1.2c-1.4,0-2.5,1.1-2.5,2.7c0,1.3,1.1,2.5,2.5,2.5V569.5z M248,562
	v1.2c1.5,0,2.7,1.1,2.7,2.7c0,1.3-1.1,2.5-2.7,2.5v1.1c2.2,0,3.8-1.6,3.8-3.7C251.8,563.7,250.2,562,248,562"/>
<rect x="244" y="561.6" class="st25" width="8.1" height="4.1"/>
<rect x="247.5" y="562.5" width="1" height="4.2"/>
<rect x="247.5" y="562.5" class="st26" width="1" height="4.2"/>
<line class="st9" x1="310.8" y1="568.4" x2="310.8" y2="800.2"/>
<line class="st24" x1="310.8" y1="565.8" x2="310.8" y2="557.6"/>
<path class="st25" d="M310.7,568.9c-1.7,0-3-1.4-3-3c0-1.8,1.4-3.2,3-3.2c1.8,0,3.2,1.4,3.2,3.2
	C313.9,567.5,312.5,568.9,310.7,568.9"/>
<path d="M310.8,569.5c-2,0-3.7-1.6-3.7-3.7c0-2.2,1.7-3.8,3.7-3.8v1.2c-1.4,0-2.5,1.1-2.5,2.7c0,1.3,1.1,2.5,2.5,2.5V569.5z
	 M310.8,562v1.2c1.5,0,2.7,1.1,2.7,2.7c0,1.3-1.1,2.5-2.7,2.5v1.1c2.2,0,3.8-1.6,3.8-3.7C314.6,563.7,313,562,310.8,562"/>
<rect x="306.8" y="561.6" class="st25" width="8.1" height="4.1"/>
<rect x="310.3" y="562.5" width="1" height="4.2"/>
<rect x="310.3" y="562.5" class="st26" width="1" height="4.2"/>
<line class="st29" x1="303.9" y1="800.1" x2="317.8" y2="800.1"/>
<line class="st29" x1="306.8" y1="802.3" x2="314.9" y2="802.3"/>
<line class="st29" x1="313.3" y1="804.4" x2="308.4" y2="804.4"/>
<line class="st9" x1="310.8" y1="568.4" x2="310.8" y2="800.2"/>
<line class="st24" x1="310.8" y1="565.8" x2="310.8" y2="557.6"/>
<path class="st25" d="M310.7,568.9c-1.7,0-3-1.4-3-3c0-1.8,1.4-3.2,3-3.2c1.8,0,3.2,1.4,3.2,3.2
	C313.9,567.5,312.5,568.9,310.7,568.9"/>
<path d="M310.8,569.5c-2,0-3.7-1.6-3.7-3.7c0-2.2,1.7-3.8,3.7-3.8v1.2c-1.4,0-2.5,1.1-2.5,2.7c0,1.3,1.1,2.5,2.5,2.5V569.5z
	 M310.8,562v1.2c1.5,0,2.7,1.1,2.7,2.7c0,1.3-1.1,2.5-2.7,2.5v1.1c2.2,0,3.8-1.6,3.8-3.7C314.6,563.7,313,562,310.8,562"/>
<rect x="306.8" y="561.6" class="st25" width="8.1" height="4.1"/>
<rect x="310.3" y="562.5" width="1" height="4.2"/>
<rect x="310.3" y="562.5" class="st26" width="1" height="4.2"/>
<line class="st24" x1="616.3" y1="565.8" x2="616.3" y2="557.6"/>
<path class="st25" d="M616.2,568.9c-1.7,0-3-1.4-3-3c0-1.8,1.4-3.2,3-3.2c1.8,0,3.2,1.4,3.2,3.2C619.4,567.5,618,568.9,616.2,568.9"
	/>
<path d="M616.2,569.5c-2,0-3.7-1.6-3.7-3.7c0-2.2,1.7-3.8,3.7-3.8v1.2c-1.4,0-2.5,1.1-2.5,2.7c0,1.3,1.1,2.5,2.5,2.5V569.5z
	 M616.2,562v1.2c1.5,0,2.7,1.1,2.7,2.7c0,1.3-1.1,2.5-2.7,2.5v1.1c2.2,0,3.8-1.6,3.8-3.7C620,563.7,618.4,562,616.2,562"/>
<rect x="612.2" y="561.6" class="st25" width="8.1" height="4.1"/>
<rect x="615.8" y="562.5" width="1" height="4.2"/>
<rect x="615.8" y="562.5" class="st26" width="1" height="4.2"/>
<line class="st24" x1="559.6" y1="565.8" x2="559.6" y2="557.6"/>
<path class="st25" d="M559.5,568.9c-1.7,0-3-1.4-3-3c0-1.8,1.4-3.2,3-3.2c1.8,0,3.2,1.4,3.2,3.2
	C562.7,567.5,561.3,568.9,559.5,568.9"/>
<path d="M559.5,569.5c-2,0-3.7-1.6-3.7-3.7c0-2.2,1.7-3.8,3.7-3.8v1.2c-1.4,0-2.5,1.1-2.5,2.7c0,1.3,1.1,2.5,2.5,2.5V569.5z
	 M559.5,562v1.2c1.5,0,2.7,1.1,2.7,2.7c0,1.3-1.1,2.5-2.7,2.5v1.1c2.2,0,3.8-1.6,3.8-3.7C563.3,563.7,561.7,562,559.5,562"/>
<rect x="555.5" y="561.6" class="st25" width="8.1" height="4.1"/>
<rect x="559.1" y="562.5" width="1" height="4.2"/>
<rect x="559.1" y="562.5" class="st26" width="1" height="4.2"/>
<line class="st24" x1="559.6" y1="565.8" x2="559.6" y2="557.6"/>
<path class="st25" d="M559.5,568.9c-1.7,0-3-1.4-3-3c0-1.8,1.4-3.2,3-3.2c1.8,0,3.2,1.4,3.2,3.2
	C562.7,567.5,561.3,568.9,559.5,568.9"/>
<path d="M559.5,569.5c-2,0-3.7-1.6-3.7-3.7c0-2.2,1.7-3.8,3.7-3.8v1.2c-1.4,0-2.5,1.1-2.5,2.7c0,1.3,1.1,2.5,2.5,2.5V569.5z
	 M559.5,562v1.2c1.5,0,2.7,1.1,2.7,2.7c0,1.3-1.1,2.5-2.7,2.5v1.1c2.2,0,3.8-1.6,3.8-3.7C563.3,563.7,561.7,562,559.5,562"/>
<rect x="555.5" y="561.6" class="st25" width="8.1" height="4.1"/>
<rect x="559.1" y="562.5" width="1" height="4.2"/>
<rect x="559.1" y="562.5" class="st26" width="1" height="4.2"/>
<path class="st7" d="M617.8,257c-1.9,0-3.4-1.7-3.4-3.8c0-2.1,1.5-3.8,3.4-3.8l62.9,7.6c1.9,0,3.4-1.7,3.4-3.8
	c0-2.1-1.5-3.8-3.4-3.8L617.8,257z"/>
<path class="st7" d="M556.5,620c-1.9,0-3.4-1.7-3.4-3.8c0-2.1,1.5-3.8,3.4-3.8l62.9,7.6c1.9,0,3.4-1.7,3.4-3.8
	c0-2.1-1.5-3.8-3.4-3.8L556.5,620z"/>
<path class="st30" d="M617.4,184.9l0.5-2.2c0,0,0.5-2.7,2.9-2.8h28.1l1.7-2.9l1.7,2.9h28c2.4,0.1,2.8,2.8,2.8,2.8l0.5,2.2"/>
<line class="st29" x1="303.9" y1="800.1" x2="317.8" y2="800.1"/>
<line class="st29" x1="306.8" y1="802.3" x2="314.9" y2="802.3"/>
<line class="st29" x1="313.3" y1="804.4" x2="308.4" y2="804.4"/>
<rect x="488.8" y="208.9" class="st25" width="28.1" height="7.1"/>
<g class="st31">
	<g>
		<text transform="matrix(1 0 0 1 490.2089 214.0238)" class="st3 st4">Y/R 0.35</text>
	</g>
</g>
<rect x="488.8" y="274.1" class="st25" width="28.1" height="7.1"/>
<g class="st31">
	<g>
		<text transform="matrix(1 0 0 1 490.2089 279.225)" class="st3 st4">Y/R 0.35</text>
	</g>
</g>
<text transform="matrix(1 0 0 1 508.2386 163.1361)" class="st3 st4">5A</text>
<rect x="159.2" y="581.9" class="st25" width="28.1" height="7.1"/>
<rect x="370.6" y="581.9" class="st25" width="28.1" height="7.1"/>
<g class="st31">
	<g>
		<text transform="matrix(1 0 0 1 165.6929 587.0179)" class="st3 st4">B 2.5</text>
	</g>
</g>
<g class="st31">
	<g>
		<text transform="matrix(1 0 0 1 377.0739 587.0179)" class="st3 st4">B 2.5</text>
	</g>
</g>
<rect x="163.1" y="807.3" class="st25" width="20.3" height="8.2"/>
<rect x="163.5" y="807.7" class="st25" width="19.7" height="7.6"/>
<rect x="163.5" y="807.7" class="st32" width="19.7" height="7.6"/>
<rect x="374.5" y="807.3" class="st25" width="20.3" height="8.2"/>
<rect x="374.9" y="807.7" class="st25" width="19.7" height="7.6"/>
<rect x="374.9" y="807.7" class="st32" width="19.7" height="7.6"/>
<rect x="668.5" y="807.3" class="st25" width="20.3" height="8.2"/>
<rect x="668.9" y="807.7" class="st25" width="19.7" height="7.6"/>
<rect x="668.9" y="807.7" class="st32" width="19.7" height="7.6"/>
<g class="st31">
	<g>
		<text transform="matrix(1 0 0 1.0071 509.8568 246.7738)" class="st3 st33">SP2713</text>
	</g>
</g>
<rect x="508.2" y="241.5" class="st25" width="26.8" height="6.9"/>
<rect x="508.2" y="241.5" class="st34" width="26.8" height="6.9"/>
<text transform="matrix(1 0 0 1.0071 510.1522 246.7738)" class="st3 st33">SP4108</text>
<rect x="682.4" y="546.4" class="st34" width="26.8" height="6.9"/>
<text transform="matrix(1 0 0 1.0071 684.2835 551.7198)" class="st3 st33">SP2099</text>
<g class="st31">
	<g>
		<text transform="matrix(1 0 0 1.0071 683.9881 678.847)" class="st3 st33">SP2713</text>
	</g>
</g>
<rect x="682.4" y="673.6" class="st25" width="26.8" height="6.9"/>
<rect x="682.4" y="673.6" class="st34" width="26.8" height="6.9"/>
<text transform="matrix(1 0 0 1.0071 684.2835 678.8461)" class="st3 st33">SP3315</text>
<g class="st31">
	<g>
		<text transform="matrix(1 0 0 1 1298.4587 336.8558)" class="st3 st35">12V</text>
	</g>
</g>
<g class="st31">
	<g>
		<text transform="matrix(1 0 0 1 1242.9685 336.8558)" class="st3 st35">5V</text>
	</g>
</g>
<g class="st31">
	<g>
		<text transform="matrix(1 0 0 1 1298.4587 708.014)" class="st3 st35">12V</text>
	</g>
</g>
<g class="st31">
	<g>
		<text transform="matrix(1 0 0 1 1242.9685 708.014)" class="st3 st35">5V</text>
	</g>
</g>
<rect x="296.8" y="581.9" class="st25" width="28.1" height="7.1"/>
<g class="st31">
	<g>
		<text transform="matrix(1 0 0 1 301.4276 587.0179)" class="st3 st4">B 0.75</text>
	</g>
</g>
<rect x="602.2" y="581.9" class="st25" width="28.1" height="7.1"/>
<g class="st31">
	<g>
		<text transform="matrix(1 0 0 1 606.8431 587.0179)" class="st3 st4">V 0.35</text>
	</g>
</g>
<rect x="545.5" y="581.9" class="st25" width="28.1" height="7.1"/>
<g class="st31">
	<g>
		<text transform="matrix(1 0 0 1 550.1859 587.0179)" class="st3 st4">P 0.35</text>
	</g>
</g>
<g class="st31">
	<g>
		<text transform="matrix(1 0 0 1 609.1322 555.5101)" class="st3 st35">CAN_L</text>
	</g>
</g>
<g class="st31">
	<g>
		<text transform="matrix(1 0 0 1 552.0878 555.5101)" class="st3 st35">CAN_H</text>
	</g>
</g>
<rect x="234" y="581.9" class="st25" width="28.1" height="7.1"/>
<g class="st31">
	<g>
		<text transform="matrix(1 0 0 1 240.4888 587.0179)" class="st3 st4">B 2.5</text>
	</g>
</g>
<rect x="300.7" y="807.3" class="st25" width="20.3" height="8.2"/>
<rect x="301.1" y="807.7" class="st25" width="19.7" height="7.6"/>
<rect x="301.1" y="807.7" class="st32" width="19.7" height="7.6"/>
<rect x="237.9" y="807.3" class="st25" width="20.3" height="8.2"/>
<rect x="238.3" y="807.7" class="st25" width="19.7" height="7.6"/>
<rect x="238.3" y="807.7" class="st32" width="19.7" height="7.6"/>
<rect x="663.5" y="273.5" class="st25" width="28.1" height="7.1"/>
<g class="st31">
	<g>
		<text transform="matrix(1 0 0 1 668.1633 279.0533)" class="st3 st4">V 0.35</text>
	</g>
</g>
<rect x="606.8" y="273.5" class="st25" width="28.1" height="7.1"/>
<g class="st31">
	<g>
		<text transform="matrix(1 0 0 1 611.5061 279.0533)" class="st3 st4">P 0.35</text>
	</g>
</g>
<rect x="488.8" y="363.4" class="st25" width="28.1" height="7.1"/>
<g class="st31">
	<g>
		<text transform="matrix(1 0 0 1 490.059 369.0492)" class="st3 st4">Y/G 0.22</text>
	</g>
</g>
<rect x="545.5" y="363.4" class="st25" width="28.1" height="7.1"/>
<g class="st31">
	<g>
		<text transform="matrix(1 0 0 1 546.0023 369.0492)" class="st3 st4">R/W 0.22</text>
	</g>
</g>
<rect x="602.2" y="363.4" class="st25" width="28.1" height="7.1"/>
<g class="st31">
	<g>
		<text transform="matrix(1 0 0 1 603.7958 369.0492)" class="st3 st4">G/L 0.35</text>
	</g>
</g>
<rect x="488.8" y="492.7" class="st25" width="28.1" height="7.1"/>
<g class="st31">
	<g>
		<text transform="matrix(1 0 0 1 490.059 498.3007)" class="st3 st4">Y/G 0.22</text>
	</g>
</g>
<rect x="545.5" y="492.7" class="st25" width="28.1" height="7.1"/>
<g class="st31">
	<g>
		<text transform="matrix(1 0 0 1 546.0023 498.3007)" class="st3 st4">R/W 0.22</text>
	</g>
</g>
<rect x="602.2" y="492.7" class="st25" width="28.1" height="7.1"/>
<g class="st31">
	<g>
		<text transform="matrix(1 0 0 1 603.7958 498.3007)" class="st3 st4">G/L 0.35</text>
	</g>
</g>
<rect x="664.6" y="363.4" class="st25" width="28.1" height="7.1"/>
<g class="st31">
	<g>
		<text transform="matrix(1 0 0 1 669.2908 369.0492)" class="st3 st4">B 0.35</text>
	</g>
</g>
<rect x="664.6" y="614.8" class="st25" width="28.1" height="7.1"/>
<g class="st31">
	<g>
		<text transform="matrix(1 0 0 1 669.2908 619.9613)" class="st3 st4">B 0.35</text>
	</g>
</g>
<rect x="664.6" y="778.1" class="st25" width="28.1" height="7.1"/>
<g class="st31">
	<g>
		<text transform="matrix(1 0 0 1 669.2908 783.2377)" class="st3 st4">B 0.75</text>
	</g>
</g>
<rect x="1401.7" y="363.4" class="st25" width="28.1" height="7.1"/>
<g class="st31">
	<g>
		<text transform="matrix(1 0 0 1 1403.6101 369.0492)" class="st3 st4">W/L 0.22</text>
	</g>
</g>
<rect x="1345" y="363.4" class="st25" width="28.1" height="7.1"/>
<g class="st31">
	<g>
		<text transform="matrix(1 0 0 1 1349.6248 369.0492)" class="st3 st4">B 0.22</text>
	</g>
</g>
<rect x="1288.3" y="363.4" class="st25" width="28.1" height="7.1"/>
<g class="st31">
	<g>
		<text transform="matrix(1 0 0 1 1292.7556 369.0492)" class="st3 st4">R 0.22</text>
	</g>
</g>
<rect x="1231.6" y="363.4" class="st25" width="28.1" height="7.1"/>
<g class="st31">
	<g>
		<text transform="matrix(1 0 0 1 1233.3562 369.0492)" class="st3 st4">R/L 0.22</text>
	</g>
</g>
<rect x="1174.9" y="363.4" class="st25" width="28.1" height="7.1"/>
<g class="st31">
	<g>
		<text transform="matrix(1 0 0 1 1176.3113 369.0492)" class="st3 st4">B/R 0.22</text>
	</g>
</g>
<rect x="1118.2" y="363.4" class="st25" width="28.1" height="7.1"/>
<g class="st31">
	<g>
		<text transform="matrix(1 0 0 1 1118.8689 369.0492)" class="st3 st4">B/W 0.22</text>
	</g>
</g>
<rect x="1061.5" y="363.4" class="st25" width="28.1" height="7.1"/>
<g class="st31">
	<g>
		<text transform="matrix(1 0 0 1 1061.824 369.0492)" class="st3 st4">W/G 0.22</text>
	</g>
</g>
<rect x="1004.8" y="363.4" class="st25" width="28.1" height="7.1"/>
<g class="st31">
	<g>
		<text transform="matrix(1 0 0 1 1005.8338 369.0492)" class="st3 st4">W/L 0.22</text>
	</g>
</g>
<rect x="891.4" y="363.4" class="st25" width="28.1" height="7.1"/>
<g class="st31">
	<g>
		<text transform="matrix(1 0 0 1 892.0965 369.0492)" class="st3 st4">W/B 0.22</text>
	</g>
</g>
<rect x="948.1" y="363.4" class="st25" width="28.1" height="7.1"/>
<g class="st31">
	<g>
		<text transform="matrix(1 0 0 1 948.6141 369.0492)" class="st3 st4">W/R 0.22</text>
	</g>
</g>
<rect x="834.7" y="363.4" class="st25" width="28.1" height="7.1"/>
<g class="st31">
	<g>
		<text transform="matrix(1 0 0 1 839.0125 369.0492)" class="st3 st4">O 0.22</text>
	</g>
</g>
<rect x="778.1" y="363.4" class="st25" width="28.1" height="7.1"/>
<g class="st31">
	<g>
		<text transform="matrix(1 0 0 1 781.7698 369.0492)" class="st3 st4">W 0.22</text>
	</g>
</g>
<rect x="1401.7" y="671.7" class="st25" width="28.1" height="7.1"/>
<g class="st31">
	<g>
		<text transform="matrix(1 0 0 1 1403.6101 676.8334)" class="st3 st4">W/L 0.22</text>
	</g>
</g>
<rect x="1345" y="671.7" class="st25" width="28.1" height="7.1"/>
<g class="st31">
	<g>
		<text transform="matrix(1 0 0 1 1349.6248 676.8334)" class="st3 st4">B 0.22</text>
	</g>
</g>
<rect x="1288.3" y="671.7" class="st25" width="28.1" height="7.1"/>
<g class="st31">
	<g>
		<text transform="matrix(1 0 0 1 1292.7556 676.8334)" class="st3 st4">R 0.22</text>
	</g>
</g>
<rect x="1231.6" y="671.7" class="st25" width="28.1" height="7.1"/>
<g class="st31">
	<g>
		<text transform="matrix(1 0 0 1 1233.3562 676.8334)" class="st3 st4">R/L 0.22</text>
	</g>
</g>
<rect x="1174.9" y="671.7" class="st25" width="28.1" height="7.1"/>
<g class="st31">
	<g>
		<text transform="matrix(1 0 0 1 1176.3113 676.8334)" class="st3 st4">B/R 0.22</text>
	</g>
</g>
<rect x="1118.2" y="671.7" class="st25" width="28.1" height="7.1"/>
<g class="st31">
	<g>
		<text transform="matrix(1 0 0 1 1118.8689 676.8334)" class="st3 st4">B/W 0.22</text>
	</g>
</g>
<rect x="1061.5" y="671.7" class="st25" width="28.1" height="7.1"/>
<g class="st31">
	<g>
		<text transform="matrix(1 0 0 1 1061.824 676.8334)" class="st3 st4">W/G 0.22</text>
	</g>
</g>
<rect x="1004.8" y="671.7" class="st25" width="28.1" height="7.1"/>
<g class="st31">
	<g>
		<text transform="matrix(1 0 0 1 1005.8338 676.8334)" class="st3 st4">W/L 0.22</text>
	</g>
</g>
<rect x="891.4" y="671.7" class="st25" width="28.1" height="7.1"/>
<g class="st31">
	<g>
		<text transform="matrix(1 0 0 1 892.0965 676.8334)" class="st3 st4">W/B 0.22</text>
	</g>
</g>
<rect x="948.1" y="671.7" class="st25" width="28.1" height="7.1"/>
<g class="st31">
	<g>
		<text transform="matrix(1 0 0 1 948.6141 676.8334)" class="st3 st4">W/R 0.22</text>
	</g>
</g>
<rect x="834.7" y="671.7" class="st25" width="28.1" height="7.1"/>
<g class="st31">
	<g>
		<text transform="matrix(1 0 0 1 839.0125 676.8334)" class="st3 st4">O 0.22</text>
	</g>
</g>
<rect x="778.1" y="671.7" class="st25" width="28.1" height="7.1"/>
<g class="st31">
	<g>
		<text transform="matrix(1 0 0 1 781.7698 676.8334)" class="st3 st4">W 0.22</text>
	</g>
</g>
<rect x="721.3" y="363.4" class="st25" width="28.1" height="7.1"/>
<g class="st31">
	<g>
		<text transform="matrix(1 0 0 1 725.9832 369.0492)" class="st3 st4">B 0.35</text>
	</g>
</g>
<path class="st30" d="M621.3,787.9l-0.5,2.2c0,0-0.5,2.7-2.9,2.8h-28.1l-1.7,2.9l-1.7-2.9h-28c-2.4-0.1-2.8-2.8-2.8-2.8l-0.5-2.2"/>
<rect x="300.7" y="807.3" class="st25" width="20.3" height="8.2"/>
<rect x="301.1" y="807.7" class="st25" width="19.7" height="7.6"/>
<rect x="301.1" y="807.7" class="st32" width="19.7" height="7.6"/>
<rect x="237.9" y="807.3" class="st25" width="20.3" height="8.2"/>
<rect x="238.3" y="807.7" class="st25" width="19.7" height="7.6"/>
<rect x="238.3" y="807.7" class="st32" width="19.7" height="7.6"/>
<text transform="matrix(1 0 0 1 508.035 156.517)" class="st36 st3 st4">F2/06</text>
<g class="st31">
	<g>
		<text transform="matrix(1 0 0 1 508.7767 190.3265)" class="st36 st3 st4">G82</text>
	</g>
</g>
<text transform="matrix(1 0 0 1 522.1102 190.3265)" class="st36 st3 st4">-7</text>
<text transform="matrix(1 0 0 1 622.2142 522.0482)" class="st36 st3 st4">G64(G)</text>
<text transform="matrix(1 0 0 1 644.6185 522.0482)" class="st36 st3 st4">-6</text>
<text transform="matrix(1 0 0 1 508.8265 522.0482)" class="st36 st3 st4">G64(G)</text>
<text transform="matrix(1 0 0 1 531.2303 522.0482)" class="st36 st3 st4">-17</text>
<text transform="matrix(1 0 0 1 508.8265 345.8524)" class="st36 st3 st4">G16</text>
<text transform="matrix(1 0 0 1 521.6483 345.8524)" class="st36 st3 st4">-3</text>
<text transform="matrix(1 0 0 1 508.8265 304.1224)" class="st36 st3 st4">G16</text>
<text transform="matrix(1 0 0 1 521.6483 304.1224)" class="st36 st3 st4">-5</text>
<line class="st24" x1="620.9" y1="297.8" x2="620.9" y2="306"/>
<path class="st25" d="M620.8,294.7c-1.7,0-3,1.4-3,3c0,1.8,1.4,3.2,3,3.2c1.8,0,3.2-1.4,3.2-3.2C624,296.1,622.6,294.7,620.8,294.7"
	/>
<path d="M620.8,295.2c-1.4,0-2.5,1.2-2.5,2.5c0,1.6,1.1,2.7,2.5,2.7v1.2c-2,0-3.7-1.6-3.7-3.8c0-2.1,1.7-3.7,3.7-3.7V295.2z
	 M620.8,301.6c2.2,0,3.8-1.7,3.8-3.8c0-2.1-1.6-3.7-3.8-3.7v1.1c1.6,0,2.7,1.2,2.7,2.5c0,1.6-1.2,2.7-2.7,2.7V301.6"/>
<rect x="616.8" y="297.9" class="st25" width="8.1" height="4.1"/>
<rect x="620.4" y="296.9" width="1" height="4.2"/>
<rect x="620.4" y="296.9" class="st26" width="1" height="4.2"/>
<g class="st31">
	<g>
		<text transform="matrix(1 0 0 1 613.4077 310.4056)" class="st3 st35">CAN_H</text>
	</g>
</g>
<text transform="matrix(1 0 0 1 626.8385 304.1224)" class="st36 st3 st4">G16</text>
<text transform="matrix(1 0 0 1 639.6603 304.1224)" class="st36 st3 st4">-7</text>
<line class="st24" x1="677.6" y1="297.8" x2="677.6" y2="306"/>
<path class="st25" d="M677.5,294.7c-1.7,0-3,1.4-3,3c0,1.8,1.4,3.2,3,3.2c1.8,0,3.2-1.4,3.2-3.2
	C680.7,296.1,679.3,294.7,677.5,294.7"/>
<path d="M677.5,295.2c-1.4,0-2.5,1.2-2.5,2.5c0,1.6,1.1,2.7,2.5,2.7v1.2c-2,0-3.7-1.6-3.7-3.8c0-2.1,1.7-3.7,3.7-3.7V295.2z
	 M677.5,301.6c2.2,0,3.8-1.7,3.8-3.8c0-2.1-1.6-3.7-3.8-3.7v1.1c1.6,0,2.7,1.2,2.7,2.5c0,1.6-1.2,2.7-2.7,2.7V301.6"/>
<rect x="673.5" y="297.9" class="st25" width="8.1" height="4.1"/>
<rect x="677.1" y="296.9" width="1" height="4.2"/>
<rect x="677.1" y="296.9" class="st26" width="1" height="4.2"/>
<g class="st31">
	<g>
		<text transform="matrix(1 0 0 1 670.0997 310.4056)" class="st3 st35">CAN_L</text>
	</g>
</g>
<text transform="matrix(1 0 0 1 683.5305 304.1224)" class="st36 st3 st4">G16</text>
<text transform="matrix(1 0 0 1 696.3523 304.1224)" class="st36 st3 st4">-8</text>
<text transform="matrix(1 0 0 1 684.6243 345.8524)" class="st36 st3 st4">G16</text>
<text transform="matrix(1 0 0 1 697.4461 345.8524)" class="st36 st3 st4">-1</text>
<text transform="matrix(1 0 0 1 1421.6765 345.8524)" class="st36 st3 st4">G16</text>
<text transform="matrix(1 0 0 1 1434.4988 345.8524)" class="st36 st3 st4">-9</text>
<text transform="matrix(1 0 0 1 1364.9822 345.8524)" class="st36 st3 st4">G16</text>
<text transform="matrix(1 0 0 1 1377.8044 345.8524)" class="st36 st3 st4">-14</text>
<text transform="matrix(1 0 0 1 1308.2878 345.8524)" class="st36 st3 st4">G16</text>
<text transform="matrix(1 0 0 1 1321.1101 345.8524)" class="st36 st3 st4">-28</text>
<text transform="matrix(1 0 0 1 1251.5945 345.8524)" class="st36 st3 st4">G16</text>
<text transform="matrix(1 0 0 1 1264.4167 345.8524)" class="st36 st3 st4">-23</text>
<text transform="matrix(1 0 0 1 1194.9001 345.8524)" class="st36 st3 st4">G16</text>
<text transform="matrix(1 0 0 1 1207.7224 345.8524)" class="st36 st3 st4">-27</text>
<text transform="matrix(1 0 0 1 1138.2068 345.8524)" class="st36 st3 st4">G16</text>
<text transform="matrix(1 0 0 1 1151.0281 345.8524)" class="st36 st3 st4">-26</text>
<text transform="matrix(1 0 0 1 1081.5125 345.8524)" class="st36 st3 st4">G16</text>
<text transform="matrix(1 0 0 1 1094.3347 345.8524)" class="st36 st3 st4">-13</text>
<text transform="matrix(1 0 0 1 1024.8181 345.8524)" class="st36 st3 st4">G16</text>
<text transform="matrix(1 0 0 1 1037.6404 345.8524)" class="st36 st3 st4">-12</text>
<text transform="matrix(1 0 0 1 968.1248 345.8524)" class="st36 st3 st4">G16</text>
<text transform="matrix(1 0 0 1 980.9461 345.8524)" class="st36 st3 st4">-11</text>
<text transform="matrix(1 0 0 1 911.4305 345.8524)" class="st36 st3 st4">G16</text>
<text transform="matrix(1 0 0 1 924.2527 345.8524)" class="st36 st3 st4">-10</text>
<text transform="matrix(1 0 0 1 854.7371 345.8524)" class="st36 st3 st4">G16</text>
<text transform="matrix(1 0 0 1 867.5584 345.8524)" class="st36 st3 st4">-25</text>
<text transform="matrix(1 0 0 1 798.0428 345.8524)" class="st36 st3 st4">G16</text>
<text transform="matrix(1 0 0 1 810.8646 345.8524)" class="st36 st3 st4">-24</text>
<text transform="matrix(1 0 0 1 1421.6648 700.5726)" class="st36 st3 st4">G39</text>
<text transform="matrix(1 0 0 1 1434.4871 700.5726)" class="st36 st3 st4">-6</text>
<text transform="matrix(1 0 0 1 1363.3503 700.5726)" class="st36 st3 st4">G39</text>
<text transform="matrix(1 0 0 1 1376.1726 700.5726)" class="st36 st3 st4">-1</text>
<text transform="matrix(1 0 0 1 1306.8191 700.5726)" class="st36 st3 st4">G39</text>
<text transform="matrix(1 0 0 1 1319.6404 700.5726)" class="st36 st3 st4">-8</text>
<text transform="matrix(1 0 0 1 1250.2869 700.5726)" class="st36 st3 st4">G39</text>
<text transform="matrix(1 0 0 1 1263.1091 700.5726)" class="st36 st3 st4">-13</text>
<text transform="matrix(1 0 0 1 1193.7546 700.5726)" class="st36 st3 st4">G39</text>
<text transform="matrix(1 0 0 1 1206.5769 700.5726)" class="st36 st3 st4">-9</text>
<text transform="matrix(1 0 0 1 1137.2224 700.5726)" class="st36 st3 st4">G39</text>
<text transform="matrix(1 0 0 1 1150.0447 700.5726)" class="st36 st3 st4">-10</text>
<text transform="matrix(1 0 0 1 1080.6912 700.5726)" class="st36 st3 st4">G39</text>
<text transform="matrix(1 0 0 1 1093.5125 700.5726)" class="st36 st3 st4">-2</text>
<text transform="matrix(1 0 0 1 1024.1589 700.5726)" class="st36 st3 st4">G39</text>
<text transform="matrix(1 0 0 1 1036.9812 700.5726)" class="st36 st3 st4">-3</text>
<text transform="matrix(1 0 0 1 967.6268 700.5726)" class="st36 st3 st4">G39</text>
<text transform="matrix(1 0 0 1 980.449 700.5726)" class="st36 st3 st4">-4</text>
<text transform="matrix(1 0 0 1 911.0945 700.5726)" class="st36 st3 st4">G39</text>
<text transform="matrix(1 0 0 1 923.9168 700.5726)" class="st36 st3 st4">-5</text>
<text transform="matrix(1 0 0 1 854.5633 700.5726)" class="st36 st3 st4">G39</text>
<text transform="matrix(1 0 0 1 867.3846 700.5726)" class="st36 st3 st4">-11</text>
<text transform="matrix(1 0 0 1 798.0311 700.5726)" class="st36 st3 st4">G39</text>
<text transform="matrix(1 0 0 1 810.8528 700.5726)" class="st36 st3 st4">-12</text>
<text transform="matrix(1 0 0 1 622.1913 345.8524)" class="st36 st3 st4">G16</text>
<text transform="matrix(1 0 0 1 635.0131 345.8524)" class="st36 st3 st4">-18</text>
<text transform="matrix(1 0 0 1 565.4969 345.8524)" class="st36 st3 st4">G16</text>
<text transform="matrix(1 0 0 1 578.3192 345.8524)" class="st36 st3 st4">-17</text>
<text transform="matrix(1 0 0 1 741.2889 345.8524)" class="st36 st3 st4">G16</text>
<text transform="matrix(1 0 0 1 754.1111 345.8524)" class="st36 st3 st4">-4</text>
<text transform="matrix(1 0 0 1 565.4911 522.0482)" class="st36 st3 st4">G64(G)</text>
<text transform="matrix(1 0 0 1 587.8949 522.0482)" class="st36 st3 st4">-28</text>
<text transform="matrix(1 0 0 1 179.7588 564.973)" class="st36 st3 st4">KG64(E)</text>
<text transform="matrix(1 0 0 1 390.5256 564.973)" class="st36 st3 st4">KG64(E)</text>
<text transform="matrix(1 0 0 1 165.8028 813.2406)" class="st36 st3 st4">Ek01</text>
<text transform="matrix(1 0 0 1 377.1096 813.2406)" class="st36 st3 st4">Ek05</text>
<text transform="matrix(1 0 0 1 671.2029 813.2406)" class="st36 st3 st4">Eg03</text>
<text transform="matrix(1 0 0 1 206.2549 564.973)" class="st36 st3 st4">-8</text>
<text transform="matrix(1 0 0 1 417.0217 564.973)" class="st36 st3 st4">-20</text>
<text transform="matrix(1 0 0 1 531.201 163.4227)" class="st36 st3 st4">  </text>
<text transform="matrix(1 0 0 1 317.3529 564.973)" class="st36 st3 st4">BG64(B)</text>
<text transform="matrix(1 0 0 1 303.1688 813.2406)" class="st36 st3 st4">Eb03</text>
<text transform="matrix(1 0 0 1 343.8549 564.973)" class="st36 st3 st4">-43</text>
<text transform="matrix(1 0 0 1 566.1093 564.973)" class="st36 st3 st4">KG64(E)</text>
<text transform="matrix(1 0 0 1 591.2577 564.973)" class="st36 st3 st4">-15</text>
<text transform="matrix(1 0 0 1 620.319 564.973)" class="st36 st3 st4">KG64(E)</text>
<text transform="matrix(1 0 0 1 645.4674 564.973)" class="st36 st3 st4">-16</text>
<text transform="matrix(1 0 0 1 254.5562 564.973)" class="st36 st3 st4">KG64(E)</text>
<text transform="matrix(1 0 0 1 240.5938 813.2406)" class="st36 st3 st4">Ek03</text>
<text transform="matrix(1 0 0 1 281.0581 564.973)" class="st36 st3 st4">-13</text>
<line class="st9" x1="230.6" y1="206.8" x2="230.6" y2="445.9"/>
<polyline class="st13" points="194,207.2 194,332.9 155.9,332.9 155.9,205.1 "/>
<polyline class="st37" points="194,207.2 194,332.9 155.9,332.9 155.9,205.1 "/>
<rect x="227.4" y="409.7" class="st25" width="6.4" height="6"/>
<g>
	<text transform="matrix(1 0 0 1 223.0585 414.6599)" class="st3 st4">B 1.0</text>
</g>
<g>
	<g id="GB031_17_">
		<g>
			<g>
				<line class="st29" x1="230.7" y1="443.9" x2="230.7" y2="446.6"/>
			</g>
			<g>
				<line class="st29" x1="223.7" y1="446.6" x2="237.5" y2="446.6"/>
			</g>
			<g>
				<line class="st29" x1="226.5" y1="448.8" x2="234.7" y2="448.8"/>
			</g>
			<g>
				<line class="st29" x1="233" y1="450.9" x2="228.2" y2="450.9"/>
			</g>
		</g>
		<g>
			<rect x="220.3" y="453.4" class="st25" width="20.3" height="8.2"/>
			<rect x="220.6" y="453.7" class="st38" width="19.7" height="7.6"/>
		</g>
	</g>
</g>
<rect x="235.3" y="328.7" class="st39" width="25" height="7.4"/>
<text transform="matrix(1 0 0 1 235.6358 334.1926)" class="st3 st4">SP2777</text>
<path class="st40" d="M233.3,333c0,1.7-1.3,2.9-2.8,2.9c-1.6,0-2.9-1.2-2.9-2.9c0-1.5,1.3-2.7,2.9-2.7
	C232,330.3,233.3,331.5,233.3,333z"/>
<rect x="159.9" y="321.8" class="st39" width="25" height="7.4"/>
<text transform="matrix(1 0 0 1 160.2658 327.3593)" class="st3 st4">SP3215</text>
<path class="st40" d="M158.9,333c0,1.7-1.3,2.9-2.8,2.9c-1.6,0-2.9-1.2-2.9-2.9c0-1.5,1.3-2.7,2.9-2.7
	C157.6,330.3,158.9,331.5,158.9,333z"/>
<text transform="matrix(1 0 0 1 222.9834 459.7396)" class="st36 st3 st4">Ek07</text>
<g id="REB_x2C_A3_2_">
	<rect x="67.4" y="120" class="st41" width="48.4" height="76"/>
</g>
<g id="RF22_x2C_A3_2_">
	<g>
		<g>
			<path class="st42" d="M89.4,163.7c-1.2,0-2.2,1-2.2,2.2c0,1.2,1,2.2,2.2,2.2c1.2,0,2.2-1,2.2-2.2
				C91.6,164.7,90.6,163.7,89.4,163.7"/>
		</g>
		<g>
			<path class="st42" d="M89.4,147.9c-1.2,0-2.2,1-2.2,2.1c0,1.2,1,2.2,2.2,2.2c1.2,0,2.2-0.9,2.2-2.2
				C91.6,148.9,90.6,147.9,89.4,147.9"/>
		</g>
		<g>
			<path class="st42" d="M87.9,151.7c-0.1,2.5,0.2,3.2,1.3,4.3c1.2,1.2,2.4,1.7,2.8,3.7c0.4,1.6-0.1,3.5-1.1,4.5"/>
		</g>
		<g>
			<path class="st42" d="M90.8,164.2c0.2-0.8,0-2.9-0.6-3.7c-0.9-1.2-2.7-2.1-3.3-4c-0.9-2.8,0.7-4.6,1.1-5"/>
		</g>
	</g>
</g>
<line class="st13" x1="89.5" y1="204.5" x2="89.5" y2="514.3"/>
<line class="st43" x1="89.5" y1="204.5" x2="89.5" y2="514.3"/>
<g>
	<g>
		<polyline class="st44" points="89.4,168.1 89.4,173.5 89.4,196 		"/>
	</g>
</g>
<g>
	<g>
		<polyline class="st44" points="89.4,147.9 89.4,144 89.4,48.6 		"/>
	</g>
</g>
<g>
	<g>
		<line class="st44" x1="89.4" y1="204.5" x2="89.4" y2="196.2"/>
	</g>
	<g>
		<path class="st25" d="M89.5,207.5c-1.7,0-3-1.4-3-3c0-1.8,1.4-3.2,3-3.2c1.8,0,3.2,1.4,3.2,3.2C92.7,206.1,91.3,207.5,89.5,207.5z
			"/>
		<path d="M89.5,208.2c-2,0-3.7-1.6-3.7-3.7c0-2.2,1.7-3.8,3.7-3.8v1.1c-1.4,0-2.5,1.1-2.5,2.7c0,1.4,1.1,2.5,2.5,2.5V208.2
			L89.5,208.2z M89.5,200.7v1.1c1.5,0,2.7,1.1,2.7,2.7c0,1.4-1.1,2.5-2.7,2.5v1.1c2.2,0,3.8-1.6,3.8-3.7
			C93.3,202.3,91.7,200.7,89.5,200.7z"/>
	</g>
	<rect x="85.3" y="200.3" class="st25" width="8.5" height="4.1"/>
	<rect x="88.9" y="201.2" width="1" height="4.2"/>
	<rect x="88.9" y="201.2" class="st26" width="1" height="4.2"/>
</g>
<g>
	<g>
		<line class="st44" x1="89.7" y1="516.3" x2="89.7" y2="524.5"/>
	</g>
	<g>
		<path class="st25" d="M89.6,513.2c1.7,0,3,1.4,3,3c0,1.8-1.4,3.2-3,3.2c-1.8,0-3.2-1.4-3.2-3.2C86.5,514.6,87.8,513.2,89.6,513.2z
			"/>
		<path d="M89.6,512.6c2,0,3.7,1.7,3.7,3.7c0,2.2-1.7,3.8-3.7,3.8v-1.1c1.4,0,2.5-1.1,2.5-2.7c0-1.4-1.1-2.5-2.5-2.5V512.6
			L89.6,512.6z M89.6,520.1v-1.1c-1.5,0-2.7-1.1-2.7-2.7c0-1.4,1.1-2.5,2.7-2.5v-1.1c-2.2,0-3.8,1.7-3.8,3.7
			C85.8,518.4,87.5,520.1,89.6,520.1z"/>
	</g>
	<rect x="85.3" y="516.4" class="st25" width="8.5" height="4.1"/>
	<rect x="89.2" y="515.4" width="1" height="4.2"/>
	<rect x="89.2" y="515.4" class="st26" width="1" height="4.2"/>
</g>
<rect x="83" y="275.2" class="st25" width="12.7" height="6"/>
<g>
	<path class="st45" d="M86.3,48.4c0-1.7,1.3-2.9,2.8-2.9c1.6,0,2.9,1.2,2.9,2.9c0,1.5-1.3,2.7-2.9,2.7
		C87.6,51.1,86.3,49.9,86.3,48.4z"/>
	<g>
		<path class="st46" d="M86.3,48.4c0-1.7,1.3-2.9,2.8-2.9c1.6,0,2.9,1.2,2.9,2.9c0,1.5-1.3,2.7-2.9,2.7
			C87.6,51.1,86.3,49.9,86.3,48.4"/>
	</g>
</g>
<rect x="83" y="493.5" class="st25" width="12.7" height="6"/>
<rect x="83" y="493.5" class="st25" width="12.5" height="6"/>
<g>
	<text transform="matrix(1 0 0 1 78.9275 498.4601)" class="st3 st4">R 20.0</text>
</g>
<g>
	<text transform="matrix(1 0 0 1 78.927 280.4296)" class="st3 st4">R 20.0</text>
</g>
<g>
	<g>
		<text transform="matrix(1 0 0 1 93.7312 162.8438)" class="st3 st4">200A</text>
	</g>
</g>
<g>
	<text transform="matrix(1 0 0 1 94.0589 156.2256)" class="st36 st3 st4">F4/02</text>
</g>
<g>
	<text transform="matrix(1 0 0 1 91.5757 117.8907)" class="st36 st3 st4">Positive Fuse Box</text>
</g>
<g>
	<text transform="matrix(1 0 0 1 93.6777 203.2332)" class="st36 st3 st4">KB46_B</text>
</g>
<g>
	<text transform="matrix(1 0 0 1 117.5527 203.2332)" class="st36 st3 st4">-1</text>
</g>
<g>
	<text transform="matrix(1 0 0 1 95.0205 521.6497)" class="st36 st3 st4">KG64(A)_4</text>
</g>
<g>
	<text transform="matrix(1 0 0 1 127.958 521.6497)" class="st36 st3 st4">-1</text>
</g>
<g id="REB_x2C_A3_4_">
	<rect x="143.2" y="120" class="st41" width="265.6" height="76"/>
</g>
<g>
	<line class="st9" x1="280.9" y1="206.5" x2="280.9" y2="514"/>
</g>
<g>
	<line class="st10" x1="280.9" y1="206.5" x2="280.9" y2="514"/>
</g>
<line class="st47" x1="381.3" y1="206.8" x2="381.3" y2="514.3"/>
<line class="st48" x1="381.3" y1="206.8" x2="381.3" y2="514.3"/>
<line class="st49" x1="381.3" y1="206.8" x2="381.3" y2="514.3"/>
<rect x="388" y="330.4" class="st39" width="25.3" height="5.6"/>
<text transform="matrix(1 0 0 1 388.7285 335.2612)" class="st3 st4">SP1914</text>
<path class="st40" d="M384.4,333.2c0,1.7-1.3,2.9-2.8,2.9c-1.6,0-2.9-1.2-2.9-2.9c0-1.5,1.3-2.7,2.9-2.7
	C383.1,330.5,384.4,331.7,384.4,333.2z"/>
<rect x="287.4" y="330.1" class="st39" width="25.3" height="5.6"/>
<text transform="matrix(1 0 0 1 288.0998 334.9443)" class="st3 st4">SP3222</text>
<path class="st40" d="M283.7,332.9c0,1.7-1.3,2.9-2.8,2.9c-1.6,0-2.9-1.2-2.9-2.9c0-1.5,1.3-2.7,2.9-2.7
	C282.5,330.2,283.7,331.4,283.7,332.9z"/>
<g id="RF22_x2C_A3_5_">
	<g>
		<g>
			<path class="st42" d="M381.2,163.7c-1.2,0-2.2,1-2.2,2.2c0,1.2,1,2.2,2.2,2.2c1.2,0,2.2-1,2.2-2.2
				C383.4,164.7,382.4,163.7,381.2,163.7"/>
		</g>
		<g>
			<path class="st42" d="M381.2,147.9c-1.2,0-2.2,1-2.2,2.1c0,1.2,1,2.2,2.2,2.2c1.2,0,2.2-0.9,2.2-2.2
				C383.4,148.9,382.4,147.9,381.2,147.9"/>
		</g>
		<g>
			<path class="st42" d="M379.7,151.7c-0.1,2.5,0.2,3.2,1.3,4.3c1.2,1.2,2.4,1.7,2.8,3.7c0.4,1.6-0.1,3.5-1.1,4.5"/>
		</g>
		<g>
			<path class="st42" d="M382.6,164.2c0.2-0.8,0-2.9-0.6-3.7c-0.9-1.2-2.7-2.1-3.3-4c-0.9-2.8,0.7-4.6,1.1-5"/>
		</g>
	</g>
</g>
<g id="RF22_x2C_A3_4_">
	<g>
		<g>
			<path class="st42" d="M343.7,163.7c-1.2,0-2.2,1-2.2,2.2c0,1.2,1,2.2,2.2,2.2c1.2,0,2.2-1,2.2-2.2
				C345.9,164.7,344.9,163.7,343.7,163.7"/>
		</g>
		<g>
			<path class="st42" d="M343.7,147.9c-1.2,0-2.2,1-2.2,2.1c0,1.2,1,2.2,2.2,2.2c1.2,0,2.2-0.9,2.2-2.2
				C345.9,148.9,344.9,147.9,343.7,147.9"/>
		</g>
		<g>
			<path class="st42" d="M342.2,151.7c-0.1,2.5,0.2,3.2,1.3,4.3c1.2,1.2,2.4,1.7,2.8,3.7c0.4,1.6-0.1,3.5-1.1,4.5"/>
		</g>
		<g>
			<path class="st42" d="M345.1,164.2c0.2-0.8,0-2.9-0.6-3.7c-0.9-1.2-2.7-2.1-3.3-4c-0.9-2.8,0.7-4.6,1.1-5"/>
		</g>
	</g>
</g>
<g>
	<g>
		<polyline class="st44" points="381.2,168.1 381.2,191.9 381.2,195.9 		"/>
	</g>
</g>
<g>
	<g>
		<polyline class="st44" points="381.2,147.9 381.2,144.1 381.2,82.4 		"/>
	</g>
</g>
<g>
	<g>
		<line class="st44" x1="381.2" y1="204.5" x2="381.2" y2="196.2"/>
	</g>
	<g>
		<path class="st25" d="M381.3,207.5c-1.7,0-3-1.4-3-3c0-1.8,1.4-3.2,3-3.2c1.8,0,3.2,1.4,3.2,3.2
			C384.4,206.1,383.1,207.5,381.3,207.5z"/>
		<path d="M381.3,208.2c-2,0-3.7-1.6-3.7-3.7c0-2.2,1.7-3.8,3.7-3.8v1.1c-1.4,0-2.5,1.1-2.5,2.7c0,1.4,1.1,2.5,2.5,2.5V208.2
			L381.3,208.2z M381.3,200.7v1.1c1.5,0,2.7,1.1,2.7,2.7c0,1.4-1.1,2.5-2.7,2.5v1.1c2.2,0,3.8-1.6,3.8-3.7
			C385.1,202.3,383.4,200.7,381.3,200.7z"/>
	</g>
	<rect x="377.1" y="200.3" class="st25" width="8.5" height="4.1"/>
	<rect x="380.6" y="201.2" width="1" height="4.2"/>
	<rect x="380.6" y="201.2" class="st26" width="1" height="4.2"/>
</g>
<g>
	<g>
		<line class="st44" x1="381.5" y1="516.3" x2="381.5" y2="524.5"/>
	</g>
	<g>
		<path class="st25" d="M381.4,513.3c1.7,0,3,1.4,3,3c0,1.8-1.4,3.2-3,3.2c-1.8,0-3.2-1.4-3.2-3.2
			C378.2,514.6,379.6,513.3,381.4,513.3z"/>
		<path d="M381.4,512.6c2,0,3.7,1.7,3.7,3.7c0,2.2-1.7,3.8-3.7,3.8V519c1.4,0,2.5-1.1,2.5-2.7c0-1.4-1.1-2.5-2.5-2.5V512.6
			L381.4,512.6z M381.4,520.1V519c-1.5,0-2.7-1.1-2.7-2.7c0-1.4,1.1-2.5,2.7-2.5v-1.1c-2.2,0-3.8,1.7-3.8,3.7
			C377.6,518.5,379.2,520.1,381.4,520.1z"/>
	</g>
	<rect x="377.1" y="516.4" class="st25" width="8.5" height="4.1"/>
	<rect x="381" y="515.4" width="1" height="4.2"/>
	<rect x="381" y="515.4" class="st26" width="1" height="4.2"/>
</g>
<rect x="368.9" y="274" class="st25" width="25.5" height="6"/>
<g>
	<text transform="matrix(1 0 0 1 366.7078 279.1065)" class="st3 st4">R/W 0.35</text>
</g>
<g>
	<path class="st45" d="M378,82.1c0-1.7,1.3-2.9,2.8-2.9c1.6,0,2.9,1.2,2.9,2.9c0,1.5-1.3,2.7-2.9,2.7C379.3,84.8,378,83.6,378,82.1z
		"/>
	<g>
		<path class="st46" d="M378,82.1c0-1.7,1.3-2.9,2.8-2.9c1.6,0,2.9,1.2,2.9,2.9c0,1.5-1.3,2.7-2.9,2.7C379.3,84.8,378,83.6,378,82.1
			"/>
	</g>
</g>
<g>
	<g>
		<polyline class="st44" points="343.9,147.9 343.9,144.1 343.9,49 		"/>
	</g>
</g>
<g>
	<path class="st45" d="M340.8,48.7c0-1.7,1.3-2.9,2.8-2.9c1.6,0,2.9,1.2,2.9,2.9c0,1.5-1.3,2.7-2.9,2.7
		C342.1,51.5,340.8,50.2,340.8,48.7z"/>
	<g>
		<path class="st46" d="M340.8,48.7c0-1.7,1.3-2.9,2.8-2.9c1.6,0,2.9,1.2,2.9,2.9c0,1.5-1.3,2.7-2.9,2.7
			C342.1,51.5,340.8,50.2,340.8,48.7"/>
	</g>
</g>
<rect x="361.8" y="493.6" class="st25" width="25.7" height="6"/>
<rect x="361.8" y="493.6" class="st25" width="25.5" height="6"/>
<g>
	<text transform="matrix(1 0 0 1 366.7078 498.4891)" class="st3 st4">R/W 0.35</text>
</g>
<g>
	<g>
		<text transform="matrix(1 0 0 1 385.5115 162.0314)" class="st3 st4">7.5A</text>
	</g>
</g>
<g>
	<g>
		<line class="st44" x1="280.8" y1="204.2" x2="280.8" y2="196"/>
	</g>
	<g>
		<path class="st25" d="M280.9,207.3c-1.7,0-3-1.4-3-3c0-1.8,1.4-3.2,3-3.2c1.8,0,3.2,1.4,3.2,3.2
			C284.1,205.9,282.7,207.3,280.9,207.3z"/>
		<path d="M280.9,207.9c-2,0-3.7-1.6-3.7-3.7c0-2.2,1.7-3.8,3.7-3.8v1.1c-1.4,0-2.5,1.1-2.5,2.7c0,1.4,1.1,2.5,2.5,2.5V207.9
			L280.9,207.9z M280.9,200.4v1.1c1.5,0,2.7,1.1,2.7,2.7c0,1.4-1.1,2.5-2.7,2.5v1.1c2.2,0,3.8-1.6,3.8-3.7
			C284.7,202.1,283.1,200.4,280.9,200.4z"/>
	</g>
	<rect x="276.7" y="200" class="st25" width="8.5" height="4.1"/>
	<rect x="280.3" y="200.9" width="1" height="4.2"/>
	<rect x="280.3" y="200.9" class="st26" width="1" height="4.2"/>
</g>
<g>
	<g>
		<line class="st44" x1="281.1" y1="516" x2="281.1" y2="524.3"/>
	</g>
	<g>
		<path class="st25" d="M281,513c1.7,0,3,1.4,3,3c0,1.8-1.4,3.2-3,3.2c-1.8,0-3.2-1.4-3.2-3.2C277.9,514.4,279.3,513,281,513z"/>
		<path d="M281,512.4c2,0,3.7,1.7,3.7,3.7c0,2.2-1.7,3.8-3.7,3.8v-1.1c1.4,0,2.5-1.1,2.5-2.7c0-1.4-1.1-2.5-2.5-2.5V512.4L281,512.4
			z M281,519.9v-1.1c-1.5,0-2.7-1.1-2.7-2.7c0-1.4,1.1-2.5,2.7-2.5v-1.1c-2.2,0-3.8,1.7-3.8,3.7C277.2,518.2,278.9,519.9,281,519.9z
			"/>
	</g>
	<rect x="276.7" y="516.2" class="st25" width="8.5" height="4.1"/>
	<rect x="280.7" y="515.2" width="1" height="4.2"/>
	<rect x="280.7" y="515.2" class="st26" width="1" height="4.2"/>
</g>
<rect x="274.7" y="274.3" class="st25" width="12.5" height="6"/>
<g>
	<text transform="matrix(1 0 0 1 266.7751 279.1065)" class="st3 st4">B/R 0.75</text>
</g>
<rect x="224.8" y="274.3" class="st25" width="12.5" height="6"/>
<g>
	<text transform="matrix(1 0 0 1 220.6904 279.1065)" class="st3 st4">B 0.35</text>
</g>
<rect x="188.1" y="274.3" class="st25" width="12.5" height="6"/>
<g>
	<text transform="matrix(1 0 0 1 182.4962 279.1065)" class="st3 st4">R/Gr 0.5</text>
</g>
<rect x="148.4" y="274.3" class="st25" width="12.5" height="6"/>
<g>
	<text transform="matrix(1 0 0 1 142.7314 279.1065)" class="st3 st4">R/Gr 0.5</text>
</g>
<rect x="274.7" y="493.3" class="st25" width="12.5" height="6"/>
<g>
	<text transform="matrix(1 0 0 1 266.7751 498.0547)" class="st3 st4">B/R 0.75</text>
</g>
<g>
	<text transform="matrix(1 0 0 1 385.3079 155.4133)" class="st36 st3 st4">F1/12</text>
</g>
<g id="RF22_x2C_A3_1_">
	<g>
		<g>
			<path class="st42" d="M155.7,163.7c-1.2,0-2.2,1-2.2,2.2c0,1.2,1,2.2,2.2,2.2c1.2,0,2.2-1,2.2-2.2
				C158,164.7,157,163.7,155.7,163.7"/>
		</g>
		<g>
			<path class="st42" d="M155.7,147.9c-1.2,0-2.2,1-2.2,2.1c0,1.2,1,2.2,2.2,2.2c1.2,0,2.2-0.9,2.2-2.2
				C158,148.9,157,147.9,155.7,147.9"/>
		</g>
		<g>
			<path class="st42" d="M154.3,151.7c-0.1,2.5,0.2,3.2,1.3,4.3c1.2,1.2,2.4,1.7,2.8,3.7c0.4,1.6-0.1,3.5-1.1,4.5"/>
		</g>
		<g>
			<path class="st42" d="M157.2,164.2c0.2-0.8,0-2.9-0.6-3.7c-0.9-1.2-2.7-2.1-3.3-4c-0.9-2.8,0.7-4.6,1.1-5"/>
		</g>
	</g>
</g>
<g>
	<g>
		<polyline class="st44" points="155.7,168.1 155.7,191.9 155.7,195.9 		"/>
	</g>
</g>
<g>
	<g>
		<polyline class="st44" points="155.7,147.9 155.7,144.1 155.7,70.7 		"/>
	</g>
</g>
<g>
	<path class="st45" d="M152.6,70.4c0-1.7,1.3-2.9,2.8-2.9c1.6,0,2.9,1.2,2.9,2.9c0,1.5-1.3,2.7-2.9,2.7
		C153.9,73.2,152.6,71.9,152.6,70.4z"/>
	<g>
		<path class="st46" d="M152.6,70.4c0-1.7,1.3-2.9,2.8-2.9c1.6,0,2.9,1.2,2.9,2.9c0,1.5-1.3,2.7-2.9,2.7
			C153.9,73.2,152.6,71.9,152.6,70.4"/>
	</g>
</g>
<g>
	<g>
		<text transform="matrix(1 0 0 1 160.1064 162.0314)" class="st3 st4">10A</text>
	</g>
</g>
<g>
	<text transform="matrix(1 0 0 1 159.9028 155.4133)" class="st36 st3 st4">F1/25</text>
</g>
<g>
	<g>
		<text transform="matrix(1 0 0 1 347.738 162.0314)" class="st3 st4">15A</text>
	</g>
</g>
<g>
	<text transform="matrix(1 0 0 1 347.5344 155.4133)" class="st36 st3 st4">F1/31</text>
</g>
<g>
	<text transform="matrix(1 0 0 1 385.459 203.2332)" class="st36 st3 st4">B1D</text>
</g>
<g>
	<text transform="matrix(1 0 0 1 397.959 202.9832)" class="st36 st3 st4">-9</text>
</g>
<g>
	<text transform="matrix(1 0 0 1 386.8018 521.6785)" class="st36 st3 st4">BG64(B)</text>
</g>
<g>
	<text transform="matrix(1 0 0 1 411.7715 521.4285)" class="st36 st3 st4">-48</text>
</g>
<g>
	<text transform="matrix(1 0 0 1 285.0879 202.9832)" class="st36 st3 st4">B1C</text>
</g>
<g>
	<text transform="matrix(1 0 0 1 297.5879 202.9832)" class="st36 st3 st4">-5</text>
</g>
<g>
	<g>
		<line class="st44" x1="230.7" y1="204.2" x2="230.7" y2="196"/>
	</g>
	<g>
		<path class="st25" d="M230.8,207.3c-1.7,0-3-1.4-3-3c0-1.8,1.4-3.2,3-3.2c1.8,0,3.2,1.4,3.2,3.2
			C234,205.9,232.6,207.3,230.8,207.3z"/>
		<path d="M230.8,207.9c-2,0-3.7-1.6-3.7-3.7c0-2.2,1.7-3.8,3.7-3.8v1.1c-1.4,0-2.5,1.1-2.5,2.7c0,1.4,1.1,2.5,2.5,2.5V207.9
			L230.8,207.9z M230.8,200.4v1.1c1.5,0,2.7,1.1,2.7,2.7c0,1.4-1.1,2.5-2.7,2.5v1.1c2.2,0,3.8-1.6,3.8-3.7
			C234.6,202.1,232.9,200.4,230.8,200.4z"/>
	</g>
	<rect x="226.6" y="200" class="st25" width="8.5" height="4.1"/>
	<rect x="230.1" y="200.9" width="1" height="4.2"/>
	<rect x="230.1" y="200.9" class="st26" width="1" height="4.2"/>
</g>
<g>
	<text transform="matrix(1 0 0 1 234.9629 202.9832)" class="st36 st3 st4">B1C</text>
</g>
<g>
	<text transform="matrix(1 0 0 1 247.4629 202.9832)" class="st36 st3 st4">-21</text>
</g>
<g>
	<g>
		<line class="st44" x1="194.1" y1="204.2" x2="194.1" y2="196"/>
	</g>
	<g>
		<path class="st25" d="M194.2,207.3c-1.7,0-3-1.4-3-3c0-1.8,1.4-3.2,3-3.2c1.8,0,3.2,1.4,3.2,3.2
			C197.3,205.9,195.9,207.3,194.2,207.3z"/>
		<path d="M194.2,207.9c-2,0-3.7-1.6-3.7-3.7c0-2.2,1.7-3.8,3.7-3.8v1.1c-1.4,0-2.5,1.1-2.5,2.7c0,1.4,1.1,2.5,2.5,2.5V207.9
			L194.2,207.9z M194.2,200.4v1.1c1.5,0,2.7,1.1,2.7,2.7c0,1.4-1.1,2.5-2.7,2.5v1.1c2.2,0,3.8-1.6,3.8-3.7
			C198,202.1,196.3,200.4,194.2,200.4z"/>
	</g>
	<rect x="190" y="200" class="st25" width="8.5" height="4.1"/>
	<rect x="193.5" y="200.9" width="1" height="4.2"/>
	<rect x="193.5" y="200.9" class="st26" width="1" height="4.2"/>
</g>
<g>
	<text transform="matrix(1 0 0 1 198.3379 202.9832)" class="st36 st3 st4">B1C</text>
</g>
<g>
	<text transform="matrix(1 0 0 1 210.8379 202.9832)" class="st36 st3 st4">-14</text>
</g>
<g>
	<g>
		<line class="st44" x1="155.9" y1="204.2" x2="155.9" y2="196"/>
	</g>
	<g>
		<path class="st25" d="M156,207.3c-1.7,0-3-1.4-3-3c0-1.8,1.4-3.2,3-3.2c1.8,0,3.2,1.4,3.2,3.2C159.2,205.9,157.8,207.3,156,207.3z
			"/>
		<path d="M156,207.9c-2,0-3.7-1.6-3.7-3.7c0-2.2,1.7-3.8,3.7-3.8v1.1c-1.4,0-2.5,1.1-2.5,2.7c0,1.4,1.1,2.5,2.5,2.5V207.9
			L156,207.9z M156,200.4v1.1c1.5,0,2.7,1.1,2.7,2.7c0,1.4-1.1,2.5-2.7,2.5v1.1c2.2,0,3.8-1.6,3.8-3.7
			C159.8,202.1,158.1,200.4,156,200.4z"/>
	</g>
	<rect x="151.8" y="200" class="st25" width="8.5" height="4.1"/>
	<rect x="155.4" y="200.9" width="1" height="4.2"/>
	<rect x="155.4" y="200.9" class="st26" width="1" height="4.2"/>
</g>
<g>
	<text transform="matrix(1 0 0 1 160.1709 202.9832)" class="st36 st3 st4">B1C</text>
</g>
<g>
	<text transform="matrix(1 0 0 1 172.6709 202.9832)" class="st36 st3 st4">-33</text>
</g>
<g>
	<text transform="matrix(1 0 0 1 286.4307 521.4285)" class="st36 st3 st4">BG64(B)</text>
</g>
<g>
	<text transform="matrix(1 0 0 1 311.4004 521.4285)" class="st36 st3 st4">-47</text>
</g>
<rect x="206.4" y="146.4" class="st50" width="91.3" height="38.8"/>
<g>
	<line class="st51" x1="284.5" y1="171.8" x2="279.2" y2="161.3"/>
</g>
<g>
	<line class="st52" x1="218.2" y1="166.2" x2="280.2" y2="166.1"/>
</g>
<path class="st25" d="M280.3,160.1c0-0.6-0.5-1.2-1.2-1.2c-0.6,0-1.2,0.5-1.2,1.2c0,0.6,0.5,1.2,1.2,1.2S280.3,160.8,280.3,160.1z"
	/>
<g>
	<path class="st53" d="M280.3,160.1c0-0.6-0.5-1.2-1.2-1.2c-0.6,0-1.2,0.5-1.2,1.2c0,0.6,0.5,1.2,1.2,1.2S280.3,160.8,280.3,160.1"
		/>
</g>
<g>
	<polyline class="st54" points="230.8,196 230.8,172.3 230.8,166.2 230.8,137.7 230.8,126.5 194.1,126.5 194.1,195.9 	"/>
</g>
<path class="st25" d="M282.2,171.8c0-0.6-0.5-1.2-1.2-1.2c-0.6,0-1.2,0.5-1.2,1.2c0,0.6,0.5,1.1,1.2,1.1
	C281.7,172.9,282.2,172.4,282.2,171.8z"/>
<g>
	<path class="st53" d="M282.2,171.8c0-0.6-0.5-1.2-1.2-1.2c-0.6,0-1.2,0.5-1.2,1.2c0,0.6,0.5,1.1,1.2,1.1
		C281.7,172.9,282.2,172.4,282.2,171.8"/>
</g>
<rect x="223.4" y="163.2" class="st55" width="14.2" height="5.7"/>
<g>
	<rect x="214.3" y="161.6" class="st56" width="4" height="8.5"/>
	<g>
		<polyline class="st54" points="216.3,170.3 216.3,177.3 229.6,177.3 		"/>
	</g>
	<g>
		<polyline class="st54" points="216.3,161.5 216.3,155.1 230.5,155.1 		"/>
	</g>
</g>
<g>
	<line class="st56" x1="233.1" y1="163.2" x2="228.3" y2="169.1"/>
</g>
<polyline class="st54" points="279.2,126.5 279.2,155.3 279.2,158.8 "/>
<polyline class="st54" points="281,173.2 281,193.8 281,196.2 "/>
<g>
	<text transform="matrix(1 0 0 1 302.5157 162.4907)" class="st3 st4">IG3-2</text>
	<text transform="matrix(1 0 0 1 302.5157 170.5491)" class="st3 st4">Relay </text>
</g>
<g>
	<path class="st57" d="M230.7,156.9c-1,0-1.7-0.8-1.7-1.7c0-1,0.7-1.8,1.7-1.8c0.9,0,1.7,0.8,1.7,1.8
		C232.4,156.1,231.6,156.9,230.7,156.9z"/>
	<g>
		<path class="st58" d="M230.7,156.9c-1,0-1.7-0.8-1.7-1.7c0-1,0.7-1.8,1.7-1.8c0.9,0,1.7,0.8,1.7,1.8
			C232.4,156.1,231.6,156.9,230.7,156.9"/>
	</g>
</g>
<g>
	<path class="st57" d="M230.7,179c-1,0-1.7-0.8-1.7-1.7c0-1,0.7-1.8,1.7-1.8c0.9,0,1.7,0.8,1.7,1.8C232.4,178.2,231.6,179,230.7,179
		z"/>
	<g>
		<path class="st58" d="M230.7,179c-1,0-1.7-0.8-1.7-1.7c0-1,0.7-1.8,1.7-1.8c0.9,0,1.7,0.8,1.7,1.8
			C232.4,178.2,231.6,179,230.7,179"/>
	</g>
</g>
<polyline class="st54" points="279.3,126.4 325.9,126.4 325.9,189.3 343.6,189.3 343.6,168.1 "/>
<g>
	<g>
		<text transform="matrix(1 0 0 1 390.5254 115.1298)" class="st59 st3 st4">Front Compartment Distribution Box</text>
	</g>
	<g>
		<text transform="matrix(1 0 0 1 390.5254 122.3298)" class="st59 st3 st4">  </text>
	</g>
</g>
<g>
	<g>
		<text transform="matrix(1 0 0 1 531.2128 147.7292)" class="st59 st3 st4">Instrument Distribution Box</text>
	</g>
	<g>
		<text transform="matrix(1 0 0 1 531.2128 154.9291)" class="st59 st3 st4">  </text>
	</g>
</g>
<g>
	<text transform="matrix(1 0 0 1 600.8857 173.1865)" class="st60 st3 st4">See Energy Network Circuit Diagram</text>
</g>
<g>
	<text transform="matrix(1 0 0 1 539.2083 807.3167)" class="st60 st3 st4">See Energy Network Circuit Diagram</text>
</g>
<g id="保险丝名称_12_">
	<text transform="matrix(1 0 0 1 77.0418 529.0969)" class="st60 st3 st35">Constant power</text>
</g>
<g id="保险丝名称_7_">
	<text transform="matrix(1 0 0 1 374.5602 530.667)" class="st60 st3 st35">IG4 Power supply</text>
</g>
<g id="保险丝名称_5_">
	<text transform="matrix(1 0 0 1 175.0728 555.0794)" class="st60 st3 st35">Power ground</text>
</g>
<g id="保险丝名称_3_">
	<text transform="matrix(1 0 0 1 373.0719 554.5101)" class="st60 st3 st35">Power ground</text>
</g>
<g id="保险丝名称_4_">
	<text transform="matrix(1 0 0 1 269.6619 530.6679)" class="st60 st3 st35">IG3 Power supply</text>
</g>
<g id="保险丝名称_6_">
	<text transform="matrix(1 0 0 1 606.0061 530.667)" class="st60 st3 st35">AVH Signal</text>
</g>
<g id="保险丝名称_8_">
	<text transform="matrix(1 0 0 1 490.2088 530.6676)" class="st60 st3 st35">Start signal button 1</text>
</g>
<g id="保险丝名称_9_">
	<text transform="matrix(1 0 0 1 545.5222 530.6673)" class="st60 st3 st35">Start signal button  2</text>
</g>
<g id="保险丝名称_1_">
	<text transform="matrix(1 0 0 1 296.7641 554.3698)" class="st60 st3 st35">Signal ground</text>
</g>
<g id="保险丝名称_2_">
	<text transform="matrix(1 0 0 1 231.8156 555.0794)" class="st60 st3 st35">Power ground</text>
</g>
<g>
	<g id="FB103_39_">
		<g>
			<g id="FB103_16_">
				<text transform="matrix(1 0 0 1 314.9675 544.6035)" class="st59 st3 st4">Left Body Controller</text>
			</g>
		</g>
	</g>
</g>
<g id="保险丝名称_36_">
	<text transform="matrix(1 0 0 1 669.6226 335.6368)" class="st60 st3 st35">Ground</text>
</g>
<g id="保险丝名称_18_">
	<text transform="matrix(1 0 0 1 1400.6722 335.6368)" class="st60 st3 st35">Backlight driver</text>
</g>
<g id="保险丝名称_19_">
	<text transform="matrix(1 0 0 1 1349.98 335.6368)" class="st60 st3 st35">Ground</text>
</g>
<g id="保险丝名称_22_">
	<text transform="matrix(1 0 0 1 1172.448 335.6368)" class="st60 st3 st35">P Gear signal acquisition</text>
</g>
<g id="保险丝名称_23_">
	<text transform="matrix(1 0 0 1 1110.0908 335.6368)" class="st60 st3 st35">UNLOCK Signal acquisition</text>
</g>
<g id="保险丝名称_24_">
	<text transform="matrix(1 0 0 1 1056.9443 335.6368)" class="st60 st3 st35">D Gear indicator drive</text>
</g>
<g id="保险丝名称_25_">
	<text transform="matrix(1 0 0 1 1000.252 335.6368)" class="st60 st3 st35">N Gear indicator drive</text>
</g>
<g id="保险丝名称_26_">
	<text transform="matrix(1 0 0 1 943.5587 335.6368)" class="st60 st3 st35">R Gear indicator drive</text>
</g>
<g id="保险丝名称_27_">
	<text transform="matrix(1 0 0 1 886.9827 335.6368)" class="st60 st3 st35">P Gear indicator drive</text>
</g>
<g id="保险丝名称_29_">
	<text transform="matrix(1 0 0 1 773.8627 335.6368)" class="st60 st3 st35">Hall signal acquisition 2</text>
</g>
<g id="保险丝名称_28_">
	<text transform="matrix(1 0 0 1 830.525 335.6368)" class="st60 st3 st35">Hall signal acquisition 1</text>
</g>
<g id="保险丝名称_30_">
	<text transform="matrix(1 0 0 1 608.0703 336.6368)" class="st60 st3 st35">AVH Signal</text>
</g>
<g id="保险丝名称_31_">
	<text transform="matrix(1 0 0 1 546.7056 336.6368)" class="st60 st3 st35">Start signal button  2</text>
</g>
<g id="保险丝名称_32_">
	<text transform="matrix(1 0 0 1 489.9816 336.6368)" class="st60 st3 st35">Start signal button  1</text>
</g>
<g id="保险丝名称_10_">
	<text transform="matrix(1 0 0 1 494.2004 310.1868)" class="st60 st3 st35">Constant power</text>
</g>
<g id="保险丝名称_35_">
	<text transform="matrix(1 0 0 1 726.3151 335.6368)" class="st60 st3 st35">Ground</text>
</g>
<g>
	<g id="FB103_3_">
		<g>
			<g id="FB103_14_">
				<text transform="matrix(1 0 0 1 994.8419 324.0214)" class="st59 st3 st4">Shift Control Mechanism Panel</text>
			</g>
		</g>
	</g>
</g>
<g id="保险丝名称_39_">
	<text transform="matrix(1 0 0 1 1174.1631 710.135)" class="st60 st3 st35">P Gear signal acquisition</text>
</g>
<g id="保险丝名称_38_">
	<text transform="matrix(1 0 0 1 1111.8059 710.135)" class="st60 st3 st35">UNLOCK Signal acquisition</text>
</g>
<g id="保险丝名称_37_">
	<text transform="matrix(1 0 0 1 1058.6594 710.135)" class="st60 st3 st35">D Gear indicator drive</text>
</g>
<g id="保险丝名称_17_">
	<text transform="matrix(1 0 0 1 1001.9672 710.135)" class="st60 st3 st35">N Gear indicator drive</text>
</g>
<g id="保险丝名称_16_">
	<text transform="matrix(1 0 0 1 945.2738 710.135)" class="st60 st3 st35">R Gear indicator drive</text>
</g>
<g id="保险丝名称_15_">
	<text transform="matrix(1 0 0 1 888.6978 710.135)" class="st60 st3 st35">P Gear indicator drive</text>
</g>
<g id="保险丝名称_14_">
	<text transform="matrix(1 0 0 1 775.5779 710.135)" class="st60 st3 st35">Hall signal acquisition 2</text>
</g>
<g id="保险丝名称_13_">
	<text transform="matrix(1 0 0 1 832.24 710.135)" class="st60 st3 st35">Hall signal acquisition 1</text>
</g>
<g id="保险丝名称_41_">
	<text transform="matrix(1 0 0 1 1404.2871 710.1346)" class="st60 st3 st35">Backlight driver</text>
</g>
<g id="保险丝名称_40_">
	<text transform="matrix(1 0 0 1 1353.5948 710.1346)" class="st60 st3 st35">Ground</text>
</g>
<g>
	<g id="FB103_33_">
		<g>
			<g id="FB103_15_">
				<text transform="matrix(1 0 0 1 1081.8235 721.8483)" class="st59 st3 st4">Shift Control Mechanism Assembly</text>
			</g>
		</g>
	</g>
</g>
</svg>
