<?xml version="1.0" encoding="utf-8"?>
<!-- Generator: Adobe Illustrator 24.0.1, SVG Export Plug-In . SVG Version: 6.00 Build 0)  -->
<svg version="1.1" id="图层_1" xmlns="http://www.w3.org/2000/svg" xmlns:xlink="http://www.w3.org/1999/xlink" x="0px" y="0px"
	 viewBox="0 0 911 841.9" style="enable-background:new 0 0 911 841.9;" xml:space="preserve">
<style type="text/css">
	.st0{fill:none;stroke:#000000;stroke-width:3;stroke-linecap:round;stroke-miterlimit:10;}
	.st1{fill:#FFFFFF;stroke:#000000;stroke-width:0.5;stroke-miterlimit:10;}
	.st2{fill:#DCDDDD;}
	.st3{fill:none;stroke:#000000;}
	.st4{font-family:'FZLTHJW--GB1-0';}
	.st5{font-size:6px;}
	.st6{fill:none;stroke:#E60012;stroke-width:3;stroke-linecap:round;stroke-miterlimit:10;}
	.st7{fill:none;stroke:#FFF100;stroke-width:3;stroke-linecap:round;stroke-miterlimit:10;}
	.st8{fill:none;stroke:#000000;stroke-linecap:round;stroke-miterlimit:10;}
	.st9{fill:none;stroke:#005EAD;stroke-linecap:round;stroke-miterlimit:10;}
	.st10{fill:none;stroke:#E60012;stroke-linecap:round;stroke-miterlimit:10;}
	.st11{fill:none;stroke:#005EAD;stroke-width:3;stroke-linecap:round;stroke-miterlimit:10;}
	.st12{fill:none;stroke:#FFFFFF;stroke-linecap:round;stroke-miterlimit:10;}
	.st13{fill:none;stroke:#009944;stroke-linecap:round;stroke-miterlimit:10;}
	.st14{fill:none;stroke:#FFF100;stroke-linecap:round;stroke-miterlimit:10;}
	.st15{fill:#FFFFFF;}
	.st16{fill:none;stroke:#000000;stroke-width:0.6;stroke-linecap:round;stroke-linejoin:round;}
	.st17{fill:none;stroke:#000000;stroke-width:0.72;stroke-linecap:round;stroke-linejoin:round;}
	.st18{font-size:4px;}
	.st19{fill:#9FD9F6;stroke:#000000;stroke-width:0.5;stroke-linecap:round;stroke-miterlimit:10;}
	.st20{fill:#040000;}
	.st21{fill:#005EAD;}
	.st22{fill:none;stroke:#005EAD;stroke-width:3;stroke-miterlimit:10;}
	.st23{fill:none;stroke:#009944;stroke-width:3;stroke-miterlimit:10;}
	.st24{fill:none;stroke:#898989;stroke-width:3;stroke-miterlimit:10;}
	.st25{fill:none;stroke:#000000;stroke-width:3;stroke-miterlimit:10;}
	.st26{fill:none;stroke:#F29C97;stroke-width:3;stroke-linecap:round;stroke-miterlimit:10;}
	.st27{fill:none;stroke:#89438F;stroke-width:3;stroke-linecap:round;stroke-miterlimit:10;}
	.st28{fill:none;stroke:#000000;stroke-width:0.5;stroke-miterlimit:10;}
	.st29{fill:none;stroke:#000000;stroke-width:0.5;stroke-linecap:round;stroke-linejoin:round;}
	.st30{fill:#FFFFFF;stroke:#000000;stroke-width:0.25;}
	.st31{stroke:#FFFFFF;stroke-width:0.5;}
	.st32{fill:none;stroke:#000000;stroke-width:1.3;}
	.st33{fill:#FFFFFF;stroke:#000000;stroke-width:0.25;stroke-linecap:round;stroke-linejoin:round;}
	.st34{fill:none;stroke:#000000;stroke-miterlimit:10;}
	.st35{fill:none;stroke:#F6AE6A;stroke-width:3;stroke-miterlimit:10;}
	.st36{fill:none;stroke:#FFFFFF;stroke-miterlimit:10;}
	.st37{fill:none;stroke:#E60012;stroke-width:3;stroke-miterlimit:10;}
	.st38{fill:none;stroke:#FFF100;stroke-miterlimit:10;}
	.st39{fill:#DCDDDD;stroke:#000000;stroke-width:0.5;stroke-linecap:round;stroke-miterlimit:10;}
	.st40{fill:none;stroke:#040000;stroke-width:0.75;}
	.st41{stroke:#FFFFFF;stroke-width:0.5;stroke-linecap:round;}
	.st42{fill:none;stroke:#FFFFFF;stroke-width:1.0001;}
	.st43{fill:#231815;}
	.st44{fill:#105390;}
	.st45{fill:#065AA1;}
</style>
<g id="块体">
	<line class="st0" x1="784.2" y1="438.3" x2="784.2" y2="687.9"/>
	<g>
		<path class="st1" d="M722.9,689.4c-0.8,0-1.5-0.7-1.5-1.5V438.3c0-0.8,0.7-1.5,1.5-1.5s1.5,0.7,1.5,1.5v249.6
			C724.4,688.7,723.7,689.4,722.9,689.4z"/>
	</g>
	<g>
		<polyline class="st2" points="34.3,41.9 855.7,41.9 855.7,97.5 34.3,97.5 		"/>
		<g>
			<line class="st3" x1="34.3" y1="47.6" x2="855.7" y2="47.6"/>
			<line class="st3" x1="34.3" y1="41.6" x2="855.7" y2="41.6"/>
			<line class="st3" x1="34.3" y1="58.8" x2="855.7" y2="58.8"/>
			<line class="st3" x1="34.3" y1="69.9" x2="855.7" y2="69.9"/>
			<line class="st3" x1="34.3" y1="81.1" x2="855.5" y2="81.1"/>
			<line class="st3" x1="34.3" y1="92.3" x2="855.7" y2="92.3"/>
			<line class="st3" x1="34.3" y1="97.5" x2="855.7" y2="97.5"/>
		</g>
		<text transform="matrix(1 0 0 1 859.8374 49.6299)" class="st4 st5">30</text>
		<text transform="matrix(1 0 0 1 859.8374 60.7959)" class="st4 st5">IG1</text>
		<text transform="matrix(1 0 0 1 859.8374 72.4209)" class="st4 st5">IG3</text>
		<text transform="matrix(1 0 0 1 859.8374 83.9248)" class="st4 st5">IG4</text>
		<text transform="matrix(1 0 0 1 859.8379 94.3415)" class="st4 st5">ACC</text>
		<g>
			<text transform="matrix(1 0 0 1 23.8923 49.7121)" class="st4 st5">30</text>
			<text transform="matrix(1 0 0 1 20.7283 60.8779)" class="st4 st5">IG1</text>
			<text transform="matrix(1 0 0 1 20.7751 72.5029)" class="st4 st5">IG3</text>
			<text transform="matrix(1 0 0 1 20.6814 84.0029)" class="st4 st5">IG4</text>
			<text transform="matrix(1 0 0 1 17.1892 93.8362)" class="st4 st5">ACC</text>
		</g>
	</g>
	<line class="st6" x1="356.1" y1="438.3" x2="356.1" y2="684.9"/>
	<line class="st7" x1="478.1" y1="438.3" x2="478.1" y2="687.9"/>
	<line class="st6" x1="539" y1="438.3" x2="539" y2="687.9"/>
	<line class="st8" x1="539" y1="438.3" x2="539" y2="687.9"/>
	<line class="st6" x1="662.6" y1="438.3" x2="662.6" y2="687.9"/>
	<line class="st9" x1="662.6" y1="438.3" x2="662.6" y2="687.9"/>
	<line class="st9" x1="784.2" y1="438.3" x2="784.2" y2="687.9"/>
	<line class="st10" x1="722.9" y1="438.3" x2="722.9" y2="687.9"/>
	<g>
		<path class="st1" d="M601.8,689.4c-0.8,0-1.5-0.7-1.5-1.5V438.3c0-0.8,0.7-1.5,1.5-1.5s1.5,0.7,1.5,1.5v249.6
			C603.3,688.7,602.7,689.4,601.8,689.4z"/>
	</g>
	<line class="st11" x1="235.4" y1="438.3" x2="235.4" y2="687.9"/>
	<line class="st12" x1="235.4" y1="438.3" x2="235.4" y2="687.9"/>
	<g>
		<path class="st1" d="M295.9,689.4c-0.8,0-1.5-0.7-1.5-1.5V438.3c0-0.8,0.7-1.5,1.5-1.5s1.5,0.7,1.5,1.5v249.6
			C297.4,688.7,296.8,689.4,295.9,689.4z"/>
	</g>
	<line class="st13" x1="295.9" y1="438.3" x2="295.9" y2="687.9"/>
	<line class="st11" x1="417" y1="438.3" x2="417" y2="687.9"/>
	<line class="st14" x1="417" y1="438.3" x2="417" y2="687.9"/>
	<g>
		<rect x="535.7" y="466.3" class="st15" width="12.3" height="6"/>
		<text transform="matrix(1 0 0 1 527.043 471.2339)" class="st4 st5">R/B 1.0</text>
	</g>
	<g>
		<g>
			<line class="st16" x1="539" y1="435.3" x2="539" y2="427"/>
		</g>
		<g>
			<path class="st15" d="M538.9,438.3c1.7,0,3-1.4,3-3c0-1.8-1.4-3.2-3-3.2c-1.8,0-3.2,1.4-3.2,3.2
				C535.8,436.9,537.2,438.3,538.9,438.3z"/>
			<path d="M538.9,439v-1.1c1.4,0,2.5-1.1,2.5-2.5c0-1.5-1.1-2.7-2.5-2.7v-1.1c2,0,3.7,1.7,3.7,3.8C542.6,437.3,541,439,538.9,439
				L538.9,439z M535.1,435.3c0,2,1.6,3.7,3.8,3.7v-1.1c-1.5,0-2.7-1.1-2.7-2.5c0-1.5,1.1-2.7,2.7-2.7v-1.1
				C536.8,431.5,535.1,433.1,535.1,435.3z"/>
		</g>
		<rect x="534.6" y="431.1" class="st15" width="8.5" height="4.1"/>
		<rect x="538.6" y="432" width="1" height="4.2"/>
		<rect x="538.6" y="432" class="st17" width="1" height="4.2"/>
	</g>
	<g>
		<g>
			<line class="st16" x1="539.2" y1="687.9" x2="539.2" y2="696.2"/>
		</g>
		<g>
			<path class="st15" d="M539.1,684.9c1.7,0,3,1.4,3,3c0,1.8-1.4,3.2-3,3.2c-1.8,0-3.2-1.4-3.2-3.2
				C535.9,686.3,537.3,684.9,539.1,684.9z"/>
			<path d="M539.1,684.2c2,0,3.7,1.7,3.7,3.7c0,2.2-1.7,3.8-3.7,3.8v-1.1c1.4,0,2.5-1.1,2.5-2.7c0-1.4-1.1-2.5-2.5-2.5V684.2
				L539.1,684.2z M539.1,691.7v-1.1c-1.5,0-2.7-1.1-2.7-2.7c0-1.4,1.1-2.5,2.7-2.5v-1.1c-2.2,0-3.8,1.7-3.8,3.7
				C535.3,690.1,536.9,691.7,539.1,691.7z"/>
		</g>
		<rect x="534.8" y="688" class="st15" width="8.5" height="4.1"/>
		<rect x="538.7" y="687" width="1" height="4.2"/>
		<rect x="538.7" y="687" class="st17" width="1" height="4.2"/>
	</g>
	<g>
		<g>
			<line class="st16" x1="602" y1="687.9" x2="602" y2="696.2"/>
		</g>
		<g>
			<path class="st15" d="M601.9,684.9c1.7,0,3,1.4,3,3c0,1.8-1.4,3.2-3,3.2c-1.8,0-3.2-1.4-3.2-3.2
				C598.7,686.3,600.1,684.9,601.9,684.9z"/>
			<path d="M601.9,684.2c2,0,3.7,1.7,3.7,3.7c0,2.2-1.7,3.8-3.7,3.8v-1.1c1.4,0,2.5-1.1,2.5-2.7c0-1.4-1.1-2.5-2.5-2.5V684.2
				L601.9,684.2z M601.9,691.7v-1.1c-1.5,0-2.7-1.1-2.7-2.7c0-1.4,1.1-2.5,2.7-2.5v-1.1c-2.2,0-3.8,1.7-3.8,3.7
				C598.1,690.1,599.7,691.7,601.9,691.7z"/>
		</g>
		<rect x="597.6" y="688" class="st15" width="8.5" height="4.1"/>
		<rect x="601.5" y="687" width="1" height="4.2"/>
		<rect x="601.5" y="687" class="st17" width="1" height="4.2"/>
	</g>
	<g>
		<g>
			<line class="st16" x1="662.7" y1="687.9" x2="662.7" y2="696.2"/>
		</g>
		<g>
			<path class="st15" d="M662.6,684.9c1.7,0,3,1.4,3,3c0,1.8-1.4,3.2-3,3.2c-1.8,0-3.2-1.4-3.2-3.2
				C659.5,686.3,660.9,684.9,662.6,684.9z"/>
			<path d="M662.6,684.2c2,0,3.7,1.7,3.7,3.7c0,2.2-1.7,3.8-3.7,3.8v-1.1c1.4,0,2.5-1.1,2.5-2.7c0-1.4-1.1-2.5-2.5-2.5V684.2
				L662.6,684.2z M662.6,691.7v-1.1c-1.5,0-2.7-1.1-2.7-2.7c0-1.4,1.1-2.5,2.7-2.5v-1.1c-2.2,0-3.8,1.7-3.8,3.7
				C658.8,690.1,660.5,691.7,662.6,691.7z"/>
		</g>
		<rect x="658.3" y="688" class="st15" width="8.5" height="4.1"/>
		<rect x="662.3" y="687" width="1" height="4.2"/>
		<rect x="662.3" y="687" class="st17" width="1" height="4.2"/>
	</g>
	<g>
		<g>
			<line class="st16" x1="723.2" y1="687.9" x2="723.2" y2="696.2"/>
		</g>
		<g>
			<path class="st15" d="M723.1,684.9c1.7,0,3,1.4,3,3c0,1.8-1.4,3.2-3,3.2c-1.8,0-3.2-1.4-3.2-3.2
				C720,686.3,721.4,684.9,723.1,684.9z"/>
			<path d="M723.1,684.2c2,0,3.7,1.7,3.7,3.7c0,2.2-1.7,3.8-3.7,3.8v-1.1c1.4,0,2.5-1.1,2.5-2.7c0-1.4-1.1-2.5-2.5-2.5V684.2
				L723.1,684.2z M723.1,691.7v-1.1c-1.5,0-2.7-1.1-2.7-2.7c0-1.4,1.1-2.5,2.7-2.5v-1.1c-2.2,0-3.8,1.7-3.8,3.7
				C719.3,690.1,721,691.7,723.1,691.7z"/>
		</g>
		<rect x="718.8" y="688" class="st15" width="8.5" height="4.1"/>
		<rect x="722.8" y="687" width="1" height="4.2"/>
		<rect x="722.8" y="687" class="st17" width="1" height="4.2"/>
	</g>
	<g>
		<g>
			<line class="st16" x1="784.4" y1="687.9" x2="784.4" y2="696.2"/>
		</g>
		<g>
			<path class="st15" d="M784.3,684.9c1.7,0,3,1.4,3,3c0,1.8-1.4,3.2-3,3.2c-1.8,0-3.2-1.4-3.2-3.2
				C781.1,686.3,782.5,684.9,784.3,684.9z"/>
			<path d="M784.3,684.2c2,0,3.7,1.7,3.7,3.7c0,2.2-1.7,3.8-3.7,3.8v-1.1c1.4,0,2.5-1.1,2.5-2.7c0-1.4-1.1-2.5-2.5-2.5V684.2
				L784.3,684.2z M784.3,691.7v-1.1c-1.5,0-2.7-1.1-2.7-2.7c0-1.4,1.1-2.5,2.7-2.5v-1.1c-2.2,0-3.8,1.7-3.8,3.7
				C780.5,690.1,782.1,691.7,784.3,691.7z"/>
		</g>
		<rect x="780" y="688" class="st15" width="8.5" height="4.1"/>
		<rect x="783.9" y="687" width="1" height="4.2"/>
		<rect x="783.9" y="687" class="st17" width="1" height="4.2"/>
	</g>
	<g>
		<rect x="474.5" y="466.3" class="st15" width="12.3" height="6"/>
		<text transform="matrix(1 0 0 1 468.8062 471.2339)" class="st4 st5">Y 0.35</text>
	</g>
	<g>
		<g>
			<line class="st16" x1="478.3" y1="435.3" x2="478.3" y2="427"/>
		</g>
		<g>
			<path class="st15" d="M478.2,438.3c1.7,0,3-1.4,3-3c0-1.8-1.4-3.2-3-3.2c-1.8,0-3.2,1.4-3.2,3.2
				C475,436.9,476.4,438.3,478.2,438.3z"/>
			<path d="M478.2,439v-1.1c1.4,0,2.5-1.1,2.5-2.5c0-1.5-1.1-2.7-2.5-2.7v-1.1c2,0,3.7,1.7,3.7,3.8C481.9,437.3,480.2,439,478.2,439
				L478.2,439z M474.4,435.3c0,2,1.6,3.7,3.8,3.7v-1.1c-1.5,0-2.7-1.1-2.7-2.5c0-1.5,1.1-2.7,2.7-2.7v-1.1
				C476.1,431.5,474.4,433.1,474.4,435.3z"/>
		</g>
		<rect x="473.9" y="431.1" class="st15" width="8.5" height="4.1"/>
		<rect x="477.8" y="432" width="1" height="4.2"/>
		<rect x="477.8" y="432" class="st17" width="1" height="4.2"/>
	</g>
	<g>
		<g>
			<line class="st16" x1="478.3" y1="687.9" x2="478.3" y2="696.2"/>
		</g>
		<g>
			<path class="st15" d="M478.2,684.9c1.7,0,3,1.4,3,3c0,1.8-1.4,3.2-3,3.2c-1.8,0-3.2-1.4-3.2-3.2
				C475,686.3,476.4,684.9,478.2,684.9z"/>
			<path d="M478.2,684.2c2,0,3.7,1.7,3.7,3.7c0,2.2-1.7,3.8-3.7,3.8v-1.1c1.4,0,2.5-1.1,2.5-2.7c0-1.4-1.1-2.5-2.5-2.5V684.2
				L478.2,684.2z M478.2,691.7v-1.1c-1.5,0-2.7-1.1-2.7-2.7c0-1.4,1.1-2.5,2.7-2.5v-1.1c-2.2,0-3.8,1.7-3.8,3.7
				C474.4,690.1,476.1,691.7,478.2,691.7z"/>
		</g>
		<rect x="473.9" y="688" class="st15" width="8.5" height="4.1"/>
		<rect x="477.8" y="687" width="1" height="4.2"/>
		<rect x="477.8" y="687" class="st17" width="1" height="4.2"/>
	</g>
	<g>
		<rect x="411.9" y="466.3" class="st15" width="12.3" height="6"/>
		<text transform="matrix(1 0 0 1 406.1935 471.2339)" class="st4 st5">L/Y 0.22</text>
	</g>
	<g>
		<g>
			<line class="st16" x1="417.2" y1="435.3" x2="417.2" y2="427"/>
		</g>
		<g>
			<path class="st15" d="M417.1,438.3c1.7,0,3-1.4,3-3c0-1.8-1.4-3.2-3-3.2c-1.8,0-3.2,1.4-3.2,3.2
				C413.9,436.9,415.3,438.3,417.1,438.3z"/>
			<path d="M417.1,439v-1.1c1.4,0,2.5-1.1,2.5-2.5c0-1.5-1.1-2.7-2.5-2.7v-1.1c2,0,3.7,1.7,3.7,3.8C420.8,437.3,419.1,439,417.1,439
				L417.1,439z M413.3,435.3c0,2,1.6,3.7,3.8,3.7v-1.1c-1.5,0-2.7-1.1-2.7-2.5c0-1.5,1.1-2.7,2.7-2.7v-1.1
				C414.9,431.5,413.3,433.1,413.3,435.3z"/>
		</g>
		<rect x="412.8" y="431.1" class="st15" width="8.5" height="4.1"/>
		<rect x="416.7" y="432" width="1" height="4.2"/>
		<rect x="416.7" y="432" class="st17" width="1" height="4.2"/>
	</g>
	<g>
		<g>
			<line class="st16" x1="417" y1="687.9" x2="417" y2="696.2"/>
		</g>
		<g>
			<path class="st15" d="M416.9,684.9c1.7,0,3,1.4,3,3c0,1.8-1.4,3.2-3,3.2c-1.8,0-3.2-1.4-3.2-3.2
				C413.8,686.3,415.2,684.9,416.9,684.9z"/>
			<path d="M416.9,684.2c2,0,3.7,1.7,3.7,3.7c0,2.2-1.7,3.8-3.7,3.8v-1.1c1.4,0,2.5-1.1,2.5-2.7c0-1.4-1.1-2.5-2.5-2.5V684.2
				L416.9,684.2z M416.9,691.7v-1.1c-1.5,0-2.7-1.1-2.7-2.7c0-1.4,1.1-2.5,2.7-2.5v-1.1c-2.2,0-3.8,1.7-3.8,3.7
				C413.1,690.1,414.8,691.7,416.9,691.7z"/>
		</g>
		<rect x="412.6" y="688" class="st15" width="8.5" height="4.1"/>
		<rect x="416.5" y="687" width="1" height="4.2"/>
		<rect x="416.5" y="687" class="st17" width="1" height="4.2"/>
	</g>
	<rect x="347" y="466.3" class="st15" width="18.8" height="6"/>
	<g>
		<g>
			<line class="st16" x1="356.3" y1="435.3" x2="356.3" y2="427"/>
		</g>
		<g>
			<path class="st15" d="M356.2,438.3c1.7,0,3-1.4,3-3c0-1.8-1.4-3.2-3-3.2c-1.8,0-3.2,1.4-3.2,3.2
				C353,436.9,354.4,438.3,356.2,438.3z"/>
			<path d="M356.2,439v-1.1c1.4,0,2.5-1.1,2.5-2.5c0-1.5-1.1-2.7-2.5-2.7v-1.1c2,0,3.7,1.7,3.7,3.8C359.9,437.3,358.2,439,356.2,439
				L356.2,439z M352.4,435.3c0,2,1.6,3.7,3.8,3.7v-1.1c-1.5,0-2.7-1.1-2.7-2.5c0-1.5,1.1-2.7,2.7-2.7v-1.1
				C354,431.5,352.4,433.1,352.4,435.3z"/>
		</g>
		<rect x="351.9" y="431.1" class="st15" width="8.5" height="4.1"/>
		<rect x="355.8" y="432" width="1" height="4.2"/>
		<rect x="355.8" y="432" class="st17" width="1" height="4.2"/>
	</g>
	<g>
		<g>
			<line class="st16" x1="356.3" y1="687.9" x2="356.3" y2="696.2"/>
		</g>
		<g>
			<path class="st15" d="M356.2,684.9c1.7,0,3,1.4,3,3c0,1.8-1.4,3.2-3,3.2c-1.8,0-3.2-1.4-3.2-3.2
				C353,686.3,354.4,684.9,356.2,684.9z"/>
			<path d="M356.2,684.2c2,0,3.7,1.7,3.7,3.7c0,2.2-1.7,3.8-3.7,3.8v-1.1c1.4,0,2.5-1.1,2.5-2.7c0-1.4-1.1-2.5-2.5-2.5V684.2
				L356.2,684.2z M356.2,691.7v-1.1c-1.5,0-2.7-1.1-2.7-2.7c0-1.4,1.1-2.5,2.7-2.5v-1.1c-2.2,0-3.8,1.7-3.8,3.7
				C352.4,690.1,354,691.7,356.2,691.7z"/>
		</g>
		<rect x="351.9" y="688" class="st15" width="8.5" height="4.1"/>
		<rect x="355.8" y="687" width="1" height="4.2"/>
		<rect x="355.8" y="687" class="st17" width="1" height="4.2"/>
	</g>
	<g>
		<g>
			<line class="st16" x1="296.1" y1="435.3" x2="296.1" y2="427"/>
		</g>
		<g>
			<path class="st15" d="M296,438.3c1.7,0,3-1.4,3-3c0-1.8-1.4-3.2-3-3.2c-1.8,0-3.2,1.4-3.2,3.2C292.8,436.9,294.2,438.3,296,438.3
				z"/>
			<path d="M296,439v-1.1c1.4,0,2.5-1.1,2.5-2.5c0-1.5-1.1-2.7-2.5-2.7v-1.1c2,0,3.7,1.7,3.7,3.8C299.7,437.3,298,439,296,439
				L296,439z M292.2,435.3c0,2,1.6,3.7,3.8,3.7v-1.1c-1.5,0-2.7-1.1-2.7-2.5c0-1.5,1.1-2.7,2.7-2.7v-1.1
				C293.8,431.5,292.2,433.1,292.2,435.3z"/>
		</g>
		<rect x="291.7" y="431.1" class="st15" width="8.5" height="4.1"/>
		<rect x="295.6" y="432" width="1" height="4.2"/>
		<rect x="295.6" y="432" class="st17" width="1" height="4.2"/>
	</g>
	<g>
		<g>
			<line class="st16" x1="295.5" y1="687.9" x2="295.5" y2="696.2"/>
		</g>
		<g>
			<path class="st15" d="M295.5,684.9c1.7,0,3,1.4,3,3c0,1.8-1.4,3.2-3,3.2c-1.8,0-3.2-1.4-3.2-3.2
				C292.3,686.3,293.7,684.9,295.5,684.9z"/>
			<path d="M295.5,684.2c2,0,3.7,1.7,3.7,3.7c0,2.2-1.7,3.8-3.7,3.8v-1.1c1.4,0,2.5-1.1,2.5-2.7c0-1.4-1.1-2.5-2.5-2.5V684.2
				L295.5,684.2z M295.5,691.7v-1.1c-1.5,0-2.7-1.1-2.7-2.7c0-1.4,1.1-2.5,2.7-2.5v-1.1c-2.2,0-3.8,1.7-3.8,3.7
				C291.6,690.1,293.3,691.7,295.5,691.7z"/>
		</g>
		<rect x="291.1" y="688" class="st15" width="8.5" height="4.1"/>
		<rect x="295.1" y="687" width="1" height="4.2"/>
		<rect x="295.1" y="687" class="st17" width="1" height="4.2"/>
	</g>
	<g>
		<rect x="228.1" y="466.3" class="st15" width="12.3" height="6"/>
		<text transform="matrix(1 0 0 1 222.4148 471.2339)" class="st4 st5">L/W 0.22</text>
	</g>
	<g>
		<rect x="287.9" y="466.3" class="st15" width="12.3" height="6"/>
		<text transform="matrix(1 0 0 1 282.2599 471.2339)" class="st4 st5">W/G 0.22</text>
	</g>
	<g>
		<g>
			<line class="st16" x1="235.4" y1="435.3" x2="235.4" y2="427"/>
		</g>
		<g>
			<path class="st15" d="M235.3,438.3c1.7,0,3-1.4,3-3c0-1.8-1.4-3.2-3-3.2c-1.8,0-3.2,1.4-3.2,3.2
				C232.1,436.9,233.5,438.3,235.3,438.3z"/>
			<path d="M235.3,439v-1.1c1.4,0,2.5-1.1,2.5-2.5c0-1.5-1.1-2.7-2.5-2.7v-1.1c2,0,3.7,1.7,3.7,3.8C238.9,437.3,237.3,439,235.3,439
				L235.3,439z M231.5,435.3c0,2,1.6,3.7,3.8,3.7v-1.1c-1.5,0-2.7-1.1-2.7-2.5c0-1.5,1.1-2.7,2.7-2.7v-1.1
				C233.1,431.5,231.5,433.1,231.5,435.3z"/>
		</g>
		<rect x="230.9" y="431.1" class="st15" width="8.5" height="4.1"/>
		<rect x="234.9" y="432" width="1" height="4.2"/>
		<rect x="234.9" y="432" class="st17" width="1" height="4.2"/>
	</g>
	<g>
		<g>
			<line class="st16" x1="235.3" y1="687.9" x2="235.3" y2="696.2"/>
		</g>
		<g>
			<path class="st15" d="M235.2,684.9c1.7,0,3,1.4,3,3c0,1.8-1.4,3.2-3,3.2c-1.8,0-3.2-1.4-3.2-3.2
				C232.1,686.3,233.5,684.9,235.2,684.9z"/>
			<path d="M235.2,684.2c2,0,3.7,1.7,3.7,3.7c0,2.2-1.7,3.8-3.7,3.8v-1.1c1.4,0,2.5-1.1,2.5-2.7c0-1.4-1.1-2.5-2.5-2.5V684.2
				L235.2,684.2z M235.2,691.7v-1.1c-1.5,0-2.7-1.1-2.7-2.7c0-1.4,1.1-2.5,2.7-2.5v-1.1c-2.2,0-3.8,1.7-3.8,3.7
				C231.4,690.1,233.1,691.7,235.2,691.7z"/>
		</g>
		<rect x="230.9" y="688" class="st15" width="8.5" height="4.1"/>
		<rect x="234.8" y="687" width="1" height="4.2"/>
		<rect x="234.8" y="687" class="st17" width="1" height="4.2"/>
	</g>
	<text transform="matrix(1 0 0 1 346.839 471.2339)" class="st4 st5">R 0.22</text>
	<g>
		<rect x="780.6" y="466.3" class="st15" width="12.3" height="6"/>
		<text transform="matrix(1 0 0 1 774.895 471.2339)" class="st4 st5">B/L 0.35</text>
	</g>
	<g>
		<g>
			<line class="st16" x1="784.2" y1="435.3" x2="784.2" y2="427"/>
		</g>
		<g>
			<path class="st15" d="M784.1,438.3c1.7,0,3-1.4,3-3c0-1.8-1.4-3.2-3-3.2c-1.8,0-3.2,1.4-3.2,3.2
				C780.9,436.9,782.3,438.3,784.1,438.3z"/>
			<path d="M784.1,439v-1.1c1.4,0,2.5-1.1,2.5-2.5c0-1.5-1.1-2.7-2.5-2.7v-1.1c2,0,3.7,1.7,3.7,3.8C787.8,437.3,786.1,439,784.1,439
				L784.1,439z M780.3,435.3c0,2,1.6,3.7,3.8,3.7v-1.1c-1.5,0-2.7-1.1-2.7-2.5c0-1.5,1.1-2.7,2.7-2.7v-1.1
				C782,431.5,780.3,433.1,780.3,435.3z"/>
		</g>
		<rect x="779.8" y="431.1" class="st15" width="8.5" height="4.1"/>
		<rect x="783.7" y="432" width="1" height="4.2"/>
		<rect x="783.7" y="432" class="st17" width="1" height="4.2"/>
	</g>
	<g>
		<rect x="719.8" y="466.3" class="st15" width="12.3" height="6"/>
		<text transform="matrix(1 0 0 1 709.0798 471.2339)" class="st4 st5">W/R 1.0</text>
	</g>
	<g>
		<g>
			<line class="st16" x1="723.1" y1="435.3" x2="723.1" y2="427"/>
		</g>
		<g>
			<path class="st15" d="M723,438.3c1.7,0,3-1.4,3-3c0-1.8-1.4-3.2-3-3.2c-1.8,0-3.2,1.4-3.2,3.2C719.8,436.9,721.2,438.3,723,438.3
				z"/>
			<path d="M723,439v-1.1c1.4,0,2.5-1.1,2.5-2.5c0-1.5-1.1-2.7-2.5-2.7v-1.1c2,0,3.7,1.7,3.7,3.8C726.7,437.3,725,439,723,439
				L723,439z M719.2,435.3c0,2,1.6,3.7,3.8,3.7v-1.1c-1.5,0-2.7-1.1-2.7-2.5c0-1.5,1.1-2.7,2.7-2.7v-1.1
				C720.8,431.5,719.2,433.1,719.2,435.3z"/>
		</g>
		<rect x="718.7" y="431.1" class="st15" width="8.5" height="4.1"/>
		<rect x="722.6" y="432" width="1" height="4.2"/>
		<rect x="722.6" y="432" class="st17" width="1" height="4.2"/>
	</g>
	<rect x="653.2" y="466.3" class="st15" width="18.8" height="6"/>
	<g>
		<g>
			<line class="st16" x1="662.7" y1="435.3" x2="662.7" y2="427"/>
		</g>
		<g>
			<path class="st15" d="M662.6,438.3c1.7,0,3-1.4,3-3c0-1.8-1.4-3.2-3-3.2c-1.8,0-3.2,1.4-3.2,3.2
				C659.5,436.9,660.9,438.3,662.6,438.3z"/>
			<path d="M662.6,439v-1.1c1.4,0,2.5-1.1,2.5-2.5c0-1.5-1.1-2.7-2.5-2.7v-1.1c2,0,3.7,1.7,3.7,3.8C666.3,437.3,664.7,439,662.6,439
				L662.6,439z M658.8,435.3c0,2,1.6,3.7,3.8,3.7v-1.1c-1.5,0-2.7-1.1-2.7-2.5c0-1.5,1.1-2.7,2.7-2.7v-1.1
				C660.5,431.5,658.8,433.1,658.8,435.3z"/>
		</g>
		<rect x="658.3" y="431.1" class="st15" width="8.5" height="4.1"/>
		<rect x="662.3" y="432" width="1" height="4.2"/>
		<rect x="662.3" y="432" class="st17" width="1" height="4.2"/>
	</g>
	<g>
		<rect x="597.9" y="466.3" class="st15" width="12.3" height="6"/>
		<text transform="matrix(1 0 0 1 590.2434 471.2339)" class="st4 st5">W 1.0</text>
	</g>
	<g>
		<g>
			<line class="st16" x1="602" y1="435.3" x2="602" y2="427"/>
		</g>
		<g>
			<path class="st15" d="M601.9,438.3c1.7,0,3-1.4,3-3c0-1.8-1.4-3.2-3-3.2c-1.8,0-3.2,1.4-3.2,3.2
				C598.7,436.9,600.1,438.3,601.9,438.3z"/>
			<path d="M601.9,439v-1.1c1.4,0,2.5-1.1,2.5-2.5c0-1.5-1.1-2.7-2.5-2.7v-1.1c2,0,3.7,1.7,3.7,3.8C605.6,437.3,603.9,439,601.9,439
				L601.9,439z M598.1,435.3c0,2,1.6,3.7,3.8,3.7v-1.1c-1.5,0-2.7-1.1-2.7-2.5c0-1.5,1.1-2.7,2.7-2.7v-1.1
				C599.7,431.5,598.1,433.1,598.1,435.3z"/>
		</g>
		<rect x="597.6" y="431.1" class="st15" width="8.5" height="4.1"/>
		<rect x="601.5" y="432" width="1" height="4.2"/>
		<rect x="601.5" y="432" class="st17" width="1" height="4.2"/>
	</g>
	<text transform="matrix(1 0 0 1 650.8055 471.2339)" class="st4 st5">R/L 1.0</text>
	<g>
		<rect x="535.7" y="656.2" class="st15" width="12.3" height="6"/>
		<text transform="matrix(1 0 0 1 527.043 661.1)" class="st4 st5">R/B 1.0</text>
	</g>
	<g>
		<rect x="474.5" y="656.2" class="st15" width="12.3" height="6"/>
		<text transform="matrix(1 0 0 1 468.8062 661.1)" class="st4 st5">Y 0.35</text>
	</g>
	<g>
		<rect x="411.9" y="656.2" class="st15" width="12.3" height="6"/>
		<text transform="matrix(1 0 0 1 406.1935 661.1)" class="st4 st5">L/Y 0.22</text>
	</g>
	<rect x="347" y="656.2" class="st15" width="18.8" height="6"/>
	<g>
		<rect x="228.1" y="656.2" class="st15" width="12.3" height="6"/>
		<text transform="matrix(1 0 0 1 222.4148 661.1)" class="st4 st5">L/W 0.22</text>
	</g>
	<g>
		<rect x="287.9" y="656.2" class="st15" width="12.3" height="6"/>
		<text transform="matrix(1 0 0 1 282.2599 661.1)" class="st4 st5">W/G 0.22</text>
	</g>
	<text transform="matrix(1 0 0 1 346.839 661.1)" class="st4 st5">R 0.22</text>
	<g>
		<rect x="780.6" y="656.2" class="st15" width="12.3" height="6"/>
		<text transform="matrix(1 0 0 1 774.895 661.1)" class="st4 st5">B/L 0.35</text>
	</g>
	<g>
		<rect x="719.8" y="656.2" class="st15" width="12.3" height="6"/>
		<text transform="matrix(1 0 0 1 709.0798 661.1)" class="st4 st5">W/R 1.0</text>
	</g>
	<rect x="653.2" y="656.2" class="st15" width="18.8" height="6"/>
	<g>
		<rect x="597.9" y="656.2" class="st15" width="12.3" height="6"/>
		<text transform="matrix(1 0 0 1 590.2434 661.1)" class="st4 st5">W 1.0</text>
	</g>
	<text transform="matrix(1 0 0 1 650.8055 661.1)" class="st4 st5">R/L 1.0</text>
	<g>
		<text transform="matrix(1 0 0 1 225.2001 425.2906)" class="st4 st18">天窗霍尔A</text>
	</g>
	<g>
		<text transform="matrix(1 0 0 1 286.45 425.2906)" class="st4 st18">天窗霍尔B</text>
	</g>
	<g>
		<text transform="matrix(1 0 0 1 343.1892 425.2906)" class="st4 st18">遮阳帘霍尔B</text>
	</g>
	<g>
		<text transform="matrix(1 0 0 1 405.5642 425.2906)" class="st4 st18">遮阳帘霍尔A</text>
	</g>
	<g>
		<text transform="matrix(1 0 0 1 460.3142 425.2906)" class="st4 st18">天窗电机霍尔电源</text>
	</g>
	<g>
		<text transform="matrix(1 0 0 1 525.757 425.2912)" class="st4 st18">遮阳帘关闭控制电源</text>
	</g>
	<g>
		<text transform="matrix(1 0 0 1 708.6145 425.2908)" class="st4 st18">天窗关闭控制电源</text>
	</g>
	<g>
		<text transform="matrix(1 0 0 1 777.9095 425.2908)" class="st4 st18">信号地</text>
	</g>
	<g>
		<text transform="matrix(1 0 0 1 648.2195 425.2908)" class="st4 st18">遮阳帘打开控制电源</text>
	</g>
	<g>
		<text transform="matrix(1 0 0 1 587.4518 425.2908)" class="st4 st18">天窗关闭控制电源</text>
	</g>
	<rect x="218.1" y="696.2" class="st19" width="620.4" height="25.9"/>
	<path class="st19" d="M34.3,427h836.4c0,0,5.6-7.7,0-12.2s0-13.7,0-13.7H34.3L34.3,427L34.3,427z"/>
	<g>
		<text transform="matrix(1 0 0 1 468.4614 701.5607)" class="st20 st4 st18">Hall signal</text>
		<text transform="matrix(1 0 0 1 468.4614 706.3607)" class="st20 st4 st18">power supply</text>
	</g>
	<text transform="matrix(1 0 0 1 528.4614 701.5607)" class="st20 st4 st18">Sunshade motor -</text>
	<text transform="matrix(1 0 0 1 591.3914 701.5607)" class="st20 st4 st18">Window glass motor-</text>
	<text transform="matrix(1 0 0 1 651.9614 701.5607)" class="st20 st4 st18">Sunshade motor+</text>
	<text transform="matrix(1 0 0 1 714.1216 701.5607)" class="st20 st4 st18">Window glass motor+</text>
	<text transform="matrix(1 0 0 1 775.4614 701.5607)" class="st20 st4 st18">Hall signal ground</text>
	<text transform="matrix(1 0 0 1 223.5614 701.5607)" class="st20 st4 st18">Sunroof Hall A</text>
	<text transform="matrix(1 0 0 1 284.8114 701.5607)" class="st20 st4 st18">Sunroof Hall B</text>
	<text transform="matrix(1 0 0 1 341.5514 701.5607)" class="st20 st4 st18">Sunshade Hall B</text>
	<text transform="matrix(1 0 0 1 399.0313 701.5607)" class="st20 st4 st18">Sunshade Hall A</text>
</g>
<g id="图层_4">
	<g>
		<text transform="matrix(1 0 0 1 542.7861 435.2949)" class="st21 st4 st5">PG86(C)</text>
	</g>
	<g>
		<text transform="matrix(1 0 0 1 568.2861 435.2949)" class="st21 st4 st5">-12</text>
	</g>
	<g>
		<text transform="matrix(1 0 0 1 544.2324 693.5556)" class="st21 st4 st5">P05</text>
	</g>
	<g>
		<text transform="matrix(1 0 0 1 555.4824 693.5556)" class="st21 st4 st5">-9</text>
	</g>
	<g>
		<text transform="matrix(1 0 0 1 482.0488 435.2949)" class="st21 st4 st5">PG86(C)</text>
	</g>
	<g>
		<text transform="matrix(1 0 0 1 507.5488 435.2949)" class="st21 st4 st5">-3</text>
	</g>
	<g>
		<text transform="matrix(1 0 0 1 483.4951 693.5556)" class="st21 st4 st5">P05</text>
	</g>
	<g>
		<text transform="matrix(1 0 0 1 494.7451 693.5556)" class="st21 st4 st5">-7</text>
	</g>
	<g>
		<text transform="matrix(1 0 0 1 421.3115 435.2949)" class="st21 st4 st5">PG86(C)</text>
	</g>
	<g>
		<text transform="matrix(1 0 0 1 446.8115 435.2949)" class="st21 st4 st5">-10</text>
	</g>
	<g>
		<text transform="matrix(1 0 0 1 422.7578 693.5556)" class="st21 st4 st5">P05</text>
	</g>
	<g>
		<text transform="matrix(1 0 0 1 434.0078 693.5556)" class="st21 st4 st5">-5</text>
	</g>
	<g>
		<text transform="matrix(1 0 0 1 360.5742 435.2949)" class="st21 st4 st5">PG86(C)</text>
	</g>
	<g>
		<text transform="matrix(1 0 0 1 386.0742 435.2949)" class="st21 st4 st5">-11</text>
	</g>
	<g>
		<text transform="matrix(1 0 0 1 362.02 693.5556)" class="st21 st4 st5">P05</text>
	</g>
	<g>
		<text transform="matrix(1 0 0 1 373.27 693.5556)" class="st21 st4 st5">-3</text>
	</g>
	<g>
		<text transform="matrix(1 0 0 1 299.8364 435.2949)" class="st21 st4 st5">PG86(C)</text>
	</g>
	<g>
		<text transform="matrix(1 0 0 1 325.3364 435.2949)" class="st21 st4 st5">-9</text>
	</g>
	<g>
		<text transform="matrix(1 0 0 1 301.2822 693.5556)" class="st21 st4 st5">P05</text>
	</g>
	<g>
		<text transform="matrix(1 0 0 1 312.5322 693.5556)" class="st21 st4 st5">-4</text>
	</g>
	<g>
		<text transform="matrix(1 0 0 1 239.0991 435.2949)" class="st21 st4 st5">PG86(C)</text>
	</g>
	<g>
		<text transform="matrix(1 0 0 1 264.5991 435.2949)" class="st21 st4 st5">-8</text>
	</g>
	<g>
		<text transform="matrix(1 0 0 1 240.5449 693.5556)" class="st21 st4 st5">P05</text>
	</g>
	<g>
		<text transform="matrix(1 0 0 1 251.7949 693.5556)" class="st21 st4 st5">-6</text>
	</g>
	<g>
		<text transform="matrix(1 0 0 1 787.9468 435.2949)" class="st21 st4 st5">PG86(C)</text>
	</g>
	<g>
		<text transform="matrix(1 0 0 1 813.4468 435.2949)" class="st21 st4 st5">-30</text>
	</g>
	<g>
		<text transform="matrix(1 0 0 1 789.3931 693.5556)" class="st21 st4 st5">P05</text>
	</g>
	<g>
		<text transform="matrix(1 0 0 1 800.6431 693.5556)" class="st21 st4 st5">-8</text>
	</g>
	<g>
		<text transform="matrix(1 0 0 1 727.2095 435.2949)" class="st21 st4 st5">PG86(C)</text>
	</g>
	<g>
		<text transform="matrix(1 0 0 1 752.7095 435.2949)" class="st21 st4 st5">-13</text>
	</g>
	<g>
		<text transform="matrix(1 0 0 1 728.6558 693.5556)" class="st21 st4 st5">P05</text>
	</g>
	<g>
		<text transform="matrix(1 0 0 1 739.9058 693.5556)" class="st21 st4 st5">-2</text>
	</g>
	<g>
		<text transform="matrix(1 0 0 1 666.4722 435.2949)" class="st21 st4 st5">PG86(C)</text>
	</g>
	<g>
		<text transform="matrix(1 0 0 1 691.9722 435.2949)" class="st21 st4 st5">-24</text>
	</g>
	<g>
		<text transform="matrix(1 0 0 1 667.918 693.5556)" class="st21 st4 st5">P05</text>
	</g>
	<g>
		<text transform="matrix(1 0 0 1 679.168 693.5556)" class="st21 st4 st5">-10</text>
	</g>
	<g>
		<text transform="matrix(1 0 0 1 605.7344 435.2949)" class="st21 st4 st5">PG86(C)</text>
	</g>
	<g>
		<text transform="matrix(1 0 0 1 631.2344 435.2949)" class="st21 st4 st5">-1</text>
	</g>
	<g>
		<text transform="matrix(1 0 0 1 607.1807 693.5556)" class="st21 st4 st5">P05</text>
	</g>
	<g>
		<text transform="matrix(1 0 0 1 618.4307 693.5556)" class="st21 st4 st5">-1</text>
	</g>
	<line class="st22" x1="356.4" y1="180.3" x2="356.4" y2="390.8"/>
	<line class="st23" x1="417.1" y1="180" x2="417.1" y2="390.5"/>
	<line class="st24" x1="478.9" y1="180.3" x2="478.9" y2="390.8"/>
	<line class="st25" x1="835.1" y1="180.3" x2="835.1" y2="341.2"/>
	<line class="st26" x1="128.2" y1="211.7" x2="128.2" y2="394.1"/>
	<line class="st27" x1="178.7" y1="212.7" x2="178.7" y2="395.2"/>
	<g>
		<rect x="172" y="361" class="st15" width="13.9" height="6"/>
		<g>
			<text transform="matrix(1 0 0 1 170.3099 366.1387)" class="st4 st5">V 0.35</text>
		</g>
	</g>
	<g>
		<rect x="122.9" y="361" class="st15" width="13.9" height="6"/>
		<g>
			<text transform="matrix(1 0 0 1 119.1673 366.1387)" class="st4 st5">P 0.35</text>
		</g>
	</g>
	<path class="st28" d="M123.8,332.1c-1.8,0-3.2-1.5-3.2-3.5c0-1.9,1.4-3.5,3.2-3.5l59.9,6.9c1.8,0,3.2-1.5,3.2-3.5
		c0-1.9-1.4-3.5-3.2-3.5L123.8,332.1z"/>
	<path class="st29" d="M186.9,209.5l-0.5-2.1c0,0-0.5-2.5-2.7-2.6h-28.3l0,0l-1.6-2.7l-1.6,2.7c-7.4,0-28.2,0-28.2,0
		c-2.2,0.1-2.7,2.6-2.7,2.6l-0.5,2.1"/>
	<g>
		<g>
			<line class="st16" x1="128.2" y1="393.2" x2="128.2" y2="401.4"/>
		</g>
		<g>
			<path class="st15" d="M128.1,390.2c1.7,0,3,1.4,3,3c0,1.8-1.4,3.2-3,3.2c-1.8,0-3.2-1.4-3.2-3.2
				C124.9,391.6,126.3,390.2,128.1,390.2z"/>
			<path d="M128.1,389.5c2,0,3.7,1.7,3.7,3.7c0,2.2-1.7,3.8-3.7,3.8v-1.1c1.4,0,2.5-1.1,2.5-2.7c0-1.4-1.1-2.5-2.5-2.5V389.5
				L128.1,389.5z M128.1,397v-1.1c-1.5,0-2.7-1.1-2.7-2.7c0-1.4,1.1-2.5,2.7-2.5v-1.1c-2.2,0-3.8,1.7-3.8,3.7
				C124.3,395.4,125.9,397,128.1,397z"/>
		</g>
		<rect x="123.8" y="393.3" class="st15" width="8.5" height="4.1"/>
		<rect x="127.7" y="392.3" width="1" height="4.2"/>
		<rect x="127.7" y="392.3" class="st17" width="1" height="4.2"/>
	</g>
	<g>
		<g>
			<line class="st16" x1="178.7" y1="393.2" x2="178.7" y2="401.4"/>
		</g>
		<g>
			<path class="st15" d="M178.6,390.2c1.7,0,3,1.4,3,3c0,1.8-1.4,3.2-3,3.2c-1.8,0-3.2-1.4-3.2-3.2
				C175.4,391.6,176.8,390.2,178.6,390.2z"/>
			<path d="M178.6,389.5c2,0,3.7,1.7,3.7,3.7c0,2.2-1.7,3.8-3.7,3.8v-1.1c1.4,0,2.5-1.1,2.5-2.7c0-1.4-1.1-2.5-2.5-2.5V389.5
				L178.6,389.5z M178.6,397v-1.1c-1.5,0-2.7-1.1-2.7-2.7c0-1.4,1.1-2.5,2.7-2.5v-1.1c-2.2,0-3.8,1.7-3.8,3.7
				C174.8,395.4,176.4,397,178.6,397z"/>
		</g>
		<rect x="174.2" y="393.3" class="st15" width="8.5" height="4.1"/>
		<rect x="178.2" y="392.3" width="1" height="4.2"/>
		<rect x="178.2" y="392.3" class="st17" width="1" height="4.2"/>
	</g>
	<path class="st19" d="M871.6,172H336.8v-25.9h534.8c0,0-3.7,8.9,0,14.4S871.6,172,871.6,172z"/>
	<g>
		<text transform="matrix(1 0 0 1 829.5453 170.2687)" class="st4 st18">GND</text>
	</g>
	<g>
		<rect x="830.3" y="203.3" class="st15" width="12.3" height="6"/>
		<text transform="matrix(1 0 0 1 824.6104 208.1847)" class="st4 st5">B 0.35</text>
	</g>
	<g>
		<rect x="830.3" y="244.8" class="st15" width="12.3" height="6"/>
		<text transform="matrix(1 0 0 1 824.6104 249.6847)" class="st4 st5">B 0.35</text>
	</g>
	<g>
		<rect x="831.8" y="280.3" class="st15" width="12.3" height="6"/>
		<text transform="matrix(1 0 0 1 826.1138 285.1847)" class="st4 st5">B 1.0</text>
	</g>
	<g>
		<g>
			<line class="st16" x1="835.4" y1="180.3" x2="835.4" y2="172"/>
		</g>
		<g>
			<path class="st15" d="M835.4,183.3c1.7,0,3-1.4,3-3c0-1.8-1.4-3.2-3-3.2c-1.8,0-3.2,1.4-3.2,3.2
				C832.2,181.9,833.6,183.3,835.4,183.3z"/>
			<path d="M835.4,184v-1.1c1.4,0,2.5-1.1,2.5-2.5c0-1.5-1.1-2.7-2.5-2.7v-1.1c2,0,3.7,1.7,3.7,3.8C839,182.3,837.4,184,835.4,184
				L835.4,184z M831.5,180.3c0,2,1.6,3.7,3.8,3.7v-1.1c-1.5,0-2.7-1.1-2.7-2.5c0-1.5,1.1-2.7,2.7-2.7v-1.1
				C833.2,176.5,831.5,178.1,831.5,180.3z"/>
		</g>
		<rect x="831" y="176.1" class="st15" width="8.5" height="4.1"/>
		<rect x="835" y="177" width="1" height="4.2"/>
		<rect x="835" y="177" class="st17" width="1" height="4.2"/>
	</g>
	<g>
		<rect x="473.8" y="361.1" class="st15" width="12.3" height="6"/>
		<text transform="matrix(1 0 0 1 468.0847 366.0773)" class="st4 st5">Gr 0.35</text>
	</g>
	<g>
		<rect x="473.8" y="203.3" class="st15" width="12.3" height="6"/>
		<text transform="matrix(1 0 0 1 468.0847 208.1847)" class="st4 st5">Gr 0.35</text>
	</g>
	<g>
		<g>
			<line class="st16" x1="479.1" y1="180.3" x2="479.1" y2="172"/>
		</g>
		<g>
			<path class="st15" d="M479,183.3c1.7,0,3-1.4,3-3c0-1.8-1.4-3.2-3-3.2c-1.8,0-3.2,1.4-3.2,3.2C475.8,181.9,477.2,183.3,479,183.3
				z"/>
			<path d="M479,184v-1.1c1.4,0,2.5-1.1,2.5-2.5c0-1.5-1.1-2.7-2.5-2.7v-1.1c2,0,3.7,1.7,3.7,3.8C482.7,182.3,481,184,479,184
				L479,184z M475.2,180.3c0,2,1.6,3.7,3.8,3.7v-1.1c-1.5,0-2.7-1.1-2.7-2.5c0-1.5,1.1-2.7,2.7-2.7v-1.1
				C476.8,176.5,475.2,178.1,475.2,180.3z"/>
		</g>
		<rect x="474.7" y="176.1" class="st15" width="8.5" height="4.1"/>
		<rect x="478.6" y="177" width="1" height="4.2"/>
		<rect x="478.6" y="177" class="st17" width="1" height="4.2"/>
	</g>
	<g>
		<g>
			<line class="st16" x1="478.5" y1="392.9" x2="478.5" y2="401.1"/>
		</g>
		<g>
			<path class="st15" d="M478.4,389.8c1.7,0,3,1.4,3,3c0,1.8-1.4,3.2-3,3.2c-1.8,0-3.2-1.4-3.2-3.2
				C475.3,391.2,476.7,389.8,478.4,389.8z"/>
			<path d="M478.4,389.2c2,0,3.7,1.7,3.7,3.7c0,2.2-1.7,3.8-3.7,3.8v-1.1c1.4,0,2.5-1.1,2.5-2.7c0-1.4-1.1-2.5-2.5-2.5V389.2
				L478.4,389.2z M478.4,396.7v-1.1c-1.5,0-2.7-1.1-2.7-2.7c0-1.4,1.1-2.5,2.7-2.5v-1.1c-2.2,0-3.8,1.7-3.8,3.7
				S476.3,396.7,478.4,396.7z"/>
		</g>
		<rect x="474.1" y="393" class="st15" width="8.5" height="4.1"/>
		<rect x="478.1" y="392" width="1" height="4.2"/>
		<rect x="478.1" y="392" class="st17" width="1" height="4.2"/>
	</g>
	<g>
		<rect x="413.7" y="360.9" class="st15" width="12.3" height="6"/>
		<text transform="matrix(1 0 0 1 407.9791 365.786)" class="st4 st5">G 0.35</text>
	</g>
	<g>
		<rect x="413.7" y="203" class="st15" width="12.3" height="6"/>
		<text transform="matrix(1 0 0 1 407.9791 207.8934)" class="st4 st5">G 0.35</text>
	</g>
	<g>
		<g>
			<line class="st16" x1="417.3" y1="180" x2="417.3" y2="171.7"/>
		</g>
		<g>
			<path class="st15" d="M417.2,183c1.7,0,3-1.4,3-3c0-1.8-1.4-3.2-3-3.2c-1.8,0-3.2,1.4-3.2,3.2C414,181.6,415.4,183,417.2,183z"/>
			<path d="M417.2,183.7v-1.1c1.4,0,2.5-1.1,2.5-2.5c0-1.5-1.1-2.7-2.5-2.7v-1.1c2,0,3.7,1.7,3.7,3.8
				C420.9,182,419.2,183.7,417.2,183.7L417.2,183.7z M413.4,180c0,2,1.6,3.7,3.8,3.7v-1.1c-1.5,0-2.7-1.1-2.7-2.5
				c0-1.5,1.1-2.7,2.7-2.7v-1.1C415,176.2,413.4,177.8,413.4,180z"/>
		</g>
		<rect x="412.9" y="175.8" class="st15" width="8.5" height="4.1"/>
		<rect x="416.8" y="176.7" width="1" height="4.2"/>
		<rect x="416.8" y="176.7" class="st17" width="1" height="4.2"/>
	</g>
	<g>
		<g>
			<line class="st16" x1="417.1" y1="392.6" x2="417.1" y2="400.8"/>
		</g>
		<g>
			<path class="st15" d="M417,389.6c1.7,0,3,1.4,3,3c0,1.8-1.4,3.2-3,3.2c-1.8,0-3.2-1.4-3.2-3.2C413.9,390.9,415.3,389.6,417,389.6
				z"/>
			<path d="M417,388.9c2,0,3.7,1.7,3.7,3.7c0,2.2-1.7,3.8-3.7,3.8v-1.1c1.4,0,2.5-1.1,2.5-2.7c0-1.4-1.1-2.5-2.5-2.5V388.9
				L417,388.9z M417,396.4v-1.1c-1.5,0-2.7-1.1-2.7-2.7c0-1.4,1.1-2.5,2.7-2.5V389c-2.2,0-3.8,1.7-3.8,3.7
				C413.2,394.8,414.9,396.4,417,396.4z"/>
		</g>
		<rect x="412.7" y="392.7" class="st15" width="8.5" height="4.1"/>
		<rect x="416.7" y="391.7" width="1" height="4.2"/>
		<rect x="416.7" y="391.7" class="st17" width="1" height="4.2"/>
	</g>
	<g>
		<rect x="353.1" y="361.1" class="st15" width="12.3" height="6"/>
		<text transform="matrix(1 0 0 1 347.4431 366.0773)" class="st4 st5">L 0.35</text>
	</g>
	<g>
		<rect x="353.1" y="203.3" class="st15" width="12.3" height="6"/>
		<text transform="matrix(1 0 0 1 347.4431 208.1847)" class="st4 st5">L 0.35</text>
	</g>
	<g>
		<g>
			<line class="st16" x1="356.6" y1="180.3" x2="356.6" y2="172"/>
		</g>
		<g>
			<path class="st15" d="M356.5,183.3c1.7,0,3-1.4,3-3c0-1.8-1.4-3.2-3-3.2c-1.8,0-3.2,1.4-3.2,3.2
				C353.3,181.9,354.7,183.3,356.5,183.3z"/>
			<path d="M356.5,184v-1.1c1.4,0,2.5-1.1,2.5-2.5c0-1.5-1.1-2.7-2.5-2.7v-1.1c2,0,3.7,1.7,3.7,3.8C360.2,182.3,358.5,184,356.5,184
				L356.5,184z M352.7,180.3c0,2,1.6,3.7,3.8,3.7v-1.1c-1.5,0-2.7-1.1-2.7-2.5c0-1.5,1.1-2.7,2.7-2.7v-1.1
				C354.3,176.5,352.7,178.1,352.7,180.3z"/>
		</g>
		<rect x="352.2" y="176.1" class="st15" width="8.5" height="4.1"/>
		<rect x="356.1" y="177" width="1" height="4.2"/>
		<rect x="356.1" y="177" class="st17" width="1" height="4.2"/>
	</g>
	<g>
		<g>
			<line class="st16" x1="356.1" y1="392.9" x2="356.1" y2="401.1"/>
		</g>
		<g>
			<path class="st15" d="M356,389.8c1.7,0,3,1.4,3,3c0,1.8-1.4,3.2-3,3.2c-1.8,0-3.2-1.4-3.2-3.2C352.8,391.2,354.2,389.8,356,389.8
				z"/>
			<path d="M356,389.2c2,0,3.7,1.7,3.7,3.7c0,2.2-1.7,3.8-3.7,3.8v-1.1c1.4,0,2.5-1.1,2.5-2.7c0-1.4-1.1-2.5-2.5-2.5V389.2
				L356,389.2z M356,396.7v-1.1c-1.5,0-2.7-1.1-2.7-2.7c0-1.4,1.1-2.5,2.7-2.5v-1.1c-2.2,0-3.8,1.7-3.8,3.7S353.8,396.7,356,396.7z"
				/>
		</g>
		<rect x="351.6" y="393" class="st15" width="8.5" height="4.1"/>
		<rect x="355.6" y="392" width="1" height="4.2"/>
		<rect x="355.6" y="392" class="st17" width="1" height="4.2"/>
	</g>
	<rect x="841.6" y="226.7" class="st30" width="25.3" height="5.6"/>
	<text transform="matrix(1 0 0 1 842.3047 231.5681)" class="st4 st5">SP2890</text>
	<path class="st31" d="M838,229.6c0,1.7-1.3,2.9-2.8,2.9c-1.6,0-2.9-1.2-2.9-2.9c0-1.5,1.3-2.7,2.9-2.7
		C836.7,226.8,838,228,838,229.6z"/>
	<rect x="841.6" y="265" class="st30" width="29.6" height="5.6"/>
	<text transform="matrix(1 0 0 1 842.3047 269.8633)" class="st4 st5">SP2781</text>
	<path class="st31" d="M838,267.9c0,1.7-1.3,2.9-2.8,2.9c-1.6,0-2.9-1.2-2.9-2.9c0-1.5,1.3-2.7,2.9-2.7
		C836.7,265.1,838,266.3,838,267.9z"/>
	<rect x="729.8" y="265" class="st30" width="29.6" height="5.6"/>
	<text transform="matrix(1 0 0 1 730.5547 269.8633)" class="st4 st5">SP1632</text>
	<g id="GB031_5_">
		<g>
			<g>
				<line class="st32" x1="834.8" y1="338.6" x2="834.8" y2="341.2"/>
			</g>
			<g>
				<line class="st32" x1="827.8" y1="341.2" x2="841.6" y2="341.2"/>
			</g>
			<g>
				<line class="st32" x1="830.6" y1="343.5" x2="838.8" y2="343.5"/>
			</g>
			<g>
				<line class="st32" x1="837.1" y1="345.6" x2="832.3" y2="345.6"/>
			</g>
		</g>
		<g>
			<rect x="824.4" y="348.1" class="st15" width="20.3" height="8.2"/>
			<rect x="824.7" y="348.4" class="st33" width="19.7" height="7.6"/>
		</g>
	</g>
	<g>
		<text transform="matrix(1 0 0 1 172.0065 407.0292)" class="st4 st18">CAN_L</text>
	</g>
	<g>
		<text transform="matrix(1 0 0 1 119.1676 406.55)" class="st4 st18">CAN_H</text>
	</g>
	<line class="st26" x1="235.6" y1="211.7" x2="235.6" y2="394.1"/>
	<line class="st27" x1="286.1" y1="212.7" x2="286.1" y2="395.2"/>
	<g>
		<rect x="279.4" y="361" class="st15" width="13.9" height="6"/>
		<g>
			<text transform="matrix(1 0 0 1 277.7037 366.1387)" class="st4 st5">V 0.35</text>
		</g>
	</g>
	<g>
		<rect x="230.3" y="361" class="st15" width="13.9" height="6"/>
		<g>
			<text transform="matrix(1 0 0 1 226.5611 366.1387)" class="st4 st5">P 0.35</text>
		</g>
	</g>
	<path class="st28" d="M231.2,332.1c-1.8,0-3.2-1.5-3.2-3.5c0-1.9,1.4-3.5,3.2-3.5l59.9,6.9c1.8,0,3.2-1.5,3.2-3.5
		c0-1.9-1.4-3.5-3.2-3.5L231.2,332.1z"/>
	<path class="st29" d="M294.3,209.5l-0.5-2.1c0,0-0.5-2.5-2.7-2.6h-28.3l0,0l-1.6-2.7l-1.6,2.7c-7.4,0-28.2,0-28.2,0
		c-2.2,0.1-2.7,2.6-2.7,2.6l-0.5,2.1"/>
	<g>
		<g>
			<line class="st16" x1="235.6" y1="393.2" x2="235.6" y2="401.4"/>
		</g>
		<g>
			<path class="st15" d="M235.5,390.2c1.7,0,3,1.4,3,3c0,1.8-1.4,3.2-3,3.2c-1.8,0-3.2-1.4-3.2-3.2
				C232.3,391.6,233.7,390.2,235.5,390.2z"/>
			<path d="M235.5,389.5c2,0,3.7,1.7,3.7,3.7c0,2.2-1.7,3.8-3.7,3.8v-1.1c1.4,0,2.5-1.1,2.5-2.7c0-1.4-1.1-2.5-2.5-2.5V389.5
				L235.5,389.5z M235.5,397v-1.1c-1.5,0-2.7-1.1-2.7-2.7c0-1.4,1.1-2.5,2.7-2.5v-1.1c-2.2,0-3.8,1.7-3.8,3.7
				C231.7,395.4,233.3,397,235.5,397z"/>
		</g>
		<rect x="231.2" y="393.3" class="st15" width="8.5" height="4.1"/>
		<rect x="235.1" y="392.3" width="1" height="4.2"/>
		<rect x="235.1" y="392.3" class="st17" width="1" height="4.2"/>
	</g>
	<g>
		<g>
			<line class="st16" x1="286" y1="393.2" x2="286" y2="401.4"/>
		</g>
		<g>
			<path class="st15" d="M286,390.2c1.7,0,3,1.4,3,3c0,1.8-1.4,3.2-3,3.2c-1.8,0-3.2-1.4-3.2-3.2C282.8,391.6,284.2,390.2,286,390.2
				z"/>
			<path d="M286,389.5c2,0,3.7,1.7,3.7,3.7c0,2.2-1.7,3.8-3.7,3.8v-1.1c1.4,0,2.5-1.1,2.5-2.7c0-1.4-1.1-2.5-2.5-2.5V389.5
				L286,389.5z M286,397v-1.1c-1.5,0-2.7-1.1-2.7-2.7c0-1.4,1.1-2.5,2.7-2.5v-1.1c-2.2,0-3.8,1.7-3.8,3.7
				C282.2,395.4,283.8,397,286,397z"/>
		</g>
		<rect x="281.6" y="393.3" class="st15" width="8.5" height="4.1"/>
		<rect x="285.6" y="392.3" width="1" height="4.2"/>
		<rect x="285.6" y="392.3" class="st17" width="1" height="4.2"/>
	</g>
	<g>
		<text transform="matrix(1 0 0 1 279.4002 407.0292)" class="st4 st18">CAN_L</text>
	</g>
	<g>
		<text transform="matrix(1 0 0 1 226.5614 406.55)" class="st4 st18">CAN_H</text>
	</g>
	<line class="st23" x1="601.6" y1="180.3" x2="601.6" y2="390.8"/>
	<line class="st34" x1="601.6" y1="180.3" x2="601.6" y2="390.8"/>
	<g>
		<text transform="matrix(1 0 0 1 578.6915 160.8976)" class="st21 st4 st5">Sunroof Sunshade Switch</text>
	</g>
	<g>
		<text transform="matrix(1 0 0 1 133.4453 398.5815)" class="st21 st4 st5">KG86(E)</text>
	</g>
	<g>
		<text transform="matrix(1 0 0 1 158.6328 398.5815)" class="st21 st4 st5">-24</text>
	</g>
	<g>
		<text transform="matrix(1 0 0 1 185.1138 398.5815)" class="st21 st4 st5">KG86(E)</text>
	</g>
	<g>
		<text transform="matrix(1 0 0 1 210.3013 398.5815)" class="st21 st4 st5">-10</text>
	</g>
	<g>
		<text transform="matrix(1 0 0 1 839.1909 180.2714)" class="st21 st4 st5">P06</text>
	</g>
	<g>
		<text transform="matrix(1 0 0 1 847.0659 180.2714)" class="st21 st4 st5">-11</text>
	</g>
	<line class="st35" x1="539.7" y1="180.3" x2="539.7" y2="390.8"/>
	<rect x="533.5" y="361.1" class="st15" width="12.3" height="6"/>
	<text transform="matrix(1 0 0 1 529.9675 366.0775)" class="st4 st5">O 0.35</text>
	<rect x="533.5" y="203.3" class="st15" width="12.3" height="6"/>
	<text transform="matrix(1 0 0 1 529.9675 208.1849)" class="st4 st5">O 0.35</text>
	<g>
		<g>
			<line class="st16" x1="539.8" y1="180.3" x2="539.8" y2="172"/>
		</g>
		<g>
			<path class="st15" d="M539.7,183.3c1.7,0,3-1.4,3-3c0-1.8-1.4-3.2-3-3.2c-1.8,0-3.2,1.4-3.2,3.2
				C536.6,181.9,538,183.3,539.7,183.3z"/>
			<path d="M539.7,184v-1.1c1.4,0,2.5-1.1,2.5-2.5c0-1.5-1.1-2.7-2.5-2.7v-1.1c2,0,3.7,1.7,3.7,3.8C543.4,182.3,541.8,184,539.7,184
				L539.7,184z M535.9,180.3c0,2,1.6,3.7,3.8,3.7v-1.1c-1.5,0-2.7-1.1-2.7-2.5c0-1.5,1.1-2.7,2.7-2.7v-1.1
				C537.6,176.5,535.9,178.1,535.9,180.3z"/>
		</g>
		<rect x="535.4" y="176.1" class="st15" width="8.5" height="4.1"/>
		<rect x="539.4" y="177" width="1" height="4.2"/>
		<rect x="539.4" y="177" class="st17" width="1" height="4.2"/>
	</g>
	<g>
		<g>
			<line class="st16" x1="539.6" y1="392.9" x2="539.6" y2="401.1"/>
		</g>
		<g>
			<path class="st15" d="M539.5,389.8c1.7,0,3,1.4,3,3c0,1.8-1.4,3.2-3,3.2c-1.8,0-3.2-1.4-3.2-3.2
				C536.3,391.2,537.7,389.8,539.5,389.8z"/>
			<path d="M539.5,389.2c2,0,3.7,1.7,3.7,3.7c0,2.2-1.7,3.8-3.7,3.8v-1.1c1.4,0,2.5-1.1,2.5-2.7c0-1.4-1.1-2.5-2.5-2.5V389.2
				L539.5,389.2z M539.5,396.7v-1.1c-1.5,0-2.7-1.1-2.7-2.7c0-1.4,1.1-2.5,2.7-2.5v-1.1c-2.2,0-3.8,1.7-3.8,3.7
				S537.4,396.7,539.5,396.7z"/>
		</g>
		<rect x="535.2" y="393" class="st15" width="8.5" height="4.1"/>
		<rect x="539.1" y="392" width="1" height="4.2"/>
		<rect x="539.1" y="392" class="st17" width="1" height="4.2"/>
	</g>
	<g>
		<text transform="matrix(1 0 0 1 543.9019 180.2714)" class="st21 st4 st5">P06</text>
	</g>
	<g>
		<text transform="matrix(1 0 0 1 555.7769 180.2714)" class="st21 st4 st5">-5</text>
	</g>
	<g>
		<text transform="matrix(1 0 0 1 545.3481 398.5322)" class="st21 st4 st5">PG86(C)</text>
	</g>
	<g>
		<text transform="matrix(1 0 0 1 570.9106 398.5322)" class="st21 st4 st5">-18</text>
	</g>
	<g>
		<text transform="matrix(1 0 0 1 577.955 170.2669)" class="st4 st18">Sunroof manual updip signal</text>
	</g>
	<rect x="595.4" y="361.1" class="st15" width="12.3" height="6"/>
	<text transform="matrix(1 0 0 1 586.8667 366.0775)" class="st4 st5">G/B 0.35</text>
	<rect x="595.4" y="203.3" class="st15" width="12.3" height="6"/>
	<text transform="matrix(1 0 0 1 586.8667 208.1849)" class="st4 st5">G/B 0.35</text>
	<g>
		<g>
			<line class="st16" x1="601.7" y1="180.3" x2="601.7" y2="172"/>
		</g>
		<g>
			<path class="st15" d="M601.6,183.3c1.7,0,3-1.4,3-3c0-1.8-1.4-3.2-3-3.2c-1.8,0-3.2,1.4-3.2,3.2
				C598.5,181.9,599.9,183.3,601.6,183.3z"/>
			<path d="M601.6,184v-1.1c1.4,0,2.5-1.1,2.5-2.5c0-1.5-1.1-2.7-2.5-2.7v-1.1c2,0,3.7,1.7,3.7,3.8C605.3,182.3,603.7,184,601.6,184
				L601.6,184z M597.8,180.3c0,2,1.6,3.7,3.8,3.7v-1.1c-1.5,0-2.7-1.1-2.7-2.5c0-1.5,1.1-2.7,2.7-2.7v-1.1
				C599.5,176.5,597.8,178.1,597.8,180.3z"/>
		</g>
		<rect x="597.3" y="176.1" class="st15" width="8.5" height="4.1"/>
		<rect x="601.3" y="177" width="1" height="4.2"/>
		<rect x="601.3" y="177" class="st17" width="1" height="4.2"/>
	</g>
	<g>
		<g>
			<line class="st16" x1="601.5" y1="392.9" x2="601.5" y2="401.1"/>
		</g>
		<g>
			<path class="st15" d="M601.4,389.8c1.7,0,3,1.4,3,3c0,1.8-1.4,3.2-3,3.2c-1.8,0-3.2-1.4-3.2-3.2
				C598.2,391.2,599.6,389.8,601.4,389.8z"/>
			<path d="M601.4,389.2c2,0,3.7,1.7,3.7,3.7c0,2.2-1.7,3.8-3.7,3.8v-1.1c1.4,0,2.5-1.1,2.5-2.7c0-1.4-1.1-2.5-2.5-2.5V389.2
				L601.4,389.2z M601.4,396.7v-1.1c-1.5,0-2.7-1.1-2.7-2.7c0-1.4,1.1-2.5,2.7-2.5v-1.1c-2.2,0-3.8,1.7-3.8,3.7
				C597.6,395,599.3,396.7,601.4,396.7z"/>
		</g>
		<rect x="597.1" y="393" class="st15" width="8.5" height="4.1"/>
		<rect x="601" y="392" width="1" height="4.2"/>
		<rect x="601" y="392" class="st17" width="1" height="4.2"/>
	</g>
	<g>
		<text transform="matrix(1 0 0 1 588.955 406.2679)" class="st4 st18">Sunroof manual updip signal</text>
	</g>
	<g>
		<text transform="matrix(1 0 0 1 605.8008 180.2714)" class="st21 st4 st5">P06</text>
	</g>
	<g>
		<text transform="matrix(1 0 0 1 617.6758 180.2714)" class="st21 st4 st5">-3</text>
	</g>
	<g>
		<text transform="matrix(1 0 0 1 607.2471 398.5322)" class="st21 st4 st5">PG86(C)</text>
	</g>
	<g>
		<text transform="matrix(1 0 0 1 632.8096 398.5322)" class="st21 st4 st5">-32</text>
	</g>
	<line class="st25" x1="663.4" y1="180.3" x2="663.4" y2="390.8"/>
	<line class="st36" x1="663.4" y1="180.3" x2="663.4" y2="390.8"/>
	<g>
		<text transform="matrix(1 0 0 1 650.8126 170.2669)" class="st4 st18">Blinder closing signal</text>
	</g>
	<rect x="657.3" y="361.1" class="st15" width="12.3" height="6"/>
	<text transform="matrix(1 0 0 1 649.7244 366.0775)" class="st4 st5">B/W 0.35</text>
	<rect x="657.3" y="203.3" class="st15" width="12.3" height="6"/>
	<text transform="matrix(1 0 0 1 649.7244 208.1849)" class="st4 st5">B/W 0.35</text>
	<g>
		<g>
			<line class="st16" x1="663.6" y1="180.3" x2="663.6" y2="172"/>
		</g>
		<g>
			<path class="st15" d="M663.5,183.3c1.7,0,3-1.4,3-3c0-1.8-1.4-3.2-3-3.2c-1.8,0-3.2,1.4-3.2,3.2
				C660.3,181.9,661.7,183.3,663.5,183.3z"/>
			<path d="M663.5,184v-1.1c1.4,0,2.5-1.1,2.5-2.5c0-1.5-1.1-2.7-2.5-2.7v-1.1c2,0,3.7,1.7,3.7,3.8C667.2,182.3,665.5,184,663.5,184
				L663.5,184z M659.7,180.3c0,2,1.6,3.7,3.8,3.7v-1.1c-1.5,0-2.7-1.1-2.7-2.5c0-1.5,1.1-2.7,2.7-2.7v-1.1
				C661.3,176.5,659.7,178.1,659.7,180.3z"/>
		</g>
		<rect x="659.2" y="176.1" class="st15" width="8.5" height="4.1"/>
		<rect x="663.1" y="177" width="1" height="4.2"/>
		<rect x="663.1" y="177" class="st17" width="1" height="4.2"/>
	</g>
	<g>
		<g>
			<line class="st16" x1="663.4" y1="392.9" x2="663.4" y2="401.1"/>
		</g>
		<g>
			<path class="st15" d="M663.3,389.8c1.7,0,3,1.4,3,3c0,1.8-1.4,3.2-3,3.2c-1.8,0-3.2-1.4-3.2-3.2
				C660.1,391.2,661.5,389.8,663.3,389.8z"/>
			<path d="M663.3,389.2c2,0,3.7,1.7,3.7,3.7c0,2.2-1.7,3.8-3.7,3.8v-1.1c1.4,0,2.5-1.1,2.5-2.7c0-1.4-1.1-2.5-2.5-2.5V389.2
				L663.3,389.2z M663.3,396.7v-1.1c-1.5,0-2.7-1.1-2.7-2.7c0-1.4,1.1-2.5,2.7-2.5v-1.1c-2.2,0-3.8,1.7-3.8,3.7
				S661.1,396.7,663.3,396.7z"/>
		</g>
		<rect x="659" y="393" class="st15" width="8.5" height="4.1"/>
		<rect x="662.9" y="392" width="1" height="4.2"/>
		<rect x="662.9" y="392" class="st17" width="1" height="4.2"/>
	</g>
	<g>
		<text transform="matrix(1 0 0 1 650.8126 406.2679)" class="st4 st18">Blinder closing signal</text>
	</g>
	<g>
		<text transform="matrix(1 0 0 1 667.6587 180.2714)" class="st21 st4 st5">P06</text>
	</g>
	<g>
		<text transform="matrix(1 0 0 1 678.5337 180.2714)" class="st21 st4 st5">-4</text>
	</g>
	<g>
		<text transform="matrix(1 0 0 1 669.105 398.5322)" class="st21 st4 st5">PG86(C)</text>
	</g>
	<g>
		<text transform="matrix(1 0 0 1 694.6675 398.5322)" class="st21 st4 st5">-33</text>
	</g>
	<line class="st37" x1="722.4" y1="180.3" x2="722.4" y2="390.8"/>
	<line class="st38" x1="722.4" y1="180.3" x2="722.4" y2="390.8"/>
	<g>
		<text transform="matrix(1 0 0 1 718.427 170.2669)" class="st4 st18">Backlight +</text>
	</g>
	<rect x="716.3" y="361.1" class="st15" width="12.3" height="6"/>
	<text transform="matrix(1 0 0 1 708.7244 366.0775)" class="st4 st5">R/Y 0.35</text>
	<rect x="716.3" y="203.3" class="st15" width="12.3" height="6"/>
	<text transform="matrix(1 0 0 1 708.7244 208.1849)" class="st4 st5">R/Y 0.35</text>
	<g>
		<g>
			<line class="st16" x1="722.6" y1="180.3" x2="722.6" y2="172"/>
		</g>
		<g>
			<path class="st15" d="M722.5,183.3c1.7,0,3-1.4,3-3c0-1.8-1.4-3.2-3-3.2c-1.8,0-3.2,1.4-3.2,3.2
				C719.3,181.9,720.7,183.3,722.5,183.3z"/>
			<path d="M722.5,184v-1.1c1.4,0,2.5-1.1,2.5-2.5c0-1.5-1.1-2.7-2.5-2.7v-1.1c2,0,3.7,1.7,3.7,3.8C726.2,182.3,724.5,184,722.5,184
				L722.5,184z M718.7,180.3c0,2,1.6,3.7,3.8,3.7v-1.1c-1.5,0-2.7-1.1-2.7-2.5c0-1.5,1.1-2.7,2.7-2.7v-1.1
				C720.3,176.5,718.7,178.1,718.7,180.3z"/>
		</g>
		<rect x="718.2" y="176.1" class="st15" width="8.5" height="4.1"/>
		<rect x="722.1" y="177" width="1" height="4.2"/>
		<rect x="722.1" y="177" class="st17" width="1" height="4.2"/>
	</g>
	<g>
		<g>
			<line class="st16" x1="722.4" y1="392.9" x2="722.4" y2="401.1"/>
		</g>
		<g>
			<path class="st15" d="M722.3,389.8c1.7,0,3,1.4,3,3c0,1.8-1.4,3.2-3,3.2c-1.8,0-3.2-1.4-3.2-3.2
				C719.1,391.2,720.5,389.8,722.3,389.8z"/>
			<path d="M722.3,389.2c2,0,3.7,1.7,3.7,3.7c0,2.2-1.7,3.8-3.7,3.8v-1.1c1.4,0,2.5-1.1,2.5-2.7c0-1.4-1.1-2.5-2.5-2.5V389.2
				L722.3,389.2z M722.3,396.7v-1.1c-1.5,0-2.7-1.1-2.7-2.7c0-1.4,1.1-2.5,2.7-2.5v-1.1c-2.2,0-3.8,1.7-3.8,3.7
				S720.1,396.7,722.3,396.7z"/>
		</g>
		<rect x="718" y="393" class="st15" width="8.5" height="4.1"/>
		<rect x="721.9" y="392" width="1" height="4.2"/>
		<rect x="721.9" y="392" class="st17" width="1" height="4.2"/>
	</g>
	<g>
		<text transform="matrix(1 0 0 1 718.2003 406.2679)" class="st4 st18">Backlight</text>
	</g>
	<g>
		<text transform="matrix(1 0 0 1 726.6587 180.2714)" class="st21 st4 st5">P06</text>
	</g>
	<g>
		<text transform="matrix(1 0 0 1 737.5337 180.2714)" class="st21 st4 st5">-12</text>
	</g>
	<g>
		<text transform="matrix(1 0 0 1 728.105 398.5322)" class="st21 st4 st5">PG86(C)</text>
	</g>
	<g>
		<text transform="matrix(1 0 0 1 753.6675 398.5322)" class="st21 st4 st5">-35</text>
	</g>
	<g>
		<text transform="matrix(1 0 0 1 482.8154 180.2714)" class="st21 st4 st5">P06</text>
	</g>
	<g>
		<text transform="matrix(1 0 0 1 493.6904 180.2714)" class="st21 st4 st5">-6</text>
	</g>
	<g>
		<text transform="matrix(1 0 0 1 484.2612 398.5322)" class="st21 st4 st5">PG86(C)</text>
	</g>
	<g>
		<text transform="matrix(1 0 0 1 511.1572 398.5322)" class="st21 st4 st5">-19</text>
	</g>
	<g>
		<text transform="matrix(1 0 0 1 422.4228 179.9799)" class="st21 st4 st5">P06</text>
	</g>
	<g>
		<text transform="matrix(1 0 0 1 433.2978 179.9799)" class="st21 st4 st5">-2</text>
	</g>
	<g>
		<text transform="matrix(1 0 0 1 422.8691 398.2407)" class="st21 st4 st5">PG86(C)</text>
	</g>
	<g>
		<text transform="matrix(1 0 0 1 448.4316 398.2407)" class="st21 st4 st5">-20</text>
	</g>
	<g>
		<text transform="matrix(1 0 0 1 361.3403 180.2714)" class="st21 st4 st5">P06</text>
	</g>
	<g>
		<text transform="matrix(1 0 0 1 372.2153 180.2714)" class="st21 st4 st5">-1</text>
	</g>
	<g>
		<text transform="matrix(1 0 0 1 361.7866 398.5322)" class="st21 st4 st5">PG86(C)</text>
	</g>
	<g>
		<text transform="matrix(1 0 0 1 387.3491 398.5322)" class="st21 st4 st5">-21</text>
	</g>
	<g>
		<text transform="matrix(1 0 0 1 827.062 354.4189)" class="st21 st4 st5">Ep01</text>
	</g>
	<g>
		<text transform="matrix(1 0 0 1 240.8393 398.5815)" class="st21 st4 st5">G86(H)</text>
	</g>
	<g>
		<text transform="matrix(1 0 0 1 261.7558 398.5815)" class="st21 st4 st5">-14</text>
	</g>
	<g>
		<text transform="matrix(1 0 0 1 292.5078 398.5815)" class="st21 st4 st5">G86(H)</text>
	</g>
	<g>
		<text transform="matrix(1 0 0 1 313.4243 398.5815)" class="st21 st4 st5">-13</text>
	</g>
	<polyline class="st25" points="777.2,180.3 777.2,229.6 835.1,229.6 	"/>
	<g>
		<text transform="matrix(1 0 0 1 771.6552 170.2687)" class="st4 st18">GND</text>
	</g>
	<g>
		<rect x="772.4" y="203.3" class="st15" width="12.3" height="6"/>
		<text transform="matrix(1 0 0 1 766.7202 208.1847)" class="st4 st5">B 0.35</text>
	</g>
	<g>
		<g>
			<line class="st16" x1="777.6" y1="180.3" x2="777.6" y2="172"/>
		</g>
		<g>
			<path class="st15" d="M777.5,183.3c1.7,0,3-1.4,3-3c0-1.8-1.4-3.2-3-3.2c-1.8,0-3.2,1.4-3.2,3.2
				C774.3,181.9,775.7,183.3,777.5,183.3z"/>
			<path d="M777.5,184v-1.1c1.4,0,2.5-1.1,2.5-2.5c0-1.5-1.1-2.7-2.5-2.7v-1.1c2,0,3.7,1.7,3.7,3.8C781.1,182.3,779.5,184,777.5,184
				L777.5,184z M773.7,180.3c0,2,1.6,3.7,3.8,3.7v-1.1c-1.5,0-2.7-1.1-2.7-2.5c0-1.5,1.1-2.7,2.7-2.7v-1.1
				C775.3,176.5,773.7,178.1,773.7,180.3z"/>
		</g>
		<rect x="773.1" y="176.1" class="st15" width="8.5" height="4.1"/>
		<rect x="777.1" y="177" width="1" height="4.2"/>
		<rect x="777.1" y="177" class="st17" width="1" height="4.2"/>
	</g>
	<g>
		<text transform="matrix(1 0 0 1 781.3008 180.2714)" class="st21 st4 st5">P06</text>
	</g>
	<g>
		<text transform="matrix(1 0 0 1 792.1758 180.2714)" class="st21 st4 st5">-10</text>
	</g>
	<g id="REB_x2C_A3_1_">
		<rect x="31.2" y="139.1" class="st39" width="48.4" height="56.3"/>
	</g>
	<g id="RF22_x2C_A3_3_">
		<g>
			<g>
				<path class="st40" d="M53.1,170.4c-1.2,0-2.2,1-2.2,2.2s1,2.2,2.2,2.2s2.2-1,2.2-2.2C55.4,171.4,54.4,170.4,53.1,170.4"/>
			</g>
			<g>
				<path class="st40" d="M53.1,154.6c-1.2,0-2.2,1-2.2,2.1c0,1.2,1,2.2,2.2,2.2s2.2-0.9,2.2-2.2C55.4,155.6,54.4,154.6,53.1,154.6"
					/>
			</g>
			<g>
				<path class="st40" d="M51.7,158.4c-0.1,2.5,0.2,3.2,1.3,4.3c1.2,1.2,2.4,1.7,2.8,3.7c0.4,1.6-0.1,3.5-1.1,4.5"/>
			</g>
			<g>
				<path class="st40" d="M54.6,170.9c0.2-0.8,0-2.9-0.6-3.7c-0.9-1.2-2.7-2.1-3.3-4c-0.9-2.8,0.7-4.6,1.1-5"/>
			</g>
		</g>
	</g>
	<line class="st37" x1="53.3" y1="203.8" x2="53.3" y2="390.8"/>
	<line class="st37" x1="53.3" y1="203.8" x2="53.3" y2="390.8"/>
	<g>
		<g>
			<polyline class="st16" points="53.1,174.7 53.1,178.7 53.1,195.4 			"/>
		</g>
	</g>
	<g>
		<g>
			<polyline class="st16" points="53.1,154.3 53.1,150.1 53.1,47.4 			"/>
		</g>
	</g>
	<g>
		<g>
			<line class="st16" x1="53.2" y1="203.8" x2="53.2" y2="195.6"/>
		</g>
		<g>
			<path class="st15" d="M53.3,206.9c-1.7,0-3-1.4-3-3c0-1.8,1.4-3.2,3-3.2c1.8,0,3.2,1.4,3.2,3.2C56.4,205.5,55,206.9,53.3,206.9z"
				/>
			<path d="M53.3,207.5c-2,0-3.7-1.6-3.7-3.7c0-2.2,1.7-3.8,3.7-3.8v1.1c-1.4,0-2.5,1.1-2.5,2.7c0,1.4,1.1,2.5,2.5,2.5V207.5
				L53.3,207.5z M53.3,200v1.1c1.5,0,2.7,1.1,2.7,2.7c0,1.4-1.1,2.5-2.7,2.5v1.1c2.2,0,3.8-1.6,3.8-3.7
				C57.1,201.7,55.4,200,53.3,200z"/>
		</g>
		<rect x="49.1" y="199.6" class="st15" width="8.5" height="4.1"/>
		<rect x="52.6" y="200.5" width="1" height="4.2"/>
		<rect x="52.6" y="200.5" class="st17" width="1" height="4.2"/>
	</g>
	<g>
		<g>
			<line class="st16" x1="53.5" y1="392.8" x2="53.5" y2="401.1"/>
		</g>
		<g>
			<path class="st15" d="M53.5,389.8c1.6,0,2.9,1.4,3,3c0,1.8-1.4,3.3-3,3.3c-1.8,0-3.2-1.4-3.2-3.2
				C50.2,391.1,51.7,389.7,53.5,389.8z"/>
			<path d="M53.4,389.1c2,0,3.7,1.7,3.7,3.7c0,2.2-1.7,3.8-3.7,3.8v-1.1c1.4,0,2.5-1.1,2.5-2.7c0-1.4-1.1-2.5-2.5-2.5V389.1
				L53.4,389.1z M53.4,396.6v-1.1c-1.5,0-2.7-1.1-2.7-2.7c0-1.4,1.1-2.5,2.7-2.5v-1.1c-2.2,0-3.8,1.7-3.8,3.7
				C49.6,395,51.2,396.6,53.4,396.6z"/>
		</g>
		<rect x="49.1" y="392.9" class="st15" width="8.5" height="4.1"/>
		<rect x="53" y="391.9" width="1" height="4.2"/>
		<rect x="53" y="391.9" class="st17" width="1" height="4.2"/>
	</g>
	<rect x="46.8" y="235.2" class="st15" width="12.7" height="6"/>
	<g>
		<path class="st41" d="M50,47.1c0-1.7,1.3-2.9,2.8-2.9c1.6,0,2.9,1.2,2.9,2.9c0,1.5-1.3,2.7-2.9,2.7C51.3,49.8,50,48.6,50,47.1z"/>
		<g>
			<path class="st42" d="M50,47.1c0-1.7,1.3-2.9,2.8-2.9c1.6,0,2.9,1.2,2.9,2.9c0,1.5-1.3,2.7-2.9,2.7C51.3,49.8,50,48.6,50,47.1"/>
		</g>
	</g>
	<rect x="46.9" y="360.8" class="st15" width="12.7" height="6"/>
	<rect x="47" y="360.8" class="st15" width="12.5" height="6"/>
	<g>
		<text transform="matrix(1 0 0 1 45.4656 365.6895)" class="st4 st5">R 10.0</text>
	</g>
	<g>
		<text transform="matrix(1 0 0 1 42.6911 240.3701)" class="st4 st5">R 10.0</text>
	</g>
	<g>
		<g>
			<text transform="matrix(1 0 0 1 57.4953 169.9483)" class="st4 st5">100A</text>
		</g>
	</g>
	<g id="GB031_1_">
		<g>
			<g>
				<line class="st32" x1="127.8" y1="783.3" x2="127.8" y2="786"/>
			</g>
			<g>
				<line class="st32" x1="120.7" y1="786" x2="134.6" y2="786"/>
			</g>
			<g>
				<line class="st32" x1="123.5" y1="788.2" x2="131.8" y2="788.2"/>
			</g>
			<g>
				<line class="st32" x1="130.1" y1="790.3" x2="125.3" y2="790.3"/>
			</g>
		</g>
		<g>
			<rect x="117.3" y="792.8" class="st15" width="20.3" height="8.2"/>
			<rect x="117.6" y="793.1" class="st33" width="19.7" height="7.6"/>
		</g>
	</g>
	<line class="st0" x1="127.9" y1="436.2" x2="127.8" y2="785.1"/>
	<g>
		<g>
			<line class="st16" x1="128" y1="435.4" x2="128" y2="427.2"/>
		</g>
		<g>
			<path class="st15" d="M128.1,438.5c-1.7,0-3-1.4-3-3c0-1.8,1.4-3.2,3-3.2c1.8,0,3.2,1.4,3.2,3.2
				C131.3,437.1,129.9,438.5,128.1,438.5z"/>
			<path d="M128.1,439.1c-2,0-3.7-1.6-3.7-3.7c0-2.2,1.7-3.8,3.7-3.8v1.1c-1.4,0-2.5,1.1-2.5,2.7c0,1.4,1.1,2.5,2.5,2.5V439.1
				L128.1,439.1z M128.1,431.6v1.1c1.5,0,2.7,1.1,2.7,2.7c0,1.4-1.1,2.5-2.7,2.5v1.1c2.2,0,3.8-1.6,3.8-3.7
				C131.9,433.3,130.3,431.6,128.1,431.6z"/>
		</g>
		<rect x="123.9" y="431.2" class="st15" width="8.5" height="4.1"/>
		<rect x="127.5" y="432.1" width="1" height="4.2"/>
		<rect x="127.5" y="432.1" class="st17" width="1" height="4.2"/>
	</g>
	<rect x="124.9" y="455.9" class="st15" width="6.4" height="6"/>
	<g>
		<text transform="matrix(1 0 0 1 119.8822 460.6881)" class="st4 st5">B 2.5</text>
	</g>
	<g id="GB031_12_">
		<g>
			<g>
				<line class="st32" x1="53.9" y1="783.3" x2="53.9" y2="786"/>
			</g>
			<g>
				<line class="st32" x1="46.8" y1="786" x2="60.6" y2="786"/>
			</g>
			<g>
				<line class="st32" x1="49.6" y1="788.2" x2="57.8" y2="788.2"/>
			</g>
			<g>
				<line class="st32" x1="56.2" y1="790.3" x2="51.3" y2="790.3"/>
			</g>
		</g>
		<g>
			<rect x="43.4" y="792.8" class="st15" width="20.3" height="8.2"/>
			<rect x="43.7" y="793.1" class="st33" width="19.7" height="7.6"/>
		</g>
	</g>
	<line class="st0" x1="54.3" y1="436.2" x2="54.2" y2="785.1"/>
	<g>
		<g>
			<line class="st16" x1="54.3" y1="435.7" x2="54.3" y2="427.4"/>
		</g>
		<g>
			<path class="st15" d="M54.3,438.7c-1.7,0-3-1.4-3-3c0-1.8,1.4-3.2,3-3.2c1.8,0,3.2,1.4,3.2,3.2C57.5,437.3,56.1,438.7,54.3,438.7
				z"/>
			<path d="M54.3,439.3c-2,0-3.7-1.6-3.7-3.7c0-2.2,1.7-3.8,3.7-3.8v1.1c-1.4,0-2.5,1.1-2.5,2.7c0,1.4,1.1,2.5,2.5,2.5V439.3
				L54.3,439.3z M54.3,431.9v1.1c1.5,0,2.7,1.1,2.7,2.7c0,1.4-1.1,2.5-2.7,2.5v1.1c2.2,0,3.8-1.6,3.8-3.7
				C58.2,433.5,56.5,431.9,54.3,431.9z"/>
		</g>
		<rect x="50.2" y="431.5" class="st15" width="8.5" height="4.1"/>
		<rect x="53.7" y="432.4" width="1" height="4.2"/>
		<rect x="53.7" y="432.4" class="st17" width="1" height="4.2"/>
	</g>
	<rect x="51.3" y="455.9" class="st15" width="6.4" height="6"/>
	<g>
		<text transform="matrix(1 0 0 1 46.2944 460.6881)" class="st4 st5">B 2.5</text>
	</g>
	<g>
		<text transform="matrix(1 0 0 1 57.823 163.3302)" class="st21 st4 st5">F4/01</text>
	</g>
	<g>
		<text transform="matrix(1 0 0 1 57.4424 202.5878)" class="st21 st4 st5">KB46_A</text>
	</g>
	<g>
		<text transform="matrix(1 0 0 1 82.3174 202.5878)" class="st21 st4 st5">-1</text>
	</g>
	<g>
		<text transform="matrix(1 0 0 1 58.7851 398.1962)" class="st21 st4 st5">KG86(A)</text>
	</g>
	<g>
		<text transform="matrix(1 0 0 1 83.7851 398.1962)" class="st21 st4 st5">-1</text>
	</g>
	<g>
		<text transform="matrix(1 0 0 1 132.1416 434.7704)" class="st21 st4 st5">BG86(D)</text>
	</g>
	<g>
		<text transform="matrix(1 0 0 1 157.373 434.7704)" class="st21 st4 st5">-2</text>
	</g>
	<g>
		<text transform="matrix(1 0 0 1 120.042 799.1288)" class="st21 st4 st5">Eb06</text>
	</g>
	<g>
		<text transform="matrix(1 0 0 1 58.5537 434.7704)" class="st21 st4 st5">BG86(D)</text>
	</g>
	<g>
		<text transform="matrix(1 0 0 1 83.7851 434.7704)" class="st21 st4 st5">-1</text>
	</g>
	<g>
		<text transform="matrix(1 0 0 1 45.9346 799.1288)" class="st21 st4 st5">Eb08</text>
	</g>
	<path class="st31" d="M725.3,267.9c0,1.7-1.3,2.9-2.8,2.9c-1.6,0-2.9-1.2-2.9-2.9c0-1.5,1.3-2.7,2.9-2.7
		C724,265.1,725.3,266.3,725.3,267.9z"/>
	<g>
		<text transform="matrix(1 0 0 1 106.6662 190.4101)" class="st43 st4 st5">See Intelligent Access Network</text>
		<text transform="matrix(1 0 0 1 129.8362 197.6101)" class="st43 st4 st5">Circut Diagram</text>
	</g>
	<g>
		<text transform="matrix(1 0 0 1 230.6363 190.7067)" class="st43 st4 st5">See Chassis Network</text>
		<text transform="matrix(1 0 0 1 240.1764 197.9067)" class="st43 st4 st5">Circut Diagram</text>
	</g>
	<text transform="matrix(1 0 0 1 58.1562 135.3201)" class="st44 st4 st5">Positive Fues Box</text>
	<text transform="matrix(1 0 0 1 41.5503 406.3602)" class="st43 st4 st18">Constant power</text>
	<text transform="matrix(1 0 0 1 35.9403 425.4802)" class="st43 st4 st18">Power supply ground</text>
	<text transform="matrix(1 0 0 1 104.8802 425.4802)" class="st43 st4 st18">Power supply ground</text>
	<g>
		<text transform="matrix(1 0 0 1 470.3427 420.4903)" class="st20 st4 st18">Hall signal</text>
		<text transform="matrix(1 0 0 1 470.3427 425.2903)" class="st20 st4 st18">power supply</text>
	</g>
	<text transform="matrix(1 0 0 1 523.5686 423.9478)" class="st20 st4 st18">Sunshade motor -</text>
	<text transform="matrix(1 0 0 1 586.4985 423.9478)" class="st20 st4 st18">Window glass motor-</text>
	<text transform="matrix(1 0 0 1 647.0686 423.9478)" class="st20 st4 st18">Sunshade motor+</text>
	<text transform="matrix(1 0 0 1 709.2285 423.9478)" class="st20 st4 st18">Window glass motor+</text>
	<text transform="matrix(1 0 0 1 770.5686 423.9478)" class="st20 st4 st18">Hall signal ground</text>
	<text transform="matrix(1 0 0 1 218.6686 423.9478)" class="st20 st4 st18">Sunroof Hall A</text>
	<text transform="matrix(1 0 0 1 279.9185 423.9478)" class="st20 st4 st18">Sunroof Hall B</text>
	<text transform="matrix(1 0 0 1 336.6585 423.9478)" class="st20 st4 st18">Sunshade Hall B</text>
	<text transform="matrix(1 0 0 1 394.1385 423.9478)" class="st20 st4 st18">Sunshade Hall A</text>
	<text transform="matrix(1 0 0 1 514.8781 714.701)" class="st45 st4 st5">Sunroof Assembly</text>
	<text transform="matrix(1 0 0 1 336.7899 406.55)" class="st20 st4 st18">Sunroof open signal</text>
	<text transform="matrix(1 0 0 1 396.8191 406.55)" class="st20 st4 st18">Sunroof close signal</text>
	<text transform="matrix(1 0 0 1 460.3143 406.2679)" class="st20 st4 st18">Sunshade open signal</text>
	<text transform="matrix(1 0 0 1 520.4098 407.0292)" class="st20 st4 st18">Sunshade close signal</text>
	<text transform="matrix(1 0 0 1 394.1382 415.3245)" class="st45 st4 st5">Right Body Control Module</text>
	<text transform="matrix(1 0 0 1 341.4879 168.8323)" class="st20 st4 st18">Sunroof open signal</text>
	<text transform="matrix(1 0 0 1 401.5171 168.8323)" class="st20 st4 st18">Sunroof close signal</text>
	<text transform="matrix(1 0 0 1 465.0123 168.5502)" class="st20 st4 st18">Sunshade open signal</text>
	<text transform="matrix(1 0 0 1 525.1078 169.3115)" class="st20 st4 st18">Sunshade close signal</text>
</g>
<path class="st31" d="M838,229.6c0,1.7-1.3,2.9-2.8,2.9c-1.6,0-2.9-1.2-2.9-2.9c0-1.5,1.3-2.7,2.9-2.7
	C836.7,226.8,838,228,838,229.6z"/>
</svg>
