<?xml version="1.0" encoding="utf-8"?>
<!-- Generator: Adobe Illustrator 24.0.1, SVG Export Plug-In . SVG Version: 6.00 Build 0)  -->
<svg version="1.1" xmlns="http://www.w3.org/2000/svg" xmlns:xlink="http://www.w3.org/1999/xlink" x="0px" y="0px"
	 viewBox="0 0 554.6 841.9" style="enable-background:new 0 0 554.6 841.9;" xml:space="preserve">
<style type="text/css">
	.st0{fill:#DCDDDD;}
	.st1{fill:none;stroke:#000000;stroke-width:0.5;}
	.st2{fill:none;stroke:#000000;}
	.st3{font-family:'FZLTHJW--GB1-0';}
	.st4{font-size:6px;}
	.st5{fill:none;stroke:#000000;stroke-width:0.5;stroke-miterlimit:10;}
	.st6{fill:#DCDDDD;stroke:#000000;stroke-width:0.5;stroke-linecap:round;stroke-miterlimit:10;}
	.st7{fill:none;stroke:#89438F;stroke-width:3;stroke-linecap:round;stroke-miterlimit:10;}
	.st8{fill:none;stroke:#F29C97;stroke-width:3;stroke-linecap:round;stroke-miterlimit:10;}
	.st9{fill:none;stroke:#D71618;stroke-width:3;stroke-linecap:round;stroke-miterlimit:10;}
	.st10{fill:none;stroke:#D71618;stroke-linecap:round;stroke-miterlimit:10;}
	.st11{fill:#9FD9F6;stroke:#000000;stroke-width:0.5;stroke-linecap:round;stroke-miterlimit:10;}
	.st12{fill:none;stroke:#000000;stroke-width:1.3;}
	.st13{fill:#FFFFFF;}
	.st14{fill:#FFFFFF;stroke:#000000;stroke-width:0.25;stroke-linecap:round;stroke-linejoin:round;}
	.st15{fill:none;stroke:#000000;stroke-width:3;stroke-linecap:round;stroke-miterlimit:10;}
	.st16{fill:none;stroke:#000000;stroke-width:0.6;stroke-linecap:round;stroke-linejoin:round;}
	.st17{fill:none;stroke:#000000;stroke-width:0.72;stroke-linecap:round;stroke-linejoin:round;}
	.st18{fill:#FFFFFF;stroke:#000000;stroke-width:0.25;}
	.st19{stroke:#FFFFFF;stroke-width:0.5;}
	.st20{fill:none;stroke:#070102;stroke-width:0.75;}
	.st21{stroke:#FFFFFF;stroke-width:0.5;stroke-linecap:round;}
	.st22{fill:none;stroke:#FFFFFF;stroke-width:1.0001;}
	.st23{fill:none;stroke:#000000;stroke-width:0.6001;stroke-linecap:round;stroke-linejoin:round;}
	.st24{fill:none;stroke:#000000;stroke-width:0.6001;stroke-linecap:round;}
	.st25{fill:none;stroke:#000000;stroke-width:0.5;stroke-linecap:round;stroke-linejoin:round;}
	.st26{fill:none;stroke:#000000;stroke-width:0.75;stroke-linecap:round;stroke-miterlimit:10;}
	.st27{fill:#005EAD;}
	.st28{fill:#040000;}
	.st29{font-size:4px;}
	.st30{fill:#065AA1;}
</style>
<g id="图层_1">
	<g>
		<polyline class="st0" points="28.6,41.9 513,41.9 513,97.5 28.6,97.5 		"/>
		<g>
			<line class="st1" x1="28.6" y1="47.6" x2="513" y2="47.6"/>
			<line class="st2" x1="28.6" y1="41.6" x2="513" y2="41.6"/>
			<line class="st1" x1="28.6" y1="58.8" x2="513" y2="58.8"/>
			<line class="st1" x1="28.6" y1="69.9" x2="513" y2="69.9"/>
			<line class="st1" x1="28.6" y1="81.1" x2="512.8" y2="81.1"/>
			<line class="st1" x1="28.6" y1="92.3" x2="513" y2="92.3"/>
			<line class="st2" x1="28.6" y1="97.5" x2="513" y2="97.5"/>
		</g>
		<text transform="matrix(1 0 0 1 517.1235 49.6299)" class="st3 st4">30</text>
		<text transform="matrix(1 0 0 1 517.1235 60.7959)" class="st3 st4">IG1</text>
		<text transform="matrix(1 0 0 1 517.1235 72.4209)" class="st3 st4">IG3</text>
		<text transform="matrix(1 0 0 1 517.1235 83.9248)" class="st3 st4">IG4</text>
		<text transform="matrix(1 0 0 1 517.124 94.3415)" class="st3 st4">ACC</text>
		<g>
			<text transform="matrix(1 0 0 1 18.1615 49.7121)" class="st3 st4">30</text>
			<text transform="matrix(1 0 0 1 14.9974 60.8779)" class="st3 st4">IG1</text>
			<text transform="matrix(1 0 0 1 15.0443 72.5029)" class="st3 st4">IG3</text>
			<text transform="matrix(1 0 0 1 14.9505 84.0029)" class="st3 st4">IG4</text>
			<text transform="matrix(1 0 0 1 11.4584 93.8362)" class="st3 st4">ACC</text>
		</g>
	</g>
	<g>
		<path class="st5" d="M422.5,391.6c-0.8,0-1.5-0.5-1.5-1.2V206.2c0-0.7,0.7-1.2,1.5-1.2s1.5,0.5,1.5,1.2v184.2
			C424,391,423.3,391.6,422.5,391.6z"/>
	</g>
	<g id="块体_1_">
		<g id="REB_x2C_A3_1_">
			<rect x="53" y="139.7" class="st6" width="406.4" height="56.3"/>
		</g>
	</g>
	<line class="st7" x1="313" y1="732.3" x2="313" y2="484.3"/>
	<line class="st8" x1="363.5" y1="732.3" x2="363.5" y2="483.2"/>
	<line class="st9" x1="82.5" y1="206.8" x2="82.5" y2="433.8"/>
	<line class="st10" x1="422.5" y1="390.4" x2="422.5" y2="206.2"/>
	<line class="st9" x1="422.5" y1="433.4" x2="422.5" y2="391.6"/>
	<g>
		<rect x="59" y="444" class="st11" width="175.2" height="32.9"/>
	</g>
	<g id="GB031_8_">
		<g>
			<g>
				<line class="st12" x1="82.5" y1="783.6" x2="82.5" y2="786.3"/>
			</g>
			<g>
				<line class="st12" x1="75.4" y1="786.3" x2="89.2" y2="786.3"/>
			</g>
			<g>
				<line class="st12" x1="78.2" y1="788.5" x2="86.4" y2="788.5"/>
			</g>
			<g>
				<line class="st12" x1="84.8" y1="790.6" x2="79.9" y2="790.6"/>
			</g>
		</g>
		<g>
			<rect x="72" y="793.1" class="st13" width="20.3" height="8.2"/>
			<rect x="72.3" y="793.5" class="st14" width="19.7" height="7.6"/>
		</g>
	</g>
	<line class="st15" x1="82.5" y1="486.1" x2="82.5" y2="785.4"/>
	<g>
		<g>
			<line class="st16" x1="82.5" y1="485.2" x2="82.5" y2="476.9"/>
		</g>
		<g>
			<path class="st13" d="M82.6,488.2c-1.6,0-3-1.4-3-3c0-1.8,1.4-3.2,3-3.2c1.8,0,3.2,1.4,3.2,3.2C85.8,486.8,84.4,488.2,82.6,488.2
				z"/>
			<path d="M82.6,488.9c-2,0-3.7-1.6-3.7-3.7c0-2.2,1.7-3.8,3.7-3.8v1.1c-1.4,0-2.5,1.1-2.5,2.7c0,1.4,1.1,2.5,2.5,2.5V488.9
				L82.6,488.9z M82.6,481.4v1.1c1.5,0,2.7,1.1,2.7,2.7c0,1.4-1.1,2.5-2.7,2.5v1.1c2.2,0,3.8-1.6,3.8-3.7
				C86.4,483,84.8,481.4,82.6,481.4z"/>
		</g>
		<rect x="78.4" y="481" class="st13" width="8.5" height="4.1"/>
		<rect x="82" y="481.9" width="1" height="4.2"/>
		<rect x="82" y="481.9" class="st17" width="1" height="4.2"/>
	</g>
	<rect x="79.5" y="501.2" class="st13" width="6.4" height="6"/>
	<g>
		<text transform="matrix(1 0 0 1 74.7413 506.127)" class="st3 st4">B 0.35</text>
	</g>
	<rect x="79.5" y="586.2" class="st13" width="6.4" height="6"/>
	<g>
		<text transform="matrix(1 0 0 1 74.7413 591.127)" class="st3 st4">B 0.5</text>
	</g>
	<rect x="79.5" y="690.2" class="st13" width="6.4" height="6"/>
	<g>
		<text transform="matrix(1 0 0 1 74.7413 695.127)" class="st3 st4">B 0.35</text>
	</g>
	<rect x="79.5" y="756.2" class="st13" width="6.4" height="6"/>
	<g>
		<text transform="matrix(1 0 0 1 74.7413 761.127)" class="st3 st4">B 1.0</text>
	</g>
	<rect x="87.1" y="251" class="st18" width="26.3" height="6.6"/>
	<text transform="matrix(1 0 0 1 87.3855 256.4188)" class="st3 st4">SP2868</text>
	<path class="st19" d="M85.2,254.9c0,1.7-1.3,2.9-2.8,2.9c-1.6,0-2.9-1.2-2.9-2.9c0-1.5,1.3-2.7,2.9-2.7
		C83.9,252.2,85.2,253.4,85.2,254.9z"/>
	<g id="RF22_x2C_A3_9_">
		<g>
			<g>
				<path class="st20" d="M82.3,171c-1.2,0-2.2,1-2.2,2.2s1,2.2,2.2,2.2s2.2-1,2.2-2.2C84.6,172,83.6,171,82.3,171"/>
			</g>
			<g>
				<path class="st20" d="M82.3,155.2c-1.2,0-2.2,1-2.2,2.1c0,1.2,1,2.2,2.2,2.2s2.2-0.9,2.2-2.2C84.6,156.2,83.6,155.2,82.3,155.2"
					/>
			</g>
			<g>
				<path class="st20" d="M80.9,159c-0.1,2.5,0.2,3.2,1.3,4.3c1.2,1.2,2.4,1.7,2.8,3.7c0.4,1.6-0.1,3.5-1.1,4.5"/>
			</g>
			<g>
				<path class="st20" d="M83.8,171.6c0.2-0.8,0-2.9-0.6-3.7c-0.9-1.2-2.7-2.1-3.3-4c-0.9-2.8,0.7-4.6,1.1-5"/>
			</g>
		</g>
	</g>
	<g>
		<g>
			<polyline class="st16" points="82.3,175.4 82.3,193 82.3,195.9 			"/>
		</g>
	</g>
	<g>
		<g>
			<polyline class="st16" points="82.3,154.9 82.3,150.8 82.3,59 			"/>
		</g>
	</g>
	<g>
		<g>
			<line class="st16" x1="82.4" y1="204.5" x2="82.4" y2="196.2"/>
		</g>
		<g>
			<path class="st13" d="M82.5,207.5c-1.6,0-3-1.4-3-3c0-1.8,1.4-3.2,3-3.2c1.8,0,3.2,1.4,3.2,3.2C85.6,206.1,84.2,207.5,82.5,207.5
				z"/>
			<path d="M82.5,208.1c-2,0-3.7-1.6-3.7-3.7c0-2.2,1.7-3.8,3.7-3.8v1.1c-1.4,0-2.5,1.1-2.5,2.7c0,1.4,1.1,2.5,2.5,2.5V208.1
				L82.5,208.1z M82.5,200.7v1.1c1.5,0,2.7,1.1,2.7,2.7c0,1.4-1.1,2.5-2.7,2.5v1.1c2.2,0,3.8-1.6,3.8-3.7
				C86.3,202.3,84.6,200.7,82.5,200.7z"/>
		</g>
		<rect x="78.3" y="200.3" class="st13" width="8.5" height="4.1"/>
		<rect x="81.8" y="201.2" width="1" height="4.2"/>
		<rect x="81.8" y="201.2" class="st17" width="1" height="4.2"/>
	</g>
	<g>
		<g>
			<line class="st16" x1="82.7" y1="435.8" x2="82.7" y2="444"/>
		</g>
		<g>
			<path class="st13" d="M82.6,432.7c1.6,0,3,1.4,3,3c0,1.8-1.4,3.2-3,3.2c-1.8,0-3.2-1.4-3.2-3.2C79.4,434.1,80.8,432.7,82.6,432.7
				z"/>
			<path d="M82.6,432.1c2,0,3.7,1.6,3.7,3.7c0,2.2-1.7,3.8-3.7,3.8v-1.1c1.4,0,2.5-1.1,2.5-2.7c0-1.4-1.1-2.5-2.5-2.5V432.1
				L82.6,432.1z M82.6,439.6v-1.1c-1.5,0-2.7-1.1-2.7-2.7c0-1.4,1.1-2.5,2.7-2.5v-1.1c-2.2,0-3.8,1.6-3.8,3.7
				C78.8,437.9,80.4,439.6,82.6,439.6z"/>
		</g>
		<rect x="78.3" y="435.9" class="st13" width="8.5" height="4.1"/>
		<rect x="82.2" y="434.9" width="1" height="4.2"/>
		<rect x="82.2" y="434.9" class="st17" width="1" height="4.2"/>
	</g>
	<rect x="76.5" y="225.1" class="st13" width="12.5" height="6"/>
	<g>
		<text transform="matrix(1 0 0 1 71.0185 229.9429)" class="st3 st4">R 0.35</text>
	</g>
	<rect x="78.3" y="290.6" class="st13" width="12.5" height="6"/>
	<g>
		<text transform="matrix(1 0 0 1 72.8471 295.3569)" class="st3 st4">R 0.35</text>
	</g>
	<rect x="76.3" y="402.7" class="st13" width="12.5" height="6"/>
	<g>
		<text transform="matrix(1 0 0 1 72.6183 407.4724)" class="st3 st4">R 0.35</text>
	</g>
	<g>
		<path class="st21" d="M79.2,58.7c0-1.7,1.3-2.9,2.8-2.9c1.6,0,2.9,1.2,2.9,2.9c0,1.5-1.3,2.7-2.9,2.7
			C80.5,61.5,79.2,60.2,79.2,58.7z"/>
		<g>
			<path class="st22" d="M79.2,58.7c0-1.7,1.3-2.9,2.8-2.9c1.6,0,2.9,1.2,2.9,2.9c0,1.5-1.3,2.7-2.9,2.7
				C80.5,61.5,79.2,60.2,79.2,58.7"/>
		</g>
	</g>
	<g>
		<g>
			<text transform="matrix(1 0 0 1 89.7197 170.5938)" class="st3 st4">7.5A</text>
		</g>
	</g>
	<line class="st7" x1="363" y1="294.3" x2="363" y2="437.8"/>
	<line class="st8" x1="150.5" y1="436.7" x2="150.5" y2="293.3"/>
	<line class="st8" x1="312.5" y1="294.3" x2="312.5" y2="436.9"/>
	<line class="st7" x1="201" y1="437.8" x2="201" y2="293.3"/>
	<g>
		<rect x="194.3" y="403.6" class="st13" width="13.9" height="6"/>
		<g>
			<text transform="matrix(1 0 0 1 192.6614 408.7207)" class="st3 st4">V 0.35</text>
		</g>
	</g>
	<g>
		<rect x="145.2" y="403.6" class="st13" width="13.9" height="6"/>
		<g>
			<text transform="matrix(1 0 0 1 141.5187 408.7207)" class="st3 st4">P 0.35</text>
		</g>
	</g>
	<path class="st5" d="M146.1,386.7c-1.8,0-3.2-1.5-3.2-3.5c0-1.9,1.4-3.5,3.2-3.5l59.9,6.9c1.8,0,3.2-1.5,3.2-3.5
		c0-1.9-1.4-3.5-3.2-3.5L146.1,386.7z"/>
	<g>
		<g>
			<line class="st16" x1="150.5" y1="435.8" x2="150.5" y2="444"/>
		</g>
		<g>
			<path class="st13" d="M150.4,432.7c1.6,0,3,1.4,3,3c0,1.8-1.4,3.2-3,3.2c-1.8,0-3.2-1.4-3.2-3.2
				C147.2,434.1,148.6,432.7,150.4,432.7z"/>
			<path d="M150.4,432.1c2,0,3.7,1.6,3.7,3.7c0,2.2-1.7,3.8-3.7,3.8v-1.1c1.4,0,2.5-1.1,2.5-2.7c0-1.4-1.1-2.5-2.5-2.5V432.1
				L150.4,432.1z M150.4,439.6v-1.1c-1.5,0-2.7-1.1-2.7-2.7c0-1.4,1.1-2.5,2.7-2.5v-1.1c-2.2,0-3.8,1.6-3.8,3.7
				C146.6,437.9,148.2,439.6,150.4,439.6z"/>
		</g>
		<rect x="146.1" y="435.9" class="st13" width="8.5" height="4.1"/>
		<rect x="150" y="434.9" width="1" height="4.2"/>
		<rect x="150" y="434.9" class="st17" width="1" height="4.2"/>
	</g>
	<g>
		<g>
			<line class="st16" x1="201" y1="435.8" x2="201" y2="444"/>
		</g>
		<g>
			<path class="st13" d="M200.9,432.7c1.6,0,3,1.4,3,3c0,1.8-1.4,3.2-3,3.2c-1.8,0-3.2-1.4-3.2-3.2
				C197.7,434.1,199.1,432.7,200.9,432.7z"/>
			<path d="M200.9,432.1c2,0,3.7,1.6,3.7,3.7c0,2.2-1.7,3.8-3.7,3.8v-1.1c1.4,0,2.5-1.1,2.5-2.7c0-1.4-1.1-2.5-2.5-2.5L200.9,432.1
				L200.9,432.1z M200.9,439.6v-1.1c-1.5,0-2.7-1.1-2.7-2.7c0-1.4,1.1-2.5,2.7-2.5v-1.1c-2.2,0-3.8,1.6-3.8,3.7
				C197.1,437.9,198.7,439.6,200.9,439.6z"/>
		</g>
		<rect x="196.6" y="435.9" class="st13" width="8.5" height="4.1"/>
		<rect x="200.5" y="434.9" width="1" height="4.2"/>
		<rect x="200.5" y="434.9" class="st17" width="1" height="4.2"/>
	</g>
	<g>
		<rect x="289" y="444" class="st11" width="169.6" height="32.9"/>
	</g>
	<g>
		<rect x="356.3" y="403.6" class="st13" width="13.9" height="6"/>
		<g>
			<text transform="matrix(1 0 0 1 354.6614 408.7207)" class="st3 st4">V 0.35</text>
		</g>
	</g>
	<g>
		<rect x="307.2" y="403.6" class="st13" width="13.9" height="6"/>
		<g>
			<text transform="matrix(1 0 0 1 303.5187 408.7207)" class="st3 st4">P 0.35</text>
		</g>
	</g>
	<path class="st5" d="M308.1,386.7c-1.8,0-3.2-1.5-3.2-3.5c0-1.9,1.4-3.5,3.2-3.5l59.9,6.9c1.8,0,3.2-1.5,3.2-3.5
		c0-1.9-1.4-3.5-3.2-3.5L308.1,386.7z"/>
	<g>
		<g>
			<line class="st16" x1="312.5" y1="435.8" x2="312.5" y2="444"/>
		</g>
		<g>
			<path class="st13" d="M312.4,432.7c1.6,0,3,1.4,3,3c0,1.8-1.4,3.2-3,3.2c-1.8,0-3.2-1.4-3.2-3.2
				C309.2,434.1,310.6,432.7,312.4,432.7z"/>
			<path d="M312.4,432.1c2,0,3.7,1.6,3.7,3.7c0,2.2-1.7,3.8-3.7,3.8v-1.1c1.4,0,2.5-1.1,2.5-2.7c0-1.4-1.1-2.5-2.5-2.5V432.1
				L312.4,432.1z M312.4,439.6v-1.1c-1.5,0-2.7-1.1-2.7-2.7c0-1.4,1.1-2.5,2.7-2.5v-1.1c-2.2,0-3.8,1.6-3.8,3.7
				C308.6,437.9,310.2,439.6,312.4,439.6z"/>
		</g>
		<rect x="308.1" y="435.9" class="st13" width="8.5" height="4.1"/>
		<rect x="312" y="434.9" width="1" height="4.2"/>
		<rect x="312" y="434.9" class="st17" width="1" height="4.2"/>
	</g>
	<g>
		<g>
			<line class="st16" x1="363" y1="435.8" x2="363" y2="444"/>
		</g>
		<g>
			<path class="st13" d="M362.9,432.7c1.6,0,3,1.4,3,3c0,1.8-1.4,3.2-3,3.2c-1.8,0-3.2-1.4-3.2-3.2
				C359.7,434.1,361.1,432.7,362.9,432.7z"/>
			<path d="M362.9,432.1c2,0,3.7,1.6,3.7,3.7c0,2.2-1.7,3.8-3.7,3.8v-1.1c1.4,0,2.5-1.1,2.5-2.7c0-1.4-1.1-2.5-2.5-2.5V432.1
				L362.9,432.1z M362.9,439.6v-1.1c-1.5,0-2.7-1.1-2.7-2.7c0-1.4,1.1-2.5,2.7-2.5v-1.1c-2.2,0-3.8,1.6-3.8,3.7
				C359.1,437.9,360.7,439.6,362.9,439.6z"/>
		</g>
		<rect x="358.6" y="435.9" class="st13" width="8.5" height="4.1"/>
		<rect x="362.5" y="434.9" width="1" height="4.2"/>
		<rect x="362.5" y="434.9" class="st17" width="1" height="4.2"/>
	</g>
	<g>
		<g>
			<line class="st16" x1="422.7" y1="435.8" x2="422.7" y2="444"/>
		</g>
		<g>
			<path class="st13" d="M422.6,432.7c1.6,0,3,1.4,3,3c0,1.8-1.4,3.2-3,3.2c-1.8,0-3.2-1.4-3.2-3.2
				C419.4,434.1,420.8,432.7,422.6,432.7z"/>
			<path d="M422.6,432.1c2,0,3.7,1.6,3.7,3.7c0,2.2-1.7,3.8-3.7,3.8v-1.1c1.4,0,2.5-1.1,2.5-2.7c0-1.4-1.1-2.5-2.5-2.5V432.1
				L422.6,432.1z M422.6,439.6v-1.1c-1.5,0-2.7-1.1-2.7-2.7c0-1.4,1.1-2.5,2.7-2.5v-1.1c-2.2,0-3.8,1.6-3.8,3.7
				C418.8,437.9,420.4,439.6,422.6,439.6z"/>
		</g>
		<rect x="418.3" y="435.9" class="st13" width="8.5" height="4.1"/>
		<rect x="422.2" y="434.9" width="1" height="4.2"/>
		<rect x="422.2" y="434.9" class="st17" width="1" height="4.2"/>
	</g>
	<rect x="413.5" y="225.1" class="st13" width="12.5" height="6"/>
	<g>
		<text transform="matrix(1 0 0 1 408.5414 229.9431)" class="st3 st4">W/R 0.35</text>
	</g>
	<rect x="413.3" y="403.6" class="st13" width="12.5" height="6"/>
	<g>
		<text transform="matrix(1 0 0 1 413.3209 408.7205)" class="st3 st4">R 0.35</text>
	</g>
	<rect x="413.3" y="374.6" class="st13" width="12.5" height="6"/>
	<g>
		<text transform="matrix(1 0 0 1 408.541 379.7205)" class="st3 st4">W/R 0.35</text>
	</g>
	<rect x="414" y="299.7" class="st13" width="12.5" height="6"/>
	<g>
		<text transform="matrix(1 0 0 1 408.5406 304.5249)" class="st3 st4">W/R 0.35</text>
	</g>
	<rect x="414" y="249.7" class="st13" width="12.5" height="6"/>
	<g>
		<text transform="matrix(1 0 0 1 408.5406 254.5249)" class="st3 st4">W/R 0.35</text>
	</g>
	<rect x="414" y="333.7" class="st13" width="12.5" height="6"/>
	<g>
		<text transform="matrix(1 0 0 1 408.5406 338.5249)" class="st3 st4">W/R 0.35</text>
	</g>
	<line class="st8" x1="150.5" y1="732.3" x2="150.5" y2="484.5"/>
	<line class="st7" x1="201" y1="483.2" x2="201" y2="736"/>
	<g>
		<rect x="193.5" y="501.6" class="st13" width="13.9" height="6"/>
		<g>
			<text transform="matrix(1 0 0 1 191.8463 506.7433)" class="st3 st4">V 0.35</text>
		</g>
	</g>
	<g>
		<rect x="144.4" y="501.6" class="st13" width="13.9" height="6"/>
		<g>
			<text transform="matrix(1 0 0 1 140.7036 506.7433)" class="st3 st4">P 0.35</text>
		</g>
	</g>
	<path class="st5" d="M146.1,515.2c-1.8,0-3.2,1.5-3.2,3.5c0,1.9,1.4,3.5,3.2,3.5l59.9-6.9c1.8,0,3.2,1.5,3.2,3.5
		c0,1.9-1.4,3.5-3.2,3.5L146.1,515.2z"/>
	<path class="st5" d="M146.1,708.2c-1.8,0-3.2,1.5-3.2,3.5c0,1.9,1.4,3.5,3.2,3.5l59.9-6.9c1.8,0,3.2,1.5,3.2,3.5
		c0,1.9-1.4,3.5-3.2,3.5L146.1,708.2z"/>
	<g>
		<g>
			<line class="st16" x1="150.5" y1="485.2" x2="150.5" y2="476.9"/>
		</g>
		<g>
			<path class="st13" d="M150.4,488.2c1.6,0,3-1.4,3-3c0-1.8-1.4-3.2-3-3.2c-1.8,0-3.2,1.4-3.2,3.2
				C147.2,486.8,148.6,488.2,150.4,488.2z"/>
			<path d="M150.4,488.9v-1.1c1.4,0,2.5-1.1,2.5-2.5c0-1.5-1.1-2.7-2.5-2.7v-1.1c2,0,3.7,1.7,3.7,3.8
				C154.1,487.2,152.4,488.9,150.4,488.9L150.4,488.9z M146.6,485.2c0,2,1.6,3.7,3.8,3.7v-1.1c-1.5,0-2.7-1.1-2.7-2.5
				c0-1.5,1.1-2.7,2.7-2.7v-1.1C148.2,481.4,146.6,483,146.6,485.2z"/>
		</g>
		<rect x="146.1" y="481" class="st13" width="8.5" height="4.1"/>
		<rect x="150" y="481.9" width="1" height="4.2"/>
		<rect x="150" y="481.9" class="st17" width="1" height="4.2"/>
	</g>
	<g>
		<g>
			<line class="st16" x1="201" y1="485.2" x2="201" y2="476.9"/>
		</g>
		<g>
			<path class="st13" d="M200.9,488.2c1.6,0,3-1.4,3-3c0-1.8-1.4-3.2-3-3.2c-1.8,0-3.2,1.4-3.2,3.2
				C197.7,486.8,199.1,488.2,200.9,488.2z"/>
			<path d="M200.9,488.9v-1.1c1.4,0,2.5-1.1,2.5-2.5c0-1.5-1.1-2.7-2.5-2.7v-1.1c2,0,3.7,1.7,3.7,3.8
				C204.6,487.2,202.9,488.9,200.9,488.9L200.9,488.9z M197.1,485.2c0,2,1.6,3.7,3.8,3.7v-1.1c-1.5,0-2.7-1.1-2.7-2.5
				c0-1.5,1.1-2.7,2.7-2.7v-1.1C198.7,481.4,197.1,483,197.1,485.2z"/>
		</g>
		<rect x="196.6" y="481" class="st13" width="8.5" height="4.1"/>
		<rect x="200.5" y="481.9" width="1" height="4.2"/>
		<rect x="200.5" y="481.9" class="st17" width="1" height="4.2"/>
	</g>
	<g>
		<rect x="78.3" y="352.2" class="st13" width="8.5" height="18.8"/>
		<g>
			<g>
				<line class="st23" x1="82.4" y1="360.9" x2="82.4" y2="352.6"/>
			</g>
			<g>
				<line class="st24" x1="82.5" y1="364.1" x2="82.5" y2="370.5"/>
			</g>
			<g>
				<g>
					<g>
						<path class="st13" d="M82.4,363.9c-1.6,0-3.2-1.4-3.2-3.2c0-1.8,1.5-3.2,3.2-3.2c1.8,0,3.2,1.4,3.2,3.2S84.2,363.9,82.4,363.9
							z"/>
						<path d="M82.4,364.6c-2,0-3.7-1.8-3.7-3.8h1.1c0,1.4,1.1,2.5,2.5,2.5c1.5,0,2.7-1.1,2.7-2.5h1.1
							C86.3,362.8,84.6,364.6,82.4,364.6L82.4,364.6z M78.8,360.8h1.1c0-1.4,1.1-2.5,2.5-2.5c1.5,0,2.7,1.1,2.7,2.5h1.1
							c0-2.2-1.6-3.8-3.8-3.8C80.4,357,78.8,358.6,78.8,360.8z"/>
					</g>
					<rect x="78.3" y="356.5" class="st13" width="8.5" height="4.1"/>
					<rect x="81.8" y="357.5" width="1" height="4.2"/>
					<rect x="81.8" y="357.5" class="st17" width="1" height="4.2"/>
				</g>
			</g>
		</g>
	</g>
	<g>
		<rect x="418.3" y="348.2" class="st13" width="8.5" height="18.8"/>
		<g>
			<g>
				<line class="st23" x1="422.4" y1="356.9" x2="422.4" y2="348.7"/>
			</g>
			<g>
				<line class="st24" x1="422.6" y1="360.1" x2="422.6" y2="366.6"/>
			</g>
			<g>
				<g>
					<g>
						<path class="st13" d="M422.5,360c-1.6,0-3.2-1.4-3.2-3.2s1.5-3.2,3.2-3.2c1.8,0,3.2,1.4,3.2,3.2S424.3,360,422.5,360z"/>
						<path d="M422.5,360.6c-2,0-3.7-1.8-3.7-3.8h1.1c0,1.4,1.1,2.5,2.5,2.5c1.5,0,2.7-1.1,2.7-2.5h1.1
							C426.3,358.9,424.6,360.6,422.5,360.6L422.5,360.6z M418.8,356.8h1.1c0-1.4,1.1-2.5,2.5-2.5c1.5,0,2.7,1.1,2.7,2.5h1.1
							c0-2.2-1.6-3.8-3.8-3.8C420.5,353,418.8,354.7,418.8,356.8z"/>
					</g>
					<rect x="418.3" y="352.6" class="st13" width="8.5" height="4.1"/>
					<rect x="421.9" y="353.5" width="1" height="4.2"/>
					<rect x="421.9" y="353.5" class="st17" width="1" height="4.2"/>
				</g>
			</g>
		</g>
	</g>
	<g>
		<rect x="418.4" y="265.5" class="st13" width="8.5" height="18.8"/>
		<g>
			<g>
				<line class="st23" x1="422.5" y1="274.3" x2="422.5" y2="266"/>
			</g>
			<g>
				<line class="st24" x1="422.6" y1="277.4" x2="422.6" y2="283.9"/>
			</g>
			<g>
				<g>
					<g>
						<path class="st13" d="M422.6,277.3c-1.6,0-3.2-1.4-3.2-3.2s1.5-3.2,3.2-3.2c1.8,0,3.2,1.4,3.2,3.2S424.3,277.3,422.6,277.3z"
							/>
						<path d="M422.6,277.9c-2,0-3.7-1.8-3.7-3.8h1.1c0,1.4,1.1,2.5,2.5,2.5c1.5,0,2.7-1.1,2.7-2.5h1.1
							C426.4,276.2,424.7,277.9,422.6,277.9L422.6,277.9z M418.9,274.1h1.1c0-1.4,1.1-2.5,2.5-2.5c1.5,0,2.7,1.1,2.7,2.5h1.1
							c0-2.2-1.6-3.8-3.8-3.8C420.5,270.3,418.9,272,418.9,274.1z"/>
					</g>
					<rect x="418.4" y="269.9" class="st13" width="8.5" height="4.1"/>
					<rect x="421.9" y="270.8" width="1" height="4.2"/>
					<rect x="421.9" y="270.8" class="st17" width="1" height="4.2"/>
				</g>
			</g>
		</g>
	</g>
	<g>
		<rect x="356" y="501.6" class="st13" width="13.9" height="6"/>
		<g>
			<text transform="matrix(1 0 0 1 354.3463 506.7438)" class="st3 st4">P 0.35</text>
		</g>
	</g>
	<g>
		<rect x="306.9" y="501.6" class="st13" width="13.9" height="6"/>
		<g>
			<text transform="matrix(1 0 0 1 303.2037 506.7438)" class="st3 st4">V 0.35</text>
		</g>
	</g>
	<g>
		<rect x="193.5" y="688.6" class="st13" width="13.9" height="6"/>
		<g>
			<text transform="matrix(1 0 0 1 191.8463 693.7433)" class="st3 st4">V 0.35</text>
		</g>
	</g>
	<g>
		<rect x="144.4" y="688.6" class="st13" width="13.9" height="6"/>
		<g>
			<text transform="matrix(1 0 0 1 140.7036 693.7433)" class="st3 st4">P 0.35</text>
		</g>
	</g>
	<g>
		<rect x="356" y="688.6" class="st13" width="13.9" height="6"/>
		<g>
			<text transform="matrix(1 0 0 1 354.3463 693.7428)" class="st3 st4">P 0.35</text>
		</g>
	</g>
	<g>
		<rect x="306.9" y="688.6" class="st13" width="13.9" height="6"/>
		<g>
			<text transform="matrix(1 0 0 1 303.2037 693.7428)" class="st3 st4">V 0.35</text>
		</g>
	</g>
	<path class="st5" d="M308.6,537.2c-1.8,0-3.2,1.5-3.2,3.5c0,1.9,1.4,3.5,3.2,3.5l59.9-6.9c1.8,0,3.2,1.5,3.2,3.5
		c0,1.9-1.4,3.5-3.2,3.5L308.6,537.2z"/>
	<path class="st5" d="M308.6,642.2c-1.8,0-3.2,1.5-3.2,3.5c0,1.9,1.4,3.5,3.2,3.5l59.9-6.9c1.8,0,3.2,1.5,3.2,3.5
		c0,1.9-1.4,3.5-3.2,3.5L308.6,642.2z"/>
	<g>
		<g>
			<line class="st16" x1="313" y1="485.2" x2="313" y2="476.9"/>
		</g>
		<g>
			<path class="st13" d="M312.9,488.2c1.6,0,3-1.4,3-3c0-1.8-1.4-3.2-3-3.2c-1.8,0-3.2,1.4-3.2,3.2
				C309.7,486.8,311.1,488.2,312.9,488.2z"/>
			<path d="M312.9,488.9v-1.1c1.4,0,2.5-1.1,2.5-2.5c0-1.5-1.1-2.7-2.5-2.7v-1.1c2,0,3.7,1.7,3.7,3.8
				C316.6,487.2,314.9,488.9,312.9,488.9L312.9,488.9z M309.1,485.2c0,2,1.6,3.7,3.8,3.7v-1.1c-1.5,0-2.7-1.1-2.7-2.5
				c0-1.5,1.1-2.7,2.7-2.7v-1.1C310.7,481.4,309.1,483,309.1,485.2z"/>
		</g>
		<rect x="308.6" y="481" class="st13" width="8.5" height="4.1"/>
		<rect x="312.5" y="481.9" width="1" height="4.2"/>
		<rect x="312.5" y="481.9" class="st17" width="1" height="4.2"/>
	</g>
	<g>
		<g>
			<line class="st16" x1="363.5" y1="485.2" x2="363.5" y2="476.9"/>
		</g>
		<g>
			<path class="st13" d="M363.4,488.2c1.6,0,3-1.4,3-3c0-1.8-1.4-3.2-3-3.2c-1.8,0-3.2,1.4-3.2,3.2
				C360.2,486.8,361.6,488.2,363.4,488.2z"/>
			<path d="M363.4,488.9v-1.1c1.4,0,2.5-1.1,2.5-2.5c0-1.5-1.1-2.7-2.5-2.7v-1.1c2,0,3.7,1.7,3.7,3.8
				C367.1,487.2,365.4,488.9,363.4,488.9L363.4,488.9z M359.6,485.2c0,2,1.6,3.7,3.8,3.7v-1.1c-1.5,0-2.7-1.1-2.7-2.5
				c0-1.5,1.1-2.7,2.7-2.7v-1.1C361.2,481.4,359.6,483,359.6,485.2z"/>
		</g>
		<rect x="359.1" y="481" class="st13" width="8.5" height="4.1"/>
		<rect x="363" y="481.9" width="1" height="4.2"/>
		<rect x="363" y="481.9" class="st17" width="1" height="4.2"/>
	</g>
	<g>
		<rect x="78.6" y="620.7" class="st13" width="8.5" height="18.8"/>
		<g>
			<g>
				<line class="st23" x1="83" y1="630.7" x2="83" y2="639"/>
			</g>
			<g>
				<line class="st24" x1="82.9" y1="627.6" x2="82.9" y2="621.1"/>
			</g>
			<g>
				<g>
					<g>
						<path class="st13" d="M82.9,627.7c1.6,0,3.2,1.4,3.2,3.2s-1.5,3.2-3.2,3.2c-1.8,0-3.2-1.4-3.2-3.2
							C79.8,629.1,81.2,627.7,82.9,627.7z"/>
						<path d="M82.9,627.1c2,0,3.7,1.8,3.7,3.8h-1.1c0-1.4-1.1-2.5-2.5-2.5c-1.5,0-2.7,1.1-2.7,2.5h-1.1
							C79.1,628.8,80.8,627.1,82.9,627.1L82.9,627.1z M86.6,630.9h-1.1c0,1.4-1.1,2.5-2.5,2.5c-1.5,0-2.7-1.1-2.7-2.5h-1.1
							c0,2.2,1.6,3.8,3.8,3.8C85,634.7,86.6,633,86.6,630.9z"/>
					</g>
					<rect x="78.6" y="631" class="st13" width="8.5" height="4.1"/>
					<rect x="82.6" y="630" width="1" height="4.2"/>
					<rect x="82.6" y="630" class="st17" width="1" height="4.2"/>
				</g>
			</g>
		</g>
	</g>
	<g>
		<rect x="146.4" y="620.7" class="st13" width="8.5" height="18.8"/>
		<g>
			<g>
				<line class="st23" x1="150.8" y1="630.8" x2="150.8" y2="639.1"/>
			</g>
			<g>
				<line class="st24" x1="150.7" y1="627.6" x2="150.7" y2="621.2"/>
			</g>
			<g>
				<g>
					<g>
						<path class="st13" d="M150.8,627.8c1.6,0,3.2,1.4,3.2,3.2c0,1.8-1.5,3.2-3.2,3.2c-1.8,0-3.2-1.4-3.2-3.2
							S149,627.8,150.8,627.8z"/>
						<path d="M150.8,627.1c2,0,3.7,1.8,3.7,3.8h-1.1c0-1.4-1.1-2.5-2.5-2.5c-1.5,0-2.7,1.1-2.7,2.5h-1.1
							C146.9,628.9,148.6,627.1,150.8,627.1L150.8,627.1z M154.4,630.9h-1.1c0,1.4-1.1,2.5-2.5,2.5c-1.5,0-2.7-1.1-2.7-2.5H147
							c0,2.2,1.6,3.8,3.8,3.8C152.8,634.7,154.4,633.1,154.4,630.9z"/>
					</g>
					<rect x="146.4" y="631.1" class="st13" width="8.5" height="4.1"/>
					<rect x="150.4" y="630" width="1" height="4.2"/>
					<rect x="150.4" y="630" class="st17" width="1" height="4.2"/>
				</g>
			</g>
		</g>
	</g>
	<g>
		<rect x="196.8" y="620.7" class="st13" width="8.5" height="18.8"/>
		<g>
			<g>
				<line class="st23" x1="201.2" y1="630.8" x2="201.2" y2="639.1"/>
			</g>
			<g>
				<line class="st24" x1="201.1" y1="627.7" x2="201.1" y2="621.2"/>
			</g>
			<g>
				<g>
					<g>
						<path class="st13" d="M201.1,627.8c1.6,0,3.2,1.4,3.2,3.2c0,1.8-1.5,3.2-3.2,3.2c-1.8,0-3.2-1.4-3.2-3.2
							C198,629.2,199.3,627.8,201.1,627.8z"/>
						<path d="M201.1,627.2c2,0,3.7,1.8,3.7,3.8h-1.1c0-1.4-1.1-2.5-2.5-2.5c-1.5,0-2.7,1.1-2.7,2.5h-1.1
							C197.3,628.9,199,627.2,201.1,627.2L201.1,627.2z M204.8,631h-1.1c0,1.4-1.1,2.5-2.5,2.5c-1.5,0-2.7-1.1-2.7-2.5h-1.1
							c0,2.2,1.6,3.8,3.8,3.8C203.2,634.8,204.8,633.1,204.8,631z"/>
					</g>
					<rect x="196.8" y="631.1" class="st13" width="8.5" height="4.1"/>
					<rect x="200.7" y="630.1" width="1" height="4.2"/>
					<rect x="200.7" y="630.1" class="st17" width="1" height="4.2"/>
				</g>
			</g>
		</g>
	</g>
	<rect x="88.7" y="542" class="st18" width="25.5" height="6.6"/>
	<path class="st19" d="M85.3,545.8c0,1.7-1.3,2.9-2.8,2.9c-1.6,0-2.9-1.2-2.9-2.9c0-1.5,1.3-2.7,2.9-2.7
		C84,543.1,85.3,544.3,85.3,545.8z"/>
	<g id="GB031_1_">
		<g>
			<g>
				<line class="st12" x1="422.7" y1="783.6" x2="422.7" y2="786.3"/>
			</g>
			<g>
				<line class="st12" x1="415.6" y1="786.3" x2="429.4" y2="786.3"/>
			</g>
			<g>
				<line class="st12" x1="418.4" y1="788.5" x2="426.6" y2="788.5"/>
			</g>
			<g>
				<line class="st12" x1="425" y1="790.6" x2="420.1" y2="790.6"/>
			</g>
		</g>
		<g>
			<rect x="412.2" y="793.1" class="st13" width="20.3" height="8.2"/>
			<rect x="412.5" y="793.5" class="st14" width="19.7" height="7.6"/>
		</g>
	</g>
	<line class="st15" x1="422.7" y1="486.1" x2="422.7" y2="785.4"/>
	<g>
		<g>
			<line class="st16" x1="422.7" y1="485.2" x2="422.7" y2="476.9"/>
		</g>
		<g>
			<path class="st13" d="M422.8,488.2c-1.6,0-3-1.4-3-3c0-1.8,1.4-3.2,3-3.2c1.8,0,3.2,1.4,3.2,3.2
				C426,486.8,424.6,488.2,422.8,488.2z"/>
			<path d="M422.8,488.9c-2,0-3.7-1.6-3.7-3.7c0-2.2,1.7-3.8,3.7-3.8v1.1c-1.4,0-2.5,1.1-2.5,2.7c0,1.4,1.1,2.5,2.5,2.5V488.9
				L422.8,488.9z M422.8,481.4v1.1c1.5,0,2.7,1.1,2.7,2.7c0,1.4-1.1,2.5-2.7,2.5v1.1c2.2,0,3.8-1.6,3.8-3.7
				C426.6,483,425,481.4,422.8,481.4z"/>
		</g>
		<rect x="418.6" y="481" class="st13" width="8.5" height="4.1"/>
		<rect x="422.2" y="481.9" width="1" height="4.2"/>
		<rect x="422.2" y="481.9" class="st17" width="1" height="4.2"/>
	</g>
	<rect x="419.5" y="501.2" class="st13" width="6.4" height="6"/>
	<g>
		<text transform="matrix(1 0 0 1 412.9359 506.127)" class="st3 st4">B 0.35</text>
	</g>
	<rect x="419.5" y="689" class="st13" width="6.4" height="6"/>
	<g>
		<text transform="matrix(1 0 0 1 414.6234 694.1182)" class="st3 st4">B 1.0</text>
	</g>
	<path class="st25" d="M209.1,291.7l-0.5-2.1c0,0-0.5-2.5-2.7-2.6h-28.3l0,0l-1.6-2.7l-1.6,2.7c-7.4,0-28.2,0-28.2,0
		c-2.2,0.1-2.7,2.6-2.7,2.6l-0.5,2.1"/>
	<path class="st25" d="M370.1,291.7l-0.5-2.1c0,0-0.5-2.5-2.7-2.6h-28.3l0,0l-1.6-2.7l-1.6,2.7c-7.4,0-28.2,0-28.2,0
		c-2.2,0.1-2.7,2.6-2.7,2.6l-0.5,2.1"/>
	<g>
		<path class="st11" d="M385.5,774.5H138.3v-32.9h247.2c0,0-4.9,11.2,0,17.3S385.5,774.5,385.5,774.5z"/>
	</g>
	<g>
		<g>
			<line class="st16" x1="150.5" y1="733.4" x2="150.5" y2="741.6"/>
		</g>
		<g>
			<path class="st13" d="M150.4,730.3c1.6,0,3,1.4,3,3c0,1.8-1.4,3.2-3,3.2c-1.8,0-3.2-1.4-3.2-3.2
				C147.2,731.7,148.6,730.3,150.4,730.3z"/>
			<path d="M150.4,729.7c2,0,3.7,1.6,3.7,3.7c0,2.2-1.7,3.8-3.7,3.8v-1.1c1.4,0,2.5-1.1,2.5-2.7c0-1.4-1.1-2.5-2.5-2.5V729.7
				L150.4,729.7z M150.4,737.2v-1.1c-1.5,0-2.7-1.1-2.7-2.7c0-1.4,1.1-2.5,2.7-2.5v-1.1c-2.2,0-3.8,1.6-3.8,3.7
				C146.6,735.5,148.2,737.2,150.4,737.2z"/>
		</g>
		<rect x="146.1" y="733.5" class="st13" width="8.5" height="4.1"/>
		<rect x="150" y="732.5" width="1" height="4.2"/>
		<rect x="150" y="732.5" class="st17" width="1" height="4.2"/>
	</g>
	<g>
		<g>
			<line class="st16" x1="201" y1="733.4" x2="201" y2="741.6"/>
		</g>
		<g>
			<path class="st13" d="M200.9,730.3c1.6,0,3,1.4,3,3c0,1.8-1.4,3.2-3,3.2c-1.8,0-3.2-1.4-3.2-3.2
				C197.7,731.7,199.1,730.3,200.9,730.3z"/>
			<path d="M200.9,729.7c2,0,3.7,1.6,3.7,3.7c0,2.2-1.7,3.8-3.7,3.8v-1.1c1.4,0,2.5-1.1,2.5-2.7c0-1.4-1.1-2.5-2.5-2.5V729.7
				L200.9,729.7z M200.9,737.2v-1.1c-1.5,0-2.7-1.1-2.7-2.7c0-1.4,1.1-2.5,2.7-2.5v-1.1c-2.2,0-3.8,1.6-3.8,3.7
				C197.1,735.5,198.7,737.2,200.9,737.2z"/>
		</g>
		<rect x="196.6" y="733.5" class="st13" width="8.5" height="4.1"/>
		<rect x="200.5" y="732.5" width="1" height="4.2"/>
		<rect x="200.5" y="732.5" class="st17" width="1" height="4.2"/>
	</g>
	<g>
		<g>
			<line class="st16" x1="313" y1="733.4" x2="313" y2="741.6"/>
		</g>
		<g>
			<path class="st13" d="M312.9,730.3c1.6,0,3,1.4,3,3c0,1.8-1.4,3.2-3,3.2c-1.8,0-3.2-1.4-3.2-3.2
				C309.7,731.7,311.1,730.3,312.9,730.3z"/>
			<path d="M312.9,729.7c2,0,3.7,1.6,3.7,3.7c0,2.2-1.7,3.8-3.7,3.8v-1.1c1.4,0,2.5-1.1,2.5-2.7c0-1.4-1.1-2.5-2.5-2.5V729.7
				L312.9,729.7z M312.9,737.2v-1.1c-1.5,0-2.7-1.1-2.7-2.7c0-1.4,1.1-2.5,2.7-2.5v-1.1c-2.2,0-3.8,1.6-3.8,3.7
				C309.1,735.5,310.7,737.2,312.9,737.2z"/>
		</g>
		<rect x="308.6" y="733.5" class="st13" width="8.5" height="4.1"/>
		<rect x="312.5" y="732.5" width="1" height="4.2"/>
		<rect x="312.5" y="732.5" class="st17" width="1" height="4.2"/>
	</g>
	<g>
		<g>
			<line class="st16" x1="363.5" y1="733.4" x2="363.5" y2="741.6"/>
		</g>
		<g>
			<path class="st13" d="M363.4,730.3c1.6,0,3,1.4,3,3c0,1.8-1.4,3.2-3,3.2c-1.8,0-3.2-1.4-3.2-3.2
				C360.2,731.7,361.6,730.3,363.4,730.3z"/>
			<path d="M363.4,729.7c2,0,3.7,1.6,3.7,3.7c0,2.2-1.7,3.8-3.7,3.8v-1.1c1.4,0,2.5-1.1,2.5-2.7c0-1.4-1.1-2.5-2.5-2.5V729.7
				L363.4,729.7z M363.4,737.2v-1.1c-1.5,0-2.7-1.1-2.7-2.7c0-1.4,1.1-2.5,2.7-2.5v-1.1c-2.2,0-3.8,1.6-3.8,3.7
				C359.6,735.5,361.2,737.2,363.4,737.2z"/>
		</g>
		<rect x="359.1" y="733.5" class="st13" width="8.5" height="4.1"/>
		<rect x="363" y="732.5" width="1" height="4.2"/>
		<rect x="363" y="732.5" class="st17" width="1" height="4.2"/>
	</g>
	<polyline class="st26" points="200.9,741.6 200.9,758.9 312.9,758.9 312.9,741.6 	"/>
	<polyline class="st26" points="150.5,741.6 150.5,766.9 363.5,766.9 363.5,741.6 	"/>
	<rect x="429" y="599" class="st18" width="26.7" height="6"/>
	<path class="st19" d="M425.6,602.1c0,1.7-1.3,2.9-2.8,2.9c-1.6,0-2.9-1.2-2.9-2.9c0-1.5,1.3-2.7,2.9-2.7
		C424.3,599.4,425.6,600.6,425.6,602.1z"/>
	<text transform="matrix(1 0 0 1 429.6826 604.0361)" class="st3 st4">SP2781</text>
	<text transform="matrix(1 0 0 1 89.8336 547.3434)" class="st3 st4">SP3148</text>
	<rect x="427.4" y="318.6" class="st18" width="26.3" height="6.6"/>
	<text transform="matrix(1 0 0 1 427.6355 324.0021)" class="st3 st4">SP3099</text>
	<path class="st19" d="M425.4,322.5c0,1.7-1.3,2.9-2.8,2.9c-1.6,0-2.9-1.2-2.9-2.9c0-1.5,1.3-2.7,2.9-2.7
		C424.1,319.8,425.4,321,425.4,322.5z"/>
	<rect x="427.4" y="387.6" class="st18" width="26.3" height="6.6"/>
	<text transform="matrix(1 0 0 1 427.6355 393.0021)" class="st3 st4">SP2869</text>
	<path class="st19" d="M425.4,391.5c0,1.7-1.3,2.9-2.8,2.9c-1.6,0-2.9-1.2-2.9-2.9c0-1.5,1.3-2.7,2.9-2.7
		C424.1,388.8,425.4,390,425.4,391.5z"/>
	<rect x="88.7" y="721.1" class="st18" width="25.5" height="6.6"/>
	<path class="st19" d="M85.3,724.9c0,1.7-1.3,2.9-2.8,2.9c-1.6,0-2.9-1.2-2.9-2.9c0-1.5,1.3-2.7,2.9-2.7
		C84,722.2,85.3,723.4,85.3,724.9z"/>
	<text transform="matrix(1 0 0 1 89.8336 726.4434)" class="st3 st4">SP2787</text>
	<rect x="427.4" y="236.6" class="st18" width="26.3" height="6.6"/>
	<text transform="matrix(1 0 0 1 427.6636 242.0854)" class="st3 st4">SP3233</text>
	<path class="st19" d="M425.5,240.6c0,1.7-1.3,2.9-2.8,2.9c-1.6,0-2.9-1.2-2.9-2.9c0-1.5,1.3-2.7,2.9-2.7
		C424.2,237.9,425.5,239.1,425.5,240.6z"/>
</g>
<g id="图层_2">
	<g>
		<g>
			<text transform="matrix(1 0 0 1 99.4405 203.2334)" class="st27 st3 st4">-15</text>
		</g>
	</g>
	<g>
		<g>
			<text transform="matrix(1 0 0 1 329.921 484.6998)" class="st27 st3 st4">-11</text>
		</g>
	</g>
	<g>
		<g>
			<text transform="matrix(1 0 0 1 380.5895 484.6998)" class="st27 st3 st4">-10</text>
		</g>
	</g>
	<g>
		<g>
			<text transform="matrix(1 0 0 1 74.7413 799.4803)" class="st27 st3 st4">Eb02</text>
		</g>
	</g>
	<g>
		<g>
			<text transform="matrix(1 0 0 1 86.667 203.2334)" class="st27 st3 st4">B1C</text>
		</g>
	</g>
	<g>
		<g>
			<text transform="matrix(1 0 0 1 104.3926 441.1641)" class="st27 st3 st4">-1</text>
		</g>
	</g>
	<g>
		<g>
			<text transform="matrix(1 0 0 1 329.421 441.1639)" class="st27 st3 st4">-2</text>
		</g>
	</g>
	<g>
		<g>
			<text transform="matrix(1 0 0 1 380.0895 441.1639)" class="st27 st3 st4">-3</text>
		</g>
	</g>
	<g>
		<g>
			<text transform="matrix(1 0 0 1 439.6349 441.1641)" class="st27 st3 st4">-1</text>
		</g>
	</g>
	<g>
		<g>
			<text transform="matrix(1 0 0 1 317.796 441.1639)" class="st27 st3 st4">P13</text>
		</g>
	</g>
	<g>
		<g>
			<text transform="matrix(1 0 0 1 369.4645 441.1639)" class="st27 st3 st4">P13</text>
		</g>
	</g>
	<g>
		<g>
			<text transform="matrix(1 0 0 1 428.0099 441.1641)" class="st27 st3 st4">P13</text>
		</g>
	</g>
	<g>
		<g>
			<text transform="matrix(1 0 0 1 318.296 484.6998)" class="st27 st3 st4">P13</text>
		</g>
	</g>
	<g>
		<g>
			<text transform="matrix(1 0 0 1 369.9645 484.6998)" class="st27 st3 st4">P13</text>
		</g>
	</g>
	<g>
		<g>
			<text transform="matrix(1 0 0 1 88.0099 441.1641)" class="st27 st3 st4">DB60</text>
		</g>
	</g>
	<g>
		<g>
			<text transform="matrix(1 0 0 1 104.3924 484.6992)" class="st27 st3 st4">-4</text>
		</g>
	</g>
	<g>
		<g>
			<text transform="matrix(1 0 0 1 88.0099 484.6992)" class="st27 st3 st4">DB60</text>
		</g>
	</g>
	<g>
		<g>
			<text transform="matrix(1 0 0 1 173.3926 484.6992)" class="st27 st3 st4">-5</text>
		</g>
	</g>
	<g>
		<g>
			<text transform="matrix(1 0 0 1 156.7598 484.6992)" class="st27 st3 st4">DB60</text>
		</g>
	</g>
	<g>
		<g>
			<text transform="matrix(1 0 0 1 224.3926 484.6992)" class="st27 st3 st4">-6</text>
		</g>
	</g>
	<g>
		<g>
			<text transform="matrix(1 0 0 1 207.3595 484.6992)" class="st27 st3 st4">DB60</text>
		</g>
	</g>
	<g>
		<g>
			<text transform="matrix(1 0 0 1 173.3926 441.1641)" class="st27 st3 st4">-2</text>
		</g>
	</g>
	<g>
		<g>
			<text transform="matrix(1 0 0 1 156.7599 441.1641)" class="st27 st3 st4">DB60</text>
		</g>
	</g>
	<g>
		<g>
			<text transform="matrix(1 0 0 1 221.476 441.1641)" class="st27 st3 st4">-3</text>
		</g>
	</g>
	<g>
		<g>
			<text transform="matrix(1 0 0 1 205.0099 441.1641)" class="st27 st3 st4">DB60</text>
		</g>
	</g>
	<g>
		<g>
			<text transform="matrix(1 0 0 1 89.5161 163.9756)" class="st27 st3 st4">F1/39</text>
		</g>
	</g>
	<g id="RF22_x2C_A3_1_">
		<g>
			<g>
				<path class="st20" d="M422.3,171c-1.2,0-2.2,1-2.2,2.2s1,2.2,2.2,2.2c1.2,0,2.2-1,2.2-2.2C424.6,172,423.6,171,422.3,171"/>
			</g>
			<g>
				<path class="st20" d="M422.3,155.2c-1.2,0-2.2,1-2.2,2.1c0,1.2,1,2.2,2.2,2.2c1.2,0,2.2-0.9,2.2-2.2
					C424.6,156.2,423.6,155.2,422.3,155.2"/>
			</g>
			<g>
				<path class="st20" d="M420.9,159c-0.1,2.5,0.2,3.2,1.3,4.3c1.2,1.2,2.4,1.7,2.8,3.7c0.4,1.6-0.1,3.5-1.1,4.5"/>
			</g>
			<g>
				<path class="st20" d="M423.8,171.6c0.2-0.8,0-2.9-0.6-3.7c-0.9-1.2-2.7-2.1-3.3-4c-0.9-2.8,0.7-4.6,1.1-5"/>
			</g>
		</g>
	</g>
	<g>
		<g>
			<polyline class="st16" points="422.3,175.4 422.3,193 422.3,195.9 			"/>
		</g>
	</g>
	<g>
		<g>
			<polyline class="st16" points="422.3,154.9 422.3,150.8 422.3,59 			"/>
		</g>
	</g>
	<g>
		<g>
			<line class="st16" x1="422.4" y1="204.5" x2="422.4" y2="196.2"/>
		</g>
		<g>
			<path class="st13" d="M422.5,207.5c-1.6,0-3-1.4-3-3c0-1.8,1.4-3.2,3-3.2c1.8,0,3.2,1.4,3.2,3.2
				C425.6,206.1,424.2,207.5,422.5,207.5z"/>
			<path d="M422.5,208.1c-2,0-3.7-1.6-3.7-3.7c0-2.2,1.7-3.8,3.7-3.8v1.1c-1.4,0-2.5,1.1-2.5,2.7c0,1.4,1.1,2.5,2.5,2.5V208.1
				L422.5,208.1z M422.5,200.7v1.1c1.5,0,2.7,1.1,2.7,2.7c0,1.4-1.1,2.5-2.7,2.5v1.1c2.2,0,3.8-1.6,3.8-3.7
				C426.3,202.3,424.6,200.7,422.5,200.7z"/>
		</g>
		<rect x="418.3" y="200.3" class="st13" width="8.5" height="4.1"/>
		<rect x="421.8" y="201.2" width="1" height="4.2"/>
		<rect x="421.8" y="201.2" class="st17" width="1" height="4.2"/>
	</g>
	<g>
		<path class="st21" d="M419.2,58.7c0-1.7,1.3-2.9,2.8-2.9c1.6,0,2.9,1.2,2.9,2.9c0,1.5-1.3,2.7-2.9,2.7
			C420.5,61.5,419.2,60.2,419.2,58.7z"/>
		<g>
			<path class="st22" d="M419.2,58.7c0-1.7,1.3-2.9,2.8-2.9c1.6,0,2.9,1.2,2.9,2.9c0,1.5-1.3,2.7-2.9,2.7
				C420.5,61.5,419.2,60.2,419.2,58.7"/>
		</g>
	</g>
	<g>
		<g>
			<text transform="matrix(1 0 0 1 429.7197 170.5938)" class="st3 st4">5A</text>
		</g>
	</g>
	<g>
		<g>
			<text transform="matrix(1 0 0 1 439.4406 203.2334)" class="st27 st3 st4">-8</text>
		</g>
	</g>
	<g>
		<g>
			<text transform="matrix(1 0 0 1 426.667 203.2334)" class="st27 st3 st4">B1C</text>
		</g>
	</g>
	<g>
		<g>
			<text transform="matrix(1 0 0 1 429.5161 163.9756)" class="st27 st3 st4">F1/40</text>
		</g>
	</g>
	<g>
		<text transform="matrix(1 0 0 1 88.3596 358.6302)" class="st27 st3 st4">BJD01</text>
	</g>
	<g>
		<text transform="matrix(1 0 0 1 88.3596 365.8295)" class="st27 st3 st4">DJB01</text>
	</g>
	<g>
		<text transform="matrix(1 0 0 1 88.3596 373.0297)" class="st27 st3 st4">-13</text>
	</g>
	<g>
		<text transform="matrix(1 0 0 1 156.3596 627.6302)" class="st27 st3 st4">DJB01</text>
	</g>
	<g>
		<text transform="matrix(1 0 0 1 156.3596 634.8295)" class="st27 st3 st4">BJD01</text>
	</g>
	<g>
		<text transform="matrix(1 0 0 1 156.3596 642.0297)" class="st27 st3 st4">-15</text>
	</g>
	<g>
		<text transform="matrix(1 0 0 1 207.3596 627.6302)" class="st27 st3 st4">DJB01</text>
	</g>
	<g>
		<text transform="matrix(1 0 0 1 207.3596 634.8295)" class="st27 st3 st4">BJD01</text>
	</g>
	<g>
		<text transform="matrix(1 0 0 1 207.3596 642.0297)" class="st27 st3 st4">-16</text>
	</g>
	<g>
		<text transform="matrix(1 0 0 1 429.3596 351.6302)" class="st27 st3 st4">GJP01</text>
	</g>
	<g>
		<text transform="matrix(1 0 0 1 429.3596 358.8295)" class="st27 st3 st4">PJG01</text>
	</g>
	<g>
		<text transform="matrix(1 0 0 1 429.3596 366.0297)" class="st27 st3 st4">-21</text>
	</g>
	<g>
		<text transform="matrix(1 0 0 1 428.9167 271.932)" class="st27 st3 st4">BJG01</text>
	</g>
	<g>
		<text transform="matrix(1 0 0 1 428.9167 279.1322)" class="st27 st3 st4">GJB01</text>
	</g>
	<g>
		<text transform="matrix(1 0 0 1 428.9167 286.3314)" class="st27 st3 st4">-2</text>
	</g>
	<g>
		<text transform="matrix(1 0 0 1 88.5046 627.1654)" class="st27 st3 st4">DJB01</text>
	</g>
	<g>
		<text transform="matrix(1 0 0 1 88.5046 634.3646)" class="st27 st3 st4">BJD01</text>
	</g>
	<g>
		<text transform="matrix(1 0 0 1 88.5046 641.5648)" class="st27 st3 st4">-12</text>
	</g>
	<g>
		<g>
			<text transform="matrix(1 0 0 1 438.666 484.699)" class="st27 st3 st4">-5</text>
		</g>
	</g>
	<g>
		<g>
			<text transform="matrix(1 0 0 1 427.041 484.699)" class="st27 st3 st4">P13</text>
		</g>
	</g>
	<g>
		<g>
			<text transform="matrix(1 0 0 1 414.9415 798.9803)" class="st27 st3 st4">Ep01</text>
		</g>
	</g>
	<g>
		<g>
			<text transform="matrix(1 0 0 1 182.1114 738.7226)" class="st27 st3 st4">-2</text>
		</g>
	</g>
	<g>
		<g>
			<text transform="matrix(1 0 0 1 156.0099 738.7226)" class="st27 st3 st4">BG86(B)</text>
		</g>
	</g>
	<g>
		<g>
			<text transform="matrix(1 0 0 1 232.6114 738.7226)" class="st27 st3 st4">-3</text>
		</g>
	</g>
	<g>
		<g>
			<text transform="matrix(1 0 0 1 206.5099 738.7226)" class="st27 st3 st4">BG86(B)</text>
		</g>
	</g>
	<g>
		<g>
			<text transform="matrix(1 0 0 1 343.8926 738.7226)" class="st27 st3 st4">-28</text>
		</g>
	</g>
	<g>
		<g>
			<text transform="matrix(1 0 0 1 317.5099 738.7226)" class="st27 st3 st4">PG86(C)</text>
		</g>
	</g>
	<g>
		<g>
			<text transform="matrix(1 0 0 1 394.3926 738.7226)" class="st27 st3 st4">-29</text>
		</g>
	</g>
	<g>
		<g>
			<text transform="matrix(1 0 0 1 368.0099 738.7226)" class="st27 st3 st4">PG86(C)</text>
		</g>
	</g>
	<g>
		<text transform="matrix(1 0 0 1 78.4253 475.1218)" class="st28 st3 st29">Ground </text>
	</g>
	<g>
		<text transform="matrix(1 0 0 1 75.7983 448.2399)" class="st28 st3 st29">IG1 Power supply </text>
	</g>
	<g>
		<text transform="matrix(1 0 0 1 183.4413 448.2398)" class="st28 st3 st29">Chassis network CAN_L</text>
	</g>
	<g>
		<text transform="matrix(1 0 0 1 130.3939 448.2401)" class="st28 st3 st29">Chassis network CAN_H</text>
	</g>
	<g>
		<text transform="matrix(1 0 0 1 354.3464 449.0734)" class="st28 st3 st29">Chassis network CAN_L</text>
	</g>
	<g>
		<text transform="matrix(1 0 0 1 300.5189 449.132)" class="st28 st3 st29">Chassis network CAN_H</text>
	</g>
	<g>
		<text transform="matrix(1 0 0 1 187.358 475.1221)" class="st28 st3 st29">Private CAN_L</text>
	</g>
	<g>
		<text transform="matrix(1 0 0 1 137.5189 475.1221)" class="st28 st3 st29">Private CAN_H</text>
	</g>
	<g>
		<text transform="matrix(1 0 0 1 351.858 475.1226)" class="st28 st3 st29">Private CAN_H</text>
	</g>
	<g>
		<text transform="matrix(1 0 0 1 304.019 475.1226)" class="st28 st3 st29">Private CAN_L</text>
	</g>
	<g>
		<text transform="matrix(1 0 0 1 414.3461 449.0732)" class="st28 st3 st29">IG1 Power supply </text>
	</g>
	<g>
		<text transform="matrix(1 0 0 1 418.6254 475.1218)" class="st28 st3 st29">Ground</text>
	</g>
	<g>
		<text transform="matrix(1 0 0 1 137.519 280.7404)" class="st28 st3 st4">See Chassis Network Circuit Diagram</text>
	</g>
	<g>
		<text transform="matrix(1 0 0 1 288.8066 280.7404)" class="st28 st3 st4">See Chassis Network Circuit Diagram</text>
	</g>
	<g>
		<g>
			<g id="FB103_7_">
				<g>
					<g id="FB103_8_">
						<g>
							<text transform="matrix(1 0 0 1 105.8857 462.2783)" class="st30 st3 st4">ACC Medium Range Radr Module</text>
						</g>
					</g>
				</g>
			</g>
		</g>
	</g>
	<g>
		<text transform="matrix(1 0 0 1 218.4371 132.3)" class="st30 st3 st4">Front Compartment Distribution Box</text>
	</g>
	<g>
		<g>
			<g id="FB103_5_">
				<g>
					<g id="FB103_6_">
						<g>
							<text transform="matrix(1 0 0 1 329.4212 462.923)" class="st30 st3 st4">Multifunction Video Control Module</text>
						</g>
					</g>
				</g>
			</g>
		</g>
	</g>
	<g>
		<g>
			<g id="FB103_3_">
				<g>
					<g id="FB103_4_">
						<g>
							<text transform="matrix(1 0 0 1 215.4142 788.4995)" class="st30 st3 st4">Right Body Controller</text>
						</g>
					</g>
				</g>
			</g>
		</g>
	</g>
</g>
</svg>
