<?xml version="1.0" encoding="utf-8"?>
<!-- Generator: Adobe Illustrator 24.0.1, SVG Export Plug-In . SVG Version: 6.00 Build 0)  -->
<svg version="1.1" id="图层_1" xmlns="http://www.w3.org/2000/svg" xmlns:xlink="http://www.w3.org/1999/xlink" x="0px" y="0px"
	 viewBox="0 0 517.1 841.9" style="enable-background:new 0 0 517.1 841.9;" xml:space="preserve">
<style type="text/css">
	.st0{fill:#DCDDDD;}
	.st1{fill:none;stroke:#040000;stroke-width:0.5;}
	.st2{fill:none;stroke:#040000;}
	.st3{enable-background:new    ;}
	.st4{clip-path:url(#SVGID_2_);}
	.st5{font-family:'FZLTHJW--GB1-0';}
	.st6{font-size:6px;}
	.st7{clip-path:url(#SVGID_4_);}
	.st8{clip-path:url(#SVGID_6_);}
	.st9{clip-path:url(#SVGID_8_);}
	.st10{clip-path:url(#SVGID_10_);}
	.st11{clip-path:url(#SVGID_12_);}
	.st12{clip-path:url(#SVGID_14_);}
	.st13{clip-path:url(#SVGID_16_);}
	.st14{clip-path:url(#SVGID_18_);}
	.st15{clip-path:url(#SVGID_20_);}
	.st16{fill:none;stroke:#000000;stroke-width:0.5;stroke-miterlimit:10;}
	.st17{fill:#9FD9F6;stroke:#000000;stroke-width:0.5;stroke-miterlimit:10;}
	.st18{fill:none;stroke:#E60012;stroke-width:3;stroke-miterlimit:10;}
	.st19{fill:none;stroke:#000000;stroke-width:3;}
	.st20{fill:none;stroke:#000000;stroke-width:3;stroke-linejoin:round;stroke-miterlimit:10;}
	.st21{fill:none;stroke:#F29C97;stroke-width:3;stroke-linecap:round;stroke-miterlimit:10;}
	.st22{fill:none;stroke:#89438F;stroke-width:3;stroke-linecap:round;stroke-miterlimit:10;}
	.st23{fill:none;stroke:#000000;stroke-width:0.75;}
	.st24{fill:none;stroke:#000000;stroke-width:0.5;stroke-linejoin:round;}
	.st25{fill:none;stroke:#FFFFFF;stroke-width:0.5;stroke-linecap:round;}
	.st26{fill:none;stroke:#FFFFFF;}
	.st27{fill:none;stroke:#000000;stroke-width:0.6;stroke-linejoin:round;}
	.st28{fill:#FFFFFF;}
	.st29{fill:none;stroke:#000000;stroke-width:0.72;stroke-linecap:round;stroke-linejoin:round;}
	.st30{fill:none;stroke:#FFFFFF;stroke-width:0.5;}
	.st31{fill:none;stroke:#040000;stroke-width:0.25;stroke-linecap:round;stroke-linejoin:round;}
	.st32{fill:none;stroke:#000000;stroke-width:0.25;stroke-linecap:round;stroke-linejoin:round;}
	.st33{fill:none;stroke:#000000;stroke-width:1.3;}
	.st34{fill:none;stroke:#000000;stroke-width:0.5;stroke-linecap:round;stroke-linejoin:round;}
	.st35{font-size:4px;}
	.st36{fill:none;stroke:#000000;stroke-width:0.25;}
	.st37{clip-path:url(#SVGID_22_);}
	.st38{clip-path:url(#SVGID_24_);}
	.st39{clip-path:url(#SVGID_26_);}
	.st40{clip-path:url(#SVGID_28_);}
	.st41{clip-path:url(#SVGID_30_);}
	.st42{clip-path:url(#SVGID_32_);}
	.st43{clip-path:url(#SVGID_34_);}
	.st44{fill:#9FD9F6;stroke:#000000;stroke-width:0.5;stroke-linecap:round;stroke-miterlimit:10;}
	.st45{fill:none;stroke:#FFF100;stroke-width:3;stroke-linecap:round;stroke-miterlimit:10;}
	.st46{stroke:#FFFFFF;stroke-width:0.5;}
	.st47{fill:#FFFFFF;stroke:#000000;stroke-width:0.25;}
	.st48{fill:#005EAD;}
	.st49{fill:#005EAC;}
</style>
<g id="图层_1_1_">
	<polyline class="st0" points="44,41.9 461.5,41.9 461.5,99.7 44,99.7 	"/>
	<line class="st1" x1="44" y1="47.6" x2="461.5" y2="47.6"/>
	<line class="st2" x1="44" y1="41.6" x2="461.5" y2="41.6"/>
	<line class="st1" x1="44" y1="58.9" x2="461.5" y2="58.9"/>
	<line class="st1" x1="44" y1="70.6" x2="461.5" y2="70.6"/>
	<line class="st1" x1="44" y1="82.3" x2="461.5" y2="82.3"/>
	<line class="st1" x1="44" y1="93.9" x2="461.5" y2="93.9"/>
	<line class="st2" x1="44" y1="99.7" x2="461.5" y2="99.7"/>
	<g class="st3">
		<g>
			<g>
				<defs>
					<rect id="SVGID_1_" x="464.6" y="44.5" width="7.3" height="6.7"/>
				</defs>
				<clipPath id="SVGID_2_">
					<use xlink:href="#SVGID_1_"  style="overflow:visible;"/>
				</clipPath>
				<g class="st4">
					<text transform="matrix(1 0 0 1 464.5778 49.6302)" class="st5 st6">30</text>
				</g>
			</g>
		</g>
	</g>
	<g class="st3">
		<g>
			<g>
				<defs>
					<rect id="SVGID_3_" x="464.6" y="55.6" width="10.4" height="6.7"/>
				</defs>
				<clipPath id="SVGID_4_">
					<use xlink:href="#SVGID_3_"  style="overflow:visible;"/>
				</clipPath>
				<g class="st7">
					<text transform="matrix(1 0 0 1 464.5778 60.7963)" class="st5 st6">IG1</text>
				</g>
			</g>
		</g>
	</g>
	<g class="st3">
		<g>
			<g>
				<defs>
					<rect id="SVGID_5_" x="464.6" y="67.3" width="10.4" height="6.7"/>
				</defs>
				<clipPath id="SVGID_6_">
					<use xlink:href="#SVGID_5_"  style="overflow:visible;"/>
				</clipPath>
				<g class="st8">
					<text transform="matrix(1 0 0 1 464.5778 72.4213)" class="st5 st6">IG3</text>
				</g>
			</g>
		</g>
	</g>
	<g class="st3">
		<g>
			<g>
				<defs>
					<rect id="SVGID_7_" x="464.6" y="78.8" width="10.4" height="6.7"/>
				</defs>
				<clipPath id="SVGID_8_">
					<use xlink:href="#SVGID_7_"  style="overflow:visible;"/>
				</clipPath>
				<g class="st9">
					<text transform="matrix(1 0 0 1 464.5778 83.9252)" class="st5 st6">IG4</text>
				</g>
			</g>
		</g>
	</g>
	<g class="st3">
		<g>
			<g>
				<defs>
					<rect id="SVGID_9_" x="464.6" y="91" width="13.9" height="6.7"/>
				</defs>
				<clipPath id="SVGID_10_">
					<use xlink:href="#SVGID_9_"  style="overflow:visible;"/>
				</clipPath>
				<g class="st10">
					<text transform="matrix(1 0 0 1 464.5778 96.1283)" class="st5 st6">ACC</text>
				</g>
			</g>
		</g>
	</g>
	<g class="st3">
		<g>
			<g>
				<defs>
					<rect id="SVGID_11_" x="33.2" y="44.6" width="7.3" height="6.7"/>
				</defs>
				<clipPath id="SVGID_12_">
					<use xlink:href="#SVGID_11_"  style="overflow:visible;"/>
				</clipPath>
				<g class="st11">
					<text transform="matrix(1 0 0 1 33.2295 49.7123)" class="st5 st6">30</text>
				</g>
			</g>
		</g>
	</g>
	<g class="st3">
		<g>
			<g>
				<defs>
					<rect id="SVGID_13_" x="30.1" y="55.7" width="10.4" height="6.7"/>
				</defs>
				<clipPath id="SVGID_14_">
					<use xlink:href="#SVGID_13_"  style="overflow:visible;"/>
				</clipPath>
				<g class="st12">
					<text transform="matrix(1 0 0 1 30.0654 60.8783)" class="st5 st6">IG1</text>
				</g>
			</g>
		</g>
	</g>
	<g class="st3">
		<g>
			<g>
				<defs>
					<rect id="SVGID_15_" x="30.1" y="67.3" width="10.4" height="6.7"/>
				</defs>
				<clipPath id="SVGID_16_">
					<use xlink:href="#SVGID_15_"  style="overflow:visible;"/>
				</clipPath>
				<g class="st13">
					<text transform="matrix(1 0 0 1 30.1123 72.5033)" class="st5 st6">IG3</text>
				</g>
			</g>
		</g>
	</g>
	<g class="st3">
		<g>
			<g>
				<defs>
					<rect id="SVGID_17_" x="30.1" y="78.8" width="10.4" height="6.7"/>
				</defs>
				<clipPath id="SVGID_18_">
					<use xlink:href="#SVGID_17_"  style="overflow:visible;"/>
				</clipPath>
				<g class="st14">
					<text transform="matrix(1 0 0 1 30.0654 84.0033)" class="st5 st6">IG4</text>
				</g>
			</g>
		</g>
	</g>
	<g class="st3">
		<g>
			<g>
				<defs>
					<rect id="SVGID_19_" x="26.6" y="91" width="13.9" height="6.7"/>
				</defs>
				<clipPath id="SVGID_20_">
					<use xlink:href="#SVGID_19_"  style="overflow:visible;"/>
				</clipPath>
				<g class="st15">
					<text transform="matrix(1 0 0 1 26.5732 96.1283)" class="st5 st6">ACC</text>
				</g>
			</g>
		</g>
	</g>
	<rect x="128.1" y="118.7" class="st0" width="51.6" height="51.3"/>
	<rect x="128.1" y="118.7" class="st16" width="51.6" height="51.3"/>
	<polyline class="st17" points="413.3,418.7 62.4,418.7 62.4,385.9 413.3,385.9 413.3,418.7 	"/>
	<polyline class="st18" points="97.1,375.7 97.1,325.1 153.8,325.1 	"/>
	<line class="st18" x1="153.8" y1="180.3" x2="153.8" y2="377.7"/>
	<line class="st19" x1="153.3" y1="428.8" x2="153.3" y2="738.9"/>
	<polyline class="st19" points="153.3,629.9 209.9,629.9 209.9,428.9 	"/>
	<polyline class="st19" points="97,428.8 97,629.9 153.6,629.9 	"/>
	<line class="st20" x1="276.8" y1="429" x2="276.8" y2="738.9"/>
	<line class="st21" x1="276.2" y1="181.3" x2="276.2" y2="377.8"/>
	<line class="st22" x1="332.9" y1="182.3" x2="332.9" y2="378.8"/>
	<path class="st23" d="M153.6,150c-1.2,0-2.2,1-2.2,2.2s1,2.2,2.2,2.2s2.2-1,2.2-2.2C155.9,151,154.9,150,153.6,150"/>
	<path class="st23" d="M153.6,134.2c-1.2,0-2.2,1-2.2,2.1c0,1.2,1,2.2,2.2,2.2s2.2-0.9,2.2-2.2C155.9,135.2,154.9,134.2,153.6,134.2
		"/>
	<path class="st23" d="M152.2,137.9c-0.1,2.5,0.2,3.2,1.3,4.3c1.2,1.2,2.4,1.7,2.8,3.7c0.4,1.6-0.1,3.5-1.1,4.5"/>
	<path class="st23" d="M155,150.5c0.2-0.8,0-2.9-0.6-3.7c-0.9-1.2-2.7-2.1-3.3-4c-0.9-2.8,0.7-4.6,1.1-5"/>
	<polyline class="st24" points="153.6,154.4 153.6,157.4 153.6,169.9 	"/>
	<polyline class="st24" points="153.6,134.1 153.6,130.1 153.6,82.3 	"/>
	<path d="M150.7,82.4c0-1.7,1.3-2.9,2.8-2.9c1.6,0,2.9,1.2,2.9,2.9c0,1.5-1.3,2.7-2.9,2.7C152,85.1,150.7,83.9,150.7,82.4"/>
	<path class="st25" d="M150.7,82.4c0-1.7,1.3-2.9,2.8-2.9c1.6,0,2.9,1.2,2.9,2.9c0,1.5-1.3,2.7-2.9,2.7
		C152,85.1,150.7,83.9,150.7,82.4z"/>
	<path class="st26" d="M150.7,82.4c0-1.7,1.3-2.9,2.8-2.9c1.6,0,2.9,1.2,2.9,2.9c0,1.5-1.3,2.7-2.9,2.7
		C152,85.1,150.7,83.9,150.7,82.4"/>
	<line class="st27" x1="153.8" y1="377.7" x2="153.8" y2="385.9"/>
	<path class="st28" d="M153.7,374.6c-1.7,0-3,1.4-3,3c0,1.8,1.4,3.2,3,3.2c1.8,0,3.2-1.4,3.2-3.2C156.9,376,155.5,374.6,153.7,374.6
		"/>
	<path d="M153.7,375.1c-1.4,0-2.5,1.2-2.5,2.5c0,1.6,1.1,2.7,2.5,2.7v1.2c-2,0-3.7-1.6-3.7-3.8c0-2.1,1.7-3.7,3.7-3.7V375.1z
		 M153.7,381.5c2.2,0,3.8-1.7,3.8-3.8s-1.6-3.7-3.8-3.7v1.1c1.6,0,2.7,1.2,2.7,2.5c0,1.6-1.2,2.7-2.7,2.7V381.5"/>
	<rect x="149.7" y="377.8" class="st28" width="8.1" height="4.1"/>
	<rect x="153.3" y="376.8" width="1" height="4.2"/>
	<rect x="153.3" y="376.8" class="st29" width="1" height="4.2"/>
	<line class="st27" x1="97.1" y1="377.7" x2="97.1" y2="385.9"/>
	<path class="st28" d="M97,374.6c-1.7,0-3,1.4-3,3c0,1.8,1.4,3.2,3,3.2c1.8,0,3.2-1.4,3.2-3.2C100.2,376,98.8,374.6,97,374.6"/>
	<path d="M97,375.1c-1.4,0-2.5,1.2-2.5,2.5c0,1.6,1.1,2.7,2.5,2.7v1.2c-2,0-3.7-1.6-3.7-3.8c0-2.1,1.7-3.7,3.7-3.7V375.1z M97,381.5
		c2.2,0,3.8-1.7,3.8-3.8S99.2,374,97,374v1.1c1.6,0,2.7,1.2,2.7,2.5c0,1.6-1.2,2.7-2.7,2.7V381.5"/>
	<rect x="93" y="377.8" class="st28" width="8.1" height="4.1"/>
	<rect x="96.6" y="376.8" width="1" height="4.2"/>
	<rect x="96.6" y="376.8" class="st29" width="1" height="4.2"/>
	<line class="st27" x1="276.2" y1="377.7" x2="276.2" y2="385.9"/>
	<path class="st28" d="M276.1,374.6c-1.7,0-3,1.4-3,3c0,1.8,1.4,3.2,3,3.2c1.8,0,3.2-1.4,3.2-3.2C279.3,376,277.9,374.6,276.1,374.6
		"/>
	<path d="M276.2,375.1c-1.4,0-2.5,1.2-2.5,2.5c0,1.6,1.1,2.7,2.5,2.7v1.2c-2,0-3.7-1.6-3.7-3.8c0-2.1,1.7-3.7,3.7-3.7V375.1z
		 M276.2,381.5c2.2,0,3.8-1.7,3.8-3.8s-1.6-3.7-3.8-3.7v1.1c1.6,0,2.7,1.2,2.7,2.5c0,1.6-1.2,2.7-2.7,2.7V381.5"/>
	<rect x="272.2" y="377.8" class="st28" width="8.1" height="4.1"/>
	<rect x="275.7" y="376.8" width="1" height="4.2"/>
	<rect x="275.7" y="376.8" class="st29" width="1" height="4.2"/>
	<line class="st27" x1="332.9" y1="377.7" x2="332.9" y2="385.9"/>
	<path class="st28" d="M332.8,374.6c-1.7,0-3,1.4-3,3c0,1.8,1.4,3.2,3,3.2c1.8,0,3.2-1.4,3.2-3.2C336,376,334.6,374.6,332.8,374.6"
		/>
	<path d="M332.9,375.1c-1.4,0-2.5,1.2-2.5,2.5c0,1.6,1.1,2.7,2.5,2.7v1.2c-2,0-3.7-1.6-3.7-3.8c0-2.1,1.7-3.7,3.7-3.7V375.1z
		 M332.9,381.5c2.2,0,3.8-1.7,3.8-3.8s-1.6-3.7-3.8-3.7v1.1c1.6,0,2.7,1.2,2.7,2.5c0,1.6-1.2,2.7-2.7,2.7V381.5"/>
	<rect x="328.9" y="377.8" class="st28" width="8.1" height="4.1"/>
	<rect x="332.4" y="376.8" width="1" height="4.2"/>
	<rect x="332.4" y="376.8" class="st29" width="1" height="4.2"/>
	<path d="M156.9,325c0,1.7-1.3,2.9-2.8,2.9c-1.6,0-2.9-1.2-2.9-2.9c0-1.5,1.3-2.7,2.9-2.7C155.6,322.3,156.9,323.5,156.9,325"/>
	<path class="st30" d="M156.9,325c0,1.7-1.3,2.9-2.8,2.9c-1.6,0-2.9-1.2-2.9-2.9c0-1.5,1.3-2.7,2.9-2.7
		C155.6,322.3,156.9,323.5,156.9,325z"/>
	<line class="st27" x1="153.6" y1="178.1" x2="153.6" y2="169.9"/>
	<path class="st28" d="M153.5,181.2c-1.7,0-3-1.4-3-3c0-1.8,1.4-3.2,3-3.2c1.8,0,3.2,1.4,3.2,3.2
		C156.7,179.8,155.3,181.2,153.5,181.2"/>
	<path d="M153.5,181.8c-2,0-3.7-1.6-3.7-3.7c0-2.2,1.7-3.8,3.7-3.8v1.2c-1.4,0-2.5,1.1-2.5,2.7c0,1.3,1.1,2.5,2.5,2.5V181.8z
		 M153.5,174.3v1.2c1.5,0,2.7,1.1,2.7,2.7c0,1.3-1.1,2.5-2.7,2.5v1.1c2.2,0,3.8-1.6,3.8-3.7C157.3,176,155.7,174.3,153.5,174.3"/>
	<rect x="149.5" y="173.9" class="st28" width="8.1" height="4.1"/>
	<rect x="153.1" y="174.8" width="1" height="4.2"/>
	<rect x="153.1" y="174.8" class="st29" width="1" height="4.2"/>
	<path class="st16" d="M273.1,279.3c-1.9,0-3.4-1.7-3.4-3.8c0-2.1,1.5-3.8,3.4-3.8l62.9,7.6c1.9,0,3.4-1.7,3.4-3.8
		c0-2.1-1.5-3.8-3.4-3.8L273.1,279.3z"/>
	<line class="st27" x1="153.3" y1="427" x2="153.3" y2="418.8"/>
	<path class="st28" d="M153.2,430.1c-1.7,0-3-1.4-3-3c0-1.8,1.4-3.2,3-3.2c1.8,0,3.2,1.4,3.2,3.2C156.4,428.7,155,430.1,153.2,430.1
		"/>
	<path d="M153.2,430.7c-2,0-3.7-1.6-3.7-3.7c0-2.2,1.7-3.8,3.7-3.8v1.2c-1.4,0-2.5,1.1-2.5,2.7c0,1.3,1.1,2.5,2.5,2.5V430.7z
		 M153.2,423.2v1.2c1.5,0,2.7,1.1,2.7,2.7c0,1.3-1.1,2.5-2.7,2.5v1.1c2.2,0,3.8-1.6,3.8-3.7C157,424.9,155.4,423.2,153.2,423.2"/>
	<rect x="149.2" y="422.8" class="st28" width="8.1" height="4.1"/>
	<rect x="152.8" y="423.7" width="1" height="4.2"/>
	<rect x="152.8" y="423.7" class="st29" width="1" height="4.2"/>
	<line class="st27" x1="210" y1="427" x2="210" y2="418.8"/>
	<path class="st28" d="M209.9,430.1c-1.7,0-3-1.4-3-3c0-1.8,1.4-3.2,3-3.2c1.8,0,3.2,1.4,3.2,3.2
		C213.1,428.7,211.7,430.1,209.9,430.1"/>
	<path d="M209.9,430.7c-2,0-3.7-1.6-3.7-3.7c0-2.2,1.7-3.8,3.7-3.8v1.2c-1.4,0-2.5,1.1-2.5,2.7c0,1.3,1.1,2.5,2.5,2.5V430.7z
		 M209.9,423.2v1.2c1.5,0,2.7,1.1,2.7,2.7c0,1.3-1.1,2.5-2.7,2.5v1.1c2.2,0,3.8-1.6,3.8-3.7C213.7,424.9,212.1,423.2,209.9,423.2"/>
	<rect x="205.9" y="422.8" class="st28" width="8.1" height="4.1"/>
	<rect x="209.5" y="423.7" width="1" height="4.2"/>
	<rect x="209.5" y="423.7" class="st29" width="1" height="4.2"/>
	<line class="st27" x1="97.1" y1="427" x2="97.1" y2="418.8"/>
	<path class="st28" d="M97,430.1c-1.7,0-3-1.4-3-3c0-1.8,1.4-3.2,3-3.2c1.8,0,3.2,1.4,3.2,3.2C100.2,428.7,98.8,430.1,97,430.1"/>
	<path d="M97,430.7c-2,0-3.7-1.6-3.7-3.7c0-2.2,1.7-3.8,3.7-3.8v1.2c-1.4,0-2.5,1.1-2.5,2.7c0,1.3,1.1,2.5,2.5,2.5V430.7z M97,423.2
		v1.2c1.5,0,2.7,1.1,2.7,2.7c0,1.3-1.1,2.5-2.7,2.5v1.1c2.2,0,3.8-1.6,3.8-3.7C100.8,424.9,99.2,423.2,97,423.2"/>
	<rect x="93" y="422.8" class="st28" width="8.1" height="4.1"/>
	<rect x="96.6" y="423.7" width="1" height="4.2"/>
	<rect x="96.6" y="423.7" class="st29" width="1" height="4.2"/>
	<line class="st27" x1="276.8" y1="427" x2="276.8" y2="418.8"/>
	<path class="st28" d="M276.7,430.1c-1.7,0-3-1.4-3-3c0-1.8,1.4-3.2,3-3.2c1.8,0,3.2,1.4,3.2,3.2
		C279.9,428.7,278.5,430.1,276.7,430.1"/>
	<path d="M276.7,430.7c-2,0-3.7-1.6-3.7-3.7c0-2.2,1.7-3.8,3.7-3.8v1.2c-1.4,0-2.5,1.1-2.5,2.7c0,1.3,1.1,2.5,2.5,2.5V430.7z
		 M276.7,423.2v1.2c1.5,0,2.7,1.1,2.7,2.7c0,1.3-1.1,2.5-2.7,2.5v1.1c2.2,0,3.8-1.6,3.8-3.7C280.5,424.9,278.9,423.2,276.7,423.2"/>
	<rect x="272.7" y="422.8" class="st28" width="8.1" height="4.1"/>
	<rect x="276.3" y="423.7" width="1" height="4.2"/>
	<rect x="276.3" y="423.7" class="st29" width="1" height="4.2"/>
	<rect x="142.6" y="745.7" class="st28" width="20.3" height="8.2"/>
	<rect x="143" y="746.1" class="st28" width="19.7" height="7.6"/>
	<rect x="143" y="746.1" class="st31" width="19.7" height="7.6"/>
	<rect x="266.7" y="745.7" class="st28" width="20.3" height="8.2"/>
	<rect x="267" y="746.1" class="st28" width="19.7" height="7.6"/>
	<rect x="267" y="746.1" class="st32" width="19.7" height="7.6"/>
	<line class="st33" x1="276.9" y1="736.2" x2="276.9" y2="738.9"/>
	<line class="st33" x1="269.9" y1="738.9" x2="283.7" y2="738.9"/>
	<line class="st33" x1="272.7" y1="741.1" x2="280.9" y2="741.1"/>
	<line class="st33" x1="279.2" y1="743.2" x2="274.4" y2="743.2"/>
	<line class="st33" x1="145.8" y1="739.2" x2="159.7" y2="739.2"/>
	<line class="st33" x1="148.7" y1="741.4" x2="156.8" y2="741.4"/>
	<line class="st33" x1="155.2" y1="743.5" x2="150.3" y2="743.5"/>
	<path d="M156.4,629.8c0,1.7-1.3,2.9-2.8,2.9c-1.6,0-2.9-1.2-2.9-2.9c0-1.5,1.3-2.7,2.9-2.7C155.1,627.1,156.4,628.3,156.4,629.8"/>
	<path class="st30" d="M156.4,629.8c0,1.7-1.3,2.9-2.8,2.9c-1.6,0-2.9-1.2-2.9-2.9c0-1.5,1.3-2.7,2.9-2.7
		C155.1,627.1,156.4,628.3,156.4,629.8z"/>
	<path class="st34" d="M337.6,178.5l-0.5-2.2c0,0-0.5-2.7-2.9-2.8h-28.1l-1.7-2.9l-1.7,2.9h-28c-2.4,0.1-2.8,2.8-2.8,2.8l-0.5,2.2"
		/>
	<text transform="matrix(1 0 0 1 158.9302 149.4153)" class="st5 st6">10A</text>
	<text transform="matrix(1 0 0 1 145.0664 390.473)" class="st5 st35">IG4 Power supply</text>
	<text transform="matrix(1 0 0 1 88.3906 390.473)" class="st5 st35">IG4 Power supply</text>
	<text transform="matrix(1 0 0 1 93.0703 417.3412)" class="st5 st35">Ground</text>
	<rect x="156.4" y="620.2" class="st28" width="25.3" height="5.6"/>
	<rect x="156.4" y="620.2" class="st36" width="25.3" height="5.6"/>
	<text transform="matrix(1 0 0 1 157.1358 625.0931)" class="st5 st6">SP2787</text>
	<rect x="158.6" y="322.3" class="st28" width="25.3" height="5.6"/>
	<rect x="158.6" y="322.3" class="st36" width="25.3" height="5.6"/>
	<text transform="matrix(1 0 0 1 158.5527 327.1483)" class="st5 st6">SP3216</text>
	<text transform="matrix(1 0 0 1 148.071 417.3431)" class="st5 st35">Ground 2</text>
	<text transform="matrix(1 0 0 1 199.9509 417.3431)" class="st5 st35">Impact signal ground</text>
	<text transform="matrix(1 0 0 1 266.8319 417.3431)" class="st5 st35">Negative /ground</text>
	<text transform="matrix(1 0 0 1 325.7786 390.475)" class="st5 st35">CAN_L</text>
	<text transform="matrix(1 0 0 1 266.8321 390.475)" class="st5 st35">CAN_H</text>
	<text transform="matrix(1 0 0 1 260.404 168.4022)" class="st5 st6">See Energy Network Circuit Diagram</text>
	<rect x="148" y="347.6" class="st28" width="9.8" height="7.1"/>
	<text transform="matrix(1 0 0 1 144.3117 352.7299)" class="st5 st6">R 0.5</text>
	<rect x="148" y="199.7" class="st28" width="9.8" height="7.1"/>
	<text transform="matrix(1 0 0 1 144.3117 204.8892)" class="st5 st6">R 0.5</text>
	<rect x="92.1" y="347.6" class="st28" width="9.8" height="7.1"/>
	<text transform="matrix(1 0 0 1 88.3908 352.7299)" class="st5 st6">R 0.5</text>
	<rect x="262.2" y="347.6" class="st28" width="28.1" height="7.1"/>
	<g class="st3">
		<g>
			<g>
				<defs>
					<rect id="SVGID_21_" x="266.8" y="347.6" width="18.8" height="6.7"/>
				</defs>
				<clipPath id="SVGID_22_">
					<use xlink:href="#SVGID_21_"  style="overflow:visible;"/>
				</clipPath>
				<g class="st37">
					<text transform="matrix(1 0 0 1 266.8323 352.7299)" class="st5 st6">P 0.35</text>
				</g>
			</g>
		</g>
	</g>
	<rect x="318.9" y="347.6" class="st28" width="28.1" height="7.1"/>
	<g class="st3">
		<g>
			<g>
				<defs>
					<rect id="SVGID_23_" x="323.5" y="347.6" width="18.8" height="6.7"/>
				</defs>
				<clipPath id="SVGID_24_">
					<use xlink:href="#SVGID_23_"  style="overflow:visible;"/>
				</clipPath>
				<g class="st38">
					<text transform="matrix(1 0 0 1 323.4901 352.7299)" class="st5 st6">V 0.35</text>
				</g>
			</g>
		</g>
	</g>
	<rect x="138" y="678.2" class="st28" width="28.1" height="7.1"/>
	<g class="st3">
		<g>
			<g>
				<defs>
					<rect id="SVGID_25_" x="142.7" y="678.2" width="18.8" height="6.7"/>
				</defs>
				<clipPath id="SVGID_26_">
					<use xlink:href="#SVGID_25_"  style="overflow:visible;"/>
				</clipPath>
				<g class="st39">
					<text transform="matrix(1 0 0 1 145.0607 683.3226)" class="st5 st6">B 1.0</text>
				</g>
			</g>
		</g>
	</g>
	<rect x="139.2" y="452.9" class="st28" width="28.1" height="7.1"/>
	<g class="st3">
		<g>
			<g>
				<defs>
					<rect id="SVGID_27_" x="145.7" y="453.1" width="15.2" height="6.7"/>
				</defs>
				<clipPath id="SVGID_28_">
					<use xlink:href="#SVGID_27_"  style="overflow:visible;"/>
				</clipPath>
				<g class="st40">
					<text transform="matrix(1 0 0 1 145.6765 458.2494)" class="st5 st6">B 0.5</text>
				</g>
			</g>
		</g>
	</g>
	<rect x="83" y="452.9" class="st28" width="28.1" height="7.1"/>
	<g class="st3">
		<g>
			<g>
				<defs>
					<rect id="SVGID_29_" x="89.5" y="453.1" width="15.2" height="6.7"/>
				</defs>
				<clipPath id="SVGID_30_">
					<use xlink:href="#SVGID_29_"  style="overflow:visible;"/>
				</clipPath>
				<g class="st41">
					<text transform="matrix(1 0 0 1 89.4863 458.2494)" class="st5 st6">B 0.5</text>
				</g>
			</g>
		</g>
	</g>
	<rect x="195.9" y="452.9" class="st28" width="28.1" height="7.1"/>
	<g class="st3">
		<g>
			<g>
				<defs>
					<rect id="SVGID_31_" x="202.4" y="453.1" width="15.2" height="6.7"/>
				</defs>
				<clipPath id="SVGID_32_">
					<use xlink:href="#SVGID_31_"  style="overflow:visible;"/>
				</clipPath>
				<g class="st42">
					<text transform="matrix(1 0 0 1 202.3694 458.2494)" class="st5 st6">B 0.5</text>
				</g>
			</g>
		</g>
	</g>
	<rect x="262.8" y="452.9" class="st28" width="28.1" height="7.1"/>
	<g class="st3">
		<g>
			<g>
				<defs>
					<rect id="SVGID_33_" x="267.4" y="453.1" width="18.9" height="6.7"/>
				</defs>
				<clipPath id="SVGID_34_">
					<use xlink:href="#SVGID_33_"  style="overflow:visible;"/>
				</clipPath>
				<g class="st43">
					<text transform="matrix(1 0 0 1 267.3636 458.2494)" class="st5 st6">B 16.0</text>
				</g>
			</g>
		</g>
	</g>
	<g>
		<path class="st44" d="M421.7,663.1H314.5v-32.7h107.2c0,0-6.3,9.6,0,16.4C428,653.6,421.7,663.1,421.7,663.1"/>
	</g>
	<line class="st45" x1="334" y1="429.9" x2="334" y2="618.3"/>
	<g id="_x30_2-上针脚_9_">
		<line class="st27" x1="334.1" y1="622.2" x2="334.1" y2="630.4"/>
		<path class="st28" d="M334,619.1c-1.7,0-3,1.4-3,3c0,1.8,1.4,3.2,3,3.2c1.8,0,3.2-1.4,3.2-3.2C337.2,620.5,335.8,619.1,334,619.1"
			/>
		<path d="M334,619.6c-1.4,0-2.5,1.2-2.5,2.5c0,1.6,1.1,2.7,2.5,2.7v1.2c-2,0-3.7-1.6-3.7-3.8c0-2.1,1.7-3.7,3.7-3.7V619.6z
			 M334,626c2.2,0,3.8-1.7,3.8-3.8s-1.6-3.7-3.8-3.7v1.1c1.6,0,2.7,1.2,2.7,2.5c0,1.6-1.2,2.7-2.7,2.7V626"/>
		<rect x="330" y="622.3" class="st28" width="8.1" height="4.1"/>
		<rect x="333.6" y="621.3" width="1" height="4.2"/>
		<rect x="333.6" y="621.3" class="st29" width="1" height="4.2"/>
	</g>
	<path class="st46" d="M336.8,556.9c-0.2,1.5-1.4,2.5-2.8,2.5c-1.6,0-2.9-1.2-2.9-2.9c0-1.6,1.4-2.9,3.2-2.7
		C335.8,553.9,337,555.4,336.8,556.9z"/>
	<g id="_x30_2-上针脚_4_">
		<line class="st27" x1="334" y1="427.1" x2="334" y2="418.9"/>
		<path class="st28" d="M333.9,430.2c-1.7,0-3-1.4-3-3c0-1.8,1.4-3.2,3-3.2c1.8,0,3.2,1.4,3.2,3.2
			C337.1,428.8,335.7,430.2,333.9,430.2"/>
		<path d="M334,430.8c-2,0-3.7-1.6-3.7-3.7c0-2.2,1.7-3.8,3.7-3.8v1.2c-1.4,0-2.5,1.1-2.5,2.7c0,1.3,1.1,2.5,2.5,2.5V430.8z
			 M334,423.3v1.2c1.5,0,2.7,1.1,2.7,2.7c0,1.3-1.1,2.5-2.7,2.5v1.1c2.2,0,3.8-1.6,3.8-3.7S336.1,423.3,334,423.3"/>
		<rect x="329.9" y="422.9" class="st28" width="8.1" height="4.1"/>
		<rect x="333.5" y="423.8" width="1" height="4.2"/>
		<rect x="333.5" y="423.8" class="st29" width="1" height="4.2"/>
	</g>
	<rect x="330.3" y="591.5" class="st28" width="6.8" height="7.1"/>
	<g>
		<text transform="matrix(1 0 0 1 326.4183 596.8498)" class="st5 st6">Y 0.5</text>
	</g>
	<rect x="330.3" y="451.1" class="st28" width="6.8" height="7.1"/>
	<g>
		<text transform="matrix(1 0 0 1 326.4183 456.5165)" class="st5 st6">Y 0.5</text>
	</g>
	<line class="st45" x1="391.5" y1="481.7" x2="391.5" y2="618.3"/>
	<g id="_x30_2-上针脚_13_">
		<line class="st27" x1="391.5" y1="622.2" x2="391.5" y2="630.4"/>
		<path class="st28" d="M391.4,619.1c-1.7,0-3,1.4-3,3c0,1.8,1.4,3.2,3,3.2c1.8,0,3.2-1.4,3.2-3.2
			C394.6,620.5,393.2,619.1,391.4,619.1"/>
		<path d="M391.4,619.6c-1.4,0-2.5,1.2-2.5,2.5c0,1.6,1.1,2.7,2.5,2.7v1.2c-2,0-3.7-1.6-3.7-3.8c0-2.1,1.7-3.7,3.7-3.7V619.6z
			 M391.4,626c2.2,0,3.8-1.7,3.8-3.8s-1.6-3.7-3.8-3.7v1.1c1.6,0,2.7,1.2,2.7,2.5c0,1.6-1.2,2.7-2.7,2.7V626"/>
		<rect x="387.4" y="622.3" class="st28" width="8.1" height="4.1"/>
		<rect x="391" y="621.3" width="1" height="4.2"/>
		<rect x="391" y="621.3" class="st29" width="1" height="4.2"/>
	</g>
	<g>
		<text transform="matrix(1 0 0 1 326 417.341)" class="st5 st35">Impact signal</text>
	</g>
	<g>
		<text transform="matrix(1 0 0 1 327.5 635.513)" class="st5 st35">Impact signal</text>
	</g>
	<g>
		<text transform="matrix(1 0 0 1 383.8746 635.513)" class="st5 st35">Impact signal</text>
	</g>
	<rect x="339.5" y="553.8" class="st47" width="25.3" height="5.6"/>
	<text transform="matrix(1 0 0 1 340.1721 558.6564)" class="st5 st6">SP2406</text>
	<path class="st46" d="M394.3,557.2c-0.2,1.5-1.4,2.5-2.8,2.5c-1.6,0-2.9-1.2-2.9-2.9c0-1.6,1.4-2.9,3.2-2.7
		C393.3,554.2,394.5,555.7,394.3,557.2z"/>
	<rect x="396.4" y="553.8" class="st47" width="25.3" height="5.6"/>
	<text transform="matrix(1 0 0 1 397.075 558.6564)" class="st5 st6">SP2407</text>
	<rect x="387.8" y="591.5" class="st28" width="6.8" height="7.1"/>
	<g>
		<text transform="matrix(1 0 0 1 383.8743 596.8498)" class="st5 st6">Y 0.5</text>
	</g>
	<rect x="387.8" y="515" class="st28" width="6.8" height="7.1"/>
	<g>
		<text transform="matrix(1 0 0 1 383.8743 520.3958)" class="st5 st6">Y 0.5</text>
	</g>
</g>
<g>
	<text transform="matrix(1 0 0 1 185.2095 144.8328)" class="st48 st5 st6">Front Compartment Distribution Box</text>
</g>
<g>
	<text transform="matrix(1 0 0 1 158.7256 142.7991)" class="st48 st5 st6">F1/23</text>
</g>
<g>
	<text transform="matrix(1 0 0 1 159.877 177.473)" class="st48 st5 st6">B1C</text>
</g>
<g>
	<text transform="matrix(1 0 0 1 172.5435 177.473)" class="st48 st5 st6">-30</text>
</g>
<g>
	<text transform="matrix(1 0 0 1 282.0254 383.3094)" class="st48 st5 st6">B28</text>
</g>
<g>
	<text transform="matrix(1 0 0 1 293.2339 383.3099)" class="st48 st5 st6">-5</text>
</g>
<g>
	<text transform="matrix(1 0 0 1 338.6919 383.3094)" class="st48 st5 st6">B28</text>
</g>
<g>
	<text transform="matrix(1 0 0 1 349.9004 383.3099)" class="st48 st5 st6">-14</text>
</g>
<g>
	<text transform="matrix(1 0 0 1 102.2227 425.8617)" class="st48 st5 st6">B28</text>
</g>
<g>
	<text transform="matrix(1 0 0 1 113.811 425.8612)" class="st48 st5 st6">-1</text>
</g>
<g>
	<text transform="matrix(1 0 0 1 158.8594 425.8617)" class="st48 st5 st6">B28</text>
</g>
<g>
	<text transform="matrix(1 0 0 1 170.4478 425.8612)" class="st48 st5 st6">-6</text>
</g>
<g>
	<text transform="matrix(1 0 0 1 216.6523 425.8617)" class="st48 st5 st6">B28</text>
</g>
<g>
	<text transform="matrix(1 0 0 1 228.2407 425.8612)" class="st48 st5 st6">-8</text>
</g>
<g>
	<text transform="matrix(1 0 0 1 283.8164 425.8617)" class="st48 st5 st6">Fr02</text>
</g>
<g>
	<text transform="matrix(1 0 0 1 297.2329 425.8612)" class="st48 st5 st6">-1</text>
</g>
<g>
	<text transform="matrix(1 0 0 1 269.9922 752.4115)" class="st48 st5 st6">Fr01</text>
</g>
<g>
	<text transform="matrix(1 0 0 1 145.0605 751.6058)" class="st48 st5 st6">Eb02</text>
</g>
<g>
	<text transform="matrix(1 0 0 1 213.8735 404.6967)" class="st48 st5 st6">Front Drive Motor Control Module</text>
</g>
<g>
	<text transform="matrix(1 0 0 1 102.2275 383.3099)" class="st48 st5 st6">B28</text>
</g>
<g>
	<text transform="matrix(1 0 0 1 113.811 383.3099)" class="st48 st5 st6">-10</text>
</g>
<g>
	<text transform="matrix(1 0 0 1 158.7354 383.3099)" class="st48 st5 st6">B28</text>
</g>
<g>
	<text transform="matrix(1 0 0 1 170.3188 383.3099)" class="st48 st5 st6">-11</text>
</g>
<g>
	<text transform="matrix(1 0 0 1 334.5532 649.5946)" class="st48 st5 st6"> Left Body Controller</text>
</g>
<g>
	<text transform="matrix(1 0 0 1 370.4561 467.8573)" class="st48 st5 st6">Airbag Controller</text>
</g>
<g>
	<text transform="matrix(1 0 0 1 338.1055 627.8352)" class="st48 st5 st6">BG64(B)</text>
</g>
<g>
	<text transform="matrix(1 0 0 1 363.0527 627.8352)" class="st48 st5 st6">-40</text>
</g>
<g>
	<text transform="matrix(1 0 0 1 377.4111 477.677)" class="st48 st5 st6">KG10</text>
</g>
<g>
	<text transform="matrix(1 0 0 1 394.0986 477.677)" class="st48 st5 st6">-46</text>
</g>
<g>
	<text transform="matrix(1 0 0 1 338.5537 425.8616)" class="st48 st5 st6">B28</text>
</g>
<g>
	<text transform="matrix(1 0 0 1 350.2285 425.8616)" class="st48 st5 st6">-3</text>
</g>
<g>
	<text transform="matrix(1 0 0 1 397.0732 627.8352)" class="st49 st5 st6">KG64(D)</text>
</g>
<g>
	<text transform="matrix(1 0 0 1 421.9473 627.8352)" class="st49 st5 st6">-50</text>
</g>
</svg>
