<?xml version="1.0" encoding="utf-8"?>
<!-- Generator: Adobe Illustrator 24.0.1, SVG Export Plug-In . SVG Version: 6.00 Build 0)  -->
<svg version="1.1" id="图层_1" xmlns="http://www.w3.org/2000/svg" xmlns:xlink="http://www.w3.org/1999/xlink" x="0px" y="0px"
	 viewBox="0 0 1162.4 841.9" style="enable-background:new 0 0 1162.4 841.9;" xml:space="preserve">
<style type="text/css">
	.st0{fill:none;stroke:#FFF100;stroke-width:3;stroke-miterlimit:10;}
	.st1{fill:none;stroke:#000000;stroke-width:0.6;stroke-linejoin:round;}
	.st2{fill:#FFFFFF;}
	.st3{fill:none;stroke:#000000;stroke-width:0.72;stroke-linecap:round;stroke-linejoin:round;}
	.st4{font-family:'FZLTHJW--GB1-0';}
	.st5{font-size:6px;}
	.st6{fill:none;stroke:#000000;stroke-width:3;stroke-miterlimit:10;}
	.st7{fill:none;stroke:#F29C97;stroke-width:3;stroke-linejoin:round;stroke-miterlimit:10;}
	.st8{fill:none;stroke:#89438F;stroke-width:3;stroke-linejoin:round;stroke-miterlimit:10;}
	.st9{fill:none;stroke:#898989;stroke-width:3;stroke-linejoin:round;stroke-miterlimit:10;}
	.st10{fill:none;stroke:#009944;stroke-linejoin:round;stroke-miterlimit:10;}
	.st11{fill:none;stroke:#B29763;stroke-width:3;stroke-miterlimit:10;}
	.st12{fill:none;stroke:#E60012;stroke-width:3;stroke-miterlimit:10;}
	.st13{fill:none;stroke:#898989;stroke-miterlimit:10;}
	.st14{fill:#FFFFFF;stroke:#000000;stroke-width:0.5;stroke-miterlimit:10;}
	.st15{fill:none;stroke:#E60012;stroke-miterlimit:10;}
	.st16{fill:#DCDDDD;}
	.st17{fill:none;stroke:#040000;stroke-width:0.5;}
	.st18{fill:none;stroke:#040000;}
	.st19{fill:#9FD9F6;stroke:#000000;stroke-width:0.5;stroke-linecap:round;stroke-miterlimit:10;}
	.st20{fill:#CCCCCC;stroke:#000000;stroke-width:0.5;stroke-miterlimit:10;}
	.st21{fill:none;stroke:#FFF100;stroke-width:3;stroke-linejoin:round;stroke-miterlimit:10;}
	.st22{fill:none;stroke:#005EAD;stroke-linejoin:round;stroke-miterlimit:10;}
	.st23{fill:none;stroke:#005EAD;stroke-width:3;stroke-miterlimit:10;}
	.st24{fill:none;stroke:#FFFFFF;stroke-miterlimit:10;}
	.st25{fill:none;stroke:#FFF100;stroke-width:3;stroke-linecap:round;stroke-miterlimit:10;}
	.st26{fill:none;stroke:#000000;stroke-linecap:round;stroke-miterlimit:10;}
	.st27{fill:none;stroke:#000000;stroke-width:0.75;}
	.st28{fill:none;stroke:#000000;stroke-width:0.5;stroke-linejoin:round;}
	.st29{stroke:#FFFFFF;stroke-width:0.5;stroke-linecap:round;}
	.st30{fill:none;stroke:#FFFFFF;stroke-width:1.0001;}
	.st31{fill:none;stroke:#000000;stroke-width:0.5;stroke-miterlimit:10;}
	.st32{fill:none;stroke:#89438F;stroke-width:3;stroke-linecap:round;stroke-linejoin:round;stroke-miterlimit:10;}
	.st33{fill:none;stroke:#F29C97;stroke-width:3;stroke-linecap:round;stroke-linejoin:round;stroke-miterlimit:10;}
	.st34{fill:none;stroke:#000000;stroke-linecap:round;stroke-linejoin:round;}
	.st35{fill:none;stroke:#000000;stroke-width:0.6001;}
	.st36{stroke:#FFFFFF;stroke-width:0.5;}
	.st37{fill:none;stroke:#000000;stroke-width:1.3;}
	.st38{font-size:4px;}
	.st39{fill:none;stroke:#898989;stroke-width:3;stroke-miterlimit:10;}
	.st40{fill:none;stroke:#005EAD;stroke-miterlimit:10;}
	.st41{fill:none;stroke:#000000;stroke-miterlimit:10;}
	.st42{fill:#FFFFFF;stroke:#000000;stroke-width:0.25;}
	.st43{fill:#FFFFFF;stroke:#000000;stroke-width:0.25;stroke-linecap:round;stroke-linejoin:round;}
	.st44{fill:none;stroke:#000000;stroke-width:0.5;}
	.st45{fill:none;stroke:#090103;stroke-width:1.3;stroke-linecap:round;}
	.st46{fill:none;stroke:#000000;stroke-width:0.6;stroke-linecap:round;stroke-dasharray:3.001,1.8;}
	.st47{fill:none;stroke:#000000;}
	.st48{fill:none;stroke:#000000;stroke-width:0.6;stroke-linecap:round;stroke-linejoin:round;}
	.st49{fill:none;stroke:#000000;stroke-width:0.6;}
	.st50{fill:none;stroke:#090103;stroke-width:0.6;}
	.st51{fill:none;stroke:#FFFFFF;stroke-width:0.6;}
	.st52{fill:#040000;}
	.st53{fill:#065AA1;}
	.st54{font-size:3.8318px;}
	.st55{font-size:5.7477px;}
	.st56{fill:#005EAD;}
	.st57{fill:none;stroke:#E50012;stroke-linejoin:round;stroke-miterlimit:10;}
	.st58{fill:#231815;}
	.st59{fill:#005EAC;}
</style>
<line class="st0" x1="709.3" y1="461" x2="709.3" y2="691.5"/>
<g id="_x30_2-上针脚_46_">
	<line class="st1" x1="709.3" y1="459.1" x2="709.3" y2="450.9"/>
	<path class="st2" d="M709.2,462.2c-1.7,0-3-1.4-3-3c0-1.8,1.4-3.2,3-3.2c1.8,0,3.2,1.4,3.2,3.2C712.4,460.8,711,462.2,709.2,462.2"
		/>
	<path d="M709.3,462.8c-2,0-3.7-1.6-3.7-3.7c0-2.2,1.7-3.8,3.7-3.8v1.2c-1.4,0-2.5,1.1-2.5,2.7c0,1.3,1.1,2.5,2.5,2.5V462.8z
		 M709.3,455.3v1.2c1.5,0,2.7,1.1,2.7,2.7c0,1.3-1.1,2.5-2.7,2.5v1.1c2.2,0,3.8-1.6,3.8-3.7S711.5,455.3,709.3,455.3"/>
	<rect x="705.3" y="454.9" class="st2" width="8.1" height="4.1"/>
	<rect x="708.8" y="455.8" width="1" height="4.2"/>
	<rect x="708.8" y="455.8" class="st3" width="1" height="4.2"/>
</g>
<rect x="695.3" y="473.8" class="st2" width="28.1" height="7.1"/>
<g>
	<text transform="matrix(1 0 0 1 701.0681 479.4255)" class="st4 st5">Y 0.5</text>
</g>
<line class="st6" x1="116.1" y1="749.4" x2="116.1" y2="461.7"/>
<polyline class="st6" points="172.3,461.7 172.3,566.6 115,566.6 "/>
<polyline class="st7" points="973.2,204.7 973.2,334.1 822.5,334.1 "/>
<polyline class="st8" points="1029.7,204.7 1029.7,357.1 881.7,357.1 "/>
<line class="st9" x1="596.2" y1="204.6" x2="596.2" y2="414.2"/>
<line class="st10" x1="596.2" y1="204.6" x2="596.2" y2="414.2"/>
<line class="st0" x1="311.3" y1="206.8" x2="311.3" y2="414.8"/>
<line class="st11" x1="270.7" y1="206.8" x2="270.7" y2="414.8"/>
<polyline class="st12" points="221.2,414.8 221.2,348.3 174.7,348.3 "/>
<polyline class="st13" points="221.2,414.8 221.2,348.3 174.7,348.3 "/>
<g>
	<rect x="114.5" y="206.8" class="st14" width="3" height="208"/>
</g>
<line class="st15" x1="116" y1="206.8" x2="116" y2="414.8"/>
<g>
	<polyline class="st16" points="63.9,41.9 1108.7,41.9 1108.7,99.7 63.9,99.7 	"/>
	<line class="st17" x1="63.9" y1="47.6" x2="1108.7" y2="47.6"/>
	<line class="st18" x1="63.9" y1="41.6" x2="1108.7" y2="41.6"/>
	<line class="st17" x1="63.9" y1="58.9" x2="1108.7" y2="58.9"/>
	<line class="st17" x1="63.9" y1="70.6" x2="1108.7" y2="70.6"/>
	<line class="st17" x1="63.9" y1="82.3" x2="1108.7" y2="82.3"/>
	<line class="st17" x1="63.9" y1="93.9" x2="1108.7" y2="93.9"/>
	<line class="st18" x1="63.9" y1="99.7" x2="1108.7" y2="99.7"/>
</g>
<g>
	<text transform="matrix(1 0 0 1 1111.8507 49.6299)" class="st4 st5">30</text>
	<text transform="matrix(1 0 0 1 1111.8507 60.7959)" class="st4 st5">IG1</text>
	<text transform="matrix(1 0 0 1 1111.8507 72.4209)" class="st4 st5">IG3</text>
	<text transform="matrix(1 0 0 1 1111.8507 83.9248)" class="st4 st5">IG4</text>
	<text transform="matrix(1 0 0 1 1111.8507 96.1279)" class="st4 st5">ACC</text>
	<text transform="matrix(1 0 0 1 53.1304 49.7119)" class="st4 st5">30</text>
	<text transform="matrix(1 0 0 1 49.9664 60.8779)" class="st4 st5">IG1</text>
	<text transform="matrix(1 0 0 1 50.0132 72.5029)" class="st4 st5">IG3</text>
	<text transform="matrix(1 0 0 1 49.9664 84.0029)" class="st4 st5">IG4</text>
	<text transform="matrix(1 0 0 1 46.4741 96.1279)" class="st4 st5">ACC</text>
</g>
<g>
	<path class="st19" d="M617.9,727.9H251V702h366.9c0,0-5,7.6,0,13S617.9,727.9,617.9,727.9"/>
</g>
<g>
	<path class="st19" d="M795,727.9h-98.7V702H795c0,0-5,7.6,0,13S795,727.9,795,727.9"/>
</g>
<g>
	<path class="st19" d="M1058.6,195.5h-98.7v-25.9h98.7c0,0-5,7.6,0,13S1058.6,195.5,1058.6,195.5"/>
</g>
<g id="REB_x2C_A3_3_">
	<rect x="90.5" y="124.7" class="st20" width="330.3" height="71"/>
</g>
<rect x="91.7" y="425" class="st19" width="969.1" height="26.1"/>
<rect x="462" y="169.5" class="st19" width="449.8" height="26.1"/>
<polyline class="st21" points="482.6,204.6 482.6,348.3 311.4,348.3 "/>
<line class="st21" x1="652.6" y1="204.6" x2="652.6" y2="414.2"/>
<line class="st22" x1="652.6" y1="204.6" x2="652.6" y2="414.2"/>
<line class="st9" x1="709.3" y1="204.6" x2="709.3" y2="414.2"/>
<line class="st8" x1="879.4" y1="204.7" x2="879.4" y2="414.4"/>
<line class="st7" x1="822.7" y1="204.7" x2="822.7" y2="414.4"/>
<polyline class="st9" points="766,204.6 766,249.5 709.3,249.5 "/>
<line class="st12" x1="174.2" y1="206.8" x2="174.2" y2="414.8"/>
<line class="st13" x1="174.2" y1="206.8" x2="174.2" y2="414.8"/>
<line class="st23" x1="319.9" y1="461" x2="319.9" y2="691.5"/>
<line class="st24" x1="319.9" y1="461" x2="319.9" y2="691.5"/>
<line class="st23" x1="269.7" y1="461" x2="269.7" y2="690.5"/>
<polyline class="st25" points="596.4,496.4 652.4,496.4 652.4,690 "/>
<polyline class="st26" points="596.4,496.4 652.4,496.4 652.4,690 "/>
<line class="st25" x1="596.4" y1="461.9" x2="596.4" y2="690"/>
<line class="st26" x1="596.4" y1="461.9" x2="596.4" y2="690"/>
<g>
	<g>
		<path class="st27" d="M116,165.9c-1.2,0-2.2,1-2.2,2.2s1,2.2,2.2,2.2s2.2-1,2.2-2.2C118.3,166.9,117.3,165.9,116,165.9"/>
	</g>
	<g>
		<path class="st27" d="M116,150c-1.2,0-2.2,1-2.2,2.1c0,1.2,1,2.2,2.2,2.2s2.2-0.9,2.2-2.2C118.3,151,117.3,150,116,150"/>
	</g>
	<g>
		<g>
			<path class="st27" d="M114.6,153.8c-0.1,2.5,0.2,3.2,1.3,4.3c1.2,1.2,2.4,1.7,2.8,3.7c0.4,1.6-0.1,3.5-1.1,4.5"/>
		</g>
		<g>
			<path class="st27" d="M117.4,166.4c0.2-0.8,0-2.9-0.6-3.7c-0.9-1.2-2.7-2.1-3.3-4c-0.9-2.8,0.7-4.6,1.1-5"/>
		</g>
	</g>
</g>
<g>
	<g>
		<path class="st27" d="M174.3,165.9c-1.2,0-2.2,1-2.2,2.2s1,2.2,2.2,2.2s2.2-1,2.2-2.2S175.5,165.9,174.3,165.9"/>
	</g>
	<g>
		<path class="st27" d="M174.3,150c-1.2,0-2.2,1-2.2,2.1c0,1.2,1,2.2,2.2,2.2s2.2-0.9,2.2-2.2C176.5,151,175.5,150,174.3,150"/>
	</g>
	<g>
		<g>
			<path class="st27" d="M172.8,153.8c-0.1,2.5,0.2,3.2,1.3,4.3c1.2,1.2,2.4,1.7,2.8,3.7c0.4,1.6-0.1,3.5-1.1,4.5"/>
		</g>
		<g>
			<path class="st27" d="M175.7,166.4c0.2-0.8,0-2.9-0.6-3.7c-0.9-1.2-2.7-2.1-3.3-4c-0.9-2.8,0.7-4.6,1.1-5"/>
		</g>
	</g>
</g>
<g>
	<g>
		<polyline class="st28" points="116,170.3 116,175.2 116,195.6 		"/>
	</g>
</g>
<g>
	<g>
		<polyline class="st28" points="174.2,170.3 174.2,175.2 174.2,195.6 		"/>
	</g>
</g>
<g>
	<g>
		<polyline class="st28" points="116,150 116,146.4 116,47.7 		"/>
	</g>
</g>
<g>
	<g>
		<polyline class="st28" points="174.2,149.9 174.2,140.8 174.2,68.6 		"/>
	</g>
</g>
<g>
	<path class="st29" d="M113.1,47.7c0-1.7,1.3-2.9,2.8-2.9c1.6,0,2.9,1.2,2.9,2.9c0,1.5-1.3,2.7-2.9,2.7
		C114.4,50.4,113.1,49.2,113.1,47.7z"/>
	<g>
		<path class="st30" d="M113.1,47.7c0-1.7,1.3-2.9,2.8-2.9c1.6,0,2.9,1.2,2.9,2.9c0,1.5-1.3,2.7-2.9,2.7
			C114.4,50.4,113.1,49.2,113.1,47.7"/>
	</g>
</g>
<g id="_x30_2-上针脚_64_">
	<line class="st1" x1="116" y1="203.8" x2="116" y2="195.6"/>
	<path class="st2" d="M115.9,206.9c-1.7,0-3-1.4-3-3c0-1.8,1.4-3.2,3-3.2c1.8,0,3.2,1.4,3.2,3.2
		C119.1,205.5,117.7,206.9,115.9,206.9"/>
	<path d="M115.9,207.5c-2,0-3.7-1.6-3.7-3.7c0-2.2,1.7-3.8,3.7-3.8v1.2c-1.4,0-2.5,1.1-2.5,2.7c0,1.3,1.1,2.5,2.5,2.5V207.5z
		 M115.9,200v1.2c1.5,0,2.7,1.1,2.7,2.7c0,1.3-1.1,2.5-2.7,2.5v1.1c2.2,0,3.8-1.6,3.8-3.7C119.7,201.7,118.1,200,115.9,200"/>
	<rect x="111.9" y="199.6" class="st2" width="8.1" height="4.1"/>
	<rect x="115.5" y="200.5" width="1" height="4.2"/>
	<rect x="115.5" y="200.5" class="st3" width="1" height="4.2"/>
</g>
<g id="_x30_2-上针脚_45_">
	<line class="st1" x1="174.2" y1="203.8" x2="174.2" y2="195.6"/>
	<path class="st2" d="M174.1,206.9c-1.7,0-3-1.4-3-3c0-1.8,1.4-3.2,3-3.2c1.8,0,3.2,1.4,3.2,3.2
		C177.3,205.5,175.9,206.9,174.1,206.9"/>
	<path d="M174.2,207.5c-2,0-3.7-1.6-3.7-3.7c0-2.2,1.7-3.8,3.7-3.8v1.2c-1.4,0-2.5,1.1-2.5,2.7c0,1.3,1.1,2.5,2.5,2.5V207.5z
		 M174.2,200v1.2c1.5,0,2.7,1.1,2.7,2.7c0,1.3-1.1,2.5-2.7,2.5v1.1c2.2,0,3.8-1.6,3.8-3.7C178,201.7,176.4,200,174.2,200"/>
	<rect x="170.2" y="199.6" class="st2" width="8.1" height="4.1"/>
	<rect x="173.7" y="200.5" width="1" height="4.2"/>
	<rect x="173.7" y="200.5" class="st3" width="1" height="4.2"/>
</g>
<g id="_x30_2-上针脚_44_">
	<line class="st1" x1="116" y1="416.8" x2="116" y2="425"/>
	<path class="st2" d="M115.9,413.7c-1.7,0-3,1.4-3,3c0,1.8,1.4,3.2,3,3.2c1.8,0,3.2-1.4,3.2-3.2
		C119.1,415.1,117.7,413.7,115.9,413.7"/>
	<path d="M115.9,414.2c-1.4,0-2.5,1.2-2.5,2.5c0,1.6,1.1,2.7,2.5,2.7v1.2c-2,0-3.7-1.6-3.7-3.8c0-2.1,1.7-3.7,3.7-3.7V414.2z
		 M115.9,420.6c2.2,0,3.8-1.7,3.8-3.8s-1.6-3.7-3.8-3.7v1.1c1.6,0,2.7,1.2,2.7,2.5c0,1.6-1.2,2.7-2.7,2.7V420.6"/>
	<rect x="111.9" y="416.9" class="st2" width="8.1" height="4.1"/>
	<rect x="115.5" y="415.9" width="1" height="4.2"/>
	<rect x="115.5" y="415.9" class="st3" width="1" height="4.2"/>
</g>
<g id="_x30_2-上针脚_43_">
	<line class="st1" x1="221.1" y1="416.8" x2="221.1" y2="425"/>
	<path class="st2" d="M221,413.7c-1.7,0-3,1.4-3,3c0,1.8,1.4,3.2,3,3.2c1.8,0,3.2-1.4,3.2-3.2C224.2,415.1,222.8,413.7,221,413.7"/>
	<path d="M221,414.2c-1.4,0-2.5,1.2-2.5,2.5c0,1.6,1.1,2.7,2.5,2.7v1.2c-2,0-3.7-1.6-3.7-3.8c0-2.1,1.7-3.7,3.7-3.7V414.2z
		 M221,420.6c2.2,0,3.8-1.7,3.8-3.8s-1.6-3.7-3.8-3.7v1.1c1.6,0,2.7,1.2,2.7,2.5c0,1.6-1.2,2.7-2.7,2.7V420.6"/>
	<rect x="217" y="416.9" class="st2" width="8.1" height="4.1"/>
	<rect x="220.6" y="415.9" width="1" height="4.2"/>
	<rect x="220.6" y="415.9" class="st3" width="1" height="4.2"/>
</g>
<g id="_x30_2-上针脚_16_">
	<line class="st1" x1="270.7" y1="416.8" x2="270.7" y2="425"/>
	<path class="st2" d="M270.6,413.7c-1.7,0-3,1.4-3,3c0,1.8,1.4,3.2,3,3.2c1.8,0,3.2-1.4,3.2-3.2
		C273.8,415.1,272.4,413.7,270.6,413.7"/>
	<path d="M270.7,414.2c-1.4,0-2.5,1.2-2.5,2.5c0,1.6,1.1,2.7,2.5,2.7v1.2c-2,0-3.7-1.6-3.7-3.8c0-2.1,1.7-3.7,3.7-3.7V414.2z
		 M270.7,420.6c2.2,0,3.8-1.7,3.8-3.8s-1.6-3.7-3.8-3.7v1.1c1.6,0,2.7,1.2,2.7,2.5c0,1.6-1.2,2.7-2.7,2.7V420.6"/>
	<rect x="266.7" y="416.9" class="st2" width="8.1" height="4.1"/>
	<rect x="270.2" y="415.9" width="1" height="4.2"/>
	<rect x="270.2" y="415.9" class="st3" width="1" height="4.2"/>
</g>
<g id="_x30_2-上针脚_18_">
	<line class="st1" x1="311.2" y1="416.8" x2="311.2" y2="425"/>
	<path class="st2" d="M311.1,413.7c-1.7,0-3,1.4-3,3c0,1.8,1.4,3.2,3,3.2c1.8,0,3.2-1.4,3.2-3.2
		C314.3,415.1,312.9,413.7,311.1,413.7"/>
	<path d="M311.2,414.2c-1.4,0-2.5,1.2-2.5,2.5c0,1.6,1.1,2.7,2.5,2.7v1.2c-2,0-3.7-1.6-3.7-3.8c0-2.1,1.7-3.7,3.7-3.7V414.2z
		 M311.2,420.6c2.2,0,3.8-1.7,3.8-3.8s-1.6-3.7-3.8-3.7v1.1c1.6,0,2.7,1.2,2.7,2.5c0,1.6-1.2,2.7-2.7,2.7V420.6"/>
	<rect x="307.2" y="416.9" class="st2" width="8.1" height="4.1"/>
	<rect x="310.7" y="415.9" width="1" height="4.2"/>
	<rect x="310.7" y="415.9" class="st3" width="1" height="4.2"/>
</g>
<path class="st31" d="M881.7,237.2c3,0,5.5,2.2,5.5,4.8s-2.4,4.7-5.4,4.8l-62-9.6c-3,0.1-5.4,2.2-5.4,4.8c0,2.7,2.5,4.8,5.5,4.8
	L881.7,237.2z"/>
<path class="st31" d="M881.7,373.1c3,0,5.5,2.2,5.5,4.8c0,2.6-2.4,4.7-5.4,4.8l-62-9.6c-3,0.1-5.4,2.2-5.4,4.8
	c0,2.7,2.5,4.8,5.5,4.8L881.7,373.1z"/>
<line class="st32" x1="935.8" y1="456.8" x2="935.8" y2="690.5"/>
<line class="st33" x1="879.1" y1="456.8" x2="879.1" y2="690.5"/>
<path class="st34" d="M940.7,695.5l-0.6,2.1c0,0-0.6,2.5-3.3,2.6h-27.5l0,0l-2,2.7l-1.9-2.7c-9.2,0-27.3,0-27.3,0
	c-2.7-0.1-3.3-2.6-3.3-2.6l-0.6-2.1"/>
<path class="st31" d="M938.3,568.8c3,0,5.5,2.2,5.5,4.8s-2.4,4.7-5.4,4.8l-62-9.6c-3,0.1-5.4,2.2-5.4,4.8c0,2.7,2.5,4.8,5.5,4.8
	L938.3,568.8z"/>
<g>
	<path class="st29" d="M171.4,70.7c0-1.7,1.3-2.9,2.8-2.9c1.6,0,2.9,1.2,2.9,2.9c0,1.5-1.3,2.7-2.9,2.7
		C172.7,73.5,171.4,72.2,171.4,70.7z"/>
	<g>
		<path class="st30" d="M171.4,70.7c0-1.7,1.3-2.9,2.8-2.9c1.6,0,2.9,1.2,2.9,2.9c0,1.5-1.3,2.7-2.9,2.7
			C172.7,73.5,171.4,72.2,171.4,70.7"/>
	</g>
</g>
<g id="_x30_2-上针脚_40_">
	<line class="st1" x1="879.4" y1="417" x2="879.4" y2="425.2"/>
	<path class="st2" d="M879.3,413.9c-1.7,0-3,1.4-3,3c0,1.8,1.4,3.2,3,3.2c1.8,0,3.2-1.4,3.2-3.2
		C882.5,415.3,881.1,413.9,879.3,413.9"/>
	<path d="M879.4,414.4c-1.4,0-2.5,1.2-2.5,2.5c0,1.6,1.1,2.7,2.5,2.7v1.2c-2,0-3.7-1.6-3.7-3.8c0-2.1,1.7-3.7,3.7-3.7V414.4z
		 M879.4,420.8c2.2,0,3.8-1.7,3.8-3.8s-1.6-3.7-3.8-3.7v1.1c1.6,0,2.7,1.2,2.7,2.5c0,1.6-1.2,2.7-2.7,2.7V420.8"/>
	<rect x="875.4" y="417.1" class="st2" width="8.1" height="4.1"/>
	<rect x="878.9" y="416.1" width="1" height="4.2"/>
	<rect x="878.9" y="416.1" class="st3" width="1" height="4.2"/>
</g>
<g id="_x30_2-上针脚_39_">
	<line class="st1" x1="822.7" y1="417" x2="822.7" y2="425.2"/>
	<path class="st2" d="M822.6,413.9c-1.7,0-3,1.4-3,3c0,1.8,1.4,3.2,3,3.2c1.8,0,3.2-1.4,3.2-3.2
		C825.8,415.3,824.4,413.9,822.6,413.9"/>
	<path d="M822.7,414.4c-1.4,0-2.5,1.2-2.5,2.5c0,1.6,1.1,2.7,2.5,2.7v1.2c-2,0-3.7-1.6-3.7-3.8c0-2.1,1.7-3.7,3.7-3.7V414.4z
		 M822.7,420.8c2.2,0,3.8-1.7,3.8-3.8s-1.6-3.7-3.8-3.7v1.1c1.6,0,2.7,1.2,2.7,2.5c0,1.6-1.2,2.7-2.7,2.7V420.8"/>
	<rect x="818.7" y="417.1" class="st2" width="8.1" height="4.1"/>
	<rect x="822.2" y="416.1" width="1" height="4.2"/>
	<rect x="822.2" y="416.1" class="st3" width="1" height="4.2"/>
</g>
<g id="_x30_2-上针脚_38_">
	<line class="st1" x1="596" y1="416.8" x2="596" y2="425"/>
	<path class="st2" d="M595.9,413.7c-1.7,0-3,1.4-3,3c0,1.8,1.4,3.2,3,3.2c1.8,0,3.2-1.4,3.2-3.2
		C599.1,415.1,597.7,413.7,595.9,413.7"/>
	<path d="M595.9,414.2c-1.4,0-2.5,1.2-2.5,2.5c0,1.6,1.1,2.7,2.5,2.7v1.2c-2,0-3.7-1.6-3.7-3.8c0-2.1,1.7-3.7,3.7-3.7V414.2z
		 M595.9,420.6c2.2,0,3.8-1.7,3.8-3.8s-1.6-3.7-3.8-3.7v1.1c1.6,0,2.7,1.2,2.7,2.5c0,1.6-1.2,2.7-2.7,2.7V420.6"/>
	<rect x="591.9" y="416.9" class="st2" width="8.1" height="4.1"/>
	<rect x="595.5" y="415.9" width="1" height="4.2"/>
	<rect x="595.5" y="415.9" class="st3" width="1" height="4.2"/>
</g>
<g id="_x30_2-上针脚_37_">
	<line class="st1" x1="652.6" y1="416.8" x2="652.6" y2="425"/>
	<path class="st2" d="M652.5,413.7c-1.7,0-3,1.4-3,3c0,1.8,1.4,3.2,3,3.2c1.8,0,3.2-1.4,3.2-3.2
		C655.7,415.1,654.3,413.7,652.5,413.7"/>
	<path d="M652.6,414.2c-1.4,0-2.5,1.2-2.5,2.5c0,1.6,1.1,2.7,2.5,2.7v1.2c-2,0-3.7-1.6-3.7-3.8c0-2.1,1.7-3.7,3.7-3.7V414.2z
		 M652.6,420.6c2.2,0,3.8-1.7,3.8-3.8s-1.6-3.7-3.8-3.7v1.1c1.6,0,2.7,1.2,2.7,2.5c0,1.6-1.2,2.7-2.7,2.7V420.6"/>
	<rect x="648.6" y="416.9" class="st2" width="8.1" height="4.1"/>
	<rect x="652.1" y="415.9" width="1" height="4.2"/>
	<rect x="652.1" y="415.9" class="st3" width="1" height="4.2"/>
</g>
<g id="_x30_2-上针脚_36_">
	<line class="st1" x1="709.3" y1="416.8" x2="709.3" y2="425"/>
	<path class="st2" d="M709.2,413.7c-1.7,0-3,1.4-3,3c0,1.8,1.4,3.2,3,3.2c1.8,0,3.2-1.4,3.2-3.2C712.4,415.1,711,413.7,709.2,413.7"
		/>
	<path d="M709.3,414.2c-1.4,0-2.5,1.2-2.5,2.5c0,1.6,1.1,2.7,2.5,2.7v1.2c-2,0-3.7-1.6-3.7-3.8c0-2.1,1.7-3.7,3.7-3.7V414.2z
		 M709.3,420.6c2.2,0,3.8-1.7,3.8-3.8s-1.6-3.7-3.8-3.7v1.1c1.6,0,2.7,1.2,2.7,2.5c0,1.6-1.2,2.7-2.7,2.7V420.6"/>
	<rect x="705.3" y="416.9" class="st2" width="8.1" height="4.1"/>
	<rect x="708.8" y="415.9" width="1" height="4.2"/>
	<rect x="708.8" y="415.9" class="st3" width="1" height="4.2"/>
</g>
<g id="_x30_2-上针脚_34_">
	<line class="st1" x1="482.6" y1="203.8" x2="482.6" y2="195.6"/>
	<path class="st2" d="M482.5,206.9c-1.7,0-3-1.4-3-3c0-1.8,1.4-3.2,3-3.2c1.8,0,3.2,1.4,3.2,3.2
		C485.7,205.5,484.3,206.9,482.5,206.9"/>
	<path d="M482.5,207.5c-2,0-3.7-1.6-3.7-3.7c0-2.2,1.7-3.8,3.7-3.8v1.2c-1.4,0-2.5,1.1-2.5,2.7c0,1.3,1.1,2.5,2.5,2.5V207.5z
		 M482.5,200v1.2c1.5,0,2.7,1.1,2.7,2.7c0,1.3-1.1,2.5-2.7,2.5v1.1c2.2,0,3.8-1.6,3.8-3.7C486.3,201.7,484.7,200,482.5,200"/>
	<rect x="478.5" y="199.6" class="st2" width="8.1" height="4.1"/>
	<rect x="482.1" y="200.5" width="1" height="4.2"/>
	<rect x="482.1" y="200.5" class="st3" width="1" height="4.2"/>
</g>
<g id="_x30_2-上针脚_33_">
	<line class="st1" x1="879.4" y1="204" x2="879.4" y2="195.8"/>
	<path class="st2" d="M879.3,207.1c-1.7,0-3-1.4-3-3c0-1.8,1.4-3.2,3-3.2c1.8,0,3.2,1.4,3.2,3.2
		C882.5,205.7,881.1,207.1,879.3,207.1"/>
	<path d="M879.4,207.7c-2,0-3.7-1.6-3.7-3.7c0-2.2,1.7-3.8,3.7-3.8v1.2c-1.4,0-2.5,1.1-2.5,2.7c0,1.3,1.1,2.5,2.5,2.5V207.7z
		 M879.4,200.2v1.2c1.5,0,2.7,1.1,2.7,2.7c0,1.3-1.1,2.5-2.7,2.5v1.1c2.2,0,3.8-1.6,3.8-3.7C883.2,201.9,881.6,200.2,879.4,200.2"/>
	<rect x="875.4" y="199.8" class="st2" width="8.1" height="4.1"/>
	<rect x="878.9" y="200.7" width="1" height="4.2"/>
	<rect x="878.9" y="200.7" class="st3" width="1" height="4.2"/>
</g>
<g id="_x30_2-上针脚_19_">
	<line class="st1" x1="972.9" y1="204" x2="972.9" y2="195.8"/>
	<path class="st2" d="M972.8,207.1c-1.7,0-3-1.4-3-3c0-1.8,1.4-3.2,3-3.2c1.8,0,3.2,1.4,3.2,3.2C976,205.7,974.6,207.1,972.8,207.1"
		/>
	<path d="M972.8,207.7c-2,0-3.7-1.6-3.7-3.7c0-2.2,1.7-3.8,3.7-3.8v1.2c-1.4,0-2.5,1.1-2.5,2.7c0,1.3,1.1,2.5,2.5,2.5V207.7z
		 M972.8,200.2v1.2c1.5,0,2.7,1.1,2.7,2.7c0,1.3-1.1,2.5-2.7,2.5v1.1c2.2,0,3.8-1.6,3.8-3.7C976.6,201.9,975,200.2,972.8,200.2"/>
	<rect x="968.8" y="199.8" class="st2" width="8.1" height="4.1"/>
	<rect x="972.4" y="200.7" width="1" height="4.2"/>
	<rect x="972.4" y="200.7" class="st3" width="1" height="4.2"/>
</g>
<g id="_x30_2-上针脚_20_">
	<line class="st1" x1="1030" y1="204" x2="1030" y2="195.8"/>
	<path class="st2" d="M1029.9,207.1c-1.7,0-3-1.4-3-3c0-1.8,1.4-3.2,3-3.2c1.8,0,3.2,1.4,3.2,3.2
		C1033.1,205.7,1031.7,207.1,1029.9,207.1"/>
	<path d="M1030,207.7c-2,0-3.7-1.6-3.7-3.7c0-2.2,1.7-3.8,3.7-3.8v1.2c-1.4,0-2.5,1.1-2.5,2.7c0,1.3,1.1,2.5,2.5,2.5V207.7z
		 M1030,200.2v1.2c1.5,0,2.7,1.1,2.7,2.7c0,1.3-1.1,2.5-2.7,2.5v1.1c2.2,0,3.8-1.6,3.8-3.7C1033.8,201.9,1032.2,200.2,1030,200.2"/>
	<rect x="1026" y="199.8" class="st2" width="8.1" height="4.1"/>
	<rect x="1029.5" y="200.7" width="1" height="4.2"/>
	<rect x="1029.5" y="200.7" class="st3" width="1" height="4.2"/>
</g>
<g id="_x30_2-上针脚_32_">
	<line class="st1" x1="822.7" y1="204" x2="822.7" y2="195.8"/>
	<path class="st2" d="M822.6,207.1c-1.7,0-3-1.4-3-3c0-1.8,1.4-3.2,3-3.2c1.8,0,3.2,1.4,3.2,3.2
		C825.8,205.7,824.4,207.1,822.6,207.1"/>
	<path d="M822.7,207.7c-2,0-3.7-1.6-3.7-3.7c0-2.2,1.7-3.8,3.7-3.8v1.2c-1.4,0-2.5,1.1-2.5,2.7c0,1.3,1.1,2.5,2.5,2.5V207.7z
		 M822.7,200.2v1.2c1.5,0,2.7,1.1,2.7,2.7c0,1.3-1.1,2.5-2.7,2.5v1.1c2.2,0,3.8-1.6,3.8-3.7C826.5,201.9,824.9,200.2,822.7,200.2"/>
	<rect x="818.7" y="199.8" class="st2" width="8.1" height="4.1"/>
	<rect x="822.2" y="200.7" width="1" height="4.2"/>
	<rect x="822.2" y="200.7" class="st3" width="1" height="4.2"/>
</g>
<g id="_x30_2-上针脚_31_">
	<line class="st1" x1="935.8" y1="459.4" x2="935.8" y2="451.2"/>
	<path class="st2" d="M935.7,462.5c-1.7,0-3-1.4-3-3c0-1.8,1.4-3.2,3-3.2c1.8,0,3.2,1.4,3.2,3.2
		C938.9,461.1,937.5,462.5,935.7,462.5"/>
	<path d="M935.7,463.1c-2,0-3.7-1.6-3.7-3.7c0-2.2,1.7-3.8,3.7-3.8v1.2c-1.4,0-2.5,1.1-2.5,2.7c0,1.3,1.1,2.5,2.5,2.5V463.1z
		 M935.7,455.6v1.2c1.5,0,2.7,1.1,2.7,2.7c0,1.3-1.1,2.5-2.7,2.5v1.1c2.2,0,3.8-1.6,3.8-3.7S937.9,455.6,935.7,455.6"/>
	<rect x="931.7" y="455.2" class="st2" width="8.1" height="4.1"/>
	<rect x="935.3" y="456.1" width="1" height="4.2"/>
	<rect x="935.3" y="456.1" class="st3" width="1" height="4.2"/>
</g>
<g id="_x30_2-上针脚_30_">
	<line class="st1" x1="879.1" y1="459.4" x2="879.1" y2="451.2"/>
	<path class="st2" d="M879,462.5c-1.7,0-3-1.4-3-3c0-1.8,1.4-3.2,3-3.2c1.8,0,3.2,1.4,3.2,3.2C882.2,461.1,880.8,462.5,879,462.5"/>
	<path d="M879,463.1c-2,0-3.7-1.6-3.7-3.7c0-2.2,1.7-3.8,3.7-3.8v1.2c-1.4,0-2.5,1.1-2.5,2.7c0,1.3,1.1,2.5,2.5,2.5V463.1z
		 M879,455.6v1.2c1.5,0,2.7,1.1,2.7,2.7c0,1.3-1.1,2.5-2.7,2.5v1.1c2.2,0,3.8-1.6,3.8-3.7S881.2,455.6,879,455.6"/>
	<rect x="875" y="455.2" class="st2" width="8.1" height="4.1"/>
	<rect x="878.6" y="456.1" width="1" height="4.2"/>
	<rect x="878.6" y="456.1" class="st3" width="1" height="4.2"/>
</g>
<g id="_x30_2-上针脚_23_">
	<line class="st1" x1="596" y1="203.8" x2="596" y2="195.6"/>
	<path class="st2" d="M595.9,206.9c-1.7,0-3-1.4-3-3c0-1.8,1.4-3.2,3-3.2c1.8,0,3.2,1.4,3.2,3.2
		C599.1,205.5,597.7,206.9,595.9,206.9"/>
	<path d="M595.9,207.5c-2,0-3.7-1.6-3.7-3.7c0-2.2,1.7-3.8,3.7-3.8v1.2c-1.4,0-2.5,1.1-2.5,2.7c0,1.3,1.1,2.5,2.5,2.5V207.5z
		 M595.9,200v1.2c1.5,0,2.7,1.1,2.7,2.7c0,1.3-1.1,2.5-2.7,2.5v1.1c2.2,0,3.8-1.6,3.8-3.7C599.7,201.7,598.1,200,595.9,200"/>
	<rect x="591.9" y="199.6" class="st2" width="8.1" height="4.1"/>
	<rect x="595.5" y="200.5" width="1" height="4.2"/>
	<rect x="595.5" y="200.5" class="st3" width="1" height="4.2"/>
</g>
<g id="_x30_2-上针脚_22_">
	<line class="st1" x1="652.6" y1="203.8" x2="652.6" y2="195.6"/>
	<path class="st2" d="M652.5,206.9c-1.7,0-3-1.4-3-3c0-1.8,1.4-3.2,3-3.2c1.8,0,3.2,1.4,3.2,3.2
		C655.7,205.5,654.3,206.9,652.5,206.9"/>
	<path d="M652.6,207.5c-2,0-3.7-1.6-3.7-3.7c0-2.2,1.7-3.8,3.7-3.8v1.2c-1.4,0-2.5,1.1-2.5,2.7c0,1.3,1.1,2.5,2.5,2.5V207.5z
		 M652.6,200v1.2c1.5,0,2.7,1.1,2.7,2.7c0,1.3-1.1,2.5-2.7,2.5v1.1c2.2,0,3.8-1.6,3.8-3.7C656.4,201.7,654.8,200,652.6,200"/>
	<rect x="648.6" y="199.6" class="st2" width="8.1" height="4.1"/>
	<rect x="652.1" y="200.5" width="1" height="4.2"/>
	<rect x="652.1" y="200.5" class="st3" width="1" height="4.2"/>
</g>
<g id="_x30_2-上针脚_21_">
	<line class="st1" x1="709.3" y1="203.8" x2="709.3" y2="195.6"/>
	<path class="st2" d="M709.2,206.9c-1.7,0-3-1.4-3-3c0-1.8,1.4-3.2,3-3.2c1.8,0,3.2,1.4,3.2,3.2C712.4,205.5,711,206.9,709.2,206.9"
		/>
	<path d="M709.3,207.5c-2,0-3.7-1.6-3.7-3.7c0-2.2,1.7-3.8,3.7-3.8v1.2c-1.4,0-2.5,1.1-2.5,2.7c0,1.3,1.1,2.5,2.5,2.5V207.5z
		 M709.3,200v1.2c1.5,0,2.7,1.1,2.7,2.7c0,1.3-1.1,2.5-2.7,2.5v1.1c2.2,0,3.8-1.6,3.8-3.7C713.1,201.7,711.5,200,709.3,200"/>
	<rect x="705.3" y="199.6" class="st2" width="8.1" height="4.1"/>
	<rect x="708.8" y="200.5" width="1" height="4.2"/>
	<rect x="708.8" y="200.5" class="st3" width="1" height="4.2"/>
</g>
<g id="_x30_2-上针脚_12_">
	<line class="st1" x1="269.7" y1="693.8" x2="269.7" y2="702"/>
	<path class="st2" d="M269.6,690.7c-1.7,0-3,1.4-3,3c0,1.8,1.4,3.2,3,3.2c1.8,0,3.2-1.4,3.2-3.2
		C272.8,692.1,271.4,690.7,269.6,690.7"/>
	<path d="M269.6,691.2c-1.4,0-2.5,1.2-2.5,2.5c0,1.6,1.1,2.7,2.5,2.7v1.2c-2,0-3.7-1.6-3.7-3.8c0-2.1,1.7-3.7,3.7-3.7V691.2z
		 M269.6,697.6c2.2,0,3.8-1.7,3.8-3.8s-1.6-3.7-3.8-3.7v1.1c1.6,0,2.7,1.2,2.7,2.5c0,1.6-1.2,2.7-2.7,2.7V697.6"/>
	<rect x="265.6" y="693.9" class="st2" width="8.1" height="4.1"/>
	<rect x="269.2" y="692.9" width="1" height="4.2"/>
	<rect x="269.2" y="692.9" class="st3" width="1" height="4.2"/>
</g>
<g id="_x30_2-上针脚_11_">
	<line class="st1" x1="319.9" y1="693.8" x2="319.9" y2="702"/>
	<path class="st2" d="M319.8,690.7c-1.7,0-3,1.4-3,3c0,1.8,1.4,3.2,3,3.2c1.8,0,3.2-1.4,3.2-3.2C323,692.1,321.6,690.7,319.8,690.7"
		/>
	<path d="M319.9,691.2c-1.4,0-2.5,1.2-2.5,2.5c0,1.6,1.1,2.7,2.5,2.7v1.2c-2,0-3.7-1.6-3.7-3.8c0-2.1,1.7-3.7,3.7-3.7V691.2z
		 M319.9,697.6c2.2,0,3.8-1.7,3.8-3.8s-1.6-3.7-3.8-3.7v1.1c1.6,0,2.7,1.2,2.7,2.5c0,1.6-1.2,2.7-2.7,2.7V697.6"/>
	<rect x="315.8" y="693.9" class="st2" width="8.1" height="4.1"/>
	<rect x="319.4" y="692.9" width="1" height="4.2"/>
	<rect x="319.4" y="692.9" class="st3" width="1" height="4.2"/>
</g>
<g id="_x30_2-上针脚_10_">
	<line class="st1" x1="596.4" y1="693.8" x2="596.4" y2="702"/>
	<path class="st2" d="M596.3,690.7c-1.7,0-3,1.4-3,3c0,1.8,1.4,3.2,3,3.2c1.8,0,3.2-1.4,3.2-3.2
		C599.5,692.1,598.1,690.7,596.3,690.7"/>
	<path d="M596.4,691.2c-1.4,0-2.5,1.2-2.5,2.5c0,1.6,1.1,2.7,2.5,2.7v1.2c-2,0-3.7-1.6-3.7-3.8c0-2.1,1.7-3.7,3.7-3.7V691.2z
		 M596.4,697.6c2.2,0,3.8-1.7,3.8-3.8s-1.6-3.7-3.8-3.7v1.1c1.6,0,2.7,1.2,2.7,2.5c0,1.6-1.2,2.7-2.7,2.7V697.6"/>
	<rect x="592.4" y="693.9" class="st2" width="8.1" height="4.1"/>
	<rect x="595.9" y="692.9" width="1" height="4.2"/>
	<rect x="595.9" y="692.9" class="st3" width="1" height="4.2"/>
</g>
<g id="_x30_2-上针脚_9_">
	<line class="st1" x1="709.3" y1="693.8" x2="709.3" y2="702"/>
	<path class="st2" d="M709.2,690.7c-1.7,0-3,1.4-3,3c0,1.8,1.4,3.2,3,3.2c1.8,0,3.2-1.4,3.2-3.2C712.4,692.1,711,690.7,709.2,690.7"
		/>
	<path d="M709.3,691.2c-1.4,0-2.5,1.2-2.5,2.5c0,1.6,1.1,2.7,2.5,2.7v1.2c-2,0-3.7-1.6-3.7-3.8c0-2.1,1.7-3.7,3.7-3.7V691.2z
		 M709.3,697.6c2.2,0,3.8-1.7,3.8-3.8s-1.6-3.7-3.8-3.7v1.1c1.6,0,2.7,1.2,2.7,2.5c0,1.6-1.2,2.7-2.7,2.7V697.6"/>
	<rect x="705.3" y="693.9" class="st2" width="8.1" height="4.1"/>
	<rect x="708.8" y="692.9" width="1" height="4.2"/>
	<rect x="708.8" y="692.9" class="st3" width="1" height="4.2"/>
</g>
<g id="_x30_2-上针脚_8_">
	<line class="st1" x1="766" y1="203.8" x2="766" y2="195.6"/>
	<path class="st2" d="M765.9,206.9c-1.7,0-3-1.4-3-3c0-1.8,1.4-3.2,3-3.2c1.8,0,3.2,1.4,3.2,3.2
		C769.1,205.5,767.7,206.9,765.9,206.9"/>
	<path d="M766,207.5c-2,0-3.7-1.6-3.7-3.7c0-2.2,1.7-3.8,3.7-3.8v1.2c-1.4,0-2.5,1.1-2.5,2.7c0,1.3,1.1,2.5,2.5,2.5V207.5z M766,200
		v1.2c1.5,0,2.7,1.1,2.7,2.7c0,1.3-1.1,2.5-2.7,2.5v1.1c2.2,0,3.8-1.6,3.8-3.7C769.8,201.7,768.2,200,766,200"/>
	<rect x="762" y="199.6" class="st2" width="8.1" height="4.1"/>
	<rect x="765.5" y="200.5" width="1" height="4.2"/>
	<rect x="765.5" y="200.5" class="st3" width="1" height="4.2"/>
</g>
<g>
	<rect x="478.3" y="285.3" class="st2" width="8.5" height="19"/>
	<g>
		<g>
			<line class="st1" x1="482.6" y1="285.4" x2="482.6" y2="293.6"/>
			<path class="st2" d="M482.7,296.7c-1.8,0-3.2-1.4-3.2-3c0-1.8,1.4-3.2,3.2-3.2c1.6,0,3,1.4,3,3.2
				C485.7,295.3,484.4,296.7,482.7,296.7"/>
			<path d="M482.6,296.2c1.4,0,2.5-1.2,2.5-2.5c0-1.6-1.1-2.7-2.5-2.7v-1.2c2,0,3.7,1.6,3.7,3.8c0,2.1-1.7,3.7-3.7,3.7V296.2z
				 M482.6,289.8c-2.2,0-3.8,1.7-3.8,3.8s1.6,3.7,3.8,3.7v-1.1c-1.6,0-2.7-1.2-2.7-2.5c0-1.6,1.2-2.7,2.7-2.7V289.8"/>
			<rect x="478.5" y="289.4" class="st2" width="8.1" height="4.1"/>
			<rect x="482.1" y="290.3" width="1" height="4.2"/>
			<rect x="482.1" y="290.3" class="st3" width="1" height="4.2"/>
		</g>
		<line class="st35" x1="482.6" y1="297.3" x2="482.6" y2="303.8"/>
	</g>
</g>
<g>
	<rect x="591.9" y="285.3" class="st2" width="8.5" height="19"/>
	<g>
		<g>
			<line class="st1" x1="596.2" y1="285.4" x2="596.2" y2="293.6"/>
			<path class="st2" d="M596.3,296.7c-1.8,0-3.2-1.4-3.2-3c0-1.8,1.4-3.2,3.2-3.2c1.6,0,3,1.4,3,3.2
				C599.3,295.3,598,296.7,596.3,296.7"/>
			<path d="M596.2,296.2c1.4,0,2.5-1.2,2.5-2.5c0-1.6-1.1-2.7-2.5-2.7v-1.2c2,0,3.7,1.6,3.7,3.8c0,2.1-1.7,3.7-3.7,3.7V296.2z
				 M596.2,289.8c-2.2,0-3.8,1.7-3.8,3.8s1.6,3.7,3.8,3.7v-1.1c-1.6,0-2.7-1.2-2.7-2.5c0-1.6,1.2-2.7,2.7-2.7V289.8"/>
			<rect x="592.1" y="289.4" class="st2" width="8.1" height="4.1"/>
			<rect x="595.7" y="290.3" width="1" height="4.2"/>
			<rect x="595.7" y="290.3" class="st3" width="1" height="4.2"/>
		</g>
		<line class="st35" x1="596.2" y1="297.3" x2="596.2" y2="303.8"/>
	</g>
</g>
<g>
	<rect x="648.6" y="285.3" class="st2" width="8.5" height="19"/>
	<g>
		<g>
			<line class="st1" x1="652.8" y1="285.4" x2="652.8" y2="293.6"/>
			<path class="st2" d="M652.9,296.7c-1.8,0-3.2-1.4-3.2-3c0-1.8,1.4-3.2,3.2-3.2c1.6,0,3,1.4,3,3.2
				C655.9,295.3,654.6,296.7,652.9,296.7"/>
			<path d="M652.9,296.2c1.4,0,2.5-1.2,2.5-2.5c0-1.6-1.1-2.7-2.5-2.7v-1.2c2,0,3.7,1.6,3.7,3.8c0,2.1-1.7,3.7-3.7,3.7V296.2z
				 M652.9,289.8c-2.2,0-3.8,1.7-3.8,3.8s1.6,3.7,3.8,3.7v-1.1c-1.6,0-2.7-1.2-2.7-2.5c0-1.6,1.2-2.7,2.7-2.7V289.8"/>
			<rect x="648.8" y="289.4" class="st2" width="8.1" height="4.1"/>
			<rect x="652.3" y="290.3" width="1" height="4.2"/>
			<rect x="652.3" y="290.3" class="st3" width="1" height="4.2"/>
		</g>
		<line class="st35" x1="652.8" y1="297.3" x2="652.8" y2="303.8"/>
	</g>
</g>
<g>
	<rect x="705" y="285.3" class="st2" width="8.5" height="19"/>
	<g>
		<g>
			<line class="st1" x1="709.2" y1="285.4" x2="709.2" y2="293.6"/>
			<path class="st2" d="M709.3,296.7c-1.8,0-3.2-1.4-3.2-3c0-1.8,1.4-3.2,3.2-3.2c1.6,0,3,1.4,3,3.2
				C712.3,295.3,711,296.7,709.3,296.7"/>
			<path d="M709.3,296.2c1.4,0,2.5-1.2,2.5-2.5c0-1.6-1.1-2.7-2.5-2.7v-1.2c2,0,3.7,1.6,3.7,3.8c0,2.1-1.7,3.7-3.7,3.7V296.2z
				 M709.3,289.8c-2.2,0-3.8,1.7-3.8,3.8s1.6,3.7,3.8,3.7v-1.1c-1.6,0-2.7-1.2-2.7-2.5c0-1.6,1.2-2.7,2.7-2.7V289.8"/>
			<rect x="705.2" y="289.4" class="st2" width="8.1" height="4.1"/>
			<rect x="708.7" y="290.3" width="1" height="4.2"/>
			<rect x="708.7" y="290.3" class="st3" width="1" height="4.2"/>
		</g>
		<line class="st35" x1="709.2" y1="297.3" x2="709.2" y2="303.8"/>
	</g>
</g>
<g>
	<rect x="648.7" y="593.7" class="st2" width="8.5" height="19"/>
	<g>
		<g>
			<line class="st1" x1="652.9" y1="612.5" x2="652.9" y2="604.3"/>
			<path class="st2" d="M652.8,601.2c1.8,0,3.2,1.4,3.2,3c0,1.8-1.4,3.2-3.2,3.2c-1.6,0-3-1.4-3-3.2
				C649.8,602.6,651.1,601.2,652.8,601.2"/>
			<path d="M652.9,601.7c-1.4,0-2.5,1.2-2.5,2.5c0,1.6,1.1,2.7,2.5,2.7v1.2c-2,0-3.7-1.6-3.7-3.8c0-2.1,1.7-3.7,3.7-3.7V601.7z
				 M652.9,608.1c2.2,0,3.8-1.7,3.8-3.8s-1.6-3.7-3.8-3.7v1.1c1.6,0,2.7,1.2,2.7,2.5c0,1.6-1.2,2.7-2.7,2.7V608.1"/>
			<rect x="648.9" y="604.4" class="st2" width="8.1" height="4.1"/>
			<rect x="652.4" y="603.4" width="1" height="4.2"/>
			<rect x="652.4" y="603.4" class="st3" width="1" height="4.2"/>
		</g>
		<line class="st35" x1="652.9" y1="600.6" x2="652.9" y2="594.1"/>
	</g>
</g>
<g>
	<rect x="818.8" y="258.9" class="st2" width="8.5" height="19"/>
	<g>
		<g>
			<line class="st1" x1="823.1" y1="259.1" x2="823.1" y2="267.3"/>
			<path class="st2" d="M823.2,270.4c-1.8,0-3.2-1.4-3.2-3c0-1.8,1.4-3.2,3.2-3.2c1.6,0,3,1.4,3,3.2
				C826.2,269,824.9,270.4,823.2,270.4"/>
			<path d="M823.1,269.9c1.4,0,2.5-1.2,2.5-2.5c0-1.6-1.1-2.7-2.5-2.7v-1.2c2,0,3.7,1.6,3.7,3.8c0,2.1-1.7,3.7-3.7,3.7V269.9z
				 M823.1,263.5c-2.2,0-3.8,1.7-3.8,3.8s1.6,3.7,3.8,3.7v-1.1c-1.6,0-2.7-1.2-2.7-2.5c0-1.6,1.2-2.7,2.7-2.7V263.5"/>
			<rect x="819" y="263.1" class="st2" width="8.1" height="4.1"/>
			<rect x="822.6" y="264" width="1" height="4.2"/>
			<rect x="822.6" y="264" class="st3" width="1" height="4.2"/>
		</g>
		<line class="st35" x1="823.1" y1="270.9" x2="823.1" y2="277.4"/>
	</g>
</g>
<g>
	<rect x="875.3" y="258.9" class="st2" width="8.5" height="19"/>
	<g>
		<g>
			<line class="st1" x1="879.6" y1="259.1" x2="879.6" y2="267.3"/>
			<path class="st2" d="M879.7,270.4c-1.8,0-3.2-1.4-3.2-3c0-1.8,1.4-3.2,3.2-3.2c1.6,0,3,1.4,3,3.2
				C882.7,269,881.4,270.4,879.7,270.4"/>
			<path d="M879.6,269.9c1.4,0,2.5-1.2,2.5-2.5c0-1.6-1.1-2.7-2.5-2.7v-1.2c2,0,3.7,1.6,3.7,3.8c0,2.1-1.7,3.7-3.7,3.7V269.9z
				 M879.6,263.5c-2.2,0-3.8,1.7-3.8,3.8s1.6,3.7,3.8,3.7v-1.1c-1.6,0-2.7-1.2-2.7-2.5c0-1.6,1.2-2.7,2.7-2.7V263.5"/>
			<rect x="875.5" y="263.1" class="st2" width="8.1" height="4.1"/>
			<rect x="879.1" y="264" width="1" height="4.2"/>
			<rect x="879.1" y="264" class="st3" width="1" height="4.2"/>
		</g>
		<line class="st35" x1="879.6" y1="270.9" x2="879.6" y2="277.4"/>
	</g>
</g>
<g>
	<rect x="969" y="258.9" class="st2" width="8.5" height="19"/>
	<g>
		<g>
			<line class="st1" x1="973.2" y1="277.7" x2="973.2" y2="269.5"/>
			<path class="st2" d="M973.1,266.4c1.8,0,3.2,1.4,3.2,3c0,1.8-1.4,3.2-3.2,3.2c-1.6,0-3-1.4-3-3.2
				C970.1,267.8,971.4,266.4,973.1,266.4"/>
			<path d="M973.2,266.9c-1.4,0-2.5,1.2-2.5,2.5c0,1.6,1.1,2.7,2.5,2.7v1.2c-2,0-3.7-1.6-3.7-3.8c0-2.1,1.7-3.7,3.7-3.7V266.9z
				 M973.2,273.3c2.2,0,3.8-1.7,3.8-3.8c0-2.1-1.6-3.7-3.8-3.7v1.1c1.6,0,2.7,1.2,2.7,2.5c0,1.6-1.2,2.7-2.7,2.7V273.3"/>
			<rect x="969.2" y="269.6" class="st2" width="8.1" height="4.1"/>
			<rect x="972.7" y="268.6" width="1" height="4.2"/>
			<rect x="972.7" y="268.6" class="st3" width="1" height="4.2"/>
		</g>
		<line class="st35" x1="973.2" y1="265.8" x2="973.2" y2="259.4"/>
	</g>
</g>
<g>
	<rect x="1025.5" y="258.9" class="st2" width="8.5" height="19"/>
	<g>
		<g>
			<line class="st1" x1="1029.7" y1="277.7" x2="1029.7" y2="269.5"/>
			<path class="st2" d="M1029.6,266.4c1.8,0,3.2,1.4,3.2,3c0,1.8-1.4,3.2-3.2,3.2c-1.6,0-3-1.4-3-3.2
				C1026.6,267.8,1027.9,266.4,1029.6,266.4"/>
			<path d="M1029.7,266.9c-1.4,0-2.5,1.2-2.5,2.5c0,1.6,1.1,2.7,2.5,2.7v1.2c-2,0-3.7-1.6-3.7-3.8c0-2.1,1.7-3.7,3.7-3.7V266.9z
				 M1029.7,273.3c2.2,0,3.8-1.7,3.8-3.8c0-2.1-1.6-3.7-3.8-3.7v1.1c1.6,0,2.7,1.2,2.7,2.5c0,1.6-1.2,2.7-2.7,2.7V273.3"/>
			<rect x="1025.7" y="269.6" class="st2" width="8.1" height="4.1"/>
			<rect x="1029.2" y="268.6" width="1" height="4.2"/>
			<rect x="1029.2" y="268.6" class="st3" width="1" height="4.2"/>
		</g>
		<line class="st35" x1="1029.7" y1="265.8" x2="1029.7" y2="259.4"/>
	</g>
</g>
<path class="st36" d="M118.9,566.8c-0.2,1.5-1.4,2.5-2.8,2.5c-1.6,0-2.9-1.2-2.9-2.9c0-1.6,1.4-2.9,3.2-2.7
	C117.9,563.9,119.1,565.3,118.9,566.8z"/>
<g id="_x30_2-上针脚_7_">
	<line class="st1" x1="172.8" y1="459.1" x2="172.8" y2="450.9"/>
	<path class="st2" d="M172.7,462.2c-1.7,0-3-1.4-3-3c0-1.8,1.4-3.2,3-3.2c1.8,0,3.2,1.4,3.2,3.2
		C175.9,460.8,174.5,462.2,172.7,462.2"/>
	<path d="M172.7,462.8c-2,0-3.7-1.6-3.7-3.7c0-2.2,1.7-3.8,3.7-3.8v1.2c-1.4,0-2.5,1.1-2.5,2.7c0,1.3,1.1,2.5,2.5,2.5V462.8z
		 M172.7,455.3v1.2c1.5,0,2.7,1.1,2.7,2.7c0,1.3-1.1,2.5-2.7,2.5v1.1c2.2,0,3.8-1.6,3.8-3.7S174.9,455.3,172.7,455.3"/>
	<rect x="168.7" y="454.9" class="st2" width="8.1" height="4.1"/>
	<rect x="172.3" y="455.8" width="1" height="4.2"/>
	<rect x="172.3" y="455.8" class="st3" width="1" height="4.2"/>
</g>
<g id="_x30_2-上针脚_6_">
	<line class="st1" x1="116.1" y1="459.1" x2="116.1" y2="450.9"/>
	<path class="st2" d="M116,462.2c-1.7,0-3-1.4-3-3c0-1.8,1.4-3.2,3-3.2c1.8,0,3.2,1.4,3.2,3.2C119.2,460.8,117.8,462.2,116,462.2"/>
	<path d="M116,462.8c-2,0-3.7-1.6-3.7-3.7c0-2.2,1.7-3.8,3.7-3.8v1.2c-1.4,0-2.5,1.1-2.5,2.7c0,1.3,1.1,2.5,2.5,2.5V462.8z
		 M116,455.3v1.2c1.5,0,2.7,1.1,2.7,2.7c0,1.3-1.1,2.5-2.7,2.5v1.1c2.2,0,3.8-1.6,3.8-3.7S118.2,455.3,116,455.3"/>
	<rect x="112" y="454.9" class="st2" width="8.1" height="4.1"/>
	<rect x="115.6" y="455.8" width="1" height="4.2"/>
	<rect x="115.6" y="455.8" class="st3" width="1" height="4.2"/>
</g>
<g>
	<g>
		<line class="st37" x1="109.1" y1="749.4" x2="123" y2="749.4"/>
	</g>
	<g>
		<line class="st37" x1="112" y1="751.6" x2="120.1" y2="751.6"/>
	</g>
	<g>
		<line class="st37" x1="118.5" y1="753.7" x2="113.6" y2="753.7"/>
	</g>
</g>
<path class="st36" d="M599.3,496.8c-0.2,1.5-1.4,2.5-2.8,2.5c-1.6,0-2.9-1.2-2.9-2.9c0-1.6,1.4-2.9,3.2-2.7
	C598.3,493.9,599.4,495.3,599.3,496.8z"/>
<g id="_x30_2-上针脚_4_">
	<line class="st1" x1="596.4" y1="459.1" x2="596.4" y2="450.9"/>
	<path class="st2" d="M596.3,462.2c-1.7,0-3-1.4-3-3c0-1.8,1.4-3.2,3-3.2c1.8,0,3.2,1.4,3.2,3.2
		C599.5,460.8,598.1,462.2,596.3,462.2"/>
	<path d="M596.4,462.8c-2,0-3.7-1.6-3.7-3.7c0-2.2,1.7-3.8,3.7-3.8v1.2c-1.4,0-2.5,1.1-2.5,2.7c0,1.3,1.1,2.5,2.5,2.5V462.8z
		 M596.4,455.3v1.2c1.5,0,2.7,1.1,2.7,2.7c0,1.3-1.1,2.5-2.7,2.5v1.1c2.2,0,3.8-1.6,3.8-3.7S598.6,455.3,596.4,455.3"/>
	<rect x="592.4" y="454.9" class="st2" width="8.1" height="4.1"/>
	<rect x="595.9" y="455.8" width="1" height="4.2"/>
	<rect x="595.9" y="455.8" class="st3" width="1" height="4.2"/>
</g>
<g id="_x30_2-上针脚_2_">
	<line class="st1" x1="269.7" y1="459.1" x2="269.7" y2="450.9"/>
	<path class="st2" d="M269.6,462.2c-1.7,0-3-1.4-3-3c0-1.8,1.4-3.2,3-3.2c1.8,0,3.2,1.4,3.2,3.2
		C272.8,460.8,271.4,462.2,269.6,462.2"/>
	<path d="M269.6,462.8c-2,0-3.7-1.6-3.7-3.7c0-2.2,1.7-3.8,3.7-3.8v1.2c-1.4,0-2.5,1.1-2.5,2.7c0,1.3,1.1,2.5,2.5,2.5V462.8z
		 M269.6,455.3v1.2c1.5,0,2.7,1.1,2.7,2.7c0,1.3-1.1,2.5-2.7,2.5v1.1c2.2,0,3.8-1.6,3.8-3.7S271.8,455.3,269.6,455.3"/>
	<rect x="265.6" y="454.9" class="st2" width="8.1" height="4.1"/>
	<rect x="269.2" y="455.8" width="1" height="4.2"/>
	<rect x="269.2" y="455.8" class="st3" width="1" height="4.2"/>
</g>
<g id="_x30_2-上针脚_1_">
	<line class="st1" x1="319.9" y1="459.1" x2="319.9" y2="450.9"/>
	<path class="st2" d="M319.8,462.2c-1.7,0-3-1.4-3-3c0-1.8,1.4-3.2,3-3.2c1.8,0,3.2,1.4,3.2,3.2C323,460.8,321.6,462.2,319.8,462.2"
		/>
	<path d="M319.9,462.8c-2,0-3.7-1.6-3.7-3.7c0-2.2,1.7-3.8,3.7-3.8v1.2c-1.4,0-2.5,1.1-2.5,2.7c0,1.3,1.1,2.5,2.5,2.5V462.8z
		 M319.9,455.3v1.2c1.5,0,2.7,1.1,2.7,2.7c0,1.3-1.1,2.5-2.7,2.5v1.1c2.2,0,3.8-1.6,3.8-3.7S322.1,455.3,319.9,455.3"/>
	<rect x="315.8" y="454.9" class="st2" width="8.1" height="4.1"/>
	<rect x="319.4" y="455.8" width="1" height="4.2"/>
	<rect x="319.4" y="455.8" class="st3" width="1" height="4.2"/>
</g>
<g>
	<text transform="matrix(1 0 0 1 871.0557 449.3229)" class="st4 st38">CAN_H</text>
</g>
<g>
	<text transform="matrix(1 0 0 1 927.4647 449.3231)" class="st4 st38">CAN_L</text>
</g>
<rect x="102.1" y="219.3" class="st2" width="28.1" height="7.1"/>
<g>
	<text transform="matrix(1 0 0 1 102.43 224.6924)" class="st4 st5">W/R 0.35</text>
</g>
<rect x="160.2" y="219.3" class="st2" width="28.1" height="7.1"/>
<g>
	<text transform="matrix(1 0 0 1 162.08 224.6924)" class="st4 st5">R/Gr 0.5</text>
</g>
<g id="_x30_2-上针脚_15_">
	<line class="st1" x1="270.7" y1="203.8" x2="270.7" y2="195.6"/>
	<path class="st2" d="M270.6,206.9c-1.7,0-3-1.4-3-3c0-1.8,1.4-3.2,3-3.2c1.8,0,3.2,1.4,3.2,3.2
		C273.8,205.5,272.4,206.9,270.6,206.9"/>
	<path d="M270.7,207.5c-2,0-3.7-1.6-3.7-3.7c0-2.2,1.7-3.8,3.7-3.8v1.2c-1.4,0-2.5,1.1-2.5,2.7c0,1.3,1.1,2.5,2.5,2.5V207.5z
		 M270.7,200v1.2c1.5,0,2.7,1.1,2.7,2.7c0,1.3-1.1,2.5-2.7,2.5v1.1c2.2,0,3.8-1.6,3.8-3.7C274.5,201.7,272.9,200,270.7,200"/>
	<rect x="266.7" y="199.6" class="st2" width="8.1" height="4.1"/>
	<rect x="270.2" y="200.5" width="1" height="4.2"/>
	<rect x="270.2" y="200.5" class="st3" width="1" height="4.2"/>
</g>
<g id="_x30_2-上针脚_17_">
	<line class="st1" x1="311.4" y1="203.8" x2="311.4" y2="195.6"/>
	<path class="st2" d="M311.3,206.9c-1.7,0-3-1.4-3-3c0-1.8,1.4-3.2,3-3.2c1.8,0,3.2,1.4,3.2,3.2
		C314.5,205.5,313.1,206.9,311.3,206.9"/>
	<path d="M311.4,207.5c-2,0-3.7-1.6-3.7-3.7c0-2.2,1.7-3.8,3.7-3.8v1.2c-1.4,0-2.5,1.1-2.5,2.7c0,1.3,1.1,2.5,2.5,2.5V207.5z
		 M311.4,200v1.2c1.5,0,2.7,1.1,2.7,2.7c0,1.3-1.1,2.5-2.7,2.5v1.1c2.2,0,3.8-1.6,3.8-3.7C315.2,201.7,313.6,200,311.4,200"/>
	<rect x="307.3" y="199.6" class="st2" width="8.1" height="4.1"/>
	<rect x="310.9" y="200.5" width="1" height="4.2"/>
	<rect x="310.9" y="200.5" class="st3" width="1" height="4.2"/>
</g>
<rect x="256.7" y="219.3" class="st2" width="28.1" height="7.1"/>
<g>
	<text transform="matrix(1 0 0 1 260.2412 224.6924)" class="st4 st5">Br 0.22</text>
</g>
<rect x="297.2" y="219.3" class="st2" width="28.1" height="7.1"/>
<g>
	<text transform="matrix(1 0 0 1 303.6993 224.6924)" class="st4 st5">Y 1.5</text>
</g>
<rect x="297.2" y="395.3" class="st2" width="28.1" height="7.1"/>
<g>
	<text transform="matrix(1 0 0 1 303.6993 400.6563)" class="st4 st5">Y 1.5</text>
</g>
<rect x="256.7" y="395.3" class="st2" width="28.1" height="7.1"/>
<g>
	<text transform="matrix(1 0 0 1 260.2412 400.6563)" class="st4 st5">Br 0.22</text>
</g>
<rect x="525.2" y="219.3" class="st2" width="28.1" height="7.1"/>
<rect x="647.5" y="219.3" class="st2" width="10.2" height="7.1"/>
<g>
	<text transform="matrix(1 0 0 1 640.551 224.6926)" class="st4 st5">Y/L 0.35</text>
</g>
<rect x="647.5" y="394.1" class="st2" width="10.2" height="7.1"/>
<g>
	<text transform="matrix(1 0 0 1 640.551 399.4362)" class="st4 st5">Y/L 0.35</text>
</g>
<rect x="695.3" y="219.3" class="st2" width="28.1" height="7.1"/>
<g>
	<text transform="matrix(1 0 0 1 695.6619 224.6926)" class="st4 st5">W/G 0.22</text>
</g>
<rect x="695.3" y="219.3" class="st2" width="28.1" height="7.1"/>
<g>
	<text transform="matrix(1 0 0 1 698.5095 224.6926)" class="st4 st5">Gr 0.35</text>
</g>
<rect x="695.3" y="265.2" class="st2" width="28.1" height="7.1"/>
<g>
	<text transform="matrix(1 0 0 1 695.6619 270.6218)" class="st4 st5">W/G 0.22</text>
</g>
<rect x="695.3" y="265.2" class="st2" width="28.1" height="7.1"/>
<g>
	<text transform="matrix(1 0 0 1 698.5095 270.6218)" class="st4 st5">Gr 0.35</text>
</g>
<rect x="752" y="219.3" class="st2" width="28.1" height="7.1"/>
<g>
	<text transform="matrix(1 0 0 1 755.7678 224.6926)" class="st4 st5">Gr 0.35</text>
</g>
<rect x="695.3" y="394.1" class="st2" width="28.1" height="7.1"/>
<g>
	<text transform="matrix(1 0 0 1 695.6619 399.4362)" class="st4 st5">W/G 0.22</text>
</g>
<rect x="695.3" y="394.1" class="st2" width="28.1" height="7.1"/>
<g>
	<text transform="matrix(1 0 0 1 698.5095 399.4362)" class="st4 st5">Gr 0.35</text>
</g>
<rect x="581.9" y="219.3" class="st2" width="28.1" height="7.1"/>
<g>
	<text transform="matrix(1 0 0 1 582.6283 224.6924)" class="st4 st5">Gr/G 0.35</text>
</g>
<rect x="808.7" y="219.4" class="st2" width="28.1" height="7.1"/>
<g>
	<text transform="matrix(1 0 0 1 813.008 224.8309)" class="st4 st5">P 0.35</text>
</g>
<rect x="865.4" y="219.4" class="st2" width="28.1" height="7.1"/>
<g>
	<text transform="matrix(1 0 0 1 869.7005 224.8309)" class="st4 st5">V 0.35</text>
</g>
<path class="st31" d="M1032.2,237.2c3,0,5.5,2.2,5.5,4.8s-2.4,4.7-5.4,4.8l-62-9.6c-3,0.1-5.4,2.2-5.4,4.8c0,2.7,2.5,4.8,5.5,4.8
	L1032.2,237.2z"/>
<rect x="959.2" y="219.4" class="st2" width="28.1" height="7.1"/>
<g>
	<text transform="matrix(1 0 0 1 963.5021 224.8309)" class="st4 st5">P 0.35</text>
</g>
<rect x="1015.9" y="219.4" class="st2" width="28.1" height="7.1"/>
<g>
	<text transform="matrix(1 0 0 1 1020.1946 224.8309)" class="st4 st5">V 0.35</text>
</g>
<path class="st31" d="M881.7,305.5c3,0,5.5,2.2,5.5,4.8c0,2.6-2.4,4.7-5.4,4.8l-62-9.6c-3,0.1-5.4,2.2-5.4,4.8
	c0,2.7,2.5,4.8,5.5,4.8L881.7,305.5z"/>
<rect x="808.7" y="287.8" class="st2" width="28.1" height="7.1"/>
<g>
	<text transform="matrix(1 0 0 1 813.008 293.1719)" class="st4 st5">P 0.35</text>
</g>
<rect x="865.4" y="287.8" class="st2" width="28.1" height="7.1"/>
<g>
	<text transform="matrix(1 0 0 1 869.7005 293.1719)" class="st4 st5">V 0.35</text>
</g>
<path class="st31" d="M1034.5,305.5c3,0,5.5,2.2,5.5,4.8c0,2.6-2.4,4.7-5.4,4.8l-62-9.6c-3,0.1-5.4,2.2-5.4,4.8
	c0,2.7,2.5,4.8,5.5,4.8L1034.5,305.5z"/>
<rect x="961.5" y="287.8" class="st2" width="28.1" height="7.1"/>
<g>
	<text transform="matrix(1 0 0 1 965.8474 293.1719)" class="st4 st5">P 0.35</text>
</g>
<rect x="1018.2" y="287.8" class="st2" width="28.1" height="7.1"/>
<g>
	<text transform="matrix(1 0 0 1 1022.5399 293.1719)" class="st4 st5">V 0.35</text>
</g>
<rect x="479" y="219.3" class="st2" width="7.2" height="7.1"/>
<g>
	<text transform="matrix(1 0 0 1 474.9608 224.6924)" class="st4 st5">Y 1.0</text>
</g>
<rect x="525.2" y="395.9" class="st2" width="28.1" height="7.1"/>
<rect x="581.9" y="394.1" class="st2" width="28.1" height="7.1"/>
<g>
	<text transform="matrix(1 0 0 1 582.8701 399.1457)" class="st4 st5">Gr/G 0.35</text>
</g>
<rect x="808.7" y="394.2" class="st2" width="28.1" height="7.1"/>
<g>
	<text transform="matrix(1 0 0 1 813.008 399.5746)" class="st4 st5">P 0.35</text>
</g>
<rect x="865.4" y="394.2" class="st2" width="28.1" height="7.1"/>
<g>
	<text transform="matrix(1 0 0 1 869.7005 399.5746)" class="st4 st5">V 0.35</text>
</g>
<rect x="255.7" y="671" class="st2" width="28.1" height="7.1"/>
<g>
	<text transform="matrix(1 0 0 1 260.6595 676.6399)" class="st4 st5">L 0.35</text>
</g>
<rect x="305.9" y="671" class="st2" width="28.1" height="7.1"/>
<g>
	<text transform="matrix(1 0 0 1 306.8835 676.6399)" class="st4 st5">L/W 0.35</text>
</g>
<line class="st23" x1="427.6" y1="461" x2="427.6" y2="691.5"/>
<line class="st15" x1="427.6" y1="461" x2="427.6" y2="691.5"/>
<line class="st0" x1="375.5" y1="461" x2="375.5" y2="690.5"/>
<line class="st24" x1="375.5" y1="461" x2="375.5" y2="690.5"/>
<g id="_x30_2-上针脚_26_">
	<line class="st1" x1="375.5" y1="693.8" x2="375.5" y2="702"/>
	<path class="st2" d="M375.4,690.7c-1.7,0-3,1.4-3,3c0,1.8,1.4,3.2,3,3.2c1.8,0,3.2-1.4,3.2-3.2
		C378.6,692.1,377.2,690.7,375.4,690.7"/>
	<path d="M375.4,691.2c-1.4,0-2.5,1.2-2.5,2.5c0,1.6,1.1,2.7,2.5,2.7v1.2c-2,0-3.7-1.6-3.7-3.8c0-2.1,1.7-3.7,3.7-3.7V691.2z
		 M375.4,697.6c2.2,0,3.8-1.7,3.8-3.8s-1.6-3.7-3.8-3.7v1.1c1.6,0,2.7,1.2,2.7,2.5c0,1.6-1.2,2.7-2.7,2.7V697.6"/>
	<rect x="371.4" y="693.9" class="st2" width="8.1" height="4.1"/>
	<rect x="375" y="692.9" width="1" height="4.2"/>
	<rect x="375" y="692.9" class="st3" width="1" height="4.2"/>
</g>
<g id="_x30_2-上针脚_25_">
	<line class="st1" x1="427.6" y1="693.8" x2="427.6" y2="702"/>
	<path class="st2" d="M427.5,690.7c-1.7,0-3,1.4-3,3c0,1.8,1.4,3.2,3,3.2c1.8,0,3.2-1.4,3.2-3.2
		C430.7,692.1,429.3,690.7,427.5,690.7"/>
	<path d="M427.6,691.2c-1.4,0-2.5,1.2-2.5,2.5c0,1.6,1.1,2.7,2.5,2.7v1.2c-2,0-3.7-1.6-3.7-3.8c0-2.1,1.7-3.7,3.7-3.7V691.2z
		 M427.6,697.6c2.2,0,3.8-1.7,3.8-3.8s-1.6-3.7-3.8-3.7v1.1c1.6,0,2.7,1.2,2.7,2.5c0,1.6-1.2,2.7-2.7,2.7V697.6"/>
	<rect x="423.6" y="693.9" class="st2" width="8.1" height="4.1"/>
	<rect x="427.1" y="692.9" width="1" height="4.2"/>
	<rect x="427.1" y="692.9" class="st3" width="1" height="4.2"/>
</g>
<g id="_x30_2-上针脚_24_">
	<line class="st1" x1="375.5" y1="459.1" x2="375.5" y2="450.9"/>
	<path class="st2" d="M375.4,462.2c-1.7,0-3-1.4-3-3c0-1.8,1.4-3.2,3-3.2c1.8,0,3.2,1.4,3.2,3.2
		C378.6,460.8,377.2,462.2,375.4,462.2"/>
	<path d="M375.4,462.8c-2,0-3.7-1.6-3.7-3.7c0-2.2,1.7-3.8,3.7-3.8v1.2c-1.4,0-2.5,1.1-2.5,2.7c0,1.3,1.1,2.5,2.5,2.5V462.8z
		 M375.4,455.3v1.2c1.5,0,2.7,1.1,2.7,2.7c0,1.3-1.1,2.5-2.7,2.5v1.1c2.2,0,3.8-1.6,3.8-3.7S377.6,455.3,375.4,455.3"/>
	<rect x="371.4" y="454.9" class="st2" width="8.1" height="4.1"/>
	<rect x="375" y="455.8" width="1" height="4.2"/>
	<rect x="375" y="455.8" class="st3" width="1" height="4.2"/>
</g>
<g id="_x30_2-上针脚_5_">
	<line class="st1" x1="427.6" y1="459.1" x2="427.6" y2="450.9"/>
	<path class="st2" d="M427.5,462.2c-1.7,0-3-1.4-3-3c0-1.8,1.4-3.2,3-3.2c1.8,0,3.2,1.4,3.2,3.2
		C430.7,460.8,429.3,462.2,427.5,462.2"/>
	<path d="M427.6,462.8c-2,0-3.7-1.6-3.7-3.7c0-2.2,1.7-3.8,3.7-3.8v1.2c-1.4,0-2.5,1.1-2.5,2.7c0,1.3,1.1,2.5,2.5,2.5V462.8z
		 M427.6,455.3v1.2c1.5,0,2.7,1.1,2.7,2.7c0,1.3-1.1,2.5-2.7,2.5v1.1c2.2,0,3.8-1.6,3.8-3.7S429.8,455.3,427.6,455.3"/>
	<rect x="423.6" y="454.9" class="st2" width="8.1" height="4.1"/>
	<rect x="427.1" y="455.8" width="1" height="4.2"/>
	<rect x="427.1" y="455.8" class="st3" width="1" height="4.2"/>
</g>
<rect x="361.4" y="671" class="st2" width="28.1" height="7.1"/>
<g>
	<text transform="matrix(1 0 0 1 362.1081 676.6399)" class="st4 st5">Y/W 0.35</text>
</g>
<rect x="413.6" y="671" class="st2" width="28.1" height="7.1"/>
<g>
	<text transform="matrix(1 0 0 1 415.3756 676.6399)" class="st4 st5">L/R 0.35</text>
</g>
<line class="st39" x1="528" y1="461" x2="528" y2="691.5"/>
<line class="st40" x1="528" y1="461" x2="528" y2="691.5"/>
<line class="st39" x1="474.7" y1="461" x2="474.7" y2="690.5"/>
<line class="st41" x1="474.7" y1="461" x2="474.7" y2="690.5"/>
<g id="_x30_2-上针脚_41_">
	<line class="st1" x1="474.7" y1="693.8" x2="474.7" y2="702"/>
	<path class="st2" d="M474.6,690.7c-1.7,0-3,1.4-3,3c0,1.8,1.4,3.2,3,3.2c1.8,0,3.2-1.4,3.2-3.2
		C477.8,692.1,476.4,690.7,474.6,690.7"/>
	<path d="M474.6,691.2c-1.4,0-2.5,1.2-2.5,2.5c0,1.6,1.1,2.7,2.5,2.7v1.2c-2,0-3.7-1.6-3.7-3.8c0-2.1,1.7-3.7,3.7-3.7V691.2z
		 M474.6,697.6c2.2,0,3.8-1.7,3.8-3.8s-1.6-3.7-3.8-3.7v1.1c1.6,0,2.7,1.2,2.7,2.5c0,1.6-1.2,2.7-2.7,2.7V697.6"/>
	<rect x="470.6" y="693.9" class="st2" width="8.1" height="4.1"/>
	<rect x="474.2" y="692.9" width="1" height="4.2"/>
	<rect x="474.2" y="692.9" class="st3" width="1" height="4.2"/>
</g>
<g id="_x30_2-上针脚_29_">
	<line class="st1" x1="528" y1="693.8" x2="528" y2="702"/>
	<path class="st2" d="M527.9,690.7c-1.7,0-3,1.4-3,3c0,1.8,1.4,3.2,3,3.2c1.8,0,3.2-1.4,3.2-3.2
		C531.1,692.1,529.7,690.7,527.9,690.7"/>
	<path d="M527.9,691.2c-1.4,0-2.5,1.2-2.5,2.5c0,1.6,1.1,2.7,2.5,2.7v1.2c-2,0-3.7-1.6-3.7-3.8c0-2.1,1.7-3.7,3.7-3.7V691.2z
		 M527.9,697.6c2.2,0,3.8-1.7,3.8-3.8s-1.6-3.7-3.8-3.7v1.1c1.6,0,2.7,1.2,2.7,2.5c0,1.6-1.2,2.7-2.7,2.7V697.6"/>
	<rect x="523.9" y="693.9" class="st2" width="8.1" height="4.1"/>
	<rect x="527.5" y="692.9" width="1" height="4.2"/>
	<rect x="527.5" y="692.9" class="st3" width="1" height="4.2"/>
</g>
<g id="_x30_2-上针脚_28_">
	<line class="st1" x1="474.7" y1="459.1" x2="474.7" y2="450.9"/>
	<path class="st2" d="M474.6,462.2c-1.7,0-3-1.4-3-3c0-1.8,1.4-3.2,3-3.2c1.8,0,3.2,1.4,3.2,3.2
		C477.8,460.8,476.4,462.2,474.6,462.2"/>
	<path d="M474.6,462.8c-2,0-3.7-1.6-3.7-3.7c0-2.2,1.7-3.8,3.7-3.8v1.2c-1.4,0-2.5,1.1-2.5,2.7c0,1.3,1.1,2.5,2.5,2.5V462.8z
		 M474.6,455.3v1.2c1.5,0,2.7,1.1,2.7,2.7c0,1.3-1.1,2.5-2.7,2.5v1.1c2.2,0,3.8-1.6,3.8-3.7S476.8,455.3,474.6,455.3"/>
	<rect x="470.6" y="454.9" class="st2" width="8.1" height="4.1"/>
	<rect x="474.2" y="455.8" width="1" height="4.2"/>
	<rect x="474.2" y="455.8" class="st3" width="1" height="4.2"/>
</g>
<g id="_x30_2-上针脚_27_">
	<line class="st1" x1="528" y1="459.1" x2="528" y2="450.9"/>
	<path class="st2" d="M527.9,462.2c-1.7,0-3-1.4-3-3c0-1.8,1.4-3.2,3-3.2c1.8,0,3.2,1.4,3.2,3.2
		C531.1,460.8,529.7,462.2,527.9,462.2"/>
	<path d="M527.9,462.8c-2,0-3.7-1.6-3.7-3.7c0-2.2,1.7-3.8,3.7-3.8v1.2c-1.4,0-2.5,1.1-2.5,2.7c0,1.3,1.1,2.5,2.5,2.5V462.8z
		 M527.9,455.3v1.2c1.5,0,2.7,1.1,2.7,2.7c0,1.3-1.1,2.5-2.7,2.5v1.1c2.2,0,3.8-1.6,3.8-3.7S530.1,455.3,527.9,455.3"/>
	<rect x="523.9" y="454.9" class="st2" width="8.1" height="4.1"/>
	<rect x="527.5" y="455.8" width="1" height="4.2"/>
	<rect x="527.5" y="455.8" class="st3" width="1" height="4.2"/>
</g>
<rect x="460.6" y="671" class="st2" width="28.1" height="7.1"/>
<g>
	<text transform="matrix(1 0 0 1 460.738 676.6399)" class="st4 st5">Gr/B 0.35</text>
</g>
<rect x="513.9" y="671" class="st2" width="28.1" height="7.1"/>
<g>
	<text transform="matrix(1 0 0 1 514.3748 676.6399)" class="st4 st5">Gr/L 0.35</text>
</g>
<rect x="255.7" y="473.8" class="st2" width="28.1" height="7.1"/>
<g>
	<text transform="matrix(1 0 0 1 260.6595 479.4255)" class="st4 st5">L 0.35</text>
</g>
<rect x="305.9" y="473.8" class="st2" width="28.1" height="7.1"/>
<g>
	<text transform="matrix(1 0 0 1 306.8835 479.4255)" class="st4 st5">L/W 0.35</text>
</g>
<rect x="361.4" y="473.8" class="st2" width="28.1" height="7.1"/>
<g>
	<text transform="matrix(1 0 0 1 362.1081 479.4255)" class="st4 st5">Y/W 0.35</text>
</g>
<rect x="413.6" y="473.8" class="st2" width="28.1" height="7.1"/>
<g>
	<text transform="matrix(1 0 0 1 415.3756 479.4255)" class="st4 st5">L/R 0.35</text>
</g>
<rect x="460.6" y="473.8" class="st2" width="28.1" height="7.1"/>
<g>
	<text transform="matrix(1 0 0 1 460.738 479.4255)" class="st4 st5">Gr/B 0.35</text>
</g>
<rect x="158.7" y="473.8" class="st2" width="28.1" height="7.1"/>
<g>
	<text transform="matrix(1 0 0 1 163.3999 479.2209)" class="st4 st5">B 0.35</text>
</g>
<rect x="102.1" y="473.8" class="st2" width="28.1" height="7.1"/>
<g>
	<text transform="matrix(1 0 0 1 108.512 479.2209)" class="st4 st5">B 0.5</text>
</g>
<rect x="102.1" y="617.6" class="st2" width="28.1" height="7.1"/>
<g>
	<text transform="matrix(1 0 0 1 108.5122 622.998)" class="st4 st5">B 0.5</text>
</g>
<rect x="158.7" y="473.8" class="st2" width="28.1" height="7.1"/>
<g>
	<text transform="matrix(1 0 0 1 165.5874 479.2209)" class="st4 st5">B 0.5</text>
</g>
<rect x="102.1" y="473.8" class="st2" width="28.1" height="7.1"/>
<g>
	<text transform="matrix(1 0 0 1 106.7073 479.2209)" class="st4 st5">B 0.35</text>
</g>
<rect x="102.1" y="617.6" class="st2" width="28.1" height="7.1"/>
<g>
	<text transform="matrix(1 0 0 1 108.5122 622.998)" class="st4 st5">B 1.0</text>
</g>
<rect x="160.2" y="395.3" class="st2" width="28.1" height="7.1"/>
<g>
	<text transform="matrix(1 0 0 1 162.0806 400.6563)" class="st4 st5">R/Gr 0.5</text>
</g>
<rect x="160.2" y="319.7" class="st2" width="28.1" height="7.1"/>
<g>
	<text transform="matrix(1 0 0 1 162.0806 325.0759)" class="st4 st5">R/Gr 0.5</text>
</g>
<rect x="480.2" y="319.7" class="st2" width="5.5" height="7.1"/>
<g>
	<text transform="matrix(1 0 0 1 474.2515 325.0759)" class="st4 st5">Y 1.0</text>
</g>
<g id="_x30_2-上针脚_14_">
	<line class="st1" x1="174.2" y1="416.8" x2="174.2" y2="425"/>
	<path class="st2" d="M174.1,413.7c-1.7,0-3,1.4-3,3c0,1.8,1.4,3.2,3,3.2c1.8,0,3.2-1.4,3.2-3.2
		C177.3,415.1,175.9,413.7,174.1,413.7"/>
	<path d="M174.2,414.2c-1.4,0-2.5,1.2-2.5,2.5c0,1.6,1.1,2.7,2.5,2.7v1.2c-2,0-3.7-1.6-3.7-3.8c0-2.1,1.7-3.7,3.7-3.7V414.2z
		 M174.2,420.6c2.2,0,3.8-1.7,3.8-3.8s-1.6-3.7-3.8-3.7v1.1c1.6,0,2.7,1.2,2.7,2.5c0,1.6-1.2,2.7-2.7,2.7V420.6"/>
	<rect x="170.2" y="416.9" class="st2" width="8.1" height="4.1"/>
	<rect x="173.7" y="415.9" width="1" height="4.2"/>
	<rect x="173.7" y="415.9" class="st3" width="1" height="4.2"/>
</g>
<rect x="207.2" y="395.3" class="st2" width="28.1" height="7.1"/>
<g>
	<text transform="matrix(1 0 0 1 209.0718 400.6563)" class="st4 st5">R/Gr 0.5</text>
</g>
<rect x="102.1" y="395.3" class="st2" width="28.1" height="7.1"/>
<g>
	<text transform="matrix(1 0 0 1 102.43 400.6563)" class="st4 st5">W/R 0.35</text>
</g>
<g>
	<text transform="matrix(1 0 0 1 121.3311 164.6006)" class="st4 st5">5A</text>
</g>
<g>
	<g>
		<path class="st27" d="M392.5,165.9c-1.2,0-2.2,1-2.2,2.2s1,2.2,2.2,2.2s2.2-1,2.2-2.2C394.8,166.9,393.7,165.9,392.5,165.9"/>
	</g>
	<g>
		<path class="st27" d="M392.5,150c-1.2,0-2.2,1-2.2,2.1c0,1.2,1,2.2,2.2,2.2s2.2-0.9,2.2-2.2C394.8,151,393.7,150,392.5,150"/>
	</g>
	<g>
		<g>
			<path class="st27" d="M391,153.8c-0.1,2.5,0.2,3.2,1.3,4.3c1.2,1.2,2.4,1.7,2.8,3.7c0.4,1.6-0.1,3.5-1.1,4.5"/>
		</g>
		<g>
			<path class="st27" d="M393.9,166.4c0.2-0.8,0-2.9-0.6-3.7c-0.9-1.2-2.7-2.1-3.3-4c-0.9-2.8,0.7-4.6,1.1-5"/>
		</g>
	</g>
</g>
<g>
	<g>
		<polyline class="st28" points="392.5,150 392.5,146.4 392.5,47.7 		"/>
	</g>
</g>
<g>
	<path class="st29" d="M389.6,47.7c0-1.7,1.3-2.9,2.8-2.9c1.6,0,2.9,1.2,2.9,2.9c0,1.5-1.3,2.7-2.9,2.7
		C390.9,50.4,389.6,49.2,389.6,47.7z"/>
	<g>
		<path class="st30" d="M389.6,47.7c0-1.7,1.3-2.9,2.8-2.9c1.6,0,2.9,1.2,2.9,2.9c0,1.5-1.3,2.7-2.9,2.7
			C390.9,50.4,389.6,49.2,389.6,47.7"/>
	</g>
</g>
<g>
	<text transform="matrix(1 0 0 1 397.8105 164.6006)" class="st4 st5">20A</text>
</g>
<g>
	<text transform="matrix(1 0 0 1 179.8486 164.6004)" class="st4 st5">10A</text>
</g>
<g>
	<rect x="871.9" y="474.4" class="st2" width="12.1" height="6"/>
	<g>
		<text transform="matrix(1 0 0 1 869.7007 479.3588)" class="st4 st5">P 0.35</text>
	</g>
</g>
<g>
	<rect x="926.4" y="474.4" class="st2" width="13.5" height="6"/>
	<g>
		<text transform="matrix(1 0 0 1 926.3591 479.3594)" class="st4 st5">V 0.35</text>
	</g>
</g>
<rect x="121.4" y="556.7" class="st42" width="25.3" height="5.6"/>
<text transform="matrix(1 0 0 1 122.1004 561.6117)" class="st4 st5">SP1000</text>
<rect x="121.4" y="556.7" class="st42" width="25.3" height="5.6"/>
<text transform="matrix(1 0 0 1 122.1004 561.6117)" class="st4 st5">SP2777</text>
<path class="st36" d="M177,348.7c-0.2,1.5-1.4,2.5-2.8,2.5c-1.6,0-2.9-1.2-2.9-2.9c0-1.6,1.4-2.9,3.2-2.7
	C176,345.7,177.2,347.2,177,348.7z"/>
<rect x="177.1" y="338.5" class="st42" width="25.3" height="5.6"/>
<text transform="matrix(1 0 0 1 177.7639 343.3969)" class="st4 st5">SP1000</text>
<rect x="177.1" y="338.5" class="st42" width="25.3" height="5.6"/>
<text transform="matrix(1 0 0 1 177.7639 343.3969)" class="st4 st5">SP3208</text>
<path class="st36" d="M314,348.7c-0.2,1.5-1.4,2.5-2.8,2.5c-1.6,0-2.9-1.2-2.9-2.9c0-1.6,1.4-2.9,3.2-2.7
	C313,345.7,314.1,347.2,314,348.7z"/>
<rect x="314" y="338.5" class="st42" width="25.3" height="5.6"/>
<text transform="matrix(1 0 0 1 314.6979 343.3969)" class="st4 st5">SP1000</text>
<rect x="314" y="338.5" class="st42" width="25.3" height="5.6"/>
<path class="st36" d="M177,270c-0.2,1.5-1.4,2.5-2.8,2.5c-1.6,0-2.9-1.2-2.9-2.9c0-1.6,1.4-2.9,3.2-2.7
	C176,267.1,177.2,268.5,177,270z"/>
<rect x="179" y="266.9" class="st42" width="25.3" height="5.6"/>
<text transform="matrix(1 0 0 1 179.672 271.7927)" class="st4 st5">SP1000</text>
<rect x="179" y="266.9" class="st42" width="25.3" height="5.6"/>
<text transform="matrix(1 0 0 1 179.672 271.7927)" class="st4 st5">SP3215</text>
<path class="st36" d="M712.6,249.8c-0.2,1.5-1.4,2.5-2.8,2.5c-1.6,0-2.9-1.2-2.9-2.9c0-1.6,1.4-2.9,3.2-2.7
	C711.6,246.8,712.8,248.3,712.6,249.8z"/>
<rect x="713.1" y="240.5" class="st42" width="25.3" height="5.6"/>
<text transform="matrix(1 0 0 1 713.8003 245.3844)" class="st4 st5">SP1000</text>
<rect x="713.1" y="240.5" class="st42" width="25.3" height="5.6"/>
<text transform="matrix(1 0 0 1 713.8003 245.3844)" class="st4 st5">SP3209</text>
<path class="st36" d="M825.3,334.4c-0.2,1.5-1.4,2.5-2.8,2.5c-1.6,0-2.9-1.2-2.9-2.9c0-1.6,1.4-2.9,3.2-2.7
	C824.3,331.4,825.4,332.8,825.3,334.4z"/>
<rect x="825.8" y="325.1" class="st42" width="25.3" height="5.6"/>
<text transform="matrix(1 0 0 1 826.467 329.9555)" class="st4 st5">SP1000</text>
<rect x="825.8" y="325.1" class="st42" width="25.3" height="5.6"/>
<text transform="matrix(1 0 0 1 826.467 329.9555)" class="st4 st5">SP3232</text>
<path class="st36" d="M882.1,357.4c-0.2,1.5-1.4,2.5-2.8,2.5c-1.6,0-2.9-1.2-2.9-2.9c0-1.6,1.4-2.9,3.2-2.7
	C881.1,354.4,882.2,355.8,882.1,357.4z"/>
<rect x="882.6" y="348.1" class="st42" width="25.3" height="5.6"/>
<text transform="matrix(1 0 0 1 883.2789 352.9555)" class="st4 st5">SP1000</text>
<rect x="882.6" y="348.1" class="st42" width="25.3" height="5.6"/>
<text transform="matrix(1 0 0 1 883.2789 352.9555)" class="st4 st5">SP3231</text>
<rect x="582.4" y="671" class="st2" width="28.1" height="7.1"/>
<g>
	<text transform="matrix(1 0 0 1 588.8558 676.415)" class="st4 st5">B 0.5</text>
</g>
<rect x="582.4" y="671" class="st2" width="28.1" height="7.1"/>
<g>
	<text transform="matrix(1 0 0 1 583.9926 676.415)" class="st4 st5">Y/B 0.35</text>
</g>
<rect x="648.6" y="662" class="st2" width="8.4" height="7.1"/>
<g>
	<text transform="matrix(1 0 0 1 639.6367 667.7691)" class="st4 st5">Y/B 0.35</text>
</g>
<rect x="638.2" y="529" class="st2" width="28.1" height="7.1"/>
<rect x="638.2" y="529" class="st2" width="28.1" height="7.1"/>
<g>
	<text transform="matrix(1 0 0 1 639.8044 534.3513)" class="st4 st5">Y/B 0.35</text>
</g>
<line class="st25" x1="766.7" y1="513.7" x2="766.7" y2="690"/>
<g id="_x30_2-上针脚_13_">
	<line class="st1" x1="766.7" y1="693.8" x2="766.7" y2="702"/>
	<path class="st2" d="M766.6,690.7c-1.7,0-3,1.4-3,3c0,1.8,1.4,3.2,3,3.2c1.8,0,3.2-1.4,3.2-3.2
		C769.8,692.1,768.4,690.7,766.6,690.7"/>
	<path d="M766.7,691.2c-1.4,0-2.5,1.2-2.5,2.5c0,1.6,1.1,2.7,2.5,2.7v1.2c-2,0-3.7-1.6-3.7-3.8c0-2.1,1.7-3.7,3.7-3.7V691.2z
		 M766.7,697.6c2.2,0,3.8-1.7,3.8-3.8s-1.6-3.7-3.8-3.7v1.1c1.6,0,2.7,1.2,2.7,2.5c0,1.6-1.2,2.7-2.7,2.7V697.6"/>
	<rect x="762.7" y="693.9" class="st2" width="8.1" height="4.1"/>
	<rect x="766.2" y="692.9" width="1" height="4.2"/>
	<rect x="766.2" y="692.9" class="st3" width="1" height="4.2"/>
</g>
<rect x="752.7" y="671" class="st2" width="28.1" height="7.1"/>
<g>
	<text transform="matrix(1 0 0 1 759.1251 676.415)" class="st4 st5">B 0.5</text>
</g>
<rect x="752.7" y="671" class="st2" width="28.1" height="7.1"/>
<g>
	<text transform="matrix(1 0 0 1 757.3204 676.415)" class="st4 st5">Y 0.35</text>
</g>
<rect x="704.7" y="670.8" class="st2" width="8.2" height="7.1"/>
<rect x="600.6" y="485.9" class="st42" width="25.3" height="5.6"/>
<text transform="matrix(1 0 0 1 601.3604 490.7616)" class="st4 st5">SP3213</text>
<path class="st36" d="M769.5,635.8c-0.2,1.5-1.4,2.5-2.8,2.5c-1.6,0-2.9-1.2-2.9-2.9c0-1.6,1.4-2.9,3.2-2.7
	C768.5,632.9,769.7,634.3,769.5,635.8z"/>
<rect x="771.6" y="632.4" class="st42" width="25.3" height="5.6"/>
<text transform="matrix(1 0 0 1 772.3257 637.3241)" class="st4 st5">SP2407</text>
<path class="st36" d="M712.2,635.8c-0.2,1.5-1.4,2.5-2.8,2.5c-1.6,0-2.9-1.2-2.9-2.9c0-1.6,1.4-2.9,3.2-2.7
	C711.2,632.9,712.3,634.3,712.2,635.8z"/>
<rect x="714.3" y="632.4" class="st42" width="25.3" height="5.6"/>
<text transform="matrix(1 0 0 1 714.9697 637.3241)" class="st4 st5">SP2406</text>
<g>
	<rect x="106" y="756.6" class="st2" width="20.3" height="8.2"/>
	<rect x="106.2" y="757" class="st43" width="19.7" height="7.6"/>
</g>
<rect x="758" y="531.2" class="st2" width="16.3" height="7.1"/>
<g>
	<text transform="matrix(1 0 0 1 756.6906 536.6847)" class="st4 st5">Y 0.35</text>
</g>
<line class="st44" x1="270.7" y1="185.4" x2="270.7" y2="188"/>
<rect x="244.3" y="142.7" class="st45" width="91.3" height="37.2"/>
<polyline class="st28" points="270.7,70.8 270.7,90.6 270.7,102.6 270.7,112.6 270.7,157.6 270.7,168.4 270.7,176.5 270.7,195.6 "/>
<polyline class="st28" points="311.4,168.6 311.4,172.9 311.4,175.5 311.4,177.7 311.4,187.4 311.4,189.7 311.4,191.5 311.4,195.6 
	"/>
<polyline class="st28" points="311.4,142.9 311.4,133.2 370.3,133.2 370.3,190.5 392.7,190.5 392.7,170.3 "/>
<line class="st46" x1="258.3" y1="160.8" x2="311.3" y2="160.9"/>
<rect x="263.5" y="158.2" class="st2" width="14.2" height="5.5"/>
<rect x="263.5" y="158.2" class="st41" width="14.2" height="5.5"/>
<rect x="254.3" y="157.2" class="st47" width="4" height="8.1"/>
<polyline class="st48" points="256.3,156.9 256.3,150.2 269.6,150.2 "/>
<polyline class="st48" points="256.3,165.3 256.3,171.4 270.5,171.4 "/>
<line class="st47" x1="273.1" y1="163.7" x2="268.3" y2="158.2"/>
<rect x="263.5" y="158.2" class="st47" width="14.2" height="5.5"/>
<line class="st49" x1="311.4" y1="142.9" x2="311.4" y2="152.6"/>
<line class="st50" x1="311.4" y1="167.8" x2="316.7" y2="156.8"/>
<path d="M270.7,148.2c1.1,0,2,0.9,2,2s-0.9,2-2,2s-2-0.9-2-2C268.7,149.1,269.6,148.2,270.7,148.2"/>
<circle class="st51" cx="270.7" cy="150.2" r="2"/>
<path d="M270.7,169.4c1.1,0,2,0.9,2,2s-0.9,2-2,2s-2-0.9-2-2C268.7,170.3,269.6,169.4,270.7,169.4"/>
<circle class="st51" cx="270.7" cy="171.4" r="2"/>
<path class="st2" d="M311.4,152c0.7,0,1.3,0.6,1.3,1.3s-0.6,1.3-1.3,1.3c-0.7,0-1.3-0.6-1.3-1.3S310.7,152,311.4,152"/>
<path class="st50" d="M311.4,152c0.7,0,1.3,0.6,1.3,1.3s-0.6,1.3-1.3,1.3c-0.7,0-1.3-0.6-1.3-1.3S310.7,152,311.4,152z"/>
<path class="st2" d="M311.4,166.1c0.7,0,1.3,0.6,1.3,1.3s-0.6,1.3-1.3,1.3c-0.7,0-1.3-0.6-1.3-1.3
	C310.1,166.7,310.7,166.1,311.4,166.1"/>
<path class="st50" d="M311.4,166.1c0.7,0,1.3,0.6,1.3,1.3s-0.6,1.3-1.3,1.3c-0.7,0-1.3-0.6-1.3-1.3
	C310.1,166.7,310.7,166.1,311.4,166.1z"/>
<g>
	<path class="st29" d="M267.8,70.7c0-1.7,1.3-2.9,2.8-2.9c1.6,0,2.9,1.2,2.9,2.9c0,1.5-1.3,2.7-2.9,2.7
		C269.1,73.5,267.8,72.2,267.8,70.7z"/>
	<g>
		<path class="st30" d="M267.8,70.7c0-1.7,1.3-2.9,2.8-2.9c1.6,0,2.9,1.2,2.9,2.9c0,1.5-1.3,2.7-2.9,2.7
			C269.1,73.5,267.8,72.2,267.8,70.7"/>
	</g>
</g>
<g>
	<text transform="matrix(1 0 0 1 701.2225 676.415)" class="st4 st5">Y 0.5</text>
</g>
<rect x="582.4" y="473.8" class="st2" width="28.1" height="7.1"/>
<rect x="582.4" y="473.8" class="st2" width="28.1" height="7.1"/>
<g>
	<text transform="matrix(1 0 0 1 583.9932 479.2206)" class="st4 st5">Y/B 0.35</text>
</g>
<rect x="513.9" y="473.8" class="st2" width="28.1" height="7.1"/>
<g>
	<text transform="matrix(1 0 0 1 514.3748 479.4255)" class="st4 st5">Gr/L 0.35</text>
</g>
<text transform="matrix(1 0 0 1 341.9844 161.0007)" class="st52 st4 st5">VTOT</text>
<text transform="matrix(1 0 0 1 341.9844 168.2007)" class="st52 st4 st5">Relay</text>
<g>
	<text transform="matrix(1 0 0 1 425.9611 143.9557)" class="st53 st4 st5">Front Compartment Distribution Box</text>
</g>
<g>
	<text transform="matrix(1 0 0 1 468.132 188.9776)" class="st52 st4 st38">AC charging  assist</text>
	<text transform="matrix(1 0 0 1 468.132 193.7776)" class="st52 st4 st38">power wake up</text>
</g>
<g>
	<text transform="matrix(1 0 0 1 529.9342 193.881)" class="st52 st4 st38">CC2 Signal</text>
</g>
<g>
	<text transform="matrix(1 0 0 1 583.9926 188.9775)" class="st52 st4 st38">DC Charging port </text>
	<text transform="matrix(1 0 0 1 583.9926 193.7775)" class="st52 st4 st38"> temperature1</text>
</g>
<g>
	<text transform="matrix(1 0 0 1 638.8641 188.9777)" class="st52 st4 st38">DC Charging port </text>
	<text transform="matrix(1 0 0 1 638.8641 193.7777)" class="st52 st4 st38"> temperature 2</text>
</g>
<g>
	<text transform="matrix(1 0 0 1 693.2006 188.9777)" class="st52 st4 st38">DC Charging port </text>
	<text transform="matrix(1 0 0 1 693.2006 193.7777)" class="st52 st4 st38"> temperature 1- </text>
</g>
<g>
	<text transform="matrix(1 0 0 1 749.1079 188.9778)" class="st52 st4 st38">DC Charging port </text>
	<text transform="matrix(1 0 0 1 749.1079 193.7778)" class="st52 st4 st38"> temperature2- </text>
</g>
<g>
	<text transform="matrix(1 0 0 1 670.1399 178.9762)" class="st53 st4 st5">DC Charging Port</text>
</g>
<g>
	<text transform="matrix(1 0 0 1 113.7383 429.8584)" class="st52 st4 st54">Constant power</text>
</g>
<g>
	<text transform="matrix(1 0 0 1 235.2431 448.3563)" class="st52 st4 st38">Charging connection signal</text>
</g>
<g>
	<text transform="matrix(1 0 0 1 295.0212 444.524)" class="st52 st4 st38">DC charging positive / negative</text>
	<text transform="matrix(1 0 0 1 295.0212 449.324)" class="st52 st4 st38"> contactor power（IG3）</text>
</g>
<g>
	<text transform="matrix(1 0 0 1 525.0957 429.8574)" class="st52 st4 st54">CC2 Signal</text>
</g>
<g>
	<text transform="matrix(1 0 0 1 574.3428 429.8574)" class="st52 st4 st54">DC Charging port </text>
	<text transform="matrix(1 0 0 1 574.3428 434.4561)" class="st52 st4 st54"> temperature1</text>
</g>
<g>
	<text transform="matrix(1 0 0 1 629.4453 429.8574)" class="st52 st4 st54">DC Charging port </text>
	<text transform="matrix(1 0 0 1 629.4453 434.4561)" class="st52 st4 st54"> temperature 2</text>
</g>
<g>
	<text transform="matrix(1 0 0 1 680.5703 429.8574)" class="st52 st4 st54">DC Charging port </text>
	<text transform="matrix(1 0 0 1 680.5703 434.4561)" class="st52 st4 st54"> temperature 1-/2-</text>
</g>
<g>
	<text transform="matrix(1 0 0 1 213.5165 429.5358)" class="st52 st4 st54">IG3 Power</text>
</g>
<g>
	<text transform="matrix(1 0 0 1 253.1821 429.8584)" class="st52 st4 st54">VTOV  Relay control</text>
</g>
<g>
	<text transform="matrix(1 0 0 1 301.3477 429.8584)" class="st52 st4 st54">AC charging  assist</text>
	<text transform="matrix(1 0 0 1 301.3477 434.4561)" class="st52 st4 st54">power wake up</text>
</g>
<g>
	<text transform="matrix(1 0 0 1 364.2621 444.5238)" class="st52 st4 st38">DC charging positive </text>
	<text transform="matrix(1 0 0 1 364.2621 449.3238)" class="st52 st4 st38">contactor control</text>
</g>
<g>
	<text transform="matrix(1 0 0 1 407.3618 444.5242)" class="st52 st4 st38">DC charging negative</text>
	<text transform="matrix(1 0 0 1 407.3618 449.3242)" class="st52 st4 st38">contactor control</text>
</g>
<g>
	<text transform="matrix(1 0 0 1 456.8989 443.7676)" class="st52 st4 st54">High voltage interlock 1 </text>
	<text transform="matrix(1 0 0 1 456.8989 448.3662)" class="st52 st4 st54">output signal</text>
</g>
<g>
	<text transform="matrix(1 0 0 1 507.5098 443.7676)" class="st52 st4 st54">High voltage interlock 1</text>
	<text transform="matrix(1 0 0 1 507.5098 448.3652)" class="st52 st4 st54"> input signal</text>
</g>
<g>
	<text transform="matrix(1 0 0 1 167.5892 430.0028)" class="st52 st4 st54">IG3 Power</text>
</g>
<g>
	<text transform="matrix(1 0 0 1 163.0371 449.3237)" class="st52 st4 st38">IG3 Power ground</text>
</g>
<g>
	<text transform="matrix(1 0 0 1 102.0516 449.3223)" class="st52 st4 st38">Power ground</text>
</g>
<g>
	<text transform="matrix(1 0 0 1 586.3019 449.3242)" class="st52 st4 st54">CC Signal</text>
</g>
<g>
	<text transform="matrix(1 0 0 1 696.4529 449.3227)" class="st52 st4 st54">Impact signal</text>
</g>
<g>
	<g>
		<g id="FB103_28_">
			<g>
				<g id="FB103_29_">
					<text transform="matrix(1 0 0 1 553.6484 440.7256)" class="st53 st4 st55">Power Battery Pack</text>
				</g>
			</g>
		</g>
	</g>
</g>
<g id="参见ECAN系统电路图_2_">
	<g id="参见ECAN系统电路图_4_">
		<text transform="matrix(1 0 0 1 859.0543 717.3667)" class="st52 st4 st5">See Energy Network Circuit Diagram</text>
	</g>
</g>
<g>
	<text transform="matrix(1 0 0 1 805.3277 430.0027)" class="st52 st4 st38">DC Charging sub-</text>
	<text transform="matrix(1 0 0 1 805.3277 434.8027)" class="st52 st4 st38">network CAN-H</text>
</g>
<g>
	<g>
		<text transform="matrix(1 0 0 1 865.3725 432.0561)" class="st4 st38">DC Charging sub-</text>
		<text transform="matrix(1 0 0 1 865.3725 436.8561)" class="st4 st38">network CAN_L</text>
	</g>
</g>
<g>
	<text transform="matrix(1 0 0 1 805.3275 188.1)" class="st52 st4 st38">DC Charging sub-</text>
	<text transform="matrix(1 0 0 1 805.3275 192.9)" class="st52 st4 st38">network CAN-H</text>
</g>
<g>
	<text transform="matrix(1 0 0 1 862.372 188.1)" class="st52 st4 st38">DC Charging sub-</text>
	<text transform="matrix(1 0 0 1 862.372 192.9)" class="st52 st4 st38">network CAN_L</text>
</g>
<g>
	<text transform="matrix(1 0 0 1 963.5023 188.9774)" class="st52 st4 st38">DC Charging sub-</text>
	<text transform="matrix(1 0 0 1 963.5023 193.7774)" class="st52 st4 st38">network CAN-H</text>
</g>
<g>
	<text transform="matrix(1 0 0 1 1011.6561 188.0999)" class="st52 st4 st38">DC Charging sub-</text>
	<text transform="matrix(1 0 0 1 1011.6561 192.8999)" class="st52 st4 st38">network CAN_L</text>
</g>
<g>
	<text transform="matrix(1 0 0 1 716.42 458.6992)" class="st56 st4 st5">BK51</text>
</g>
<g>
	<text transform="matrix(1 0 0 1 731.42 458.6992)" class="st56 st4 st5">-22</text>
</g>
<g>
	<text transform="matrix(1 0 0 1 121.1275 157.9825)" class="st56 st4 st5">F1/33</text>
</g>
<g>
	<text transform="matrix(1 0 0 1 397.6069 157.9825)" class="st56 st4 st5">F1/22</text>
</g>
<g>
	<text transform="matrix(1 0 0 1 179.6449 157.9823)" class="st56 st4 st5">F1/25</text>
</g>
<text transform="matrix(1 0 0 1 121.6211 422.6269)" class="st56 st4 st5">BK51</text>
<text transform="matrix(1 0 0 1 136.7461 422.6269)" class="st56 st4 st5">-4</text>
<text transform="matrix(1 0 0 1 227.771 422.6269)" class="st56 st4 st5">BK51</text>
<text transform="matrix(1 0 0 1 242.896 422.6269)" class="st56 st4 st5">-29</text>
<text transform="matrix(1 0 0 1 277.3961 422.6269)" class="st56 st4 st5">BK51</text>
<text transform="matrix(1 0 0 1 292.5211 422.6269)" class="st56 st4 st5">-19</text>
<text transform="matrix(1 0 0 1 317.8961 422.6269)" class="st56 st4 st5">BK51</text>
<text transform="matrix(1 0 0 1 333.0211 422.6269)" class="st56 st4 st5">-26</text>
<text transform="matrix(1 0 0 1 180.9053 422.6269)" class="st56 st4 st5">BK51</text>
<text transform="matrix(1 0 0 1 196.0303 422.6269)" class="st56 st4 st5">-5</text>
<text transform="matrix(1 0 0 1 544.6148 422.6269)" class="st56 st4 st5">BK51</text>
<text transform="matrix(1 0 0 1 559.7398 422.6269)" class="st56 st4 st5">-32</text>
<text transform="matrix(1 0 0 1 828.2608 422.6269)" class="st56 st4 st5">BK51</text>
<text transform="matrix(1 0 0 1 843.3858 422.6269)" class="st56 st4 st5">-15</text>
<text transform="matrix(1 0 0 1 884.254 422.6269)" class="st56 st4 st5">BK51</text>
<text transform="matrix(1 0 0 1 899.379 422.6269)" class="st56 st4 st5">-8</text>
<text transform="matrix(1 0 0 1 600.8643 422.6269)" class="st56 st4 st5">BK51</text>
<text transform="matrix(1 0 0 1 615.9893 422.6269)" class="st56 st4 st5">-14</text>
<text transform="matrix(1 0 0 1 658.1978 422.6269)" class="st56 st4 st5">BK51</text>
<text transform="matrix(1 0 0 1 673.3228 422.6269)" class="st56 st4 st5">-20</text>
<text transform="matrix(1 0 0 1 715.5308 422.6269)" class="st56 st4 st5">BK51</text>
<text transform="matrix(1 0 0 1 730.6558 422.6269)" class="st56 st4 st5">-21</text>
<g>
	<text transform="matrix(1 0 0 1 489.418 290.687)" class="st56 st4 st5">KJB01</text>
</g>
<g>
	<text transform="matrix(1 0 0 1 489.418 297.8871)" class="st56 st4 st5">BJK01</text>
</g>
<g>
	<text transform="matrix(1 0 0 1 489.418 305.0873)" class="st56 st4 st5">-19</text>
</g>
<g>
	<text transform="matrix(1 0 0 1 546.1104 290.687)" class="st56 st4 st5">KJB01</text>
</g>
<g>
	<text transform="matrix(1 0 0 1 546.1104 297.8871)" class="st56 st4 st5">BJK01</text>
</g>
<g>
	<text transform="matrix(1 0 0 1 546.1104 305.0873)" class="st56 st4 st5">-24</text>
</g>
<g>
	<text transform="matrix(1 0 0 1 603.0445 290.687)" class="st56 st4 st5">KJB01</text>
</g>
<g>
	<text transform="matrix(1 0 0 1 603.0445 297.8871)" class="st56 st4 st5">BJK01</text>
</g>
<g>
	<text transform="matrix(1 0 0 1 603.0445 305.0873)" class="st56 st4 st5">-14</text>
</g>
<g>
	<text transform="matrix(1 0 0 1 659.6954 290.687)" class="st56 st4 st5">KJB01</text>
</g>
<g>
	<text transform="matrix(1 0 0 1 659.6954 297.8871)" class="st56 st4 st5">BJK01</text>
</g>
<g>
	<text transform="matrix(1 0 0 1 659.6954 305.0873)" class="st56 st4 st5">-15</text>
</g>
<g>
	<text transform="matrix(1 0 0 1 716.0899 290.687)" class="st56 st4 st5">KJB01</text>
</g>
<g>
	<text transform="matrix(1 0 0 1 716.0899 297.8871)" class="st56 st4 st5">BJK01</text>
</g>
<g>
	<text transform="matrix(1 0 0 1 716.0899 305.0873)" class="st56 st4 st5">-16</text>
</g>
<g>
	<text transform="matrix(1 0 0 1 659.7584 599.059)" class="st56 st4 st5">BJK01</text>
</g>
<g>
	<text transform="matrix(1 0 0 1 659.7584 606.2592)" class="st56 st4 st5">KJB01</text>
</g>
<g>
	<text transform="matrix(1 0 0 1 659.7584 613.4594)" class="st56 st4 st5">-44</text>
</g>
<g>
	<text transform="matrix(1 0 0 1 829.9258 264.2968)" class="st56 st4 st5">KJB01</text>
</g>
<g>
	<text transform="matrix(1 0 0 1 829.9258 271.497)" class="st56 st4 st5">BJK01</text>
</g>
<g>
	<text transform="matrix(1 0 0 1 829.9258 278.6972)" class="st56 st4 st5">-22</text>
</g>
<g>
	<text transform="matrix(1 0 0 1 886.4258 264.2968)" class="st56 st4 st5">KJB01</text>
</g>
<g>
	<text transform="matrix(1 0 0 1 886.4258 271.497)" class="st56 st4 st5">BJK01</text>
</g>
<g>
	<text transform="matrix(1 0 0 1 886.4258 278.6972)" class="st56 st4 st5">-23</text>
</g>
<g>
	<text transform="matrix(1 0 0 1 980.0963 264.2968)" class="st56 st4 st5">GJB01</text>
</g>
<g>
	<text transform="matrix(1 0 0 1 980.0963 271.497)" class="st56 st4 st5">BJG01</text>
</g>
<g>
	<text transform="matrix(1 0 0 1 980.0963 278.6972)" class="st56 st4 st5">-21</text>
</g>
<g>
	<text transform="matrix(1 0 0 1 1036.5962 264.2968)" class="st56 st4 st5">GJB01</text>
</g>
<g>
	<text transform="matrix(1 0 0 1 1036.5962 271.497)" class="st56 st4 st5">BJG01</text>
</g>
<g>
	<text transform="matrix(1 0 0 1 1036.5962 278.6972)" class="st56 st4 st5">-22</text>
</g>
<g>
	<text transform="matrix(1 0 0 1 122.2784 203.207)" class="st56 st4 st5">B1C</text>
</g>
<g>
	<text transform="matrix(1 0 0 1 135.375 203.207)" class="st56 st4 st5">-25</text>
</g>
<g>
	<text transform="matrix(1 0 0 1 180.6451 203.207)" class="st56 st4 st5">B1C</text>
</g>
<g>
	<text transform="matrix(1 0 0 1 193.7417 203.207)" class="st56 st4 st5">-33</text>
</g>
<g>
	<text transform="matrix(1 0 0 1 277.1544 203.207)" class="st56 st4 st5">B1D</text>
</g>
<g>
	<text transform="matrix(1 0 0 1 290.251 203.207)" class="st56 st4 st5">-28</text>
</g>
<g>
	<text transform="matrix(1 0 0 1 317.8209 203.207)" class="st56 st4 st5">B1D</text>
</g>
<g>
	<text transform="matrix(1 0 0 1 330.9175 203.207)" class="st56 st4 st5">-2</text>
</g>
<g>
	<text transform="matrix(1 0 0 1 885.8541 458.6992)" class="st56 st4 st5">BK51</text>
</g>
<g>
	<text transform="matrix(1 0 0 1 900.8541 458.6992)" class="st56 st4 st5">-17</text>
</g>
<g>
	<text transform="matrix(1 0 0 1 942.9654 458.6992)" class="st56 st4 st5">BK51</text>
</g>
<g>
	<text transform="matrix(1 0 0 1 957.9654 458.6992)" class="st56 st4 st5">-10</text>
</g>
<g>
	<text transform="matrix(1 0 0 1 276.1837 699.5107)" class="st56 st4 st5">B74</text>
</g>
<g>
	<text transform="matrix(1 0 0 1 287.7134 699.5107)" class="st56 st4 st5">-6</text>
</g>
<g>
	<text transform="matrix(1 0 0 1 327.7383 699.5107)" class="st56 st4 st5">B74</text>
</g>
<g>
	<text transform="matrix(1 0 0 1 339.2681 699.5107)" class="st56 st4 st5">-8</text>
</g>
<g>
	<text transform="matrix(1 0 0 1 277.0259 458.6992)" class="st56 st4 st5">BK51</text>
</g>
<g>
	<text transform="matrix(1 0 0 1 292.0259 458.6992)" class="st56 st4 st5">-30</text>
</g>
<g>
	<text transform="matrix(1 0 0 1 326.9849 458.6992)" class="st56 st4 st5">BK51</text>
</g>
<g>
	<text transform="matrix(1 0 0 1 341.9849 458.6992)" class="st56 st4 st5">-12</text>
</g>
<g>
	<text transform="matrix(1 0 0 1 381.9683 699.5107)" class="st56 st4 st5">B74</text>
</g>
<g>
	<text transform="matrix(1 0 0 1 393.4981 699.5107)" class="st56 st4 st5">-9</text>
</g>
<g>
	<text transform="matrix(1 0 0 1 435.4805 699.5107)" class="st56 st4 st5">B74</text>
</g>
<g>
	<text transform="matrix(1 0 0 1 447.0103 699.5107)" class="st56 st4 st5">-10</text>
</g>
<g>
	<text transform="matrix(1 0 0 1 382.8106 458.6992)" class="st56 st4 st5">BK51</text>
</g>
<g>
	<text transform="matrix(1 0 0 1 397.8106 458.6992)" class="st56 st4 st5">-24</text>
</g>
<g>
	<text transform="matrix(1 0 0 1 434.7271 458.6992)" class="st56 st4 st5">BK51</text>
</g>
<g>
	<text transform="matrix(1 0 0 1 449.7271 458.6992)" class="st56 st4 st5">-31</text>
</g>
<g>
	<text transform="matrix(1 0 0 1 481.1597 699.5107)" class="st56 st4 st5">B74</text>
</g>
<g>
	<text transform="matrix(1 0 0 1 492.6895 699.5107)" class="st56 st4 st5">-12</text>
</g>
<g>
	<text transform="matrix(1 0 0 1 535.7925 699.5107)" class="st56 st4 st5">B74</text>
</g>
<g>
	<text transform="matrix(1 0 0 1 547.3223 699.5107)" class="st56 st4 st5">-13</text>
</g>
<g>
	<text transform="matrix(1 0 0 1 603.0445 699.5107)" class="st56 st4 st5">B74</text>
</g>
<g>
	<text transform="matrix(1 0 0 1 614.5743 699.5107)" class="st56 st4 st5">-4</text>
</g>
<g>
	<text transform="matrix(1 0 0 1 482.002 458.6992)" class="st56 st4 st5">BK51</text>
</g>
<g>
	<text transform="matrix(1 0 0 1 498.0787 458.6992)" class="st56 st4 st5">-18</text>
</g>
<g>
	<text transform="matrix(1 0 0 1 535.0391 458.6992)" class="st56 st4 st5">BK51</text>
</g>
<g>
	<text transform="matrix(1 0 0 1 550.0391 458.6992)" class="st56 st4 st5">-13</text>
</g>
<g>
	<text transform="matrix(1 0 0 1 488.5552 203.207)" class="st56 st4 st5">KB53(A)</text>
</g>
<g>
	<text transform="matrix(1 0 0 1 512.8887 203.207)" class="st56 st4 st5">-2</text>
</g>
<g>
	<text transform="matrix(1 0 0 1 546.1109 203.207)" class="st56 st4 st5">KB53(A)</text>
</g>
<g>
	<text transform="matrix(1 0 0 1 570.3404 203.207)" class="st56 st4 st5">-3</text>
</g>
<g>
	<text transform="matrix(1 0 0 1 600.8643 203.207)" class="st56 st4 st5">KB53(A)</text>
</g>
<g>
	<text transform="matrix(1 0 0 1 625.0518 203.207)" class="st56 st4 st5">-7</text>
</g>
<g>
	<text transform="matrix(1 0 0 1 659.1583 203.207)" class="st56 st4 st5">KB53(A)</text>
</g>
<g>
	<text transform="matrix(1 0 0 1 683.4293 203.207)" class="st56 st4 st5">-9</text>
</g>
<g>
	<text transform="matrix(1 0 0 1 714.8248 203.207)" class="st56 st4 st5">KB53(A)</text>
</g>
<g>
	<text transform="matrix(1 0 0 1 739.0958 203.207)" class="st56 st4 st5">-8</text>
</g>
<g>
	<text transform="matrix(1 0 0 1 771.8643 203.207)" class="st56 st4 st5">KB53(A)</text>
</g>
<g>
	<text transform="matrix(1 0 0 1 796.1353 203.207)" class="st56 st4 st5">-10</text>
</g>
<g>
	<text transform="matrix(1 0 0 1 827.213 203.207)" class="st56 st4 st5">KB53(A)</text>
</g>
<g>
	<text transform="matrix(1 0 0 1 851.8589 203.207)" class="st56 st4 st5">-5</text>
</g>
<g>
	<text transform="matrix(1 0 0 1 884.838 203.207)" class="st56 st4 st5">KB53(A)</text>
</g>
<g>
	<text transform="matrix(1 0 0 1 909.1505 203.207)" class="st56 st4 st5">-4</text>
</g>
<g>
	<text transform="matrix(1 0 0 1 978.3174 203.207)" class="st56 st4 st5">G03(A)</text>
</g>
<g>
	<text transform="matrix(1 0 0 1 999.5884 203.207)" class="st56 st4 st5">-9</text>
</g>
<g>
	<text transform="matrix(1 0 0 1 1035.4702 203.207)" class="st56 st4 st5">G03(A)</text>
</g>
<g>
	<text transform="matrix(1 0 0 1 1056.21 203.207)" class="st56 st4 st5">-10</text>
</g>
<g>
	<text transform="matrix(1 0 0 1 178.3262 458.6992)" class="st56 st4 st5">BK51</text>
</g>
<g>
	<text transform="matrix(1 0 0 1 193.3262 458.6992)" class="st56 st4 st5">-16</text>
</g>
<g>
	<text transform="matrix(1 0 0 1 121.6719 458.6992)" class="st56 st4 st5">BK51</text>
</g>
<g>
	<text transform="matrix(1 0 0 1 136.6719 458.6992)" class="st56 st4 st5">-23</text>
</g>
<g>
	<text transform="matrix(1 0 0 1 603.7921 458.6992)" class="st56 st4 st5">BK51</text>
</g>
<g>
	<text transform="matrix(1 0 0 1 618.7921 458.6992)" class="st56 st4 st5">-25</text>
</g>
<g>
	<text transform="matrix(1 0 0 1 713.358 699.5107)" class="st56 st4 st5">BG64(B)</text>
</g>
<g>
	<text transform="matrix(1 0 0 1 738.462 699.5107)" class="st56 st4 st5">-40</text>
</g>
<g>
	<text transform="matrix(1 0 0 1 638.8638 698.0444)" class="st56 st4 st5">KB53B</text>
</g>
<g>
	<text transform="matrix(1 0 0 1 658.8951 698.0444)" class="st56 st4 st5">-2</text>
</g>
<g>
	<text transform="matrix(1 0 0 1 752.6636 509.6591)" class="st56 st4 st5">KG10</text>
</g>
<g>
	<text transform="matrix(1 0 0 1 769.3511 509.6591)" class="st56 st4 st5">-46</text>
</g>
<g>
	<text transform="matrix(1 0 0 1 108.477 762.5298)" class="st56 st4 st5">Eb07</text>
</g>
<g>
	<text transform="matrix(1 0 0 1 1064.8818 180.7954)" class="st56 st4 st5">OBD Interface</text>
</g>
<g>
	<text transform="matrix(1 0 0 1 252.4766 707.2272)" class="st52 st4 st38">Charging connection</text>
	<text transform="matrix(1 0 0 1 252.4766 712.0272)" class="st52 st4 st38">signal</text>
</g>
<g>
	<text transform="matrix(1 0 0 1 296.3634 707.1883)" class="st52 st4 st38">DC charging positive / negative</text>
	<text transform="matrix(1 0 0 1 296.3634 711.9883)" class="st52 st4 st38"> contactor power（IG3）</text>
</g>
<g>
	<text transform="matrix(1 0 0 1 364.2621 707.2272)" class="st52 st4 st38">DC charging positive </text>
	<text transform="matrix(1 0 0 1 364.2621 712.0272)" class="st52 st4 st38">contactor control</text>
</g>
<g>
	<text transform="matrix(1 0 0 1 411.7484 707.227)" class="st52 st4 st38">DC charging negative</text>
	<text transform="matrix(1 0 0 1 411.7484 712.027)" class="st52 st4 st38">contactor control</text>
</g>
<g>
	<text transform="matrix(1 0 0 1 457.453 707.2272)" class="st52 st4 st38">High voltage interlock 1 </text>
	<text transform="matrix(1 0 0 1 457.453 712.0272)" class="st52 st4 st38">output signal</text>
</g>
<g>
	<text transform="matrix(1 0 0 1 510.7388 707.2273)" class="st52 st4 st38">High voltage interlock 1</text>
	<text transform="matrix(1 0 0 1 510.7388 712.0273)" class="st52 st4 st38"> input signal</text>
</g>
<g>
	<text transform="matrix(1 0 0 1 588.4384 707.1882)" class="st52 st4 st38">CC </text>
	<text transform="matrix(1 0 0 1 595.9384 707.1882)" class="st52 st4 st38">Signal</text>
</g>
<g>
	<text transform="matrix(1 0 0 1 759.1255 707.1882)" class="st52 st4 st38">Impact signal</text>
</g>
<g>
	<text transform="matrix(1 0 0 1 702.7509 707.1882)" class="st52 st4 st38">Impact signal</text>
</g>
<g>
	<g>
		<g id="FB103_30_">
			<g>
				<g id="FB103_32_">
					<text transform="matrix(1 0 0 1 719.4872 719.8551)" class="st53 st4 st5">Left Body Controller</text>
				</g>
			</g>
		</g>
	</g>
</g>
<g>
	<g>
		<g id="FB103_33_">
			<g>
				<g id="FB103_34_">
					<text transform="matrix(1 0 0 1 745.7069 499.8391)" class="st53 st4 st5">Airbag Controller</text>
				</g>
			</g>
		</g>
	</g>
</g>
<g>
	<text transform="matrix(1 0 0 1 393.4985 722.4962)" class="st53 st4 st5">Charging And Distribution Dssembly</text>
</g>
<g>
	<text transform="matrix(1 0 0 1 629.9605 707.1889)" class="st53 st4 st5">AC charging port</text>
</g>
<line class="st57" x1="539.3" y1="204.6" x2="539.3" y2="414.2"/>
<g>
	<rect x="537.8" y="204.6" class="st31" width="3" height="209.6"/>
</g>
<g id="_x30_2-上针脚_42_">
	<line class="st1" x1="539.3" y1="416.8" x2="539.3" y2="425"/>
	<path class="st2" d="M539.2,413.7c-1.7,0-3,1.4-3,3c0,1.8,1.4,3.2,3,3.2c1.8,0,3.2-1.4,3.2-3.2C542.4,415.1,541,413.7,539.2,413.7"
		/>
	<path d="M539.2,414.2c-1.4,0-2.5,1.2-2.5,2.5c0,1.6,1.1,2.7,2.5,2.7v1.2c-2,0-3.7-1.6-3.7-3.8c0-2.1,1.7-3.7,3.7-3.7V414.2z
		 M539.2,420.6c2.2,0,3.8-1.7,3.8-3.8s-1.6-3.7-3.8-3.7v1.1c1.6,0,2.7,1.2,2.7,2.5c0,1.6-1.2,2.7-2.7,2.7V420.6"/>
	<rect x="535.2" y="416.9" class="st2" width="8.1" height="4.1"/>
	<rect x="538.8" y="415.9" width="1" height="4.2"/>
	<rect x="538.8" y="415.9" class="st3" width="1" height="4.2"/>
</g>
<g id="_x30_2-上针脚_35_">
	<line class="st1" x1="539.3" y1="203.8" x2="539.3" y2="195.6"/>
	<path class="st2" d="M539.2,206.9c-1.7,0-3-1.4-3-3c0-1.8,1.4-3.2,3-3.2c1.8,0,3.2,1.4,3.2,3.2C542.4,205.5,541,206.9,539.2,206.9"
		/>
	<path d="M539.2,207.5c-2,0-3.7-1.6-3.7-3.7c0-2.2,1.7-3.8,3.7-3.8v1.2c-1.4,0-2.5,1.1-2.5,2.7c0,1.3,1.1,2.5,2.5,2.5V207.5z
		 M539.2,200v1.2c1.5,0,2.7,1.1,2.7,2.7c0,1.3-1.1,2.5-2.7,2.5v1.1c2.2,0,3.8-1.6,3.8-3.7C543,201.7,541.4,200,539.2,200"/>
	<rect x="535.2" y="199.6" class="st2" width="8.1" height="4.1"/>
	<rect x="538.8" y="200.5" width="1" height="4.2"/>
	<rect x="538.8" y="200.5" class="st3" width="1" height="4.2"/>
</g>
<g>
	<rect x="535" y="285.3" class="st2" width="8.5" height="19"/>
	<g>
		<g>
			<line class="st1" x1="539.3" y1="285.4" x2="539.3" y2="293.6"/>
			<path class="st2" d="M539.4,296.7c-1.8,0-3.2-1.4-3.2-3c0-1.8,1.4-3.2,3.2-3.2c1.6,0,3,1.4,3,3.2
				C542.4,295.3,541.1,296.7,539.4,296.7"/>
			<path d="M539.3,296.2c1.4,0,2.5-1.2,2.5-2.5c0-1.6-1.1-2.7-2.5-2.7v-1.2c2,0,3.7,1.6,3.7,3.8c0,2.1-1.7,3.7-3.7,3.7V296.2z
				 M539.3,289.8c-2.2,0-3.8,1.7-3.8,3.8s1.6,3.7,3.8,3.7v-1.1c-1.6,0-2.7-1.2-2.7-2.5c0-1.6,1.2-2.7,2.7-2.7V289.8"/>
			<rect x="535.2" y="289.4" class="st2" width="8.1" height="4.1"/>
			<rect x="538.8" y="290.3" width="1" height="4.2"/>
			<rect x="538.8" y="290.3" class="st3" width="1" height="4.2"/>
		</g>
		<line class="st35" x1="539.3" y1="297.3" x2="539.3" y2="303.8"/>
	</g>
</g>
<rect x="525.2" y="219.3" class="st2" width="28.1" height="7.1"/>
<g>
	<text transform="matrix(1 0 0 1 528.4357 225.2957)" class="st58 st4 st5">W/R 0.35</text>
</g>
<rect x="524.7" y="393.8" class="st2" width="28.1" height="7.1"/>
<g>
	<text transform="matrix(1 0 0 1 525.0955 399.5748)" class="st58 st4 st5">W/R 0.35</text>
</g>
<text transform="matrix(1 0 0 1 315.4764 343.3969)" class="st4 st5">SP3212</text>
<g>
	<text transform="matrix(1 0 0 1 771.8125 699.5112)" class="st59 st4 st5">KG64(D)</text>
</g>
<g>
	<text transform="matrix(1 0 0 1 796.687 699.5112)" class="st59 st4 st5">-50</text>
</g>
</svg>
