<?xml version="1.0" encoding="utf-8"?>
<!-- Generator: Adobe Illustrator 24.0.1, SVG Export Plug-In . SVG Version: 6.00 Build 0)  -->
<svg version="1.1" xmlns="http://www.w3.org/2000/svg" xmlns:xlink="http://www.w3.org/1999/xlink" x="0px" y="0px"
	 viewBox="0 0 739 841.9" style="enable-background:new 0 0 739 841.9;" xml:space="preserve">
<style type="text/css">
	.st0{fill:#DBDCDC;}
	.st1{fill:none;stroke:#000000;stroke-width:0.5;}
	.st2{fill:none;stroke:#000000;}
	.st3{enable-background:new    ;}
	.st4{fill:#060001;}
	.st5{font-family:'FZLTHJW--GB1-0';}
	.st6{font-size:6px;}
	.st7{fill:#9FD9F6;}
	.st8{fill:none;stroke:#000000;stroke-width:0.5;stroke-linecap:round;stroke-miterlimit:10;}
	.st9{fill:none;stroke:#000000;stroke-width:3;stroke-miterlimit:10;}
	.st10{fill:none;stroke:#E60012;stroke-width:3;stroke-miterlimit:10;}
	.st11{fill:none;stroke:#005EAD;stroke-miterlimit:10;}
	.st12{fill:none;stroke:#009944;stroke-width:3;stroke-miterlimit:10;}
	.st13{fill:none;stroke:#FFF100;stroke-width:3;stroke-miterlimit:10;}
	.st14{fill:none;stroke:#898989;stroke-width:3;stroke-miterlimit:10;}
	.st15{fill:none;stroke:#005EAD;stroke-width:3;stroke-miterlimit:10;}
	.st16{fill:none;stroke:#FFF100;stroke-miterlimit:10;}
	.st17{fill:none;stroke:#FFFFFF;stroke-miterlimit:10;}
	.st18{fill:#070102;}
	.st19{fill:none;stroke:#FFFFFF;stroke-width:0.5;}
	.st20{fill:none;stroke:#000000;stroke-width:0.6;stroke-linejoin:round;}
	.st21{fill:#FFFFFF;}
	.st22{fill:none;stroke:#000000;stroke-width:0.72;stroke-linecap:round;stroke-linejoin:round;}
	.st23{font-size:5.958px;}
	.st24{fill:none;stroke:#070102;stroke-width:0.25;}
	.st25{fill:none;stroke:#000000;stroke-width:1.3;}
	.st26{fill:none;stroke:#070102;stroke-width:0.25;stroke-linecap:round;stroke-linejoin:round;}
	.st27{fill:none;stroke:#898989;stroke-miterlimit:10;}
	.st28{fill:#FFFFFF;stroke:#000000;stroke-width:0.25;stroke-linecap:round;stroke-linejoin:round;}
	.st29{fill:#FFFFFF;stroke:#000000;stroke-width:0.25;}
	.st30{stroke:#FFFFFF;stroke-width:0.5;}
	.st31{fill:#DCDDDD;stroke:#000000;stroke-width:0.5;stroke-linecap:round;stroke-miterlimit:10;}
	.st32{fill:none;stroke:#E60012;stroke-miterlimit:10;}
	.st33{fill:none;stroke:#E60012;stroke-width:3;stroke-linecap:round;stroke-miterlimit:10;}
	.st34{fill:#E60012;stroke:#E60012;stroke-width:3;stroke-linecap:round;stroke-miterlimit:10;}
	.st35{fill:none;stroke:#FFFFFF;stroke-linecap:round;stroke-miterlimit:10;}
	.st36{fill:none;stroke:#040000;stroke-width:0.75;}
	.st37{fill:none;stroke:#000000;stroke-width:0.6;stroke-linecap:round;stroke-linejoin:round;}
	.st38{stroke:#FFFFFF;stroke-width:0.5;stroke-linecap:round;}
	.st39{fill:none;stroke:#FFFFFF;stroke-width:1.0001;}
	.st40{font-size:4px;}
	.st41{fill:#DCDDDD;stroke:#0A0204;stroke-linecap:round;}
	.st42{fill:none;stroke:#070102;stroke-width:0.6001;}
	.st43{fill:none;stroke:#070102;stroke-width:0.6001;stroke-linecap:round;stroke-dasharray:3.0005,1.8003;}
	.st44{fill:#FFFFFF;stroke:#070102;stroke-width:0.6001;}
	.st45{fill:none;stroke:#070102;stroke-width:0.6001;stroke-linecap:round;stroke-linejoin:round;}
	.st46{fill:#FFFFFF;stroke:#0A0204;stroke-width:1.0001;}
	.st47{fill:none;stroke:#0A0204;stroke-width:1.0001;}
	.st48{fill:#090103;}
	.st49{fill:none;stroke:#FFFFFF;stroke-width:0.6001;}
	.st50{fill:none;stroke:#000000;stroke-width:0.75;}
	.st51{fill:none;stroke:#000000;stroke-width:0.5;stroke-linejoin:round;}
	.st52{fill:none;stroke:#FFFFFF;stroke-width:0.5;stroke-linecap:round;}
	.st53{fill:none;stroke:#FFFFFF;}
	.st54{fill:#040000;}
	.st55{fill:#065AA1;}
	.st56{font-size:8px;}
	.st57{fill:#005EAD;}
</style>
<g id="图层_1">
	<g>
		<polyline class="st0" points="44,41.9 693.6,41.9 693.6,99.7 44,99.7 		"/>
		<line class="st1" x1="44" y1="47.6" x2="693.6" y2="47.6"/>
		<line class="st2" x1="44" y1="41.6" x2="693.6" y2="41.6"/>
		<line class="st1" x1="44" y1="58.9" x2="693.6" y2="58.9"/>
		<line class="st1" x1="44" y1="70.6" x2="693.6" y2="70.6"/>
		<line class="st1" x1="44" y1="82.3" x2="693.6" y2="82.3"/>
		<line class="st1" x1="44" y1="93.9" x2="693.6" y2="93.9"/>
		<line class="st2" x1="44" y1="99.7" x2="693.6" y2="99.7"/>
		<g class="st3">
			<g>
				<text transform="matrix(1 0 0 1 696.7158 49.6302)" class="st4 st5 st6">30</text>
			</g>
		</g>
		<g class="st3">
			<g>
				<text transform="matrix(1 0 0 1 696.7158 60.7963)" class="st4 st5 st6">IG1</text>
			</g>
		</g>
		<g class="st3">
			<g>
				<text transform="matrix(1 0 0 1 696.7158 72.4213)" class="st4 st5 st6">IG3</text>
			</g>
		</g>
		<g class="st3">
			<g>
				<text transform="matrix(1 0 0 1 696.7158 83.9252)" class="st4 st5 st6">IG4</text>
			</g>
		</g>
		<g class="st3">
			<g>
				<text transform="matrix(1 0 0 1 696.7158 96.1283)" class="st4 st5 st6">ACC</text>
			</g>
		</g>
		<g class="st3">
			<g>
				<text transform="matrix(1 0 0 1 33.2295 49.7123)" class="st4 st5 st6">30</text>
			</g>
		</g>
		<g class="st3">
			<g>
				<text transform="matrix(1 0 0 1 30.0654 60.8783)" class="st4 st5 st6">IG1</text>
			</g>
		</g>
		<g class="st3">
			<g>
				<text transform="matrix(1 0 0 1 30.1123 72.5033)" class="st4 st5 st6">IG3</text>
			</g>
		</g>
		<g class="st3">
			<g>
				<text transform="matrix(1 0 0 1 30.0654 84.0033)" class="st4 st5 st6">IG4</text>
			</g>
		</g>
		<g class="st3">
			<g>
				<text transform="matrix(1 0 0 1 26.5732 96.1283)" class="st4 st5 st6">ACC</text>
			</g>
		</g>
	</g>
	<path class="st7" d="M609.6,425.6H53v-32.9h556.6c0,0-6.4,9.7,0,16.5C615.9,416.1,609.6,425.6,609.6,425.6"/>
	<path class="st8" d="M609.6,425.6H53v-32.9h556.6c0,0-6.4,9.7,0,16.5C615.9,416.1,609.6,425.6,609.6,425.6"/>
	<polygon class="st7" points="679.7,725.4 273.3,725.4 273.3,725.3 273.3,692.5 679.7,692.5 	"/>
	<polyline class="st8" points="679.7,725.4 273.3,725.4 273.3,725.3 273.3,692.5 679.7,692.5 679.7,725.4 	"/>
	<polygon class="st7" points="668.5,228.5 498.3,228.5 498.3,228.5 498.3,195.6 668.5,195.6 	"/>
	<polyline class="st8" points="668.5,228.5 498.3,228.5 498.3,228.5 498.3,195.6 668.5,195.6 668.5,228.5 	"/>
	<polyline class="st9" points="579.1,382.5 579.1,294.1 635.8,294.1 	"/>
	<line class="st10" x1="522.4" y1="238.9" x2="522.4" y2="382.5"/>
	<line class="st11" x1="522.4" y1="238.9" x2="522.4" y2="382.5"/>
	<line class="st12" x1="295.6" y1="435.5" x2="295.6" y2="682.6"/>
	<line class="st13" x1="352.3" y1="435.5" x2="352.3" y2="682.6"/>
	<line class="st14" x1="409" y1="435.5" x2="409" y2="682.6"/>
	<line class="st15" x1="465.7" y1="435.5" x2="465.7" y2="682.6"/>
	<line class="st9" x1="522.4" y1="435.5" x2="522.4" y2="682.6"/>
	<line class="st16" x1="522.4" y1="435.5" x2="522.4" y2="682.6"/>
	<line class="st9" x1="579.1" y1="435.5" x2="579.1" y2="682.6"/>
	<line class="st17" x1="579.1" y1="435.5" x2="579.1" y2="682.6"/>
	<line class="st9" x1="635.8" y1="236.7" x2="635.8" y2="682.6"/>
	<path class="st18" d="M635.8,291.5c1.4,0,2.6,1.2,2.6,2.6c0,1.4-1.2,2.6-2.6,2.6c-1.4,0-2.6-1.2-2.6-2.6
		C633.2,292.7,634.3,291.5,635.8,291.5"/>
	<path class="st19" d="M635.8,291.5c1.4,0,2.6,1.2,2.6,2.6c0,1.4-1.2,2.6-2.6,2.6c-1.4,0-2.6-1.2-2.6-2.6
		C633.2,292.7,634.3,291.5,635.8,291.5z"/>
	<line class="st20" x1="295.6" y1="433.8" x2="295.6" y2="425.6"/>
	<path class="st21" d="M295.5,436.9c-1.7,0-3-1.4-3-3c0-1.8,1.4-3.2,3-3.2c1.8,0,3.2,1.4,3.2,3.2
		C298.7,435.5,297.3,436.9,295.5,436.9"/>
	<path d="M295.6,437.5c-2,0-3.7-1.6-3.7-3.7c0-2.2,1.7-3.8,3.7-3.8v1.2c-1.4,0-2.5,1.1-2.5,2.7c0,1.3,1.1,2.5,2.5,2.5V437.5z
		 M295.6,430v1.2c1.5,0,2.7,1.1,2.7,2.7c0,1.3-1.1,2.5-2.7,2.5v1.1c2.2,0,3.8-1.6,3.8-3.7S297.8,430,295.6,430"/>
	<rect x="291.6" y="429.6" class="st21" width="8.1" height="4.1"/>
	<rect x="295.1" y="430.5" width="1" height="4.2"/>
	<rect x="295.1" y="430.5" class="st22" width="1" height="4.2"/>
	<line class="st20" x1="352.3" y1="433.8" x2="352.3" y2="425.6"/>
	<path class="st21" d="M352.2,436.9c-1.7,0-3-1.4-3-3c0-1.8,1.4-3.2,3-3.2c1.8,0,3.2,1.4,3.2,3.2C355.4,435.5,354,436.9,352.2,436.9
		"/>
	<path d="M352.3,437.5c-2,0-3.7-1.6-3.7-3.7c0-2.2,1.7-3.8,3.7-3.8v1.2c-1.4,0-2.5,1.1-2.5,2.7c0,1.3,1.1,2.5,2.5,2.5V437.5z
		 M352.3,430v1.2c1.5,0,2.7,1.1,2.7,2.7c0,1.3-1.1,2.5-2.7,2.5v1.1c2.2,0,3.8-1.6,3.8-3.7S354.5,430,352.3,430"/>
	<rect x="348.3" y="429.6" class="st21" width="8.1" height="4.1"/>
	<rect x="351.8" y="430.5" width="1" height="4.2"/>
	<rect x="351.8" y="430.5" class="st22" width="1" height="4.2"/>
	<line class="st20" x1="409" y1="433.8" x2="409" y2="425.6"/>
	<path class="st21" d="M408.9,436.9c-1.7,0-3-1.4-3-3c0-1.8,1.4-3.2,3-3.2c1.8,0,3.2,1.4,3.2,3.2
		C412.1,435.5,410.7,436.9,408.9,436.9"/>
	<path d="M409,437.5c-2,0-3.7-1.6-3.7-3.7c0-2.2,1.7-3.8,3.7-3.8v1.2c-1.4,0-2.5,1.1-2.5,2.7c0,1.3,1.1,2.5,2.5,2.5V437.5z M409,430
		v1.2c1.5,0,2.7,1.1,2.7,2.7c0,1.3-1.1,2.5-2.7,2.5v1.1c2.2,0,3.8-1.6,3.8-3.7S411.2,430,409,430"/>
	<rect x="405" y="429.6" class="st21" width="8.1" height="4.1"/>
	<rect x="408.5" y="430.5" width="1" height="4.2"/>
	<rect x="408.5" y="430.5" class="st22" width="1" height="4.2"/>
	<line class="st20" x1="465.7" y1="433.8" x2="465.7" y2="425.6"/>
	<path class="st21" d="M465.6,436.9c-1.7,0-3-1.4-3-3c0-1.8,1.4-3.2,3-3.2c1.8,0,3.2,1.4,3.2,3.2
		C468.8,435.5,467.4,436.9,465.6,436.9"/>
	<path d="M465.7,437.5c-2,0-3.7-1.6-3.7-3.7c0-2.2,1.7-3.8,3.7-3.8v1.2c-1.4,0-2.5,1.1-2.5,2.7c0,1.3,1.1,2.5,2.5,2.5V437.5z
		 M465.7,430v1.2c1.5,0,2.7,1.1,2.7,2.7c0,1.3-1.1,2.5-2.7,2.5v1.1c2.2,0,3.8-1.6,3.8-3.7S467.9,430,465.7,430"/>
	<rect x="461.7" y="429.6" class="st21" width="8.1" height="4.1"/>
	<rect x="465.2" y="430.5" width="1" height="4.2"/>
	<rect x="465.2" y="430.5" class="st22" width="1" height="4.2"/>
	<line class="st20" x1="522.4" y1="433.8" x2="522.4" y2="425.6"/>
	<path class="st21" d="M522.3,436.9c-1.7,0-3-1.4-3-3c0-1.8,1.4-3.2,3-3.2c1.8,0,3.2,1.4,3.2,3.2
		C525.5,435.5,524.1,436.9,522.3,436.9"/>
	<path d="M522.4,437.5c-2,0-3.7-1.6-3.7-3.7c0-2.2,1.7-3.8,3.7-3.8v1.2c-1.4,0-2.5,1.1-2.5,2.7c0,1.3,1.1,2.5,2.5,2.5V437.5z
		 M522.4,430v1.2c1.5,0,2.7,1.1,2.7,2.7c0,1.3-1.1,2.5-2.7,2.5v1.1c2.2,0,3.8-1.6,3.8-3.7S524.6,430,522.4,430"/>
	<rect x="518.3" y="429.6" class="st21" width="8.1" height="4.1"/>
	<rect x="521.9" y="430.5" width="1" height="4.2"/>
	<rect x="521.9" y="430.5" class="st22" width="1" height="4.2"/>
	<line class="st20" x1="579.1" y1="433.8" x2="579.1" y2="425.6"/>
	<path class="st21" d="M579,436.9c-1.7,0-3-1.4-3-3c0-1.8,1.4-3.2,3-3.2c1.8,0,3.2,1.4,3.2,3.2C582.2,435.5,580.8,436.9,579,436.9"
		/>
	<path d="M579,437.5c-2,0-3.7-1.6-3.7-3.7c0-2.2,1.7-3.8,3.7-3.8v1.2c-1.4,0-2.5,1.1-2.5,2.7c0,1.3,1.1,2.5,2.5,2.5V437.5z M579,430
		v1.2c1.5,0,2.7,1.1,2.7,2.7c0,1.3-1.1,2.5-2.7,2.5v1.1c2.2,0,3.8-1.6,3.8-3.7S581.2,430,579,430"/>
	<rect x="575" y="429.6" class="st21" width="8.1" height="4.1"/>
	<rect x="578.6" y="430.5" width="1" height="4.2"/>
	<rect x="578.6" y="430.5" class="st22" width="1" height="4.2"/>
	<line class="st20" x1="522.4" y1="384.6" x2="522.4" y2="392.8"/>
	<path class="st21" d="M522.3,381.5c-1.7,0-3,1.4-3,3c0,1.8,1.4,3.2,3,3.2c1.8,0,3.2-1.4,3.2-3.2
		C525.5,382.9,524.1,381.5,522.3,381.5"/>
	<path d="M522.4,382c-1.4,0-2.5,1.2-2.5,2.5c0,1.6,1.1,2.7,2.5,2.7v1.2c-2,0-3.7-1.6-3.7-3.8c0-2.1,1.7-3.7,3.7-3.7V382z
		 M522.4,388.4c2.2,0,3.8-1.7,3.8-3.8s-1.6-3.7-3.8-3.7v1.1c1.6,0,2.7,1.2,2.7,2.5c0,1.6-1.2,2.7-2.7,2.7V388.4"/>
	<rect x="518.3" y="384.7" class="st21" width="8.1" height="4.1"/>
	<rect x="521.9" y="383.7" width="1" height="4.2"/>
	<rect x="521.9" y="383.7" class="st22" width="1" height="4.2"/>
	<line class="st20" x1="579.1" y1="384.6" x2="579.1" y2="392.8"/>
	<path class="st21" d="M579,381.5c-1.7,0-3,1.4-3,3c0,1.8,1.4,3.2,3,3.2c1.8,0,3.2-1.4,3.2-3.2C582.2,382.9,580.8,381.5,579,381.5"
		/>
	<path d="M579,382c-1.4,0-2.5,1.2-2.5,2.5c0,1.6,1.1,2.7,2.5,2.7v1.2c-2,0-3.7-1.6-3.7-3.8c0-2.1,1.7-3.7,3.7-3.7V382z M579,388.4
		c2.2,0,3.8-1.7,3.8-3.8s-1.6-3.7-3.8-3.7v1.1c1.6,0,2.7,1.2,2.7,2.5c0,1.6-1.2,2.7-2.7,2.7V388.4"/>
	<rect x="575" y="384.7" class="st21" width="8.1" height="4.1"/>
	<rect x="578.6" y="383.7" width="1" height="4.2"/>
	<rect x="578.6" y="383.7" class="st22" width="1" height="4.2"/>
	<line class="st20" x1="295.6" y1="684.3" x2="295.6" y2="692.5"/>
	<path class="st21" d="M295.5,681.2c-1.7,0-3,1.4-3,3c0,1.8,1.4,3.2,3,3.2c1.8,0,3.2-1.4,3.2-3.2
		C298.7,682.6,297.3,681.2,295.5,681.2"/>
	<path d="M295.6,681.7c-1.4,0-2.5,1.2-2.5,2.5c0,1.6,1.1,2.7,2.5,2.7v1.2c-2,0-3.7-1.6-3.7-3.8c0-2.1,1.7-3.7,3.7-3.7V681.7z
		 M295.6,688.1c2.2,0,3.8-1.7,3.8-3.8s-1.6-3.7-3.8-3.7v1.1c1.6,0,2.7,1.2,2.7,2.5c0,1.6-1.2,2.7-2.7,2.7V688.1"/>
	<rect x="291.6" y="684.4" class="st21" width="8.1" height="4.1"/>
	<rect x="295.1" y="683.4" width="1" height="4.2"/>
	<rect x="295.1" y="683.4" class="st22" width="1" height="4.2"/>
	<line class="st20" x1="352.3" y1="684.3" x2="352.3" y2="692.5"/>
	<path class="st21" d="M352.2,681.2c-1.7,0-3,1.4-3,3c0,1.8,1.4,3.2,3,3.2c1.8,0,3.2-1.4,3.2-3.2C355.4,682.6,354,681.2,352.2,681.2
		"/>
	<path d="M352.3,681.7c-1.4,0-2.5,1.2-2.5,2.5c0,1.6,1.1,2.7,2.5,2.7v1.2c-2,0-3.7-1.6-3.7-3.8c0-2.1,1.7-3.7,3.7-3.7V681.7z
		 M352.3,688.1c2.2,0,3.8-1.7,3.8-3.8s-1.6-3.7-3.8-3.7v1.1c1.6,0,2.7,1.2,2.7,2.5c0,1.6-1.2,2.7-2.7,2.7V688.1"/>
	<rect x="348.3" y="684.4" class="st21" width="8.1" height="4.1"/>
	<rect x="351.8" y="683.4" width="1" height="4.2"/>
	<rect x="351.8" y="683.4" class="st22" width="1" height="4.2"/>
	<line class="st20" x1="409" y1="684.3" x2="409" y2="692.5"/>
	<path class="st21" d="M408.9,681.2c-1.7,0-3,1.4-3,3c0,1.8,1.4,3.2,3,3.2c1.8,0,3.2-1.4,3.2-3.2
		C412.1,682.6,410.7,681.2,408.9,681.2"/>
	<path d="M409,681.7c-1.4,0-2.5,1.2-2.5,2.5c0,1.6,1.1,2.7,2.5,2.7v1.2c-2,0-3.7-1.6-3.7-3.8c0-2.1,1.7-3.7,3.7-3.7V681.7z
		 M409,688.1c2.2,0,3.8-1.7,3.8-3.8s-1.6-3.7-3.8-3.7v1.1c1.6,0,2.7,1.2,2.7,2.5c0,1.6-1.2,2.7-2.7,2.7V688.1"/>
	<rect x="405" y="684.4" class="st21" width="8.1" height="4.1"/>
	<rect x="408.5" y="683.4" width="1" height="4.2"/>
	<rect x="408.5" y="683.4" class="st22" width="1" height="4.2"/>
	<line class="st20" x1="465.7" y1="684.3" x2="465.7" y2="692.5"/>
	<path class="st21" d="M465.6,681.2c-1.7,0-3,1.4-3,3c0,1.8,1.4,3.2,3,3.2c1.8,0,3.2-1.4,3.2-3.2
		C468.8,682.6,467.4,681.2,465.6,681.2"/>
	<path d="M465.7,681.7c-1.4,0-2.5,1.2-2.5,2.5c0,1.6,1.1,2.7,2.5,2.7v1.2c-2,0-3.7-1.6-3.7-3.8c0-2.1,1.7-3.7,3.7-3.7V681.7z
		 M465.7,688.1c2.2,0,3.8-1.7,3.8-3.8s-1.6-3.7-3.8-3.7v1.1c1.6,0,2.7,1.2,2.7,2.5c0,1.6-1.2,2.7-2.7,2.7V688.1"/>
	<rect x="461.7" y="684.4" class="st21" width="8.1" height="4.1"/>
	<rect x="465.2" y="683.4" width="1" height="4.2"/>
	<rect x="465.2" y="683.4" class="st22" width="1" height="4.2"/>
	<line class="st20" x1="522.4" y1="684.3" x2="522.4" y2="692.5"/>
	<path class="st21" d="M522.3,681.2c-1.7,0-3,1.4-3,3c0,1.8,1.4,3.2,3,3.2c1.8,0,3.2-1.4,3.2-3.2
		C525.5,682.6,524.1,681.2,522.3,681.2"/>
	<path d="M522.4,681.7c-1.4,0-2.5,1.2-2.5,2.5c0,1.6,1.1,2.7,2.5,2.7v1.2c-2,0-3.7-1.6-3.7-3.8c0-2.1,1.7-3.7,3.7-3.7V681.7z
		 M522.4,688.1c2.2,0,3.8-1.7,3.8-3.8s-1.6-3.7-3.8-3.7v1.1c1.6,0,2.7,1.2,2.7,2.5c0,1.6-1.2,2.7-2.7,2.7V688.1"/>
	<rect x="518.3" y="684.4" class="st21" width="8.1" height="4.1"/>
	<rect x="521.9" y="683.4" width="1" height="4.2"/>
	<rect x="521.9" y="683.4" class="st22" width="1" height="4.2"/>
	<line class="st20" x1="579.1" y1="684.3" x2="579.1" y2="692.5"/>
	<path class="st21" d="M579,681.2c-1.7,0-3,1.4-3,3c0,1.8,1.4,3.2,3,3.2c1.8,0,3.2-1.4,3.2-3.2C582.2,682.6,580.8,681.2,579,681.2"
		/>
	<path d="M579,681.7c-1.4,0-2.5,1.2-2.5,2.5c0,1.6,1.1,2.7,2.5,2.7v1.2c-2,0-3.7-1.6-3.7-3.8c0-2.1,1.7-3.7,3.7-3.7V681.7z
		 M579,688.1c2.2,0,3.8-1.7,3.8-3.8s-1.6-3.7-3.8-3.7v1.1c1.6,0,2.7,1.2,2.7,2.5c0,1.6-1.2,2.7-2.7,2.7V688.1"/>
	<rect x="575" y="684.4" class="st21" width="8.1" height="4.1"/>
	<rect x="578.6" y="683.4" width="1" height="4.2"/>
	<rect x="578.6" y="683.4" class="st22" width="1" height="4.2"/>
	<line class="st20" x1="635.8" y1="684.3" x2="635.8" y2="692.5"/>
	<path class="st21" d="M635.7,681.2c-1.7,0-3,1.4-3,3c0,1.8,1.4,3.2,3,3.2c1.8,0,3.2-1.4,3.2-3.2
		C638.9,682.6,637.5,681.2,635.7,681.2"/>
	<path d="M635.7,681.7c-1.4,0-2.5,1.2-2.5,2.5c0,1.6,1.1,2.7,2.5,2.7v1.2c-2,0-3.7-1.6-3.7-3.8c0-2.1,1.7-3.7,3.7-3.7V681.7z
		 M635.7,688.1c2.2,0,3.8-1.7,3.8-3.8s-1.6-3.7-3.8-3.7v1.1c1.6,0,2.7,1.2,2.7,2.5c0,1.6-1.2,2.7-2.7,2.7V688.1"/>
	<rect x="631.7" y="684.4" class="st21" width="8.1" height="4.1"/>
	<rect x="635.3" y="683.4" width="1" height="4.2"/>
	<rect x="635.3" y="683.4" class="st22" width="1" height="4.2"/>
	<line class="st20" x1="522.4" y1="236.8" x2="522.4" y2="228.6"/>
	<path class="st21" d="M522.3,239.9c-1.7,0-3-1.4-3-3c0-1.8,1.4-3.2,3-3.2c1.8,0,3.2,1.4,3.2,3.2
		C525.5,238.5,524.1,239.9,522.3,239.9"/>
	<path d="M522.4,240.5c-2,0-3.7-1.6-3.7-3.7c0-2.2,1.7-3.8,3.7-3.8v1.2c-1.4,0-2.5,1.1-2.5,2.7c0,1.3,1.1,2.5,2.5,2.5V240.5z
		 M522.4,233v1.2c1.5,0,2.7,1.1,2.7,2.7c0,1.3-1.1,2.5-2.7,2.5v1.1c2.2,0,3.8-1.6,3.8-3.7C526.2,234.7,524.6,233,522.4,233"/>
	<rect x="518.3" y="232.6" class="st21" width="8.1" height="4.1"/>
	<rect x="521.9" y="233.5" width="1" height="4.2"/>
	<rect x="521.9" y="233.5" class="st22" width="1" height="4.2"/>
	<line class="st20" x1="635.8" y1="236.8" x2="635.8" y2="228.6"/>
	<path class="st21" d="M635.7,239.9c-1.7,0-3-1.4-3-3c0-1.8,1.4-3.2,3-3.2c1.8,0,3.2,1.4,3.2,3.2
		C638.9,238.5,637.5,239.9,635.7,239.9"/>
	<path d="M635.7,240.5c-2,0-3.7-1.6-3.7-3.7c0-2.2,1.7-3.8,3.7-3.8v1.2c-1.4,0-2.5,1.1-2.5,2.7c0,1.3,1.1,2.5,2.5,2.5V240.5z
		 M635.7,233v1.2c1.5,0,2.7,1.1,2.7,2.7c0,1.3-1.1,2.5-2.7,2.5v1.1c2.2,0,3.8-1.6,3.8-3.7C639.5,234.7,637.9,233,635.7,233"/>
	<rect x="631.7" y="232.6" class="st21" width="8.1" height="4.1"/>
	<rect x="635.3" y="233.5" width="1" height="4.2"/>
	<rect x="635.3" y="233.5" class="st22" width="1" height="4.2"/>
	<rect x="281.6" y="456" class="st21" width="28.1" height="7.1"/>
	<rect x="281.6" y="456" class="st21" width="28.1" height="7.1"/>
	<g class="st3">
		<g>
			<text transform="matrix(1 0 0 1 285.8896 461.3773)" class="st5 st6">G 0.75</text>
		</g>
	</g>
	<rect x="338.3" y="456" class="st21" width="28.1" height="7.1"/>
	<rect x="338.3" y="456" class="st21" width="28.1" height="7.1"/>
	<g class="st3">
		<g>
			<text transform="matrix(1 0 0 1 344.7397 461.3773)" class="st5 st6">Y 0.75</text>
		</g>
	</g>
	<rect x="395" y="456" class="st21" width="28.1" height="7.1"/>
	<rect x="395" y="456" class="st21" width="28.1" height="7.1"/>
	<g class="st3">
		<g>
			<text transform="matrix(1 0 0 1 399.2539 461.3773)" class="st5 st6">Gr 0.75</text>
		</g>
	</g>
	<rect x="451.7" y="456" class="st21" width="28.1" height="7.1"/>
	<rect x="451.7" y="456" class="st21" width="28.1" height="7.1"/>
	<g class="st3">
		<g>
			<text transform="matrix(1 0 0 1 456.6729 461.3773)" class="st5 st6">L 0.75</text>
		</g>
	</g>
	<rect x="508.4" y="456" class="st21" width="28.1" height="7.1"/>
	<rect x="508.4" y="456" class="st21" width="28.1" height="7.1"/>
	<g class="st3">
		<g>
			<text transform="matrix(1 0 0 1 510.0039 461.3773)" class="st5 st6">B/Y 0.22</text>
		</g>
	</g>
	<rect x="565" y="456" class="st21" width="28.1" height="7.1"/>
	<rect x="565" y="456" class="st21" width="28.1" height="7.1"/>
	<g class="st3">
		<g>
			<text transform="matrix(1 0 0 1 570.1045 461.3773)" class="st5 st6">B/W 0.22</text>
		</g>
	</g>
	<rect x="621.7" y="456" class="st21" width="28.1" height="7.1"/>
	<rect x="621.7" y="456" class="st21" width="28.1" height="7.1"/>
	<g class="st3">
		<g>
			<text transform="matrix(1 0 0 1 626.3984 461.3773)" class="st5 st6">B 0.22</text>
		</g>
	</g>
	<rect x="281.6" y="660.6" class="st21" width="28.1" height="7.1"/>
	<rect x="281.6" y="660.6" class="st21" width="28.1" height="7.1"/>
	<g class="st3">
		<g>
			<text transform="matrix(1 0 0 1 285.8896 665.7269)" class="st5 st6">G 0.75</text>
		</g>
	</g>
	<rect x="338.3" y="660.6" class="st21" width="28.1" height="7.1"/>
	<rect x="338.3" y="660.6" class="st21" width="28.1" height="7.1"/>
	<g class="st3">
		<g>
			<text transform="matrix(1 0 0 1 344.7397 665.7269)" class="st5 st6">Y 0.75</text>
		</g>
	</g>
	<rect x="395" y="660.6" class="st21" width="28.1" height="7.1"/>
	<rect x="395" y="660.6" class="st21" width="28.1" height="7.1"/>
	<g class="st3">
		<g>
			<text transform="matrix(1 0 0 1 399.2539 665.7269)" class="st5 st6">Gr 0.75</text>
		</g>
	</g>
	<rect x="451.7" y="660.6" class="st21" width="28.1" height="7.1"/>
	<rect x="451.7" y="660.6" class="st21" width="28.1" height="7.1"/>
	<g class="st3">
		<g>
			<text transform="matrix(1 0 0 1 456.6729 665.7269)" class="st5 st6">L 0.75</text>
		</g>
	</g>
	<rect x="508.4" y="660.6" class="st21" width="28.1" height="7.1"/>
	<rect x="508.4" y="660.6" class="st21" width="28.1" height="7.1"/>
	<g class="st3">
		<g>
			<text transform="matrix(1 0 0 1 510.0039 665.7269)" class="st5 st6">B/Y 0.22</text>
		</g>
	</g>
	<rect x="565" y="660.6" class="st21" width="28.1" height="7.1"/>
	<rect x="565" y="660.6" class="st21" width="28.1" height="7.1"/>
	<g class="st3">
		<g>
			<text transform="matrix(1 0 0 1 570.1045 665.7269)" class="st5 st6">B/W 0.22</text>
		</g>
	</g>
	<rect x="621.7" y="660.6" class="st21" width="28.1" height="7.1"/>
	<rect x="621.7" y="660.6" class="st21" width="28.1" height="7.1"/>
	<g class="st3">
		<g>
			<text transform="matrix(1 0 0 1 626.3984 665.7269)" class="st5 st6">B 0.22</text>
		</g>
	</g>
	<rect x="564.5" y="357.1" class="st21" width="28.1" height="7.1"/>
	<rect x="564.5" y="357.1" class="st21" width="28.1" height="7.1"/>
	<g class="st3">
		<g>
			<text transform="matrix(1 0 0 1 569.209 362.4886)" class="st5 st6">B 0.22</text>
		</g>
	</g>
	<rect x="621.7" y="262" class="st21" width="28.1" height="7.1"/>
	<rect x="621.7" y="262" class="st21" width="28.1" height="7.1"/>
	<g class="st3">
		<g>
			<text transform="matrix(1 0 0 1 626.4492 267.4017)" class="st5 st6">B 0.22</text>
		</g>
	</g>
	<rect x="508.4" y="262" class="st21" width="28.1" height="7.1"/>
	<rect x="508.4" y="262" class="st21" width="28.1" height="7.1"/>
	<g class="st3">
		<g>
			<text transform="matrix(1 0 0 1 510.1797 267.4017)" class="st5 st6">R/L 0.22</text>
		</g>
	</g>
	<rect x="508.4" y="357.1" class="st21" width="28.1" height="7.1"/>
	<rect x="508.4" y="357.1" class="st21" width="28.1" height="7.1"/>
	<g class="st3">
		<g>
			<text transform="matrix(1 0 0 1 510.1797 362.4886)" class="st5 st6">R/L 0.22</text>
		</g>
	</g>
	<g class="st3">
		<g>
			<text transform="matrix(1 0 0 1.0071 641.7383 295.9515)" class="st5 st23">SP1914</text>
		</g>
	</g>
	<rect x="641.7" y="290.7" class="st21" width="25.9" height="6.9"/>
	<rect x="641.7" y="290.7" class="st24" width="25.9" height="6.9"/>
	<text transform="matrix(1 0 0 1.0071 643.7383 295.9515)" class="st5 st23">SP3234</text>
	<line class="st9" x1="68.9" y1="437" x2="68.9" y2="808.1"/>
	<line class="st9" x1="125.5" y1="437" x2="125.5" y2="808.2"/>
	<line class="st9" x1="182.2" y1="437" x2="182.2" y2="808.2"/>
	<line class="st9" x1="238.9" y1="437" x2="238.9" y2="808.2"/>
	<line class="st25" x1="61.9" y1="808.1" x2="75.8" y2="808.1"/>
	<line class="st25" x1="64.8" y1="810.3" x2="72.9" y2="810.3"/>
	<line class="st25" x1="71.3" y1="812.4" x2="66.4" y2="812.4"/>
	<line class="st25" x1="118.6" y1="808.1" x2="132.5" y2="808.1"/>
	<line class="st25" x1="121.5" y1="810.3" x2="129.6" y2="810.3"/>
	<line class="st25" x1="128" y1="812.4" x2="123.1" y2="812.4"/>
	<line class="st25" x1="175.3" y1="808.1" x2="189.2" y2="808.1"/>
	<line class="st25" x1="178.2" y1="810.3" x2="186.3" y2="810.3"/>
	<line class="st25" x1="184.7" y1="812.4" x2="179.8" y2="812.4"/>
	<line class="st20" x1="68.9" y1="433.8" x2="68.9" y2="425.6"/>
	<path class="st21" d="M68.8,436.9c-1.7,0-3-1.4-3-3c0-1.8,1.4-3.2,3-3.2c1.8,0,3.2,1.4,3.2,3.2C72,435.5,70.6,436.9,68.8,436.9"/>
	<path d="M68.8,437.5c-2,0-3.7-1.6-3.7-3.7c0-2.2,1.7-3.8,3.7-3.8v1.2c-1.4,0-2.5,1.1-2.5,2.7c0,1.3,1.1,2.5,2.5,2.5V437.5z
		 M68.8,430v1.2c1.5,0,2.7,1.1,2.7,2.7c0,1.3-1.1,2.5-2.7,2.5v1.1c2.2,0,3.8-1.6,3.8-3.7S71,430,68.8,430"/>
	<rect x="64.8" y="429.6" class="st21" width="8.1" height="4.1"/>
	<rect x="68.4" y="430.5" width="1" height="4.2"/>
	<rect x="68.4" y="430.5" class="st22" width="1" height="4.2"/>
	<line class="st20" x1="125.5" y1="433.8" x2="125.5" y2="425.6"/>
	<path class="st21" d="M125.4,436.9c-1.7,0-3-1.4-3-3c0-1.8,1.4-3.2,3-3.2c1.8,0,3.2,1.4,3.2,3.2
		C128.6,435.5,127.2,436.9,125.4,436.9"/>
	<path d="M125.5,437.5c-2,0-3.7-1.6-3.7-3.7c0-2.2,1.7-3.8,3.7-3.8v1.2c-1.4,0-2.5,1.1-2.5,2.7c0,1.3,1.1,2.5,2.5,2.5V437.5z
		 M125.5,430v1.2c1.5,0,2.7,1.1,2.7,2.7c0,1.3-1.1,2.5-2.7,2.5v1.1c2.2,0,3.8-1.6,3.8-3.7S127.7,430,125.5,430"/>
	<rect x="121.5" y="429.6" class="st21" width="8.1" height="4.1"/>
	<rect x="125" y="430.5" width="1" height="4.2"/>
	<rect x="125" y="430.5" class="st22" width="1" height="4.2"/>
	<line class="st20" x1="182.2" y1="433.8" x2="182.2" y2="425.6"/>
	<path class="st21" d="M182.1,436.9c-1.7,0-3-1.4-3-3c0-1.8,1.4-3.2,3-3.2c1.8,0,3.2,1.4,3.2,3.2
		C185.3,435.5,183.9,436.9,182.1,436.9"/>
	<path d="M182.2,437.5c-2,0-3.7-1.6-3.7-3.7c0-2.2,1.7-3.8,3.7-3.8v1.2c-1.4,0-2.5,1.1-2.5,2.7c0,1.3,1.1,2.5,2.5,2.5V437.5z
		 M182.2,430v1.2c1.5,0,2.7,1.1,2.7,2.7c0,1.3-1.1,2.5-2.7,2.5v1.1c2.2,0,3.8-1.6,3.8-3.7S184.4,430,182.2,430"/>
	<rect x="178.2" y="429.6" class="st21" width="8.1" height="4.1"/>
	<rect x="181.7" y="430.5" width="1" height="4.2"/>
	<rect x="181.7" y="430.5" class="st22" width="1" height="4.2"/>
	<line class="st20" x1="238.9" y1="433.8" x2="238.9" y2="425.6"/>
	<path class="st21" d="M238.8,436.9c-1.7,0-3-1.4-3-3c0-1.8,1.4-3.2,3-3.2c1.8,0,3.2,1.4,3.2,3.2C242,435.5,240.6,436.9,238.8,436.9
		"/>
	<path d="M238.9,437.5c-2,0-3.7-1.6-3.7-3.7c0-2.2,1.7-3.8,3.7-3.8v1.2c-1.4,0-2.5,1.1-2.5,2.7c0,1.3,1.1,2.5,2.5,2.5V437.5z
		 M238.9,430v1.2c1.5,0,2.7,1.1,2.7,2.7c0,1.3-1.1,2.5-2.7,2.5v1.1c2.2,0,3.8-1.6,3.8-3.7S241.1,430,238.9,430"/>
	<rect x="234.9" y="429.6" class="st21" width="8.1" height="4.1"/>
	<rect x="238.4" y="430.5" width="1" height="4.2"/>
	<rect x="238.4" y="430.5" class="st22" width="1" height="4.2"/>
	<line class="st25" x1="232" y1="808.1" x2="245.9" y2="808.1"/>
	<line class="st25" x1="234.9" y1="810.3" x2="243" y2="810.3"/>
	<line class="st25" x1="241.4" y1="812.4" x2="236.5" y2="812.4"/>
	<rect x="54.8" y="454" class="st21" width="28.1" height="7.1"/>
	<rect x="111.5" y="454" class="st21" width="28.1" height="7.1"/>
	<rect x="168.2" y="454" class="st21" width="28.1" height="7.1"/>
	<rect x="224.9" y="454" class="st21" width="28.1" height="7.1"/>
	<g class="st3">
		<g>
			<text transform="matrix(1 0 0 1 61.3203 459.1527)" class="st5 st6">B 2.5</text>
		</g>
	</g>
	<g class="st3">
		<g>
			<text transform="matrix(1 0 0 1 118.0137 459.1527)" class="st5 st6">B 2.5</text>
		</g>
	</g>
	<g class="st3">
		<g>
			<text transform="matrix(1 0 0 1 174.7065 459.1527)" class="st5 st6">B 2.5</text>
		</g>
	</g>
	<g class="st3">
		<g>
			<text transform="matrix(1 0 0 1 229.5488 459.1527)" class="st5 st6">B 0.75</text>
		</g>
	</g>
	<rect x="58.7" y="815.3" class="st21" width="20.3" height="8.2"/>
	<rect x="59.1" y="815.7" class="st21" width="19.7" height="7.6"/>
	<rect x="59.1" y="815.7" class="st26" width="19.7" height="7.6"/>
	<rect x="115.4" y="815.3" class="st21" width="20.3" height="8.2"/>
	<rect x="115.8" y="815.7" class="st21" width="19.7" height="7.6"/>
	<rect x="115.8" y="815.7" class="st26" width="19.7" height="7.6"/>
	<rect x="172.1" y="815.3" class="st21" width="20.3" height="8.2"/>
	<rect x="172.5" y="815.7" class="st21" width="19.7" height="7.6"/>
	<rect x="172.5" y="815.7" class="st26" width="19.7" height="7.6"/>
	<rect x="228.8" y="815.3" class="st21" width="20.3" height="8.2"/>
	<rect x="229.2" y="815.7" class="st21" width="19.7" height="7.6"/>
	<rect x="229.2" y="815.7" class="st26" width="19.7" height="7.6"/>
	<line class="st9" x1="264.5" y1="206.8" x2="264.5" y2="341"/>
	<polyline class="st10" points="227.9,206.8 227.9,305.2 189.8,305.2 189.8,205.1 	"/>
	<polyline class="st27" points="227.9,206.8 227.9,305.2 189.8,305.2 189.8,205.1 	"/>
	<rect x="261.3" y="304.8" class="st21" width="6.4" height="6"/>
	<g>
		<text transform="matrix(1 0 0 1 256.95 309.7464)" class="st5 st6">B 1.0</text>
	</g>
	<g>
		<g id="GB031_17_">
			<g>
				<g>
					<line class="st25" x1="264.6" y1="339" x2="264.6" y2="341.7"/>
				</g>
				<g>
					<line class="st25" x1="257.6" y1="341.7" x2="271.4" y2="341.7"/>
				</g>
				<g>
					<line class="st25" x1="260.4" y1="343.9" x2="268.6" y2="343.9"/>
				</g>
				<g>
					<line class="st25" x1="266.9" y1="346" x2="262.1" y2="346"/>
				</g>
			</g>
			<g>
				<rect x="254.2" y="348.5" class="st21" width="20.3" height="8.2"/>
				<rect x="254.5" y="348.8" class="st28" width="19.7" height="7.6"/>
			</g>
		</g>
	</g>
	<rect x="269.2" y="278.7" class="st29" width="25" height="7.4"/>
	<text transform="matrix(1 0 0 1 269.5273 284.1926)" class="st5 st6">SP2777</text>
	<path class="st30" d="M267.2,283c0,1.7-1.3,2.9-2.8,2.9c-1.6,0-2.9-1.2-2.9-2.9c0-1.5,1.3-2.7,2.9-2.7
		C265.9,280.3,267.2,281.5,267.2,283z"/>
	<rect x="193.8" y="294.2" class="st29" width="25" height="7.4"/>
	<text transform="matrix(1 0 0 1 194.1573 299.733)" class="st5 st6">SP3215</text>
	<path class="st30" d="M192.8,304.8c0,1.7-1.3,2.9-2.8,2.9c-1.6,0-2.9-1.2-2.9-2.9c0-1.5,1.3-2.7,2.9-2.7
		C191.5,302.1,192.8,303.3,192.8,304.8z"/>
	<g id="REB_x2C_A3_4_">
		<rect x="177.1" y="120" class="st31" width="265.6" height="76"/>
	</g>
	<g id="REB_x2C_A3_1_">
		<rect x="70.8" y="120" class="st31" width="59.3" height="76"/>
	</g>
	<g>
		<line class="st9" x1="314.8" y1="206.5" x2="314.8" y2="382.1"/>
	</g>
	<g>
		<line class="st32" x1="314.8" y1="206.5" x2="314.8" y2="382.1"/>
	</g>
	<line class="st33" x1="415.2" y1="206.8" x2="415.2" y2="382.4"/>
	<line class="st34" x1="415.2" y1="206.8" x2="415.2" y2="382.4"/>
	<line class="st35" x1="415.2" y1="206.8" x2="415.2" y2="382.4"/>
	<rect x="421.9" y="297.1" class="st29" width="25.3" height="5.6"/>
	<text transform="matrix(1 0 0 1 422.62 302.0269)" class="st5 st6">SP1914</text>
	<path class="st30" d="M418.3,300c0,1.7-1.3,2.9-2.8,2.9c-1.6,0-2.9-1.2-2.9-2.9c0-1.5,1.3-2.7,2.9-2.7
		C417,297.3,418.3,298.5,418.3,300z"/>
	<rect x="321.3" y="296.8" class="st29" width="25.3" height="5.6"/>
	<text transform="matrix(1 0 0 1 321.9913 301.7101)" class="st5 st6">SP3222</text>
	<path class="st30" d="M317.6,299.7c0,1.7-1.3,2.9-2.8,2.9c-1.6,0-2.9-1.2-2.9-2.9c0-1.5,1.3-2.7,2.9-2.7
		C316.3,297,317.6,298.2,317.6,299.7z"/>
	<g id="RF22_x2C_A3_5_">
		<g>
			<g>
				<path class="st36" d="M415,163.7c-1.2,0-2.2,1-2.2,2.2c0,1.2,1,2.2,2.2,2.2c1.2,0,2.2-1,2.2-2.2
					C417.3,164.7,416.3,163.7,415,163.7"/>
			</g>
			<g>
				<path class="st36" d="M415,147.9c-1.2,0-2.2,1-2.2,2.1c0,1.2,1,2.2,2.2,2.2c1.2,0,2.2-0.9,2.2-2.2
					C417.3,148.9,416.3,147.9,415,147.9"/>
			</g>
			<g>
				<path class="st36" d="M413.6,151.7c-0.1,2.5,0.2,3.2,1.3,4.3c1.2,1.2,2.4,1.7,2.8,3.7c0.4,1.6-0.1,3.5-1.1,4.5"/>
			</g>
			<g>
				<path class="st36" d="M416.5,164.2c0.2-0.8,0-2.9-0.6-3.7c-0.9-1.2-2.7-2.1-3.3-4c-0.9-2.8,0.7-4.6,1.1-5"/>
			</g>
		</g>
	</g>
	<g id="RF22_x2C_A3_4_">
		<g>
			<g>
				<path class="st36" d="M377.6,163.7c-1.2,0-2.2,1-2.2,2.2c0,1.2,1,2.2,2.2,2.2c1.2,0,2.2-1,2.2-2.2
					C379.8,164.7,378.8,163.7,377.6,163.7"/>
			</g>
			<g>
				<path class="st36" d="M377.6,147.9c-1.2,0-2.2,1-2.2,2.1c0,1.2,1,2.2,2.2,2.2c1.2,0,2.2-0.9,2.2-2.2
					C379.8,148.9,378.8,147.9,377.6,147.9"/>
			</g>
			<g>
				<path class="st36" d="M376.1,151.7c-0.1,2.5,0.2,3.2,1.3,4.3c1.2,1.2,2.4,1.7,2.8,3.7c0.4,1.6-0.1,3.5-1.1,4.5"/>
			</g>
			<g>
				<path class="st36" d="M379,164.2c0.2-0.8,0-2.9-0.6-3.7c-0.9-1.2-2.7-2.1-3.3-4c-0.9-2.8,0.7-4.6,1.1-5"/>
			</g>
		</g>
	</g>
	<g>
		<g>
			<polyline class="st37" points="415,168.1 415,191.9 415,195.9 			"/>
		</g>
	</g>
	<g>
		<g>
			<polyline class="st37" points="415,147.9 415,144.1 415,82.1 			"/>
		</g>
	</g>
	<g>
		<g>
			<line class="st37" x1="415.1" y1="204.5" x2="415.1" y2="196.2"/>
		</g>
		<g>
			<path class="st21" d="M415.2,207.5c-1.7,0-3-1.4-3-3c0-1.8,1.4-3.2,3-3.2c1.8,0,3.2,1.4,3.2,3.2
				C418.3,206.1,416.9,207.5,415.2,207.5z"/>
			<path d="M415.2,208.2c-2,0-3.7-1.6-3.7-3.7c0-2.2,1.7-3.8,3.7-3.8v1.1c-1.4,0-2.5,1.1-2.5,2.7c0,1.4,1.1,2.5,2.5,2.5V208.2
				L415.2,208.2z M415.2,200.7v1.1c1.5,0,2.7,1.1,2.7,2.7c0,1.4-1.1,2.5-2.7,2.5v1.1c2.2,0,3.8-1.6,3.8-3.7
				C419,202.3,417.3,200.7,415.2,200.7z"/>
		</g>
		<rect x="411" y="200.3" class="st21" width="8.5" height="4.1"/>
		<rect x="414.5" y="201.2" width="1" height="4.2"/>
		<rect x="414.5" y="201.2" class="st22" width="1" height="4.2"/>
	</g>
	<g>
		<g>
			<line class="st37" x1="415.4" y1="384.4" x2="415.4" y2="392.6"/>
		</g>
		<g>
			<path class="st21" d="M415.3,381.3c1.7,0,3,1.4,3,3c0,1.8-1.4,3.2-3,3.2c-1.8,0-3.2-1.4-3.2-3.2
				C412.1,382.7,413.5,381.3,415.3,381.3z"/>
			<path d="M415.3,380.7c2,0,3.7,1.7,3.7,3.7c0,2.2-1.7,3.8-3.7,3.8V387c1.4,0,2.5-1.1,2.5-2.7c0-1.4-1.1-2.5-2.5-2.5V380.7
				L415.3,380.7z M415.3,388.2V387c-1.5,0-2.7-1.1-2.7-2.7c0-1.4,1.1-2.5,2.7-2.5v-1.1c-2.2,0-3.8,1.7-3.8,3.7
				C411.5,386.5,413.1,388.2,415.3,388.2z"/>
		</g>
		<rect x="411" y="384.5" class="st21" width="8.5" height="4.1"/>
		<rect x="414.9" y="383.5" width="1" height="4.2"/>
		<rect x="414.9" y="383.5" class="st22" width="1" height="4.2"/>
	</g>
	<rect x="402.8" y="234.6" class="st21" width="25.5" height="6"/>
	<g>
		<text transform="matrix(1 0 0 1 400.5993 239.6925)" class="st5 st6">R/W 0.35</text>
	</g>
	<g>
		<path class="st38" d="M411.9,81.8c0-1.7,1.3-2.9,2.8-2.9c1.6,0,2.9,1.2,2.9,2.9c0,1.5-1.3,2.7-2.9,2.7
			C413.2,84.5,411.9,83.3,411.9,81.8z"/>
		<g>
			<path class="st39" d="M411.9,81.8c0-1.7,1.3-2.9,2.8-2.9c1.6,0,2.9,1.2,2.9,2.9c0,1.5-1.3,2.7-2.9,2.7
				C413.2,84.5,411.9,83.3,411.9,81.8"/>
		</g>
	</g>
	<g>
		<g>
			<polyline class="st37" points="377.8,147.9 377.8,144.1 377.8,47.7 			"/>
		</g>
	</g>
	<g>
		<path class="st38" d="M374.7,47.5c0-1.7,1.3-2.9,2.8-2.9c1.6,0,2.9,1.2,2.9,2.9c0,1.5-1.3,2.7-2.9,2.7
			C376,50.2,374.7,49,374.7,47.5z"/>
		<g>
			<path class="st39" d="M374.7,47.5c0-1.7,1.3-2.9,2.8-2.9c1.6,0,2.9,1.2,2.9,2.9c0,1.5-1.3,2.7-2.9,2.7
				C376,50.2,374.7,49,374.7,47.5"/>
		</g>
	</g>
	<rect x="395.7" y="364.7" class="st21" width="25.7" height="6"/>
	<rect x="395.7" y="364.7" class="st21" width="25.5" height="6"/>
	<g>
		<text transform="matrix(1 0 0 1 400.5993 369.6574)" class="st5 st6">R/W 0.35</text>
	</g>
	<g>
		<g>
			<text transform="matrix(1 0 0 1 419.403 162.0314)" class="st5 st6">7.5A</text>
		</g>
	</g>
	<g>
		<text transform="matrix(1 0 0 1 86.8135 397.4112)" class="st5 st40">Constant power</text>
	</g>
	<g>
		<g>
			<line class="st37" x1="314.7" y1="204.2" x2="314.7" y2="196"/>
		</g>
		<g>
			<path class="st21" d="M314.8,207.3c-1.7,0-3-1.4-3-3c0-1.8,1.4-3.2,3-3.2c1.8,0,3.2,1.4,3.2,3.2
				C318,205.9,316.6,207.3,314.8,207.3z"/>
			<path d="M314.8,207.9c-2,0-3.7-1.6-3.7-3.7c0-2.2,1.7-3.8,3.7-3.8v1.1c-1.4,0-2.5,1.1-2.5,2.7c0,1.4,1.1,2.5,2.5,2.5V207.9
				L314.8,207.9z M314.8,200.4v1.1c1.5,0,2.7,1.1,2.7,2.7c0,1.4-1.1,2.5-2.7,2.5v1.1c2.2,0,3.8-1.6,3.8-3.7
				C318.6,202.1,317,200.4,314.8,200.4z"/>
		</g>
		<rect x="310.6" y="200" class="st21" width="8.5" height="4.1"/>
		<rect x="314.2" y="200.9" width="1" height="4.2"/>
		<rect x="314.2" y="200.9" class="st22" width="1" height="4.2"/>
	</g>
	<g>
		<g>
			<line class="st37" x1="315" y1="384.1" x2="315" y2="392.4"/>
		</g>
		<g>
			<path class="st21" d="M314.9,381.1c1.7,0,3,1.4,3,3c0,1.8-1.4,3.2-3,3.2c-1.8,0-3.2-1.4-3.2-3.2
				C311.8,382.5,313.1,381.1,314.9,381.1z"/>
			<path d="M314.9,380.4c2,0,3.7,1.7,3.7,3.7c0,2.2-1.7,3.8-3.7,3.8v-1.1c1.4,0,2.5-1.1,2.5-2.7c0-1.4-1.1-2.5-2.5-2.5V380.4
				L314.9,380.4z M314.9,387.9v-1.1c-1.5,0-2.7-1.1-2.7-2.7c0-1.4,1.1-2.5,2.7-2.5v-1.1c-2.2,0-3.8,1.7-3.8,3.7
				C311.1,386.3,312.8,387.9,314.9,387.9z"/>
		</g>
		<rect x="310.6" y="384.2" class="st21" width="8.5" height="4.1"/>
		<rect x="314.5" y="383.2" width="1" height="4.2"/>
		<rect x="314.5" y="383.2" class="st22" width="1" height="4.2"/>
	</g>
	<rect x="308.5" y="234.9" class="st21" width="12.5" height="6"/>
	<g>
		<text transform="matrix(1 0 0 1 300.6666 240.1925)" class="st5 st6">B/R 0.75</text>
	</g>
	<rect x="258.7" y="234.9" class="st21" width="12.5" height="6"/>
	<g>
		<text transform="matrix(1 0 0 1 254.5819 239.6925)" class="st5 st6">B 0.35</text>
	</g>
	<rect x="222" y="234.9" class="st21" width="12.5" height="6"/>
	<g>
		<text transform="matrix(1 0 0 1 216.3877 239.6925)" class="st5 st6">R/Gr 0.5</text>
	</g>
	<rect x="182.3" y="234.9" class="st21" width="12.5" height="6"/>
	<g>
		<text transform="matrix(1 0 0 1 176.6229 239.6925)" class="st5 st6">R/Gr 0.5</text>
	</g>
	<rect x="308.5" y="364.4" class="st21" width="12.5" height="6"/>
	<g>
		<text transform="matrix(1 0 0 1 300.6666 369.223)" class="st5 st6">B/R 0.75</text>
	</g>
	<g id="RF22_x2C_A3_1_">
		<g>
			<g>
				<path class="st36" d="M189.6,163.7c-1.2,0-2.2,1-2.2,2.2c0,1.2,1,2.2,2.2,2.2c1.2,0,2.2-1,2.2-2.2
					C191.9,164.7,190.9,163.7,189.6,163.7"/>
			</g>
			<g>
				<path class="st36" d="M189.6,147.9c-1.2,0-2.2,1-2.2,2.1c0,1.2,1,2.2,2.2,2.2c1.2,0,2.2-0.9,2.2-2.2
					C191.9,148.9,190.9,147.9,189.6,147.9"/>
			</g>
			<g>
				<path class="st36" d="M188.2,151.7c-0.1,2.5,0.2,3.2,1.3,4.3c1.2,1.2,2.4,1.7,2.8,3.7c0.4,1.6-0.1,3.5-1.1,4.5"/>
			</g>
			<g>
				<path class="st36" d="M191.1,164.2c0.2-0.8,0-2.9-0.6-3.7c-0.9-1.2-2.7-2.1-3.3-4c-0.9-2.8,0.7-4.6,1.1-5"/>
			</g>
		</g>
	</g>
	<g>
		<g>
			<polyline class="st37" points="189.6,168.1 189.6,191.9 189.6,195.9 			"/>
		</g>
	</g>
	<g>
		<g>
			<polyline class="st37" points="189.6,147.9 189.6,144.1 189.6,70.3 			"/>
		</g>
	</g>
	<g>
		<path class="st38" d="M186.5,70c0-1.7,1.3-2.9,2.8-2.9c1.6,0,2.9,1.2,2.9,2.9c0,1.5-1.3,2.7-2.9,2.7
			C187.8,72.8,186.5,71.5,186.5,70z"/>
		<g>
			<path class="st39" d="M186.5,70c0-1.7,1.3-2.9,2.8-2.9c1.6,0,2.9,1.2,2.9,2.9c0,1.5-1.3,2.7-2.9,2.7
				C187.8,72.8,186.5,71.5,186.5,70"/>
		</g>
	</g>
	<g>
		<g>
			<text transform="matrix(1 0 0 1 193.9978 162.0314)" class="st5 st6">10A</text>
		</g>
	</g>
	<g>
		<g>
			<text transform="matrix(1 0 0 1 381.6295 162.0314)" class="st5 st6">15A</text>
		</g>
	</g>
	<g>
		<g>
			<line class="st37" x1="264.6" y1="204.2" x2="264.6" y2="196"/>
		</g>
		<g>
			<path class="st21" d="M264.7,207.3c-1.7,0-3-1.4-3-3c0-1.8,1.4-3.2,3-3.2c1.8,0,3.2,1.4,3.2,3.2
				C267.8,205.9,266.4,207.3,264.7,207.3z"/>
			<path d="M264.7,207.9c-2,0-3.7-1.6-3.7-3.7c0-2.2,1.7-3.8,3.7-3.8v1.1c-1.4,0-2.5,1.1-2.5,2.7c0,1.4,1.1,2.5,2.5,2.5V207.9
				L264.7,207.9z M264.7,200.4v1.1c1.5,0,2.7,1.1,2.7,2.7c0,1.4-1.1,2.5-2.7,2.5v1.1c2.2,0,3.8-1.6,3.8-3.7
				C268.5,202.1,266.8,200.4,264.7,200.4z"/>
		</g>
		<rect x="260.5" y="200" class="st21" width="8.5" height="4.1"/>
		<rect x="264" y="200.9" width="1" height="4.2"/>
		<rect x="264" y="200.9" class="st22" width="1" height="4.2"/>
	</g>
	<g>
		<g>
			<line class="st37" x1="228" y1="204.2" x2="228" y2="196"/>
		</g>
		<g>
			<path class="st21" d="M228,207.3c-1.7,0-3-1.4-3-3c0-1.8,1.4-3.2,3-3.2c1.8,0,3.2,1.4,3.2,3.2C231.2,205.9,229.8,207.3,228,207.3
				z"/>
			<path d="M228,207.9c-2,0-3.7-1.6-3.7-3.7c0-2.2,1.7-3.8,3.7-3.8v1.1c-1.4,0-2.5,1.1-2.5,2.7c0,1.4,1.1,2.5,2.5,2.5V207.9
				L228,207.9z M228,200.4v1.1c1.5,0,2.7,1.1,2.7,2.7c0,1.4-1.1,2.5-2.7,2.5v1.1c2.2,0,3.8-1.6,3.8-3.7
				C231.9,202.1,230.2,200.4,228,200.4z"/>
		</g>
		<rect x="223.9" y="200" class="st21" width="8.5" height="4.1"/>
		<rect x="227.4" y="200.9" width="1" height="4.2"/>
		<rect x="227.4" y="200.9" class="st22" width="1" height="4.2"/>
	</g>
	<g>
		<g>
			<line class="st37" x1="189.8" y1="204.2" x2="189.8" y2="196"/>
		</g>
		<g>
			<path class="st21" d="M189.9,207.3c-1.7,0-3-1.4-3-3c0-1.8,1.4-3.2,3-3.2c1.8,0,3.2,1.4,3.2,3.2
				C193.1,205.9,191.7,207.3,189.9,207.3z"/>
			<path d="M189.9,207.9c-2,0-3.7-1.6-3.7-3.7c0-2.2,1.7-3.8,3.7-3.8v1.1c-1.4,0-2.5,1.1-2.5,2.7c0,1.4,1.1,2.5,2.5,2.5V207.9
				L189.9,207.9z M189.9,200.4v1.1c1.5,0,2.7,1.1,2.7,2.7c0,1.4-1.1,2.5-2.7,2.5v1.1c2.2,0,3.8-1.6,3.8-3.7
				C193.7,202.1,192,200.4,189.9,200.4z"/>
		</g>
		<rect x="185.7" y="200" class="st21" width="8.5" height="4.1"/>
		<rect x="189.2" y="200.9" width="1" height="4.2"/>
		<rect x="189.2" y="200.9" class="st22" width="1" height="4.2"/>
	</g>
	<rect x="240.3" y="146.4" class="st41" width="91.3" height="38.8"/>
	<g>
		<line class="st42" x1="318.4" y1="171.8" x2="313.1" y2="161.3"/>
	</g>
	<g>
		<line class="st43" x1="252.1" y1="166.2" x2="314.1" y2="166.1"/>
	</g>
	<path class="st21" d="M314.2,160.1c0-0.6-0.5-1.2-1.2-1.2c-0.6,0-1.2,0.5-1.2,1.2c0,0.6,0.5,1.2,1.2,1.2S314.2,160.8,314.2,160.1z"
		/>
	<g>
		<path class="st44" d="M314.2,160.1c0-0.6-0.5-1.2-1.2-1.2c-0.6,0-1.2,0.5-1.2,1.2c0,0.6,0.5,1.2,1.2,1.2S314.2,160.8,314.2,160.1"
			/>
	</g>
	<g>
		<polyline class="st45" points="264.7,196 264.7,172.3 264.7,166.2 264.7,137.7 264.7,126.5 228,126.5 228,195.9 		"/>
	</g>
	<path class="st21" d="M316.1,171.8c0-0.6-0.5-1.2-1.2-1.2c-0.6,0-1.2,0.5-1.2,1.2c0,0.6,0.5,1.1,1.2,1.1
		C315.6,172.9,316.1,172.4,316.1,171.8z"/>
	<g>
		<path class="st44" d="M316.1,171.8c0-0.6-0.5-1.2-1.2-1.2c-0.6,0-1.2,0.5-1.2,1.2c0,0.6,0.5,1.1,1.2,1.1
			C315.6,172.9,316.1,172.4,316.1,171.8"/>
	</g>
	<rect x="257.3" y="163.2" class="st46" width="14.2" height="5.7"/>
	<g>
		<rect x="248.2" y="161.6" class="st47" width="4" height="8.5"/>
		<g>
			<polyline class="st45" points="250.2,170.3 250.2,177.3 263.5,177.3 			"/>
		</g>
		<g>
			<polyline class="st45" points="250.2,161.5 250.2,155.1 264.4,155.1 			"/>
		</g>
	</g>
	<g>
		<line class="st47" x1="267" y1="163.2" x2="262.2" y2="169.1"/>
	</g>
	<polyline class="st45" points="313.1,126.5 313.1,155.3 313.1,158.8 	"/>
	<polyline class="st45" points="314.9,173.2 314.9,193.8 314.9,196.2 	"/>
	<g>
		<text transform="matrix(1 0 0 1 336.4072 162.4907)" class="st5 st6">IG3-2</text>
		<text transform="matrix(1 0 0 1 336.4072 170.5491)" class="st5 st6">Relay</text>
	</g>
	<g>
		<path class="st48" d="M264.6,156.9c-1,0-1.7-0.8-1.7-1.7c0-1,0.7-1.8,1.7-1.8c0.9,0,1.7,0.8,1.7,1.8
			C266.3,156.1,265.5,156.9,264.6,156.9z"/>
		<g>
			<path class="st49" d="M264.6,156.9c-1,0-1.7-0.8-1.7-1.7c0-1,0.7-1.8,1.7-1.8c0.9,0,1.7,0.8,1.7,1.8
				C266.3,156.1,265.5,156.9,264.6,156.9"/>
		</g>
	</g>
	<g>
		<path class="st48" d="M264.6,179c-1,0-1.7-0.8-1.7-1.7c0-1,0.7-1.8,1.7-1.8c0.9,0,1.7,0.8,1.7,1.8
			C266.3,178.2,265.5,179,264.6,179z"/>
		<g>
			<path class="st49" d="M264.6,179c-1,0-1.7-0.8-1.7-1.7c0-1,0.7-1.8,1.7-1.8c0.9,0,1.7,0.8,1.7,1.8
				C266.3,178.2,265.5,179,264.6,179"/>
		</g>
	</g>
	<polyline class="st45" points="313.2,126.4 359.8,126.4 359.8,189.3 377.5,189.3 377.5,168.1 	"/>
	<g>
		<path class="st50" d="M99,163.7c-1.2,0-2.2,1-2.2,2.2c0,1.2,1,2.2,2.2,2.2c1.2,0,2.2-1,2.2-2.2C101.2,164.7,100.2,163.7,99,163.7"
			/>
		<path class="st50" d="M99,147.9c-1.2,0-2.2,1-2.2,2.1c0,1.2,1,2.2,2.2,2.2c1.2,0,2.2-0.9,2.2-2.2
			C101.2,148.9,100.2,147.9,99,147.9"/>
		<path class="st50" d="M97.5,151.7c-0.1,2.5,0.2,3.2,1.3,4.3c1.2,1.2,2.4,1.7,2.8,3.7c0.4,1.6-0.1,3.5-1.1,4.5"/>
		<path class="st50" d="M100.4,164.2c0.2-0.8,0-2.9-0.6-3.7c-0.9-1.2-2.7-2.1-3.3-4c-0.9-2.8,0.7-4.6,1.1-5"/>
	</g>
	<polyline class="st51" points="98.9,168.1 98.9,169.1 98.9,196.5 	"/>
	<polyline class="st51" points="98.9,148 98.9,143.9 98.9,47.6 	"/>
	<path d="M96.1,47.7c0-1.7,1.3-2.9,2.8-2.9c1.6,0,2.9,1.2,2.9,2.9c0,1.5-1.3,2.7-2.9,2.7C97.4,50.4,96.1,49.2,96.1,47.7"/>
	<path class="st52" d="M96.1,47.7c0-1.7,1.3-2.9,2.8-2.9c1.6,0,2.9,1.2,2.9,2.9c0,1.5-1.3,2.7-2.9,2.7
		C97.4,50.4,96.1,49.2,96.1,47.7z"/>
	<path class="st53" d="M96.1,47.7c0-1.7,1.3-2.9,2.8-2.9c1.6,0,2.9,1.2,2.9,2.9c0,1.5-1.3,2.7-2.9,2.7
		C97.4,50.4,96.1,49.2,96.1,47.7"/>
	<text transform="matrix(1 0 0 1 104.2877 163.4881)" class="st5 st6">200A</text>
	<line class="st33" x1="99" y1="206.9" x2="99" y2="382.3"/>
	<g>
		<g>
			<line class="st37" x1="98.9" y1="204.6" x2="98.9" y2="196.4"/>
		</g>
		<g>
			<path class="st21" d="M99,207.7c-1.7,0-3-1.4-3-3c0-1.8,1.4-3.2,3-3.2c1.8,0,3.2,1.4,3.2,3.2C102.2,206.3,100.8,207.7,99,207.7z"
				/>
			<path d="M99,208.3c-2,0-3.7-1.6-3.7-3.7c0-2.2,1.7-3.8,3.7-3.8v1.1c-1.4,0-2.5,1.1-2.5,2.7c0,1.4,1.1,2.5,2.5,2.5V208.3L99,208.3
				z M99,200.8v1.1c1.5,0,2.7,1.1,2.7,2.7c0,1.4-1.1,2.5-2.7,2.5v1.1c2.2,0,3.8-1.6,3.8-3.7C102.8,202.5,101.2,200.8,99,200.8z"/>
		</g>
		<rect x="94.8" y="200.4" class="st21" width="8.5" height="4.1"/>
		<rect x="98.4" y="201.3" width="1" height="4.2"/>
		<rect x="98.4" y="201.3" class="st22" width="1" height="4.2"/>
	</g>
	<g>
		<g>
			<line class="st37" x1="99.2" y1="384.3" x2="99.2" y2="392.5"/>
		</g>
		<g>
			<path class="st21" d="M99.1,381.2c1.7,0,3,1.4,3,3c0,1.8-1.4,3.2-3,3.2c-1.8,0-3.2-1.4-3.2-3.2C96,382.6,97.4,381.2,99.1,381.2z"
				/>
			<path d="M99.1,380.6c2,0,3.7,1.7,3.7,3.7c0,2.2-1.7,3.8-3.7,3.8v-1.1c1.4,0,2.5-1.1,2.5-2.7c0-1.4-1.1-2.5-2.5-2.5V380.6
				L99.1,380.6z M99.1,388.1v-1.1c-1.5,0-2.7-1.1-2.7-2.7c0-1.4,1.1-2.5,2.7-2.5v-1.1c-2.2,0-3.8,1.7-3.8,3.7
				C95.3,386.4,97,388.1,99.1,388.1z"/>
		</g>
		<rect x="94.8" y="384.4" class="st21" width="8.5" height="4.1"/>
		<rect x="98.7" y="383.4" width="1" height="4.2"/>
		<rect x="98.7" y="383.4" class="st22" width="1" height="4.2"/>
	</g>
	<rect x="86.3" y="224.1" class="st21" width="25.5" height="6"/>
	<g>
		<text transform="matrix(1 0 0 1 89.4374 229.1468)" class="st5 st6">R 20.0</text>
	</g>
	<rect x="86.3" y="362.8" class="st21" width="25.5" height="6"/>
	<g>
		<text transform="matrix(1 0 0 1 89.4374 367.8982)" class="st5 st6">R 20.0</text>
	</g>
	<g id="保险丝名称_7_">
		<text transform="matrix(1 0 0 1 295.0461 398.1773)" class="st54 st5 st40">IG3 Power supply</text>
	</g>
	<g id="保险丝名称_8_">
		<text transform="matrix(1 0 0 1 401.4331 398.1773)" class="st54 st5 st40">IG4 Power supply</text>
	</g>
	<g id="保险丝名称_14_">
		<text transform="matrix(1 0 0 1 492.2736 397.0966)" class="st54 st5 st40">String adjustment signal</text>
	</g>
	<g id="保险丝名称_13_">
		<text transform="matrix(1 0 0 1 545.741 397.097)" class="st54 st5 st40">String adjustment signal ground </text>
	</g>
	<g id="保险丝名称_21_">
		<text transform="matrix(1 0 0 1 620.173 226.3467)" class="st54 st5 st40">Hall signal ground</text>
	</g>
	<g id="保险丝名称_20_">
		<text transform="matrix(1 0 0 1 503.4644 226.9604)" class="st54 st5 st40">String adjustment signal</text>
	</g>
	<g id="保险丝名称_5_">
		<text transform="matrix(1 0 0 1 62.8053 423.5095)" class="st54 st5 st40">Power ground</text>
	</g>
	<g id="保险丝名称_3_">
		<text transform="matrix(1 0 0 1 119.5486 423.5095)" class="st54 st5 st40">Power ground</text>
	</g>
	<g id="保险丝名称_2_">
		<text transform="matrix(1 0 0 1 176.2415 423.5095)" class="st54 st5 st40">Power ground</text>
	</g>
	<g id="保险丝名称_1_">
		<text transform="matrix(1 0 0 1 232.9352 423.5095)" class="st54 st5 st40"> Signal ground</text>
	</g>
	<g id="保险丝名称_4_">
		<text transform="matrix(1 0 0 1 270.2884 418.5739)" class="st54 st5 st40">Steering wheel extension</text>
		<text transform="matrix(1 0 0 1 270.2884 423.3739)" class="st54 st5 st40"> control power supply</text>
	</g>
	<g id="保险丝名称_6_">
		<text transform="matrix(1 0 0 1 333.4185 419.1223)" class="st54 st5 st40">Steering wheel retraction </text>
		<text transform="matrix(1 0 0 1 333.4185 423.9223)" class="st54 st5 st40"> control power supply</text>
	</g>
	<g id="保险丝名称_9_">
		<text transform="matrix(1 0 0 1 391.0149 418.5094)" class="st54 st5 st40">Steering wheel tilt up </text>
		<text transform="matrix(1 0 0 1 391.0149 423.3094)" class="st54 st5 st40"> control power supply</text>
	</g>
	<g id="保险丝名称_10_">
		<text transform="matrix(1 0 0 1 447.7092 418.5094)" class="st54 st5 st40">Steering wheel tilt down </text>
		<text transform="matrix(1 0 0 1 447.7092 423.3094)" class="st54 st5 st40"> control power supply</text>
	</g>
	<g id="保险丝名称_11_">
		<text transform="matrix(1 0 0 1 505.6283 417.8679)" class="st54 st5 st40">collection of inclined </text>
		<text transform="matrix(1 0 0 1 505.6283 422.6679)" class="st54 st5 st40">position of string </text>
	</g>
	<g id="保险丝名称_12_">
		<text transform="matrix(1 0 0 1 561.5475 418.5091)" class="st54 st5 st40">collection of telescopic</text>
		<text transform="matrix(1 0 0 1 561.5475 423.3091)" class="st54 st5 st40">position of string </text>
	</g>
	<g id="保险丝名称_15_">
		<text transform="matrix(1 0 0 1 625.7878 697.7635)" class="st54 st5 st40">Hall signal ground</text>
	</g>
	<g id="保险丝名称_23_">
		<text transform="matrix(1 0 0 1 281.578 697.8423)" class="st54 st5 st40">Steering wheel extension</text>
		<text transform="matrix(1 0 0 1 281.578 702.6423)" class="st54 st5 st40"> control power supply</text>
	</g>
	<g id="保险丝名称_22_">
		<text transform="matrix(1 0 0 1 344.7081 698.3907)" class="st54 st5 st40">Steering wheel retraction </text>
		<text transform="matrix(1 0 0 1 344.7081 703.1907)" class="st54 st5 st40"> control power supply</text>
	</g>
	<g id="保险丝名称_19_">
		<text transform="matrix(1 0 0 1 402.3045 697.7778)" class="st54 st5 st40">Steering wheel tilt up </text>
		<text transform="matrix(1 0 0 1 402.3045 702.5778)" class="st54 st5 st40"> control power supply</text>
	</g>
	<g id="保险丝名称_18_">
		<text transform="matrix(1 0 0 1 458.9988 697.7778)" class="st54 st5 st40">Steering wheel tilt down </text>
		<text transform="matrix(1 0 0 1 458.9988 702.5778)" class="st54 st5 st40"> control power supply</text>
	</g>
	<g id="保险丝名称_17_">
		<text transform="matrix(1 0 0 1 516.918 697.1362)" class="st54 st5 st40">collection of inclined </text>
		<text transform="matrix(1 0 0 1 516.918 701.9362)" class="st54 st5 st40">position of string </text>
	</g>
	<g id="保险丝名称_16_">
		<text transform="matrix(1 0 0 1 572.8372 697.7775)" class="st54 st5 st40">collection of telescopic</text>
		<text transform="matrix(1 0 0 1 572.8372 702.5775)" class="st54 st5 st40">position of string </text>
	</g>
	<g>
		<g id="FB103_1_">
			<g>
				<g id="FB103_18_">
					<text transform="matrix(1 0 0 1 310.6992 408.6427)" class="st55 st5 st56">Left Body Controller</text>
				</g>
			</g>
		</g>
	</g>
</g>
<g id="图层_2">
	<text transform="matrix(1 0 0 1 641.7393 235.6737)" class="st57 st5 st6">G54</text>
	<text transform="matrix(1 0 0 1 527.7393 235.6737)" class="st57 st5 st6">G54</text>
	<text transform="matrix(1 0 0 1 539.9893 235.6735)" class="st57 st5 st6">-1</text>
	<text transform="matrix(1 0 0 1 75.4146 432.976)" class="st57 st5 st6">KG64(E)</text>
	<text transform="matrix(1 0 0 1 131.4966 432.976)" class="st57 st5 st6">KG64(E)</text>
	<text transform="matrix(1 0 0 1 188.8145 432.976)" class="st57 st5 st6">KG64(E)</text>
	<text transform="matrix(1 0 0 1 245.5088 432.976)" class="st57 st5 st6">BG64(B)</text>
	<text transform="matrix(1 0 0 1 61.4648 821.2474)" class="st57 st5 st6">Ek01</text>
	<text transform="matrix(1 0 0 1 118.0864 821.2474)" class="st57 st5 st6">Ek03</text>
	<text transform="matrix(1 0 0 1 174.8525 821.2474)" class="st57 st5 st6">Ek05</text>
	<text transform="matrix(1 0 0 1 231.3247 821.2474)" class="st57 st5 st6">Eb03</text>
	<text transform="matrix(1 0 0 1 101.9229 432.976)" class="st57 st5 st6">-8</text>
	<text transform="matrix(1 0 0 1 158.0044 432.976)" class="st57 st5 st6">-13</text>
	<text transform="matrix(1 0 0 1 215.3228 432.976)" class="st57 st5 st6">-20</text>
	<text transform="matrix(1 0 0 1 272.0166 432.976)" class="st57 st5 st6">-43</text>
	<text transform="matrix(1 0 0 1 653.9893 235.6735)" class="st57 st5 st6">-2</text>
	<text transform="matrix(1 0 0 1 256.876 354.826)" class="st57 st5 st6">Ek07</text>
	<g>
		<text transform="matrix(1 0 0 1 419.1994 155.4133)" class="st57 st5 st6">F1/12</text>
	</g>
	<g>
		<text transform="matrix(1 0 0 1 193.7942 155.4133)" class="st57 st5 st6">F1/25</text>
	</g>
	<g>
		<text transform="matrix(1 0 0 1 381.4259 155.4133)" class="st57 st5 st6">F1/31</text>
	</g>
	<g>
		<text transform="matrix(1 0 0 1 103.3165 117.0436)" class="st57 st5 st6">Positive Fuse Box</text>
	</g>
	<g>
		<text transform="matrix(1 0 0 1 419.3516 203.2332)" class="st57 st5 st6">B1D</text>
	</g>
	<g>
		<text transform="matrix(1 0 0 1 431.8516 202.9832)" class="st57 st5 st6">-9</text>
	</g>
	<g>
		<text transform="matrix(1 0 0 1 318.9805 202.9832)" class="st57 st5 st6">B1C</text>
	</g>
	<g>
		<text transform="matrix(1 0 0 1 331.4805 202.9832)" class="st57 st5 st6">-5</text>
	</g>
	<g>
		<text transform="matrix(1 0 0 1 268.8555 202.9832)" class="st57 st5 st6">B1C</text>
	</g>
	<g>
		<text transform="matrix(1 0 0 1 281.3555 202.9832)" class="st57 st5 st6">-21</text>
	</g>
	<g>
		<text transform="matrix(1 0 0 1 232.2305 202.9832)" class="st57 st5 st6">B1C</text>
	</g>
	<g>
		<text transform="matrix(1 0 0 1 244.7305 202.9832)" class="st57 st5 st6">-14</text>
	</g>
	<g>
		<text transform="matrix(1 0 0 1 194.0635 202.9832)" class="st57 st5 st6">B1C</text>
	</g>
	<g>
		<text transform="matrix(1 0 0 1 206.5635 202.9832)" class="st57 st5 st6">-33</text>
	</g>
	<text transform="matrix(1 0 0 1 301.5752 432.7318)" class="st57 st5 st6">G64(F)</text>
	<text transform="matrix(1 0 0 1 321.9912 432.7313)" class="st57 st5 st6">-9</text>
	<text transform="matrix(1 0 0 1 301.5752 688.4701)" class="st57 st5 st6">G53</text>
	<text transform="matrix(1 0 0 1 313.5127 688.4701)" class="st57 st5 st6">-1</text>
	<text transform="matrix(1 0 0 1 358.2695 688.4701)" class="st57 st5 st6">G53</text>
	<text transform="matrix(1 0 0 1 370.207 688.4701)" class="st57 st5 st6">-2</text>
	<text transform="matrix(1 0 0 1 414.9629 688.4701)" class="st57 st5 st6">G53</text>
	<text transform="matrix(1 0 0 1 426.9004 688.4701)" class="st57 st5 st6">-3</text>
	<text transform="matrix(1 0 0 1 471.6572 688.4701)" class="st57 st5 st6">G53</text>
	<text transform="matrix(1 0 0 1 483.5947 688.4701)" class="st57 st5 st6">-4</text>
	<text transform="matrix(1 0 0 1 528.3516 688.4701)" class="st57 st5 st6">G53</text>
	<text transform="matrix(1 0 0 1 540.2891 688.4701)" class="st57 st5 st6">-6</text>
	<text transform="matrix(1 0 0 1 585.0449 688.4701)" class="st57 st5 st6">G53</text>
	<text transform="matrix(1 0 0 1 596.9824 688.4701)" class="st57 st5 st6">-5</text>
	<text transform="matrix(1 0 0 1 641.7393 688.4701)" class="st57 st5 st6">G53</text>
	<text transform="matrix(1 0 0 1 653.6768 688.4701)" class="st57 st5 st6">-7</text>
	<text transform="matrix(1 0 0 1 358.2695 432.7318)" class="st57 st5 st6">G64(F)</text>
	<text transform="matrix(1 0 0 1 378.603 432.7318)" class="st57 st5 st6">-3</text>
	<text transform="matrix(1 0 0 1 414.9629 432.7318)" class="st57 st5 st6">G64(F)</text>
	<text transform="matrix(1 0 0 1 435.2964 432.7318)" class="st57 st5 st6">-1</text>
	<text transform="matrix(1 0 0 1 471.6572 432.7318)" class="st57 st5 st6">G64(F)</text>
	<text transform="matrix(1 0 0 1 491.9907 432.7318)" class="st57 st5 st6">-2</text>
	<text transform="matrix(1 0 0 1 528.3516 432.7318)" class="st57 st5 st6">G64(F)</text>
	<text transform="matrix(1 0 0 1 548.6851 432.7318)" class="st57 st5 st6">-13</text>
	<text transform="matrix(1 0 0 1 585.0449 432.7318)" class="st57 st5 st6">G64(F)</text>
	<text transform="matrix(1 0 0 1 605.3784 432.7318)" class="st57 st5 st6">-12</text>
	<text transform="matrix(1 0 0 1 528.3516 390.8339)" class="st57 st5 st6">G64(F)</text>
	<text transform="matrix(1 0 0 1 548.7266 390.8339)" class="st57 st5 st6">-7</text>
	<text transform="matrix(1 0 0 1 585.0449 390.8339)" class="st57 st5 st6">G64(G)</text>
	<text transform="matrix(1 0 0 1 606.8574 390.8339)" class="st57 st5 st6">-20</text>
	<text transform="matrix(1 0 0 1 420.6934 389.7517)" class="st57 st5 st6">BG64(B)</text>
	<text transform="matrix(1 0 0 1 445.6631 389.5017)" class="st57 st5 st6">-48</text>
	<text transform="matrix(1 0 0 1 320.3223 389.5017)" class="st57 st5 st6">BG64(B)</text>
	<text transform="matrix(1 0 0 1 345.292 389.5017)" class="st57 st5 st6">-47</text>
	<text transform="matrix(1 0 0 1 104.0851 156.8699)" class="st57 st5 st6">F4/02</text>
	<text transform="matrix(1 0 0 1 105.5507 205.5686)" class="st57 st5 st6">KB46_B</text>
	<text transform="matrix(1 0 0 1 130.078 205.6474)" class="st57 st5 st6">-1</text>
	<g>
		<text transform="matrix(1 0 0 1 104.2881 389.5223)" class="st57 st5 st6">KG64(A)_4</text>
	</g>
	<g>
		<text transform="matrix(1 0 0 1 137.6631 389.5223)" class="st57 st5 st6">-1</text>
	</g>
	<g>
		<g>
			<text transform="matrix(1 0 0 1 237.0353 112.3764)" class="st55 st5 st6">Front Compartment Distribution Box</text>
		</g>
		<g>
			<text transform="matrix(1 0 0 1 237.0353 119.5764)" class="st55 st5 st6">  </text>
		</g>
	</g>
	<g>
		<g id="FB103_2_">
			<g>
				<g id="FB103_20_">
					<text transform="matrix(1 0 0 1 499.3793 213.547)" class="st55 st5 st56">Steering Wheel Position Adjustment Switch</text>
				</g>
			</g>
		</g>
	</g>
	<g>
		<g id="FB103_3_">
			<g>
				<g id="FB103_19_">
					<text transform="matrix(1 0 0 1 452.5002 715.3621)" class="st55 st5 st56">String Adjusting Motor</text>
				</g>
			</g>
		</g>
	</g>
</g>
</svg>
