<?xml version="1.0" encoding="utf-8"?>
<!-- Generator: Adobe Illustrator 24.0.1, SVG Export Plug-In . SVG Version: 6.00 Build 0)  -->
<svg version="1.1" xmlns="http://www.w3.org/2000/svg" xmlns:xlink="http://www.w3.org/1999/xlink" x="0px" y="0px"
	 viewBox="0 0 686 841.9" enable-background="new 0 0 686 841.9" xml:space="preserve">
<g id="_x30_1-跳转图层">
	
		<line fill="none" stroke="#898989" stroke-width="3" stroke-linejoin="round" stroke-miterlimit="10" x1="181.7" y1="316.1" x2="181.7" y2="366.1"/>
	<g>
		<path fill="#FFFFFF" stroke="#000000" stroke-width="0.5" stroke-miterlimit="10" d="M181.7,316.9c-0.8,0-1.5-0.5-1.5-1.1V204.9
			c0-0.6,0.7-1.1,1.5-1.1s1.5,0.5,1.5,1.1v110.9C183.2,316.4,182.5,316.9,181.7,316.9z"/>
	</g>
	
		<line fill="none" stroke="#824188" stroke-width="3" stroke-linecap="round" stroke-linejoin="round" stroke-miterlimit="10" x1="324.5" y1="202.4" x2="324.5" y2="366.1"/>
	
		<line fill="none" stroke="#E99893" stroke-width="3" stroke-linecap="round" stroke-linejoin="round" stroke-miterlimit="10" x1="267.8" y1="202.4" x2="267.8" y2="366.1"/>
	<path fill="none" stroke="#000000" stroke-linecap="round" stroke-linejoin="round" d="M328.1,199.7l-0.6-2.1c0,0-0.6-2.5-3.3-2.6
		h-27.5l0,0l-2-2.7l-1.9,2.7c-9.2,0-27.3,0-27.3,0c-2.7,0.1-3.3,2.6-3.3,2.6l-0.6,2.1"/>
	<path fill="none" stroke="#000000" stroke-width="0.5" stroke-miterlimit="10" d="M327,284.4c3,0,5.5,2.2,5.5,4.8s-2.4,4.7-5.4,4.8
		l-62-9.6c-3,0.1-5.4,2.2-5.4,4.8c0,2.7,2.5,4.8,5.5,4.8L327,284.4z"/>
	<g>
		<rect x="260.5" y="333.2" fill="#FFFFFF" width="12.1" height="6"/>
		<g>
			<text transform="matrix(1 0 0 1 258.3932 338.1725)" font-family="'FZLTHJW--GB1-0'" font-size="6px">P 0.35</text>
		</g>
	</g>
	<g>
		<rect x="315" y="333.2" fill="#FFFFFF" width="13.5" height="6"/>
		<g>
			<text transform="matrix(1 0 0 1 315.0516 338.1732)" font-family="'FZLTHJW--GB1-0'" font-size="6px">V 0.35</text>
		</g>
	</g>
	<text transform="matrix(1 0 0 1 246.7126 188.8901)" font-family="'FZLTHJW--GB1-0'" font-size="6px">See Body Network - Circuit Diagram</text>
	<g>
		<polyline fill="#DCDDDD" points="44,41.9 643.6,41.9 643.6,99.7 44,99.7 		"/>
		<line fill="none" stroke="#060001" stroke-width="0.5" x1="44" y1="47.6" x2="643.6" y2="47.6"/>
		<line fill="none" stroke="#060001" x1="44" y1="41.6" x2="643.6" y2="41.6"/>
		<line fill="none" stroke="#060001" stroke-width="0.5" x1="44" y1="58.9" x2="643.6" y2="58.9"/>
		<line fill="none" stroke="#060001" stroke-width="0.5" x1="44" y1="70.6" x2="643.6" y2="70.6"/>
		<line fill="none" stroke="#060001" stroke-width="0.5" x1="44" y1="82.3" x2="643.6" y2="82.3"/>
		<line fill="none" stroke="#060001" stroke-width="0.5" x1="44" y1="93.9" x2="643.6" y2="93.9"/>
		<line fill="none" stroke="#060001" x1="44" y1="99.7" x2="643.6" y2="99.7"/>
	</g>
	<g>
		<text transform="matrix(1 0 0 1 646.7158 49.6299)" font-family="'FZLTHJW--GB1-0'" font-size="6px">30</text>
		<text transform="matrix(1 0 0 1 646.7158 60.7959)" font-family="'FZLTHJW--GB1-0'" font-size="6px">IG1</text>
		<text transform="matrix(1 0 0 1 646.7158 72.4209)" font-family="'FZLTHJW--GB1-0'" font-size="6px">IG3</text>
		<text transform="matrix(1 0 0 1 646.7158 83.9248)" font-family="'FZLTHJW--GB1-0'" font-size="6px">IG4</text>
		<text transform="matrix(1 0 0 1 646.7158 96.1279)" font-family="'FZLTHJW--GB1-0'" font-size="6px">ACC</text>
		<text transform="matrix(1 0 0 1 33.2295 49.7119)" font-family="'FZLTHJW--GB1-0'" font-size="6px">30</text>
		<text transform="matrix(1 0 0 1 30.0654 60.8779)" font-family="'FZLTHJW--GB1-0'" font-size="6px">IG1</text>
		<text transform="matrix(1 0 0 1 30.1123 72.5029)" font-family="'FZLTHJW--GB1-0'" font-size="6px">IG3</text>
		<text transform="matrix(1 0 0 1 30.0654 84.0029)" font-family="'FZLTHJW--GB1-0'" font-size="6px">IG4</text>
		<text transform="matrix(1 0 0 1 26.5732 96.1279)" font-family="'FZLTHJW--GB1-0'" font-size="6px">ACC</text>
	</g>
	<g>
		<path fill="#9DD2EE" stroke="#000000" stroke-width="0.5" stroke-linecap="round" stroke-miterlimit="10" d="M626.2,403.3H31
			v-25.9h595.2c0,0-5,7.6,0,13S626.2,403.3,626.2,403.3"/>
	</g>
	<g>
		
			<rect x="358.3" y="182.4" fill="#9DD2EE" stroke="#000000" stroke-width="0.5" stroke-linecap="round" stroke-miterlimit="10" width="174.1" height="25.9"/>
	</g>
	<g id="REB_x2C_A3_2_">
		<rect x="67.2" y="144.4" fill="#CCCCCC" stroke="#000000" stroke-width="0.5" stroke-miterlimit="10" width="51" height="51.3"/>
	</g>
	
		<line fill="none" stroke="#000000" stroke-width="3" stroke-linejoin="round" stroke-miterlimit="10" x1="92.7" y1="786.9" x2="92.7" y2="411.5"/>
	
		<line fill="none" stroke="#000000" stroke-width="3" stroke-linejoin="round" stroke-miterlimit="10" x1="381.6" y1="217.3" x2="381.6" y2="366.9"/>
	
		<line fill="none" stroke="#000000" stroke-width="3" stroke-linejoin="round" stroke-miterlimit="10" x1="438.3" y1="217.3" x2="438.3" y2="366.9"/>
	
		<line fill="none" stroke="#000000" stroke-width="3" stroke-linejoin="round" stroke-miterlimit="10" x1="494.9" y1="217.3" x2="494.9" y2="366.9"/>
	<g id="_x30_2-上针脚_27_">
		<line fill="none" stroke="#000000" stroke-width="0.6" stroke-linejoin="round" x1="438.3" y1="369.4" x2="438.3" y2="377.6"/>
		<path fill="#FFFFFF" d="M438.2,366.4c-1.7,0-3,1.4-3,3c0,1.8,1.4,3.2,3,3.2c1.8,0,3.2-1.4,3.2-3.2
			C441.4,367.8,440,366.4,438.2,366.4"/>
		<path d="M438.2,366.9c-1.4,0-2.5,1.2-2.5,2.5c0,1.6,1.1,2.7,2.5,2.7v1.2c-2,0-3.7-1.6-3.7-3.8c0-2.1,1.7-3.7,3.7-3.7V366.9z
			 M438.2,373.3c2.2,0,3.8-1.7,3.8-3.8s-1.6-3.7-3.8-3.7v1.1c1.6,0,2.7,1.2,2.7,2.5c0,1.6-1.2,2.7-2.7,2.7V373.3"/>
		<rect x="434.2" y="369.5" fill="#FFFFFF" width="8.1" height="4.1"/>
		<rect x="437.8" y="368.5" width="1" height="4.2"/>
		
			<rect x="437.8" y="368.5" fill="none" stroke="#000000" stroke-width="0.72" stroke-linecap="round" stroke-linejoin="round" width="1" height="4.2"/>
	</g>
	<g id="_x30_2-上针脚_21_">
		<line fill="none" stroke="#000000" stroke-width="0.6" stroke-linejoin="round" x1="381.6" y1="369.4" x2="381.6" y2="377.6"/>
		<path fill="#FFFFFF" d="M381.5,366.4c-1.7,0-3,1.4-3,3c0,1.8,1.4,3.2,3,3.2c1.8,0,3.2-1.4,3.2-3.2
			C384.7,367.8,383.3,366.4,381.5,366.4"/>
		<path d="M381.5,366.9c-1.4,0-2.5,1.2-2.5,2.5c0,1.6,1.1,2.7,2.5,2.7v1.2c-2,0-3.7-1.6-3.7-3.8c0-2.1,1.7-3.7,3.7-3.7V366.9z
			 M381.5,373.3c2.2,0,3.8-1.7,3.8-3.8s-1.6-3.7-3.8-3.7v1.1c1.6,0,2.7,1.2,2.7,2.5c0,1.6-1.2,2.7-2.7,2.7V373.3"/>
		<rect x="377.5" y="369.5" fill="#FFFFFF" width="8.1" height="4.1"/>
		<rect x="381.1" y="368.5" width="1" height="4.2"/>
		
			<rect x="381.1" y="368.5" fill="none" stroke="#000000" stroke-width="0.72" stroke-linecap="round" stroke-linejoin="round" width="1" height="4.2"/>
	</g>
	<g id="_x30_2-上针脚_20_">
		<line fill="none" stroke="#000000" stroke-width="0.6" stroke-linejoin="round" x1="494.9" y1="369.4" x2="494.9" y2="377.6"/>
		<path fill="#FFFFFF" d="M494.8,366.4c-1.7,0-3,1.4-3,3c0,1.8,1.4,3.2,3,3.2c1.8,0,3.2-1.4,3.2-3.2
			C498,367.8,496.6,366.4,494.8,366.4"/>
		<path d="M494.9,366.9c-1.4,0-2.5,1.2-2.5,2.5c0,1.6,1.1,2.7,2.5,2.7v1.2c-2,0-3.7-1.6-3.7-3.8c0-2.1,1.7-3.7,3.7-3.7V366.9z
			 M494.9,373.3c2.2,0,3.8-1.7,3.8-3.8s-1.6-3.7-3.8-3.7v1.1c1.6,0,2.7,1.2,2.7,2.5c0,1.6-1.2,2.7-2.7,2.7V373.3"/>
		<rect x="490.9" y="369.5" fill="#FFFFFF" width="8.1" height="4.1"/>
		<rect x="494.4" y="368.5" width="1" height="4.2"/>
		
			<rect x="494.4" y="368.5" fill="none" stroke="#000000" stroke-width="0.72" stroke-linecap="round" stroke-linejoin="round" width="1" height="4.2"/>
	</g>
	<g id="_x30_2-上针脚_19_">
		<line fill="none" stroke="#000000" stroke-width="0.6" stroke-linejoin="round" x1="438.3" y1="216.4" x2="438.3" y2="208.3"/>
		<path fill="#FFFFFF" d="M438.2,219.5c-1.7,0-3-1.4-3-3c0-1.8,1.4-3.2,3-3.2c1.8,0,3.2,1.4,3.2,3.2
			C441.4,218.1,440,219.5,438.2,219.5"/>
		<path d="M438.2,220.1c-2,0-3.7-1.6-3.7-3.7c0-2.2,1.7-3.8,3.7-3.8v1.2c-1.4,0-2.5,1.1-2.5,2.7c0,1.3,1.1,2.5,2.5,2.5V220.1z
			 M438.2,212.6v1.2c1.5,0,2.7,1.1,2.7,2.7c0,1.3-1.1,2.5-2.7,2.5v1.1c2.2,0,3.8-1.6,3.8-3.7C442,214.3,440.4,212.6,438.2,212.6"/>
		<rect x="434.2" y="212.3" fill="#FFFFFF" width="8.1" height="4.1"/>
		<rect x="437.8" y="213.1" width="1" height="4.2"/>
		
			<rect x="437.8" y="213.1" fill="none" stroke="#000000" stroke-width="0.72" stroke-linecap="round" stroke-linejoin="round" width="1" height="4.2"/>
	</g>
	<g id="_x30_2-上针脚_18_">
		<line fill="none" stroke="#000000" stroke-width="0.6" stroke-linejoin="round" x1="381.6" y1="216.4" x2="381.6" y2="208.3"/>
		<path fill="#FFFFFF" d="M381.5,219.5c-1.7,0-3-1.4-3-3c0-1.8,1.4-3.2,3-3.2c1.8,0,3.2,1.4,3.2,3.2
			C384.7,218.1,383.3,219.5,381.5,219.5"/>
		<path d="M381.5,220.1c-2,0-3.7-1.6-3.7-3.7c0-2.2,1.7-3.8,3.7-3.8v1.2c-1.4,0-2.5,1.1-2.5,2.7c0,1.3,1.1,2.5,2.5,2.5V220.1z
			 M381.5,212.6v1.2c1.5,0,2.7,1.1,2.7,2.7c0,1.3-1.1,2.5-2.7,2.5v1.1c2.2,0,3.8-1.6,3.8-3.7C385.3,214.3,383.7,212.6,381.5,212.6"
			/>
		<rect x="377.5" y="212.3" fill="#FFFFFF" width="8.1" height="4.1"/>
		<rect x="381.1" y="213.1" width="1" height="4.2"/>
		
			<rect x="381.1" y="213.1" fill="none" stroke="#000000" stroke-width="0.72" stroke-linecap="round" stroke-linejoin="round" width="1" height="4.2"/>
	</g>
	<g id="_x30_2-上针脚_17_">
		<line fill="none" stroke="#000000" stroke-width="0.6" stroke-linejoin="round" x1="494.9" y1="216.4" x2="494.9" y2="208.3"/>
		<path fill="#FFFFFF" d="M494.8,219.5c-1.7,0-3-1.4-3-3c0-1.8,1.4-3.2,3-3.2c1.8,0,3.2,1.4,3.2,3.2
			C498,218.1,496.6,219.5,494.8,219.5"/>
		<path d="M494.9,220.1c-2,0-3.7-1.6-3.7-3.7c0-2.2,1.7-3.8,3.7-3.8v1.2c-1.4,0-2.5,1.1-2.5,2.7c0,1.3,1.1,2.5,2.5,2.5V220.1z
			 M494.9,212.6v1.2c1.5,0,2.7,1.1,2.7,2.7c0,1.3-1.1,2.5-2.7,2.5v1.1c2.2,0,3.8-1.6,3.8-3.7C498.7,214.3,497.1,212.6,494.9,212.6"
			/>
		<rect x="490.9" y="212.3" fill="#FFFFFF" width="8.1" height="4.1"/>
		<rect x="494.4" y="213.1" width="1" height="4.2"/>
		
			<rect x="494.4" y="213.1" fill="none" stroke="#000000" stroke-width="0.72" stroke-linecap="round" stroke-linejoin="round" width="1" height="4.2"/>
	</g>
	<g>
		<g>
			<g>
				<g>
					<path fill="none" stroke="#000000" stroke-width="0.5" d="M92.8,174.4c-1.2,0-2.2,1-2.2,2.2c0,1.2,1,2.2,2.2,2.2
						c1.2,0,2.2-1,2.2-2.2C95,175.4,94,174.4,92.8,174.4"/>
				</g>
				<g>
					<path fill="none" stroke="#000000" stroke-width="0.5" d="M92.8,158.6c-1.2,0-2.2,1-2.2,2.1c0,1.2,1,2.2,2.2,2.2
						c1.2,0,2.2-0.9,2.2-2.2C95,159.6,94,158.6,92.8,158.6"/>
				</g>
				<g>
					<g>
						<path fill="none" stroke="#000000" stroke-width="0.5" d="M91.3,162.4c-0.1,2.5,0.2,3.2,1.3,4.3c1.2,1.2,2.4,1.6,2.8,3.6
							c0.4,1.6-0.1,3.5-1.1,4.5"/>
					</g>
					<g>
						<path fill="none" stroke="#000000" stroke-width="0.5" d="M94.2,174.9c0.2-0.8,0-2.9-0.6-3.7c-0.9-1.2-2.7-2.1-3.3-3.9
							c-0.9-2.8,0.7-4.6,1.1-4.9"/>
					</g>
				</g>
			</g>
			<g>
				<g>
					<polyline fill="none" stroke="#000000" stroke-width="0.5" stroke-linejoin="round" points="92.7,178.8 92.7,181.8 92.7,195.6 
											"/>
				</g>
			</g>
			<g>
				<g>
					<polyline fill="none" stroke="#000000" stroke-width="0.5" stroke-linejoin="round" points="92.7,158.6 92.7,154.6 92.7,47.9 
											"/>
				</g>
			</g>
		</g>
		<g>
			<path stroke="#FFFFFF" stroke-width="0.5" stroke-linecap="round" d="M89.9,48c0-1.7,1.3-2.9,2.8-2.9c1.6,0,2.9,1.2,2.9,2.9
				c0,1.5-1.3,2.7-2.9,2.7C91.2,50.7,89.9,49.5,89.9,48z"/>
			<g>
				<path fill="none" stroke="#FFFFFF" stroke-width="1.0001" d="M89.9,48c0-1.7,1.3-2.9,2.8-2.9c1.6,0,2.9,1.2,2.9,2.9
					c0,1.5-1.3,2.7-2.9,2.7C91.2,50.7,89.9,49.5,89.9,48"/>
			</g>
		</g>
	</g>
	<g id="_x30_2-上针脚_7_">
		<line fill="none" stroke="#000000" stroke-width="0.6" stroke-linejoin="round" x1="92.8" y1="411.5" x2="92.8" y2="403.3"/>
		<path fill="#FFFFFF" d="M92.7,414.6c-1.7,0-3-1.4-3-3c0-1.8,1.4-3.2,3-3.2c1.8,0,3.2,1.4,3.2,3.2
			C95.9,413.2,94.5,414.6,92.7,414.6"/>
		<path d="M92.7,415.2c-2,0-3.7-1.6-3.7-3.7c0-2.2,1.7-3.8,3.7-3.8v1.2c-1.4,0-2.5,1.1-2.5,2.7c0,1.3,1.1,2.5,2.5,2.5V415.2z
			 M92.7,407.7v1.2c1.5,0,2.7,1.1,2.7,2.7c0,1.3-1.1,2.5-2.7,2.5v1.1c2.2,0,3.8-1.6,3.8-3.7S94.9,407.7,92.7,407.7"/>
		<rect x="88.7" y="407.3" fill="#FFFFFF" width="8.1" height="4.1"/>
		<rect x="92.3" y="408.2" width="1" height="4.2"/>
		
			<rect x="92.3" y="408.2" fill="none" stroke="#000000" stroke-width="0.72" stroke-linecap="round" stroke-linejoin="round" width="1" height="4.2"/>
	</g>
	
		<line fill="none" stroke="#005EAD" stroke-width="3" stroke-linejoin="round" stroke-miterlimit="10" x1="92.7" y1="205.7" x2="92.7" y2="367.1"/>
	<line fill="none" stroke="#E60012" stroke-linejoin="round" stroke-miterlimit="10" x1="92.7" y1="205.7" x2="92.7" y2="367.1"/>
	<polyline stroke="#E60012" stroke-linejoin="round" stroke-miterlimit="10" points="181.7,205.7 181.7,367.1 181.7,316.1 	"/>
	<g id="_x30_2-上针脚_13_">
		<line fill="none" stroke="#000000" stroke-width="0.6" stroke-linejoin="round" x1="92.7" y1="203.9" x2="92.7" y2="195.7"/>
		<path fill="#FFFFFF" d="M92.6,207c-1.7,0-3-1.4-3-3c0-1.8,1.4-3.2,3-3.2c1.8,0,3.2,1.4,3.2,3.2C95.8,205.6,94.4,207,92.6,207"/>
		<path d="M92.7,207.6c-2,0-3.7-1.6-3.7-3.7c0-2.2,1.7-3.8,3.7-3.8v1.2c-1.4,0-2.5,1.1-2.5,2.7c0,1.3,1.1,2.5,2.5,2.5V207.6z
			 M92.7,200.1v1.2c1.5,0,2.7,1.1,2.7,2.7c0,1.3-1.1,2.5-2.7,2.5v1.1c2.2,0,3.8-1.6,3.8-3.7C96.5,201.8,94.9,200.1,92.7,200.1"/>
		<rect x="88.7" y="199.7" fill="#FFFFFF" width="8.1" height="4.1"/>
		<rect x="92.2" y="200.6" width="1" height="4.2"/>
		
			<rect x="92.2" y="200.6" fill="none" stroke="#000000" stroke-width="0.72" stroke-linecap="round" stroke-linejoin="round" width="1" height="4.2"/>
	</g>
	<g id="_x30_2-上针脚_12_">
		<line fill="none" stroke="#000000" stroke-width="0.6" stroke-linejoin="round" x1="92.8" y1="369.2" x2="92.8" y2="377.4"/>
		<path fill="#FFFFFF" d="M92.7,366.1c-1.7,0-3,1.4-3,3c0,1.8,1.4,3.2,3,3.2c1.8,0,3.2-1.4,3.2-3.2
			C95.9,367.5,94.5,366.1,92.7,366.1"/>
		<path d="M92.7,366.6c-1.4,0-2.5,1.2-2.5,2.5c0,1.6,1.1,2.7,2.5,2.7v1.2c-2,0-3.7-1.6-3.7-3.8c0-2.1,1.7-3.7,3.7-3.7V366.6z
			 M92.7,373c2.2,0,3.8-1.7,3.8-3.8s-1.6-3.7-3.8-3.7v1.1c1.6,0,2.7,1.2,2.7,2.5c0,1.6-1.2,2.7-2.7,2.7V373"/>
		<rect x="88.7" y="369.3" fill="#FFFFFF" width="8.1" height="4.1"/>
		<rect x="92.3" y="368.3" width="1" height="4.2"/>
		
			<rect x="92.3" y="368.3" fill="none" stroke="#000000" stroke-width="0.72" stroke-linecap="round" stroke-linejoin="round" width="1" height="4.2"/>
	</g>
	<g id="_x30_2-上针脚_11_">
		<line fill="none" stroke="#000000" stroke-width="0.6" stroke-linejoin="round" x1="267.9" y1="369.2" x2="267.9" y2="377.4"/>
		<path fill="#FFFFFF" d="M267.8,366.1c-1.7,0-3,1.4-3,3c0,1.8,1.4,3.2,3,3.2c1.8,0,3.2-1.4,3.2-3.2
			C271,367.5,269.6,366.1,267.8,366.1"/>
		<path d="M267.8,366.6c-1.4,0-2.5,1.2-2.5,2.5c0,1.6,1.1,2.7,2.5,2.7v1.2c-2,0-3.7-1.6-3.7-3.8c0-2.1,1.7-3.7,3.7-3.7V366.6z
			 M267.8,373c2.2,0,3.8-1.7,3.8-3.8s-1.6-3.7-3.8-3.7v1.1c1.6,0,2.7,1.2,2.7,2.5c0,1.6-1.2,2.7-2.7,2.7V373"/>
		<rect x="263.8" y="369.3" fill="#FFFFFF" width="8.1" height="4.1"/>
		<rect x="267.4" y="368.3" width="1" height="4.2"/>
		
			<rect x="267.4" y="368.3" fill="none" stroke="#000000" stroke-width="0.72" stroke-linecap="round" stroke-linejoin="round" width="1" height="4.2"/>
	</g>
	<g>
		<circle stroke="#FFFFFF" stroke-width="0.5" cx="93" cy="272.4" r="2.6"/>
	</g>
	<g>
		<g>
			<line fill="none" stroke="#000000" stroke-width="1.3" x1="85.8" y1="787" x2="99.7" y2="787"/>
		</g>
		<g>
			<line fill="none" stroke="#000000" stroke-width="1.3" x1="88.7" y1="789.2" x2="96.8" y2="789.2"/>
		</g>
		<g>
			<line fill="none" stroke="#000000" stroke-width="1.3" x1="95.2" y1="791.3" x2="90.3" y2="791.3"/>
		</g>
	</g>
	<g>
		<rect x="82.6" y="793.8" fill="#FFFFFF" width="20.3" height="8.2"/>
		
			<rect x="83" y="794.2" fill="#FFFFFF" stroke="#060001" stroke-width="0.25" stroke-linecap="round" stroke-linejoin="round" width="19.7" height="7.6"/>
	</g>
	<g>
		<text transform="matrix(1 0 0 1 377.6846 206.5309)" font-family="'FZLTHJW--GB1-0'" font-size="4px">Power supply</text>
	</g>
	<g>
		<text transform="matrix(1 0 0 1 434.2656 206.5308)" font-family="'FZLTHJW--GB1-0'" font-size="4px">Ground</text>
	</g>
	<g>
		<text transform="matrix(1 0 0 1 486.9752 206.5308)" font-family="'FZLTHJW--GB1-0'" font-size="4px">Video signal</text>
	</g>
	<g>
		<text transform="matrix(1 0 0 1 377.6846 383.0699)" font-family="'FZLTHJW--GB1-0'" font-size="4px">12V</text>
	</g>
	<g>
		<text transform="matrix(1 0 0 1 434.2656 383.0699)" font-family="'FZLTHJW--GB1-0'" font-size="4px">Ground</text>
	</g>
	<rect x="424.2" y="290.5" fill="#FFFFFF" width="28.1" height="7.1"/>
	<g>
		<text transform="matrix(1 0 0 1 428.8572 295.8845)" font-family="'FZLTHJW--GB1-0'" font-size="6px">ZY 1.0</text>
	</g>
	<rect x="480.9" y="290.5" fill="#FFFFFF" width="28.1" height="7.1"/>
	<g>
		<text transform="matrix(1 0 0 1 485.3774 295.8845)" font-family="'FZLTHJW--GB1-0'" font-size="6px">ZY 1.0</text>
	</g>
	<rect x="367.5" y="290.5" fill="#FFFFFF" width="28.1" height="7.1"/>
	<g>
		<text transform="matrix(1 0 0 1 371.3769 295.8845)" font-family="'FZLTHJW--GB1-0'" font-size="6px">ZY 1.0</text>
	</g>
	<rect x="78.7" y="221.1" fill="#FFFFFF" width="28.1" height="7.1"/>
	<g>
		<text transform="matrix(1 0 0 1 80.9708 226.459)" font-family="'FZLTHJW--GB1-0'" font-size="6px">L/R 0.35</text>
	</g>
	<rect x="78.7" y="344.6" fill="#FFFFFF" width="28.1" height="7.1"/>
	<g>
		<text transform="matrix(1 0 0 1 80.9708 349.959)" font-family="'FZLTHJW--GB1-0'" font-size="6px">L/R 0.35</text>
	</g>
	<rect x="78.7" y="426.6" fill="#FFFFFF" width="28.1" height="7.1"/>
	<g>
		<text transform="matrix(1 0 0 1 85.1465 432.2012)" font-family="'FZLTHJW--GB1-0'" font-size="6px">B 0.5</text>
	</g>
	<rect x="78.7" y="426.6" fill="#FFFFFF" width="28.1" height="7.1"/>
	<g>
		<text transform="matrix(1 0 0 1 85.1465 432.2012)" font-family="'FZLTHJW--GB1-0'" font-size="6px">B 0.5</text>
	</g>
	<rect x="78.7" y="426.6" fill="#FFFFFF" width="28.1" height="7.1"/>
	<g>
		<text transform="matrix(1 0 0 1 85.1465 432.2012)" font-family="'FZLTHJW--GB1-0'" font-size="6px">B 0.5</text>
	</g>
	<rect x="78.7" y="426.6" fill="#FFFFFF" width="28.1" height="7.1"/>
	<g>
		<text transform="matrix(1 0 0 1 85.1465 432.2012)" font-family="'FZLTHJW--GB1-0'" font-size="6px">B 0.35</text>
	</g>
	<rect x="78.7" y="693.1" fill="#FFFFFF" width="28.1" height="7.1"/>
	<g>
		<text transform="matrix(1 0 0 1 85.1464 698.7068)" font-family="'FZLTHJW--GB1-0'" font-size="6px">B 0.5</text>
	</g>
	<rect x="78.7" y="693.1" fill="#FFFFFF" width="28.1" height="7.1"/>
	<g>
		<text transform="matrix(1 0 0 1 85.123 698.7068)" font-family="'FZLTHJW--GB1-0'" font-size="6px">B 0.75</text>
	</g>
	<g>
		<circle stroke="#FFFFFF" stroke-width="0.5" cx="93" cy="597.9" r="2.6"/>
	</g>
	<g>
		<rect x="98.1" y="259.9" fill="#FFFFFF" stroke="#060001" stroke-width="0.25" width="24.3" height="6.9"/>
		<text transform="matrix(1 0 0 1 98.5734 265.2415)" font-family="'FZLTHJW--GB1-0'" font-size="6px">SP4096</text>
	</g>
	<g>
		<rect x="186.9" y="303.6" fill="#FFFFFF" stroke="#060001" stroke-width="0.25" width="24.3" height="6.9"/>
		<text transform="matrix(1 0 0 1 187.3065 308.9082)" font-family="'FZLTHJW--GB1-0'" font-size="6px">SP3099</text>
	</g>
	<g>
		<rect x="98.1" y="603.4" fill="#FFFFFF" stroke="#060001" stroke-width="0.25" width="24.3" height="6.9"/>
		<text transform="matrix(1 0 0 1 98.5734 608.7365)" font-family="'FZLTHJW--GB1-0'" font-size="6px">SP2775</text>
	</g>
	<g>
		<text transform="matrix(1 0 0 1 99.7371 174.9011)" font-family="'FZLTHJW--GB1-0'" font-size="6px">5A</text>
	</g>
	<g>
		<text transform="matrix(1 0 0 1 79.7253 381.7513)" font-family="'FZLTHJW--GB1-0'" font-size="4px">Constant power</text>
	</g>
	<path fill="none" stroke="#000000" stroke-width="0.5" stroke-miterlimit="10" d="M439.5,232.5c3,0,5.5,2.2,5.5,4.8
		c0,2.6-2.4,4.7-5.4,4.8l-62-9.6c-3,0.1-5.4,2.2-5.4,4.8c0,2.7,2.5,4.8,5.5,4.8L439.5,232.5z"/>
	<path fill="none" stroke="#000000" stroke-width="0.5" stroke-miterlimit="10" d="M439.5,331.4c3,0,5.5,2.2,5.5,4.8
		c0,2.6-2.4,4.7-5.4,4.8l-62-9.6c-3,0.1-5.4,2.2-5.4,4.8c0,2.7,2.5,4.8,5.5,4.8L439.5,331.4z"/>
	<g>
		<circle stroke="#FFFFFF" stroke-width="0.5" cx="181.7" cy="316.1" r="2.6"/>
	</g>
	<text transform="matrix(1 0 0 1 490.9248 383.7026)" font-family="'FZLTHJW--GB1-0'" font-size="4px">signal</text>
	<g>
		<text transform="matrix(1 0 0 1 85.0641 401.2834)" font-family="'FZLTHJW--GB1-0'" font-size="4px">Ground</text>
	</g>
</g>
<g id="图层_2">
	<g>
		<path fill="#FFFFFF" stroke="#000000" stroke-width="0.5" stroke-miterlimit="10" d="M268.1,581c-0.8,0-1.5-0.7-1.5-1.7V415.3
			c0-0.9,0.7-1.7,1.5-1.7s1.5,0.7,1.5,1.7v164.1C269.6,580.3,268.9,581,268.1,581z"/>
	</g>
	
		<line fill="none" stroke="#009944" stroke-width="3" stroke-linecap="round" stroke-linejoin="round" stroke-miterlimit="10" x1="324.8" y1="414.6" x2="324.8" y2="578.3"/>
	<path fill="none" stroke="#000000" stroke-linecap="round" stroke-linejoin="round" d="M329.6,582.6l-0.6,2.1c0,0-0.6,2.5-3.3,2.6
		h-27.5l0,0l-2,2.7l-1.9-2.7c-9.2,0-27.3,0-27.3,0c-2.7-0.1-3.3-2.6-3.3-2.6l-0.6-2.1"/>
	<path fill="none" stroke="#000000" stroke-width="0.5" stroke-miterlimit="10" d="M327.3,433.7c3,0,5.5,2.2,5.5,4.8
		s-2.4,4.7-5.4,4.8l-62-9.6c-3,0.1-5.4,2.2-5.4,4.8c0,2.7,2.5,4.8,5.5,4.8L327.3,433.7z"/>
	<path fill="none" stroke="#000000" stroke-width="0.5" stroke-miterlimit="10" d="M327.3,554.4c3,0,5.5,2.2,5.5,4.8
		s-2.4,4.7-5.4,4.8l-62-9.6c-3,0.1-5.4,2.2-5.4,4.8c0,2.7,2.5,4.8,5.5,4.8L327.3,554.4z"/>
	<g>
		<rect x="260.8" y="496.4" fill="#FFFFFF" width="12.1" height="6"/>
		<g>
			<text transform="matrix(1 0 0 1 258.6432 501.3755)" font-family="'FZLTHJW--GB1-0'" font-size="6px">W 0.35</text>
		</g>
		<g>
			<text transform="matrix(1 0 0 1 270.8099 486.0421)" font-family="'FZLTHJW--GB1-0'" font-size="6px">*ETH</text>
		</g>
		<g>
			<text transform="matrix(1 0 0 1 327.9766 486.0424)" font-family="'FZLTHJW--GB1-0'" font-size="6px">*ETH</text>
		</g>
	</g>
	<g>
		<rect x="315.3" y="496.4" fill="#FFFFFF" width="13.5" height="6"/>
		<g>
			<text transform="matrix(1 0 0 1 315.3016 501.3761)" font-family="'FZLTHJW--GB1-0'" font-size="6px">G 0.35</text>
		</g>
	</g>
	<text transform="matrix(1 0 0 1 276.4873 599.1681)" enable-background="new    "><tspan x="0" y="0" font-family="'FZLTHJW--GB1-0'" font-size="6px">See  Dilink4.0 Host</tspan><tspan x="0" y="7.2" font-family="'FZLTHJW--GB1-0'" font-size="6px">Circuit Diagram</tspan></text>
	<g>
		<g>
			<text transform="matrix(1 0 0 1 85.0643 799.7279)" fill="#005EAD" font-family="'FZLTHJW--GB1-0'" font-size="6px">Eg01</text>
		</g>
	</g>
	<g>
		<g>
			<text transform="matrix(1 0 0 1 99.7371 167.6167)" fill="#005EAD" font-family="'FZLTHJW--GB1-0'" font-size="6px">F1/05</text>
		</g>
	</g>
	<g>
		<g>
			<text transform="matrix(1 0 0 1 25.0148 133.4113)" enable-background="new    "><tspan x="0" y="0" fill="#005EAD" font-family="'FZLTHJW--GB1-0'" font-size="6px"> Front Compartment </tspan><tspan x="0" y="7.2" fill="#005EAD" font-family="'FZLTHJW--GB1-0'" font-size="6px">Distribution Box</tspan></text>
		</g>
	</g>
	<g>
		<text transform="matrix(1 0 0 1 99.7373 203.816)" fill="#005EAD" font-family="'FZLTHJW--GB1-0'" font-size="6px">G82</text>
	</g>
	<g>
		<text transform="matrix(1 0 0 1 111.5186 203.816)" fill="#005EAD" font-family="'FZLTHJW--GB1-0'" font-size="6px">-6</text>
	</g>
	<g>
		<text transform="matrix(1 0 0 1 430.2637 197.1764)" fill="#005EAD" font-family="'FZLTHJW--GB1-0'" font-size="6px">Multimedia  Host</text>
	</g>
	<g>
		<g>
			
				<rect x="356.1" y="562.3" fill="#9DD2EE" stroke="#000000" stroke-width="0.5" stroke-linecap="round" stroke-miterlimit="10" width="52" height="25.9"/>
		</g>
		<g>
			<text transform="matrix(1 0 0 1 369.3867 577.0475)" fill="#005EAD" font-family="'FZLTHJW--GB1-0'" font-size="6px">USB Port</text>
		</g>
	</g>
	<g>
		<text transform="matrix(1 0 0 1 335.7109 392.1442)" fill="#005EAD" font-family="'FZLTHJW--GB1-0'" font-size="6px">Instrument Cluster</text>
	</g>
	<g>
		<text transform="matrix(1 0 0 1 443.6338 375.277)" fill="#005EAD" font-family="'FZLTHJW--GB1-0'" font-size="6px">G01(E)</text>
	</g>
	<g>
		<text transform="matrix(1 0 0 1 464.6338 375.277)" fill="#005EAD" font-family="'FZLTHJW--GB1-0'" font-size="6px">-2</text>
	</g>
	<g>
		<text transform="matrix(1 0 0 1 387.5742 375.277)" fill="#005EAD" font-family="'FZLTHJW--GB1-0'" font-size="6px">G01(E)</text>
	</g>
	<g>
		<text transform="matrix(1 0 0 1 408.5742 375.277)" fill="#005EAD" font-family="'FZLTHJW--GB1-0'" font-size="6px">-1</text>
	</g>
	<g>
		<text transform="matrix(1 0 0 1 443.6338 215.8571)" fill="#005EAD" font-family="'FZLTHJW--GB1-0'" font-size="6px">G07(T)</text>
	</g>
	<g>
		<text transform="matrix(1 0 0 1 464.0088 215.8571)" fill="#005EAD" font-family="'FZLTHJW--GB1-0'" font-size="6px">-2</text>
	</g>
	<g>
		<text transform="matrix(1 0 0 1 387.5742 215.8571)" fill="#005EAD" font-family="'FZLTHJW--GB1-0'" font-size="6px">G07(T)</text>
	</g>
	<g>
		<text transform="matrix(1 0 0 1 407.9492 215.8571)" fill="#005EAD" font-family="'FZLTHJW--GB1-0'" font-size="6px">-1</text>
	</g>
	<g id="_x30_2-上针脚_4_">
		<line fill="none" stroke="#000000" stroke-width="0.6" stroke-linejoin="round" x1="324.9" y1="369.2" x2="324.9" y2="377.4"/>
		<path fill="#FFFFFF" d="M324.8,366.1c-1.7,0-3,1.4-3,3c0,1.8,1.4,3.2,3,3.2c1.8,0,3.2-1.4,3.2-3.2
			C328,367.5,326.6,366.1,324.8,366.1"/>
		<path d="M324.8,366.6c-1.4,0-2.5,1.2-2.5,2.5c0,1.6,1.1,2.7,2.5,2.7v1.2c-2,0-3.7-1.6-3.7-3.8c0-2.1,1.7-3.7,3.7-3.7V366.6z
			 M324.8,373c2.2,0,3.8-1.7,3.8-3.8s-1.6-3.7-3.8-3.7v1.1c1.6,0,2.7,1.2,2.7,2.5c0,1.6-1.2,2.7-2.7,2.7V373"/>
		<rect x="320.8" y="369.3" fill="#FFFFFF" width="8.1" height="4.1"/>
		<rect x="324.4" y="368.3" width="1" height="4.2"/>
		
			<rect x="324.4" y="368.3" fill="none" stroke="#000000" stroke-width="0.72" stroke-linecap="round" stroke-linejoin="round" width="1" height="4.2"/>
	</g>
	<g>
		<text transform="matrix(1 0 0 1 98.6758 375.0739)" fill="#005EAD" font-family="'FZLTHJW--GB1-0'" font-size="6px">G01</text>
	</g>
	<g>
		<text transform="matrix(1 0 0 1 111.3423 375.0739)" fill="#005EAD" font-family="'FZLTHJW--GB1-0'" font-size="6px">-39</text>
	</g>
	<g id="REB_x2C_A3_1_">
		<rect x="158.5" y="144.4" fill="#CCCCCC" stroke="#000000" stroke-width="0.5" stroke-miterlimit="10" width="51" height="51.3"/>
	</g>
	<g>
		<g>
			<g>
				<g>
					<path fill="none" stroke="#000000" stroke-width="0.5" d="M181.7,174.4c-1.2,0-2.2,1-2.2,2.2c0,1.2,1,2.2,2.2,2.2
						c1.2,0,2.2-1,2.2-2.2C184,175.4,183,174.4,181.7,174.4"/>
				</g>
				<g>
					<path fill="none" stroke="#000000" stroke-width="0.5" d="M181.7,158.6c-1.2,0-2.2,1-2.2,2.1c0,1.2,1,2.2,2.2,2.2
						c1.2,0,2.2-0.9,2.2-2.2C184,159.6,183,158.6,181.7,158.6"/>
				</g>
				<g>
					<g>
						<path fill="none" stroke="#000000" stroke-width="0.5" d="M180.3,162.4c-0.1,2.5,0.2,3.2,1.3,4.3c1.2,1.2,2.4,1.6,2.8,3.6
							c0.4,1.6-0.1,3.5-1.1,4.5"/>
					</g>
					<g>
						<path fill="none" stroke="#000000" stroke-width="0.5" d="M183.2,174.9c0.2-0.8,0-2.9-0.6-3.7c-0.9-1.2-2.7-2.1-3.3-3.9
							c-0.9-2.8,0.7-4.6,1.1-4.9"/>
					</g>
				</g>
			</g>
			<g>
				<g>
					<polyline fill="none" stroke="#000000" stroke-width="0.5" stroke-linejoin="round" points="181.7,178.8 181.7,181.8 
						181.7,195.6 					"/>
				</g>
			</g>
			<g>
				<g>
					<polyline fill="none" stroke="#000000" stroke-width="0.5" stroke-linejoin="round" points="181.7,158.6 181.7,154.6 
						181.7,57.9 					"/>
				</g>
			</g>
		</g>
		<g>
			<path stroke="#FFFFFF" stroke-width="0.5" stroke-linecap="round" d="M178.8,58c0-1.7,1.3-2.9,2.8-2.9c1.6,0,2.9,1.2,2.9,2.9
				c0,1.5-1.3,2.7-2.9,2.7C180.1,60.7,178.8,59.5,178.8,58z"/>
			<g>
				<path fill="none" stroke="#FFFFFF" stroke-width="1.0001" d="M178.8,58c0-1.7,1.3-2.9,2.8-2.9c1.6,0,2.9,1.2,2.9,2.9
					c0,1.5-1.3,2.7-2.9,2.7C180.1,60.7,178.8,59.5,178.8,58"/>
			</g>
		</g>
	</g>
	<g id="_x30_2-上针脚_2_">
		<line fill="none" stroke="#000000" stroke-width="0.6" stroke-linejoin="round" x1="181.6" y1="203.9" x2="181.6" y2="195.7"/>
		<path fill="#FFFFFF" d="M181.5,207c-1.7,0-3-1.4-3-3c0-1.8,1.4-3.2,3-3.2c1.8,0,3.2,1.4,3.2,3.2C184.7,205.6,183.3,207,181.5,207"
			/>
		<path d="M181.6,207.6c-2,0-3.7-1.6-3.7-3.7c0-2.2,1.7-3.8,3.7-3.8v1.2c-1.4,0-2.5,1.1-2.5,2.7c0,1.3,1.1,2.5,2.5,2.5V207.6z
			 M181.6,200.1v1.2c1.5,0,2.7,1.1,2.7,2.7c0,1.3-1.1,2.5-2.7,2.5v1.1c2.2,0,3.8-1.6,3.8-3.7C185.4,201.8,183.8,200.1,181.6,200.1"
			/>
		<rect x="177.6" y="199.7" fill="#FFFFFF" width="8.1" height="4.1"/>
		<rect x="181.1" y="200.6" width="1" height="4.2"/>
		
			<rect x="181.1" y="200.6" fill="none" stroke="#000000" stroke-width="0.72" stroke-linecap="round" stroke-linejoin="round" width="1" height="4.2"/>
	</g>
	<g id="_x30_2-上针脚_1_">
		<line fill="none" stroke="#000000" stroke-width="0.6" stroke-linejoin="round" x1="181.7" y1="369.2" x2="181.7" y2="377.4"/>
		<path fill="#FFFFFF" d="M181.6,366.1c-1.7,0-3,1.4-3,3c0,1.8,1.4,3.2,3,3.2c1.8,0,3.2-1.4,3.2-3.2
			C184.8,367.5,183.4,366.1,181.6,366.1"/>
		<path d="M181.6,366.6c-1.4,0-2.5,1.2-2.5,2.5c0,1.6,1.1,2.7,2.5,2.7v1.2c-2,0-3.7-1.6-3.7-3.8c0-2.1,1.7-3.7,3.7-3.7V366.6z
			 M181.6,373c2.2,0,3.8-1.7,3.8-3.8s-1.6-3.7-3.8-3.7v1.1c1.6,0,2.7,1.2,2.7,2.5c0,1.6-1.2,2.7-2.7,2.7V373"/>
		<rect x="177.6" y="369.3" fill="#FFFFFF" width="8.1" height="4.1"/>
		<rect x="181.2" y="368.3" width="1" height="4.2"/>
		
			<rect x="181.2" y="368.3" fill="none" stroke="#000000" stroke-width="0.72" stroke-linecap="round" stroke-linejoin="round" width="1" height="4.2"/>
	</g>
	<rect x="167.6" y="221.1" fill="#FFFFFF" width="28.1" height="7.1"/>
	<g>
		<text transform="matrix(1 0 0 1 167.9212 226.459)" font-family="'FZLTHJW--GB1-0'" font-size="6px">W/R 0.35</text>
	</g>
	<rect x="167.6" y="344.6" fill="#FFFFFF" width="28.1" height="7.1"/>
	<g>
		<text transform="matrix(1 0 0 1 167.9212 349.959)" font-family="'FZLTHJW--GB1-0'" font-size="6px">Gr/R 0.35</text>
	</g>
	<g>
		<text transform="matrix(1 0 0 1 188.6876 174.9011)" font-family="'FZLTHJW--GB1-0'" font-size="6px">5A</text>
	</g>
	<g>
		<text transform="matrix(1 0 0 1 175.6757 381.7513)" font-family="'FZLTHJW--GB1-0'" font-size="4px">IG1 Power supply</text>
	</g>
	<g>
		<g>
			<text transform="matrix(1 0 0 1 188.6876 167.6167)" fill="#005EAD" font-family="'FZLTHJW--GB1-0'" font-size="6px">F2/40</text>
		</g>
	</g>
	<g>
		<g>
			<text transform="matrix(1 0 0 1 190.3962 139.8325)" fill="#005EAD" font-family="'FZLTHJW--GB1-0'" font-size="6px">Instrument Distribution Box</text>
		</g>
	</g>
	<g>
		<text transform="matrix(1 0 0 1 188.6875 203.816)" fill="#005EAD" font-family="'FZLTHJW--GB1-0'" font-size="6px">BIC</text>
	</g>
	<g>
		<text transform="matrix(1 0 0 1 200.4688 203.816)" fill="#005EAD" font-family="'FZLTHJW--GB1-0'" font-size="6px">-8</text>
	</g>
	<g>
		<text transform="matrix(1 0 0 1 187.626 375.0739)" fill="#005EAD" font-family="'FZLTHJW--GB1-0'" font-size="6px">G01</text>
	</g>
	<g>
		<text transform="matrix(1 0 0 1 200.2925 375.0739)" fill="#005EAD" font-family="'FZLTHJW--GB1-0'" font-size="6px">-38</text>
	</g>
	<g>
		<text transform="matrix(1 0 0 1 272.8237 375.0739)" fill="#005EAD" font-family="'FZLTHJW--GB1-0'" font-size="6px">G01</text>
	</g>
	<g>
		<text transform="matrix(1 0 0 1 285.4902 375.0739)" fill="#005EAD" font-family="'FZLTHJW--GB1-0'" font-size="6px">-4</text>
	</g>
	<g>
		<text transform="matrix(1 0 0 1 330.626 375.0739)" fill="#005EAD" font-family="'FZLTHJW--GB1-0'" font-size="6px">G01</text>
	</g>
	<g>
		<text transform="matrix(1 0 0 1 343.2925 375.0739)" fill="#005EAD" font-family="'FZLTHJW--GB1-0'" font-size="6px">-5</text>
	</g>
	<g>
		<text transform="matrix(1 0 0 1 98.6758 410.7155)" fill="#005EAD" font-family="'FZLTHJW--GB1-0'" font-size="6px">G01</text>
	</g>
	<g>
		<text transform="matrix(1 0 0 1 112.3008 410.7155)" fill="#005EAD" font-family="'FZLTHJW--GB1-0'" font-size="6px">-11</text>
	</g>
	<g>
		<text transform="matrix(1 0 0 1 260.8938 401.389)" font-family="'FZLTHJW--GB1-0'" font-size="4px">Internet low</text>
	</g>
	<g>
		<text transform="matrix(1 0 0 1 274.0181 410.7155)" fill="#005EAD" font-family="'FZLTHJW--GB1-0'" font-size="6px">G01(C)</text>
	</g>
	<g>
		<text transform="matrix(1 0 0 1 296.6431 410.7155)" fill="#005EAD" font-family="'FZLTHJW--GB1-0'" font-size="6px">-2</text>
	</g>
	<g id="_x30_2-上针脚_5_">
		<line fill="none" stroke="#000000" stroke-width="0.6" stroke-linejoin="round" x1="324.6" y1="411.5" x2="324.6" y2="403.3"/>
		<path fill="#FFFFFF" d="M324.5,414.6c-1.7,0-3-1.4-3-3c0-1.8,1.4-3.2,3-3.2c1.8,0,3.2,1.4,3.2,3.2
			C327.7,413.2,326.3,414.6,324.5,414.6"/>
		<path d="M324.5,415.2c-2,0-3.7-1.6-3.7-3.7c0-2.2,1.7-3.8,3.7-3.8v1.2c-1.4,0-2.5,1.1-2.5,2.7c0,1.3,1.1,2.5,2.5,2.5V415.2z
			 M324.5,407.7v1.2c1.5,0,2.7,1.1,2.7,2.7c0,1.3-1.1,2.5-2.7,2.5v1.1c2.2,0,3.8-1.6,3.8-3.7S326.7,407.7,324.5,407.7"/>
		<rect x="320.5" y="407.3" fill="#FFFFFF" width="8.1" height="4.1"/>
		<rect x="324.1" y="408.2" width="1" height="4.2"/>
		
			<rect x="324.1" y="408.2" fill="none" stroke="#000000" stroke-width="0.72" stroke-linecap="round" stroke-linejoin="round" width="1" height="4.2"/>
	</g>
	<g>
		<text transform="matrix(1 0 0 1 499.8833 375.277)" fill="#005EAD" font-family="'FZLTHJW--GB1-0'" font-size="6px">G01(E)</text>
	</g>
	<g>
		<text transform="matrix(1 0 0 1 520.8833 375.277)" fill="#005EAD" font-family="'FZLTHJW--GB1-0'" font-size="6px">-3</text>
	</g>
	<g>
		<text transform="matrix(1 0 0 1 499.8838 215.8571)" fill="#005EAD" font-family="'FZLTHJW--GB1-0'" font-size="6px">G07(T)</text>
	</g>
	<g>
		<text transform="matrix(1 0 0 1 520.2588 215.8571)" fill="#005EAD" font-family="'FZLTHJW--GB1-0'" font-size="6px">-3</text>
	</g>
	
		<line fill="none" stroke="#000000" stroke-width="3" stroke-linejoin="round" stroke-miterlimit="10" x1="382.2" y1="412" x2="382.2" y2="551.6"/>
	<g id="_x30_2-上针脚_15_">
		<line fill="none" stroke="#000000" stroke-width="0.6" stroke-linejoin="round" x1="382.2" y1="554.2" x2="382.2" y2="562.4"/>
		<path fill="#FFFFFF" d="M382.1,551.1c-1.7,0-3,1.4-3,3c0,1.8,1.4,3.2,3,3.2c1.8,0,3.2-1.4,3.2-3.2
			C385.3,552.5,383.9,551.1,382.1,551.1"/>
		<path d="M382.1,551.6c-1.4,0-2.5,1.2-2.5,2.5c0,1.6,1.1,2.7,2.5,2.7v1.2c-2,0-3.7-1.6-3.7-3.8c0-2.1,1.7-3.7,3.7-3.7V551.6z
			 M382.1,558c2.2,0,3.8-1.7,3.8-3.8s-1.6-3.7-3.8-3.7v1.1c1.6,0,2.7,1.2,2.7,2.5c0,1.6-1.2,2.7-2.7,2.7V558"/>
		<rect x="378.1" y="554.3" fill="#FFFFFF" width="8.1" height="4.1"/>
		<rect x="381.7" y="553.3" width="1" height="4.2"/>
		
			<rect x="381.7" y="553.3" fill="none" stroke="#000000" stroke-width="0.72" stroke-linecap="round" stroke-linejoin="round" width="1" height="4.2"/>
	</g>
	<g id="_x30_2-上针脚_9_">
		<line fill="none" stroke="#000000" stroke-width="0.6" stroke-linejoin="round" x1="382.2" y1="411.2" x2="382.2" y2="403"/>
		<path fill="#FFFFFF" d="M382.1,414.3c-1.7,0-3-1.4-3-3c0-1.8,1.4-3.2,3-3.2c1.8,0,3.2,1.4,3.2,3.2
			C385.3,412.9,383.9,414.3,382.1,414.3"/>
		<path d="M382.1,414.9c-2,0-3.7-1.6-3.7-3.7c0-2.2,1.7-3.8,3.7-3.8v1.2c-1.4,0-2.5,1.1-2.5,2.7c0,1.3,1.1,2.5,2.5,2.5V414.9z
			 M382.1,407.4v1.2c1.5,0,2.7,1.1,2.7,2.7c0,1.3-1.1,2.5-2.7,2.5v1.1c2.2,0,3.8-1.6,3.8-3.7S384.3,407.4,382.1,407.4"/>
		<rect x="378.1" y="407" fill="#FFFFFF" width="8.1" height="4.1"/>
		<rect x="381.7" y="407.9" width="1" height="4.2"/>
		
			<rect x="381.7" y="407.9" fill="none" stroke="#000000" stroke-width="0.72" stroke-linecap="round" stroke-linejoin="round" width="1" height="4.2"/>
	</g>
	<g>
		<text transform="matrix(1 0 0 1 387.4834 560.0358)" fill="#005EAD" font-family="'FZLTHJW--GB1-0'" font-size="6px">G157</text>
	</g>
	<g>
		<text transform="matrix(1 0 0 1 387.4834 410.6154)" fill="#005EAD" font-family="'FZLTHJW--GB1-0'" font-size="6px">G149</text>
	</g>
	<g>
		<rect x="177.5" y="247" fill="#FFFFFF" width="8.5" height="18.8"/>
		<g>
			<g>
				
					<line fill="none" stroke="#040000" stroke-width="0.6001" stroke-linecap="round" stroke-linejoin="round" x1="181.9" y1="255.7" x2="181.9" y2="247.5"/>
			</g>
			<g>
				
					<line fill="none" stroke="#040000" stroke-width="0.6001" stroke-linecap="round" x1="181.8" y1="258.9" x2="181.8" y2="265.4"/>
			</g>
			<g>
				<g>
					<g>
						<path fill="#FFFFFF" d="M181.8,258.8c1.7,0,3.2-1.4,3.2-3.2c0-1.8-1.5-3.2-3.2-3.2c-1.8,0-3.2,1.4-3.2,3.2
							C178.6,257.4,180,258.8,181.8,258.8z"/>
						<path fill="#040000" d="M181.8,259.4c-2.2,0-3.8-1.8-3.8-3.8h1.1c0,1.4,1.1,2.5,2.7,2.5c1.4,0,2.5-1.1,2.5-2.5h1.1
							C185.5,257.6,183.8,259.4,181.8,259.4L181.8,259.4z M181.8,251.8c-2.2,0-3.8,1.7-3.8,3.8h1.1c0-1.4,1.1-2.5,2.7-2.5
							c1.4,0,2.5,1.1,2.5,2.5h1.1C185.5,253.5,183.8,251.8,181.8,251.8z"/>
					</g>
					<rect x="177.5" y="251.4" fill="#FFFFFF" width="8.5" height="4.1"/>
					<rect x="181.4" y="252.3" fill="#040000" width="1" height="4.2"/>
					
						<rect x="181.4" y="252.3" fill="none" stroke="#040000" stroke-width="0.72" stroke-linecap="round" stroke-linejoin="round" width="1" height="4.2"/>
				</g>
			</g>
		</g>
	</g>
	<g>
		<text transform="matrix(1 0 0 1 190.3961 251.7672)" fill="#065AA1" font-family="'FZLTHJW--GB1-0'" font-size="6px">BJG01</text>
	</g>
	<g>
		<text transform="matrix(1 0 0 1 190.3961 258.9674)" fill="#065AA1" font-family="'FZLTHJW--GB1-0'" font-size="6px">GJB01</text>
	</g>
	<g>
		<text transform="matrix(1 0 0 1 190.3961 266.1676)" fill="#065AA1" font-family="'FZLTHJW--GB1-0'" font-size="6px">-1</text>
	</g>
	<g>
		<text transform="matrix(1 0 0 1 261.2992 381.7513)" font-family="'FZLTHJW--GB1-0'" font-size="4px">CAN_H</text>
	</g>
	<g>
		<text transform="matrix(1 0 0 1 317.7082 381.7515)" font-family="'FZLTHJW--GB1-0'" font-size="4px">CAN_L</text>
	</g>
	<g>
		<text transform="matrix(1 0 0 1 316.8938 401.389)" font-family="'FZLTHJW--GB1-0'" font-size="4px">Internet high</text>
	</g>
	<g>
		<text transform="matrix(1 0 0 1 330.5669 410.7155)" fill="#005EAD" font-family="'FZLTHJW--GB1-0'" font-size="6px">G01(C)</text>
	</g>
	<g>
		<text transform="matrix(1 0 0 1 353.1919 410.7155)" fill="#005EAD" font-family="'FZLTHJW--GB1-0'" font-size="6px">-3</text>
	</g>
	<g id="_x30_2-上针脚_3_">
		<line fill="none" stroke="#000000" stroke-width="0.6" stroke-linejoin="round" x1="268.1" y1="411.5" x2="268.1" y2="403.3"/>
		<path fill="#FFFFFF" d="M268,414.6c-1.7,0-3-1.4-3-3c0-1.8,1.4-3.2,3-3.2c1.8,0,3.2,1.4,3.2,3.2
			C271.2,413.2,269.8,414.6,268,414.6"/>
		<path d="M268,415.2c-2,0-3.7-1.6-3.7-3.7c0-2.2,1.7-3.8,3.7-3.8v1.2c-1.4,0-2.5,1.1-2.5,2.7c0,1.3,1.1,2.5,2.5,2.5V415.2z
			 M268,407.7v1.2c1.5,0,2.7,1.1,2.7,2.7c0,1.3-1.1,2.5-2.7,2.5v1.1c2.2,0,3.8-1.6,3.8-3.7S270.2,407.7,268,407.7"/>
		<rect x="264" y="407.3" fill="#FFFFFF" width="8.1" height="4.1"/>
		<rect x="267.6" y="408.2" width="1" height="4.2"/>
		
			<rect x="267.6" y="408.2" fill="none" stroke="#000000" stroke-width="0.72" stroke-linecap="round" stroke-linejoin="round" width="1" height="4.2"/>
	</g>
	<rect x="167.6" y="282.1" fill="#FFFFFF" width="28.1" height="7.1"/>
	<g>
		<text transform="matrix(1 0 0 1 167.9212 287.4821)" font-family="'FZLTHJW--GB1-0'" font-size="6px">W/R 0.35</text>
	</g>
</g>
</svg>
