<?xml version="1.0" encoding="utf-8"?>
<!-- Generator: Adobe Illustrator 24.0.1, SVG Export Plug-In . SVG Version: 6.00 Build 0)  -->
<svg version="1.1" id="图层_1" xmlns="http://www.w3.org/2000/svg" xmlns:xlink="http://www.w3.org/1999/xlink" x="0px" y="0px"
	 viewBox="0 0 435 841.9" style="enable-background:new 0 0 435 841.9;" xml:space="preserve">
<style type="text/css">
	.st0{fill:#DCDDDD;}
	.st1{fill:none;stroke:#060001;stroke-width:0.5;}
	.st2{fill:none;stroke:#060001;}
	.st3{enable-background:new    ;}
	.st4{font-family:'FZLTHJW--GB1-0';}
	.st5{font-size:6px;}
	.st6{clip-path:url(#SVGID_2_);}
	.st7{clip-path:url(#SVGID_4_);}
	.st8{clip-path:url(#SVGID_6_);}
	.st9{clip-path:url(#SVGID_8_);}
	.st10{clip-path:url(#SVGID_10_);}
	.st11{fill:#9DD2EE;}
	.st12{fill:none;stroke:#040000;stroke-width:0.5;stroke-linecap:round;stroke-miterlimit:10;}
	.st13{fill:none;stroke:#89438F;stroke-width:3;stroke-linecap:round;stroke-linejoin:round;stroke-miterlimit:10;}
	.st14{fill:none;stroke:#F29C97;stroke-width:3;stroke-linecap:round;stroke-linejoin:round;stroke-miterlimit:10;}
	.st15{fill:none;stroke:#040000;stroke-linecap:round;stroke-linejoin:round;}
	.st16{fill:none;stroke:#040000;stroke-width:0.5;stroke-miterlimit:10;}
	.st17{fill:none;stroke:#040000;stroke-width:0.6;stroke-linejoin:round;}
	.st18{fill:#FFFFFF;}
	.st19{fill:none;stroke:#040000;stroke-width:0.72;stroke-linecap:round;stroke-linejoin:round;}
	.st20{fill:none;stroke:#000000;stroke-width:3;stroke-miterlimit:10;}
	.st21{fill:none;stroke:#000000;stroke-width:1.3;}
	.st22{fill:none;stroke:#FFFFFF;stroke-width:0.5;}
	.st23{font-size:4px;}
	.st24{fill:none;stroke:#060001;stroke-width:0.25;stroke-linecap:round;stroke-linejoin:round;}
	.st25{fill:none;stroke:#060001;stroke-width:0.25;}
	.st26{fill:#005EAD;}
	.st27{fill:#CCCCCC;stroke:#000000;stroke-width:0.5;stroke-miterlimit:10;}
	.st28{fill:none;stroke:#000000;stroke-width:0.75;}
	.st29{fill:none;stroke:#000000;stroke-width:0.5;stroke-linejoin:round;}
	.st30{stroke:#FFFFFF;stroke-width:0.5;stroke-linecap:round;}
	.st31{fill:none;stroke:#FFFFFF;stroke-width:1.0001;}
	.st32{fill:none;stroke:#005EAD;stroke-width:3;stroke-linejoin:round;stroke-miterlimit:10;}
	.st33{fill:none;stroke:#E60012;stroke-linejoin:round;stroke-miterlimit:10;}
	.st34{fill:none;stroke:#000000;stroke-width:0.6;stroke-linejoin:round;}
	.st35{fill:none;stroke:#000000;stroke-width:0.72;stroke-linecap:round;stroke-linejoin:round;}
	.st36{stroke:#FFFFFF;stroke-width:0.5;}
	.st37{fill:#FFFFFF;stroke:#060001;stroke-width:0.25;}
	.st38{fill:#040000;}
	.st39{fill:#065AA1;}
</style>
<polyline class="st0" points="44,41.9 386.6,41.9 386.6,99.7 44,99.7 "/>
<line class="st1" x1="44" y1="47.6" x2="386.6" y2="47.6"/>
<line class="st2" x1="44" y1="41.6" x2="386.6" y2="41.6"/>
<line class="st1" x1="44" y1="58.9" x2="386.6" y2="58.9"/>
<line class="st1" x1="44" y1="70.6" x2="386.6" y2="70.6"/>
<line class="st1" x1="44" y1="82.3" x2="386.6" y2="82.3"/>
<line class="st1" x1="44" y1="93.9" x2="386.6" y2="93.9"/>
<line class="st2" x1="44" y1="99.7" x2="386.6" y2="99.7"/>
<g class="st3">
	<g>
		<text transform="matrix(1 0 0 1 389.7158 49.6295)" class="st4 st5">30</text>
	</g>
</g>
<g class="st3">
	<g>
		<text transform="matrix(1 0 0 1 389.7158 60.7955)" class="st4 st5">IG1</text>
	</g>
</g>
<g class="st3">
	<g>
		<text transform="matrix(1 0 0 1 389.7158 72.4205)" class="st4 st5">IG3</text>
	</g>
</g>
<g class="st3">
	<g>
		<text transform="matrix(1 0 0 1 389.7158 83.9244)" class="st4 st5">IG4</text>
	</g>
</g>
<g class="st3">
	<g>
		<text transform="matrix(1 0 0 1 389.7158 96.1276)" class="st4 st5">ACC</text>
	</g>
</g>
<g class="st3">
	<g>
		<defs>
			<rect id="SVGID_1_" x="33.2" y="44.6" width="7.3" height="6.7"/>
		</defs>
		<clipPath id="SVGID_2_">
			<use xlink:href="#SVGID_1_"  style="overflow:visible;"/>
		</clipPath>
		<g class="st6">
			<text transform="matrix(1 0 0 1 33.2295 49.7115)" class="st4 st5">30</text>
		</g>
	</g>
</g>
<g class="st3">
	<g>
		<defs>
			<rect id="SVGID_3_" x="30.1" y="55.7" width="10.4" height="6.7"/>
		</defs>
		<clipPath id="SVGID_4_">
			<use xlink:href="#SVGID_3_"  style="overflow:visible;"/>
		</clipPath>
		<g class="st7">
			<text transform="matrix(1 0 0 1 30.0654 60.8776)" class="st4 st5">IG1</text>
		</g>
	</g>
</g>
<g class="st3">
	<g>
		<defs>
			<rect id="SVGID_5_" x="30.1" y="67.3" width="10.4" height="6.7"/>
		</defs>
		<clipPath id="SVGID_6_">
			<use xlink:href="#SVGID_5_"  style="overflow:visible;"/>
		</clipPath>
		<g class="st8">
			<text transform="matrix(1 0 0 1 30.1123 72.5026)" class="st4 st5">IG3</text>
		</g>
	</g>
</g>
<g class="st3">
	<g>
		<defs>
			<rect id="SVGID_7_" x="30.1" y="78.8" width="10.4" height="6.7"/>
		</defs>
		<clipPath id="SVGID_8_">
			<use xlink:href="#SVGID_7_"  style="overflow:visible;"/>
		</clipPath>
		<g class="st9">
			<text transform="matrix(1 0 0 1 30.0654 84.0026)" class="st4 st5">IG4</text>
		</g>
	</g>
</g>
<g class="st3">
	<g>
		<defs>
			<rect id="SVGID_9_" x="26.6" y="91" width="13.9" height="6.7"/>
		</defs>
		<clipPath id="SVGID_10_">
			<use xlink:href="#SVGID_9_"  style="overflow:visible;"/>
		</clipPath>
		<g class="st10">
			<text transform="matrix(1 0 0 1 26.5732 96.1276)" class="st4 st5">ACC</text>
		</g>
	</g>
</g>
<rect x="126.6" y="395.3" class="st11" width="174.1" height="25.9"/>
<rect x="126.6" y="395.3" class="st11" width="174.1" height="25.9"/>
<rect x="126.6" y="395.3" class="st12" width="174.1" height="25.9"/>
<line class="st13" x1="263.4" y1="426.8" x2="263.4" y2="700.5"/>
<line class="st14" x1="206.7" y1="426.8" x2="206.7" y2="700.5"/>
<path class="st15" d="M268.3,705.5l-0.6,2.1c0,0-0.6,2.5-3.3,2.6h-27.5l-2,2.7l-1.9-2.7h-27.3c-2.7-0.1-3.3-2.6-3.3-2.6l-0.6-2.1"/>
<path class="st16" d="M265.9,558.8c3,0,5.5,2.2,5.5,4.8s-2.4,4.7-5.4,4.8l-62-9.6c-3,0.1-5.4,2.2-5.4,4.8c0,2.7,2.5,4.8,5.5,4.8
	L265.9,558.8z"/>
<line class="st17" x1="263.4" y1="429.4" x2="263.4" y2="421.2"/>
<path class="st18" d="M263.3,432.5c-1.7,0-3-1.4-3-3c0-1.8,1.4-3.2,3-3.2c1.8,0,3.2,1.4,3.2,3.2
	C266.5,431.1,265.1,432.5,263.3,432.5"/>
<path d="M263.3,433.1c-2,0-3.7-1.6-3.7-3.7c0-2.2,1.7-3.8,3.7-3.8v1.2c-1.4,0-2.5,1.1-2.5,2.7c0,1.3,1.1,2.5,2.5,2.5V433.1z
	 M263.3,425.6v1.2c1.5,0,2.7,1.1,2.7,2.7c0,1.3-1.1,2.5-2.7,2.5v1.1c2.2,0,3.8-1.6,3.8-3.7C267.1,427.3,265.5,425.6,263.3,425.6"/>
<rect x="259.3" y="425.2" class="st18" width="8.1" height="4.1"/>
<rect x="262.9" y="426.1" width="1" height="4.2"/>
<rect x="262.9" y="426.1" class="st19" width="1" height="4.2"/>
<line class="st17" x1="206.7" y1="429.4" x2="206.7" y2="421.2"/>
<path class="st18" d="M206.6,432.5c-1.7,0-3-1.4-3-3c0-1.8,1.4-3.2,3-3.2c1.8,0,3.2,1.4,3.2,3.2
	C209.8,431.1,208.4,432.5,206.6,432.5"/>
<path d="M206.6,433.1c-2,0-3.7-1.6-3.7-3.7c0-2.2,1.7-3.8,3.7-3.8v1.2c-1.4,0-2.5,1.1-2.5,2.7c0,1.3,1.1,2.5,2.5,2.5V433.1z
	 M206.6,425.6v1.2c1.5,0,2.7,1.1,2.7,2.7c0,1.3-1.1,2.5-2.7,2.5v1.1c2.2,0,3.8-1.6,3.8-3.7C210.4,427.3,208.8,425.6,206.6,425.6"/>
<rect x="202.6" y="425.2" class="st18" width="8.1" height="4.1"/>
<rect x="206.2" y="426.1" width="1" height="4.2"/>
<rect x="206.2" y="426.1" class="st19" width="1" height="4.2"/>
<line class="st20" x1="150" y1="426.8" x2="150" y2="719.5"/>
<line class="st17" x1="150" y1="429.4" x2="150" y2="421.2"/>
<path class="st18" d="M149.9,432.5c-1.7,0-3-1.4-3-3c0-1.8,1.4-3.2,3-3.2c1.8,0,3.2,1.4,3.2,3.2
	C153.1,431.1,151.7,432.5,149.9,432.5"/>
<path d="M149.9,433.1c-2,0-3.7-1.6-3.7-3.7c0-2.2,1.7-3.8,3.7-3.8v1.2c-1.4,0-2.5,1.1-2.5,2.7c0,1.3,1.1,2.5,2.5,2.5V433.1z
	 M149.9,425.6v1.2c1.5,0,2.7,1.1,2.7,2.7c0,1.3-1.1,2.5-2.7,2.5v1.1c2.2,0,3.8-1.6,3.8-3.7C153.7,427.3,152.1,425.6,149.9,425.6"/>
<rect x="145.9" y="425.2" class="st18" width="8.1" height="4.1"/>
<rect x="149.5" y="426.1" width="1" height="4.2"/>
<rect x="149.5" y="426.1" class="st19" width="1" height="4.2"/>
<line class="st21" x1="143" y1="719.5" x2="156.9" y2="719.5"/>
<line class="st21" x1="145.9" y1="721.7" x2="154" y2="721.7"/>
<line class="st21" x1="152.4" y1="723.8" x2="147.5" y2="723.8"/>
<path d="M152.8,563.5c0,1.5-1.2,2.6-2.6,2.6c-1.5,0-2.6-1.2-2.6-2.6c0-1.5,1.2-2.6,2.6-2.6C151.7,560.8,152.8,562,152.8,563.5"/>
<path class="st22" d="M152.8,563.5c0,1.5-1.2,2.6-2.6,2.6c-1.5,0-2.6-1.2-2.6-2.6c0-1.5,1.2-2.6,2.6-2.6
	C151.7,560.8,152.8,562,152.8,563.5z"/>
<g class="st3">
	<g>
		<text transform="matrix(1 0 0 1 198.6211 419.3229)" class="st4 st23">CAN_H</text>
	</g>
</g>
<g class="st3">
	<g>
		<text transform="matrix(1 0 0 1 255.0303 419.3229)" class="st4 st23">CAN_L</text>
	</g>
</g>
<rect x="199.4" y="444.4" class="st18" width="12.1" height="6"/>
<g class="st3">
	<g>
		<text transform="matrix(1 0 0 1 197.2661 449.358)" class="st4 st5">P 0.35</text>
	</g>
</g>
<rect x="253.9" y="444.4" class="st18" width="13.5" height="6"/>
<g class="st3">
	<g>
		<text transform="matrix(1 0 0 1 253.9248 449.359)" class="st4 st5">V 0.35</text>
	</g>
</g>
<rect x="142.7" y="444.4" class="st18" width="12.1" height="6"/>
<g class="st3">
	<g>
		<text transform="matrix(1 0 0 1 140.5732 449.358)" class="st4 st5">B 0.35</text>
	</g>
</g>
<rect x="142.7" y="699.4" class="st18" width="12.1" height="6"/>
<g class="st3">
	<g>
		<text transform="matrix(1 0 0 1 140.5732 704.358)" class="st4 st5">B 1.0</text>
	</g>
</g>
<rect x="139.9" y="726.3" class="st18" width="20.3" height="8.2"/>
<rect x="140.3" y="726.7" class="st18" width="19.7" height="7.6"/>
<rect x="140.3" y="726.7" class="st24" width="19.7" height="7.6"/>
<rect x="155.3" y="559.7" class="st18" width="24.3" height="6.9"/>
<rect x="155.3" y="559.7" class="st25" width="24.3" height="6.9"/>
<text transform="matrix(1 0 0 1 155.7695 564.9967)" class="st4 st5">SP2784</text>
<g>
	<text transform="matrix(1 0 0 1 142.3359 732.2272)" class="st26 st4 st5">Eg01</text>
</g>
<g>
	<text transform="matrix(1 0 0 1 156.1982 429.2999)" class="st26 st4 st5">G109</text>
</g>
<g>
	<text transform="matrix(1 0 0 1 173.5449 429.2999)" class="st26 st4 st5">-2</text>
</g>
<g>
	<text transform="matrix(1 0 0 1 211.4932 429.2999)" class="st26 st4 st5">G109</text>
</g>
<g>
	<text transform="matrix(1 0 0 1 228.8398 429.2999)" class="st26 st4 st5">-3</text>
</g>
<g>
	<text transform="matrix(1 0 0 1 269.3271 429.2999)" class="st26 st4 st5">G109</text>
</g>
<g>
	<text transform="matrix(1 0 0 1 286.6738 429.2999)" class="st26 st4 st5">-4</text>
</g>
<g>
	<text transform="matrix(1 0 0 1 156.6758 392.9822)" class="st26 st4 st5">G109</text>
</g>
<g>
	<text transform="matrix(1 0 0 1 173.3423 392.9822)" class="st26 st4 st5">-1</text>
</g>
<g id="REB_x2C_A3_2_">
	<rect x="125.2" y="144.4" class="st27" width="51" height="51.3"/>
</g>
<g>
	<g>
		<path class="st28" d="M150.8,174.4c-1.2,0-2.2,1-2.2,2.2c0,1.2,1,2.2,2.2,2.2c1.2,0,2.2-1,2.2-2.2
			C153,175.4,152,174.4,150.8,174.4"/>
	</g>
	<g>
		<path class="st28" d="M150.8,158.6c-1.2,0-2.2,1-2.2,2.1c0,1.2,1,2.2,2.2,2.2c1.2,0,2.2-0.9,2.2-2.2
			C153,159.6,152,158.6,150.8,158.6"/>
	</g>
	<g>
		<g>
			<path class="st28" d="M149.3,162.4c-0.1,2.5,0.2,3.2,1.3,4.3c1.2,1.2,2.4,1.6,2.8,3.6c0.4,1.6-0.1,3.5-1.1,4.5"/>
		</g>
		<g>
			<path class="st28" d="M152.2,174.9c0.2-0.8,0-2.9-0.6-3.7c-0.9-1.2-2.7-2.1-3.3-3.9c-0.9-2.8,0.7-4.6,1.1-4.9"/>
		</g>
	</g>
</g>
<g>
	<g>
		<polyline class="st29" points="150.7,178.8 150.7,181.8 150.7,195.6 		"/>
	</g>
</g>
<g>
	<g>
		<polyline class="st29" points="150.7,158.6 150.7,154.6 150.7,47.9 		"/>
	</g>
</g>
<g>
	<path class="st30" d="M147.9,48c0-1.7,1.3-2.9,2.8-2.9c1.6,0,2.9,1.2,2.9,2.9c0,1.5-1.3,2.7-2.9,2.7
		C149.2,50.7,147.9,49.5,147.9,48z"/>
	<g>
		<path class="st31" d="M147.9,48c0-1.7,1.3-2.9,2.8-2.9c1.6,0,2.9,1.2,2.9,2.9c0,1.5-1.3,2.7-2.9,2.7
			C149.2,50.7,147.9,49.5,147.9,48"/>
	</g>
</g>
<line class="st32" x1="150.7" y1="205.7" x2="150.7" y2="386.2"/>
<line class="st33" x1="150.7" y1="205.7" x2="150.7" y2="386.2"/>
<g id="_x30_2-上针脚_13_">
	<line class="st34" x1="150.7" y1="203.9" x2="150.7" y2="195.7"/>
	<path class="st18" d="M150.6,207c-1.7,0-3-1.4-3-3c0-1.8,1.4-3.2,3-3.2c1.8,0,3.2,1.4,3.2,3.2C153.8,205.6,152.4,207,150.6,207"/>
	<path d="M150.7,207.6c-2,0-3.7-1.6-3.7-3.7c0-2.2,1.7-3.8,3.7-3.8v1.2c-1.4,0-2.5,1.1-2.5,2.7c0,1.3,1.1,2.5,2.5,2.5V207.6z
		 M150.7,200.1v1.2c1.5,0,2.7,1.1,2.7,2.7c0,1.3-1.1,2.5-2.7,2.5v1.1c2.2,0,3.8-1.6,3.8-3.7C154.5,201.8,152.9,200.1,150.7,200.1"/>
	<rect x="146.7" y="199.7" class="st18" width="8.1" height="4.1"/>
	<rect x="150.2" y="200.6" width="1" height="4.2"/>
	<rect x="150.2" y="200.6" class="st35" width="1" height="4.2"/>
</g>
<g>
	<circle class="st36" cx="151" cy="272.4" r="2.6"/>
</g>
<rect x="136.7" y="221.1" class="st18" width="28.1" height="7.1"/>
<g>
	<text transform="matrix(1 0 0 1 138.9708 226.459)" class="st4 st5">L/R 0.35</text>
</g>
<rect x="136.7" y="344.6" class="st18" width="28.1" height="7.1"/>
<g>
	<text transform="matrix(1 0 0 1 138.9708 349.959)" class="st4 st5">L/R 0.35</text>
</g>
<g>
	<rect x="156.1" y="268.9" class="st37" width="24.3" height="6.9"/>
	<text transform="matrix(1 0 0 1 156.5734 274.2415)" class="st4 st5">SP4096</text>
</g>
<g>
	<text transform="matrix(1 0 0 1 157.7371 174.9011)" class="st4 st5">5A</text>
</g>
<g>
	<g>
		<text transform="matrix(1 0 0 1 157.7371 167.6167)" class="st26 st4 st5">F2/05</text>
	</g>
</g>
<g>
	<text transform="matrix(1 0 0 1 157.7373 203.8162)" class="st26 st4 st5">G82</text>
</g>
<g>
	<text transform="matrix(1 0 0 1 169.5186 203.8162)" class="st26 st4 st5">-6</text>
</g>
<g id="_x30_2-上针脚_12_">
	<line class="st34" x1="150.8" y1="387.1" x2="150.8" y2="395.3"/>
	<path class="st18" d="M150.7,384c-1.7,0-3,1.4-3,3c0,1.8,1.4,3.2,3,3.2c1.8,0,3.2-1.4,3.2-3.2C153.9,385.4,152.5,384,150.7,384"/>
	<path d="M150.7,384.5c-1.4,0-2.5,1.2-2.5,2.5c0,1.6,1.1,2.7,2.5,2.7v1.2c-2,0-3.7-1.6-3.7-3.8c0-2.1,1.7-3.7,3.7-3.7V384.5z
		 M150.7,390.9c2.2,0,3.8-1.7,3.8-3.8s-1.6-3.7-3.8-3.7v1.1c1.6,0,2.7,1.2,2.7,2.5c0,1.6-1.2,2.7-2.7,2.7V390.9"/>
	<rect x="146.7" y="387.2" class="st18" width="8.1" height="4.1"/>
	<rect x="150.3" y="386.2" width="1" height="4.2"/>
	<rect x="150.3" y="386.2" class="st35" width="1" height="4.2"/>
</g>
<g>
	<text transform="matrix(1 0 0 1 146.7253 399.6597)" class="st38 st4 st23">Constant power</text>
</g>
<g>
	<g>
		<text transform="matrix(1 0 0 1 179.7386 168.2195)" class="st39 st4 st5">Instrument Distribution Box</text>
	</g>
</g>
<text transform="matrix(1 0 0 1 193.2581 408.25)" class="st39 st4 st5">HUD System</text>
<text transform="matrix(1 0 0 1 142.7 419.0613)" class="st38 st4 st23">Ground</text>
<text transform="matrix(1 0 0 1 179.5692 725.0711)" class="st38 st4 st5">See Intelligent Access Network Circuit Diagram</text>
</svg>
