<?xml version="1.0" encoding="utf-8"?>
<!-- Generator: Adobe Illustrator 24.0.1, SVG Export Plug-In . SVG Version: 6.00 Build 0)  -->
<svg version="1.1" id="图层_1" xmlns="http://www.w3.org/2000/svg" xmlns:xlink="http://www.w3.org/1999/xlink" x="0px" y="0px"
	 viewBox="0 0 976 841.9" style="enable-background:new 0 0 976 841.9;" xml:space="preserve">
<style type="text/css">
	.st0{fill:#DCDDDD;}
	.st1{fill:none;stroke:#040000;stroke-width:0.5;}
	.st2{fill:none;stroke:#040000;stroke-width:0.75;}
	.st3{enable-background:new    ;}
	.st4{font-family:'FZLTHJW--GB1-0';}
	.st5{font-size:6px;}
	.st6{fill:#9FD9F6;}
	.st7{fill:none;stroke:#000000;stroke-width:0.5;stroke-linecap:round;stroke-miterlimit:10;}
	.st8{font-size:4px;}
	.st9{fill:none;stroke:#000000;stroke-width:0.5;stroke-miterlimit:10;}
	.st10{fill:none;stroke:#000000;stroke-width:3;stroke-miterlimit:10;}
	.st11{fill:none;stroke:#009944;stroke-width:3;stroke-miterlimit:10;}
	.st12{fill:none;stroke:#000000;stroke-width:1.3;}
	.st13{fill:none;stroke:#000000;stroke-width:0.6;stroke-linejoin:round;}
	.st14{fill:#FFFFFF;}
	.st15{fill:none;stroke:#000000;stroke-width:0.72;stroke-linecap:round;stroke-linejoin:round;}
	.st16{fill:none;stroke:#E60012;stroke-miterlimit:10;}
	.st17{fill:none;stroke:#E60012;stroke-width:3;stroke-miterlimit:10;}
	.st18{fill:none;stroke:#000000;stroke-width:0.5;stroke-linejoin:round;}
	.st19{fill:none;stroke:#060001;stroke-width:0.5;}
	.st20{fill:#040000;}
	.st21{fill:none;stroke:#FFFFFF;stroke-width:0.5;stroke-linecap:round;}
	.st22{fill:none;stroke:#FFFFFF;}
	.st23{fill:none;stroke:#000000;stroke-miterlimit:10;}
	.st24{fill:none;stroke:#000000;stroke-width:3;}
	.st25{fill:none;stroke:#FFFFFF;stroke-width:0.5;}
	.st26{fill:none;stroke:#FFFFFF;stroke-miterlimit:10;}
	.st27{fill:none;stroke:#070102;stroke-width:0.25;stroke-linecap:round;stroke-linejoin:round;}
	.st28{fill:none;stroke:#000000;stroke-width:0.25;stroke-linecap:round;stroke-linejoin:round;}
	.st29{fill:#005EAD;}
	.st30{fill:none;stroke:#000000;stroke-width:0.25;}
	.st31{fill:none;stroke:#898989;stroke-miterlimit:10;}
	.st32{fill:#FFFFFF;stroke:#000000;stroke-width:0.25;stroke-linecap:round;stroke-linejoin:round;}
	.st33{fill:#FFFFFF;stroke:#000000;stroke-width:0.25;}
	.st34{stroke:#FFFFFF;stroke-width:0.5;}
	.st35{fill:#DCDDDD;stroke:#000000;stroke-width:0.5;stroke-linecap:round;stroke-miterlimit:10;}
	.st36{fill:none;stroke:#E60012;stroke-width:3;stroke-linecap:round;stroke-miterlimit:10;}
	.st37{fill:#E60012;stroke:#E60012;stroke-width:3;stroke-linecap:round;stroke-miterlimit:10;}
	.st38{fill:none;stroke:#FFFFFF;stroke-linecap:round;stroke-miterlimit:10;}
	.st39{fill:none;stroke:#000000;stroke-width:0.75;}
	.st40{fill:none;stroke:#000000;stroke-width:0.6;stroke-linecap:round;stroke-linejoin:round;}
	.st41{stroke:#FFFFFF;stroke-width:0.5;stroke-linecap:round;}
	.st42{fill:none;stroke:#FFFFFF;stroke-width:1.0001;}
	.st43{fill:#DCDDDD;stroke:#0A0204;stroke-linecap:round;}
	.st44{fill:none;stroke:#070102;stroke-width:0.6001;}
	.st45{fill:none;stroke:#070102;stroke-width:0.6001;stroke-linecap:round;stroke-dasharray:3.0005,1.8003;}
	.st46{fill:#FFFFFF;stroke:#070102;stroke-width:0.6001;}
	.st47{fill:none;stroke:#070102;stroke-width:0.6001;stroke-linecap:round;stroke-linejoin:round;}
	.st48{fill:#FFFFFF;stroke:#0A0204;stroke-width:1.0001;}
	.st49{fill:none;stroke:#0A0204;stroke-width:1.0001;}
	.st50{fill:#090103;}
	.st51{fill:none;stroke:#FFFFFF;stroke-width:0.6001;}
	.st52{fill:none;stroke:#F29C97;stroke-width:3;stroke-linecap:round;stroke-miterlimit:10;}
	.st53{fill:none;stroke:#89438F;stroke-width:3;stroke-linecap:round;stroke-miterlimit:10;}
	.st54{fill:none;stroke:#000000;stroke-width:0.5;stroke-linecap:round;stroke-linejoin:round;}
	.st55{fill:#105390;}
	.st56{fill:#070001;}
	.st57{fill:#0B5698;}
</style>
<polyline class="st0" points="44,41.9 934,41.9 934,99.7 44,99.7 "/>
<line class="st1" x1="44" y1="47.6" x2="934" y2="47.6"/>
<line class="st2" x1="44" y1="41.6" x2="934" y2="41.6"/>
<line class="st1" x1="44" y1="58.9" x2="934" y2="58.9"/>
<line class="st1" x1="44" y1="70.6" x2="934" y2="70.6"/>
<line class="st1" x1="44" y1="82.3" x2="934" y2="82.3"/>
<line class="st1" x1="44" y1="93.9" x2="934" y2="93.9"/>
<line class="st2" x1="44" y1="99.7" x2="934" y2="99.7"/>
<g class="st3">
	<g>
		<text transform="matrix(1 0 0 1 937.1158 49.6302)" class="st4 st5">30</text>
	</g>
</g>
<g class="st3">
	<g>
		<text transform="matrix(1 0 0 1 937.1158 60.7963)" class="st4 st5">IG1</text>
	</g>
</g>
<g class="st3">
	<g>
		<text transform="matrix(1 0 0 1 937.1158 72.4213)" class="st4 st5">IG3</text>
	</g>
</g>
<g class="st3">
	<g>
		<text transform="matrix(1 0 0 1 937.1158 83.9252)" class="st4 st5">IG4</text>
	</g>
</g>
<g class="st3">
	<g>
		<text transform="matrix(1 0 0 1 937.1158 96.1283)" class="st4 st5">ACC</text>
	</g>
</g>
<g class="st3">
	<g>
		<text transform="matrix(1 0 0 1 33.2295 49.7123)" class="st4 st5">30</text>
	</g>
</g>
<g class="st3">
	<g>
		<text transform="matrix(1 0 0 1 30.0654 60.8783)" class="st4 st5">IG1</text>
	</g>
</g>
<g class="st3">
	<g>
		<text transform="matrix(1 0 0 1 30.1123 72.5033)" class="st4 st5">IG3</text>
	</g>
</g>
<g class="st3">
	<g>
		<text transform="matrix(1 0 0 1 30.0654 84.0033)" class="st4 st5">IG4</text>
	</g>
</g>
<g class="st3">
	<g>
		<text transform="matrix(1 0 0 1 26.5732 96.1283)" class="st4 st5">ACC</text>
	</g>
</g>
<path class="st6" d="M779.5,571.8h-64.2V536h64.2c0,0-8.6,10.5,0,18C788.2,561.5,779.5,571.8,779.5,571.8"/>
<path class="st7" d="M779.5,571.8h-64.2V536h64.2c0,0-8.6,10.5,0,18C788.2,561.5,779.5,571.8,779.5,571.8"/>
<rect x="720.5" y="539.1" class="st6" width="23.1" height="29.7"/>
<rect x="720.5" y="539.1" class="st7" width="23.1" height="29.7"/>
<path class="st6" d="M442.3,438.4H51v-32.9h391.3c0,0-6.4,9.6,0,16.5C448.7,428.9,442.3,438.4,442.3,438.4"/>
<path class="st7" d="M442.3,438.4H51v-32.9h391.3c0,0-6.4,9.6,0,16.5C448.7,428.9,442.3,438.4,442.3,438.4"/>
<path class="st6" d="M869.8,438.4H516.2v-32.9h353.6c0,0-6.4,9.6,0,16.5C876.1,428.9,869.8,438.4,869.8,438.4"/>
<path class="st7" d="M869.8,438.4H516.2v-32.9h353.6c0,0-6.4,9.6,0,16.5C876.1,428.9,869.8,438.4,869.8,438.4"/>
<line class="st7" x1="732" y1="571.8" x2="732" y2="562.1"/>
<polyline class="st6" points="731.9,546.1 729,559.7 731.7,559.7 "/>
<polyline class="st7" points="731.9,546.1 729,559.7 731.7,559.7 "/>
<path class="st6" d="M731.9,544.5c-0.8,0-1.5,0.7-1.5,1.6c0,1,0.6,1.7,1.5,1.7c0.8,0,1.4-0.7,1.4-1.7
	C733.3,545.2,732.7,544.5,731.9,544.5"/>
<path class="st7" d="M731.9,544.5c-0.8,0-1.5,0.7-1.5,1.6c0,1,0.6,1.7,1.5,1.7c0.8,0,1.4-0.7,1.4-1.7
	C733.3,545.2,732.7,544.5,731.9,544.5"/>
<path class="st6" d="M731.9,544.5c-0.8,0-1.5,0.7-1.5,1.6c0,1,0.6,1.7,1.5,1.7c0.8,0,1.4-0.7,1.4-1.7
	C733.3,545.2,732.7,544.5,731.9,544.5"/>
<path class="st7" d="M731.9,544.5c-0.8,0-1.5,0.7-1.5,1.6c0,1,0.6,1.7,1.5,1.7c0.8,0,1.4-0.7,1.4-1.7
	C733.3,545.2,732.7,544.5,731.9,544.5"/>
<path class="st6" d="M731.9,559.3c-0.7,0-1.2,0.6-1.2,1.4c0,0.8,0.5,1.5,1.2,1.5c0.7,0,1.2-0.6,1.2-1.5
	C733.1,559.9,732.6,559.3,731.9,559.3"/>
<path class="st7" d="M731.9,559.3c-0.7,0-1.2,0.6-1.2,1.4c0,0.8,0.5,1.5,1.2,1.5c0.7,0,1.2-0.6,1.2-1.5
	C733.1,559.9,732.6,559.3,731.9,559.3"/>
<path class="st6" d="M731.9,559.3c-0.7,0-1.2,0.6-1.2,1.4c0,0.8,0.5,1.5,1.2,1.5c0.7,0,1.2-0.6,1.2-1.5
	C733.1,559.9,732.6,559.3,731.9,559.3"/>
<path class="st7" d="M731.9,559.3c-0.7,0-1.2,0.6-1.2,1.4c0,0.8,0.5,1.5,1.2,1.5c0.7,0,1.2-0.6,1.2-1.5
	C733.1,559.9,732.6,559.3,731.9,559.3"/>
<line class="st7" x1="732" y1="544.5" x2="732" y2="536.1"/>
<polyline class="st6" points="727.3,557.5 726.3,557.5 726.3,553.2 727.3,553.2 "/>
<polyline class="st7" points="727.3,557.5 726.3,557.5 726.3,553.2 727.3,553.2 "/>
<line class="st7" x1="726.4" y1="555.3" x2="730" y2="555.3"/>
<g class="st3">
	<g>
		<text transform="matrix(1 0 0 1 735.2261 544.8666)" class="st6 st4 st8">+</text>
		<polygon class="st7" points="736.7,543.3 736.7,542.4 736.4,542.4 736.4,543.3 735.5,543.3 735.5,543.6 736.4,543.6 736.4,544.5 
			736.7,544.5 736.7,543.6 737.6,543.6 737.6,543.3 		"/>
	</g>
</g>
<g class="st3">
	<g>
		<text transform="matrix(1 0 0 1 734.4088 566.2162)" class="st6 st4 st8">-</text>
		<rect x="734.6" y="564.7" class="st7" width="2.2" height="0.3"/>
	</g>
</g>
<path class="st6" d="M350.4,571.8h-77.2V536h77.2c0,0-9.5,10.5,0,18C359.9,561.5,350.4,571.8,350.4,571.8"/>
<path class="st7" d="M350.4,571.8h-77.2V536h77.2c0,0-9.5,10.5,0,18C359.9,561.5,350.4,571.8,350.4,571.8"/>
<rect x="284" y="539.1" class="st6" width="23.1" height="29.7"/>
<rect x="284" y="539.1" class="st7" width="23.1" height="29.7"/>
<line class="st7" x1="295.7" y1="571.8" x2="295.7" y2="562.1"/>
<polyline class="st6" points="295.6,546.1 292.7,559.7 295.4,559.7 "/>
<polyline class="st7" points="295.6,546.1 292.7,559.7 295.4,559.7 "/>
<path class="st6" d="M295.6,544.5c-0.8,0-1.5,0.7-1.5,1.6c0,1,0.6,1.7,1.5,1.7c0.8,0,1.4-0.7,1.4-1.7
	C297,545.2,296.4,544.5,295.6,544.5"/>
<path class="st7" d="M295.6,544.5c-0.8,0-1.5,0.7-1.5,1.6c0,1,0.6,1.7,1.5,1.7c0.8,0,1.4-0.7,1.4-1.7
	C297,545.2,296.4,544.5,295.6,544.5"/>
<path class="st6" d="M295.6,544.5c-0.8,0-1.5,0.7-1.5,1.6c0,1,0.6,1.7,1.5,1.7c0.8,0,1.4-0.7,1.4-1.7
	C297,545.2,296.4,544.5,295.6,544.5"/>
<path class="st7" d="M295.6,544.5c-0.8,0-1.5,0.7-1.5,1.6c0,1,0.6,1.7,1.5,1.7c0.8,0,1.4-0.7,1.4-1.7
	C297,545.2,296.4,544.5,295.6,544.5"/>
<path class="st6" d="M295.6,559.3c-0.7,0-1.2,0.6-1.2,1.4c0,0.8,0.5,1.5,1.2,1.5c0.7,0,1.2-0.6,1.2-1.5
	C296.8,559.9,296.3,559.3,295.6,559.3"/>
<path class="st7" d="M295.6,559.3c-0.7,0-1.2,0.6-1.2,1.4c0,0.8,0.5,1.5,1.2,1.5c0.7,0,1.2-0.6,1.2-1.5
	C296.8,559.9,296.3,559.3,295.6,559.3"/>
<path class="st6" d="M295.6,559.3c-0.7,0-1.2,0.6-1.2,1.4c0,0.8,0.5,1.5,1.2,1.5c0.7,0,1.2-0.6,1.2-1.5
	C296.8,559.9,296.3,559.3,295.6,559.3"/>
<path class="st7" d="M295.6,559.3c-0.7,0-1.2,0.6-1.2,1.4c0,0.8,0.5,1.5,1.2,1.5c0.7,0,1.2-0.6,1.2-1.5
	C296.8,559.9,296.3,559.3,295.6,559.3"/>
<line class="st7" x1="295.7" y1="544.5" x2="295.7" y2="536.1"/>
<polyline class="st6" points="291,557.5 290,557.5 290,553.2 291,553.2 "/>
<polyline class="st7" points="291,557.5 290,557.5 290,553.2 291,553.2 "/>
<line class="st7" x1="290.1" y1="555.3" x2="293.7" y2="555.3"/>
<g class="st3">
	<g>
		<text transform="matrix(1 0 0 1 298.9238 544.9076)" class="st6 st4 st8">+</text>
		<polygon class="st7" points="300.4,543.3 300.4,542.4 300.1,542.4 300.1,543.3 299.2,543.3 299.2,543.6 300.1,543.6 300.1,544.6 
			300.4,544.6 300.4,543.6 301.3,543.6 301.3,543.3 		"/>
	</g>
</g>
<g class="st3">
	<g>
		<text transform="matrix(1 0 0 1 298.106 566.2582)" class="st6 st4 st8">-</text>
		<rect x="298.3" y="564.7" class="st7" width="2.2" height="0.3"/>
	</g>
</g>
<rect x="512.1" y="131.8" class="st0" width="56.8" height="51.3"/>
<rect x="512.1" y="131.8" class="st9" width="56.8" height="51.3"/>
<path class="st6" d="M597.7,571.8h-72.4V536h72.4c0,0-9.7,10.5,0,18C607.4,561.5,597.7,571.8,597.7,571.8"/>
<path class="st7" d="M597.7,571.8h-72.4V536h72.4c0,0-9.7,10.5,0,18C607.4,561.5,597.7,571.8,597.7,571.8"/>
<rect x="530.4" y="539.1" class="st6" width="23.1" height="29.7"/>
<rect x="530.4" y="539.1" class="st7" width="23.1" height="29.7"/>
<line class="st7" x1="542.1" y1="571.8" x2="542.1" y2="562.1"/>
<polyline class="st6" points="542,546.1 539.1,559.7 541.8,559.7 "/>
<polyline class="st7" points="542,546.1 539.1,559.7 541.8,559.7 "/>
<path class="st6" d="M542,544.5c-0.8,0-1.5,0.7-1.5,1.6c0,1,0.6,1.7,1.5,1.7c0.8,0,1.4-0.7,1.4-1.7
	C543.4,545.2,542.8,544.5,542,544.5"/>
<path class="st7" d="M542,544.5c-0.8,0-1.5,0.7-1.5,1.6c0,1,0.6,1.7,1.5,1.7c0.8,0,1.4-0.7,1.4-1.7
	C543.4,545.2,542.8,544.5,542,544.5"/>
<path class="st6" d="M542,544.5c-0.8,0-1.5,0.7-1.5,1.6c0,1,0.6,1.7,1.5,1.7c0.8,0,1.4-0.7,1.4-1.7
	C543.4,545.2,542.8,544.5,542,544.5"/>
<path class="st7" d="M542,544.5c-0.8,0-1.5,0.7-1.5,1.6c0,1,0.6,1.7,1.5,1.7c0.8,0,1.4-0.7,1.4-1.7
	C543.4,545.2,542.8,544.5,542,544.5"/>
<path class="st6" d="M542,559.3c-0.7,0-1.2,0.6-1.2,1.4c0,0.8,0.5,1.5,1.2,1.5c0.7,0,1.2-0.6,1.2-1.5
	C543.2,559.9,542.7,559.3,542,559.3"/>
<path class="st7" d="M542,559.3c-0.7,0-1.2,0.6-1.2,1.4c0,0.8,0.5,1.5,1.2,1.5c0.7,0,1.2-0.6,1.2-1.5
	C543.2,559.9,542.7,559.3,542,559.3"/>
<path class="st6" d="M542,559.3c-0.7,0-1.2,0.6-1.2,1.4c0,0.8,0.5,1.5,1.2,1.5c0.7,0,1.2-0.6,1.2-1.5
	C543.2,559.9,542.7,559.3,542,559.3"/>
<path class="st7" d="M542,559.3c-0.7,0-1.2,0.6-1.2,1.4c0,0.8,0.5,1.5,1.2,1.5c0.7,0,1.2-0.6,1.2-1.5
	C543.2,559.9,542.7,559.3,542,559.3"/>
<line class="st7" x1="542.1" y1="544.5" x2="542.1" y2="536.1"/>
<polyline class="st6" points="537.4,557.5 536.4,557.5 536.4,553.2 537.4,553.2 "/>
<polyline class="st7" points="537.4,557.5 536.4,557.5 536.4,553.2 537.4,553.2 "/>
<line class="st7" x1="536.5" y1="555.3" x2="540.1" y2="555.3"/>
<g class="st3">
	<g>
		<text transform="matrix(1 0 0 1 545.3013 544.9076)" class="st6 st4 st8">+</text>
		<polygon class="st7" points="546.8,543.3 546.8,542.4 546.5,542.4 546.5,543.3 545.5,543.3 545.5,543.6 546.5,543.6 546.5,544.6 
			546.8,544.6 546.8,543.6 547.7,543.6 547.7,543.3 		"/>
	</g>
</g>
<g class="st3">
	<g>
		<text transform="matrix(1 0 0 1 544.4839 566.2582)" class="st6 st4 st8">-</text>
		<rect x="544.7" y="564.7" class="st7" width="2.2" height="0.3"/>
	</g>
</g>
<path class="st6" d="M876,572.2h-65.6v-35.9H876c0,0-8.8,10.5,0,18C884.8,561.8,876,572.2,876,572.2"/>
<path class="st7" d="M876,571.8h-65.6V536H876c0,0-8.8,10.5,0,18C884.8,561.5,876,571.8,876,571.8"/>
<rect x="815.5" y="539.1" class="st6" width="23.1" height="29.7"/>
<rect x="815.5" y="539.1" class="st7" width="23.1" height="29.7"/>
<line class="st7" x1="827.2" y1="571.8" x2="827.2" y2="562.1"/>
<polyline class="st6" points="827.1,546.1 824.2,559.7 826.9,559.7 "/>
<polyline class="st7" points="827.1,546.1 824.2,559.7 826.9,559.7 "/>
<path class="st6" d="M827.1,544.5c-0.8,0-1.5,0.7-1.5,1.6c0,1,0.6,1.7,1.5,1.7c0.8,0,1.4-0.7,1.4-1.7
	C828.5,545.2,827.9,544.5,827.1,544.5"/>
<path class="st7" d="M827.1,544.5c-0.8,0-1.5,0.7-1.5,1.6c0,1,0.6,1.7,1.5,1.7c0.8,0,1.4-0.7,1.4-1.7
	C828.5,545.2,827.9,544.5,827.1,544.5"/>
<path class="st6" d="M827.1,544.5c-0.8,0-1.5,0.7-1.5,1.6c0,1,0.6,1.7,1.5,1.7c0.8,0,1.4-0.7,1.4-1.7
	C828.5,545.2,827.9,544.5,827.1,544.5"/>
<path class="st7" d="M827.1,544.5c-0.8,0-1.5,0.7-1.5,1.6c0,1,0.6,1.7,1.5,1.7c0.8,0,1.4-0.7,1.4-1.7
	C828.5,545.2,827.9,544.5,827.1,544.5"/>
<path class="st6" d="M827.1,559.3c-0.7,0-1.2,0.6-1.2,1.4c0,0.8,0.5,1.5,1.2,1.5c0.7,0,1.2-0.6,1.2-1.5
	C828.3,559.9,827.8,559.3,827.1,559.3"/>
<path class="st7" d="M827.1,559.3c-0.7,0-1.2,0.6-1.2,1.4c0,0.8,0.5,1.5,1.2,1.5c0.7,0,1.2-0.6,1.2-1.5
	C828.3,559.9,827.8,559.3,827.1,559.3"/>
<path class="st6" d="M827.1,559.3c-0.7,0-1.2,0.6-1.2,1.4c0,0.8,0.5,1.5,1.2,1.5c0.7,0,1.2-0.6,1.2-1.5
	C828.3,559.9,827.8,559.3,827.1,559.3"/>
<path class="st7" d="M827.1,559.3c-0.7,0-1.2,0.6-1.2,1.4c0,0.8,0.5,1.5,1.2,1.5c0.7,0,1.2-0.6,1.2-1.5
	C828.3,559.9,827.8,559.3,827.1,559.3"/>
<line class="st7" x1="827.2" y1="544.5" x2="827.2" y2="536.1"/>
<polyline class="st6" points="822.5,557.5 821.5,557.5 821.5,553.2 822.5,553.2 "/>
<polyline class="st7" points="822.5,557.5 821.5,557.5 821.5,553.2 822.5,553.2 "/>
<line class="st7" x1="821.6" y1="555.3" x2="825.2" y2="555.3"/>
<g class="st3">
	<g>
		<text transform="matrix(1 0 0 1 830.4166 544.9076)" class="st6 st4 st8">+</text>
		<polygon class="st7" points="831.9,543.3 831.9,542.4 831.6,542.4 831.6,543.3 830.7,543.3 830.7,543.6 831.6,543.6 831.6,544.6 
			831.9,544.6 831.9,543.6 832.8,543.6 832.8,543.3 		"/>
	</g>
</g>
<g class="st3">
	<g>
		<text transform="matrix(1 0 0 1 829.5982 566.2582)" class="st6 st4 st8">-</text>
		<rect x="829.8" y="564.7" class="st7" width="2.2" height="0.3"/>
	</g>
</g>
<polyline class="st10" points="239,809.2 251.7,774.3 295.6,774.3 295.6,771.5 295.7,578.9 "/>
<line class="st10" x1="732.2" y1="579.1" x2="732.2" y2="810.2"/>
<line class="st10" x1="732.2" y1="579.1" x2="732.2" y2="810.2"/>
<line class="st11" x1="295.8" y1="448.2" x2="295.8" y2="527"/>
<line class="st10" x1="68.9" y1="449.7" x2="68.9" y2="810.1"/>
<line class="st10" x1="238.9" y1="449.7" x2="238.9" y2="810.2"/>
<line class="st12" x1="61.9" y1="810.1" x2="75.8" y2="810.1"/>
<line class="st12" x1="64.8" y1="812.3" x2="72.9" y2="812.3"/>
<line class="st12" x1="71.3" y1="814.4" x2="66.4" y2="814.4"/>
<line class="st12" x1="232" y1="810.1" x2="245.9" y2="810.1"/>
<line class="st12" x1="234.9" y1="812.3" x2="243" y2="812.3"/>
<line class="st12" x1="241.4" y1="814.4" x2="236.5" y2="814.4"/>
<line class="st13" x1="68.9" y1="446.6" x2="68.9" y2="438.4"/>
<path class="st14" d="M68.8,449.7c-1.7,0-3-1.4-3-3c0-1.8,1.4-3.2,3-3.2c1.8,0,3.2,1.4,3.2,3.2C72,448.3,70.6,449.7,68.8,449.7"/>
<path d="M68.8,450.3c-2,0-3.7-1.6-3.7-3.7c0-2.2,1.7-3.8,3.7-3.8v1.2c-1.4,0-2.5,1.1-2.5,2.7c0,1.3,1.1,2.5,2.5,2.5V450.3z
	 M68.8,442.8v1.2c1.5,0,2.7,1.1,2.7,2.7c0,1.3-1.1,2.5-2.7,2.5v1.1c2.2,0,3.8-1.6,3.8-3.7S71,442.8,68.8,442.8"/>
<rect x="64.8" y="442.4" class="st14" width="8.1" height="4.1"/>
<rect x="68.4" y="443.3" width="1" height="4.2"/>
<rect x="68.4" y="443.3" class="st15" width="1" height="4.2"/>
<line class="st13" x1="238.9" y1="446.6" x2="238.9" y2="438.4"/>
<path class="st14" d="M238.8,449.7c-1.7,0-3-1.4-3-3c0-1.8,1.4-3.2,3-3.2c1.8,0,3.2,1.4,3.2,3.2C242,448.3,240.6,449.7,238.8,449.7"
	/>
<path d="M238.9,450.3c-2,0-3.7-1.6-3.7-3.7c0-2.2,1.7-3.8,3.7-3.8v1.2c-1.4,0-2.5,1.1-2.5,2.7c0,1.3,1.1,2.5,2.5,2.5V450.3z
	 M238.9,442.8v1.2c1.5,0,2.7,1.1,2.7,2.7c0,1.3-1.1,2.5-2.7,2.5v1.1c2.2,0,3.8-1.6,3.8-3.7S241.1,442.8,238.9,442.8"/>
<rect x="234.9" y="442.4" class="st14" width="8.1" height="4.1"/>
<rect x="238.4" y="443.3" width="1" height="4.2"/>
<rect x="238.4" y="443.3" class="st15" width="1" height="4.2"/>
<rect x="730.7" y="447.5" class="st9" width="3" height="80.5"/>
<line class="st16" x1="732.2" y1="447.5" x2="732.2" y2="528"/>
<line x1="618.4" y1="448.7" x2="618.3" y2="810.2"/>
<line class="st10" x1="618.4" y1="448.7" x2="618.3" y2="810.2"/>
<line class="st17" x1="540.6" y1="194.4" x2="540.6" y2="393.9"/>
<polyline class="st18" points="540.4,146.9 540.4,143.7 540.4,48.1 "/>
<polyline class="st18" points="540.5,167.7 540.5,170.6 540.5,182.9 "/>
<line class="st13" x1="540.6" y1="191.3" x2="540.6" y2="183.1"/>
<path class="st14" d="M540.5,194.4c-1.7,0-3-1.4-3-3c0-1.8,1.4-3.2,3-3.2c1.8,0,3.2,1.4,3.2,3.2C543.7,193,542.3,194.4,540.5,194.4"
	/>
<path d="M540.5,195c-2,0-3.7-1.6-3.7-3.7c0-2.2,1.7-3.8,3.7-3.8v1.2c-1.4,0-2.5,1.1-2.5,2.7c0,1.3,1.1,2.5,2.5,2.5V195z
	 M540.5,187.5v1.2c1.5,0,2.7,1.1,2.7,2.7c0,1.3-1.1,2.5-2.7,2.5v1.1c2.2,0,3.8-1.6,3.8-3.7C544.3,189.2,542.7,187.5,540.5,187.5"/>
<rect x="536.5" y="187.1" class="st14" width="8.1" height="4.1"/>
<rect x="540.1" y="188" width="1" height="4.2"/>
<rect x="540.1" y="188" class="st15" width="1" height="4.2"/>
<line class="st13" x1="540.6" y1="397" x2="540.6" y2="405.2"/>
<path class="st14" d="M540.5,393.9c-1.7,0-3,1.4-3,3c0,1.8,1.4,3.2,3,3.2c1.8,0,3.2-1.4,3.2-3.2
	C543.7,395.3,542.3,393.9,540.5,393.9"/>
<path d="M540.5,394.4c-1.4,0-2.5,1.2-2.5,2.5c0,1.6,1.1,2.7,2.5,2.7v1.2c-2,0-3.7-1.6-3.7-3.8c0-2.1,1.7-3.7,3.7-3.7V394.4z
	 M540.5,400.8c2.2,0,3.8-1.7,3.8-3.8s-1.6-3.7-3.8-3.7v1.1c1.6,0,2.7,1.2,2.7,2.5c0,1.6-1.2,2.7-2.7,2.7V400.8"/>
<rect x="536.5" y="397.1" class="st14" width="8.1" height="4.1"/>
<rect x="540.1" y="396.1" width="1" height="4.2"/>
<rect x="540.1" y="396.1" class="st15" width="1" height="4.2"/>
<line class="st12" x1="618.5" y1="807.4" x2="618.5" y2="810.1"/>
<line class="st12" x1="611.5" y1="810.1" x2="625.3" y2="810.1"/>
<line class="st12" x1="614.3" y1="812.3" x2="622.5" y2="812.3"/>
<line class="st12" x1="620.8" y1="814.4" x2="616" y2="814.4"/>
<line class="st12" x1="725.2" y1="810.1" x2="739.1" y2="810.1"/>
<line class="st12" x1="728.1" y1="812.3" x2="736.2" y2="812.3"/>
<line class="st12" x1="734.6" y1="814.4" x2="729.7" y2="814.4"/>
<line class="st13" x1="732" y1="527.9" x2="732" y2="536.1"/>
<path class="st14" d="M731.9,524.8c-1.7,0-3,1.4-3,3c0,1.8,1.4,3.2,3,3.2c1.8,0,3.2-1.4,3.2-3.2
	C735.1,526.2,733.7,524.8,731.9,524.8"/>
<path d="M732,525.3c-1.4,0-2.5,1.2-2.5,2.5c0,1.6,1.1,2.7,2.5,2.7v1.2c-2,0-3.7-1.6-3.7-3.8c0-2.1,1.7-3.7,3.7-3.7V525.3z
	 M732,531.7c2.2,0,3.8-1.7,3.8-3.8c0-2.1-1.6-3.7-3.8-3.7v1.1c1.6,0,2.7,1.2,2.7,2.5c0,1.6-1.2,2.7-2.7,2.7V531.7"/>
<rect x="728" y="528" class="st14" width="8.1" height="4.1"/>
<rect x="731.5" y="527" width="1" height="4.2"/>
<rect x="731.5" y="527" class="st15" width="1" height="4.2"/>
<line class="st13" x1="732" y1="579" x2="732" y2="570.8"/>
<path class="st14" d="M731.9,582.1c-1.7,0-3-1.4-3-3c0-1.8,1.4-3.2,3-3.2c1.8,0,3.2,1.4,3.2,3.2
	C735.1,580.7,733.7,582.1,731.9,582.1"/>
<path d="M732,582.7c-2,0-3.7-1.6-3.7-3.7c0-2.2,1.7-3.8,3.7-3.8v1.2c-1.4,0-2.5,1.1-2.5,2.7c0,1.3,1.1,2.5,2.5,2.5V582.7z
	 M732,575.2v1.2c1.5,0,2.7,1.1,2.7,2.7c0,1.3-1.1,2.5-2.7,2.5v1.1c2.2,0,3.8-1.6,3.8-3.7S734.2,575.2,732,575.2"/>
<rect x="728" y="574.8" class="st14" width="8.1" height="4.1"/>
<rect x="731.5" y="575.7" width="1" height="4.2"/>
<rect x="731.5" y="575.7" class="st15" width="1" height="4.2"/>
<line class="st13" x1="295.6" y1="579" x2="295.6" y2="570.8"/>
<path class="st14" d="M295.5,582.1c-1.7,0-3-1.4-3-3c0-1.8,1.4-3.2,3-3.2c1.8,0,3.2,1.4,3.2,3.2
	C298.7,580.7,297.3,582.1,295.5,582.1"/>
<path d="M295.5,582.7c-2,0-3.7-1.6-3.7-3.7c0-2.2,1.7-3.8,3.7-3.8v1.2c-1.4,0-2.5,1.1-2.5,2.7c0,1.3,1.1,2.5,2.5,2.5V582.7z
	 M295.5,575.2v1.2c1.5,0,2.7,1.1,2.7,2.7c0,1.3-1.1,2.5-2.7,2.5v1.1c2.2,0,3.8-1.6,3.8-3.7S297.7,575.2,295.5,575.2"/>
<rect x="291.5" y="574.8" class="st14" width="8.1" height="4.1"/>
<rect x="295.1" y="575.7" width="1" height="4.2"/>
<rect x="295.1" y="575.7" class="st15" width="1" height="4.2"/>
<line class="st13" x1="618.4" y1="446.9" x2="618.4" y2="438.7"/>
<path class="st14" d="M618.3,450c-1.7,0-3-1.4-3-3c0-1.8,1.4-3.2,3-3.2c1.8,0,3.2,1.4,3.2,3.2C621.5,448.6,620.1,450,618.3,450"/>
<path d="M618.3,450.6c-2,0-3.7-1.6-3.7-3.7c0-2.2,1.7-3.8,3.7-3.8v1.2c-1.4,0-2.5,1.1-2.5,2.7c0,1.3,1.1,2.5,2.5,2.5V450.6z
	 M618.3,443.1v1.2c1.5,0,2.7,1.1,2.7,2.7c0,1.3-1.1,2.5-2.7,2.5v1.1c2.2,0,3.8-1.6,3.8-3.7S620.5,443.1,618.3,443.1"/>
<rect x="614.3" y="442.7" class="st14" width="8.1" height="4.1"/>
<rect x="617.9" y="443.6" width="1" height="4.2"/>
<rect x="617.9" y="443.6" class="st15" width="1" height="4.2"/>
<line class="st13" x1="732.1" y1="446.9" x2="732.1" y2="438.7"/>
<path class="st14" d="M732,450c-1.7,0-3-1.4-3-3c0-1.8,1.4-3.2,3-3.2c1.8,0,3.2,1.4,3.2,3.2C735.2,448.6,733.8,450,732,450"/>
<path d="M732,450.6c-2,0-3.7-1.6-3.7-3.7c0-2.2,1.7-3.8,3.7-3.8v1.2c-1.4,0-2.5,1.1-2.5,2.7c0,1.3,1.1,2.5,2.5,2.5V450.6z
	 M732,443.1v1.2c1.5,0,2.7,1.1,2.7,2.7c0,1.3-1.1,2.5-2.7,2.5v1.1c2.2,0,3.8-1.6,3.8-3.7S734.2,443.1,732,443.1"/>
<rect x="728" y="442.7" class="st14" width="8.1" height="4.1"/>
<rect x="731.6" y="443.6" width="1" height="4.2"/>
<rect x="731.6" y="443.6" class="st15" width="1" height="4.2"/>
<path class="st19" d="M540.5,163.2c-1.2,0-2.2,1-2.2,2.2s1,2.2,2.2,2.2c1.2,0,2.2-1,2.2-2.2S541.7,163.2,540.5,163.2"/>
<path class="st19" d="M540.5,147.3c-1.2,0-2.2,1-2.2,2.1c0,1.2,1,2.2,2.2,2.2c1.2,0,2.2-0.9,2.2-2.2
	C542.7,148.3,541.7,147.3,540.5,147.3"/>
<path class="st19" d="M539,151.1c-0.1,2.5,0.2,3.2,1.3,4.3c1.2,1.2,2.4,1.7,2.8,3.7c0.4,1.6-0.1,3.5-1.1,4.5"/>
<path class="st19" d="M541.9,163.7c0.2-0.8,0-2.9-0.6-3.7c-0.9-1.2-2.7-2.1-3.3-4c-0.9-2.8,0.7-4.6,1.1-5"/>
<path class="st20" d="M537.6,48.2c0-1.7,1.3-2.8,2.8-2.8c1.6,0,2.9,1.2,2.9,2.8c0,1.5-1.3,2.6-2.9,2.6
	C538.9,50.9,537.6,49.8,537.6,48.2"/>
<path class="st21" d="M537.6,48.2c0-1.7,1.3-2.8,2.8-2.8c1.6,0,2.9,1.2,2.9,2.8c0,1.5-1.3,2.6-2.9,2.6
	C538.9,50.9,537.6,49.8,537.6,48.2z"/>
<path class="st22" d="M537.6,48.2c0-1.7,1.3-2.8,2.8-2.8c1.6,0,2.9,1.2,2.9,2.8c0,1.5-1.3,2.6-2.9,2.6
	C538.9,50.9,537.6,49.8,537.6,48.2"/>
<line class="st23" x1="295.8" y1="448.2" x2="295.8" y2="527"/>
<line class="st13" x1="295.6" y1="446.6" x2="295.6" y2="438.4"/>
<path class="st14" d="M295.5,449.7c-1.7,0-3-1.4-3-3c0-1.8,1.4-3.2,3-3.2c1.8,0,3.2,1.4,3.2,3.2
	C298.7,448.3,297.3,449.7,295.5,449.7"/>
<path d="M295.6,450.3c-2,0-3.7-1.6-3.7-3.7c0-2.2,1.7-3.8,3.7-3.8v1.2c-1.4,0-2.5,1.1-2.5,2.7c0,1.3,1.1,2.5,2.5,2.5V450.3z
	 M295.6,442.8v1.2c1.5,0,2.7,1.1,2.7,2.7c0,1.3-1.1,2.5-2.7,2.5v1.1c2.2,0,3.8-1.6,3.8-3.7S297.8,442.8,295.6,442.8"/>
<rect x="291.6" y="442.4" class="st14" width="8.1" height="4.1"/>
<rect x="295.1" y="443.3" width="1" height="4.2"/>
<rect x="295.1" y="443.3" class="st15" width="1" height="4.2"/>
<line class="st13" x1="295.6" y1="527.9" x2="295.6" y2="536.1"/>
<path class="st14" d="M295.5,524.8c-1.7,0-3,1.4-3,3c0,1.8,1.4,3.2,3,3.2c1.8,0,3.2-1.4,3.2-3.2
	C298.7,526.2,297.3,524.8,295.5,524.8"/>
<path d="M295.5,525.3c-1.4,0-2.5,1.2-2.5,2.5c0,1.6,1.1,2.7,2.5,2.7v1.2c-2,0-3.7-1.6-3.7-3.8c0-2.1,1.7-3.7,3.7-3.7V525.3z
	 M295.5,531.7c2.2,0,3.8-1.7,3.8-3.8c0-2.1-1.6-3.7-3.8-3.7v1.1c1.6,0,2.7,1.2,2.7,2.5c0,1.6-1.2,2.7-2.7,2.7V531.7"/>
<rect x="291.5" y="528" class="st14" width="8.1" height="4.1"/>
<rect x="295.1" y="527" width="1" height="4.2"/>
<rect x="295.1" y="527" class="st15" width="1" height="4.2"/>
<polyline class="st24" points="827.1,580.9 827.1,664.3 733.5,664.3 "/>
<line class="st10" x1="125.5" y1="449.7" x2="125.5" y2="810.2"/>
<line class="st12" x1="118.6" y1="810.1" x2="132.5" y2="810.1"/>
<line class="st12" x1="121.5" y1="812.3" x2="129.6" y2="812.3"/>
<line class="st12" x1="128" y1="814.4" x2="123.1" y2="814.4"/>
<line class="st13" x1="125.5" y1="446.6" x2="125.5" y2="438.4"/>
<path class="st14" d="M125.4,449.7c-1.7,0-3-1.4-3-3c0-1.8,1.4-3.2,3-3.2c1.8,0,3.2,1.4,3.2,3.2
	C128.6,448.3,127.2,449.7,125.4,449.7"/>
<path d="M125.5,450.3c-2,0-3.7-1.6-3.7-3.7c0-2.2,1.7-3.8,3.7-3.8v1.2c-1.4,0-2.5,1.1-2.5,2.7c0,1.3,1.1,2.5,2.5,2.5V450.3z
	 M125.5,442.8v1.2c1.5,0,2.7,1.1,2.7,2.7c0,1.3-1.1,2.5-2.7,2.5v1.1c2.2,0,3.8-1.6,3.8-3.7S127.7,442.8,125.5,442.8"/>
<rect x="121.5" y="442.4" class="st14" width="8.1" height="4.1"/>
<rect x="125" y="443.3" width="1" height="4.2"/>
<rect x="125" y="443.3" class="st15" width="1" height="4.2"/>
<line class="st11" x1="542.1" y1="447.5" x2="542.1" y2="527"/>
<line class="st13" x1="542" y1="527.9" x2="542" y2="536.1"/>
<path class="st14" d="M541.9,524.8c-1.7,0-3,1.4-3,3c0,1.8,1.4,3.2,3,3.2c1.8,0,3.2-1.4,3.2-3.2
	C545.1,526.2,543.7,524.8,541.9,524.8"/>
<path d="M541.9,525.3c-1.4,0-2.5,1.2-2.5,2.5c0,1.6,1.1,2.7,2.5,2.7v1.2c-2,0-3.7-1.6-3.7-3.8c0-2.1,1.7-3.7,3.7-3.7V525.3z
	 M541.9,531.7c2.2,0,3.8-1.7,3.8-3.8c0-2.1-1.6-3.7-3.8-3.7v1.1c1.6,0,2.7,1.2,2.7,2.5c0,1.6-1.2,2.7-2.7,2.7V531.7"/>
<rect x="537.9" y="528" class="st14" width="8.1" height="4.1"/>
<rect x="541.5" y="527" width="1" height="4.2"/>
<rect x="541.5" y="527" class="st15" width="1" height="4.2"/>
<line class="st13" x1="542" y1="579" x2="542" y2="570.8"/>
<path class="st14" d="M541.9,582.1c-1.7,0-3-1.4-3-3c0-1.8,1.4-3.2,3-3.2c1.8,0,3.2,1.4,3.2,3.2
	C545.1,580.7,543.7,582.1,541.9,582.1"/>
<path d="M541.9,582.7c-2,0-3.7-1.6-3.7-3.7c0-2.2,1.7-3.8,3.7-3.8v1.2c-1.4,0-2.5,1.1-2.5,2.7c0,1.3,1.1,2.5,2.5,2.5V582.7z
	 M541.9,575.2v1.2c1.5,0,2.7,1.1,2.7,2.7c0,1.3-1.1,2.5-2.7,2.5v1.1c2.2,0,3.8-1.6,3.8-3.7S544.1,575.2,541.9,575.2"/>
<rect x="537.9" y="574.8" class="st14" width="8.1" height="4.1"/>
<rect x="541.5" y="575.7" width="1" height="4.2"/>
<rect x="541.5" y="575.7" class="st15" width="1" height="4.2"/>
<line class="st13" x1="542" y1="446.9" x2="542" y2="438.7"/>
<path class="st14" d="M541.9,450c-1.7,0-3-1.4-3-3c0-1.8,1.4-3.2,3-3.2c1.8,0,3.2,1.4,3.2,3.2C545.1,448.6,543.7,450,541.9,450"/>
<path d="M542,450.6c-2,0-3.7-1.6-3.7-3.7c0-2.2,1.7-3.8,3.7-3.8v1.2c-1.4,0-2.5,1.1-2.5,2.7c0,1.3,1.1,2.5,2.5,2.5V450.6z
	 M542,443.1v1.2c1.5,0,2.7,1.1,2.7,2.7c0,1.3-1.1,2.5-2.7,2.5v1.1c2.2,0,3.8-1.6,3.8-3.7S544.2,443.1,542,443.1"/>
<rect x="538" y="442.7" class="st14" width="8.1" height="4.1"/>
<rect x="541.5" y="443.6" width="1" height="4.2"/>
<rect x="541.5" y="443.6" class="st15" width="1" height="4.2"/>
<path d="M544.9,664.5c-0.2,1.5-1.4,2.5-2.8,2.5c-1.6,0-2.9-1.2-2.9-2.9c0-1.6,1.4-2.9,3.2-2.7C543.9,661.6,545.1,663,544.9,664.5"/>
<path class="st25" d="M544.9,664.5c-0.2,1.5-1.4,2.5-2.8,2.5c-1.6,0-2.9-1.2-2.9-2.9c0-1.6,1.4-2.9,3.2-2.7
	C543.9,661.6,545.1,663,544.9,664.5z"/>
<line class="st11" x1="827.1" y1="447.5" x2="827.1" y2="527"/>
<line class="st26" x1="827.2" y1="447.5" x2="827.2" y2="527"/>
<line class="st13" x1="827.1" y1="579" x2="827.1" y2="570.8"/>
<path class="st14" d="M827,582.1c-1.7,0-3-1.4-3-3c0-1.8,1.4-3.2,3-3.2c1.8,0,3.2,1.4,3.2,3.2C830.2,580.7,828.8,582.1,827,582.1"/>
<path d="M827,582.7c-2,0-3.7-1.6-3.7-3.7c0-2.2,1.7-3.8,3.7-3.8v1.2c-1.4,0-2.5,1.1-2.5,2.7c0,1.3,1.1,2.5,2.5,2.5V582.7z
	 M827,575.2v1.2c1.5,0,2.7,1.1,2.7,2.7c0,1.3-1.1,2.5-2.7,2.5v1.1c2.2,0,3.8-1.6,3.8-3.7S829.2,575.2,827,575.2"/>
<rect x="823" y="574.8" class="st14" width="8.1" height="4.1"/>
<rect x="826.6" y="575.7" width="1" height="4.2"/>
<rect x="826.6" y="575.7" class="st15" width="1" height="4.2"/>
<line class="st13" x1="827.1" y1="446.9" x2="827.1" y2="438.7"/>
<path class="st14" d="M827,450c-1.7,0-3-1.4-3-3c0-1.8,1.4-3.2,3-3.2c1.8,0,3.2,1.4,3.2,3.2C830.2,448.6,828.8,450,827,450"/>
<path d="M827.1,450.6c-2,0-3.7-1.6-3.7-3.7c0-2.2,1.7-3.8,3.7-3.8v1.2c-1.4,0-2.5,1.1-2.5,2.7c0,1.3,1.1,2.5,2.5,2.5V450.6z
	 M827.1,443.1v1.2c1.5,0,2.7,1.1,2.7,2.7c0,1.3-1.1,2.5-2.7,2.5v1.1c2.2,0,3.8-1.6,3.8-3.7S829.3,443.1,827.1,443.1"/>
<rect x="823.1" y="442.7" class="st14" width="8.1" height="4.1"/>
<rect x="826.6" y="443.6" width="1" height="4.2"/>
<rect x="826.6" y="443.6" class="st15" width="1" height="4.2"/>
<line class="st10" x1="182.2" y1="449.7" x2="182.2" y2="810.2"/>
<line class="st13" x1="182.2" y1="446.6" x2="182.2" y2="438.4"/>
<path class="st14" d="M182.1,449.7c-1.7,0-3-1.4-3-3c0-1.8,1.4-3.2,3-3.2c1.8,0,3.2,1.4,3.2,3.2
	C185.3,448.3,183.9,449.7,182.1,449.7"/>
<path d="M182.2,450.3c-2,0-3.7-1.6-3.7-3.7c0-2.2,1.7-3.8,3.7-3.8v1.2c-1.4,0-2.5,1.1-2.5,2.7c0,1.3,1.1,2.5,2.5,2.5V450.3z
	 M182.2,442.8v1.2c1.5,0,2.7,1.1,2.7,2.7c0,1.3-1.1,2.5-2.7,2.5v1.1c2.2,0,3.8-1.6,3.8-3.7S184.4,442.8,182.2,442.8"/>
<rect x="178.2" y="442.4" class="st14" width="8.1" height="4.1"/>
<rect x="181.7" y="443.3" width="1" height="4.2"/>
<rect x="181.7" y="443.3" class="st15" width="1" height="4.2"/>
<line class="st12" x1="175.3" y1="810.1" x2="189.2" y2="810.1"/>
<line class="st12" x1="178.2" y1="812.3" x2="186.3" y2="812.3"/>
<line class="st12" x1="184.7" y1="814.4" x2="179.8" y2="814.4"/>
<rect x="172.1" y="817.3" class="st14" width="20.3" height="8.2"/>
<rect x="172.5" y="817.7" class="st14" width="19.7" height="7.6"/>
<rect x="172.5" y="817.7" class="st27" width="19.7" height="7.6"/>
<rect x="115.4" y="817.3" class="st14" width="20.3" height="8.2"/>
<rect x="115.8" y="817.7" class="st14" width="19.7" height="7.6"/>
<rect x="115.8" y="817.7" class="st27" width="19.7" height="7.6"/>
<line class="st11" x1="542.1" y1="447.5" x2="542.1" y2="527"/>
<line class="st13" x1="542" y1="527.9" x2="542" y2="536.1"/>
<path class="st14" d="M541.9,524.8c-1.7,0-3,1.4-3,3c0,1.8,1.4,3.2,3,3.2c1.8,0,3.2-1.4,3.2-3.2
	C545.1,526.2,543.7,524.8,541.9,524.8"/>
<path d="M541.9,525.3c-1.4,0-2.5,1.2-2.5,2.5c0,1.6,1.1,2.7,2.5,2.7v1.2c-2,0-3.7-1.6-3.7-3.8c0-2.1,1.7-3.7,3.7-3.7V525.3z
	 M541.9,531.7c2.2,0,3.8-1.7,3.8-3.8c0-2.1-1.6-3.7-3.8-3.7v1.1c1.6,0,2.7,1.2,2.7,2.5c0,1.6-1.2,2.7-2.7,2.7V531.7"/>
<rect x="537.9" y="528" class="st14" width="8.1" height="4.1"/>
<rect x="541.5" y="527" width="1" height="4.2"/>
<rect x="541.5" y="527" class="st15" width="1" height="4.2"/>
<line class="st13" x1="542" y1="446.9" x2="542" y2="438.7"/>
<path class="st14" d="M541.9,450c-1.7,0-3-1.4-3-3c0-1.8,1.4-3.2,3-3.2c1.8,0,3.2,1.4,3.2,3.2C545.1,448.6,543.7,450,541.9,450"/>
<path d="M542,450.6c-2,0-3.7-1.6-3.7-3.7c0-2.2,1.7-3.8,3.7-3.8v1.2c-1.4,0-2.5,1.1-2.5,2.7c0,1.3,1.1,2.5,2.5,2.5V450.6z
	 M542,443.1v1.2c1.5,0,2.7,1.1,2.7,2.7c0,1.3-1.1,2.5-2.7,2.5v1.1c2.2,0,3.8-1.6,3.8-3.7S544.2,443.1,542,443.1"/>
<rect x="538" y="442.7" class="st14" width="8.1" height="4.1"/>
<rect x="541.5" y="443.6" width="1" height="4.2"/>
<rect x="541.5" y="443.6" class="st15" width="1" height="4.2"/>
<line class="st11" x1="827.1" y1="447.5" x2="827.1" y2="527"/>
<line class="st26" x1="827.2" y1="447.5" x2="827.2" y2="527"/>
<line class="st13" x1="827.1" y1="579" x2="827.1" y2="570.8"/>
<path class="st14" d="M827,582.1c-1.7,0-3-1.4-3-3c0-1.8,1.4-3.2,3-3.2c1.8,0,3.2,1.4,3.2,3.2C830.2,580.7,828.8,582.1,827,582.1"/>
<path d="M827,582.7c-2,0-3.7-1.6-3.7-3.7c0-2.2,1.7-3.8,3.7-3.8v1.2c-1.4,0-2.5,1.1-2.5,2.7c0,1.3,1.1,2.5,2.5,2.5V582.7z
	 M827,575.2v1.2c1.5,0,2.7,1.1,2.7,2.7c0,1.3-1.1,2.5-2.7,2.5v1.1c2.2,0,3.8-1.6,3.8-3.7S829.2,575.2,827,575.2"/>
<rect x="823" y="574.8" class="st14" width="8.1" height="4.1"/>
<rect x="826.6" y="575.7" width="1" height="4.2"/>
<rect x="826.6" y="575.7" class="st15" width="1" height="4.2"/>
<line class="st13" x1="827.1" y1="446.9" x2="827.1" y2="438.7"/>
<path class="st14" d="M827,450c-1.7,0-3-1.4-3-3c0-1.8,1.4-3.2,3-3.2c1.8,0,3.2,1.4,3.2,3.2C830.2,448.6,828.8,450,827,450"/>
<path d="M827.1,450.6c-2,0-3.7-1.6-3.7-3.7c0-2.2,1.7-3.8,3.7-3.8v1.2c-1.4,0-2.5,1.1-2.5,2.7c0,1.3,1.1,2.5,2.5,2.5V450.6z
	 M827.1,443.1v1.2c1.5,0,2.7,1.1,2.7,2.7c0,1.3-1.1,2.5-2.7,2.5v1.1c2.2,0,3.8-1.6,3.8-3.7S829.3,443.1,827.1,443.1"/>
<rect x="823.1" y="442.7" class="st14" width="8.1" height="4.1"/>
<rect x="826.6" y="443.6" width="1" height="4.2"/>
<rect x="826.6" y="443.6" class="st15" width="1" height="4.2"/>
<line class="st10" x1="182.2" y1="449.7" x2="182.2" y2="810.2"/>
<line class="st13" x1="182.2" y1="446.6" x2="182.2" y2="438.4"/>
<path class="st14" d="M182.1,449.7c-1.7,0-3-1.4-3-3c0-1.8,1.4-3.2,3-3.2c1.8,0,3.2,1.4,3.2,3.2
	C185.3,448.3,183.9,449.7,182.1,449.7"/>
<path d="M182.2,450.3c-2,0-3.7-1.6-3.7-3.7c0-2.2,1.7-3.8,3.7-3.8v1.2c-1.4,0-2.5,1.1-2.5,2.7c0,1.3,1.1,2.5,2.5,2.5V450.3z
	 M182.2,442.8v1.2c1.5,0,2.7,1.1,2.7,2.7c0,1.3-1.1,2.5-2.7,2.5v1.1c2.2,0,3.8-1.6,3.8-3.7S184.4,442.8,182.2,442.8"/>
<rect x="178.2" y="442.4" class="st14" width="8.1" height="4.1"/>
<rect x="181.7" y="443.3" width="1" height="4.2"/>
<rect x="181.7" y="443.3" class="st15" width="1" height="4.2"/>
<line class="st12" x1="175.3" y1="810.1" x2="189.2" y2="810.1"/>
<line class="st12" x1="178.2" y1="812.3" x2="186.3" y2="812.3"/>
<line class="st12" x1="184.7" y1="814.4" x2="179.8" y2="814.4"/>
<line class="st13" x1="827.1" y1="527.9" x2="827.1" y2="536.1"/>
<path class="st14" d="M827,524.8c-1.7,0-3,1.4-3,3c0,1.8,1.4,3.2,3,3.2c1.8,0,3.2-1.4,3.2-3.2C830.2,526.2,828.8,524.8,827,524.8"/>
<path d="M827,525.3c-1.4,0-2.5,1.2-2.5,2.5c0,1.6,1.1,2.7,2.5,2.7v1.2c-2,0-3.7-1.6-3.7-3.8c0-2.1,1.7-3.7,3.7-3.7V525.3z
	 M827,531.7c2.2,0,3.8-1.7,3.8-3.8c0-2.1-1.6-3.7-3.8-3.7v1.1c1.6,0,2.7,1.2,2.7,2.5c0,1.6-1.2,2.7-2.7,2.7V531.7"/>
<rect x="823" y="528" class="st14" width="8.1" height="4.1"/>
<rect x="826.6" y="527" width="1" height="4.2"/>
<rect x="826.6" y="527" class="st15" width="1" height="4.2"/>
<line x1="675.1" y1="448.7" x2="675" y2="810.2"/>
<line class="st10" x1="675.1" y1="448.7" x2="675" y2="810.2"/>
<line class="st12" x1="675.1" y1="807.4" x2="675.1" y2="810.1"/>
<line class="st12" x1="668.1" y1="810.1" x2="681.9" y2="810.1"/>
<line class="st12" x1="670.9" y1="812.3" x2="679.1" y2="812.3"/>
<line class="st12" x1="677.4" y1="814.4" x2="672.6" y2="814.4"/>
<rect x="664.9" y="817.3" class="st14" width="20.3" height="8.2"/>
<rect x="665.2" y="817.6" class="st14" width="19.7" height="7.6"/>
<rect x="665.2" y="817.6" class="st28" width="19.7" height="7.6"/>
<text transform="matrix(1 0 0 1 667.4283 823.2513)" class="st29 st4 st5">Eb06</text>
<line class="st13" x1="675.4" y1="446.9" x2="675.4" y2="438.7"/>
<path class="st14" d="M675.3,450c-1.7,0-3-1.4-3-3c0-1.8,1.4-3.2,3-3.2c1.8,0,3.2,1.4,3.2,3.2C678.5,448.6,677.1,450,675.3,450"/>
<path d="M675.3,450.6c-2,0-3.7-1.6-3.7-3.7c0-2.2,1.7-3.8,3.7-3.8v1.2c-1.4,0-2.5,1.1-2.5,2.7c0,1.3,1.1,2.5,2.5,2.5V450.6z
	 M675.3,443.1v1.2c1.5,0,2.7,1.1,2.7,2.7c0,1.3-1.1,2.5-2.7,2.5v1.1c2.2,0,3.8-1.6,3.8-3.7S677.5,443.1,675.3,443.1"/>
<rect x="671.3" y="442.7" class="st14" width="8.1" height="4.1"/>
<rect x="674.9" y="443.6" width="1" height="4.2"/>
<rect x="674.9" y="443.6" class="st15" width="1" height="4.2"/>
<polyline class="st10" points="239.2,808.6 257.9,789.9 542.1,789.9 542.1,579.9 "/>
<path d="M544.9,664.5c-0.2,1.5-1.4,2.5-2.8,2.5c-1.6,0-2.9-1.2-2.9-2.9c0-1.6,1.4-2.9,3.2-2.7C543.9,661.6,545.1,663,544.9,664.5"/>
<path class="st25" d="M544.9,664.5c-0.2,1.5-1.4,2.5-2.8,2.5c-1.6,0-2.9-1.2-2.9-2.9c0-1.6,1.4-2.9,3.2-2.7
	C543.9,661.6,545.1,663,544.9,664.5z"/>
<line class="st13" x1="542" y1="579" x2="542" y2="570.8"/>
<path class="st14" d="M541.9,582.1c-1.7,0-3-1.4-3-3c0-1.8,1.4-3.2,3-3.2c1.8,0,3.2,1.4,3.2,3.2
	C545.1,580.7,543.7,582.1,541.9,582.1"/>
<path d="M541.9,582.7c-2,0-3.7-1.6-3.7-3.7c0-2.2,1.7-3.8,3.7-3.8v1.2c-1.4,0-2.5,1.1-2.5,2.7c0,1.3,1.1,2.5,2.5,2.5V582.7z
	 M541.9,575.2v1.2c1.5,0,2.7,1.1,2.7,2.7c0,1.3-1.1,2.5-2.7,2.5v1.1c2.2,0,3.8-1.6,3.8-3.7S544.1,575.2,541.9,575.2"/>
<rect x="537.9" y="574.8" class="st14" width="8.1" height="4.1"/>
<rect x="541.5" y="575.7" width="1" height="4.2"/>
<rect x="541.5" y="575.7" class="st15" width="1" height="4.2"/>
<rect x="54.8" y="466.7" class="st14" width="28.1" height="7.1"/>
<rect x="224.9" y="466.7" class="st14" width="28.1" height="7.1"/>
<g class="st3">
	<g>
		<text transform="matrix(1 0 0 1 61.3198 471.8807)" class="st4 st5">B 2.5</text>
	</g>
</g>
<g class="st3">
	<g>
		<text transform="matrix(1 0 0 1 231.3979 471.8807)" class="st4 st5">B 2.5</text>
	</g>
</g>
<rect x="58.7" y="817.3" class="st14" width="20.3" height="8.2"/>
<rect x="59.1" y="817.7" class="st14" width="19.7" height="7.6"/>
<rect x="59.1" y="817.7" class="st27" width="19.7" height="7.6"/>
<rect x="228.8" y="817.3" class="st14" width="20.3" height="8.2"/>
<rect x="229.2" y="817.7" class="st14" width="19.7" height="7.6"/>
<rect x="229.2" y="817.7" class="st27" width="19.7" height="7.6"/>
<rect x="281.6" y="466.7" class="st14" width="28.1" height="7.1"/>
<g class="st3">
	<g>
		<text transform="matrix(1 0 0 1 282.8071 471.8797)" class="st4 st5">G/B 0.22</text>
	</g>
</g>
<rect x="281.7" y="599.1" class="st14" width="28.1" height="7.1"/>
<g class="st3">
	<g>
		<text transform="matrix(1 0 0 1 286.3628 604.2816)" class="st4 st5">B 0.22</text>
	</g>
</g>
<rect x="280.6" y="742.1" class="st14" width="28.1" height="7.1"/>
<g class="st3">
	<g>
		<text transform="matrix(1 0 0 1 287.0464 747.4662)" class="st4 st5">B 0.75</text>
	</g>
</g>
<rect x="300.9" y="661.4" class="st14" width="25.3" height="5.6"/>
<rect x="300.9" y="661.4" class="st30" width="25.3" height="5.6"/>
<text transform="matrix(1 0 0 1 301.917 666.0834)" class="st4 st5">SP1000</text>
<rect x="300.9" y="661.4" class="st14" width="25.3" height="5.6"/>
<rect x="300.9" y="661.4" class="st30" width="25.3" height="5.6"/>
<text transform="matrix(1 0 0 1 302.0107 666.0834)" class="st4 st5">SP3316</text>
<rect x="718" y="466.7" class="st14" width="28.1" height="7.1"/>
<g class="st3">
	<g>
		<text transform="matrix(1 0 0 1 718.5172 471.8797)" class="st4 st5">W/R 0.35</text>
	</g>
</g>
<rect x="718" y="599.1" class="st14" width="28.1" height="7.1"/>
<g class="st3">
	<g>
		<text transform="matrix(1 0 0 1 722.6275 604.2806)" class="st4 st5">B 0.35</text>
	</g>
</g>
<rect x="534.3" y="215.3" class="st14" width="12.5" height="6"/>
<rect x="534.3" y="215.3" class="st14" width="12.5" height="6"/>
<g class="st3">
	<g>
		<text transform="matrix(1 0 0 1 530.942 220.4681)" class="st4 st5">R 10.0</text>
	</g>
</g>
<rect x="672.2" y="466.7" class="st14" width="6.4" height="6"/>
<g class="st3">
	<g>
		<text transform="matrix(1 0 0 1 666.0093 471.8797)" class="st4 st5">B 2.5</text>
	</g>
</g>
<rect x="615.2" y="466.7" class="st14" width="6.4" height="6"/>
<g class="st3">
	<g>
		<text transform="matrix(1 0 0 1 610.817 471.8807)" class="st4 st5">B 2.5</text>
	</g>
</g>
<rect x="534.3" y="368.1" class="st14" width="12.5" height="6"/>
<g class="st3">
	<g>
		<text transform="matrix(1 0 0 1 530.942 373.2166)" class="st4 st5">R 10.0</text>
	</g>
</g>
<rect x="718" y="742.1" class="st14" width="28.1" height="7.1"/>
<g class="st3">
	<g>
		<text transform="matrix(1 0 0 1 722.6509 747.4662)" class="st4 st5">B 0.75</text>
	</g>
</g>
<rect x="737.4" y="653.3" class="st30" width="25.3" height="6.5"/>
<text transform="matrix(1 0 0 1 738.1134 658.6664)" class="st4 st5">SP2997</text>
<rect x="608.2" y="817.3" class="st14" width="20.3" height="8.2"/>
<rect x="608.5" y="817.6" class="st14" width="19.7" height="7.6"/>
<rect x="608.5" y="817.6" class="st28" width="19.7" height="7.6"/>
<rect x="722.1" y="817.3" class="st14" width="20.3" height="8.2"/>
<rect x="722.4" y="817.7" class="st14" width="19.7" height="7.6"/>
<rect x="722.4" y="817.7" class="st28" width="19.7" height="7.6"/>
<path d="M735,664.5c-0.2,1.5-1.4,2.5-2.8,2.5c-1.6,0-2.9-1.2-2.9-2.9c0-1.6,1.4-2.9,3.2-2.7C734,661.6,735.2,663,735,664.5"/>
<path class="st25" d="M735,664.5c-0.2,1.5-1.4,2.5-2.8,2.5c-1.6,0-2.9-1.2-2.9-2.9c0-1.6,1.4-2.9,3.2-2.7
	C734,661.6,735.2,663,735,664.5z"/>
<path d="M298.5,664.5c-0.2,1.5-1.4,2.5-2.8,2.5c-1.6,0-2.9-1.2-2.9-2.9c0-1.6,1.4-2.9,3.2-2.7C297.5,661.6,298.6,663,298.5,664.5"/>
<path class="st25" d="M298.5,664.5c-0.2,1.5-1.4,2.5-2.8,2.5c-1.6,0-2.9-1.2-2.9-2.9c0-1.6,1.4-2.9,3.2-2.7
	C297.5,661.6,298.6,663,298.5,664.5z"/>
<g class="st3">
	<g>
		<text transform="matrix(1 0 0 1 544.7437 162.6869)" class="st4 st5">100A</text>
	</g>
</g>
<rect x="528" y="466.7" class="st14" width="28.1" height="7.1"/>
<g class="st3">
	<g>
		<text transform="matrix(1 0 0 1 532.2505 471.8797)" class="st4 st5">G 0.13</text>
	</g>
</g>
<rect x="527.9" y="599.1" class="st14" width="28.1" height="7.1"/>
<g class="st3">
	<g>
		<text transform="matrix(1 0 0 1 532.5513 604.2806)" class="st4 st5">B 0.13</text>
	</g>
</g>
<rect x="527.9" y="742.1" class="st14" width="28.1" height="7.1"/>
<g class="st3">
	<g>
		<text transform="matrix(1 0 0 1 534.356 747.4662)" class="st4 st5">B 1.0</text>
	</g>
</g>
<rect x="548" y="661.4" class="st14" width="25.3" height="5.6"/>
<rect x="548" y="661.4" class="st30" width="25.3" height="5.6"/>
<text transform="matrix(1 0 0 1 548.0396 666.6039)" class="st4 st5">SP1000</text>
<rect x="548" y="661.4" class="st14" width="25.3" height="5.6"/>
<rect x="548" y="661.4" class="st30" width="25.3" height="5.6"/>
<text transform="matrix(1 0 0 1 548.0396 666.6039)" class="st4 st5">SP3317</text>
<rect x="813.1" y="466.7" class="st14" width="28.1" height="7.1"/>
<g class="st3">
	<g>
		<text transform="matrix(1 0 0 1 813.3814 471.8797)" class="st4 st5">G/W 0.13</text>
	</g>
</g>
<rect x="813" y="599.1" class="st14" width="28.1" height="7.1"/>
<g class="st3">
	<g>
		<text transform="matrix(1 0 0 1 817.6666 604.2806)" class="st4 st5">B 0.13</text>
	</g>
</g>
<rect x="168.2" y="466.7" class="st14" width="28.1" height="7.1"/>
<g class="st3">
	<g>
		<text transform="matrix(1 0 0 1 172.8545 471.8807)" class="st4 st5">B 0.75</text>
	</g>
</g>
<rect x="111.5" y="466.7" class="st14" width="28.1" height="7.1"/>
<g class="st3">
	<g>
		<text transform="matrix(1 0 0 1 118.0127 471.8807)" class="st4 st5">B 2.5</text>
	</g>
</g>
<rect x="172.1" y="817.3" class="st14" width="20.3" height="8.2"/>
<rect x="172.5" y="817.7" class="st14" width="19.7" height="7.6"/>
<rect x="172.5" y="817.7" class="st27" width="19.7" height="7.6"/>
<rect x="115.4" y="817.3" class="st14" width="20.3" height="8.2"/>
<rect x="115.8" y="817.7" class="st14" width="19.7" height="7.6"/>
<rect x="115.8" y="817.7" class="st27" width="19.7" height="7.6"/>
<text transform="matrix(1 0 0 1 75.4146 445.7005)" class="st29 st4 st5">KG64(E)</text>
<text transform="matrix(1 0 0 1 244.8784 445.7005)" class="st29 st4 st5">KG64(E)</text>
<text transform="matrix(1 0 0 1 61.4585 823.2426)" class="st29 st4 st5">Ek01</text>
<text transform="matrix(1 0 0 1 231.4624 823.2426)" class="st29 st4 st5">Ek05</text>
<text transform="matrix(1 0 0 1 303.0068 445.7005)" class="st29 st4 st5">KG64(J)</text>
<text transform="matrix(1 0 0 1 101.9048 445.7005)" class="st29 st4 st5">-8</text>
<text transform="matrix(1 0 0 1 271.3687 445.7005)" class="st29 st4 st5">-20</text>
<text transform="matrix(1 0 0 1 329.5024 445.7005)" class="st29 st4 st5">-11</text>
<text transform="matrix(1 0 0 1 301.6626 532.9261)" class="st29 st4 st5">K01_1</text>
<text transform="matrix(1 0 0 1 321.2886 532.9261)" class="st29 st4 st5">-12</text>
<text transform="matrix(1 0 0 1 301.6626 579.8763)" class="st29 st4 st5">K01_1</text>
<text transform="matrix(1 0 0 1 321.2886 579.8763)" class="st29 st4 st5">-11</text>
<text transform="matrix(1 0 0 1 546.6851 190.3265)" class="st29 st4 st5">KB46</text>
<text transform="matrix(1 0 0 1 563.3228 190.3265)" class="st29 st4 st5">-A-1</text>
<text transform="matrix(1 0 0 1 568.7222 402.7767)" class="st29 st4 st5">-1</text>
<text transform="matrix(1 0 0 1 546.025 402.7767)" class="st29 st4 st5">KG86A</text>
<text transform="matrix(1 0 0 1 544.5308 156.5165)" class="st29 st4 st5">F4/01</text>
<text transform="matrix(1 0 0 1 706.7278 445.7005)" class="st29 st4 st5">-2</text>
<text transform="matrix(1 0 0 1 649.9309 445.7005)" class="st29 st4 st5">-1</text>
<text transform="matrix(1 0 0 1 681.0728 445.7005)" class="st29 st4 st5">BG86(D)</text>
<text transform="matrix(1 0 0 1 624.6011 445.7005)" class="st29 st4 st5">BG86(D)</text>
<text transform="matrix(1 0 0 1 610.7349 823.2484)" class="st29 st4 st5">Eb08</text>
<text transform="matrix(1 0 0 1 572.9703 162.9003)" class="st29 st4 st5">  </text>
<text transform="matrix(1 0 0 1 738.1138 445.7005)" class="st29 st4 st5">KG86(E)</text>
<text transform="matrix(1 0 0 1 738.1138 532.9261)" class="st29 st4 st5">K02</text>
<text transform="matrix(1 0 0 1 750.983 532.9261)" class="st29 st4 st5">-11</text>
<text transform="matrix(1 0 0 1 738.1138 579.7562)" class="st29 st4 st5">K02</text>
<text transform="matrix(1 0 0 1 750.983 579.7562)" class="st29 st4 st5">-12</text>
<text transform="matrix(1 0 0 1 724.7994 823.2543)" class="st29 st4 st5">Ek04</text>
<text transform="matrix(1 0 0 1 764.4478 445.7064)" class="st29 st4 st5">-45</text>
<text transform="matrix(1 0 0 1 548.0396 445.7064)" class="st29 st4 st5">KG86(E)</text>
<text transform="matrix(1 0 0 1 548.0396 532.933)" class="st29 st4 st5">K68(A)</text>
<text transform="matrix(1 0 0 1 570.1138 532.933)" class="st29 st4 st5">-11</text>
<text transform="matrix(1 0 0 1 548.0396 578.9349)" class="st29 st4 st5">K68(A)</text>
<text transform="matrix(1 0 0 1 570.1138 578.9349)" class="st29 st4 st5">-12</text>
<text transform="matrix(1 0 0 1 574.3736 445.7064)" class="st29 st4 st5">-33</text>
<text transform="matrix(1 0 0 1 833.1578 532.933)" class="st29 st4 st5">K68(B)</text>
<text transform="matrix(1 0 0 1 855.231 532.933)" class="st29 st4 st5">-11</text>
<text transform="matrix(1 0 0 1 833.1578 578.9349)" class="st29 st4 st5">K68(B)</text>
<text transform="matrix(1 0 0 1 855.231 578.9349)" class="st29 st4 st5">-12</text>
<text transform="matrix(1 0 0 1 833.1568 445.7064)" class="st29 st4 st5">KG86(E)</text>
<text transform="matrix(1 0 0 1 859.4908 445.7064)" class="st29 st4 st5">-46</text>
<text transform="matrix(1 0 0 1 188.813 445.7064)" class="st29 st4 st5">BG64(B)</text>
<text transform="matrix(1 0 0 1 174.6294 823.2484)" class="st29 st4 st5">Eb03</text>
<text transform="matrix(1 0 0 1 215.3149 445.7064)" class="st29 st4 st5">-43</text>
<text transform="matrix(1 0 0 1 132.125 445.7064)" class="st29 st4 st5">KG64(E)</text>
<text transform="matrix(1 0 0 1 118.1631 823.2484)" class="st29 st4 st5">Ek03</text>
<text transform="matrix(1 0 0 1 158.627 445.7064)" class="st29 st4 st5">-13</text>
<line class="st10" x1="151.6" y1="206.8" x2="151.6" y2="341"/>
<polyline class="st17" points="115,206.8 115,305.2 76.9,305.2 76.9,205.1 "/>
<polyline class="st31" points="115,206.8 115,305.2 76.9,305.2 76.9,205.1 "/>
<rect x="148.4" y="304.8" class="st14" width="6.4" height="6"/>
<g>
	<text transform="matrix(1 0 0 1 144.0598 309.7464)" class="st4 st5">B 1.0</text>
</g>
<g>
	<g id="GB031_17_">
		<g>
			<g>
				<line class="st12" x1="151.7" y1="339" x2="151.7" y2="341.7"/>
			</g>
			<g>
				<line class="st12" x1="144.7" y1="341.7" x2="158.5" y2="341.7"/>
			</g>
			<g>
				<line class="st12" x1="147.5" y1="343.9" x2="155.7" y2="343.9"/>
			</g>
			<g>
				<line class="st12" x1="154" y1="346" x2="149.2" y2="346"/>
			</g>
		</g>
		<g>
			<rect x="141.3" y="348.5" class="st14" width="20.3" height="8.2"/>
			<rect x="141.6" y="348.8" class="st32" width="19.7" height="7.6"/>
		</g>
	</g>
</g>
<rect x="156.3" y="278.7" class="st33" width="25" height="7.4"/>
<text transform="matrix(1 0 0 1 156.6371 284.1926)" class="st4 st5">SP2777</text>
<path class="st34" d="M154.3,283c0,1.7-1.3,2.9-2.8,2.9c-1.6,0-2.9-1.2-2.9-2.9c0-1.5,1.3-2.7,2.9-2.7
	C153,280.3,154.3,281.5,154.3,283z"/>
<rect x="81.9" y="278.7" class="st33" width="25" height="7.4"/>
<text transform="matrix(1 0 0 1 82.3037 284.1926)" class="st4 st5">SP3215</text>
<path class="st34" d="M79.9,283c0,1.7-1.3,2.9-2.8,2.9c-1.6,0-2.9-1.2-2.9-2.9c0-1.5,1.3-2.7,2.9-2.7
	C78.6,280.3,79.9,281.5,79.9,283z"/>
<text transform="matrix(1 0 0 1 143.9849 354.826)" class="st29 st4 st5">Ek07</text>
<g id="REB_x2C_A3_4_">
	<rect x="64.2" y="120" class="st35" width="265.6" height="76"/>
</g>
<g>
	<line class="st10" x1="201.9" y1="206.5" x2="201.9" y2="394.8"/>
</g>
<g>
	<line class="st16" x1="201.9" y1="206.5" x2="201.9" y2="394.8"/>
</g>
<line class="st36" x1="302.3" y1="206.8" x2="302.3" y2="395.1"/>
<line class="st37" x1="302.3" y1="206.8" x2="302.3" y2="395.1"/>
<line class="st38" x1="302.3" y1="206.8" x2="302.3" y2="395.1"/>
<rect x="309" y="289.8" class="st33" width="25.3" height="5.6"/>
<text transform="matrix(1 0 0 1 309.7297 294.6505)" class="st4 st5">SP1914</text>
<path class="st34" d="M305.4,292.6c0,1.7-1.3,2.9-2.8,2.9c-1.6,0-2.9-1.2-2.9-2.9c0-1.5,1.3-2.7,2.9-2.7
	C304.1,289.9,305.4,291.1,305.4,292.6z"/>
<rect x="208.4" y="289.5" class="st33" width="25.3" height="5.6"/>
<text transform="matrix(1 0 0 1 209.1011 294.3336)" class="st4 st5">SP3222</text>
<path class="st34" d="M204.7,292.3c0,1.7-1.3,2.9-2.8,2.9c-1.6,0-2.9-1.2-2.9-2.9c0-1.5,1.3-2.7,2.9-2.7
	C203.5,289.6,204.7,290.8,204.7,292.3z"/>
<g id="RF22_x2C_A3_5_">
	<g>
		<g>
			<path class="st39" d="M302.2,163.7c-1.2,0-2.2,1-2.2,2.2c0,1.2,1,2.2,2.2,2.2c1.2,0,2.2-1,2.2-2.2
				C304.4,164.7,303.4,163.7,302.2,163.7"/>
		</g>
		<g>
			<path class="st39" d="M302.2,147.9c-1.2,0-2.2,1-2.2,2.1c0,1.2,1,2.2,2.2,2.2c1.2,0,2.2-0.9,2.2-2.2
				C304.4,148.9,303.4,147.9,302.2,147.9"/>
		</g>
		<g>
			<path class="st39" d="M300.7,151.7c-0.1,2.5,0.2,3.2,1.3,4.3c1.2,1.2,2.4,1.7,2.8,3.7c0.4,1.6-0.1,3.5-1.1,4.5"/>
		</g>
		<g>
			<path class="st39" d="M303.6,164.2c0.2-0.8,0-2.9-0.6-3.7c-0.9-1.2-2.7-2.1-3.3-4c-0.9-2.8,0.7-4.6,1.1-5"/>
		</g>
	</g>
</g>
<g id="RF22_x2C_A3_4_">
	<g>
		<g>
			<path class="st39" d="M264.7,163.7c-1.2,0-2.2,1-2.2,2.2c0,1.2,1,2.2,2.2,2.2c1.2,0,2.2-1,2.2-2.2
				C266.9,164.7,265.9,163.7,264.7,163.7"/>
		</g>
		<g>
			<path class="st39" d="M264.7,147.9c-1.2,0-2.2,1-2.2,2.1c0,1.2,1,2.2,2.2,2.2c1.2,0,2.2-0.9,2.2-2.2
				C266.9,148.9,265.9,147.9,264.7,147.9"/>
		</g>
		<g>
			<path class="st39" d="M263.2,151.7c-0.1,2.5,0.2,3.2,1.3,4.3c1.2,1.2,2.4,1.7,2.8,3.7c0.4,1.6-0.1,3.5-1.1,4.5"/>
		</g>
		<g>
			<path class="st39" d="M266.1,164.2c0.2-0.8,0-2.9-0.6-3.7c-0.9-1.2-2.7-2.1-3.3-4c-0.9-2.8,0.7-4.6,1.1-5"/>
		</g>
	</g>
</g>
<g>
	<g>
		<polyline class="st40" points="302.2,168.1 302.2,191.9 302.2,195.9 		"/>
	</g>
</g>
<g>
	<g>
		<polyline class="st40" points="302.2,147.9 302.2,144.1 302.2,80.4 		"/>
	</g>
</g>
<g>
	<g>
		<line class="st40" x1="302.2" y1="204.5" x2="302.2" y2="196.2"/>
	</g>
	<g>
		<path class="st14" d="M302.3,207.5c-1.7,0-3-1.4-3-3c0-1.8,1.4-3.2,3-3.2c1.8,0,3.2,1.4,3.2,3.2
			C305.4,206.1,304.1,207.5,302.3,207.5z"/>
		<path d="M302.3,208.2c-2,0-3.7-1.6-3.7-3.7c0-2.2,1.7-3.8,3.7-3.8v1.1c-1.4,0-2.5,1.1-2.5,2.7c0,1.4,1.1,2.5,2.5,2.5V208.2
			L302.3,208.2z M302.3,200.7v1.1c1.5,0,2.7,1.1,2.7,2.7c0,1.4-1.1,2.5-2.7,2.5v1.1c2.2,0,3.8-1.6,3.8-3.7
			C306.1,202.3,304.4,200.7,302.3,200.7z"/>
	</g>
	<rect x="298.1" y="200.3" class="st14" width="8.5" height="4.1"/>
	<rect x="301.6" y="201.2" width="1" height="4.2"/>
	<rect x="301.6" y="201.2" class="st15" width="1" height="4.2"/>
</g>
<g>
	<g>
		<line class="st40" x1="302.5" y1="397.1" x2="302.5" y2="405.3"/>
	</g>
	<g>
		<path class="st14" d="M302.4,394c1.7,0,3,1.4,3,3c0,1.8-1.4,3.2-3,3.2c-1.8,0-3.2-1.4-3.2-3.2C299.2,395.4,300.6,394,302.4,394z"
			/>
		<path d="M302.4,393.4c2,0,3.7,1.7,3.7,3.7c0,2.2-1.7,3.8-3.7,3.8v-1.1c1.4,0,2.5-1.1,2.5-2.7c0-1.4-1.1-2.5-2.5-2.5V393.4
			L302.4,393.4z M302.4,400.9v-1.1c-1.5,0-2.7-1.1-2.7-2.7c0-1.4,1.1-2.5,2.7-2.5v-1.1c-2.2,0-3.8,1.7-3.8,3.7
			C298.6,399.2,300.2,400.9,302.4,400.9z"/>
	</g>
	<rect x="298.1" y="397.2" class="st14" width="8.5" height="4.1"/>
	<rect x="302" y="396.2" width="1" height="4.2"/>
	<rect x="302" y="396.2" class="st15" width="1" height="4.2"/>
</g>
<rect x="289.9" y="234.6" class="st14" width="25.5" height="6"/>
<g>
	<text transform="matrix(1 0 0 1 287.7091 239.6925)" class="st4 st5">R/W 0.35</text>
</g>
<g>
	<path class="st41" d="M299,80.1c0-1.7,1.3-2.9,2.8-2.9c1.6,0,2.9,1.2,2.9,2.9c0,1.5-1.3,2.7-2.9,2.7C300.3,82.9,299,81.6,299,80.1z
		"/>
	<g>
		<path class="st42" d="M299,80.1c0-1.7,1.3-2.9,2.8-2.9c1.6,0,2.9,1.2,2.9,2.9c0,1.5-1.3,2.7-2.9,2.7C300.3,82.9,299,81.6,299,80.1
			"/>
	</g>
</g>
<g>
	<g>
		<polyline class="st40" points="264.9,147.9 264.9,144.1 264.9,47 		"/>
	</g>
</g>
<g>
	<path class="st41" d="M261.8,46.7c0-1.7,1.3-2.9,2.8-2.9c1.6,0,2.9,1.2,2.9,2.9c0,1.5-1.3,2.7-2.9,2.7
		C263.1,49.5,261.8,48.2,261.8,46.7z"/>
	<g>
		<path class="st42" d="M261.8,46.7c0-1.7,1.3-2.9,2.8-2.9c1.6,0,2.9,1.2,2.9,2.9c0,1.5-1.3,2.7-2.9,2.7
			C263.1,49.5,261.8,48.2,261.8,46.7"/>
	</g>
</g>
<rect x="282.8" y="368.5" class="st14" width="25.7" height="6"/>
<rect x="282.8" y="368.5" class="st14" width="25.5" height="6"/>
<g>
	<text transform="matrix(1 0 0 1 287.7091 373.4452)" class="st4 st5">R/W 0.35</text>
</g>
<g>
	<g>
		<text transform="matrix(1 0 0 1 306.5128 162.0314)" class="st4 st5">7.5A</text>
	</g>
</g>
<g>
	<g>
		<line class="st40" x1="201.8" y1="204.2" x2="201.8" y2="196"/>
	</g>
	<g>
		<path class="st14" d="M201.9,207.3c-1.7,0-3-1.4-3-3c0-1.8,1.4-3.2,3-3.2c1.8,0,3.2,1.4,3.2,3.2
			C205.1,205.9,203.7,207.3,201.9,207.3z"/>
		<path d="M201.9,207.9c-2,0-3.7-1.6-3.7-3.7c0-2.2,1.7-3.8,3.7-3.8v1.1c-1.4,0-2.5,1.1-2.5,2.7c0,1.4,1.1,2.5,2.5,2.5V207.9
			L201.9,207.9z M201.9,200.4v1.1c1.5,0,2.7,1.1,2.7,2.7c0,1.4-1.1,2.5-2.7,2.5v1.1c2.2,0,3.8-1.6,3.8-3.7
			C205.7,202.1,204.1,200.4,201.9,200.4z"/>
	</g>
	<rect x="197.7" y="200" class="st14" width="8.5" height="4.1"/>
	<rect x="201.3" y="200.9" width="1" height="4.2"/>
	<rect x="201.3" y="200.9" class="st15" width="1" height="4.2"/>
</g>
<g>
	<g>
		<line class="st40" x1="202.1" y1="396.8" x2="202.1" y2="405.1"/>
	</g>
	<g>
		<path class="st14" d="M202,393.8c1.7,0,3,1.4,3,3c0,1.8-1.4,3.2-3,3.2c-1.8,0-3.2-1.4-3.2-3.2C198.9,395.2,200.3,393.8,202,393.8z
			"/>
		<path d="M202,393.1c2,0,3.7,1.7,3.7,3.7c0,2.2-1.7,3.8-3.7,3.8v-1.1c1.4,0,2.5-1.1,2.5-2.7c0-1.4-1.1-2.5-2.5-2.5V393.1L202,393.1
			z M202,400.6v-1.1c-1.5,0-2.7-1.1-2.7-2.7c0-1.4,1.1-2.5,2.7-2.5v-1.1c-2.2,0-3.8,1.7-3.8,3.7C198.2,399,199.9,400.6,202,400.6z"
			/>
	</g>
	<rect x="197.7" y="396.9" class="st14" width="8.5" height="4.1"/>
	<rect x="201.7" y="395.9" width="1" height="4.2"/>
	<rect x="201.7" y="395.9" class="st15" width="1" height="4.2"/>
</g>
<rect x="195.7" y="234.9" class="st14" width="12.5" height="6"/>
<g>
	<text transform="matrix(1 0 0 1 187.7764 239.6925)" class="st4 st5">B/R 0.75</text>
</g>
<rect x="145.8" y="234.9" class="st14" width="12.5" height="6"/>
<g>
	<text transform="matrix(1 0 0 1 141.6917 239.6925)" class="st4 st5">B 0.35</text>
</g>
<rect x="109.1" y="234.9" class="st14" width="12.5" height="6"/>
<g>
	<text transform="matrix(1 0 0 1 103.4975 239.6925)" class="st4 st5">R/Gr 0.5</text>
</g>
<rect x="69.4" y="234.9" class="st14" width="12.5" height="6"/>
<g>
	<text transform="matrix(1 0 0 1 63.7327 239.6925)" class="st4 st5">R/Gr 0.5</text>
</g>
<rect x="195.7" y="368.2" class="st14" width="12.5" height="6"/>
<g>
	<text transform="matrix(1 0 0 1 187.7764 373.0109)" class="st4 st5">B/R 0.75</text>
</g>
<g>
	<text transform="matrix(1 0 0 1 306.3092 155.4133)" class="st29 st4 st5">F1/12</text>
</g>
<g id="RF22_x2C_A3_1_">
	<g>
		<g>
			<path class="st39" d="M76.7,163.7c-1.2,0-2.2,1-2.2,2.2c0,1.2,1,2.2,2.2,2.2c1.2,0,2.2-1,2.2-2.2C79,164.7,78,163.7,76.7,163.7"
				/>
		</g>
		<g>
			<path class="st39" d="M76.7,147.9c-1.2,0-2.2,1-2.2,2.1c0,1.2,1,2.2,2.2,2.2c1.2,0,2.2-0.9,2.2-2.2C79,148.9,78,147.9,76.7,147.9
				"/>
		</g>
		<g>
			<path class="st39" d="M75.3,151.7c-0.1,2.5,0.2,3.2,1.3,4.3c1.2,1.2,2.4,1.7,2.8,3.7c0.4,1.6-0.1,3.5-1.1,4.5"/>
		</g>
		<g>
			<path class="st39" d="M78.2,164.2c0.2-0.8,0-2.9-0.6-3.7c-0.9-1.2-2.7-2.1-3.3-4c-0.9-2.8,0.7-4.6,1.1-5"/>
		</g>
	</g>
</g>
<g>
	<g>
		<polyline class="st40" points="76.7,168.1 76.7,191.9 76.7,195.9 		"/>
	</g>
</g>
<g>
	<g>
		<polyline class="st40" points="76.7,147.9 76.7,144.1 76.7,68.7 		"/>
	</g>
</g>
<g>
	<path class="st41" d="M73.6,68.5c0-1.7,1.3-2.9,2.8-2.9c1.6,0,2.9,1.2,2.9,2.9c0,1.5-1.3,2.7-2.9,2.7C74.9,71.2,73.6,70,73.6,68.5z
		"/>
	<g>
		<path class="st42" d="M73.6,68.5c0-1.7,1.3-2.9,2.8-2.9c1.6,0,2.9,1.2,2.9,2.9c0,1.5-1.3,2.7-2.9,2.7C74.9,71.2,73.6,70,73.6,68.5
			"/>
	</g>
</g>
<g>
	<g>
		<text transform="matrix(1 0 0 1 81.1076 162.0314)" class="st4 st5">10A</text>
	</g>
</g>
<g>
	<text transform="matrix(1 0 0 1 80.904 155.4133)" class="st29 st4 st5">F1/25</text>
</g>
<g>
	<g>
		<text transform="matrix(1 0 0 1 268.7393 162.0314)" class="st4 st5">15A</text>
	</g>
</g>
<g>
	<text transform="matrix(1 0 0 1 268.5356 155.4133)" class="st29 st4 st5">F1/31</text>
</g>
<g>
	<text transform="matrix(1 0 0 1 306.4604 203.2332)" class="st29 st4 st5">B1D</text>
</g>
<g>
	<text transform="matrix(1 0 0 1 318.9604 202.9832)" class="st29 st4 st5">-9</text>
</g>
<g>
	<text transform="matrix(1 0 0 1 307.8032 402.4388)" class="st29 st4 st5">BG64(B)</text>
</g>
<g>
	<text transform="matrix(1 0 0 1 332.7729 402.1888)" class="st29 st4 st5">-48</text>
</g>
<g>
	<text transform="matrix(1 0 0 1 206.0894 202.9832)" class="st29 st4 st5">B1C</text>
</g>
<g>
	<text transform="matrix(1 0 0 1 218.5894 202.9832)" class="st29 st4 st5">-5</text>
</g>
<g>
	<g>
		<line class="st40" x1="151.7" y1="204.2" x2="151.7" y2="196"/>
	</g>
	<g>
		<path class="st14" d="M151.8,207.3c-1.7,0-3-1.4-3-3c0-1.8,1.4-3.2,3-3.2c1.8,0,3.2,1.4,3.2,3.2
			C155,205.9,153.6,207.3,151.8,207.3z"/>
		<path d="M151.8,207.9c-2,0-3.7-1.6-3.7-3.7c0-2.2,1.7-3.8,3.7-3.8v1.1c-1.4,0-2.5,1.1-2.5,2.7c0,1.4,1.1,2.5,2.5,2.5V207.9
			L151.8,207.9z M151.8,200.4v1.1c1.5,0,2.7,1.1,2.7,2.7c0,1.4-1.1,2.5-2.7,2.5v1.1c2.2,0,3.8-1.6,3.8-3.7
			C155.6,202.1,153.9,200.4,151.8,200.4z"/>
	</g>
	<rect x="147.6" y="200" class="st14" width="8.5" height="4.1"/>
	<rect x="151.1" y="200.9" width="1" height="4.2"/>
	<rect x="151.1" y="200.9" class="st15" width="1" height="4.2"/>
</g>
<g>
	<text transform="matrix(1 0 0 1 155.9644 202.9832)" class="st29 st4 st5">B1C</text>
</g>
<g>
	<text transform="matrix(1 0 0 1 168.4644 202.9832)" class="st29 st4 st5">-21</text>
</g>
<g>
	<g>
		<line class="st40" x1="115.1" y1="204.2" x2="115.1" y2="196"/>
	</g>
	<g>
		<path class="st14" d="M115.2,207.3c-1.7,0-3-1.4-3-3c0-1.8,1.4-3.2,3-3.2c1.8,0,3.2,1.4,3.2,3.2
			C118.3,205.9,116.9,207.3,115.2,207.3z"/>
		<path d="M115.2,207.9c-2,0-3.7-1.6-3.7-3.7c0-2.2,1.7-3.8,3.7-3.8v1.1c-1.4,0-2.5,1.1-2.5,2.7c0,1.4,1.1,2.5,2.5,2.5V207.9
			L115.2,207.9z M115.2,200.4v1.1c1.5,0,2.7,1.1,2.7,2.7c0,1.4-1.1,2.5-2.7,2.5v1.1c2.2,0,3.8-1.6,3.8-3.7
			C119,202.1,117.3,200.4,115.2,200.4z"/>
	</g>
	<rect x="111" y="200" class="st14" width="8.5" height="4.1"/>
	<rect x="114.5" y="200.9" width="1" height="4.2"/>
	<rect x="114.5" y="200.9" class="st15" width="1" height="4.2"/>
</g>
<g>
	<text transform="matrix(1 0 0 1 119.3394 202.9832)" class="st29 st4 st5">B1C</text>
</g>
<g>
	<text transform="matrix(1 0 0 1 131.8394 202.9832)" class="st29 st4 st5">-14</text>
</g>
<g>
	<g>
		<line class="st40" x1="76.9" y1="204.2" x2="76.9" y2="196"/>
	</g>
	<g>
		<path class="st14" d="M77,207.3c-1.7,0-3-1.4-3-3c0-1.8,1.4-3.2,3-3.2c1.8,0,3.2,1.4,3.2,3.2C80.2,205.9,78.8,207.3,77,207.3z"/>
		<path d="M77,207.9c-2,0-3.7-1.6-3.7-3.7c0-2.2,1.7-3.8,3.7-3.8v1.1c-1.4,0-2.5,1.1-2.5,2.7c0,1.4,1.1,2.5,2.5,2.5V207.9L77,207.9z
			 M77,200.4v1.1c1.5,0,2.7,1.1,2.7,2.7c0,1.4-1.1,2.5-2.7,2.5v1.1c2.2,0,3.8-1.6,3.8-3.7C80.8,202.1,79.1,200.4,77,200.4z"/>
	</g>
	<rect x="72.8" y="200" class="st14" width="8.5" height="4.1"/>
	<rect x="76.4" y="200.9" width="1" height="4.2"/>
	<rect x="76.4" y="200.9" class="st15" width="1" height="4.2"/>
</g>
<g>
	<text transform="matrix(1 0 0 1 81.1724 202.9832)" class="st29 st4 st5">B1C</text>
</g>
<g>
	<text transform="matrix(1 0 0 1 93.6724 202.9832)" class="st29 st4 st5">-33</text>
</g>
<g>
	<text transform="matrix(1 0 0 1 207.4321 402.1888)" class="st29 st4 st5">BG64(B)</text>
</g>
<g>
	<text transform="matrix(1 0 0 1 232.4019 402.1888)" class="st29 st4 st5">-47</text>
</g>
<rect x="127.4" y="146.4" class="st43" width="91.3" height="38.8"/>
<g>
	<line class="st44" x1="205.5" y1="171.8" x2="200.2" y2="161.3"/>
</g>
<g>
	<line class="st45" x1="139.2" y1="166.2" x2="201.2" y2="166.1"/>
</g>
<path class="st14" d="M201.3,160.1c0-0.6-0.5-1.2-1.2-1.2c-0.6,0-1.2,0.5-1.2,1.2c0,0.6,0.5,1.2,1.2,1.2S201.3,160.8,201.3,160.1z"
	/>
<g>
	<path class="st46" d="M201.3,160.1c0-0.6-0.5-1.2-1.2-1.2c-0.6,0-1.2,0.5-1.2,1.2c0,0.6,0.5,1.2,1.2,1.2S201.3,160.8,201.3,160.1"
		/>
</g>
<g>
	<polyline class="st47" points="151.8,196 151.8,172.3 151.8,166.2 151.8,137.7 151.8,126.5 115.1,126.5 115.1,195.9 	"/>
</g>
<path class="st14" d="M203.2,171.8c0-0.6-0.5-1.2-1.2-1.2c-0.6,0-1.2,0.5-1.2,1.2c0,0.6,0.5,1.1,1.2,1.1
	C202.7,172.9,203.2,172.4,203.2,171.8z"/>
<g>
	<path class="st46" d="M203.2,171.8c0-0.6-0.5-1.2-1.2-1.2c-0.6,0-1.2,0.5-1.2,1.2c0,0.6,0.5,1.1,1.2,1.1
		C202.7,172.9,203.2,172.4,203.2,171.8"/>
</g>
<rect x="144.4" y="163.2" class="st48" width="14.2" height="5.7"/>
<g>
	<rect x="135.3" y="161.6" class="st49" width="4" height="8.5"/>
	<g>
		<polyline class="st47" points="137.3,170.3 137.3,177.3 150.6,177.3 		"/>
	</g>
	<g>
		<polyline class="st47" points="137.3,161.5 137.3,155.1 151.5,155.1 		"/>
	</g>
</g>
<g>
	<line class="st49" x1="154.1" y1="163.2" x2="149.3" y2="169.1"/>
</g>
<polyline class="st47" points="200.2,126.5 200.2,155.3 200.2,158.8 "/>
<polyline class="st47" points="202,173.2 202,193.8 202,196.2 "/>
<g>
	<text transform="matrix(1 0 0 1 223.517 162.4907)" class="st4 st5">IG3-2</text>
	<text transform="matrix(1 0 0 1 223.517 170.5491)" class="st4 st5">Relay</text>
</g>
<g>
	<path class="st50" d="M151.7,156.9c-1,0-1.7-0.8-1.7-1.7c0-1,0.7-1.8,1.7-1.8c0.9,0,1.7,0.8,1.7,1.8
		C153.4,156.1,152.6,156.9,151.7,156.9z"/>
	<g>
		<path class="st51" d="M151.7,156.9c-1,0-1.7-0.8-1.7-1.7c0-1,0.7-1.8,1.7-1.8c0.9,0,1.7,0.8,1.7,1.8
			C153.4,156.1,152.6,156.9,151.7,156.9"/>
	</g>
</g>
<g>
	<path class="st50" d="M151.7,179c-1,0-1.7-0.8-1.7-1.7c0-1,0.7-1.8,1.7-1.8c0.9,0,1.7,0.8,1.7,1.8C153.4,178.2,152.6,179,151.7,179
		z"/>
	<g>
		<path class="st51" d="M151.7,179c-1,0-1.7-0.8-1.7-1.7c0-1,0.7-1.8,1.7-1.8c0.9,0,1.7,0.8,1.7,1.8
			C153.4,178.2,152.6,179,151.7,179"/>
	</g>
</g>
<polyline class="st47" points="200.3,126.4 246.9,126.4 246.9,189.3 264.6,189.3 264.6,168.1 "/>
<line class="st52" x1="365" y1="258.6" x2="365" y2="398"/>
<line class="st53" x1="420.5" y1="259.6" x2="420.5" y2="399.1"/>
<g>
	<rect x="413.8" y="367.9" class="st14" width="13.9" height="6"/>
	<g>
		<text transform="matrix(1 0 0 1 412.1273 373.0448)" class="st4 st5">V 0.35</text>
	</g>
</g>
<g>
	<rect x="359.7" y="367.9" class="st14" width="13.9" height="6"/>
	<g>
		<text transform="matrix(1 0 0 1 355.9847 373.0448)" class="st4 st5">P 0.35</text>
	</g>
</g>
<path class="st9" d="M362.6,336.1c-1.8,0-3.2-1.5-3.2-3.5c0-1.9,1.4-3.5,3.2-3.5l59.9,6.9c1.8,0,3.2-1.5,3.2-3.5
	c0-1.9-1.4-3.5-3.2-3.5L362.6,336.1z"/>
<g>
	<text transform="matrix(1 0 0 1 413.8239 410.9353)" class="st4 st8">CAN_L</text>
</g>
<g>
	<text transform="matrix(1 0 0 1 355.9849 410.4561)" class="st4 st8">CAN_H</text>
</g>
<g>
	<text transform="matrix(1 0 0 1 344.1672 246.3232)" class="st4 st5">See Body Network Circuit Diagram</text>
</g>
<path class="st54" d="M424.7,256.4l-0.5-2.1c0,0-0.5-2.5-2.7-2.6h-28.3l0,0l-1.6-2.7l-1.6,2.7c-7.4,0-28.2,0-28.2,0
	c-2.2,0.1-2.7,2.6-2.7,2.6l-0.5,2.1"/>
<g>
	<g>
		<line class="st40" x1="365" y1="397.1" x2="365" y2="405.4"/>
	</g>
	<g>
		<path class="st14" d="M364.9,394.1c1.7,0,3,1.4,3,3c0,1.8-1.4,3.2-3,3.2c-1.8,0-3.2-1.4-3.2-3.2
			C361.7,395.5,363.1,394.1,364.9,394.1z"/>
		<path d="M364.9,393.4c2,0,3.7,1.7,3.7,3.7c0,2.2-1.7,3.8-3.7,3.8v-1.1c1.4,0,2.5-1.1,2.5-2.7c0-1.4-1.1-2.5-2.5-2.5V393.4
			L364.9,393.4z M364.9,400.9v-1.1c-1.5,0-2.7-1.1-2.7-2.7c0-1.4,1.1-2.5,2.7-2.5v-1.1c-2.2,0-3.8,1.7-3.8,3.7
			C361.1,399.3,362.7,400.9,364.9,400.9z"/>
	</g>
	<rect x="360.6" y="397.2" class="st14" width="8.5" height="4.1"/>
	<rect x="364.5" y="396.2" width="1" height="4.2"/>
	<rect x="364.5" y="396.2" class="st15" width="1" height="4.2"/>
</g>
<g>
	<g>
		<line class="st40" x1="420.5" y1="397.1" x2="420.5" y2="405.4"/>
	</g>
	<g>
		<path class="st14" d="M420.4,394.1c1.7,0,3,1.4,3,3c0,1.8-1.4,3.2-3,3.2c-1.8,0-3.2-1.4-3.2-3.2
			C417.2,395.5,418.6,394.1,420.4,394.1z"/>
		<path d="M420.4,393.4c2,0,3.7,1.7,3.7,3.7c0,2.2-1.7,3.8-3.7,3.8v-1.1c1.4,0,2.5-1.1,2.5-2.7c0-1.4-1.1-2.5-2.5-2.5V393.4
			L420.4,393.4z M420.4,400.9v-1.1c-1.5,0-2.7-1.1-2.7-2.7c0-1.4,1.1-2.5,2.7-2.5v-1.1c-2.2,0-3.8,1.7-3.8,3.7
			C416.6,399.3,418.2,400.9,420.4,400.9z"/>
	</g>
	<rect x="416.1" y="397.2" class="st14" width="8.5" height="4.1"/>
	<rect x="420" y="396.2" width="1" height="4.2"/>
	<rect x="420" y="396.2" class="st15" width="1" height="4.2"/>
</g>
<text transform="matrix(1 0 0 1 370.2617 402.4881)" class="st29 st4 st5">G64(G)</text>
<text transform="matrix(1 0 0 1 392.2495 402.4881)" class="st29 st4 st5">-10</text>
<text transform="matrix(1 0 0 1 425.7617 402.4881)" class="st29 st4 st5">G64(G)</text>
<text transform="matrix(1 0 0 1 447.7495 402.4881)" class="st29 st4 st5">-9</text>
<line class="st52" x1="619" y1="258.6" x2="619" y2="398"/>
<line class="st53" x1="674.5" y1="259.6" x2="674.5" y2="399.1"/>
<g>
	<rect x="667.8" y="367.9" class="st14" width="13.9" height="6"/>
	<g>
		<text transform="matrix(1 0 0 1 666.1417 373.0448)" class="st4 st5">V 0.35</text>
	</g>
</g>
<g>
	<rect x="613.7" y="367.9" class="st14" width="13.9" height="6"/>
	<g>
		<text transform="matrix(1 0 0 1 609.9991 373.0448)" class="st4 st5">P 0.35</text>
	</g>
</g>
<path class="st9" d="M616.6,336.1c-1.8,0-3.2-1.5-3.2-3.5c0-1.9,1.4-3.5,3.2-3.5l59.9,6.9c1.8,0,3.2-1.5,3.2-3.5
	c0-1.9-1.4-3.5-3.2-3.5L616.6,336.1z"/>
<g>
	<text transform="matrix(1 0 0 1 667.8383 410.9353)" class="st4 st8">CAN_L</text>
</g>
<g>
	<text transform="matrix(1 0 0 1 609.9994 410.4561)" class="st4 st8">CAN_H</text>
</g>
<path class="st54" d="M678.7,256.4l-0.5-2.1c0,0-0.5-2.5-2.7-2.6h-28.3l0,0l-1.6-2.7l-1.6,2.7c-7.4,0-28.2,0-28.2,0
	c-2.2,0.1-2.7,2.6-2.7,2.6l-0.5,2.1"/>
<g>
	<g>
		<line class="st40" x1="619" y1="397.1" x2="619" y2="405.4"/>
	</g>
	<g>
		<path class="st14" d="M618.9,394.1c1.7,0,3,1.4,3,3c0,1.8-1.4,3.2-3,3.2c-1.8,0-3.2-1.4-3.2-3.2
			C615.7,395.5,617.1,394.1,618.9,394.1z"/>
		<path d="M618.9,393.4c2,0,3.7,1.7,3.7,3.7c0,2.2-1.7,3.8-3.7,3.8v-1.1c1.4,0,2.5-1.1,2.5-2.7c0-1.4-1.1-2.5-2.5-2.5V393.4
			L618.9,393.4z M618.9,400.9v-1.1c-1.5,0-2.7-1.1-2.7-2.7c0-1.4,1.1-2.5,2.7-2.5v-1.1c-2.2,0-3.8,1.7-3.8,3.7
			C615.1,399.3,616.8,400.9,618.9,400.9z"/>
	</g>
	<rect x="614.6" y="397.2" class="st14" width="8.5" height="4.1"/>
	<rect x="618.5" y="396.2" width="1" height="4.2"/>
	<rect x="618.5" y="396.2" class="st15" width="1" height="4.2"/>
</g>
<g>
	<g>
		<line class="st40" x1="674.5" y1="397.1" x2="674.5" y2="405.4"/>
	</g>
	<g>
		<path class="st14" d="M674.4,394.1c1.7,0,3,1.4,3,3c0,1.8-1.4,3.2-3,3.2c-1.8,0-3.2-1.4-3.2-3.2
			C671.2,395.5,672.6,394.1,674.4,394.1z"/>
		<path d="M674.4,393.4c2,0,3.7,1.7,3.7,3.7c0,2.2-1.7,3.8-3.7,3.8v-1.1c1.4,0,2.5-1.1,2.5-2.7c0-1.4-1.1-2.5-2.5-2.5V393.4
			L674.4,393.4z M674.4,400.9v-1.1c-1.5,0-2.7-1.1-2.7-2.7c0-1.4,1.1-2.5,2.7-2.5v-1.1c-2.2,0-3.8,1.7-3.8,3.7
			C670.6,399.3,672.2,400.9,674.4,400.9z"/>
	</g>
	<rect x="670.1" y="397.2" class="st14" width="8.5" height="4.1"/>
	<rect x="674" y="396.2" width="1" height="4.2"/>
	<rect x="674" y="396.2" class="st15" width="1" height="4.2"/>
</g>
<text transform="matrix(1 0 0 1 624.2764 402.4886)" class="st29 st4 st5">G86(H)</text>
<text transform="matrix(1 0 0 1 646.2642 402.4886)" class="st29 st4 st5">-10</text>
<text transform="matrix(1 0 0 1 679.7764 402.4886)" class="st29 st4 st5">G86(H)</text>
<text transform="matrix(1 0 0 1 701.7642 402.4886)" class="st29 st4 st5">-9</text>
<g>
	<g>
		<text transform="matrix(1 0 0 1 123.6482 114.1409)" class="st55 st4 st5"> Front Compartment Distribution Box</text>
	</g>
	<g>
		<text transform="matrix(1 0 0 1 123.6482 121.3408)" class="st55 st4 st5">  </text>
	</g>
</g>
<g>
	<g>
		<text transform="matrix(1 0 0 1 575.817 156.4698)" class="st55 st4 st5">Positive Fuse Box</text>
	</g>
	<g>
		<text transform="matrix(1 0 0 1 575.817 163.6698)" class="st55 st4 st5">  </text>
	</g>
</g>
<g>
	<text transform="matrix(1 0 0 1 603.0545 246.3233)" class="st4 st5">See Body Network Circuit Diagram</text>
</g>
<g id="保险丝名称_8_">
	<text transform="matrix(1 0 0 1 182.0203 410.1134)" class="st50 st4 st8">IG3 Pwer supply</text>
</g>
<text transform="matrix(1 0 0 1 280.9882 410.1135)" class="st50 st4 st8">IG4 Power supply</text>
<g id="保险丝名称_5_">
	<text transform="matrix(1 0 0 1 57.0065 436.5261)" class="st50 st4 st8">Power ground</text>
</g>
<g id="保险丝名称_3_">
	<text transform="matrix(1 0 0 1 227.1345 436.5261)" class="st50 st4 st8">Power ground</text>
</g>
<text transform="matrix(1 0 0 1 266.8296 436.5261)" class="st50 st4 st8">Driver seat belt buckle signal</text>
<g id="保险丝名称_1_">
	<text transform="matrix(1 0 0 1 170.4429 436.5261)" class="st50 st4 st8">Signal ground</text>
</g>
<g id="保险丝名称_2_">
	<text transform="matrix(1 0 0 1 113.7493 436.5261)" class="st50 st4 st8">Power ground</text>
</g>
<g>
	<g id="FB103_3_">
		<g>
			<g id="FB103_16_">
				<text transform="matrix(1 0 0 1 228.9011 424.05)" class="st55 st4 st5">Left Body Controller</text>
			</g>
		</g>
	</g>
</g>
<g>
	<text transform="matrix(1 0 0 1 526.3141 434.8977)" class="st56 st4 st8">Seat belt alarm sensor</text>
</g>
<g>
	<text transform="matrix(1 0 0 1 706.353 434.8977)" class="st56 st4 st8">Acquistion of non system warning signal</text>
</g>
<text transform="matrix(1 0 0 1 529.3232 409.2022)" class="st50 st4 st8">Constant power</text>
<g id="保险丝名称_4_">
	<text transform="matrix(1 0 0 1 607.9455 434.8978)" class="st50 st4 st8">Power ground</text>
</g>
<g id="保险丝名称_6_">
	<text transform="matrix(1 0 0 1 666.7842 434.6447)" class="st50 st4 st8">Power ground</text>
</g>
<g>
	<text transform="matrix(1 0 0 1 798.028 434.6446)" class="st50 st4 st8">Buckle / Alarm signal</text>
</g>
<g id="FB103_2_">
	<g>
		<g id="FB103_4_">
			<text transform="matrix(1 0 0 1 658.975 420.2764)" class="st55 st4 st5">Right Body Controller</text>
		</g>
	</g>
</g>
<text transform="matrix(1 0 0 1 315.8634 561.8149)" class="st50 st4 st8">Driver seat belt </text>
<text transform="matrix(1 0 0 1 315.8634 566.9957)" class="st50 st4 st8">buckle </text>
<g>
	<text transform="matrix(1 0 0 1 309.67 590.4967)" class="st55 st4 st5">Driver Seat </text>
	<text transform="matrix(1 0 0 1 309.67 597.6967)" class="st55 st4 st5">(Ventilation And Heating)</text>
</g>
<text transform="matrix(1 0 0 1 560.7023 564.8522)" class="st50 st4 st8">Middle row left </text>
<text transform="matrix(1 0 0 1 560.7017 569.603)" class="st50 st4 st8">safety belt buckle</text>
<text transform="matrix(1 0 0 1 747.275 561.9012)" class="st50 st4 st8">Front passenger </text>
<text transform="matrix(1 0 0 1 747.3246 567.4065)" class="st50 st4 st8">seat belt buckle</text>
<g>
	<text transform="matrix(1 0 0 1 741.879 589.1448)" class="st57 st4 st5">Front Passenger </text>
	<text transform="matrix(1 0 0 1 741.8795 595.1577)" class="st57 st4 st5">Seat Belt Buckle</text>
</g>
<text transform="matrix(1 0 0 1 843.0103 562.9808)" class="st50 st4 st8">Middle row right  </text>
<text transform="matrix(1 0 0 1 843.0105 569.452)" class="st50 st4 st8">safety belt buckle</text>
<text transform="matrix(1 0 0 1 551.8069 589.1444)" class="st55 st4 st5">Middle Row </text>
<text transform="matrix(1 0 0 1 551.8068 596.1511)" class="st55 st4 st5">Left Seat Cable </text>
<g>
	<text transform="matrix(1 0 0 1 835.0744 587.9579)" class="st55 st4 st5">Middle Row </text>
	<text transform="matrix(1 0 0 1 835.0744 595.158)" class="st55 st4 st5">Right Seat Cable </text>
</g>
</svg>
