<?xml version="1.0" encoding="utf-8"?>
<!-- Generator: Adobe Illustrator 24.0.1, SVG Export Plug-In . SVG Version: 6.00 Build 0)  -->
<svg version="1.1" xmlns="http://www.w3.org/2000/svg" xmlns:xlink="http://www.w3.org/1999/xlink" x="0px" y="0px"
	 viewBox="0 0 661.6 841.9" style="enable-background:new 0 0 661.6 841.9;" xml:space="preserve">
<style type="text/css">
	.st0{fill:none;stroke:#000000;stroke-width:3;stroke-linecap:round;stroke-miterlimit:10;}
	.st1{fill:none;stroke:#FFFFFF;stroke-width:0.5;}
	.st2{fill:#FFFFFF;}
	.st3{fill:none;stroke:#040000;stroke-width:0.25;}
	.st4{font-family:'FZLTHJW--GB1-0';}
	.st5{font-size:6px;}
	.st6{fill:none;stroke:#89438F;stroke-width:3;stroke-linecap:round;stroke-miterlimit:10;}
	.st7{fill:none;stroke:#F29C97;stroke-width:3;stroke-linecap:round;stroke-miterlimit:10;}
	.st8{fill:none;stroke:#000000;stroke-width:0.5;stroke-miterlimit:10;}
	.st9{fill:#DCDDDD;}
	.st10{fill:none;stroke:#000000;stroke-width:0.5;}
	.st11{fill:none;stroke:#000000;}
	.st12{fill:none;stroke:#E60012;stroke-width:3;stroke-linecap:round;stroke-miterlimit:10;}
	.st13{fill:none;stroke:#898989;stroke-linecap:round;stroke-miterlimit:10;}
	.st14{fill:#9FD9F6;}
	.st15{fill:none;stroke:#000000;stroke-width:0.5;stroke-linecap:round;stroke-miterlimit:10;}
	.st16{font-size:4px;}
	.st17{fill:none;stroke:#000000;stroke-linecap:round;stroke-linejoin:round;}
	.st18{fill:none;stroke:#000000;stroke-width:0.75;}
	.st19{fill:none;stroke:#000000;stroke-width:0.6;stroke-linecap:round;stroke-linejoin:round;}
	.st20{fill:none;stroke:#000000;stroke-width:0.72;stroke-linecap:round;stroke-linejoin:round;}
	.st21{fill:none;stroke:#FFFFFF;stroke-width:0.5;stroke-linecap:round;}
	.st22{fill:none;stroke:#FFFFFF;}
	.st23{fill:none;stroke:#000000;stroke-width:1.3;}
	.st24{fill:none;stroke:#000000;stroke-width:0.25;stroke-linecap:round;stroke-linejoin:round;}
	.st25{fill:none;stroke:#000000;stroke-width:0.6001;stroke-linecap:round;stroke-linejoin:round;}
	.st26{fill:none;stroke:#000000;stroke-width:0.6001;stroke-linecap:round;}
	.st27{fill:#005EAD;}
	.st28{fill:#040000;}
	.st29{fill:#065AA1;}
</style>
<g id="图层_1">
	<line class="st0" x1="105.4" y1="438.5" x2="105.3" y2="746.3"/>
	<polyline class="st0" points="155.4,438.5 155.3,525.6 105.4,525.6 	"/>
	<path d="M108.1,525.6c0,1.5-1.2,2.6-2.6,2.6c-1.5,0-2.6-1.2-2.6-2.6c0-1.5,1.2-2.6,2.6-2.6C106.9,522.9,108.1,524.1,108.1,525.6"/>
	<path class="st1" d="M108.1,525.6c0,1.5-1.2,2.6-2.6,2.6c-1.5,0-2.6-1.2-2.6-2.6c0-1.5,1.2-2.6,2.6-2.6
		C106.9,522.9,108.1,524.1,108.1,525.6z"/>
	<rect x="109.3" y="514.7" class="st2" width="24.8" height="7.2"/>
	<rect x="109.3" y="514.7" class="st3" width="24.8" height="7.2"/>
	<text transform="matrix(1 0 0 1 109.8304 520.368)" class="st4 st5">SP2402</text>
	<line class="st6" x1="287.2" y1="439.9" x2="287.2" y2="677"/>
	<line class="st7" x1="226.8" y1="439.9" x2="226.8" y2="675.8"/>
	<path class="st8" d="M289.7,495.3c3.2,0,5.7-1.8,5.7-4.1c0-2.2-2.5-4-5.6-4.1l-64.7,8.1c-3.1-0.1-5.6-1.8-5.6-4.1
		c0-2.2,2.6-4.1,5.7-4.1L289.7,495.3z"/>
	<line class="st6" x1="534.1" y1="439.9" x2="534.1" y2="677"/>
	<line class="st7" x1="473.8" y1="439.9" x2="473.8" y2="675.8"/>
	<path class="st8" d="M536.6,495.3c3.2,0,5.7-1.8,5.7-4.1c0-2.2-2.5-4-5.6-4.1l-64.7,8.1c-3.1-0.1-5.6-1.8-5.6-4.1
		c0-2.2,2.6-4.1,5.7-4.1L536.6,495.3z"/>
	<line class="st6" x1="415.6" y1="439.9" x2="415.6" y2="677"/>
	<line class="st7" x1="355.2" y1="439.9" x2="355.2" y2="675.8"/>
	<path class="st8" d="M418.1,495.3c3.2,0,5.7-1.8,5.7-4.1c0-2.2-2.5-4-5.6-4.1l-64.7,8.1c-3.1-0.1-5.6-1.8-5.6-4.1
		c0-2.2,2.6-4.1,5.7-4.1L418.1,495.3z"/>
	<polyline class="st6" points="287.3,205.4 287.3,364.9 396.7,364.9 408.7,384.4 	"/>
	<polyline class="st7" points="226.8,205.9 226.8,375.4 334.8,375.4 348.3,385.2 	"/>
	<line class="st6" x1="410" y1="383.9" x2="410" y2="232"/>
	<line class="st7" x1="349.6" y1="383.8" x2="349.6" y2="232.4"/>
	<rect x="341.5" y="337.8" class="st2" width="12.1" height="6"/>
	<text transform="matrix(1 0 0 1 339.348 342.8221)" class="st4 st5">P 0.35</text>
	<rect x="400.8" y="338" class="st2" width="13.5" height="6"/>
	<text transform="matrix(1 0 0 1 400.764 343.0203)" class="st4 st5">V 0.35</text>
	<line class="st6" x1="533" y1="383.9" x2="533" y2="232"/>
	<line class="st7" x1="472.6" y1="383.8" x2="472.6" y2="232.4"/>
	<rect x="464.5" y="337.8" class="st2" width="12.1" height="6"/>
	<text transform="matrix(1 0 0 1 462.3485 342.8221)" class="st4 st5">P 0.35</text>
	<rect x="523.8" y="338" class="st2" width="13.5" height="6"/>
	<text transform="matrix(1 0 0 1 523.7645 343.0203)" class="st4 st5">V 0.35</text>
	<path class="st8" d="M412.7,307.6c3.2,0,5.7-1.8,5.7-4.1c0-2.2-2.5-4-5.6-4.1l-64.7,8.1c-3.1-0.1-5.6-1.8-5.6-4.1
		c0-2.2,2.6-4.1,5.7-4.1L412.7,307.6z"/>
	<rect x="220.2" y="337.8" class="st2" width="12.1" height="6"/>
	<text transform="matrix(1 0 0 1 218.035 342.8221)" class="st4 st5">P 0.35</text>
	<rect x="279.5" y="338" class="st2" width="13.5" height="6"/>
	<text transform="matrix(1 0 0 1 277.701 343.0203)" class="st4 st5">V 0.35</text>
	<path class="st8" d="M289.6,307.6c3.2,0,5.7-1.8,5.7-4.1c0-2.2-2.5-4-5.6-4.1l-64.7,8.1c-3.1-0.1-5.6-1.8-5.6-4.1
		c0-2.2,2.6-4.1,5.7-4.1L289.6,307.6z"/>
	<path class="st8" d="M535.7,307.6c3.2,0,5.7-1.8,5.7-4.1c0-2.2-2.5-4-5.6-4.1l-64.7,8.1c-3.1-0.1-5.6-1.8-5.6-4.1
		c0-2.2,2.6-4.1,5.7-4.1L535.7,307.6z"/>
	<g>
		<polyline class="st9" points="50.2,41.9 615.1,41.9 615.1,97.5 50.2,97.5 		"/>
		<g>
			<line class="st10" x1="50.2" y1="47.6" x2="615.1" y2="47.6"/>
			<line class="st11" x1="50.2" y1="41.6" x2="615.1" y2="41.6"/>
			<line class="st10" x1="50.2" y1="58.8" x2="615.1" y2="58.8"/>
			<line class="st10" x1="50.2" y1="69.9" x2="615.1" y2="69.9"/>
			<line class="st10" x1="50.2" y1="81.1" x2="614.9" y2="81.1"/>
			<line class="st10" x1="50.2" y1="92.3" x2="615.1" y2="92.3"/>
			<line class="st11" x1="50.2" y1="97.5" x2="615.1" y2="97.5"/>
		</g>
		<text transform="matrix(1 0 0 1 619.1978 49.6299)" class="st4 st5">30</text>
		<text transform="matrix(1 0 0 1 619.1978 60.7959)" class="st4 st5">IG1</text>
		<text transform="matrix(1 0 0 1 619.1978 72.4209)" class="st4 st5">IG3</text>
		<text transform="matrix(1 0 0 1 619.1978 83.9248)" class="st4 st5">IG4</text>
		<text transform="matrix(1 0 0 1 619.1982 94.3415)" class="st4 st5">ACC</text>
		<g>
			<text transform="matrix(1 0 0 1 39.8281 49.7121)" class="st4 st5">30</text>
			<text transform="matrix(1 0 0 1 36.6641 60.8779)" class="st4 st5">IG1</text>
			<text transform="matrix(1 0 0 1 36.711 72.5029)" class="st4 st5">IG3</text>
			<text transform="matrix(1 0 0 1 36.6172 84.0029)" class="st4 st5">IG4</text>
			<text transform="matrix(1 0 0 1 33.125 93.8362)" class="st4 st5">ACC</text>
		</g>
	</g>
	<line class="st12" x1="105.8" y1="204.3" x2="105.8" y2="384.1"/>
	<line class="st13" x1="105.8" y1="204.3" x2="105.8" y2="384.1"/>
	<rect x="73.4" y="396" class="st14" width="511.3" height="31.9"/>
	<rect x="73.4" y="396" class="st15" width="511.3" height="31.9"/>
	<rect x="216.4" y="162.1" class="st14" width="91.8" height="31.9"/>
	<rect x="216.4" y="162.1" class="st15" width="91.8" height="31.9"/>
	<rect x="458.5" y="685.6" class="st14" width="101.2" height="31.9"/>
	<rect x="458.5" y="685.6" class="st15" width="101.2" height="31.9"/>
	<text transform="matrix(1 0 0 1 221.8143 426.1849)" class="st4 st16">CAN_H</text>
	<text transform="matrix(1 0 0 1 278.7303 426.1849)" class="st4 st16">CAN_L</text>
	<path class="st17" d="M222.4,682.4l0.5,2.1c0,0,0.5,2.5,2.8,2.6h30.1l1.7,2.7l1.6-2.7h30c2.3-0.1,2.8-2.6,2.8-2.6l0.5-2.1"/>
	<rect x="218.8" y="458.7" class="st2" width="12.1" height="6"/>
	<text transform="matrix(1 0 0 1 216.8212 463.9017)" class="st4 st5">P 0.35</text>
	<rect x="277.9" y="458.7" class="st2" width="13.5" height="6"/>
	<text transform="matrix(1 0 0 1 278.1405 463.9017)" class="st4 st5">V 0.35</text>
	<rect x="86.7" y="136.7" class="st9" width="50.9" height="57.3"/>
	<rect x="86.7" y="136.7" class="st15" width="50.9" height="57.3"/>
	<path class="st18" d="M105.7,171c-1.2,0-2.2,1-2.2,2.2c0,1.2,1,2.2,2.2,2.2c1.2,0,2.2-1,2.2-2.2C108,172,107,171,105.7,171"/>
	<path class="st18" d="M105.7,155.2c-1.2,0-2.2,1-2.2,2.1c0,1.2,1,2.2,2.2,2.2c1.2,0,2.2-0.9,2.2-2.2
		C108,156.2,107,155.2,105.7,155.2"/>
	<path class="st18" d="M104.3,159c-0.1,2.5,0.2,3.2,1.3,4.3c1.2,1.2,2.4,1.7,2.8,3.7c0.4,1.6-0.1,3.5-1.1,4.5"/>
	<path class="st18" d="M107.2,171.6c0.2-0.8,0-2.9-0.6-3.7c-0.9-1.2-2.7-2.1-3.3-4c-0.9-2.8,0.7-4.6,1.1-5"/>
	<text transform="matrix(1 0 0 1 110.1019 170.5941)" class="st4 st5">10A</text>
	<rect x="86.5" y="232" class="st2" width="25.5" height="6"/>
	<text transform="matrix(1 0 0 1 93.2523 237.0463)" class="st4 st5">R/Gr 0.5</text>
	<line class="st19" x1="105.7" y1="202.4" x2="105.7" y2="194.1"/>
	<path class="st2" d="M105.8,205.4c-1.7,0-3-1.4-3-3c0-1.8,1.4-3.2,3-3.2c1.8,0,3.2,1.4,3.2,3.2C109,204,107.6,205.4,105.8,205.4"/>
	<path d="M105.8,206.1c-2,0-3.7-1.6-3.7-3.7c0-2.2,1.7-3.8,3.7-3.8v1.1c-1.4,0-2.5,1.1-2.5,2.7c0,1.4,1.1,2.5,2.5,2.5V206.1z
		 M105.8,198.6v1.1c1.5,0,2.7,1.1,2.7,2.7c0,1.4-1.1,2.5-2.7,2.5v1.1c2.2,0,3.8-1.6,3.8-3.7C109.6,200.2,108,198.6,105.8,198.6"/>
	<rect x="101.6" y="198.2" class="st2" width="8.5" height="4.1"/>
	<rect x="105.2" y="199.1" width="1" height="4.2"/>
	<rect x="105.2" y="199.1" class="st20" width="1" height="4.2"/>
	<line class="st19" x1="226.9" y1="202.3" x2="226.9" y2="194.1"/>
	<path class="st2" d="M227,205.4c-1.7,0-3-1.4-3-3c0-1.8,1.4-3.2,3-3.2c1.8,0,3.2,1.4,3.2,3.2C230.1,204,228.7,205.4,227,205.4"/>
	<path d="M227,206c-2,0-3.7-1.6-3.7-3.7c0-2.2,1.7-3.8,3.7-3.8v1.1c-1.4,0-2.5,1.1-2.5,2.7c0,1.4,1.1,2.5,2.5,2.5V206z M227,198.5
		v1.1c1.5,0,2.7,1.1,2.7,2.7c0,1.4-1.1,2.5-2.7,2.5v1.1c2.2,0,3.8-1.6,3.8-3.7C230.8,200.2,229.1,198.5,227,198.5"/>
	<rect x="222.8" y="198.1" class="st2" width="8.5" height="4.1"/>
	<rect x="226.3" y="199" width="1" height="4.2"/>
	<rect x="226.3" y="199" class="st20" width="1" height="4.2"/>
	<line class="st19" x1="287.4" y1="202.3" x2="287.4" y2="194.1"/>
	<path class="st2" d="M287.5,205.4c-1.6,0-3-1.4-3-3c0-1.8,1.4-3.2,3-3.2c1.8,0,3.2,1.4,3.2,3.2C290.6,204,289.2,205.4,287.5,205.4"
		/>
	<path d="M287.5,206c-2,0-3.7-1.6-3.7-3.7c0-2.2,1.7-3.8,3.7-3.8v1.1c-1.4,0-2.5,1.1-2.5,2.7c0,1.4,1.1,2.5,2.5,2.5V206z
		 M287.5,198.5v1.1c1.5,0,2.7,1.1,2.7,2.7c0,1.4-1.1,2.5-2.7,2.5v1.1c2.2,0,3.8-1.6,3.8-3.7C291.3,200.2,289.6,198.5,287.5,198.5"/>
	<rect x="283.3" y="198.1" class="st2" width="8.5" height="4.1"/>
	<rect x="286.8" y="199" width="1" height="4.2"/>
	<rect x="286.8" y="199" class="st20" width="1" height="4.2"/>
	<g>
		<line class="st19" x1="106.1" y1="387.8" x2="106.1" y2="396"/>
		<path class="st2" d="M106,384.7c1.6,0,2.9,1.4,3,3c0,1.8-1.4,3.3-3,3.3c-1.8,0-3.2-1.4-3.2-3.2C102.8,386.1,104.2,384.7,106,384.7
			"/>
		<path d="M106,384.1c2,0,3.7,1.6,3.7,3.7c0,2.2-1.7,3.8-3.7,3.8v-1.1c1.4,0,2.5-1.1,2.5-2.7c0-1.4-1.1-2.5-2.5-2.5V384.1z
			 M106,391.6v-1.1c-1.5,0-2.7-1.1-2.7-2.7c0-1.4,1.1-2.5,2.7-2.5v-1.1c-2.2,0-3.8,1.6-3.8,3.7C102.2,389.9,103.8,391.6,106,391.6"
			/>
		<rect x="101.6" y="387.9" class="st2" width="8.5" height="4.1"/>
		<rect x="105.6" y="386.9" width="1" height="4.2"/>
		<rect x="105.6" y="386.9" class="st20" width="1" height="4.2"/>
	</g>
	<g>
		<line class="st19" x1="349.6" y1="387.8" x2="349.6" y2="396"/>
		<path class="st2" d="M349.6,384.7c1.6,0,2.9,1.4,3,3c0,1.8-1.4,3.3-3,3.3c-1.8,0-3.2-1.4-3.2-3.2
			C346.4,386.1,347.8,384.7,349.6,384.7"/>
		<path d="M349.6,384.1c2,0,3.7,1.6,3.7,3.7c0,2.2-1.7,3.8-3.7,3.8v-1.1c1.4,0,2.5-1.1,2.5-2.7c0-1.4-1.1-2.5-2.5-2.5V384.1z
			 M349.6,391.6v-1.1c-1.5,0-2.7-1.1-2.7-2.7c0-1.4,1.1-2.5,2.7-2.5v-1.1c-2.2,0-3.8,1.6-3.8,3.7
			C345.7,389.9,347.4,391.6,349.6,391.6"/>
		<rect x="345.2" y="387.9" class="st2" width="8.5" height="4.1"/>
		<rect x="349.2" y="386.9" width="1" height="4.2"/>
		<rect x="349.2" y="386.9" class="st20" width="1" height="4.2"/>
	</g>
	<g>
		<line class="st19" x1="408.9" y1="387.8" x2="408.9" y2="396"/>
		<path class="st2" d="M408.9,384.7c1.6,0,2.9,1.4,3,3c0,1.8-1.4,3.3-3,3.3c-1.8,0-3.2-1.4-3.2-3.2
			C405.6,386.1,407.1,384.7,408.9,384.7"/>
		<path d="M408.8,384.1c2,0,3.7,1.6,3.7,3.7c0,2.2-1.7,3.8-3.7,3.8v-1.1c1.4,0,2.5-1.1,2.5-2.7c0-1.4-1.1-2.5-2.5-2.5V384.1z
			 M408.8,391.6v-1.1c-1.5,0-2.7-1.1-2.7-2.7c0-1.4,1.1-2.5,2.7-2.5v-1.1c-2.2,0-3.8,1.6-3.8,3.7C405,389.9,406.7,391.6,408.8,391.6
			"/>
		<rect x="404.5" y="387.9" class="st2" width="8.5" height="4.1"/>
		<rect x="408.4" y="386.9" width="1" height="4.2"/>
		<rect x="408.4" y="386.9" class="st20" width="1" height="4.2"/>
	</g>
	<g>
		<line class="st19" x1="472.7" y1="387.8" x2="472.7" y2="396"/>
		<path class="st2" d="M472.7,384.7c1.6,0,2.9,1.4,3,3c0,1.8-1.4,3.3-3,3.3c-1.8,0-3.2-1.4-3.2-3.2
			C469.5,386.1,470.9,384.7,472.7,384.7"/>
		<path d="M472.7,384.1c2,0,3.7,1.6,3.7,3.7c0,2.2-1.7,3.8-3.7,3.8v-1.1c1.4,0,2.5-1.1,2.5-2.7c0-1.4-1.1-2.5-2.5-2.5V384.1z
			 M472.7,391.6v-1.1c-1.5,0-2.7-1.1-2.7-2.7c0-1.4,1.1-2.5,2.7-2.5v-1.1c-2.2,0-3.8,1.6-3.8,3.7
			C468.8,389.9,470.5,391.6,472.7,391.6"/>
		<rect x="468.3" y="387.9" class="st2" width="8.5" height="4.1"/>
		<rect x="472.3" y="386.9" width="1" height="4.2"/>
		<rect x="472.3" y="386.9" class="st20" width="1" height="4.2"/>
	</g>
	<g>
		<line class="st19" x1="533.2" y1="387.8" x2="533.2" y2="396"/>
		<path class="st2" d="M533.2,384.7c1.6,0,2.9,1.4,3,3c0,1.8-1.4,3.3-3,3.3c-1.8,0-3.2-1.4-3.2-3.2
			C529.9,386.1,531.4,384.7,533.2,384.7"/>
		<path d="M533.1,384.1c2,0,3.7,1.6,3.7,3.7c0,2.2-1.7,3.8-3.7,3.8v-1.1c1.4,0,2.5-1.1,2.5-2.7c0-1.4-1.1-2.5-2.5-2.5V384.1z
			 M533.1,391.6v-1.1c-1.5,0-2.7-1.1-2.7-2.7c0-1.4,1.1-2.5,2.7-2.5v-1.1c-2.2,0-3.8,1.6-3.8,3.7
			C529.3,389.9,530.9,391.6,533.1,391.6"/>
		<rect x="528.8" y="387.9" class="st2" width="8.5" height="4.1"/>
		<rect x="532.7" y="386.9" width="1" height="4.2"/>
		<rect x="532.7" y="386.9" class="st20" width="1" height="4.2"/>
	</g>
	<line class="st8" x1="105.7" y1="155.2" x2="105.7" y2="47.6"/>
	<line class="st8" x1="105.7" y1="194.9" x2="105.7" y2="175.5"/>
	<path d="M102.9,47.7c0-1.7,1.3-2.9,2.8-2.9c1.6,0,2.9,1.2,2.9,2.9c0,1.5-1.3,2.7-2.9,2.7C104.2,50.4,102.9,49.2,102.9,47.7"/>
	<path class="st21" d="M102.9,47.7c0-1.7,1.3-2.9,2.8-2.9c1.6,0,2.9,1.2,2.9,2.9c0,1.5-1.3,2.7-2.9,2.7
		C104.2,50.4,102.9,49.2,102.9,47.7z"/>
	<path class="st22" d="M102.9,47.7c0-1.7,1.3-2.9,2.8-2.9c1.6,0,2.9,1.2,2.9,2.9c0,1.5-1.3,2.7-2.9,2.7
		C104.2,50.4,102.9,49.2,102.9,47.7"/>
	<text transform="matrix(1 0 0 1 342.5668 400.9066)" class="st4 st16">CAN_H</text>
	<text transform="matrix(1 0 0 1 220.199 191.9066)" class="st4 st16">CAN_H</text>
	<text transform="matrix(1 0 0 1 279.699 191.9066)" class="st4 st16">CAN_L</text>
	<text transform="matrix(1 0 0 1 401.954 400.9066)" class="st4 st16">CAN_L</text>
	<g>
		<line class="st19" x1="105.4" y1="436.3" x2="105.4" y2="428"/>
		<path class="st2" d="M105.4,439.3c-1.6,0-2.9-1.4-3-3c0-1.8,1.4-3.3,3-3.3c1.8,0,3.2,1.4,3.2,3.2
			C108.6,437.9,107.2,439.3,105.4,439.3"/>
		<path d="M105.5,439.9c-2,0-3.7-1.6-3.7-3.7c0-2.2,1.7-3.8,3.7-3.8v1.1c-1.4,0-2.5,1.1-2.5,2.7c0,1.4,1.1,2.5,2.5,2.5V439.9z
			 M105.5,432.4v1.1c1.5,0,2.7,1.1,2.7,2.7c0,1.4-1.1,2.5-2.7,2.5v1.1c2.2,0,3.8-1.6,3.8-3.7C109.3,434.1,107.6,432.4,105.5,432.4"
			/>
		<rect x="101.3" y="432.1" class="st2" width="8.5" height="4.1"/>
		<rect x="104.8" y="433" width="1" height="4.2"/>
		<rect x="104.8" y="433" class="st20" width="1" height="4.2"/>
	</g>
	<g>
		<line class="st19" x1="155.4" y1="436.3" x2="155.4" y2="428"/>
		<path class="st2" d="M155.4,439.3c-1.6,0-2.9-1.4-3-3c0-1.8,1.4-3.3,3-3.3c1.8,0,3.2,1.4,3.2,3.2
			C158.7,437.9,157.2,439.3,155.4,439.3"/>
		<path d="M155.5,439.9c-2,0-3.7-1.6-3.7-3.7c0-2.2,1.7-3.8,3.7-3.8v1.1c-1.4,0-2.5,1.1-2.5,2.7c0,1.4,1.1,2.5,2.5,2.5V439.9z
			 M155.5,432.4v1.1c1.5,0,2.7,1.1,2.7,2.7c0,1.4-1.1,2.5-2.7,2.5v1.1c2.2,0,3.8-1.6,3.8-3.7C159.3,434.1,157.7,432.4,155.5,432.4"
			/>
		<rect x="151.3" y="432.1" class="st2" width="8.5" height="4.1"/>
		<rect x="154.9" y="433" width="1" height="4.2"/>
		<rect x="154.9" y="433" class="st20" width="1" height="4.2"/>
	</g>
	<g>
		<line class="st19" x1="226.7" y1="436.3" x2="226.7" y2="428"/>
		<path class="st2" d="M226.7,439.3c-1.6,0-2.9-1.4-3-3c0-1.8,1.4-3.3,3-3.3c1.8,0,3.2,1.4,3.2,3.2
			C230,437.9,228.5,439.3,226.7,439.3"/>
		<path d="M226.8,439.9c-2,0-3.7-1.6-3.7-3.7c0-2.2,1.7-3.8,3.7-3.8v1.1c-1.4,0-2.5,1.1-2.5,2.7c0,1.4,1.1,2.5,2.5,2.5V439.9z
			 M226.8,432.4v1.1c1.5,0,2.7,1.1,2.7,2.7c0,1.4-1.1,2.5-2.7,2.5v1.1c2.2,0,3.8-1.6,3.8-3.7C230.6,434.1,228.9,432.4,226.8,432.4"
			/>
		<rect x="222.6" y="432.1" class="st2" width="8.5" height="4.1"/>
		<rect x="226.1" y="433" width="1" height="4.2"/>
		<rect x="226.1" y="433" class="st20" width="1" height="4.2"/>
	</g>
	<g>
		<line class="st19" x1="287" y1="436.3" x2="287" y2="428"/>
		<path class="st2" d="M287,439.3c-1.6,0-2.9-1.4-3-3c0-1.8,1.4-3.3,3-3.3c1.8,0,3.2,1.4,3.2,3.2C290.3,437.9,288.8,439.3,287,439.3
			"/>
		<path d="M287.1,439.9c-2,0-3.7-1.6-3.7-3.7c0-2.2,1.7-3.8,3.7-3.8v1.1c-1.4,0-2.5,1.1-2.5,2.7c0,1.4,1.1,2.5,2.5,2.5V439.9z
			 M287.1,432.4v1.1c1.5,0,2.7,1.1,2.7,2.7c0,1.4-1.1,2.5-2.7,2.5v1.1c2.2,0,3.8-1.6,3.8-3.7C290.9,434.1,289.3,432.4,287.1,432.4"
			/>
		<rect x="282.9" y="432.1" class="st2" width="8.5" height="4.1"/>
		<rect x="286.5" y="433" width="1" height="4.2"/>
		<rect x="286.5" y="433" class="st20" width="1" height="4.2"/>
	</g>
	<g>
		<line class="st19" x1="473.7" y1="436.3" x2="473.7" y2="428"/>
		<path class="st2" d="M473.7,439.3c-1.6,0-2.9-1.4-3-3c0-1.8,1.4-3.3,3-3.3c1.8,0,3.2,1.4,3.2,3.2
			C476.9,437.9,475.5,439.3,473.7,439.3"/>
		<path d="M473.8,439.9c-2,0-3.7-1.6-3.7-3.7c0-2.2,1.7-3.8,3.7-3.8v1.1c-1.4,0-2.5,1.1-2.5,2.7c0,1.4,1.1,2.5,2.5,2.5V439.9z
			 M473.8,432.4v1.1c1.5,0,2.7,1.1,2.7,2.7c0,1.4-1.1,2.5-2.7,2.5v1.1c2.2,0,3.8-1.6,3.8-3.7C477.6,434.1,475.9,432.4,473.8,432.4"
			/>
		<rect x="469.6" y="432.1" class="st2" width="8.5" height="4.1"/>
		<rect x="473.1" y="433" width="1" height="4.2"/>
		<rect x="473.1" y="433" class="st20" width="1" height="4.2"/>
	</g>
	<g>
		<line class="st19" x1="473.9" y1="677.1" x2="473.9" y2="685.3"/>
		<path class="st2" d="M473.9,674c1.6,0,2.9,1.4,3,3c0,1.8-1.4,3.3-3,3.3c-1.8,0-3.2-1.4-3.2-3.2C470.7,675.4,472.1,674,473.9,674"
			/>
		<path d="M473.8,673.4c2,0,3.7,1.6,3.7,3.7c0,2.2-1.7,3.8-3.7,3.8v-1.1c1.4,0,2.5-1.1,2.5-2.7c0-1.4-1.1-2.5-2.5-2.5V673.4z
			 M473.8,680.9v-1.1c-1.5,0-2.7-1.1-2.7-2.7c0-1.4,1.1-2.5,2.7-2.5v-1.1c-2.2,0-3.8,1.6-3.8,3.7C470,679.2,471.7,680.9,473.8,680.9
			"/>
		<rect x="469.5" y="677.2" class="st2" width="8.5" height="4.1"/>
		<rect x="473.4" y="676.2" width="1" height="4.2"/>
		<rect x="473.4" y="676.2" class="st20" width="1" height="4.2"/>
	</g>
	<g>
		<line class="st19" x1="534.3" y1="677.1" x2="534.3" y2="685.3"/>
		<path class="st2" d="M534.3,674c1.6,0,2.9,1.4,3,3c0,1.8-1.4,3.3-3,3.3c-1.8,0-3.2-1.4-3.2-3.2C531,675.4,532.4,674,534.3,674"/>
		<path d="M534.2,673.4c2,0,3.7,1.6,3.7,3.7c0,2.2-1.7,3.8-3.7,3.8v-1.1c1.4,0,2.5-1.1,2.5-2.7c0-1.4-1.1-2.5-2.5-2.5V673.4z
			 M534.2,680.9v-1.1c-1.5,0-2.7-1.1-2.7-2.7c0-1.4,1.1-2.5,2.7-2.5v-1.1c-2.2,0-3.8,1.6-3.8,3.7C530.4,679.2,532,680.9,534.2,680.9
			"/>
		<rect x="529.9" y="677.2" class="st2" width="8.5" height="4.1"/>
		<rect x="533.8" y="676.2" width="1" height="4.2"/>
		<rect x="533.8" y="676.2" class="st20" width="1" height="4.2"/>
	</g>
	<g>
		<line class="st19" x1="534" y1="436.3" x2="534" y2="428"/>
		<path class="st2" d="M534,439.3c-1.6,0-2.9-1.4-3-3c0-1.8,1.4-3.3,3-3.3c1.8,0,3.2,1.4,3.2,3.2C537.2,437.9,535.8,439.3,534,439.3
			"/>
		<path d="M534,439.9c-2,0-3.7-1.6-3.7-3.7c0-2.2,1.7-3.8,3.7-3.8v1.1c-1.4,0-2.5,1.1-2.5,2.7c0,1.4,1.1,2.5,2.5,2.5V439.9z
			 M534,432.4v1.1c1.5,0,2.7,1.1,2.7,2.7c0,1.4-1.1,2.5-2.7,2.5v1.1c2.2,0,3.8-1.6,3.8-3.7C537.9,434.1,536.2,432.4,534,432.4"/>
		<rect x="529.9" y="432.1" class="st2" width="8.5" height="4.1"/>
		<rect x="533.4" y="433" width="1" height="4.2"/>
		<rect x="533.4" y="433" class="st20" width="1" height="4.2"/>
	</g>
	<g>
		<line class="st19" x1="355.1" y1="436.3" x2="355.1" y2="428"/>
		<path class="st2" d="M355.1,439.3c-1.6,0-2.9-1.4-3-3c0-1.8,1.4-3.3,3-3.3c1.8,0,3.2,1.4,3.2,3.2
			C358.4,437.9,356.9,439.3,355.1,439.3"/>
		<path d="M355.2,439.9c-2,0-3.7-1.6-3.7-3.7c0-2.2,1.7-3.8,3.7-3.8v1.1c-1.4,0-2.5,1.1-2.5,2.7c0,1.4,1.1,2.5,2.5,2.5V439.9z
			 M355.2,432.4v1.1c1.5,0,2.7,1.1,2.7,2.7c0,1.4-1.1,2.5-2.7,2.5v1.1c2.2,0,3.8-1.6,3.8-3.7C359,434.1,357.3,432.4,355.2,432.4"/>
		<rect x="351" y="432.1" class="st2" width="8.5" height="4.1"/>
		<rect x="354.6" y="433" width="1" height="4.2"/>
		<rect x="354.6" y="433" class="st20" width="1" height="4.2"/>
	</g>
	<g>
		<line class="st19" x1="415.4" y1="436.3" x2="415.4" y2="428"/>
		<path class="st2" d="M415.4,439.3c-1.6,0-2.9-1.4-3-3c0-1.8,1.4-3.3,3-3.3c1.8,0,3.2,1.4,3.2,3.2
			C418.7,437.9,417.3,439.3,415.4,439.3"/>
		<path d="M415.5,439.9c-2,0-3.7-1.6-3.7-3.7c0-2.2,1.7-3.8,3.7-3.8v1.1c-1.4,0-2.5,1.1-2.5,2.7c0,1.4,1.1,2.5,2.5,2.5V439.9z
			 M415.5,432.4v1.1c1.5,0,2.7,1.1,2.7,2.7c0,1.4-1.1,2.5-2.7,2.5v1.1c2.2,0,3.8-1.6,3.8-3.7C419.3,434.1,417.7,432.4,415.5,432.4"
			/>
		<rect x="411.3" y="432.1" class="st2" width="8.5" height="4.1"/>
		<rect x="414.9" y="433" width="1" height="4.2"/>
		<rect x="414.9" y="433" class="st20" width="1" height="4.2"/>
	</g>
	<rect x="102.4" y="457.6" class="st2" width="6.4" height="6"/>
	<text transform="matrix(1 0 0 1 99.3944 462.5258)" class="st4 st5">B 0.5</text>
	<rect x="152.4" y="457.6" class="st2" width="6.4" height="6"/>
	<text transform="matrix(1 0 0 1 149.3944 462.5258)" class="st4 st5">B 0.5</text>
	<line class="st23" x1="105.1" y1="745" x2="105.1" y2="747.7"/>
	<line class="st23" x1="98.1" y1="747.7" x2="111.9" y2="747.7"/>
	<line class="st23" x1="100.9" y1="749.9" x2="109.1" y2="749.9"/>
	<line class="st23" x1="107.4" y1="752" x2="102.6" y2="752"/>
	<rect x="94.7" y="754.5" class="st2" width="20.3" height="8.2"/>
	<rect x="95" y="754.8" class="st2" width="19.7" height="7.6"/>
	<rect x="95" y="754.8" class="st24" width="19.7" height="7.6"/>
	<path class="st17" d="M414.9,230.7l-0.5-2.1c0,0-0.5-2.5-2.8-2.6h-30.1l-1.7-2.7l-1.6,2.7h-30c-2.3,0.1-2.8,2.6-2.8,2.6l-0.5,2.1"
		/>
	<text transform="matrix(1 0 0 1 462.3479 421.669)"><tspan x="0" y="0" class="st4 st16">Charging </tspan><tspan x="0" y="4.8" class="st4 st16">sub-network CAN_H</tspan></text>
	<text transform="matrix(1 0 0 1 521.7022 421.6688)"><tspan x="0" y="0" class="st4 st16">Charging </tspan><tspan x="0" y="4.8" class="st4 st16">sub-network CAN_L</tspan></text>
	<text transform="matrix(1 0 0 1 459.4959 690.6403)"><tspan x="0" y="0" class="st4 st16">Charging </tspan><tspan x="0" y="4.8" class="st4 st16">sub-network CAN_H</tspan></text>
	<text transform="matrix(1 0 0 1 515.7667 690.6406)"><tspan x="0" y="0" class="st4 st16">Charging </tspan><tspan x="0" y="4.8" class="st4 st16">sub-network CAN_L</tspan></text>
	<rect x="465.7" y="458.7" class="st2" width="12.1" height="6"/>
	<text transform="matrix(1 0 0 1 463.7517 463.9017)" class="st4 st5">P 0.35</text>
	<rect x="524.8" y="458.7" class="st2" width="13.5" height="6"/>
	<text transform="matrix(1 0 0 1 525.072 463.9017)" class="st4 st5">V 0.35</text>
	<path class="st8" d="M536.6,586.7c3.2,0,5.7-1.8,5.7-4.1c0-2.2-2.5-4-5.6-4.1l-64.7,8.1c-3.1-0.1-5.6-1.8-5.6-4.1
		c0-2.2,2.6-4.1,5.7-4.1L536.6,586.7z"/>
	<rect x="465.7" y="550.2" class="st2" width="12.1" height="6"/>
	<text transform="matrix(1 0 0 1 463.7517 555.3685)" class="st4 st5">P 0.35</text>
	<rect x="524.8" y="550.2" class="st2" width="13.5" height="6"/>
	<text transform="matrix(1 0 0 1 525.072 555.3685)" class="st4 st5">V 0.35</text>
	<path class="st8" d="M536.6,668.1c3.2,0,5.7-1.8,5.7-4.1c0-2.2-2.5-4-5.6-4.1l-64.7,8.1c-3.1-0.1-5.6-1.8-5.6-4.1
		c0-2.2,2.6-4.1,5.7-4.1L536.6,668.1z"/>
	<rect x="465.7" y="631.6" class="st2" width="12.1" height="6"/>
	<text transform="matrix(1 0 0 1 463.7517 636.7427)" class="st4 st5">P 0.35</text>
	<rect x="524.8" y="631.6" class="st2" width="13.5" height="6"/>
	<text transform="matrix(1 0 0 1 525.072 636.7427)" class="st4 st5">V 0.35</text>
	<text transform="matrix(1 0 0 1 350.2291 426.1849)" class="st4 st16">CAN_H</text>
	<text transform="matrix(1 0 0 1 407.1451 426.1849)" class="st4 st16">CAN_L</text>
	<path class="st17" d="M350.8,682.4l0.5,2.1c0,0,0.5,2.5,2.8,2.6h30.1l1.7,2.7l1.6-2.7h30c2.3-0.1,2.8-2.6,2.8-2.6l0.5-2.1"/>
	<text transform="matrix(1 0 0 1 335.1176 699.5697)" class="st4 st5">See Chassis Network Circuit Diagram</text>
	<rect x="347.2" y="458.7" class="st2" width="12.1" height="6"/>
	<text transform="matrix(1 0 0 1 345.235 463.9017)" class="st4 st5">P 0.35</text>
	<rect x="406.3" y="458.7" class="st2" width="13.5" height="6"/>
	<text transform="matrix(1 0 0 1 406.5553 463.9017)" class="st4 st5">V 0.35</text>
	<text transform="matrix(1 0 0 1 467.9413 400.9066)" class="st4 st16">CAN_H</text>
	<text transform="matrix(1 0 0 1 524.954 400.9066)" class="st4 st16">CAN_L</text>
	<path class="st17" d="M537.9,230.7l-0.5-2.1c0,0-0.5-2.5-2.8-2.6h-30.1l-1.7-2.7l-1.6,2.7h-30c-2.3,0.1-2.8,2.6-2.8,2.6l-0.5,2.1"
		/>
	<rect x="86.5" y="337.8" class="st2" width="25.5" height="6"/>
	<text transform="matrix(1 0 0 1 91.8148 342.9256)" class="st4 st5">R/Gr 0.5</text>
	<rect x="102.4" y="695.6" class="st2" width="6.4" height="6"/>
	<text transform="matrix(1 0 0 1 99.3944 700.5092)" class="st4 st5">B 1.0</text>
	<rect x="102.4" y="575.6" class="st2" width="6.4" height="6"/>
	<text transform="matrix(1 0 0 1 99.3944 580.5179)" class="st4 st5">B 0.5</text>
	<path d="M108.1,637.1c0,1.5-1.2,2.6-2.6,2.6c-1.5,0-2.6-1.2-2.6-2.6c0-1.5,1.2-2.6,2.6-2.6C106.9,634.4,108.1,635.6,108.1,637.1"/>
	<path class="st1" d="M108.1,637.1c0,1.5-1.2,2.6-2.6,2.6c-1.5,0-2.6-1.2-2.6-2.6c0-1.5,1.2-2.6,2.6-2.6
		C106.9,634.4,108.1,635.6,108.1,637.1z"/>
	<rect x="110.1" y="633.5" class="st2" width="24.8" height="7.2"/>
	<rect x="110.1" y="633.5" class="st3" width="24.8" height="7.2"/>
	<text transform="matrix(1 0 0 1 110.6531 639.1234)" class="st4 st5">SP2784</text>
	<g>
		<rect x="469.9" y="514.1" class="st2" width="8.5" height="18.8"/>
		<g>
			<g>
				<line class="st25" x1="474.3" y1="524.2" x2="474.3" y2="532.4"/>
			</g>
			<g>
				<line class="st26" x1="474.1" y1="521" x2="474.1" y2="514.5"/>
			</g>
			<g>
				<g>
					<g>
						<path class="st2" d="M474.2,521.1c1.6,0,3.2,1.4,3.2,3.2c0,1.8-1.5,3.2-3.2,3.2c-1.8,0-3.2-1.4-3.2-3.2
							C471,522.5,472.4,521.1,474.2,521.1z"/>
						<path d="M474.2,520.5c2,0,3.7,1.8,3.7,3.8h-1.1c0-1.4-1.1-2.5-2.5-2.5c-1.5,0-2.7,1.1-2.7,2.5h-1.1
							C470.4,522.2,472.1,520.5,474.2,520.5L474.2,520.5z M477.9,524.3h-1.1c0,1.4-1.1,2.5-2.5,2.5c-1.5,0-2.7-1.1-2.7-2.5h-1.1
							c0,2.2,1.6,3.8,3.8,3.8C476.2,528.1,477.9,526.4,477.9,524.3z"/>
					</g>
					<rect x="469.9" y="524.4" class="st2" width="8.5" height="4.1"/>
					<rect x="473.8" y="523.4" width="1" height="4.2"/>
					<rect x="473.8" y="523.4" class="st20" width="1" height="4.2"/>
				</g>
			</g>
		</g>
	</g>
	<g>
		<text transform="matrix(1 0 0 1 480.9496 517.5302)" class="st27 st4 st5">GJB01</text>
	</g>
	<g>
		<text transform="matrix(1 0 0 1 480.9496 524.7295)" class="st27 st4 st5">BJG01</text>
	</g>
	<g>
		<text transform="matrix(1 0 0 1 480.9496 531.9297)" class="st27 st4 st5">-21</text>
	</g>
	<g>
		<rect x="530.1" y="514.1" class="st2" width="8.5" height="18.8"/>
		<g>
			<g>
				<line class="st25" x1="534.5" y1="524.2" x2="534.5" y2="532.4"/>
			</g>
			<g>
				<line class="st26" x1="534.3" y1="521" x2="534.3" y2="514.5"/>
			</g>
			<g>
				<g>
					<g>
						<path class="st2" d="M534.4,521.1c1.6,0,3.2,1.4,3.2,3.2c0,1.8-1.5,3.2-3.2,3.2c-1.8,0-3.2-1.4-3.2-3.2
							C531.2,522.5,532.6,521.1,534.4,521.1z"/>
						<path d="M534.4,520.5c2,0,3.7,1.8,3.7,3.8H537c0-1.4-1.1-2.5-2.5-2.5c-1.5,0-2.7,1.1-2.7,2.5h-1.1
							C530.6,522.2,532.3,520.5,534.4,520.5L534.4,520.5z M538.1,524.3H537c0,1.4-1.1,2.5-2.5,2.5c-1.5,0-2.7-1.1-2.7-2.5h-1.1
							c0,2.2,1.6,3.8,3.8,3.8C536.4,528.1,538.1,526.4,538.1,524.3z"/>
					</g>
					<rect x="530.1" y="524.4" class="st2" width="8.5" height="4.1"/>
					<rect x="534" y="523.4" width="1" height="4.2"/>
					<rect x="534" y="523.4" class="st20" width="1" height="4.2"/>
				</g>
			</g>
		</g>
	</g>
	<g>
		<text transform="matrix(1 0 0 1 541.1881 517.5302)" class="st27 st4 st5">GJB01</text>
	</g>
	<g>
		<text transform="matrix(1 0 0 1 541.1881 524.7295)" class="st27 st4 st5">BJG01</text>
	</g>
	<g>
		<text transform="matrix(1 0 0 1 541.1881 531.9297)" class="st27 st4 st5">-22</text>
	</g>
	<path d="M476,611.7c0,1.5-1.2,2.6-2.6,2.6c-1.5,0-2.6-1.2-2.6-2.6s1.2-2.6,2.6-2.6C474.8,609.1,476,610.3,476,611.7"/>
	<path class="st1" d="M476,611.7c0,1.5-1.2,2.6-2.6,2.6c-1.5,0-2.6-1.2-2.6-2.6s1.2-2.6,2.6-2.6C474.8,609.1,476,610.3,476,611.7z"
		/>
	<rect x="477.7" y="607.2" class="st2" width="24.8" height="7.2"/>
	<rect x="477.7" y="607.2" class="st3" width="24.8" height="7.2"/>
	<text transform="matrix(1 0 0 1 478.2049 612.8134)" class="st4 st5">SP3232</text>
	<path d="M536.8,611.7c0,1.5-1.2,2.6-2.6,2.6c-1.5,0-2.6-1.2-2.6-2.6s1.2-2.6,2.6-2.6C535.7,609.1,536.8,610.3,536.8,611.7"/>
	<path class="st1" d="M536.8,611.7c0,1.5-1.2,2.6-2.6,2.6c-1.5,0-2.6-1.2-2.6-2.6s1.2-2.6,2.6-2.6
		C535.7,609.1,536.8,610.3,536.8,611.7z"/>
	<rect x="538.5" y="607.2" class="st2" width="24.8" height="7.2"/>
	<rect x="538.5" y="607.2" class="st3" width="24.8" height="7.2"/>
	<text transform="matrix(1 0 0 1 539.0382 612.8134)" class="st4 st5">SP3231</text>
	<g id="参见ECAN系统电路图_4_">
		<g id="参见ECAN系统电路图_5_">
			<text transform="matrix(1 0 0 1 316.7289 217.6573)" class="st28 st4 st5">See Intelligent Access Network Circuit Diagram</text>
		</g>
	</g>
	<g id="参见ECAN系统电路图_2_">
		<g id="参见ECAN系统电路图_8_">
			<text transform="matrix(1 0 0 1 462.7612 217.6572)" class="st28 st4 st5">See Body Network Circuit Diagram</text>
		</g>
	</g>
	<g>
		<text transform="matrix(1 0 0 1 95.6368 400.3998)" class="st28 st4 st16">Constant power</text>
	</g>
	<g>
		<text transform="matrix(1 0 0 1 98.2847 426.1849)" class="st28 st4 st16">Ground </text>
	</g>
	<g>
		<text transform="matrix(1 0 0 1 147.3169 426.1849)" class="st28 st4 st16">Ground </text>
	</g>
	<g id="参见ECAN系统电路图_1_">
		<g id="参见ECAN系统电路图_7_">
			<text transform="matrix(1 0 0 1 215.1436 700.5096)" class="st28 st4 st5">See Energy Network Circuit Diagram</text>
		</g>
	</g>
</g>
<g id="图层_2">
	<text transform="matrix(1 0 0 1 477.2704 728.4185)" class="st27 st4 st5">Power Battery Pack</text>
	<text transform="matrix(1 0 0 1 231.0184 435.6996)" class="st27 st4 st5">G03(A)</text>
	<text transform="matrix(1 0 0 1 251.6522 435.8676)" class="st27 st4 st5">-12</text>
	<text transform="matrix(1 0 0 1 291.3661 435.6996)" class="st27 st4 st5">G03(A)</text>
	<text transform="matrix(1 0 0 1 311.9999 435.8676)" class="st27 st4 st5">-13</text>
	<text transform="matrix(1 0 0 1 109.8978 163.976)" class="st27 st4 st5">F2/04</text>
	<text transform="matrix(1 0 0 1 310.2056 179.8736)" class="st27 st4 st5">Terminating Resistor</text>
	<text transform="matrix(1 0 0 1 110.1517 202.4945)" class="st27 st4 st5">G82</text>
	<text transform="matrix(1 0 0 1 122.5116 202.4945)" class="st27 st4 st5">-5</text>
	<text transform="matrix(1 0 0 1 231.2883 202.4945)" class="st27 st4 st5">G82</text>
	<text transform="matrix(1 0 0 1 243.6481 202.4945)" class="st27 st4 st5">-5</text>
	<text transform="matrix(1 0 0 1 291.7883 202.4945)" class="st27 st4 st5">G82</text>
	<text transform="matrix(1 0 0 1 304.1481 202.4945)" class="st27 st4 st5">-5</text>
	<text transform="matrix(1 0 0 1 110.0189 393.1654)" class="st27 st4 st5">G03(A)</text>
	<text transform="matrix(1 0 0 1 130.6527 393.3334)" class="st27 st4 st5">-16</text>
	<text transform="matrix(1 0 0 1 354.2709 392.9974)" class="st27 st4 st5">G03(A)</text>
	<text transform="matrix(1 0 0 1 374.9047 393.1654)" class="st27 st4 st5">-1</text>
	<text transform="matrix(1 0 0 1 414.7147 392.9974)" class="st27 st4 st5">G03(A)</text>
	<text transform="matrix(1 0 0 1 435.349 393.1654)" class="st27 st4 st5">-2</text>
	<text transform="matrix(1 0 0 1 109.6546 435.7601)" class="st27 st4 st5">G03(A)</text>
	<text transform="matrix(1 0 0 1 130.2884 435.9281)" class="st27 st4 st5">-4</text>
	<text transform="matrix(1 0 0 1 159.6546 435.7601)" class="st27 st4 st5">G03(A)</text>
	<text transform="matrix(1 0 0 1 180.5345 435.9281)" class="st27 st4 st5">-5</text>
	<text transform="matrix(1 0 0 1 97.3705 760.4603)" class="st27 st4 st5">Eg01</text>
	<text transform="matrix(1 0 0 1 477.949 435.6996)" class="st27 st4 st5">G03(A)</text>
	<text transform="matrix(1 0 0 1 498.5838 435.8676)" class="st27 st4 st5">-9</text>
	<text transform="matrix(1 0 0 1 477.949 682.3088)" class="st27 st4 st5">BK51</text>
	<text transform="matrix(1 0 0 1 493.3338 682.3088)" class="st27 st4 st5">-15</text>
	<text transform="matrix(1 0 0 1 538.4962 682.3088)" class="st27 st4 st5">BK51</text>
	<text transform="matrix(1 0 0 1 553.881 682.3088)" class="st27 st4 st5">-8</text>
	<text transform="matrix(1 0 0 1 538.2976 435.6996)" class="st27 st4 st5">G03(A)</text>
	<text transform="matrix(1 0 0 1 559.6937 435.8676)" class="st27 st4 st5">-10</text>
	<text transform="matrix(1 0 0 1 359.4322 435.6996)" class="st27 st4 st5">G03(A)</text>
	<text transform="matrix(1 0 0 1 380.067 435.8676)" class="st27 st4 st5">-6</text>
	<text transform="matrix(1 0 0 1 419.7809 435.6996)" class="st27 st4 st5">G03(A)</text>
	<text transform="matrix(1 0 0 1 440.4146 435.8676)" class="st27 st4 st5">-14</text>
	<text transform="matrix(1 0 0 1 477.2704 392.9974)" class="st27 st4 st5">G03(A)</text>
	<g>
		<g>
			<g id="FB103_20_">
				<g>
					<g id="FB103_21_">
						<text transform="matrix(1 0 0 1 270.1053 411.9862)" class="st29 st4 st5">OBD Interface </text>
					</g>
				</g>
			</g>
		</g>
	</g>
	<text transform="matrix(1 0 0 1 497.9052 393.1654)" class="st27 st4 st5">-3</text>
	<text transform="matrix(1 0 0 1 537.7147 392.9974)" class="st27 st4 st5">G03(A)</text>
	<text transform="matrix(1 0 0 1 558.3485 393.1654)" class="st27 st4 st5">-11</text>
	<g>
		<text transform="matrix(1 0 0 1 109.3943 133.2717)" class="st29 st4 st5">Instrument Distribution Box</text>
	</g>
</g>
</svg>
