<?xml version="1.0" encoding="utf-8"?>
<!-- Generator: Adobe Illustrator 24.0.1, SVG Export Plug-In . SVG Version: 6.00 Build 0)  -->
<svg version="1.1" id="块体" xmlns="http://www.w3.org/2000/svg" xmlns:xlink="http://www.w3.org/1999/xlink" x="0px" y="0px"
	 viewBox="0 0 1284.1 841.9" style="enable-background:new 0 0 1284.1 841.9;" xml:space="preserve">
<style type="text/css">
	.st0{fill:#9CD2ED;stroke:#000000;stroke-width:0.5;stroke-linecap:round;stroke-miterlimit:10;}
	.st1{fill:none;stroke:#F29C97;stroke-width:3;stroke-miterlimit:10;}
	.st2{fill:none;stroke:#89438F;stroke-width:3;stroke-miterlimit:10;}
	.st3{fill:none;stroke:#231815;stroke-width:0.5;stroke-miterlimit:10;}
	.st4{fill:none;stroke:#000000;stroke-width:0.6;stroke-linejoin:round;}
	.st5{fill:#FFFFFF;}
	.st6{fill:none;stroke:#000000;stroke-width:0.72;stroke-linecap:round;stroke-linejoin:round;}
	.st7{font-family:'FZLTHJW--GB1-0';}
	.st8{font-size:4px;}
	.st9{fill:#005EAD;}
	.st10{font-size:6px;}
	.st11{fill:#040000;}
	.st12{fill:#FFFFFF;stroke:#040000;stroke-width:0.25;}
	.st13{font-size:5.8895px;}
	.st14{fill:#040000;stroke:#FFFFFF;stroke-width:0.5;}
	.st15{fill:none;stroke:#000000;stroke-width:0.6001;stroke-linecap:round;stroke-linejoin:round;}
	.st16{fill:none;stroke:#000000;stroke-width:0.6001;stroke-linecap:round;}
	.st17{fill:#CBCBCB;}
	.st18{fill:none;stroke:#080102;stroke-width:0.5;}
	.st19{fill:none;stroke:#080102;}
	.st20{fill:#080102;}
</style>
<g id="_x30_1-曲线图框_2_">
	<path class="st0" d="M151.5,767.8H70.3v-25.9h81.2c0,0-4.9,7.6,0,13C156.4,760.2,151.5,767.8,151.5,767.8z"/>
</g>
<polyline class="st1" points="765.6,732 765.6,528.4 555.3,527.4 555.3,732 "/>
<polyline class="st1" points="893.3,732 893.3,508.4 649.2,507.4 629.6,527.6 "/>
<polyline class="st2" points="950,732 950,563.1 706.4,563.1 686.3,584.2 "/>
<polyline class="st1" points="425.2,732 425.2,507.9 612.1,508.9 629.6,527.6 "/>
<polyline class="st2" points="368.5,732 368.5,563.5 667,563.5 686.3,584.2 "/>
<polyline class="st2" points="81.4,733.7 81.4,510.7 206.4,510.7 224.7,491.9 "/>
<polyline class="st2" points="81.4,167.2 81.4,472 207.4,472 224.7,491.9 "/>
<polyline class="st1" points="138.1,736.3 138.1,452.1 263,452.1 281.3,434.7 "/>
<polyline class="st1" points="138.1,167.2 138.1,415.3 263.6,415.3 281.1,434.7 "/>
<line class="st2" x1="686.3" y1="169.3" x2="686.3" y2="732.6"/>
<polyline class="st2" points="224.4,169.3 224.4,491.9 559.3,491.9 559.3,168.8 "/>
<polyline class="st2" points="419,168.8 419,472 242.1,472 224.7,491.9 "/>
<polyline class="st1" points="502.6,168.8 502.6,434.4 502.6,434.7 281.1,434.7 281.1,169.3 "/>
<polyline class="st2" points="822.3,732 822.3,584.3 498.6,584.3 498.6,732 "/>
<line class="st2" x1="224.4" y1="733.7" x2="224.4" y2="492.1"/>
<line class="st1" x1="281.1" y1="736.3" x2="281.1" y2="433.6"/>
<g id="_x30_1-曲线图框_16_">
	<path class="st0" d="M428.2,159.3h-77v-25.9h77c0,0-4.7,7.6,0,13C432.9,151.7,428.2,159.3,428.2,159.3z"/>
</g>
<g id="_x30_1-曲线图框_7_">
	<path class="st0" d="M290.2,159.1h-77v-25.9h77c0,0-4.7,7.6,0,13C294.9,151.5,290.2,159.1,290.2,159.1z"/>
</g>
<polyline class="st1" points="362.3,168.8 362.3,415.1 299.7,415.1 281.3,434.7 "/>
<path class="st3" d="M284.4,252.2c2.4,0,4.3-2,4.3-4.6s-1.8-4.6-4.2-4.6l-63.7,9.4c-2.4-0.1-4.2-2.2-4.2-4.6c0-2.6,1.9-4.6,4.3-4.6
	L284.4,252.2z"/>
<g id="_x30_2-上针脚_32_">
	<line class="st4" x1="362.4" y1="167.3" x2="362.4" y2="159.1"/>
	<path class="st5" d="M362.3,170.4c-1.7,0-3-1.4-3-3c0-1.8,1.4-3.2,3-3.2c1.8,0,3.2,1.4,3.2,3.2C365.5,169,364.1,170.4,362.3,170.4"
		/>
	<path d="M362.3,171c-2,0-3.7-1.6-3.7-3.7c0-2.2,1.7-3.8,3.7-3.8v1.2c-1.4,0-2.5,1.1-2.5,2.7c0,1.3,1.1,2.5,2.5,2.5V171z
		 M362.3,163.5v1.2c1.5,0,2.7,1.1,2.7,2.7c0,1.3-1.1,2.5-2.7,2.5v1.1c2.2,0,3.8-1.6,3.8-3.7C366.1,165.2,364.5,163.5,362.3,163.5"/>
	<rect x="358.3" y="163.1" class="st5" width="8.1" height="4.1"/>
	<rect x="361.9" y="164" width="1" height="4.2"/>
	<rect x="361.9" y="164" class="st6" width="1" height="4.2"/>
</g>
<g id="_x30_2-上针脚_31_">
	<line class="st4" x1="419.1" y1="167.3" x2="419.1" y2="159.1"/>
	<path class="st5" d="M419,170.4c-1.7,0-3-1.4-3-3c0-1.8,1.4-3.2,3-3.2c1.8,0,3.2,1.4,3.2,3.2C422.2,169,420.8,170.4,419,170.4"/>
	<path d="M419,171c-2,0-3.7-1.6-3.7-3.7c0-2.2,1.7-3.8,3.7-3.8v1.2c-1.4,0-2.5,1.1-2.5,2.7c0,1.3,1.1,2.5,2.5,2.5V171z M419,163.5
		v1.2c1.5,0,2.7,1.1,2.7,2.7c0,1.3-1.1,2.5-2.7,2.5v1.1c2.2,0,3.8-1.6,3.8-3.7C422.8,165.2,421.2,163.5,419,163.5"/>
	<rect x="415" y="163.1" class="st5" width="8.1" height="4.1"/>
	<rect x="418.6" y="164" width="1" height="4.2"/>
	<rect x="418.6" y="164" class="st6" width="1" height="4.2"/>
</g>
<g>
	<text transform="matrix(1 0 0 1 356.1304 155.7576)" class="st7 st8">CAN_H</text>
	<text transform="matrix(1 0 0 1 410.8804 155.7576)" class="st7 st8">CAN_L</text>
</g>
<g id="_x30_2-上针脚_16_">
	<line class="st4" x1="224.4" y1="167.3" x2="224.4" y2="159.1"/>
	<path class="st5" d="M224.3,170.4c-1.7,0-3-1.4-3-3c0-1.8,1.4-3.2,3-3.2c1.8,0,3.2,1.4,3.2,3.2C227.5,169,226.1,170.4,224.3,170.4"
		/>
	<path d="M224.3,171c-2,0-3.7-1.6-3.7-3.7c0-2.2,1.7-3.8,3.7-3.8v1.2c-1.4,0-2.5,1.1-2.5,2.7c0,1.3,1.1,2.5,2.5,2.5V171z
		 M224.3,163.5v1.2c1.5,0,2.7,1.1,2.7,2.7c0,1.3-1.1,2.5-2.7,2.5v1.1c2.2,0,3.8-1.6,3.8-3.7C228.1,165.2,226.5,163.5,224.3,163.5"/>
	<rect x="220.3" y="163.1" class="st5" width="8.1" height="4.1"/>
	<rect x="223.9" y="164" width="1" height="4.2"/>
	<rect x="223.9" y="164" class="st6" width="1" height="4.2"/>
</g>
<g id="_x30_2-上针脚_15_">
	<line class="st4" x1="281.1" y1="167.3" x2="281.1" y2="159.1"/>
	<path class="st5" d="M281,170.4c-1.7,0-3-1.4-3-3c0-1.8,1.4-3.2,3-3.2c1.8,0,3.2,1.4,3.2,3.2C284.2,169,282.8,170.4,281,170.4"/>
	<path d="M281,171c-2,0-3.7-1.6-3.7-3.7c0-2.2,1.7-3.8,3.7-3.8v1.2c-1.4,0-2.5,1.1-2.5,2.7c0,1.3,1.1,2.5,2.5,2.5V171z M281,163.5
		v1.2c1.5,0,2.7,1.1,2.7,2.7c0,1.3-1.1,2.5-2.7,2.5v1.1c2.2,0,3.8-1.6,3.8-3.7C284.8,165.2,283.2,163.5,281,163.5"/>
	<rect x="277" y="163.1" class="st5" width="8.1" height="4.1"/>
	<rect x="280.6" y="164" width="1" height="4.2"/>
	<rect x="280.6" y="164" class="st6" width="1" height="4.2"/>
</g>
<g>
	<text transform="matrix(1 0 0 1 217.7844 155.7576)" class="st7 st8">CAN_L</text>
	<text transform="matrix(1 0 0 1 272.5344 155.7576)" class="st7 st8">CAN_H</text>
</g>
<g>
	<text transform="matrix(1 0 0 1 368.4767 167.1739)" class="st9 st7 st10">KG64(E)</text>
</g>
<text transform="matrix(1 0 0 1 393.5201 167.1604)" class="st9 st7 st10">-15</text>
<g>
	<text transform="matrix(1 0 0 1 425.8102 167.1739)" class="st9 st7 st10">KG64(E)</text>
</g>
<text transform="matrix(1 0 0 1 450.8531 167.1604)" class="st9 st7 st10">-16</text>
<g>
	<text transform="matrix(1 0 0 1 360.4937 145.1844)" class="st9 st7 st10">Left Body Controller</text>
</g>
<g>
	<text transform="matrix(1 0 0 1 230.8099 167.1739)" class="st9 st7 st10">K49</text>
</g>
<text transform="matrix(1 0 0 1 242.2824 167.1604)" class="st9 st7 st10">-22</text>
<g>
	<text transform="matrix(1 0 0 1 288.1434 167.1739)" class="st9 st7 st10">K49</text>
</g>
<text transform="matrix(1 0 0 1 299.6164 167.1604)" class="st9 st7 st10">-21</text>
<g>
	<text transform="matrix(1 0 0 1 223.879 147.2489)" class="st9 st7 st10">Vehicle Control Unit</text>
</g>
<rect x="267" y="194.8" class="st5" width="28.1" height="7.1"/>
<g>
	<text transform="matrix(1 0 0 1 271.6496 200.1942)" class="st11 st7 st10">P 0.35</text>
</g>
<rect x="210.3" y="194.8" class="st5" width="28.1" height="7.1"/>
<g>
	<text transform="matrix(1 0 0 1 214.9922 200.1942)" class="st11 st7 st10">V 0.35</text>
</g>
<g id="_x30_1-曲线图框_8_">
	<path class="st0" d="M290.2,767.8h-77v-25.9h77c0,0-4.7,7.6,0,13C294.9,760.2,290.2,767.8,290.2,767.8z"/>
</g>
<path class="st3" d="M284.9,668.7c2.4,0,4.3-2,4.3-4.6s-1.8-4.6-4.2-4.6l-63.7,9.4c-2.4-0.1-4.2-2.2-4.2-4.6c0-2.6,1.9-4.6,4.3-4.6
	L284.9,668.7z"/>
<g>
	<g id="_x30_2-上针脚_18_">
		<line class="st4" x1="224.4" y1="733.7" x2="224.4" y2="741.9"/>
		<path class="st5" d="M224.3,730.6c-1.7,0-3,1.4-3,3c0,1.8,1.4,3.2,3,3.2c1.8,0,3.2-1.4,3.2-3.2C227.5,732,226.1,730.6,224.3,730.6
			"/>
		<path d="M224.4,731.1c-1.4,0-2.5,1.2-2.5,2.5c0,1.6,1.1,2.7,2.5,2.7v1.2c-2,0-3.7-1.6-3.7-3.8c0-2.1,1.7-3.7,3.7-3.7V731.1z
			 M224.4,737.5c2.2,0,3.8-1.7,3.8-3.8s-1.6-3.7-3.8-3.7v1.1c1.6,0,2.7,1.2,2.7,2.5c0,1.6-1.2,2.7-2.7,2.7V737.5"/>
		<rect x="220.4" y="733.8" class="st5" width="8.1" height="4.1"/>
		<rect x="223.9" y="732.8" width="1" height="4.2"/>
		<rect x="223.9" y="732.8" class="st6" width="1" height="4.2"/>
	</g>
	<g id="_x30_2-上针脚_17_">
		<line class="st4" x1="281.1" y1="733.7" x2="281.1" y2="741.9"/>
		<path class="st5" d="M281,730.6c-1.7,0-3,1.4-3,3c0,1.8,1.4,3.2,3,3.2c1.8,0,3.2-1.4,3.2-3.2C284.2,732,282.8,730.6,281,730.6"/>
		<path d="M281.1,731.1c-1.4,0-2.5,1.2-2.5,2.5c0,1.6,1.1,2.7,2.5,2.7v1.2c-2,0-3.7-1.6-3.7-3.8c0-2.1,1.7-3.7,3.7-3.7V731.1z
			 M281.1,737.5c2.2,0,3.8-1.7,3.8-3.8s-1.6-3.7-3.8-3.7v1.1c1.6,0,2.7,1.2,2.7,2.5c0,1.6-1.2,2.7-2.7,2.7V737.5"/>
		<rect x="277.1" y="733.8" class="st5" width="8.1" height="4.1"/>
		<rect x="280.6" y="732.8" width="1" height="4.2"/>
		<rect x="280.6" y="732.8" class="st6" width="1" height="4.2"/>
	</g>
</g>
<g>
	<text transform="matrix(1 0 0 1 230.0744 739.8233)" class="st9 st7 st10">K50</text>
</g>
<text transform="matrix(1 0 0 1 241.4477 739.7548)" class="st9 st7 st10">-2</text>
<g>
	<text transform="matrix(1 0 0 1 286.4078 739.8233)" class="st9 st7 st10">K50</text>
</g>
<text transform="matrix(1 0 0 1 297.7807 739.7548)" class="st9 st7 st10">-1</text>
<g>
	<text transform="matrix(1 0 0 1 217.1653 748.0076)" class="st7 st8">CAN_L</text>
	<text transform="matrix(1 0 0 1 271.9154 748.0076)" class="st7 st8">CAN_H</text>
</g>
<rect x="267.1" y="708" class="st5" width="28.1" height="7.1"/>
<g>
	<text transform="matrix(1 0 0 1 271.6996 713.3889)" class="st11 st7 st10">P 0.35</text>
</g>
<rect x="210.4" y="708" class="st5" width="28.1" height="7.1"/>
<g>
	<text transform="matrix(1 0 0 1 215.0423 713.3889)" class="st11 st7 st10">V 0.35</text>
</g>
<rect x="247.7" y="431.1" class="st12" width="24.8" height="7.2"/>
<text transform="matrix(1 0 0 1 248.2751 436.7511)" class="st11 st7 st10">SP2209</text>
<rect x="190.2" y="488.3" class="st12" width="24.8" height="7.2"/>
<text transform="matrix(1 0 0 1 190.733 493.9357)" class="st11 st7 st10">SP2210</text>
<g id="_x30_1-曲线图框_23_">
	<path class="st0" d="M695.5,768.1h-77v-25.9h77c0,0-4.7,7.6,0,13C700.1,760.5,695.5,768.1,695.5,768.1z"/>
</g>
<line class="st1" x1="629.6" y1="168.8" x2="629.6" y2="732"/>
<path class="st3" d="M690.2,252.2c2.4,0,4.3-2,4.3-4.6s-1.8-4.6-4.2-4.6l-63.7,9.4c-2.4-0.1-4.2-2.2-4.2-4.6c0-2.6,1.9-4.6,4.3-4.6
	L690.2,252.2z"/>
<path class="st3" d="M690.2,668.7c2.4,0,4.3-2,4.3-4.6s-1.8-4.6-4.2-4.6l-63.7,9.4c-2.4-0.1-4.2-2.2-4.2-4.6c0-2.6,1.9-4.6,4.3-4.6
	L690.2,668.7z"/>
<g>
	<g id="_x30_2-上针脚_54_">
		<line class="st4" x1="629.7" y1="734" x2="629.7" y2="742.2"/>
		<path class="st5" d="M629.6,730.9c-1.7,0-3,1.4-3,3c0,1.8,1.4,3.2,3,3.2c1.8,0,3.2-1.4,3.2-3.2
			C632.8,732.3,631.4,730.9,629.6,730.9"/>
		<path d="M629.6,731.4c-1.4,0-2.5,1.2-2.5,2.5c0,1.6,1.1,2.7,2.5,2.7v1.2c-2,0-3.7-1.6-3.7-3.8c0-2.1,1.7-3.7,3.7-3.7V731.4z
			 M629.6,737.8c2.2,0,3.8-1.7,3.8-3.8s-1.6-3.7-3.8-3.7v1.1c1.6,0,2.7,1.2,2.7,2.5c0,1.6-1.2,2.7-2.7,2.7V737.8"/>
		<rect x="625.6" y="734.1" class="st5" width="8.1" height="4.1"/>
		<rect x="629.2" y="733.1" width="1" height="4.2"/>
		<rect x="629.2" y="733.1" class="st6" width="1" height="4.2"/>
	</g>
	<g id="_x30_2-上针脚_53_">
		<line class="st4" x1="686.4" y1="734" x2="686.4" y2="742.2"/>
		<path class="st5" d="M686.3,730.9c-1.7,0-3,1.4-3,3c0,1.8,1.4,3.2,3,3.2c1.8,0,3.2-1.4,3.2-3.2
			C689.5,732.3,688.1,730.9,686.3,730.9"/>
		<path d="M686.3,731.4c-1.4,0-2.5,1.2-2.5,2.5c0,1.6,1.1,2.7,2.5,2.7v1.2c-2,0-3.7-1.6-3.7-3.8c0-2.1,1.7-3.7,3.7-3.7V731.4z
			 M686.3,737.8c2.2,0,3.8-1.7,3.8-3.8s-1.6-3.7-3.8-3.7v1.1c1.6,0,2.7,1.2,2.7,2.5c0,1.6-1.2,2.7-2.7,2.7V737.8"/>
		<rect x="682.3" y="734.1" class="st5" width="8.1" height="4.1"/>
		<rect x="685.9" y="733.1" width="1" height="4.2"/>
		<rect x="685.9" y="733.1" class="st6" width="1" height="4.2"/>
	</g>
</g>
<g>
	<text transform="matrix(1 0 0 1 635.3088 740.0733)" class="st9 st7 st10">BK51</text>
</g>
<text transform="matrix(1 0 0 1 650.063 740.0048)" class="st9 st7 st10">-17</text>
<g>
	<text transform="matrix(1 0 0 1 691.6423 740.0733)" class="st9 st7 st10">BK51</text>
</g>
<text transform="matrix(1 0 0 1 706.396 740.0048)" class="st9 st7 st10">-10</text>
<g>
	<text transform="matrix(1 0 0 1 622.3997 748.2576)" class="st7 st8">CAN_H</text>
	<text transform="matrix(1 0 0 1 677.1498 748.2576)" class="st7 st8">CAN_L</text>
</g>
<g id="_x30_2-上针脚_52_">
	<line class="st4" x1="629.7" y1="167.3" x2="629.7" y2="159.1"/>
	<path class="st5" d="M629.6,170.4c-1.7,0-3-1.4-3-3c0-1.8,1.4-3.2,3-3.2c1.8,0,3.2,1.4,3.2,3.2C632.8,169,631.4,170.4,629.6,170.4"
		/>
	<path d="M629.6,171c-2,0-3.7-1.6-3.7-3.7c0-2.2,1.7-3.8,3.7-3.8v1.2c-1.4,0-2.5,1.1-2.5,2.7c0,1.3,1.1,2.5,2.5,2.5V171z
		 M629.6,163.5v1.2c1.5,0,2.7,1.1,2.7,2.7c0,1.3-1.1,2.5-2.7,2.5v1.1c2.2,0,3.8-1.6,3.8-3.7C633.4,165.2,631.8,163.5,629.6,163.5"/>
	<rect x="625.6" y="163.1" class="st5" width="8.1" height="4.1"/>
	<rect x="629.2" y="164" width="1" height="4.2"/>
	<rect x="629.2" y="164" class="st6" width="1" height="4.2"/>
</g>
<g id="_x30_2-上针脚_51_">
	<line class="st4" x1="686.4" y1="167.3" x2="686.4" y2="159.1"/>
	<path class="st5" d="M686.3,170.4c-1.7,0-3-1.4-3-3c0-1.8,1.4-3.2,3-3.2c1.8,0,3.2,1.4,3.2,3.2C689.5,169,688.1,170.4,686.3,170.4"
		/>
	<path d="M686.3,171c-2,0-3.7-1.6-3.7-3.7c0-2.2,1.7-3.8,3.7-3.8v1.2c-1.4,0-2.5,1.1-2.5,2.7c0,1.3,1.1,2.5,2.5,2.5V171z
		 M686.3,163.5v1.2c1.5,0,2.7,1.1,2.7,2.7c0,1.3-1.1,2.5-2.7,2.5v1.1c2.2,0,3.8-1.6,3.8-3.7C690.1,165.2,688.5,163.5,686.3,163.5"/>
	<rect x="682.3" y="163.1" class="st5" width="8.1" height="4.1"/>
	<rect x="685.9" y="164" width="1" height="4.2"/>
	<rect x="685.9" y="164" class="st6" width="1" height="4.2"/>
</g>
<g>
	<text transform="matrix(1 0 0 1 623.3995 155.7576)" class="st7 st8">CAN_H</text>
	<text transform="matrix(1 0 0 1 678.1496 155.7576)" class="st7 st8">CAN_L</text>
</g>
<g>
	<text transform="matrix(1 0 0 1 635.7458 167.1739)" class="st9 st7 st10">BG86(B)</text>
</g>
<text transform="matrix(1 0 0 1 660.7886 167.1604)" class="st9 st7 st10">-25</text>
<g>
	<text transform="matrix(1 0 0 1 693.0794 167.1739)" class="st9 st7 st10">BG86(B)</text>
</g>
<text transform="matrix(1 0 0 1 718.1226 167.1604)" class="st9 st7 st10">-26</text>
<rect x="672" y="194.8" class="st5" width="28.1" height="7.1"/>
<g>
	<text transform="matrix(1 0 0 1 676.5862 200.1942)" class="st11 st7 st10">V 0.35</text>
</g>
<rect x="615.3" y="194.8" class="st5" width="28.1" height="7.1"/>
<g>
	<text transform="matrix(1 0 0 1 619.9289 200.1942)" class="st11 st7 st10">P 0.35</text>
</g>
<rect x="672.3" y="708.3" class="st5" width="28.1" height="7.1"/>
<g>
	<text transform="matrix(1 0 0 1 676.934 713.6389)" class="st11 st7 st10">V 0.35</text>
</g>
<rect x="615.6" y="708.3" class="st5" width="28.1" height="7.1"/>
<g>
	<text transform="matrix(1 0 0 1 620.2767 713.6389)" class="st11 st7 st10">P 0.35</text>
</g>
<rect x="639.5" y="536.7" class="st12" width="25.3" height="7.2"/>
<text transform="matrix(1 0 0 1 640.0776 542.3505)" class="st11 st7 st10">SP2208</text>
<rect x="693.1" y="591.4" class="st12" width="25.5" height="7.2"/>
<text transform="matrix(1 0 0 1 693.6209 597.051)" class="st11 st7 st10">SP2207</text>
<g id="_x30_1-曲线图框_22_">
	<path class="st0" d="M564.5,768.1h-77v-25.9h77c0,0-4.7,7.6,0,13C569.1,760.5,564.5,768.1,564.5,768.1z"/>
</g>
<path class="st3" d="M563.2,252.2c2.4,0,4.3-2,4.3-4.6s-1.8-4.6-4.2-4.6l-63.7,9.4c-2.4-0.1-4.2-2.2-4.2-4.6c0-2.6,1.9-4.6,4.3-4.6
	L563.2,252.2z"/>
<path class="st3" d="M559.2,668.7c2.4,0,4.3-2,4.3-4.6s-1.8-4.6-4.2-4.6l-63.7,9.4c-2.4-0.1-4.2-2.2-4.2-4.6c0-2.6,1.9-4.6,4.3-4.6
	L559.2,668.7z"/>
<g>
	<g id="_x30_2-上针脚_50_">
		<line class="st4" x1="498.7" y1="734" x2="498.7" y2="742.2"/>
		<path class="st5" d="M498.6,730.9c-1.7,0-3,1.4-3,3c0,1.8,1.4,3.2,3,3.2c1.8,0,3.2-1.4,3.2-3.2
			C501.8,732.3,500.4,730.9,498.6,730.9"/>
		<path d="M498.6,731.4c-1.4,0-2.5,1.2-2.5,2.5c0,1.6,1.1,2.7,2.5,2.7v1.2c-2,0-3.7-1.6-3.7-3.8c0-2.1,1.7-3.7,3.7-3.7V731.4z
			 M498.6,737.8c2.2,0,3.8-1.7,3.8-3.8s-1.6-3.7-3.8-3.7v1.1c1.6,0,2.7,1.2,2.7,2.5c0,1.6-1.2,2.7-2.7,2.7V737.8"/>
		<rect x="494.6" y="734.1" class="st5" width="8.1" height="4.1"/>
		<rect x="498.2" y="733.1" width="1" height="4.2"/>
		<rect x="498.2" y="733.1" class="st6" width="1" height="4.2"/>
	</g>
	<g id="_x30_2-上针脚_49_">
		<line class="st4" x1="555.4" y1="734" x2="555.4" y2="742.2"/>
		<path class="st5" d="M555.3,730.9c-1.7,0-3,1.4-3,3c0,1.8,1.4,3.2,3,3.2c1.8,0,3.2-1.4,3.2-3.2
			C558.5,732.3,557.1,730.9,555.3,730.9"/>
		<path d="M555.3,731.4c-1.4,0-2.5,1.2-2.5,2.5c0,1.6,1.1,2.7,2.5,2.7v1.2c-2,0-3.7-1.6-3.7-3.8c0-2.1,1.7-3.7,3.7-3.7V731.4z
			 M555.3,737.8c2.2,0,3.8-1.7,3.8-3.8s-1.6-3.7-3.8-3.7v1.1c1.6,0,2.7,1.2,2.7,2.5c0,1.6-1.2,2.7-2.7,2.7V737.8"/>
		<rect x="551.3" y="734.1" class="st5" width="8.1" height="4.1"/>
		<rect x="554.9" y="733.1" width="1" height="4.2"/>
		<rect x="554.9" y="733.1" class="st6" width="1" height="4.2"/>
	</g>
</g>
<g>
	<text transform="matrix(1 0 0 1 504.3087 740.0733)" class="st9 st7 st10">B74</text>
</g>
<text transform="matrix(1 0 0 1 515.6821 740.0048)" class="st9 st7 st10">-26</text>
<g>
	<text transform="matrix(1 0 0 1 560.6423 740.0733)" class="st9 st7 st10">B74</text>
</g>
<text transform="matrix(1 0 0 1 572.0151 740.0048)" class="st9 st7 st10">-25</text>
<g>
	<text transform="matrix(1 0 0 1 499.1628 759.869)" class="st9 st7 st10">Power Battery Pack</text>
</g>
<g>
	<text transform="matrix(1 0 0 1 491.3997 748.2576)" class="st7 st8">CAN_L</text>
	<text transform="matrix(1 0 0 1 546.1498 748.2576)" class="st7 st8">CAN_H</text>
</g>
<g id="_x30_1-曲线图框_21_">
	<path class="st0" d="M826.7,159.3H491.5v-25.9h335.2c0,0-4.7,7.6,0,13C831.3,151.7,826.7,159.3,826.7,159.3z"/>
</g>
<g id="_x30_2-上针脚_48_">
	<line class="st4" x1="502.7" y1="167.3" x2="502.7" y2="159.1"/>
	<path class="st5" d="M502.6,170.4c-1.7,0-3-1.4-3-3c0-1.8,1.4-3.2,3-3.2c1.8,0,3.2,1.4,3.2,3.2C505.8,169,504.4,170.4,502.6,170.4"
		/>
	<path d="M502.6,171c-2,0-3.7-1.6-3.7-3.7c0-2.2,1.7-3.8,3.7-3.8v1.2c-1.4,0-2.5,1.1-2.5,2.7c0,1.3,1.1,2.5,2.5,2.5V171z
		 M502.6,163.5v1.2c1.5,0,2.7,1.1,2.7,2.7c0,1.3-1.1,2.5-2.7,2.5v1.1c2.2,0,3.8-1.6,3.8-3.7C506.4,165.2,504.8,163.5,502.6,163.5"/>
	<rect x="498.6" y="163.1" class="st5" width="8.1" height="4.1"/>
	<rect x="502.2" y="164" width="1" height="4.2"/>
	<rect x="502.2" y="164" class="st6" width="1" height="4.2"/>
</g>
<g id="_x30_2-上针脚_47_">
	<line class="st4" x1="559.4" y1="167.3" x2="559.4" y2="159.1"/>
	<path class="st5" d="M559.3,170.4c-1.7,0-3-1.4-3-3c0-1.8,1.4-3.2,3-3.2c1.8,0,3.2,1.4,3.2,3.2C562.5,169,561.1,170.4,559.3,170.4"
		/>
	<path d="M559.3,171c-2,0-3.7-1.6-3.7-3.7c0-2.2,1.7-3.8,3.7-3.8v1.2c-1.4,0-2.5,1.1-2.5,2.7c0,1.3,1.1,2.5,2.5,2.5V171z
		 M559.3,163.5v1.2c1.5,0,2.7,1.1,2.7,2.7c0,1.3-1.1,2.5-2.7,2.5v1.1c2.2,0,3.8-1.6,3.8-3.7C563.1,165.2,561.5,163.5,559.3,163.5"/>
	<rect x="555.3" y="163.1" class="st5" width="8.1" height="4.1"/>
	<rect x="558.9" y="164" width="1" height="4.2"/>
	<rect x="558.9" y="164" class="st6" width="1" height="4.2"/>
</g>
<text transform="matrix(1 0 0 1 552.5862 155.7576)" class="st7 st8">CAN_L</text>
<text transform="matrix(1 0 0 1 496.7564 155.7576)" class="st7 st8">CAN_H</text>
<text transform="matrix(1 0 0 1 678.2299 155.7576)" class="st7 st8">CAN_L</text>
<text transform="matrix(1 0 0 1 622.4001 155.7576)" class="st7 st8">CAN_H</text>
<g>
	<text transform="matrix(1 0 0 1 508.7458 167.1739)" class="st9 st7 st10">KG86(E)</text>
</g>
<text transform="matrix(1 0 0 1 534.7415 167.1265)" class="st9 st7 st13">-23</text>
<g>
	<text transform="matrix(1 0 0 1 566.0794 167.1739)" class="st9 st7 st10">KG86(E)</text>
</g>
<text transform="matrix(1 0 0 1 591.0198 167.1265)" class="st9 st7 st13">-9</text>
<rect x="545" y="194.8" class="st5" width="28.1" height="7.1"/>
<g>
	<text transform="matrix(1 0 0 1 549.5862 200.1942)" class="st11 st7 st10">V 0.35</text>
</g>
<rect x="488.3" y="194.8" class="st5" width="28.1" height="7.1"/>
<g>
	<text transform="matrix(1 0 0 1 492.9289 200.1942)" class="st11 st7 st10">P 0.35</text>
</g>
<rect x="541.3" y="708.3" class="st5" width="28.1" height="7.1"/>
<g>
	<text transform="matrix(1 0 0 1 545.934 713.6389)" class="st11 st7 st10">P 0.35</text>
</g>
<rect x="484.6" y="708.3" class="st5" width="28.1" height="7.1"/>
<g>
	<text transform="matrix(1 0 0 1 489.2766 713.6389)" class="st11 st7 st10">V 0.35</text>
</g>
<g id="选配_1_">
	<path class="st3" d="M422.9,252.2c2.4,0,4.3-2,4.3-4.6s-1.8-4.6-4.2-4.6l-63.7,9.4c-2.4-0.1-4.2-2.2-4.2-4.6c0-2.6,1.9-4.6,4.3-4.6
		L422.9,252.2z"/>
	<rect x="404.7" y="194.8" class="st5" width="28.1" height="7.1"/>
	<g>
		<text transform="matrix(1 0 0 1 409.317 200.1942)" class="st11 st7 st10">V 0.35</text>
	</g>
	<rect x="348" y="194.8" class="st5" width="28.1" height="7.1"/>
	<g>
		<text transform="matrix(1 0 0 1 352.6597 200.1942)" class="st11 st7 st10">P 0.35</text>
	</g>
	<polyline class="st2" points="1197.3,168.8 1197.3,472 1096.9,472 1073.5,491.9 	"/>
	<g id="_x30_1-曲线图框_5_">
		<path class="st0" d="M1208.9,159.3h-79.4v-25.9h79.4c0,0-4.8,7.6,0,13C1213.7,151.7,1208.9,159.3,1208.9,159.3z"/>
	</g>
	<polyline class="st1" points="1140.6,168.8 1140.6,415.1 1035.5,415.1 1016.1,434.7 	"/>
	<g id="_x30_2-上针脚_10_">
		<line class="st4" x1="1140.6" y1="167.3" x2="1140.6" y2="159.1"/>
		<path class="st5" d="M1140.5,170.4c-1.7,0-3-1.4-3-3c0-1.8,1.4-3.2,3-3.2c1.8,0,3.2,1.4,3.2,3.2
			C1143.7,169,1142.3,170.4,1140.5,170.4"/>
		<path d="M1140.6,171c-2,0-3.7-1.6-3.7-3.7c0-2.2,1.7-3.8,3.7-3.8v1.2c-1.4,0-2.5,1.1-2.5,2.7c0,1.3,1.1,2.5,2.5,2.5V171z
			 M1140.6,163.5v1.2c1.5,0,2.7,1.1,2.7,2.7c0,1.3-1.1,2.5-2.7,2.5v1.1c2.2,0,3.8-1.6,3.8-3.7
			C1144.4,165.2,1142.8,163.5,1140.6,163.5"/>
		<rect x="1136.6" y="163.1" class="st5" width="8.1" height="4.1"/>
		<rect x="1140.1" y="164" width="1" height="4.2"/>
		<rect x="1140.1" y="164" class="st6" width="1" height="4.2"/>
	</g>
	<g id="_x30_2-上针脚_9_">
		<line class="st4" x1="1197.3" y1="167.3" x2="1197.3" y2="159.1"/>
		<path class="st5" d="M1197.2,170.4c-1.7,0-3-1.4-3-3c0-1.8,1.4-3.2,3-3.2c1.8,0,3.2,1.4,3.2,3.2
			C1200.4,169,1199,170.4,1197.2,170.4"/>
		<path d="M1197.3,171c-2,0-3.7-1.6-3.7-3.7c0-2.2,1.7-3.8,3.7-3.8v1.2c-1.4,0-2.5,1.1-2.5,2.7c0,1.3,1.1,2.5,2.5,2.5V171z
			 M1197.3,163.5v1.2c1.5,0,2.7,1.1,2.7,2.7c0,1.3-1.1,2.5-2.7,2.5v1.1c2.2,0,3.8-1.6,3.8-3.7
			C1201.1,165.2,1199.5,163.5,1197.3,163.5"/>
		<rect x="1193.3" y="163.1" class="st5" width="8.1" height="4.1"/>
		<rect x="1196.8" y="164" width="1" height="4.2"/>
		<rect x="1196.8" y="164" class="st6" width="1" height="4.2"/>
	</g>
	<g>
		<text transform="matrix(1 0 0 1 1134.3503 155.7576)" class="st7 st8">CAN_H</text>
		<text transform="matrix(1 0 0 1 1189.1003 155.7576)" class="st7 st8">CAN_L</text>
	</g>
	<g>
		<text transform="matrix(1 0 0 1 1146.6967 167.1739)" class="st9 st7 st10">GB34</text>
	</g>
	<text transform="matrix(1 0 0 1 1163.3007 167.1604)" class="st9 st7 st10">-13</text>
	<g>
		<text transform="matrix(1 0 0 1 1204.0302 167.1739)" class="st9 st7 st10">GB34</text>
	</g>
	<text transform="matrix(1 0 0 1 1220.6337 167.1604)" class="st9 st7 st10">-14</text>
	<g>
		<text transform="matrix(1 0 0 1 1130.8796 147.2491)" class="st9 st7 st10">High Voltage PTC Heater</text>
	</g>
	<path class="st3" d="M1201.1,252.2c2.4,0,4.3-2,4.3-4.6s-1.8-4.6-4.2-4.6l-63.7,9.4c-2.4-0.1-4.2-2.2-4.2-4.6
		c0-2.6,1.9-4.6,4.3-4.6L1201.1,252.2z"/>
	<rect x="1182.9" y="194.8" class="st5" width="28.1" height="7.1"/>
	<g>
		<text transform="matrix(1 0 0 1 1187.537 200.1942)" class="st11 st7 st10">V 0.35</text>
	</g>
	<rect x="1126.2" y="194.8" class="st5" width="28.1" height="7.1"/>
	<g>
		<text transform="matrix(1 0 0 1 1130.8796 200.1942)" class="st11 st7 st10">P 0.35</text>
	</g>
</g>
<g id="对接插头_1_">
	<polyline class="st1" points="1016.4,434.7 815.1,434.7 815.1,170.4 	"/>
	<line class="st2" x1="1073.1" y1="168.4" x2="1073.1" y2="731.7"/>
	<polyline class="st1" points="946.1,168.4 946.1,414.8 997.2,414.8 1016.4,434.4 	"/>
	<polyline class="st2" points="1073,492 758.4,492 758.4,169.3 	"/>
	<g id="_x30_1-曲线图框_20_">
		<path class="st0" d="M1115.2,767.8h-109.9v-25.9h109.9c0,0-6.7,7.6,0,13C1121.8,760.1,1115.2,767.8,1115.2,767.8z"/>
	</g>
	<g>
		<text transform="matrix(1 0 0 1 1022.1251 739.7548)" class="st9 st7 st10">G07(A)</text>
	</g>
	<text transform="matrix(1 0 0 1 1043.1053 739.7549)" class="st9 st7 st10">-19</text>
	<g>
		<text transform="matrix(1 0 0 1 1078.4585 739.7548)" class="st9 st7 st10">G07(A)</text>
	</g>
	<text transform="matrix(1 0 0 1 1099.4384 739.7549)" class="st9 st7 st10">-3</text>
	<g>
		<text transform="matrix(1 0 0 1 1009.216 747.9391)" class="st7 st8">CAN_H</text>
		<text transform="matrix(1 0 0 1 1063.9661 747.9391)" class="st7 st8">CAN_L</text>
	</g>
	<g id="_x30_1-曲线图框_19_">
		<path class="st0" d="M1082.3,159h-77v-25.9h77c0,0-4.7,7.6,0,13C1087,151.4,1082.3,159,1082.3,159z"/>
	</g>
	<g id="_x30_2-上针脚_46_">
		<line class="st4" x1="1073.2" y1="167" x2="1073.2" y2="158.8"/>
		<path class="st5" d="M1073.1,170.1c-1.7,0-3-1.4-3-3c0-1.8,1.4-3.2,3-3.2c1.8,0,3.2,1.4,3.2,3.2
			C1076.3,168.7,1074.9,170.1,1073.1,170.1"/>
		<path d="M1073.1,170.7c-2,0-3.7-1.6-3.7-3.7c0-2.2,1.7-3.8,3.7-3.8v1.2c-1.4,0-2.5,1.1-2.5,2.7c0,1.3,1.1,2.5,2.5,2.5V170.7z
			 M1073.1,163.2v1.2c1.5,0,2.7,1.1,2.7,2.7c0,1.3-1.1,2.5-2.7,2.5v1.1c2.2,0,3.8-1.6,3.8-3.7S1075.3,163.2,1073.1,163.2"/>
		<rect x="1069.1" y="162.8" class="st5" width="8.1" height="4.1"/>
		<rect x="1072.7" y="163.7" width="1" height="4.2"/>
		<rect x="1072.7" y="163.7" class="st6" width="1" height="4.2"/>
	</g>
	<g>
		<text transform="matrix(1 0 0 1 1010.2159 155.4391)" class="st7 st8">CAN_H</text>
		<text transform="matrix(1 0 0 1 1064.9658 155.4391)" class="st7 st8">CAN_L</text>
	</g>
	<g>
		<text transform="matrix(1 0 0 1 1022.5621 166.8554)" class="st9 st7 st10">G16</text>
	</g>
	<text transform="matrix(1 0 0 1 1034.7355 166.8421)" class="st9 st7 st10">-7</text>
	<g>
		<text transform="matrix(1 0 0 1 1079.8956 166.8554)" class="st9 st7 st10">G16</text>
	</g>
	<text transform="matrix(1 0 0 1 1092.0695 166.8421)" class="st9 st7 st10">-8</text>
	<g>
		<text transform="matrix(1 0 0 1 1016.6357 145.1842)" class="st9 st7 st10">Shift Control Panel</text>
	</g>
	<rect x="1058.8" y="194.5" class="st5" width="28.1" height="7.1"/>
	<g>
		<text transform="matrix(1 0 0 1 1063.4025 199.8757)" class="st11 st7 st10">V 0.35</text>
	</g>
	<rect x="1059.1" y="707.9" class="st5" width="28.1" height="7.1"/>
	<g>
		<text transform="matrix(1 0 0 1 1063.7502 713.3204)" class="st11 st7 st10">V 0.35</text>
	</g>
	<rect x="1026.1" y="431.1" class="st12" width="25.3" height="7.2"/>
	<text transform="matrix(1 0 0 1 1026.6698 436.7444)" class="st11 st7 st10">SP2217</text>
	<rect x="1082.2" y="488" class="st12" width="25.5" height="7.2"/>
	<text transform="matrix(1 0 0 1 1082.7036 493.67)" class="st11 st7 st10">SP2218</text>
	<g id="_x30_1-曲线图框_17_">
		<path class="st0" d="M955.3,159h-77v-25.9h77c0,0-4.7,7.6,0,13C960,151.4,955.3,159,955.3,159z"/>
	</g>
	<g id="_x30_2-上针脚_45_">
		<line class="st4" x1="946.2" y1="167" x2="946.2" y2="158.8"/>
		<path class="st5" d="M946.1,170.1c-1.7,0-3-1.4-3-3c0-1.8,1.4-3.2,3-3.2c1.8,0,3.2,1.4,3.2,3.2
			C949.3,168.7,947.9,170.1,946.1,170.1"/>
		<path d="M946.1,170.7c-2,0-3.7-1.6-3.7-3.7c0-2.2,1.7-3.8,3.7-3.8v1.2c-1.4,0-2.5,1.1-2.5,2.7c0,1.3,1.1,2.5,2.5,2.5V170.7z
			 M946.1,163.2v1.2c1.5,0,2.7,1.1,2.7,2.7c0,1.3-1.1,2.5-2.7,2.5v1.1c2.2,0,3.8-1.6,3.8-3.7S948.3,163.2,946.1,163.2"/>
		<rect x="942.1" y="162.8" class="st5" width="8.1" height="4.1"/>
		<rect x="945.7" y="163.7" width="1" height="4.2"/>
		<rect x="945.7" y="163.7" class="st6" width="1" height="4.2"/>
	</g>
	<g>
		<text transform="matrix(1 0 0 1 883.2159 155.4391)" class="st7 st8">CAN_L</text>
		<text transform="matrix(1 0 0 1 937.9659 155.4391)" class="st7 st8">CAN_H</text>
	</g>
	<g>
		<text transform="matrix(1 0 0 1 895.5621 166.8554)" class="st9 st7 st10">G03(A)</text>
	</g>
	<text transform="matrix(1 0 0 1 916.1332 166.8421)" class="st9 st7 st10">-13</text>
	<g>
		<text transform="matrix(1 0 0 1 952.8957 166.8554)" class="st9 st7 st10">G03(A)</text>
	</g>
	<text transform="matrix(1 0 0 1 973.4672 166.8421)" class="st9 st7 st10">-12</text>
	<g>
		<text transform="matrix(1 0 0 1 905.5948 146.3564)" class="st9 st7 st10"> Interface </text>
	</g>
	<rect x="931.8" y="194.5" class="st5" width="28.1" height="7.1"/>
	<g>
		<text transform="matrix(1 0 0 1 936.4025 199.8757)" class="st11 st7 st10">P 0.35</text>
	</g>
	<line class="st1" x1="1016.4" y1="168.4" x2="1016.4" y2="731.7"/>
	<g id="_x30_2-上针脚_44_">
		<line class="st4" x1="1016.5" y1="167" x2="1016.5" y2="158.8"/>
		<path class="st5" d="M1016.4,170.1c-1.7,0-3-1.4-3-3c0-1.8,1.4-3.2,3-3.2c1.8,0,3.2,1.4,3.2,3.2
			C1019.6,168.7,1018.2,170.1,1016.4,170.1"/>
		<path d="M1016.4,170.7c-2,0-3.7-1.6-3.7-3.7c0-2.2,1.7-3.8,3.7-3.8v1.2c-1.4,0-2.5,1.1-2.5,2.7c0,1.3,1.1,2.5,2.5,2.5V170.7z
			 M1016.4,163.2v1.2c1.5,0,2.7,1.1,2.7,2.7c0,1.3-1.1,2.5-2.7,2.5v1.1c2.2,0,3.8-1.6,3.8-3.7S1018.6,163.2,1016.4,163.2"/>
		<rect x="1012.4" y="162.8" class="st5" width="8.1" height="4.1"/>
		<rect x="1016" y="163.7" width="1" height="4.2"/>
		<rect x="1016" y="163.7" class="st6" width="1" height="4.2"/>
	</g>
	<rect x="1002.1" y="194.5" class="st5" width="28.1" height="7.1"/>
	<g>
		<text transform="matrix(1 0 0 1 1006.7452 199.8757)" class="st11 st7 st10">P 0.35</text>
	</g>
	<path class="st3" d="M1077,252.2c2.4,0,4.3-2,4.3-4.6s-1.8-4.6-4.2-4.6l-63.7,9.4c-2.4-0.1-4.2-2.2-4.2-4.6c0-2.6,1.9-4.6,4.3-4.6
		L1077,252.2z"/>
	<g>
		<path class="st14" d="M1016.4,431.7c1.5,0,2.6,1.2,2.6,2.6c0,1.5-1.2,2.6-2.6,2.6"/>
		<circle class="st14" cx="1016.4" cy="434.4" r="2.6"/>
	</g>
	<polyline class="st2" points="889.4,168.4 889.4,472 1049.8,472 1073.1,491.6 	"/>
	<g>
		<circle class="st14" cx="1073.1" cy="491.6" r="2.6"/>
		<path class="st14" d="M1073.1,489c1.5,0,2.6,1.2,2.6,2.6s-1.2,2.6-2.6,2.6"/>
	</g>
	<g id="_x30_2-上针脚_43_">
		<line class="st4" x1="889.5" y1="167" x2="889.5" y2="158.8"/>
		<path class="st5" d="M889.4,170.1c-1.7,0-3-1.4-3-3c0-1.8,1.4-3.2,3-3.2c1.8,0,3.2,1.4,3.2,3.2
			C892.6,168.7,891.2,170.1,889.4,170.1"/>
		<path d="M889.4,170.7c-2,0-3.7-1.6-3.7-3.7c0-2.2,1.7-3.8,3.7-3.8v1.2c-1.4,0-2.5,1.1-2.5,2.7c0,1.3,1.1,2.5,2.5,2.5V170.7z
			 M889.4,163.2v1.2c1.5,0,2.7,1.1,2.7,2.7c0,1.3-1.1,2.5-2.7,2.5v1.1c2.2,0,3.8-1.6,3.8-3.7S891.6,163.2,889.4,163.2"/>
		<rect x="885.4" y="162.8" class="st5" width="8.1" height="4.1"/>
		<rect x="889" y="163.7" width="1" height="4.2"/>
		<rect x="889" y="163.7" class="st6" width="1" height="4.2"/>
	</g>
	<rect x="875.1" y="194.5" class="st5" width="28.1" height="7.1"/>
	<g>
		<text transform="matrix(1 0 0 1 879.7452 199.8757)" class="st11 st7 st10">V 0.35</text>
	</g>
	<path class="st3" d="M950,252.2c2.4,0,4.3-2,4.3-4.6s-1.8-4.6-4.2-4.6l-63.7,9.4c-2.4-0.1-4.2-2.2-4.2-4.6c0-2.6,1.9-4.6,4.3-4.6
		L950,252.2z"/>
	<path class="st3" d="M1077,668.7c2.4,0,4.3-2,4.3-4.6s-1.8-4.6-4.2-4.6l-63.7,9.4c-2.4-0.1-4.2-2.2-4.2-4.6c0-2.6,1.9-4.6,4.3-4.6
		L1077,668.7z"/>
	<g>
		<g id="_x30_2-上针脚_38_">
			<line class="st4" x1="1016.5" y1="733.7" x2="1016.5" y2="741.9"/>
			<path class="st5" d="M1016.4,730.6c-1.7,0-3,1.4-3,3c0,1.8,1.4,3.2,3,3.2c1.8,0,3.2-1.4,3.2-3.2
				C1019.6,732,1018.2,730.6,1016.4,730.6"/>
			<path d="M1016.4,731.1c-1.4,0-2.5,1.2-2.5,2.5c0,1.6,1.1,2.7,2.5,2.7v1.2c-2,0-3.7-1.6-3.7-3.8c0-2.1,1.7-3.7,3.7-3.7V731.1z
				 M1016.4,737.5c2.2,0,3.8-1.7,3.8-3.8s-1.6-3.7-3.8-3.7v1.1c1.6,0,2.7,1.2,2.7,2.5c0,1.6-1.2,2.7-2.7,2.7V737.5"/>
			<rect x="1012.4" y="733.8" class="st5" width="8.1" height="4.1"/>
			<rect x="1016" y="732.8" width="1" height="4.2"/>
			<rect x="1016" y="732.8" class="st6" width="1" height="4.2"/>
		</g>
		<g id="_x30_2-上针脚_37_">
			<line class="st4" x1="1073.2" y1="733.7" x2="1073.2" y2="741.9"/>
			<path class="st5" d="M1073.1,730.6c-1.7,0-3,1.4-3,3c0,1.8,1.4,3.2,3,3.2c1.8,0,3.2-1.4,3.2-3.2
				C1076.3,732,1074.9,730.6,1073.1,730.6"/>
			<path d="M1073.1,731.1c-1.4,0-2.5,1.2-2.5,2.5c0,1.6,1.1,2.7,2.5,2.7v1.2c-2,0-3.7-1.6-3.7-3.8c0-2.1,1.7-3.7,3.7-3.7V731.1z
				 M1073.1,737.5c2.2,0,3.8-1.7,3.8-3.8s-1.6-3.7-3.8-3.7v1.1c1.6,0,2.7,1.2,2.7,2.5c0,1.6-1.2,2.7-2.7,2.7V737.5"/>
			<rect x="1069.1" y="733.8" class="st5" width="8.1" height="4.1"/>
			<rect x="1072.7" y="732.8" width="1" height="4.2"/>
			<rect x="1072.7" y="732.8" class="st6" width="1" height="4.2"/>
		</g>
	</g>
	<rect x="1002.4" y="707.9" class="st5" width="28.1" height="7.1"/>
	<g>
		<text transform="matrix(1 0 0 1 1007.093 713.3204)" class="st11 st7 st10">P 0.35</text>
	</g>
	<rect x="1058.8" y="330" class="st5" width="28.1" height="7.1"/>
	<g>
		<text transform="matrix(1 0 0 1 1063.4025 335.4176)" class="st11 st7 st10">V 0.35</text>
	</g>
	<rect x="1002.1" y="330" class="st5" width="28.1" height="7.1"/>
	<g>
		<text transform="matrix(1 0 0 1 1006.7452 335.4176)" class="st11 st7 st10">P 0.35</text>
	</g>
	<path class="st3" d="M1077,387.7c2.4,0,4.3-2,4.3-4.6s-1.8-4.6-4.2-4.6l-63.7,9.4c-2.4-0.1-4.2-2.2-4.2-4.6c0-2.6,1.9-4.6,4.3-4.6
		L1077,387.7z"/>
</g>
<g id="_x30_2-上针脚_42_">
	<line class="st4" x1="758.4" y1="167.3" x2="758.4" y2="159.1"/>
	<path class="st5" d="M758.3,170.4c-1.7,0-3-1.4-3-3c0-1.8,1.4-3.2,3-3.2c1.8,0,3.2,1.4,3.2,3.2C761.5,169,760.1,170.4,758.3,170.4"
		/>
	<path d="M758.3,171c-2,0-3.7-1.6-3.7-3.7c0-2.2,1.7-3.8,3.7-3.8v1.2c-1.4,0-2.5,1.1-2.5,2.7c0,1.3,1.1,2.5,2.5,2.5V171z
		 M758.3,163.5v1.2c1.5,0,2.7,1.1,2.7,2.7c0,1.3-1.1,2.5-2.7,2.5v1.1c2.2,0,3.8-1.6,3.8-3.7C762.1,165.2,760.5,163.5,758.3,163.5"/>
	<rect x="754.3" y="163.1" class="st5" width="8.1" height="4.1"/>
	<rect x="757.9" y="164" width="1" height="4.2"/>
	<rect x="757.9" y="164" class="st6" width="1" height="4.2"/>
</g>
<g id="_x30_2-上针脚_41_">
	<line class="st4" x1="815.1" y1="167.3" x2="815.1" y2="159.1"/>
	<path class="st5" d="M815,170.4c-1.7,0-3-1.4-3-3c0-1.8,1.4-3.2,3-3.2c1.8,0,3.2,1.4,3.2,3.2C818.2,169,816.8,170.4,815,170.4"/>
	<path d="M815,171c-2,0-3.7-1.6-3.7-3.7c0-2.2,1.7-3.8,3.7-3.8v1.2c-1.4,0-2.5,1.1-2.5,2.7c0,1.3,1.1,2.5,2.5,2.5V171z M815,163.5
		v1.2c1.5,0,2.7,1.1,2.7,2.7c0,1.3-1.1,2.5-2.7,2.5v1.1c2.2,0,3.8-1.6,3.8-3.7C818.8,165.2,817.2,163.5,815,163.5"/>
	<rect x="811" y="163.1" class="st5" width="8.1" height="4.1"/>
	<rect x="814.6" y="164" width="1" height="4.2"/>
	<rect x="814.6" y="164" class="st6" width="1" height="4.2"/>
</g>
<text transform="matrix(1 0 0 1 804.9163 155.4391)" class="st7 st8">CAN_H</text>
<text transform="matrix(1 0 0 1 751.7514 155.4391)" class="st7 st8">CAN_L</text>
<g>
	<text transform="matrix(1 0 0 1 764.4788 167.1739)" class="st9 st7 st10">G86(H)</text>
</g>
<text transform="matrix(1 0 0 1 785.9213 167.1604)" class="st9 st7 st10">-11</text>
<g>
	<text transform="matrix(1 0 0 1 821.8123 167.1739)" class="st9 st7 st10">G86(H)</text>
</g>
<text transform="matrix(1 0 0 1 843.2552 167.1604)" class="st9 st7 st10">-12</text>
<path class="st3" d="M818.5,252.2c2.4,0,4.3-2,4.3-4.6s-1.8-4.6-4.2-4.6l-63.7,9.4c-2.4-0.1-4.2-2.2-4.2-4.6c0-2.6,1.9-4.6,4.3-4.6
	L818.5,252.2z"/>
<rect x="801" y="194.8" class="st5" width="28.1" height="7.1"/>
<g>
	<text transform="matrix(1 0 0 1 805.6669 200.1942)" class="st11 st7 st10">P 0.35 </text>
</g>
<rect x="747.4" y="194.8" class="st5" width="25.1" height="7.1"/>
<g>
	<text transform="matrix(1 0 0 1 749.0096 200.1942)" class="st11 st7 st10">V 0.35</text>
</g>
<g>
	<circle class="st14" cx="224.7" cy="491.9" r="2.6"/>
	<path class="st14" d="M224.7,489.3c1.5,0,2.6,1.2,2.6,2.6c0,1.5-1.2,2.6-2.6,2.6"/>
</g>
<g id="_x30_1-曲线图框_18_">
	<path class="st0" d="M831.5,768.1h-77v-25.9h77c0,0-4.7,7.6,0,13C836.1,760.5,831.5,768.1,831.5,768.1z"/>
</g>
<g>
	<text transform="matrix(1 0 0 1 771.8123 740.0733)" class="st9 st7 st10">BA17</text>
</g>
<g>
	<text transform="matrix(1 0 0 1 828.6692 740.0733)" class="st9 st7 st10">BA17</text>
</g>
<text transform="matrix(1 0 0 1 787.8058 740.0048)" class="st9 st7 st10">-3</text>
<text transform="matrix(1 0 0 1 844.6663 740.0048)" class="st9 st7 st10">-2</text>
<g>
	<text transform="matrix(1 0 0 1 766.9891 757.9634)" class="st9 st7 st10">Electric Compressor</text>
</g>
<g>
	<text transform="matrix(1 0 0 1 758.3997 748.2576)" class="st7 st8">CAN_H</text>
	<text transform="matrix(1 0 0 1 813.1498 748.2576)" class="st7 st8">CAN_L</text>
</g>
<rect x="808.3" y="708.3" class="st5" width="28.1" height="7.1"/>
<g>
	<text transform="matrix(1 0 0 1 812.934 713.6389)" class="st11 st7 st10">V 0.35</text>
</g>
<g>
	<circle class="st14" cx="281.3" cy="434.7" r="2.6"/>
	<path class="st14" d="M281.3,432.1c1.5,0,2.6,1.2,2.6,2.6c0,1.5-1.2,2.6-2.6,2.6"/>
</g>
<g>
	<circle class="st14" cx="686.3" cy="584.2" r="2.6"/>
	<path class="st14" d="M686.3,581.6c1.5,0,2.6,1.2,2.6,2.6s-1.2,2.6-2.6,2.6"/>
</g>
<g>
	<path class="st14" d="M629.6,525c1.5,0,2.6,1.2,2.6,2.6c0,1.5-1.2,2.6-2.6,2.6"/>
	<circle class="st14" cx="629.6" cy="527.6" r="2.6"/>
</g>
<path class="st3" d="M826.2,668.7c2.4,0,4.3-2,4.3-4.6s-1.8-4.6-4.2-4.6l-63.7,9.4c-2.4-0.1-4.2-2.2-4.2-4.6c0-2.6,1.9-4.6,4.3-4.6
	L826.2,668.7z"/>
<rect x="751.6" y="708.3" class="st5" width="28.1" height="7.1"/>
<g>
	<text transform="matrix(1 0 0 1 756.2767 713.6389)" class="st11 st7 st10">P 0.35</text>
</g>
<g>
	<g id="_x30_2-上针脚_40_">
		<line class="st4" x1="765.7" y1="734" x2="765.7" y2="742.2"/>
		<path class="st5" d="M765.6,730.9c-1.7,0-3,1.4-3,3c0,1.8,1.4,3.2,3,3.2c1.8,0,3.2-1.4,3.2-3.2
			C768.8,732.3,767.4,730.9,765.6,730.9"/>
		<path d="M765.6,731.4c-1.4,0-2.5,1.2-2.5,2.5c0,1.6,1.1,2.7,2.5,2.7v1.2c-2,0-3.7-1.6-3.7-3.8c0-2.1,1.7-3.7,3.7-3.7V731.4z
			 M765.6,737.8c2.2,0,3.8-1.7,3.8-3.8s-1.6-3.7-3.8-3.7v1.1c1.6,0,2.7,1.2,2.7,2.5c0,1.6-1.2,2.7-2.7,2.7V737.8"/>
		<rect x="761.6" y="734.1" class="st5" width="8.1" height="4.1"/>
		<rect x="765.2" y="733.1" width="1" height="4.2"/>
		<rect x="765.2" y="733.1" class="st6" width="1" height="4.2"/>
	</g>
	<g id="_x30_2-上针脚_39_">
		<line class="st4" x1="822.4" y1="734" x2="822.4" y2="742.2"/>
		<path class="st5" d="M822.3,730.9c-1.7,0-3,1.4-3,3c0,1.8,1.4,3.2,3,3.2c1.8,0,3.2-1.4,3.2-3.2
			C825.5,732.3,824.1,730.9,822.3,730.9"/>
		<path d="M822.3,731.4c-1.4,0-2.5,1.2-2.5,2.5c0,1.6,1.1,2.7,2.5,2.7v1.2c-2,0-3.7-1.6-3.7-3.8c0-2.1,1.7-3.7,3.7-3.7V731.4z
			 M822.3,737.8c2.2,0,3.8-1.7,3.8-3.8s-1.6-3.7-3.8-3.7v1.1c1.6,0,2.7,1.2,2.7,2.5c0,1.6-1.2,2.7-2.7,2.7V737.8"/>
		<rect x="818.3" y="734.1" class="st5" width="8.1" height="4.1"/>
		<rect x="821.9" y="733.1" width="1" height="4.2"/>
		<rect x="821.9" y="733.1" class="st6" width="1" height="4.2"/>
	</g>
</g>
<g id="_x30_1-曲线图框_3_">
	<path class="st0" d="M147.2,159.1h-77v-25.9h77c0,0-4.7,7.6,0,13S147.2,159.1,147.2,159.1z"/>
</g>
<path class="st3" d="M141.5,252.2c2.4,0,4.3-2,4.3-4.6s-1.8-4.6-4.2-4.6l-63.7,9.4c-2.4-0.1-4.2-2.2-4.2-4.6c0-2.6,1.9-4.6,4.3-4.6
	L141.5,252.2z"/>
<g id="_x30_2-上针脚_6_">
	<line class="st4" x1="81.4" y1="167.3" x2="81.4" y2="159.1"/>
	<path class="st5" d="M81.3,170.4c-1.7,0-3-1.4-3-3c0-1.8,1.4-3.2,3-3.2c1.8,0,3.2,1.4,3.2,3.2C84.5,169,83.1,170.4,81.3,170.4"/>
	<path d="M81.3,171c-2,0-3.7-1.6-3.7-3.7c0-2.2,1.7-3.8,3.7-3.8v1.2c-1.4,0-2.5,1.1-2.5,2.7c0,1.3,1.1,2.5,2.5,2.5V171z M81.3,163.5
		v1.2c1.5,0,2.7,1.1,2.7,2.7c0,1.3-1.1,2.5-2.7,2.5v1.1c2.2,0,3.8-1.6,3.8-3.7C85.1,165.2,83.5,163.5,81.3,163.5"/>
	<rect x="77.3" y="163.1" class="st5" width="8.1" height="4.1"/>
	<rect x="80.9" y="164" width="1" height="4.2"/>
	<rect x="80.9" y="164" class="st6" width="1" height="4.2"/>
</g>
<g id="_x30_2-上针脚_5_">
	<line class="st4" x1="138.1" y1="167.3" x2="138.1" y2="159.1"/>
	<path class="st5" d="M138,170.4c-1.7,0-3-1.4-3-3c0-1.8,1.4-3.2,3-3.2c1.8,0,3.2,1.4,3.2,3.2C141.2,169,139.8,170.4,138,170.4"/>
	<path d="M138,171c-2,0-3.7-1.6-3.7-3.7c0-2.2,1.7-3.8,3.7-3.8v1.2c-1.4,0-2.5,1.1-2.5,2.7c0,1.3,1.1,2.5,2.5,2.5V171z M138,163.5
		v1.2c1.5,0,2.7,1.1,2.7,2.7c0,1.3-1.1,2.5-2.7,2.5v1.1c2.2,0,3.8-1.6,3.8-3.7C141.8,165.2,140.2,163.5,138,163.5"/>
	<rect x="134" y="163.1" class="st5" width="8.1" height="4.1"/>
	<rect x="137.6" y="164" width="1" height="4.2"/>
	<rect x="137.6" y="164" class="st6" width="1" height="4.2"/>
</g>
<g>
	<text transform="matrix(1 0 0 1 74.7944 155.7576)" class="st7 st8">CAN_L</text>
	<text transform="matrix(1 0 0 1 129.5444 155.7576)" class="st7 st8">CAN_H</text>
</g>
<g>
	<text transform="matrix(1 0 0 1 71.2478 758.7087)" class="st9 st7 st10">Rear Drive Motor Controller</text>
</g>
<g>
	<text transform="matrix(1 0 0 1 87.82 167.1739)" class="st9 st7 st10">K80</text>
</g>
<text transform="matrix(1 0 0 1 99.1937 167.1604)" class="st9 st7 st10">-5</text>
<g>
	<text transform="matrix(1 0 0 1 145.1534 167.1739)" class="st9 st7 st10">K80</text>
</g>
<text transform="matrix(1 0 0 1 156.5272 167.1604)" class="st9 st7 st10">-4</text>
<g>
	<text transform="matrix(1 0 0 1 85.8117 146.128)" class="st9 st7 st10">Rear PTC Heater</text>
</g>
<rect x="124" y="194.8" class="st5" width="28.1" height="7.1"/>
<g>
	<text transform="matrix(1 0 0 1 128.6596 200.1942)" class="st11 st7 st10">P 0.35</text>
</g>
<rect x="67.3" y="194.8" class="st5" width="28.1" height="7.1"/>
<g>
	<text transform="matrix(1 0 0 1 72.0023 200.1942)" class="st11 st7 st10">V 0.35</text>
</g>
<path class="st3" d="M141.9,668.7c2.4,0,4.3-2,4.3-4.6s-1.8-4.6-4.2-4.6l-63.7,9.4c-2.4-0.1-4.2-2.2-4.2-4.6c0-2.6,1.9-4.6,4.3-4.6
	L141.9,668.7z"/>
<g>
	<g id="_x30_2-上针脚_4_">
		<line class="st4" x1="81.4" y1="733.7" x2="81.4" y2="741.9"/>
		<path class="st5" d="M81.3,730.6c-1.7,0-3,1.4-3,3c0,1.8,1.4,3.2,3,3.2c1.8,0,3.2-1.4,3.2-3.2C84.5,732,83.1,730.6,81.3,730.6"/>
		<path d="M81.4,731.1c-1.4,0-2.5,1.2-2.5,2.5c0,1.6,1.1,2.7,2.5,2.7v1.2c-2,0-3.7-1.6-3.7-3.8c0-2.1,1.7-3.7,3.7-3.7V731.1z
			 M81.4,737.5c2.2,0,3.8-1.7,3.8-3.8s-1.6-3.7-3.8-3.7v1.1c1.6,0,2.7,1.2,2.7,2.5c0,1.6-1.2,2.7-2.7,2.7V737.5"/>
		<rect x="77.4" y="733.8" class="st5" width="8.1" height="4.1"/>
		<rect x="80.9" y="732.8" width="1" height="4.2"/>
		<rect x="80.9" y="732.8" class="st6" width="1" height="4.2"/>
	</g>
	<g id="_x30_2-上针脚_3_">
		<line class="st4" x1="138.1" y1="733.7" x2="138.1" y2="741.9"/>
		<path class="st5" d="M138,730.6c-1.7,0-3,1.4-3,3c0,1.8,1.4,3.2,3,3.2c1.8,0,3.2-1.4,3.2-3.2C141.2,732,139.8,730.6,138,730.6"/>
		<path d="M138.1,731.1c-1.4,0-2.5,1.2-2.5,2.5c0,1.6,1.1,2.7,2.5,2.7v1.2c-2,0-3.7-1.6-3.7-3.8c0-2.1,1.7-3.7,3.7-3.7V731.1z
			 M138.1,737.5c2.2,0,3.8-1.7,3.8-3.8s-1.6-3.7-3.8-3.7v1.1c1.6,0,2.7,1.2,2.7,2.5c0,1.6-1.2,2.7-2.7,2.7V737.5"/>
		<rect x="134.1" y="733.8" class="st5" width="8.1" height="4.1"/>
		<rect x="137.6" y="732.8" width="1" height="4.2"/>
		<rect x="137.6" y="732.8" class="st6" width="1" height="4.2"/>
	</g>
</g>
<g>
	<text transform="matrix(1 0 0 1 86.9851 739.8232)" class="st9 st7 st10">KJH01</text>
</g>
<text transform="matrix(1 0 0 1 105.9772 739.8229)" class="st9 st7 st10">-3</text>
<g>
	<text transform="matrix(1 0 0 1 143.4178 739.8233)" class="st9 st7 st10">KJH01</text>
</g>
<text transform="matrix(1 0 0 1 162.1788 739.7548)" class="st9 st7 st10">-4</text>
<g>
	<text transform="matrix(1 0 0 1 74.1753 748.0076)" class="st7 st8">CAN_L</text>
	<text transform="matrix(1 0 0 1 128.9254 748.0076)" class="st7 st8">CAN_H</text>
</g>
<rect x="124.1" y="708" class="st5" width="28.1" height="7.1"/>
<g>
	<text transform="matrix(1 0 0 1 128.7096 713.3889)" class="st11 st7 st10">P 0.35</text>
</g>
<rect x="67.4" y="708" class="st5" width="28.1" height="7.1"/>
<g>
	<text transform="matrix(1 0 0 1 72.0523 713.3889)" class="st11 st7 st10">V 0.35</text>
</g>
<g>
	<text transform="matrix(1 0 0 1 85.8117 226.7808)" class="st7 st10">*RIAC</text>
</g>
<g>
	<text transform="matrix(1 0 0 1 144.6571 227.5308)" class="st7 st10">*RIAC</text>
</g>
<g>
	<g>
		<g>
			<text transform="matrix(1 0 0 1 1023.0385 289.5381)" class="st9 st7 st10">GaJG05</text>
			<text transform="matrix(1 0 0 1 1023.0385 296.7381)" class="st9 st7 st10">GJGa05</text>
			<text transform="matrix(1 0 0 1 1023.0385 303.9381)" class="st9 st7 st10">-1</text>
		</g>
	</g>
</g>
<g>
	<rect x="1069.4" y="284.6" class="st5" width="8.5" height="18.8"/>
	<g>
		<g>
			<line class="st15" x1="1073.5" y1="293.3" x2="1073.5" y2="285.1"/>
		</g>
		<g>
			<line class="st16" x1="1073.6" y1="296.5" x2="1073.6" y2="302.9"/>
		</g>
		<g>
			<g>
				<g>
					<path class="st5" d="M1073.6,296.3c-1.7,0-3.2-1.4-3.2-3.2c0-1.8,1.5-3.2,3.2-3.2c1.8,0,3.2,1.4,3.2,3.2
						C1076.7,295,1075.3,296.3,1073.6,296.3z"/>
					<path d="M1073.6,297c-2,0-3.7-1.8-3.7-3.8h1.1c0,1.4,1.1,2.5,2.5,2.5c1.5,0,2.7-1.1,2.7-2.5h1.1
						C1077.4,295.2,1075.7,297,1073.6,297L1073.6,297z M1069.9,293.2h1.1c0-1.4,1.1-2.5,2.5-2.5c1.5,0,2.7,1.1,2.7,2.5h1.1
						c0-2.2-1.6-3.8-3.8-3.8C1071.5,289.4,1069.9,291,1069.9,293.2z"/>
				</g>
				<rect x="1069.4" y="289" class="st5" width="8.5" height="4.1"/>
				<rect x="1072.9" y="289.9" width="1" height="4.2"/>
				<rect x="1072.9" y="289.9" class="st6" width="1" height="4.2"/>
			</g>
		</g>
	</g>
</g>
<g>
	<g>
		<g>
			<text transform="matrix(1 0 0 1 1079.8955 290.0029)" class="st9 st7 st10">GaJG05</text>
			<text transform="matrix(1 0 0 1 1079.8955 297.2029)" class="st9 st7 st10">GJGa05</text>
			<text transform="matrix(1 0 0 1 1079.8955 304.4029)" class="st9 st7 st10">-2</text>
		</g>
	</g>
</g>
<g>
	<rect x="1012.4" y="284.1" class="st5" width="8.5" height="18.8"/>
	<g>
		<g>
			<line class="st15" x1="1016.5" y1="292.8" x2="1016.5" y2="284.6"/>
		</g>
		<g>
			<line class="st16" x1="1016.6" y1="296" x2="1016.6" y2="302.5"/>
		</g>
		<g>
			<g>
				<g>
					<path class="st5" d="M1016.6,295.9c-1.7,0-3.2-1.4-3.2-3.2c0-1.8,1.5-3.2,3.2-3.2c1.8,0,3.2,1.4,3.2,3.2
						C1019.7,294.5,1018.3,295.9,1016.6,295.9z"/>
					<path d="M1016.6,296.5c-2,0-3.7-1.8-3.7-3.8h1.1c0,1.4,1.1,2.5,2.5,2.5c1.5,0,2.7-1.1,2.7-2.5h1.1
						C1020.4,294.7,1018.7,296.5,1016.6,296.5L1016.6,296.5z M1012.9,292.7h1.1c0-1.4,1.1-2.5,2.5-2.5c1.5,0,2.7,1.1,2.7,2.5h1.1
						c0-2.2-1.6-3.8-3.8-3.8C1014.5,288.9,1012.9,290.6,1012.9,292.7z"/>
				</g>
				<rect x="1012.4" y="288.5" class="st5" width="8.5" height="4.1"/>
				<rect x="1015.9" y="289.4" width="1" height="4.2"/>
				<rect x="1015.9" y="289.4" class="st6" width="1" height="4.2"/>
			</g>
		</g>
	</g>
</g>
<g>
	<text transform="matrix(1 0 0 1 85.8117 690.3644)" class="st7 st10">*RDMT</text>
</g>
<g>
	<text transform="matrix(1 0 0 1 144.6571 691.1144)" class="st7 st10">*RDMT</text>
</g>
<g id="_x30_1-曲线图框_1_">
	<path class="st0" d="M439.1,768.1h-81.7v-25.9h81.7c0,0-4.9,7.6,0,13C444,760.5,439.1,768.1,439.1,768.1z"/>
</g>
<path class="st3" d="M429.1,668.7c2.4,0,4.3-2,4.3-4.6s-1.8-4.6-4.2-4.6l-63.7,9.4c-2.4-0.1-4.2-2.2-4.2-4.6c0-2.6,1.9-4.6,4.3-4.6
	L429.1,668.7z"/>
<g>
	<g id="_x30_2-上针脚_2_">
		<line class="st4" x1="368.6" y1="734" x2="368.6" y2="742.2"/>
		<path class="st5" d="M368.5,730.9c-1.7,0-3,1.4-3,3c0,1.8,1.4,3.2,3,3.2c1.8,0,3.2-1.4,3.2-3.2
			C371.7,732.3,370.3,730.9,368.5,730.9"/>
		<path d="M368.5,731.4c-1.4,0-2.5,1.2-2.5,2.5c0,1.6,1.1,2.7,2.5,2.7v1.2c-2,0-3.7-1.6-3.7-3.8c0-2.1,1.7-3.7,3.7-3.7V731.4z
			 M368.5,737.8c2.2,0,3.8-1.7,3.8-3.8s-1.6-3.7-3.8-3.7v1.1c1.6,0,2.7,1.2,2.7,2.5c0,1.6-1.2,2.7-2.7,2.7V737.8"/>
		<rect x="364.5" y="734.1" class="st5" width="8.1" height="4.1"/>
		<rect x="368.1" y="733.1" width="1" height="4.2"/>
		<rect x="368.1" y="733.1" class="st6" width="1" height="4.2"/>
	</g>
	<g id="_x30_2-上针脚_1_">
		<line class="st4" x1="425.3" y1="734" x2="425.3" y2="742.2"/>
		<path class="st5" d="M425.2,730.9c-1.7,0-3,1.4-3,3c0,1.8,1.4,3.2,3,3.2c1.8,0,3.2-1.4,3.2-3.2C428.4,732.3,427,730.9,425.2,730.9
			"/>
		<path d="M425.2,731.4c-1.4,0-2.5,1.2-2.5,2.5c0,1.6,1.1,2.7,2.5,2.7v1.2c-2,0-3.7-1.6-3.7-3.8c0-2.1,1.7-3.7,3.7-3.7V731.4z
			 M425.2,737.8c2.2,0,3.8-1.7,3.8-3.8s-1.6-3.7-3.8-3.7v1.1c1.6,0,2.7,1.2,2.7,2.5c0,1.6-1.2,2.7-2.7,2.7V737.8"/>
		<rect x="421.2" y="734.1" class="st5" width="8.1" height="4.1"/>
		<rect x="424.8" y="733.1" width="1" height="4.2"/>
		<rect x="424.8" y="733.1" class="st6" width="1" height="4.2"/>
	</g>
</g>
<g>
	<text transform="matrix(1 0 0 1 374.2378 740.0733)" class="st9 st7 st10">B28</text>
</g>
<text transform="matrix(1 0 0 1 385.6111 740.0048)" class="st9 st7 st10">-14</text>
<g>
	<text transform="matrix(1 0 0 1 430.5713 740.0733)" class="st9 st7 st10">B28</text>
</g>
<text transform="matrix(1 0 0 1 441.9442 740.0048)" class="st9 st7 st10">-5</text>
<g>
	<text transform="matrix(1 0 0 1 361.3287 748.2576)" class="st7 st8">CAN_L</text>
	<text transform="matrix(1 0 0 1 416.0788 748.2576)" class="st7 st8">CAN_H</text>
</g>
<rect x="411.2" y="708.3" class="st5" width="28.1" height="7.1"/>
<g>
	<text transform="matrix(1 0 0 1 415.863 713.6389)" class="st11 st7 st10">P 0.35</text>
</g>
<rect x="354.5" y="708.3" class="st5" width="28.1" height="7.1"/>
<g>
	<text transform="matrix(1 0 0 1 359.2057 713.6389)" class="st11 st7 st10">V 0.35</text>
</g>
<g id="_x30_1-曲线图框_4_">
	<path class="st0" d="M959.1,768.1h-77v-25.9h77c0,0-4.7,7.6,0,13C963.8,760.5,959.1,768.1,959.1,768.1z"/>
</g>
<g>
	<text transform="matrix(1 0 0 1 898.9669 740.0733)" class="st9 st7 st10">B74</text>
</g>
<text transform="matrix(1 0 0 1 910.3402 740.0048)" class="st9 st7 st10">-16</text>
<g>
	<text transform="matrix(1 0 0 1 955.3004 740.0733)" class="st9 st7 st10">B74</text>
</g>
<text transform="matrix(1 0 0 1 966.6732 740.0048)" class="st9 st7 st10">-17</text>
<g>
	<text transform="matrix(1 0 0 1 886.0578 748.2576)" class="st7 st8">CAN_H</text>
	<text transform="matrix(1 0 0 1 940.8079 748.2576)" class="st7 st8">CAN_L</text>
</g>
<rect x="936" y="708.3" class="st5" width="28.1" height="7.1"/>
<g>
	<text transform="matrix(1 0 0 1 940.5921 713.6389)" class="st11 st7 st10">V 0.35</text>
</g>
<path class="st3" d="M953.8,668.7c2.4,0,4.3-2,4.3-4.6s-1.8-4.6-4.2-4.6l-63.7,9.4c-2.4-0.1-4.2-2.2-4.2-4.6c0-2.6,1.9-4.6,4.3-4.6
	L953.8,668.7z"/>
<rect x="879.3" y="708.3" class="st5" width="28.1" height="7.1"/>
<g>
	<text transform="matrix(1 0 0 1 883.9348 713.6389)" class="st11 st7 st10">P 0.35</text>
</g>
<g>
	<g id="_x30_2-上针脚_8_">
		<line class="st4" x1="893.3" y1="734" x2="893.3" y2="742.2"/>
		<path class="st5" d="M893.2,730.9c-1.7,0-3,1.4-3,3c0,1.8,1.4,3.2,3,3.2c1.8,0,3.2-1.4,3.2-3.2C896.4,732.3,895,730.9,893.2,730.9
			"/>
		<path d="M893.3,731.4c-1.4,0-2.5,1.2-2.5,2.5c0,1.6,1.1,2.7,2.5,2.7v1.2c-2,0-3.7-1.6-3.7-3.8c0-2.1,1.7-3.7,3.7-3.7V731.4z
			 M893.3,737.8c2.2,0,3.8-1.7,3.8-3.8s-1.6-3.7-3.8-3.7v1.1c1.6,0,2.7,1.2,2.7,2.5c0,1.6-1.2,2.7-2.7,2.7V737.8"/>
		<rect x="889.3" y="734.1" class="st5" width="8.1" height="4.1"/>
		<rect x="892.8" y="733.1" width="1" height="4.2"/>
		<rect x="892.8" y="733.1" class="st6" width="1" height="4.2"/>
	</g>
	<g id="_x30_2-上针脚_7_">
		<line class="st4" x1="950" y1="734" x2="950" y2="742.2"/>
		<path class="st5" d="M949.9,730.9c-1.7,0-3,1.4-3,3c0,1.8,1.4,3.2,3,3.2c1.8,0,3.2-1.4,3.2-3.2
			C953.1,732.3,951.7,730.9,949.9,730.9"/>
		<path d="M950,731.4c-1.4,0-2.5,1.2-2.5,2.5c0,1.6,1.1,2.7,2.5,2.7v1.2c-2,0-3.7-1.6-3.7-3.8c0-2.1,1.7-3.7,3.7-3.7V731.4z
			 M950,737.8c2.2,0,3.8-1.7,3.8-3.8s-1.6-3.7-3.8-3.7v1.1c1.6,0,2.7,1.2,2.7,2.5c0,1.6-1.2,2.7-2.7,2.7V737.8"/>
		<rect x="946" y="734.1" class="st5" width="8.1" height="4.1"/>
		<rect x="949.5" y="733.1" width="1" height="4.2"/>
		<rect x="949.5" y="733.1" class="st6" width="1" height="4.2"/>
	</g>
</g>
<g>
	<text transform="matrix(1 0 0 1 615.2726 148.7891)" class="st9 st7 st10">Right  Body Controller</text>
</g>
<g>
	<text transform="matrix(1 0 0 1 1009.2162 757.9633)" class="st9 st7 st10">Central Control Large Screen Host</text>
</g>
<g>
	<text transform="matrix(1 0 0 1 226.2787 759.8693)" class="st9 st7 st10">Low Voltage BMS</text>
</g>
<g>
	<text transform="matrix(1 0 0 1 357.4015 758.7089)" class="st9 st7 st10">Front Drive Motor Controller</text>
</g>
<g>
	<text transform="matrix(1 0 0 1 630.163 759.8691)" class="st9 st7 st10">Power Battery Pack</text>
</g>
<g>
	<text transform="matrix(1 0 0 1 895.1708 761.2966)" class="st9 st7 st10">Power Battery Pack</text>
</g>
<g>
	<polyline class="st17" points="35,28.3 1248.2,28.3 1248.2,86.2 35,86.2 	"/>
	<line class="st18" x1="35" y1="34" x2="1248.2" y2="34"/>
	<line class="st19" x1="35" y1="28" x2="1248.2" y2="28"/>
	<line class="st18" x1="35" y1="45.3" x2="1248.2" y2="45.3"/>
	<line class="st18" x1="35" y1="57" x2="1248.2" y2="57"/>
	<line class="st18" x1="35" y1="80.4" x2="1248.2" y2="80.4"/>
	<line class="st19" x1="35.1" y1="86.2" x2="1248.2" y2="86.2"/>
	<text transform="matrix(1 0 0 1 25.5227 36.157)" class="st20 st7 st10">30</text>
	<text transform="matrix(1 0 0 1 22.3585 47.3231)" class="st20 st7 st10">IG1</text>
	<line class="st18" x1="35" y1="68.7" x2="1248.2" y2="68.7"/>
	<text transform="matrix(1 0 0 1 22.3585 70.723)" class="st20 st7 st10">IG4</text>
	<text transform="matrix(1 0 0 1 22.4055 58.9481)" class="st20 st7 st10">IG3</text>
	<text transform="matrix(1 0 0 1 18.8666 82.148)" class="st20 st7 st10">ACC</text>
	<g>
		<text transform="matrix(1 0 0 1 1251.7513 36.157)" class="st20 st7 st10">30</text>
		<text transform="matrix(1 0 0 1 1251.7513 47.3231)" class="st20 st7 st10">IG1</text>
		<text transform="matrix(1 0 0 1 1251.7513 70.723)" class="st20 st7 st10">IG4</text>
		<text transform="matrix(1 0 0 1 1251.7513 58.9481)" class="st20 st7 st10">IG3</text>
		<text transform="matrix(1 0 0 1 1251.7513 82.148)" class="st20 st7 st10">ACC</text>
	</g>
</g>
</svg>
