<?xml version="1.0" encoding="utf-8"?>
<!-- Generator: Adobe Illustrator 24.0.1, SVG Export Plug-In . SVG Version: 6.00 Build 0)  -->
<svg version="1.1" id="图层_1" xmlns="http://www.w3.org/2000/svg" xmlns:xlink="http://www.w3.org/1999/xlink" x="0px" y="0px"
	 viewBox="0 0 1264.1 841.9" style="enable-background:new 0 0 1264.1 841.9;" xml:space="preserve">
<style type="text/css">
	.st0{fill:none;stroke:#89438F;stroke-width:3;stroke-miterlimit:10;}
	.st1{fill:none;stroke:#F29C97;stroke-width:3;stroke-miterlimit:10;}
	.st2{fill:#9CD2ED;}
	.st3{fill:none;stroke:#000000;stroke-width:0.5;stroke-linecap:round;stroke-miterlimit:10;}
	.st4{fill:none;stroke:#231815;stroke-width:0.5;stroke-miterlimit:10;}
	.st5{fill:none;stroke:#000000;stroke-width:0.6;stroke-linejoin:round;}
	.st6{fill:#FFFFFF;}
	.st7{fill:none;stroke:#000000;stroke-width:0.72;stroke-linecap:round;stroke-linejoin:round;}
	.st8{font-family:'FZLTHJW--GB1-0';}
	.st9{font-size:4px;}
	.st10{fill:#005EAD;}
	.st11{font-size:6px;}
	.st12{enable-background:new    ;}
	.st13{fill:none;stroke:#040000;stroke-width:0.25;}
	.st14{fill:none;stroke:#FFFFFF;stroke-width:0.5;}
	.st15{fill:#9CD2ED;stroke:#000000;stroke-width:0.5;stroke-miterlimit:10;}
	.st16{fill:none;stroke:#000000;stroke-width:0.6;stroke-linecap:round;stroke-linejoin:round;}
	.st17{fill:none;stroke:#000000;stroke-width:0.6;stroke-linecap:round;}
	.st18{fill:#DCDDDD;}
	.st19{fill:none;stroke:#000000;stroke-width:0.5;}
	.st20{fill:none;stroke:#000000;}
	.st21{fill:#0B5698;}
	.st22{fill:#065AA1;}
</style>
<polyline class="st0" points="720.4,731.7 720.4,533.2 892.7,533.2 903.3,519.2 "/>
<polyline class="st1" points="777.1,731.7 777.1,475 829.3,475 846.6,461.9 "/>
<polyline class="st1" points="975.6,734 975.6,478.1 865.3,478.1 847.4,460.7 "/>
<polyline class="st1" points="974.6,168.8 974.6,268.5 847.4,268.5 "/>
<line class="st0" x1="519.1" y1="169.3" x2="519.1" y2="732.6"/>
<polyline class="st0" points="331.4,732 331.4,614.2 519.1,614.2 "/>
<polyline class="st0" points="58.7,169.3 58.7,491.9 392.1,491.9 392.1,168.8 "/>
<polyline class="st0" points="253.4,736.6 253.4,509.6 78.8,509.6 59.1,491.9 "/>
<polyline class="st0" points="253.4,168.8 253.4,472 80.9,472 59.1,491.9 "/>
<polyline class="st1" points="335.4,168.8 335.4,399.3 335.4,399.6 115.4,399.6 115.4,169.3 "/>
<polyline class="st1" points="388.1,732 388.1,557 462.4,557 "/>
<line class="st0" x1="58.7" y1="733.7" x2="58.7" y2="492.1"/>
<line class="st1" x1="115.4" y1="736.3" x2="115.4" y2="398.5"/>
<path class="st2" d="M262.6,159.3l-77,0v-25.9l77,0c0,0-4.7,7.6,0,13C267.2,151.7,262.6,159.3,262.6,159.3"/>
<path class="st3" d="M262.6,159.3l-77,0v-25.9l77,0c0,0-4.7,7.6,0,13C267.2,151.7,262.6,159.3,262.6,159.3z"/>
<path class="st2" d="M262.6,768.1l-77,0v-25.9l77,0c0,0-4.7,7.6,0,13C267.2,760.5,262.6,768.1,262.6,768.1"/>
<path class="st3" d="M262.6,768.1l-77,0v-25.9l77,0c0,0-4.7,7.6,0,13C267.2,760.5,262.6,768.1,262.6,768.1z"/>
<path class="st2" d="M124.5,159.1l-77,0v-25.9l77,0c0,0-4.7,7.6,0,13C129.2,151.5,124.5,159.1,124.5,159.1"/>
<path class="st3" d="M124.5,159.1l-77,0v-25.9l77,0c0,0-4.7,7.6,0,13C129.2,151.5,124.5,159.1,124.5,159.1z"/>
<polyline class="st1" points="196.7,734 196.7,417 133.6,417 115.7,399.6 "/>
<polyline class="st1" points="196.7,168.8 196.7,380 137.3,380 115.7,399.6 "/>
<path class="st4" d="M118.8,252.2c2.4,0,4.3-2,4.3-4.6c0-2.6-1.8-4.6-4.2-4.6l-63.7,9.4c-2.4-0.1-4.2-2.2-4.2-4.6
	c0-2.6,1.9-4.6,4.3-4.6L118.8,252.2z"/>
<path class="st4" d="M257.2,668.7c2.4,0,4.3-2,4.3-4.6c0-2.6-1.8-4.6-4.2-4.6l-63.7,9.4c-2.4-0.1-4.2-2.2-4.2-4.6
	c0-2.6,1.9-4.6,4.3-4.6L257.2,668.7z"/>
<line class="st5" x1="196.8" y1="167.3" x2="196.8" y2="159.1"/>
<path class="st6" d="M196.7,170.4c-1.7,0-3-1.4-3-3c0-1.8,1.4-3.2,3-3.2c1.8,0,3.2,1.4,3.2,3.2C199.9,169,198.5,170.4,196.7,170.4"
	/>
<path d="M196.7,171c-2,0-3.7-1.6-3.7-3.7c0-2.2,1.7-3.8,3.7-3.8v1.2c-1.4,0-2.5,1.1-2.5,2.7c0,1.3,1.1,2.5,2.5,2.5V171z
	 M196.7,163.5v1.2c1.5,0,2.7,1.1,2.7,2.7c0,1.3-1.1,2.5-2.7,2.5v1.1c2.2,0,3.8-1.6,3.8-3.7C200.5,165.2,198.9,163.5,196.7,163.5"/>
<rect x="192.7" y="163.1" class="st6" width="8.1" height="4.1"/>
<rect x="196.3" y="164" width="1" height="4.2"/>
<rect x="196.3" y="164" class="st7" width="1" height="4.2"/>
<line class="st5" x1="253.4" y1="167.3" x2="253.4" y2="159.1"/>
<path class="st6" d="M253.3,170.4c-1.7,0-3-1.4-3-3c0-1.8,1.4-3.2,3-3.2c1.8,0,3.2,1.4,3.2,3.2C256.5,169,255.1,170.4,253.3,170.4"
	/>
<path d="M253.4,171c-2,0-3.7-1.6-3.7-3.7c0-2.2,1.7-3.8,3.7-3.8v1.2c-1.4,0-2.5,1.1-2.5,2.7c0,1.3,1.1,2.5,2.5,2.5V171z
	 M253.4,163.5v1.2c1.5,0,2.7,1.1,2.7,2.7c0,1.3-1.1,2.5-2.7,2.5v1.1c2.2,0,3.8-1.6,3.8-3.7C257.2,165.2,255.6,163.5,253.4,163.5"/>
<rect x="249.4" y="163.1" class="st6" width="8.1" height="4.1"/>
<rect x="252.9" y="164" width="1" height="4.2"/>
<rect x="252.9" y="164" class="st7" width="1" height="4.2"/>
<line class="st5" x1="196.8" y1="734" x2="196.8" y2="742.2"/>
<path class="st6" d="M196.7,730.9c-1.7,0-3,1.4-3,3c0,1.8,1.4,3.2,3,3.2c1.8,0,3.2-1.4,3.2-3.2C199.9,732.3,198.5,730.9,196.7,730.9
	"/>
<path d="M196.7,731.4c-1.4,0-2.5,1.2-2.5,2.5c0,1.6,1.1,2.7,2.5,2.7v1.2c-2,0-3.7-1.6-3.7-3.8c0-2.1,1.7-3.7,3.7-3.7V731.4z
	 M196.7,737.8c2.2,0,3.8-1.7,3.8-3.8s-1.6-3.7-3.8-3.7v1.1c1.6,0,2.7,1.2,2.7,2.5c0,1.6-1.2,2.7-2.7,2.7V737.8"/>
<rect x="192.7" y="734.1" class="st6" width="8.1" height="4.1"/>
<rect x="196.3" y="733.1" width="1" height="4.2"/>
<rect x="196.3" y="733.1" class="st7" width="1" height="4.2"/>
<line class="st5" x1="253.4" y1="734" x2="253.4" y2="742.2"/>
<path class="st6" d="M253.3,730.9c-1.7,0-3,1.4-3,3c0,1.8,1.4,3.2,3,3.2c1.8,0,3.2-1.4,3.2-3.2C256.5,732.3,255.1,730.9,253.3,730.9
	"/>
<path d="M253.4,731.4c-1.4,0-2.5,1.2-2.5,2.5c0,1.6,1.1,2.7,2.5,2.7v1.2c-2,0-3.7-1.6-3.7-3.8c0-2.1,1.7-3.7,3.7-3.7V731.4z
	 M253.4,737.8c2.2,0,3.8-1.7,3.8-3.8s-1.6-3.7-3.8-3.7v1.1c1.6,0,2.7,1.2,2.7,2.5c0,1.6-1.2,2.7-2.7,2.7V737.8"/>
<rect x="249.4" y="734.1" class="st6" width="8.1" height="4.1"/>
<rect x="252.9" y="733.1" width="1" height="4.2"/>
<rect x="252.9" y="733.1" class="st7" width="1" height="4.2"/>
<text transform="matrix(1 0 0 1 190.4868 155.7582)" class="st8 st9">CAN_H</text>
<text transform="matrix(1 0 0 1 245.2388 155.7582)" class="st8 st9">CAN_L</text>
<line class="st5" x1="58.7" y1="167.3" x2="58.7" y2="159.1"/>
<path class="st6" d="M58.6,170.4c-1.7,0-3-1.4-3-3c0-1.8,1.4-3.2,3-3.2c1.8,0,3.2,1.4,3.2,3.2C61.8,169,60.4,170.4,58.6,170.4"/>
<path d="M58.7,171c-2,0-3.7-1.6-3.7-3.7c0-2.2,1.7-3.8,3.7-3.8v1.2c-1.4,0-2.5,1.1-2.5,2.7c0,1.3,1.1,2.5,2.5,2.5V171z M58.7,163.5
	v1.2c1.5,0,2.7,1.1,2.7,2.7c0,1.3-1.1,2.5-2.7,2.5v1.1c2.2,0,3.8-1.6,3.8-3.7C62.5,165.2,60.9,163.5,58.7,163.5"/>
<rect x="54.7" y="163.1" class="st6" width="8.1" height="4.1"/>
<rect x="58.2" y="164" width="1" height="4.2"/>
<rect x="58.2" y="164" class="st7" width="1" height="4.2"/>
<line class="st5" x1="115.4" y1="167.3" x2="115.4" y2="159.1"/>
<path class="st6" d="M115.3,170.4c-1.7,0-3-1.4-3-3c0-1.8,1.4-3.2,3-3.2c1.8,0,3.2,1.4,3.2,3.2C118.5,169,117.1,170.4,115.3,170.4"
	/>
<path d="M115.4,171c-2,0-3.7-1.6-3.7-3.7c0-2.2,1.7-3.8,3.7-3.8v1.2c-1.4,0-2.5,1.1-2.5,2.7c0,1.3,1.1,2.5,2.5,2.5V171z
	 M115.4,163.5v1.2c1.5,0,2.7,1.1,2.7,2.7c0,1.3-1.1,2.5-2.7,2.5v1.1c2.2,0,3.8-1.6,3.8-3.7C119.2,165.2,117.6,163.5,115.4,163.5"/>
<rect x="111.4" y="163.1" class="st6" width="8.1" height="4.1"/>
<rect x="114.9" y="164" width="1" height="4.2"/>
<rect x="114.9" y="164" class="st7" width="1" height="4.2"/>
<text transform="matrix(1 0 0 1 202.396 740.0736)" class="st10 st8 st11">B03</text>
<text transform="matrix(1 0 0 1 213.772 740.0736)" class="st10 st8 st11">-5</text>
<text transform="matrix(1 0 0 1 258.73 740.0736)" class="st10 st8 st11">B03</text>
<text transform="matrix(1 0 0 1 270.106 740.0736)" class="st10 st8 st11">-19</text>
<text transform="matrix(1 0 0 1 182.708 779.6158)" class="st10 st8 st11">Integrated Power Brake Controller</text>
<text transform="matrix(1 0 0 1 52.1411 155.7582)" class="st8 st9">CAN_L</text>
<text transform="matrix(1 0 0 1 106.8892 155.7582)" class="st8 st9">CAN_H</text>
<text transform="matrix(1 0 0 1 189.4854 748.2582)" class="st8 st9">CAN_H</text>
<text transform="matrix(1 0 0 1 244.2373 748.2582)" class="st8 st9">CAN_L</text>
<text transform="matrix(1 0 0 1 202.833 167.1742)" class="st10 st8 st11">B06</text>
<text transform="matrix(1 0 0 1 214.209 167.1742)" class="st10 st8 st11">-10</text>
<text transform="matrix(1 0 0 1 260.1689 167.1742)" class="st10 st8 st11">B06</text>
<text transform="matrix(1 0 0 1 271.5449 167.1742)" class="st10 st8 st11">-11</text>
<text transform="matrix(1 0 0 1 65.1689 167.1801)" class="st10 st8 st11">B22</text>
<text transform="matrix(1 0 0 1 76.5449 167.1801)" class="st10 st8 st11">-2</text>
<text transform="matrix(1 0 0 1 122.5049 167.1801)" class="st10 st8 st11">B22</text>
<text transform="matrix(1 0 0 1 133.8809 167.1801)" class="st10 st8 st11">-3</text>
<text transform="matrix(1 0 0 1 42.4676 127.5822)" class="st10 st8 st11">Electronic Power Steering Controller</text>
<rect x="101.4" y="194.8" class="st6" width="28.1" height="7.1"/>
<g class="st12">
	<g>
		<text transform="matrix(1 0 0 1 106.0059 200.1947)" class="st8 st11">P 0.35</text>
	</g>
</g>
<rect x="44.7" y="194.8" class="st6" width="28.1" height="7.1"/>
<g class="st12">
	<g>
		<text transform="matrix(1 0 0 1 49.3486 200.1947)" class="st8 st11">V 0.35</text>
	</g>
</g>
<rect x="239.4" y="708.3" class="st6" width="28.1" height="7.1"/>
<g class="st12">
	<g>
		<text transform="matrix(1 0 0 1 244.0215 713.639)" class="st8 st11">V 0.35</text>
	</g>
</g>
<rect x="182.7" y="708.3" class="st6" width="28.1" height="7.1"/>
<g class="st12">
	<g>
		<text transform="matrix(1 0 0 1 187.3638 713.639)" class="st8 st11">P 0.35</text>
	</g>
</g>
<path class="st2" d="M124.6,767.8l-77,0v-25.9l77,0c0,0-4.7,7.6,0,13C129.3,760.2,124.6,767.8,124.6,767.8"/>
<path class="st3" d="M124.6,767.8l-77,0v-25.9l77,0c0,0-4.7,7.6,0,13C129.3,760.2,124.6,767.8,124.6,767.8z"/>
<path class="st4" d="M119.3,668.7c2.4,0,4.3-2,4.3-4.6c0-2.6-1.8-4.6-4.2-4.6l-63.7,9.4c-2.4-0.1-4.2-2.2-4.2-4.6
	c0-2.6,1.9-4.6,4.3-4.6L119.3,668.7z"/>
<line class="st5" x1="58.8" y1="733.7" x2="58.8" y2="741.9"/>
<path class="st6" d="M58.7,730.6c-1.7,0-3,1.4-3,3c0,1.8,1.4,3.2,3,3.2c1.8,0,3.2-1.4,3.2-3.2C61.9,732,60.5,730.6,58.7,730.6"/>
<path d="M58.7,731.1c-1.4,0-2.5,1.2-2.5,2.5c0,1.6,1.1,2.7,2.5,2.7v1.2c-2,0-3.7-1.6-3.7-3.8c0-2.1,1.7-3.7,3.7-3.7V731.1z
	 M58.7,737.5c2.2,0,3.8-1.7,3.8-3.8s-1.6-3.7-3.8-3.7v1.1c1.6,0,2.7,1.2,2.7,2.5c0,1.6-1.2,2.7-2.7,2.7V737.5"/>
<rect x="54.7" y="733.8" class="st6" width="8.1" height="4.1"/>
<rect x="58.3" y="732.8" width="1" height="4.2"/>
<rect x="58.3" y="732.8" class="st7" width="1" height="4.2"/>
<line class="st5" x1="115.5" y1="733.7" x2="115.5" y2="741.9"/>
<path class="st6" d="M115.4,730.6c-1.7,0-3,1.4-3,3c0,1.8,1.4,3.2,3,3.2c1.8,0,3.2-1.4,3.2-3.2C118.6,732,117.2,730.6,115.4,730.6"
	/>
<path d="M115.4,731.1c-1.4,0-2.5,1.2-2.5,2.5c0,1.6,1.1,2.7,2.5,2.7v1.2c-2,0-3.7-1.6-3.7-3.8c0-2.1,1.7-3.7,3.7-3.7V731.1z
	 M115.4,737.5c2.2,0,3.8-1.7,3.8-3.8s-1.6-3.7-3.8-3.7v1.1c1.6,0,2.7,1.2,2.7,2.5c0,1.6-1.2,2.7-2.7,2.7V737.5"/>
<rect x="111.4" y="733.8" class="st6" width="8.1" height="4.1"/>
<rect x="115" y="732.8" width="1" height="4.2"/>
<rect x="115" y="732.8" class="st7" width="1" height="4.2"/>
<text transform="matrix(1 0 0 1 64.4307 739.8236)" class="st10 st8 st11">B05</text>
<text transform="matrix(1 0 0 1 75.8066 739.8236)" class="st10 st8 st11">-11</text>
<text transform="matrix(1 0 0 1 120.7646 739.8236)" class="st10 st8 st11">B05</text>
<text transform="matrix(1 0 0 1 132.1406 739.8236)" class="st10 st8 st11">-10</text>
<text transform="matrix(1 0 0 1 51.522 748.0082)" class="st8 st9">CAN_L</text>
<text transform="matrix(1 0 0 1 106.2739 748.0082)" class="st8 st9">CAN_H</text>
<rect x="101.4" y="708" class="st6" width="28.1" height="7.1"/>
<g class="st12">
	<g>
		<text transform="matrix(1 0 0 1 106.0562 713.389)" class="st8 st11">P 0.35</text>
	</g>
</g>
<rect x="44.7" y="708" class="st6" width="28.1" height="7.1"/>
<g class="st12">
	<g>
		<text transform="matrix(1 0 0 1 49.3989 713.389)" class="st8 st11">V 0.35</text>
	</g>
</g>
<rect x="84.3" y="396" class="st6" width="24.8" height="7.2"/>
<rect x="84.3" y="396" class="st13" width="24.8" height="7.2"/>
<text transform="matrix(1 0 0 1 84.8921 401.6635)" class="st8 st11">SP2219</text>
<rect x="27.3" y="488.3" class="st6" width="24.8" height="7.2"/>
<rect x="27.3" y="488.3" class="st13" width="24.8" height="7.2"/>
<text transform="matrix(1 0 0 1 27.8818 493.9359)" class="st8 st11">SP2200</text>
<path class="st2" d="M528.2,768.1l-77,0v-25.9l77,0c0,0-4.7,7.6,0,13C532.9,760.5,528.2,768.1,528.2,768.1"/>
<path class="st3" d="M528.2,768.1l-77,0v-25.9l77,0c0,0-4.7,7.6,0,13C532.9,760.5,528.2,768.1,528.2,768.1z"/>
<line class="st1" x1="462.4" y1="168.8" x2="462.4" y2="732"/>
<path d="M462.4,554.3c1.5,0,2.6,1.2,2.6,2.6c0,1.5-1.2,2.6-2.6,2.6"/>
<path class="st14" d="M462.4,554.3c1.5,0,2.6,1.2,2.6,2.6c0,1.5-1.2,2.6-2.6,2.6"/>
<path d="M465,557c0,1.5-1.2,2.6-2.6,2.6s-2.6-1.2-2.6-2.6c0-1.5,1.2-2.6,2.6-2.6S465,555.5,465,557"/>
<path class="st14" d="M465,557c0,1.5-1.2,2.6-2.6,2.6s-2.6-1.2-2.6-2.6c0-1.5,1.2-2.6,2.6-2.6S465,555.5,465,557z"/>
<path class="st4" d="M522.9,252.2c2.4,0,4.3-2,4.3-4.6c0-2.6-1.8-4.6-4.2-4.6l-63.7,9.4c-2.4-0.1-4.2-2.2-4.2-4.6
	c0-2.6,1.9-4.6,4.3-4.6L522.9,252.2z"/>
<path class="st4" d="M522.9,668.7c2.4,0,4.3-2,4.3-4.6c0-2.6-1.8-4.6-4.2-4.6l-63.7,9.4c-2.4-0.1-4.2-2.2-4.2-4.6
	c0-2.6,1.9-4.6,4.3-4.6L522.9,668.7z"/>
<line class="st5" x1="462.4" y1="734" x2="462.4" y2="742.2"/>
<path class="st6" d="M462.3,730.9c-1.7,0-3,1.4-3,3c0,1.8,1.4,3.2,3,3.2c1.8,0,3.2-1.4,3.2-3.2C465.5,732.3,464.1,730.9,462.3,730.9
	"/>
<path d="M462.4,731.4c-1.4,0-2.5,1.2-2.5,2.5c0,1.6,1.1,2.7,2.5,2.7v1.2c-2,0-3.7-1.6-3.7-3.8c0-2.1,1.7-3.7,3.7-3.7V731.4z
	 M462.4,737.8c2.2,0,3.8-1.7,3.8-3.8s-1.6-3.7-3.8-3.7v1.1c1.6,0,2.7,1.2,2.7,2.5c0,1.6-1.2,2.7-2.7,2.7V737.8"/>
<rect x="458.4" y="734.1" class="st6" width="8.1" height="4.1"/>
<rect x="461.9" y="733.1" width="1" height="4.2"/>
<rect x="461.9" y="733.1" class="st7" width="1" height="4.2"/>
<line class="st5" x1="519.1" y1="734" x2="519.1" y2="742.2"/>
<path class="st6" d="M519,730.9c-1.7,0-3,1.4-3,3c0,1.8,1.4,3.2,3,3.2c1.8,0,3.2-1.4,3.2-3.2C522.2,732.3,520.8,730.9,519,730.9"/>
<path d="M519.1,731.4c-1.4,0-2.5,1.2-2.5,2.5c0,1.6,1.1,2.7,2.5,2.7v1.2c-2,0-3.7-1.6-3.7-3.8c0-2.1,1.7-3.7,3.7-3.7V731.4z
	 M519.1,737.8c2.2,0,3.8-1.7,3.8-3.8s-1.6-3.7-3.8-3.7v1.1c1.6,0,2.7,1.2,2.7,2.5c0,1.6-1.2,2.7-2.7,2.7V737.8"/>
<rect x="515.1" y="734.1" class="st6" width="8.1" height="4.1"/>
<rect x="518.6" y="733.1" width="1" height="4.2"/>
<rect x="518.6" y="733.1" class="st7" width="1" height="4.2"/>
<text transform="matrix(1 0 0 1 468.082 740.0736)" class="st10 st8 st11">G07(A)</text>
<text transform="matrix(1 0 0 1 489.1001 740.0736)" class="st10 st8 st11">-18</text>
<text transform="matrix(1 0 0 1 524.416 740.0736)" class="st10 st8 st11">G07(A)</text>
<text transform="matrix(1 0 0 1 545.3799 740.0736)" class="st10 st8 st11">-2</text>
<text transform="matrix(1 0 0 1 472.7439 779.3209)" class="st10 st8 st11">PAD Host</text>
<text transform="matrix(1 0 0 1 455.1729 748.2582)" class="st8 st9">CAN_H</text>
<text transform="matrix(1 0 0 1 509.9248 748.2582)" class="st8 st9">CAN_L</text>
<line class="st5" x1="462.4" y1="167.3" x2="462.4" y2="159.1"/>
<path class="st6" d="M462.3,170.4c-1.7,0-3-1.4-3-3c0-1.8,1.4-3.2,3-3.2c1.8,0,3.2,1.4,3.2,3.2C465.5,169,464.1,170.4,462.3,170.4"
	/>
<path d="M462.4,171c-2,0-3.7-1.6-3.7-3.7c0-2.2,1.7-3.8,3.7-3.8v1.2c-1.4,0-2.5,1.1-2.5,2.7c0,1.3,1.1,2.5,2.5,2.5V171z
	 M462.4,163.5v1.2c1.5,0,2.7,1.1,2.7,2.7c0,1.3-1.1,2.5-2.7,2.5v1.1c2.2,0,3.8-1.6,3.8-3.7C466.2,165.2,464.6,163.5,462.4,163.5"/>
<rect x="458.4" y="163.1" class="st6" width="8.1" height="4.1"/>
<rect x="461.9" y="164" width="1" height="4.2"/>
<rect x="461.9" y="164" class="st7" width="1" height="4.2"/>
<line class="st5" x1="519.1" y1="167.3" x2="519.1" y2="159.1"/>
<path class="st6" d="M519,170.4c-1.7,0-3-1.4-3-3c0-1.8,1.4-3.2,3-3.2c1.8,0,3.2,1.4,3.2,3.2C522.2,169,520.8,170.4,519,170.4"/>
<path d="M519.1,171c-2,0-3.7-1.6-3.7-3.7c0-2.2,1.7-3.8,3.7-3.8v1.2c-1.4,0-2.5,1.1-2.5,2.7c0,1.3,1.1,2.5,2.5,2.5V171z
	 M519.1,163.5v1.2c1.5,0,2.7,1.1,2.7,2.7c0,1.3-1.1,2.5-2.7,2.5v1.1c2.2,0,3.8-1.6,3.8-3.7C522.9,165.2,521.3,163.5,519.1,163.5"/>
<rect x="515.1" y="163.1" class="st6" width="8.1" height="4.1"/>
<rect x="518.6" y="164" width="1" height="4.2"/>
<rect x="518.6" y="164" class="st7" width="1" height="4.2"/>
<text transform="matrix(1 0 0 1 456.1724 155.7582)" class="st8 st9">CAN_H</text>
<text transform="matrix(1 0 0 1 510.9243 155.7582)" class="st8 st9">CAN_L</text>
<text transform="matrix(1 0 0 1 468.519 167.1742)" class="st10 st8 st11">G86(H)</text>
<text transform="matrix(1 0 0 1 489.7832 167.1742)" class="st10 st8 st11">-14</text>
<text transform="matrix(1 0 0 1 525.855 167.1742)" class="st10 st8 st11">G86(H)</text>
<text transform="matrix(1 0 0 1 546.855 167.2762)" class="st10 st8 st11">-13</text>
<rect x="504.7" y="194.8" class="st6" width="28.1" height="7.1"/>
<g class="st12">
	<g>
		<text transform="matrix(1 0 0 1 509.3594 200.1947)" class="st8 st11">V 0.35</text>
	</g>
</g>
<rect x="448" y="194.8" class="st6" width="28.1" height="7.1"/>
<g class="st12">
	<g>
		<text transform="matrix(1 0 0 1 452.7021 200.1947)" class="st8 st11">P 0.35</text>
	</g>
</g>
<rect x="505.1" y="708.3" class="st6" width="28.1" height="7.1"/>
<g class="st12">
	<g>
		<text transform="matrix(1 0 0 1 509.707 713.639)" class="st8 st11">V 0.35</text>
	</g>
</g>
<rect x="448.4" y="708.3" class="st6" width="28.1" height="7.1"/>
<g class="st12">
	<g>
		<text transform="matrix(1 0 0 1 453.0498 713.639)" class="st8 st11">P 0.35</text>
	</g>
</g>
<rect x="468.1" y="552.4" class="st6" width="25.3" height="7.2"/>
<rect x="468.1" y="552.4" class="st13" width="25.3" height="7.2"/>
<text transform="matrix(1 0 0 1 468.6233 558.0443)" class="st8 st11">SP2511</text>
<rect x="524.4" y="609.8" class="st6" width="25.5" height="7.2"/>
<rect x="524.4" y="609.8" class="st13" width="25.5" height="7.2"/>
<text transform="matrix(1 0 0 1 524.957 615.4429)" class="st8 st11">SP2512</text>
<path class="st4" d="M395.9,252.2c2.4,0,4.3-2,4.3-4.6c0-2.6-1.8-4.6-4.2-4.6l-63.7,9.4c-2.4-0.1-4.2-2.2-4.2-4.6
	c0-2.6,1.9-4.6,4.3-4.6L395.9,252.2z"/>
<path class="st4" d="M391.9,668.7c2.4,0,4.3-2,4.3-4.6c0-2.6-1.8-4.6-4.2-4.6l-63.7,9.4c-2.4-0.1-4.2-2.2-4.2-4.6
	c0-2.6,1.9-4.6,4.3-4.6L391.9,668.7z"/>
<path class="st2" d="M659.4,159.3l-335.2,0v-25.9l335.2,0c0,0-4.7,7.6,0,13C664.1,151.7,659.4,159.3,659.4,159.3"/>
<path class="st3" d="M659.4,159.3l-335.2,0v-25.9l335.2,0c0,0-4.7,7.6,0,13C664.1,151.7,659.4,159.3,659.4,159.3z"/>
<line class="st5" x1="335.4" y1="167.3" x2="335.4" y2="159.1"/>
<path class="st6" d="M335.3,170.4c-1.7,0-3-1.4-3-3c0-1.8,1.4-3.2,3-3.2c1.8,0,3.2,1.4,3.2,3.2C338.5,169,337.1,170.4,335.3,170.4"
	/>
<path d="M335.4,171c-2,0-3.7-1.6-3.7-3.7c0-2.2,1.7-3.8,3.7-3.8v1.2c-1.4,0-2.5,1.1-2.5,2.7c0,1.3,1.1,2.5,2.5,2.5V171z
	 M335.4,163.5v1.2c1.5,0,2.7,1.1,2.7,2.7c0,1.3-1.1,2.5-2.7,2.5v1.1c2.2,0,3.8-1.6,3.8-3.7C339.2,165.2,337.6,163.5,335.4,163.5"/>
<rect x="331.4" y="163.1" class="st6" width="8.1" height="4.1"/>
<rect x="334.9" y="164" width="1" height="4.2"/>
<rect x="334.9" y="164" class="st7" width="1" height="4.2"/>
<line class="st5" x1="392.1" y1="167.3" x2="392.1" y2="159.1"/>
<path class="st6" d="M392,170.4c-1.7,0-3-1.4-3-3c0-1.8,1.4-3.2,3-3.2c1.8,0,3.2,1.4,3.2,3.2C395.2,169,393.8,170.4,392,170.4"/>
<path d="M392.1,171c-2,0-3.7-1.6-3.7-3.7c0-2.2,1.7-3.8,3.7-3.8v1.2c-1.4,0-2.5,1.1-2.5,2.7c0,1.3,1.1,2.5,2.5,2.5V171z
	 M392.1,163.5v1.2c1.5,0,2.7,1.1,2.7,2.7c0,1.3-1.1,2.5-2.7,2.5v1.1c2.2,0,3.8-1.6,3.8-3.7C395.9,165.2,394.3,163.5,392.1,163.5"/>
<rect x="388.1" y="163.1" class="st6" width="8.1" height="4.1"/>
<rect x="391.6" y="164" width="1" height="4.2"/>
<rect x="391.6" y="164" class="st7" width="1" height="4.2"/>
<text transform="matrix(1 0 0 1 385.3594 155.7582)" class="st8 st9">CAN_L</text>
<text transform="matrix(1 0 0 1 329.5273 155.7582)" class="st8 st9">CAN_H</text>
<text transform="matrix(1 0 0 1 510.9995 155.7582)" class="st8 st9">CAN_L</text>
<text transform="matrix(1 0 0 1 455.1714 155.7582)" class="st8 st9">CAN_H</text>
<text transform="matrix(1 0 0 1 341.519 167.1742)" class="st10 st8 st11">BG86(B)</text>
<text transform="matrix(1 0 0 1 366.6411 167.1742)" class="st10 st8 st11">-7</text>
<text transform="matrix(1 0 0 1 398.855 167.1742)" class="st10 st8 st11">BG86(B)</text>
<text transform="matrix(1 0 0 1 423.8091 167.1742)" class="st10 st8 st11">-8</text>
<rect x="377.7" y="194.8" class="st6" width="28.1" height="7.1"/>
<g class="st12">
	<g>
		<text transform="matrix(1 0 0 1 382.3594 200.1947)" class="st8 st11">V 0.35</text>
	</g>
</g>
<rect x="321" y="194.8" class="st6" width="28.1" height="7.1"/>
<g class="st12">
	<g>
		<text transform="matrix(1 0 0 1 325.7021 200.1947)" class="st8 st11">P 0.35</text>
	</g>
</g>
<rect x="374.1" y="708.3" class="st6" width="28.1" height="7.1"/>
<g class="st12">
	<g>
		<text transform="matrix(1 0 0 1 378.707 713.639)" class="st8 st11">P 0.35</text>
	</g>
</g>
<rect x="317.4" y="708.3" class="st6" width="28.1" height="7.1"/>
<g class="st12">
	<g>
		<text transform="matrix(1 0 0 1 322.0498 713.639)" class="st8 st11">V 0.35</text>
	</g>
</g>
<path class="st4" d="M257.2,252.2c2.4,0,4.3-2,4.3-4.6c0-2.6-1.8-4.6-4.2-4.6l-63.7,9.4c-2.4-0.1-4.2-2.2-4.2-4.6
	c0-2.6,1.9-4.6,4.3-4.6L257.2,252.2z"/>
<rect x="239.1" y="194.8" class="st6" width="28.1" height="7.1"/>
<g class="st12">
	<g>
		<text transform="matrix(1 0 0 1 243.6733 200.1947)" class="st8 st11">V 0.35</text>
	</g>
</g>
<rect x="182.4" y="194.8" class="st6" width="28.1" height="7.1"/>
<g class="st12">
	<g>
		<text transform="matrix(1 0 0 1 187.0161 200.1947)" class="st8 st11">P 0.35</text>
	</g>
</g>
<polyline class="st0" points="1032.3,736.6 1032.3,552.8 920.4,552.8 904,517.8 "/>
<path class="st2" d="M1040.5,159.3l-77,0v-25.9l77,0c0,0-4.7,7.6,0,13C1045.2,151.7,1040.5,159.3,1040.5,159.3"/>
<path class="st3" d="M1040.5,159.3l-77,0v-25.9l77,0c0,0-4.7,7.6,0,13C1045.2,151.7,1040.5,159.3,1040.5,159.3z"/>
<path class="st2" d="M1041.5,768.1l-77,0v-25.9l77,0c0,0-4.7,7.6,0,13C1046.2,760.5,1041.5,768.1,1041.5,768.1"/>
<path class="st3" d="M1041.5,768.1l-77,0v-25.9l77,0c0,0-4.7,7.6,0,13C1046.2,760.5,1041.5,768.1,1041.5,768.1z"/>
<path class="st4" d="M1036.2,668.7c2.4,0,4.3-2,4.3-4.6c0-2.6-1.8-4.6-4.2-4.6l-63.7,9.4c-2.4-0.1-4.2-2.2-4.2-4.6
	c0-2.6,1.9-4.6,4.3-4.6L1036.2,668.7z"/>
<line class="st5" x1="974.7" y1="167.3" x2="974.7" y2="159.1"/>
<path class="st6" d="M974.6,170.4c-1.7,0-3-1.4-3-3c0-1.8,1.4-3.2,3-3.2c1.8,0,3.2,1.4,3.2,3.2C977.8,169,976.4,170.4,974.6,170.4"
	/>
<path d="M974.6,171c-2,0-3.7-1.6-3.7-3.7c0-2.2,1.7-3.8,3.7-3.8v1.2c-1.4,0-2.5,1.1-2.5,2.7c0,1.3,1.1,2.5,2.5,2.5V171z
	 M974.6,163.5v1.2c1.5,0,2.7,1.1,2.7,2.7c0,1.3-1.1,2.5-2.7,2.5v1.1c2.2,0,3.8-1.6,3.8-3.7C978.4,165.2,976.8,163.5,974.6,163.5"/>
<rect x="970.6" y="163.1" class="st6" width="8.1" height="4.1"/>
<rect x="974.2" y="164" width="1" height="4.2"/>
<rect x="974.2" y="164" class="st7" width="1" height="4.2"/>
<line class="st5" x1="1031.4" y1="167.3" x2="1031.4" y2="159.1"/>
<path class="st6" d="M1031.3,170.4c-1.7,0-3-1.4-3-3c0-1.8,1.4-3.2,3-3.2c1.8,0,3.2,1.4,3.2,3.2
	C1034.5,169,1033.1,170.4,1031.3,170.4"/>
<path d="M1031.3,171c-2,0-3.7-1.6-3.7-3.7c0-2.2,1.7-3.8,3.7-3.8v1.2c-1.4,0-2.5,1.1-2.5,2.7c0,1.3,1.1,2.5,2.5,2.5V171z
	 M1031.3,163.5v1.2c1.5,0,2.7,1.1,2.7,2.7c0,1.3-1.1,2.5-2.7,2.5v1.1c2.2,0,3.8-1.6,3.8-3.7C1035.1,165.2,1033.5,163.5,1031.3,163.5
	"/>
<rect x="1027.3" y="163.1" class="st6" width="8.1" height="4.1"/>
<rect x="1030.9" y="164" width="1" height="4.2"/>
<rect x="1030.9" y="164" class="st7" width="1" height="4.2"/>
<line class="st5" x1="975.7" y1="734" x2="975.7" y2="742.2"/>
<path class="st6" d="M975.6,730.9c-1.7,0-3,1.4-3,3c0,1.8,1.4,3.2,3,3.2c1.8,0,3.2-1.4,3.2-3.2C978.8,732.3,977.4,730.9,975.6,730.9
	"/>
<path d="M975.6,731.4c-1.4,0-2.5,1.2-2.5,2.5c0,1.6,1.1,2.7,2.5,2.7v1.2c-2,0-3.7-1.6-3.7-3.8c0-2.1,1.7-3.7,3.7-3.7V731.4z
	 M975.6,737.8c2.2,0,3.8-1.7,3.8-3.8s-1.6-3.7-3.8-3.7v1.1c1.6,0,2.7,1.2,2.7,2.5c0,1.6-1.2,2.7-2.7,2.7V737.8"/>
<rect x="971.6" y="734.1" class="st6" width="8.1" height="4.1"/>
<rect x="975.2" y="733.1" width="1" height="4.2"/>
<rect x="975.2" y="733.1" class="st7" width="1" height="4.2"/>
<line class="st5" x1="1032.4" y1="734" x2="1032.4" y2="742.2"/>
<path class="st6" d="M1032.3,730.9c-1.7,0-3,1.4-3,3c0,1.8,1.4,3.2,3,3.2c1.8,0,3.2-1.4,3.2-3.2
	C1035.5,732.3,1034.1,730.9,1032.3,730.9"/>
<path d="M1032.3,731.4c-1.4,0-2.5,1.2-2.5,2.5c0,1.6,1.1,2.7,2.5,2.7v1.2c-2,0-3.7-1.6-3.7-3.8c0-2.1,1.7-3.7,3.7-3.7V731.4z
	 M1032.3,737.8c2.2,0,3.8-1.7,3.8-3.8s-1.6-3.7-3.8-3.7v1.1c1.6,0,2.7,1.2,2.7,2.5c0,1.6-1.2,2.7-2.7,2.7V737.8"/>
<rect x="1028.3" y="734.1" class="st6" width="8.1" height="4.1"/>
<rect x="1031.9" y="733.1" width="1" height="4.2"/>
<rect x="1031.9" y="733.1" class="st7" width="1" height="4.2"/>
<text transform="matrix(1 0 0 1 968.4219 155.7582)" class="st8 st9">CAN_H</text>
<text transform="matrix(1 0 0 1 1023.1738 155.7582)" class="st8 st9">CAN_L</text>
<text transform="matrix(1 0 0 1 981.332 740.0736)" class="st10 st8 st11">K14(A)</text>
<text transform="matrix(1 0 0 1 1001.5391 740.0736)" class="st10 st8 st11">-25</text>
<text transform="matrix(1 0 0 1 1037.666 740.0736)" class="st10 st8 st11">K14(A)</text>
<text transform="matrix(1 0 0 1 1058.1377 740.0736)" class="st10 st8 st11">-26</text>
<text transform="matrix(1 0 0 1 964.9512 779.7316)" class="st10 st8 st11">Automatic Parking Controller</text>
<text transform="matrix(1 0 0 1 968.4219 748.2582)" class="st8 st9">CAN_H</text>
<text transform="matrix(1 0 0 1 1023.1738 748.2582)" class="st8 st9">CAN_L</text>
<text transform="matrix(1 0 0 1 980.7686 167.1742)" class="st10 st8 st11">R07</text>
<text transform="matrix(1 0 0 1 992.1445 167.1742)" class="st10 st8 st11">-3</text>
<text transform="matrix(1 0 0 1 1038.1045 167.1742)" class="st10 st8 st11">R07</text>
<text transform="matrix(1 0 0 1 1049.4805 167.1742)" class="st10 st8 st11">-4</text>
<rect x="1018.3" y="708.3" class="st6" width="28.1" height="7.1"/>
<g class="st12">
	<g>
		<text transform="matrix(1 0 0 1 1022.957 713.639)" class="st8 st11">V 0.35</text>
	</g>
</g>
<rect x="961.6" y="708.3" class="st6" width="28.1" height="7.1"/>
<g class="st12">
	<g>
		<text transform="matrix(1 0 0 1 966.2988 713.639)" class="st8 st11">P 0.35</text>
	</g>
</g>
<rect x="960.3" y="194.8" class="st6" width="28.1" height="7.1"/>
<g class="st12">
	<g>
		<text transform="matrix(1 0 0 1 964.9512 200.1947)" class="st8 st11">P 0.35</text>
	</g>
</g>
<polyline class="st1" points="1104.2,731.7 1104.2,460.7 647.9,460.7 647.9,170.4 "/>
<polyline class="st1" points="1104.2,169 1104.2,441.5 867.1,441.5 847.4,460.7 "/>
<polyline class="st0" points="1031.3,168.8 1031.3,297.2 904.7,297.2 "/>
<line class="st0" x1="904.1" y1="168.4" x2="904.1" y2="731.7"/>
<polyline class="st0" points="1160.9,731.7 1160.9,535.6 924.1,535.6 904,517.8 "/>
<polyline class="st1" points="777.1,168.4 777.1,423.8 828.2,423.8 847.4,460.3 "/>
<polyline class="st0" points="1160.9,169 1160.9,517.9 591.2,517.9 591.2,169.3 "/>
<polyline class="st15" points="913.3,767.8 836.3,767.8 836.3,741.9 913.3,741.9 913.3,767.8 "/>
<text transform="matrix(1 0 0 1 853.1143 739.7552)" class="st10 st8 st11">KG87</text>
<text transform="matrix(1 0 0 1 869.6621 739.7552)" class="st10 st8 st11">-1</text>
<text transform="matrix(1 0 0 1 909.4482 739.7552)" class="st10 st8 st11">KG87</text>
<text transform="matrix(1 0 0 1 926.3262 739.7552)" class="st10 st8 st11">-2</text>
<text transform="matrix(1 0 0 1 839.6798 776.342)"><tspan x="0" y="0" class="st10 st8 st11"> Terminating Resistor</tspan><tspan x="0" y="7.2" class="st10 st8 st11">（Chassis Network ）</tspan></text>
<text transform="matrix(1 0 0 1 840.2051 747.9398)" class="st8 st9">CAN_H</text>
<text transform="matrix(1 0 0 1 894.957 747.9398)" class="st8 st9">CAN_L</text>
<path class="st2" d="M913.3,159l-77,0v-25.9l77,0c0,0-4.7,7.6,0,13C917.9,151.4,913.3,159,913.3,159"/>
<path class="st3" d="M913.3,159l-77,0v-25.9l77,0c0,0-4.7,7.6,0,13C917.9,151.4,913.3,159,913.3,159z"/>
<line class="st5" x1="904.2" y1="167" x2="904.2" y2="158.8"/>
<path class="st6" d="M904.1,170.1c-1.7,0-3-1.4-3-3c0-1.8,1.4-3.2,3-3.2c1.8,0,3.2,1.4,3.2,3.2C907.3,168.7,905.9,170.1,904.1,170.1
	"/>
<path d="M904.1,170.7c-2,0-3.7-1.6-3.7-3.7c0-2.2,1.7-3.8,3.7-3.8v1.2c-1.4,0-2.5,1.1-2.5,2.7c0,1.3,1.1,2.5,2.5,2.5V170.7z
	 M904.1,163.2v1.2c1.5,0,2.7,1.1,2.7,2.7c0,1.3-1.1,2.5-2.7,2.5v1.1c2.2,0,3.8-1.6,3.8-3.7C907.9,164.9,906.3,163.2,904.1,163.2"/>
<rect x="900.1" y="162.8" class="st6" width="8.1" height="4.1"/>
<rect x="903.7" y="163.7" width="1" height="4.2"/>
<rect x="903.7" y="163.7" class="st7" width="1" height="4.2"/>
<text transform="matrix(1 0 0 1 841.2051 155.4398)" class="st8 st9">CAN_H</text>
<text transform="matrix(1 0 0 1 895.957 155.4398)" class="st8 st9">CAN_L</text>
<text transform="matrix(1 0 0 1 853.5508 166.8558)" class="st10 st8 st11">R06</text>
<text transform="matrix(1 0 0 1 865.2568 166.8558)" class="st10 st8 st11">-3</text>
<text transform="matrix(1 0 0 1 910.8867 166.8558)" class="st10 st8 st11">R06</text>
<text transform="matrix(1 0 0 1 922.5938 166.8558)" class="st10 st8 st11">-4</text>
<rect x="889.8" y="194.5" class="st6" width="28.1" height="7.1"/>
<g class="st12">
	<g>
		<text transform="matrix(1 0 0 1 894.3916 199.8763)" class="st8 st11">V 0.35</text>
	</g>
</g>
<rect x="890.1" y="707.9" class="st6" width="28.1" height="7.1"/>
<g class="st12">
	<g>
		<text transform="matrix(1 0 0 1 894.7393 713.3207)" class="st8 st11">V 0.35</text>
	</g>
</g>
<rect x="813.6" y="450.5" class="st6" width="25.3" height="7.2"/>
<rect x="813.6" y="450.5" class="st13" width="25.3" height="7.2"/>
<text transform="matrix(1 0 0 1 814.1582 456.1103)" class="st8 st11">SP2221</text>
<rect x="816.5" y="264.9" class="st6" width="25.3" height="7.2"/>
<rect x="816.5" y="264.9" class="st13" width="25.3" height="7.2"/>
<rect x="873.9" y="292.6" class="st13" width="25.3" height="7.2"/>
<text transform="matrix(1 0 0 1 817.0332 270.5853)" class="st8 st11">SP2889</text>
<rect x="910.9" y="504.5" class="st6" width="25.5" height="7.2"/>
<rect x="910.9" y="504.5" class="st13" width="25.5" height="7.2"/>
<text transform="matrix(1 0 0 1 911.4199 510.1163)" class="st8 st11">SP2220</text>
<text transform="matrix(1 0 0 1 875.2871 298.681)" class="st8 st11">SP2888</text>
<path class="st2" d="M786.3,159l-77,0v-25.9l77,0c0,0-4.7,7.6,0,13C790.9,151.4,786.3,159,786.3,159"/>
<path class="st3" d="M786.3,159l-77,0v-25.9l77,0c0,0-4.7,7.6,0,13C790.9,151.4,786.3,159,786.3,159z"/>
<line class="st5" x1="777.2" y1="167" x2="777.2" y2="158.8"/>
<path class="st6" d="M777.1,170.1c-1.7,0-3-1.4-3-3c0-1.8,1.4-3.2,3-3.2c1.8,0,3.2,1.4,3.2,3.2C780.3,168.7,778.9,170.1,777.1,170.1
	"/>
<path d="M777.1,170.7c-2,0-3.7-1.6-3.7-3.7c0-2.2,1.7-3.8,3.7-3.8v1.2c-1.4,0-2.5,1.1-2.5,2.7c0,1.3,1.1,2.5,2.5,2.5V170.7z
	 M777.1,163.2v1.2c1.5,0,2.7,1.1,2.7,2.7c0,1.3-1.1,2.5-2.7,2.5v1.1c2.2,0,3.8-1.6,3.8-3.7C780.9,164.9,779.3,163.2,777.1,163.2"/>
<rect x="773.1" y="162.8" class="st6" width="8.1" height="4.1"/>
<rect x="776.7" y="163.7" width="1" height="4.2"/>
<rect x="776.7" y="163.7" class="st7" width="1" height="4.2"/>
<text transform="matrix(1 0 0 1 714.2051 155.4398)" class="st8 st9">CAN_L</text>
<text transform="matrix(1 0 0 1 768.957 155.4398)" class="st8 st9">CAN_H</text>
<text transform="matrix(1 0 0 1 726.5508 166.8558)" class="st10 st8 st11">K86</text>
<text transform="matrix(1 0 0 1 737.9277 166.8558)" class="st10 st8 st11">-8</text>
<text transform="matrix(1 0 0 1 783.8877 166.8558)" class="st10 st8 st11">K86</text>
<text transform="matrix(1 0 0 1 795.2637 166.8558)" class="st10 st8 st11">-7</text>
<text transform="matrix(1 0 0 1 706.078 130.4427)" class="st10 st8 st11">Intelligent Driving Domain Controller</text>
<rect x="762.8" y="194.5" class="st6" width="28.1" height="7.1"/>
<g class="st12">
	<g>
		<text transform="matrix(1 0 0 1 767.3916 199.8763)" class="st8 st11">P 0.35</text>
	</g>
</g>
<text transform="matrix(1 0 0 1 1107.252 127.5822)" class="st10 st8 st11">Airbag Controller</text>
<path class="st2" d="M1170,159l-77,0v-25.9l77,0c0,0-4.7,7.6,0,13C1174.7,151.4,1170,159,1170,159"/>
<path class="st3" d="M1170,159l-77,0v-25.9l77,0c0,0-4.7,7.6,0,13C1174.7,151.4,1170,159,1170,159z"/>
<line class="st5" x1="1104.2" y1="167" x2="1104.2" y2="158.8"/>
<path class="st6" d="M1104.1,170.1c-1.7,0-3-1.4-3-3c0-1.8,1.4-3.2,3-3.2c1.8,0,3.2,1.4,3.2,3.2
	C1107.3,168.7,1105.9,170.1,1104.1,170.1"/>
<path d="M1104.2,170.7c-2,0-3.7-1.6-3.7-3.7c0-2.2,1.7-3.8,3.7-3.8v1.2c-1.4,0-2.5,1.1-2.5,2.7c0,1.3,1.1,2.5,2.5,2.5V170.7z
	 M1104.2,163.2v1.2c1.5,0,2.7,1.1,2.7,2.7c0,1.3-1.1,2.5-2.7,2.5v1.1c2.2,0,3.8-1.6,3.8-3.7C1108,164.9,1106.4,163.2,1104.2,163.2"
	/>
<rect x="1100.1" y="162.8" class="st6" width="8.1" height="4.1"/>
<rect x="1103.7" y="163.7" width="1" height="4.2"/>
<rect x="1103.7" y="163.7" class="st7" width="1" height="4.2"/>
<line class="st5" x1="1160.9" y1="167" x2="1160.9" y2="158.8"/>
<path class="st6" d="M1160.8,170.1c-1.7,0-3-1.4-3-3c0-1.8,1.4-3.2,3-3.2c1.8,0,3.2,1.4,3.2,3.2
	C1164,168.7,1162.6,170.1,1160.8,170.1"/>
<path d="M1160.8,170.7c-2,0-3.7-1.6-3.7-3.7c0-2.2,1.7-3.8,3.7-3.8v1.2c-1.4,0-2.5,1.1-2.5,2.7c0,1.3,1.1,2.5,2.5,2.5V170.7z
	 M1160.8,163.2v1.2c1.5,0,2.7,1.1,2.7,2.7c0,1.3-1.1,2.5-2.7,2.5v1.1c2.2,0,3.8-1.6,3.8-3.7C1164.6,164.9,1163,163.2,1160.8,163.2"
	/>
<rect x="1156.8" y="162.8" class="st6" width="8.1" height="4.1"/>
<rect x="1160.4" y="163.7" width="1" height="4.2"/>
<rect x="1160.4" y="163.7" class="st7" width="1" height="4.2"/>
<text transform="matrix(1 0 0 1 1097.9375 155.4398)" class="st8 st9">CAN_H</text>
<text transform="matrix(1 0 0 1 1152.6895 155.4398)" class="st8 st9">CAN_L</text>
<text transform="matrix(1 0 0 1 1110.2842 166.8558)" class="st10 st8 st11">KG10</text>
<text transform="matrix(1 0 0 1 1127 166.8558)" class="st10 st8 st11">-34</text>
<text transform="matrix(1 0 0 1 1167.6201 166.8558)" class="st10 st8 st11">KG10</text>
<text transform="matrix(1 0 0 1 1184.3359 166.8558)" class="st10 st8 st11">-33</text>
<text transform="matrix(1 0 0 1 852.0381 226.7836)"><tspan x="0" y="0" class="st8 st11">*</tspan><tspan x="2.6" y="0" class="st8 st11">B</tspan><tspan x="7" y="0" class="st8 st11">S</tspan><tspan x="11.4" y="0" class="st8 st11">D</tspan></text>
<text transform="matrix(1 0 0 1 910.8857 227.5336)"><tspan x="0" y="0" class="st8 st11">*</tspan><tspan x="2.6" y="0" class="st8 st11">B</tspan><tspan x="7" y="0" class="st8 st11">S</tspan><tspan x="11.4" y="0" class="st8 st11">D</tspan></text>
<text transform="matrix(1 0 0 1 852.0381 428.6511)"><tspan x="0" y="0" class="st8 st11">*</tspan><tspan x="2.6" y="0" class="st8 st11">B</tspan><tspan x="7" y="0" class="st8 st11">S</tspan><tspan x="11.4" y="0" class="st8 st11">D</tspan></text>
<text transform="matrix(1 0 0 1 910.8857 429.4011)"><tspan x="0" y="0" class="st8 st11">*</tspan><tspan x="2.6" y="0" class="st8 st11">B</tspan><tspan x="7" y="0" class="st8 st11">S</tspan><tspan x="11.4" y="0" class="st8 st11">D</tspan></text>
<text transform="matrix(1 0 0 1 980.7803 226.7836)"><tspan x="0" y="0" class="st8 st11">*</tspan><tspan x="2.6" y="0" class="st8 st11">B</tspan><tspan x="7" y="0" class="st8 st11">S</tspan><tspan x="11.4" y="0" class="st8 st11">D</tspan></text>
<text transform="matrix(1 0 0 1 1039.6279 227.5336)"><tspan x="0" y="0" class="st8 st11">*</tspan><tspan x="2.6" y="0" class="st8 st11">B</tspan><tspan x="7" y="0" class="st8 st11">S</tspan><tspan x="11.4" y="0" class="st8 st11">D</tspan></text>
<text transform="matrix(1 0 0 1 724.0459 226.7836)"><tspan x="0" y="0" class="st8 st11">*</tspan><tspan x="2.6" y="0" class="st8 st11">5</tspan><tspan x="6.3" y="0" class="st8 st11">R1</tspan><tspan x="14.7" y="0" class="st8 st11">V</tspan></text>
<text transform="matrix(1 0 0 1 782.8945 227.5336)"><tspan x="0" y="0" class="st8 st11">*</tspan><tspan x="2.6" y="0" class="st8 st11">5</tspan><tspan x="6.3" y="0" class="st8 st11">R1</tspan><tspan x="14.7" y="0" class="st8 st11">V</tspan></text>
<text transform="matrix(1 0 0 1 782.5564 738.1738)" class="st10 st8 st11">K53(C)</text>
<text transform="matrix(1 0 0 1 803.2205 738.1738)" class="st10 st8 st11">-15</text>
<text transform="matrix(1 0 0 1 725.0728 738.1742)" class="st10 st8 st11">K53(C)</text>
<text transform="matrix(1 0 0 1 745.7358 738.1742)" class="st10 st8 st11">-28</text>
<path class="st4" d="M1164.3,252.2c2.4,0,4.3-2,4.3-4.6c0-2.6-1.8-4.6-4.2-4.6l-63.7,9.4c-2.4-0.1-4.2-2.2-4.2-4.6
	c0-2.6,1.9-4.6,4.3-4.6L1164.3,252.2z"/>
<rect x="1146.9" y="194.5" class="st6" width="28.1" height="7.1"/>
<g class="st12">
	<g>
		<text transform="matrix(1 0 0 1 1151.4727 199.8763)" class="st8 st11">V 0.35</text>
	</g>
</g>
<rect x="1090.2" y="194.5" class="st6" width="28.1" height="7.1"/>
<g class="st12">
	<g>
		<text transform="matrix(1 0 0 1 1094.8145 199.8763)" class="st8 st11">P 0.35</text>
	</g>
</g>
<path class="st2" d="M1170.3,767.8l-77,0v-25.9l77,0c0,0-4.7,7.6,0,13C1174.9,760.1,1170.3,767.8,1170.3,767.8"/>
<path class="st3" d="M1170.3,767.8l-77,0v-25.9l77,0c0,0-4.7,7.6,0,13C1174.9,760.1,1170.3,767.8,1170.3,767.8z"/>
<path class="st4" d="M1165,668.7c2.4,0,4.3-2,4.3-4.6c0-2.6-1.8-4.6-4.2-4.6l-63.7,9.4c-2.4-0.1-4.2-2.2-4.2-4.6
	c0-2.6,1.9-4.6,4.3-4.6L1165,668.7z"/>
<line class="st5" x1="1104.5" y1="733.7" x2="1104.5" y2="741.9"/>
<path class="st6" d="M1104.4,730.6c-1.7,0-3,1.4-3,3c0,1.8,1.4,3.2,3,3.2c1.8,0,3.2-1.4,3.2-3.2
	C1107.6,732,1106.2,730.6,1104.4,730.6"/>
<path d="M1104.4,731.1c-1.4,0-2.5,1.2-2.5,2.5c0,1.6,1.1,2.7,2.5,2.7v1.2c-2,0-3.7-1.6-3.7-3.8c0-2.1,1.7-3.7,3.7-3.7V731.1z
	 M1104.4,737.5c2.2,0,3.8-1.7,3.8-3.8c0-2.1-1.6-3.7-3.8-3.7v1.1c1.6,0,2.7,1.2,2.7,2.5c0,1.6-1.2,2.7-2.7,2.7V737.5"/>
<rect x="1100.4" y="733.8" class="st6" width="8.1" height="4.1"/>
<rect x="1104" y="732.8" width="1" height="4.2"/>
<rect x="1104" y="732.8" class="st7" width="1" height="4.2"/>
<line class="st5" x1="1161.2" y1="733.7" x2="1161.2" y2="741.9"/>
<path class="st6" d="M1161.1,730.6c-1.7,0-3,1.4-3,3c0,1.8,1.4,3.2,3,3.2c1.8,0,3.2-1.4,3.2-3.2
	C1164.3,732,1162.9,730.6,1161.1,730.6"/>
<path d="M1161.1,731.1c-1.4,0-2.5,1.2-2.5,2.5c0,1.6,1.1,2.7,2.5,2.7v1.2c-2,0-3.7-1.6-3.7-3.8c0-2.1,1.7-3.7,3.7-3.7V731.1z
	 M1161.1,737.5c2.2,0,3.8-1.7,3.8-3.8c0-2.1-1.6-3.7-3.8-3.7v1.1c1.6,0,2.7,1.2,2.7,2.5c0,1.6-1.2,2.7-2.7,2.7V737.5"/>
<rect x="1157.1" y="733.8" class="st6" width="8.1" height="4.1"/>
<rect x="1160.7" y="732.8" width="1" height="4.2"/>
<rect x="1160.7" y="732.8" class="st7" width="1" height="4.2"/>
<text transform="matrix(1 0 0 1 1110.1143 739.7552)" class="st10 st8 st11">K99(A)</text>
<text transform="matrix(1 0 0 1 1130.0586 739.7552)" class="st10 st8 st11">-7</text>
<text transform="matrix(1 0 0 1 1166.4482 739.7552)" class="st10 st8 st11">K99(A)</text>
<text transform="matrix(1 0 0 1 1186.3926 739.7552)" class="st10 st8 st11">-6</text>
<text transform="matrix(1 0 0 1 1078.0015 779.3209)" class="st10 st8 st11">Intelligent Damping Suspension Controller </text>
<text transform="matrix(1 0 0 1 1097.2051 747.9398)" class="st8 st9">CAN_H</text>
<text transform="matrix(1 0 0 1 1151.957 747.9398)" class="st8 st9">CAN_L</text>
<rect x="1147.1" y="707.9" class="st6" width="28.1" height="7.1"/>
<g class="st12">
	<g>
		<text transform="matrix(1 0 0 1 1151.7393 713.3207)" class="st8 st11">V 0.35</text>
	</g>
</g>
<rect x="1090.4" y="707.9" class="st6" width="28.1" height="7.1"/>
<g class="st12">
	<g>
		<text transform="matrix(1 0 0 1 1095.082 713.3207)" class="st8 st11">P 0.35</text>
	</g>
</g>
<text transform="matrix(1 0 0 1 979.7402 688.639)"><tspan x="0" y="0" class="st8 st11">*AP</tspan><tspan x="11.4" y="0" class="st8 st11">A</tspan></text>
<text transform="matrix(1 0 0 1 1038.5879 689.389)"><tspan x="0" y="0" class="st8 st11">*AP</tspan><tspan x="11.4" y="0" class="st8 st11">A</tspan></text>
<text transform="matrix(1 0 0 1 1107.252 688.639)"><tspan x="0" y="0" class="st8 st11">*</tspan><tspan x="2.6" y="0" class="st8 st11">C</tspan><tspan x="7.4" y="0" class="st8 st11">D</tspan><tspan x="12.1" y="0" class="st8 st11">C</tspan></text>
<text transform="matrix(1 0 0 1 1166.0996 689.389)"><tspan x="0" y="0" class="st8 st11">*</tspan><tspan x="2.6" y="0" class="st8 st11">C</tspan><tspan x="7.4" y="0" class="st8 st11">D</tspan><tspan x="12.1" y="0" class="st8 st11">C</tspan></text>
<line class="st1" x1="847.4" y1="168.4" x2="847.4" y2="731.7"/>
<line class="st5" x1="847.5" y1="167" x2="847.5" y2="158.8"/>
<path class="st6" d="M847.4,170.1c-1.7,0-3-1.4-3-3c0-1.8,1.4-3.2,3-3.2c1.8,0,3.2,1.4,3.2,3.2C850.6,168.7,849.2,170.1,847.4,170.1
	"/>
<path d="M847.4,170.7c-2,0-3.7-1.6-3.7-3.7c0-2.2,1.7-3.8,3.7-3.8v1.2c-1.4,0-2.5,1.1-2.5,2.7c0,1.3,1.1,2.5,2.5,2.5V170.7z
	 M847.4,163.2v1.2c1.5,0,2.7,1.1,2.7,2.7c0,1.3-1.1,2.5-2.7,2.5v1.1c2.2,0,3.8-1.6,3.8-3.7C851.2,164.9,849.6,163.2,847.4,163.2"/>
<rect x="843.4" y="162.8" class="st6" width="8.1" height="4.1"/>
<rect x="847" y="163.7" width="1" height="4.2"/>
<rect x="847" y="163.7" class="st7" width="1" height="4.2"/>
<rect x="833.1" y="194.5" class="st6" width="28.1" height="7.1"/>
<g class="st12">
	<g>
		<text transform="matrix(1 0 0 1 837.7344 199.8763)" class="st8 st11">P 0.35</text>
	</g>
</g>
<rect x="889.8" y="313.8" class="st6" width="28.1" height="7.1"/>
<g class="st12">
	<g>
		<text transform="matrix(1 0 0 1 894.3916 319.1358)" class="st8 st11">V 0.35</text>
	</g>
</g>
<rect x="833.1" y="313.8" class="st6" width="28.1" height="7.1"/>
<g class="st12">
	<g>
		<text transform="matrix(1 0 0 1 837.7344 319.1358)" class="st8 st11">P 0.35</text>
	</g>
</g>
<path class="st4" d="M908,252.2c2.4,0,4.3-2,4.3-4.6c0-2.6-1.8-4.6-4.2-4.6l-63.7,9.4c-2.4-0.1-4.2-2.2-4.2-4.6
	c0-2.6,1.9-4.6,4.3-4.6L908,252.2z"/>
<path class="st4" d="M908,343c2.4,0,4.3-2,4.3-4.6c0-2.6-1.8-4.6-4.2-4.6l-63.7,9.4c-2.4-0.1-4.2-2.2-4.2-4.6c0-2.6,1.9-4.6,4.3-4.6
	L908,343z"/>
<rect x="889.8" y="382.1" class="st6" width="28.1" height="7.1"/>
<g class="st12">
	<g>
		<text transform="matrix(1 0 0 1 894.3916 387.488)" class="st8 st11">V 0.35</text>
	</g>
</g>
<rect x="833.1" y="382.1" class="st6" width="28.1" height="7.1"/>
<g class="st12">
	<g>
		<text transform="matrix(1 0 0 1 837.7344 387.488)" class="st8 st11">P 0.35</text>
	</g>
</g>
<path class="st4" d="M908,411.4c2.4,0,4.3-2,4.3-4.6c0-2.6-1.8-4.6-4.2-4.6l-63.7,9.4c-2.4-0.1-4.2-2.2-4.2-4.6
	c0-2.6,1.9-4.6,4.3-4.6L908,411.4z"/>
<path d="M847.4,457.7c1.5,0,2.6,1.2,2.6,2.6c0,1.5-1.2,2.6-2.6,2.6"/>
<path class="st14" d="M847.4,457.7c1.5,0,2.6,1.2,2.6,2.6c0,1.5-1.2,2.6-2.6,2.6"/>
<path d="M850.1,460.3c0,1.5-1.2,2.6-2.6,2.6c-1.5,0-2.6-1.2-2.6-2.6c0-1.5,1.2-2.6,2.6-2.6C848.9,457.7,850.1,458.9,850.1,460.3"/>
<path class="st14" d="M850.1,460.3c0,1.5-1.2,2.6-2.6,2.6c-1.5,0-2.6-1.2-2.6-2.6c0-1.5,1.2-2.6,2.6-2.6
	C848.9,457.7,850.1,458.9,850.1,460.3z"/>
<polyline class="st0" points="720.4,168.4 720.4,498 880.8,498 904.1,517.6 "/>
<path d="M906.8,517.6c0,1.5-1.2,2.6-2.6,2.6c-1.5,0-2.6-1.2-2.6-2.6c0-1.5,1.2-2.6,2.6-2.6C905.6,514.9,906.8,516.1,906.8,517.6"/>
<path class="st14" d="M906.8,517.6c0,1.5-1.2,2.6-2.6,2.6c-1.5,0-2.6-1.2-2.6-2.6c0-1.5,1.2-2.6,2.6-2.6
	C905.6,514.9,906.8,516.1,906.8,517.6z"/>
<path d="M904.1,514.9c1.5,0,2.6,1.2,2.6,2.6c0,1.5-1.2,2.6-2.6,2.6"/>
<path class="st14" d="M904.1,514.9c1.5,0,2.6,1.2,2.6,2.6c0,1.5-1.2,2.6-2.6,2.6"/>
<line class="st5" x1="720.5" y1="167" x2="720.5" y2="158.8"/>
<path class="st6" d="M720.4,170.1c-1.7,0-3-1.4-3-3c0-1.8,1.4-3.2,3-3.2c1.8,0,3.2,1.4,3.2,3.2C723.6,168.7,722.2,170.1,720.4,170.1
	"/>
<path d="M720.4,170.7c-2,0-3.7-1.6-3.7-3.7c0-2.2,1.7-3.8,3.7-3.8v1.2c-1.4,0-2.5,1.1-2.5,2.7c0,1.3,1.1,2.5,2.5,2.5V170.7z
	 M720.4,163.2v1.2c1.5,0,2.7,1.1,2.7,2.7c0,1.3-1.1,2.5-2.7,2.5v1.1c2.2,0,3.8-1.6,3.8-3.7C724.2,164.9,722.6,163.2,720.4,163.2"/>
<rect x="716.4" y="162.8" class="st6" width="8.1" height="4.1"/>
<rect x="720" y="163.7" width="1" height="4.2"/>
<rect x="720" y="163.7" class="st7" width="1" height="4.2"/>
<rect x="706.1" y="194.5" class="st6" width="28.1" height="7.1"/>
<g class="st12">
	<g>
		<text transform="matrix(1 0 0 1 710.7344 199.8763)" class="st8 st11">V 0.35</text>
	</g>
</g>
<path class="st4" d="M781,252.2c2.4,0,4.3-2,4.3-4.6c0-2.6-1.8-4.6-4.2-4.6l-63.7,9.4c-2.4-0.1-4.2-2.2-4.2-4.6
	c0-2.6,1.9-4.6,4.3-4.6L781,252.2z"/>
<path class="st4" d="M908,668.7c2.4,0,4.3-2,4.3-4.6c0-2.6-1.8-4.6-4.2-4.6l-63.7,9.4c-2.4-0.1-4.2-2.2-4.2-4.6
	c0-2.6,1.9-4.6,4.3-4.6L908,668.7z"/>
<line class="st5" x1="847.5" y1="733.7" x2="847.5" y2="741.9"/>
<path class="st6" d="M847.4,730.6c-1.7,0-3,1.4-3,3c0,1.8,1.4,3.2,3,3.2c1.8,0,3.2-1.4,3.2-3.2C850.6,732,849.2,730.6,847.4,730.6"
	/>
<path d="M847.4,731.1c-1.4,0-2.5,1.2-2.5,2.5c0,1.6,1.1,2.7,2.5,2.7v1.2c-2,0-3.7-1.6-3.7-3.8c0-2.1,1.7-3.7,3.7-3.7V731.1z
	 M847.4,737.5c2.2,0,3.8-1.7,3.8-3.8c0-2.1-1.6-3.7-3.8-3.7v1.1c1.6,0,2.7,1.2,2.7,2.5c0,1.6-1.2,2.7-2.7,2.7V737.5"/>
<rect x="843.4" y="733.8" class="st6" width="8.1" height="4.1"/>
<rect x="847" y="732.8" width="1" height="4.2"/>
<rect x="847" y="732.8" class="st7" width="1" height="4.2"/>
<line class="st5" x1="904.2" y1="733.7" x2="904.2" y2="741.9"/>
<path class="st6" d="M904.1,730.6c-1.7,0-3,1.4-3,3c0,1.8,1.4,3.2,3,3.2c1.8,0,3.2-1.4,3.2-3.2C907.3,732,905.9,730.6,904.1,730.6"
	/>
<path d="M904.1,731.1c-1.4,0-2.5,1.2-2.5,2.5c0,1.6,1.1,2.7,2.5,2.7v1.2c-2,0-3.7-1.6-3.7-3.8c0-2.1,1.7-3.7,3.7-3.7V731.1z
	 M904.1,737.5c2.2,0,3.8-1.7,3.8-3.8c0-2.1-1.6-3.7-3.8-3.7v1.1c1.6,0,2.7,1.2,2.7,2.5c0,1.6-1.2,2.7-2.7,2.7V737.5"/>
<rect x="900.1" y="733.8" class="st6" width="8.1" height="4.1"/>
<rect x="903.7" y="732.8" width="1" height="4.2"/>
<rect x="903.7" y="732.8" class="st7" width="1" height="4.2"/>
<rect x="833.4" y="707.9" class="st6" width="28.1" height="7.1"/>
<g class="st12">
	<g>
		<text transform="matrix(1 0 0 1 838.082 713.3207)" class="st8 st11">P 0.35</text>
	</g>
</g>
<path class="st2" d="M786.2,767.8l-77,0v-25.9l77,0c0,0-4.7,7.6,0,13C790.9,760.1,786.2,767.8,786.2,767.8"/>
<path class="st3" d="M786.2,767.8l-77,0v-25.9l77,0c0,0-4.7,7.6,0,13C790.9,760.1,786.2,767.8,786.2,767.8z"/>
<text transform="matrix(1 0 0 1 713.161 781.3165)" class="st10 st8 st11">Rear Body Controller</text>
<text transform="matrix(1 0 0 1 713.1611 747.9398)" class="st8 st9">CAN_L</text>
<text transform="matrix(1 0 0 1 767.913 747.9398)" class="st8 st9">CAN_H</text>
<rect x="763.1" y="707.9" class="st6" width="28.1" height="7.1"/>
<g class="st12">
	<g>
		<text transform="matrix(1 0 0 1 767.6953 713.3207)" class="st8 st11">V 0.35</text>
	</g>
</g>
<path class="st4" d="M780.9,668.7c2.4,0,4.3-2,4.3-4.6c0-2.6-1.8-4.6-4.2-4.6l-63.7,9.4c-2.4-0.1-4.2-2.2-4.2-4.6
	c0-2.6,1.9-4.6,4.3-4.6L780.9,668.7z"/>
<line class="st5" x1="720.4" y1="733.7" x2="720.4" y2="741.9"/>
<path class="st6" d="M720.3,730.6c-1.7,0-3,1.4-3,3c0,1.8,1.4,3.2,3,3.2c1.8,0,3.2-1.4,3.2-3.2C723.5,732,722.1,730.6,720.3,730.6"
	/>
<path d="M720.4,731.1c-1.4,0-2.5,1.2-2.5,2.5c0,1.6,1.1,2.7,2.5,2.7v1.2c-2,0-3.7-1.6-3.7-3.8c0-2.1,1.7-3.7,3.7-3.7V731.1z
	 M720.4,737.5c2.2,0,3.8-1.7,3.8-3.8c0-2.1-1.6-3.7-3.8-3.7v1.1c1.6,0,2.7,1.2,2.7,2.5c0,1.6-1.2,2.7-2.7,2.7V737.5"/>
<rect x="716.4" y="733.8" class="st6" width="8.1" height="4.1"/>
<rect x="719.9" y="732.8" width="1" height="4.2"/>
<rect x="719.9" y="732.8" class="st7" width="1" height="4.2"/>
<line class="st5" x1="777.1" y1="733.7" x2="777.1" y2="741.9"/>
<path class="st6" d="M777,730.6c-1.7,0-3,1.4-3,3c0,1.8,1.4,3.2,3,3.2c1.8,0,3.2-1.4,3.2-3.2C780.2,732,778.8,730.6,777,730.6"/>
<path d="M777.1,731.1c-1.4,0-2.5,1.2-2.5,2.5c0,1.6,1.1,2.7,2.5,2.7v1.2c-2,0-3.7-1.6-3.7-3.8c0-2.1,1.7-3.7,3.7-3.7V731.1z
	 M777.1,737.5c2.2,0,3.8-1.7,3.8-3.8c0-2.1-1.6-3.7-3.8-3.7v1.1c1.6,0,2.7,1.2,2.7,2.5c0,1.6-1.2,2.7-2.7,2.7V737.5"/>
<rect x="773.1" y="733.8" class="st6" width="8.1" height="4.1"/>
<rect x="776.6" y="732.8" width="1" height="4.2"/>
<rect x="776.6" y="732.8" class="st7" width="1" height="4.2"/>
<rect x="706.4" y="707.9" class="st6" width="28.1" height="7.1"/>
<g class="st12">
	<g>
		<text transform="matrix(1 0 0 1 711.038 713.3207)" class="st8 st11">P 0.35</text>
	</g>
</g>
<path d="M847.4,265c1.5,0,2.6,1.2,2.6,2.6c0,1.5-1.2,2.6-2.6,2.6"/>
<path class="st14" d="M847.4,265c1.5,0,2.6,1.2,2.6,2.6c0,1.5-1.2,2.6-2.6,2.6"/>
<path d="M850.1,267.6c0,1.5-1.2,2.6-2.6,2.6c-1.5,0-2.6-1.2-2.6-2.6c0-1.5,1.2-2.6,2.6-2.6C848.9,265,850.1,266.1,850.1,267.6"/>
<path class="st14" d="M850.1,267.6c0,1.5-1.2,2.6-2.6,2.6c-1.5,0-2.6-1.2-2.6-2.6c0-1.5,1.2-2.6,2.6-2.6
	C848.9,265,850.1,266.1,850.1,267.6z"/>
<path d="M904,294.6c1.5,0,2.6,1.2,2.6,2.6s-1.2,2.6-2.6,2.6"/>
<path class="st14" d="M904,294.6c1.5,0,2.6,1.2,2.6,2.6s-1.2,2.6-2.6,2.6"/>
<path d="M906.7,297.2c0,1.5-1.2,2.6-2.6,2.6c-1.5,0-2.6-1.2-2.6-2.6c0-1.5,1.2-2.6,2.6-2.6C905.5,294.6,906.7,295.8,906.7,297.2"/>
<path class="st14" d="M906.7,297.2c0,1.5-1.2,2.6-2.6,2.6c-1.5,0-2.6-1.2-2.6-2.6c0-1.5,1.2-2.6,2.6-2.6
	C905.5,294.6,906.7,295.8,906.7,297.2z"/>
<rect x="899.8" y="356" class="st6" width="8.5" height="18.8"/>
<line class="st16" x1="903.8" y1="366.1" x2="903.8" y2="374.4"/>
<line class="st17" x1="904" y1="363" x2="904" y2="356.5"/>
<path class="st6" d="M903.9,363.1c-1.6,0-3.2,1.4-3.2,3.2c0,1.8,1.5,3.2,3.2,3.2c1.8,0,3.2-1.4,3.2-3.2
	C907.1,364.5,905.7,363.1,903.9,363.1"/>
<path d="M903.9,362.5c2.2,0,3.8,1.8,3.8,3.8h-1.1c0-1.4-1.1-2.5-2.7-2.5c-1.4,0-2.5,1.1-2.5,2.5h-1.1
	C900.3,364.2,901.9,362.5,903.9,362.5 M900.3,366.3c0,2.2,1.6,3.8,3.7,3.8c2.2,0,3.8-1.7,3.8-3.8h-1.1c0,1.4-1.1,2.5-2.7,2.5
	c-1.4,0-2.5-1.1-2.5-2.5H900.3"/>
<rect x="899.8" y="366.4" class="st6" width="8.5" height="4.1"/>
<rect x="903.3" y="365.4" width="1" height="4.2"/>
<rect x="903.3" y="365.4" class="st7" width="1" height="4.2"/>
<text transform="matrix(1 0 0 1 909.5723 360.4807)" class="st10 st8 st11">RJK01</text>
<text transform="matrix(1 0 0 1 853.6396 360.4807)" class="st10 st8 st11">RJK01</text>
<text transform="matrix(1 0 0 1 909.5723 367.6809)" class="st10 st8 st11">KJR01</text>
<text transform="matrix(1 0 0 1 909.5723 374.8806)" class="st10 st8 st11">-4</text>
<rect x="843.6" y="356" class="st6" width="8.5" height="18.8"/>
<line class="st16" x1="847.7" y1="366.1" x2="847.7" y2="374.4"/>
<line class="st17" x1="847.8" y1="363" x2="847.8" y2="356.5"/>
<path class="st6" d="M847.8,363.1c-1.7,0-3.2,1.4-3.2,3.2c0,1.8,1.5,3.2,3.2,3.2c1.8,0,3.2-1.4,3.2-3.2
	C851,364.5,849.6,363.1,847.8,363.1"/>
<path d="M847.8,362.5c2.2,0,3.8,1.8,3.8,3.8h-1.1c0-1.4-1.1-2.5-2.7-2.5c-1.4,0-2.5,1.1-2.5,2.5h-1.1
	C844.1,364.2,845.7,362.5,847.8,362.5 M844.1,366.3c0,2.2,1.6,3.8,3.7,3.8c2.2,0,3.8-1.7,3.8-3.8h-1.1c0,1.4-1.1,2.5-2.7,2.5
	c-1.4,0-2.5-1.1-2.5-2.5H844.1"/>
<rect x="843.6" y="366.4" class="st6" width="8.5" height="4.1"/>
<rect x="847.1" y="365.4" width="1" height="4.2"/>
<rect x="847.1" y="365.4" class="st7" width="1" height="4.2"/>
<text transform="matrix(1 0 0 1 853.4141 367.6809)" class="st10 st8 st11">KJR01</text>
<text transform="matrix(1 0 0 1 853.4141 374.8811)" class="st10 st8 st11">-3</text>
<line class="st5" x1="591.2" y1="167.3" x2="591.2" y2="159.1"/>
<path class="st6" d="M591.1,170.4c-1.7,0-3-1.4-3-3c0-1.8,1.4-3.2,3-3.2c1.8,0,3.2,1.4,3.2,3.2C594.3,169,592.9,170.4,591.1,170.4"
	/>
<path d="M591.1,171c-2,0-3.7-1.6-3.7-3.7c0-2.2,1.7-3.8,3.7-3.8v1.2c-1.4,0-2.5,1.1-2.5,2.7c0,1.3,1.1,2.5,2.5,2.5V171z
	 M591.1,163.5v1.2c1.5,0,2.7,1.1,2.7,2.7c0,1.3-1.1,2.5-2.7,2.5v1.1c2.2,0,3.8-1.6,3.8-3.7C594.9,165.2,593.3,163.5,591.1,163.5"/>
<rect x="587.1" y="163.1" class="st6" width="8.1" height="4.1"/>
<rect x="590.7" y="164" width="1" height="4.2"/>
<rect x="590.7" y="164" class="st7" width="1" height="4.2"/>
<line class="st5" x1="647.9" y1="167.3" x2="647.9" y2="159.1"/>
<path class="st6" d="M647.8,170.4c-1.7,0-3-1.4-3-3c0-1.8,1.4-3.2,3-3.2c1.8,0,3.2,1.4,3.2,3.2C651,169,649.6,170.4,647.8,170.4"/>
<path d="M647.8,171c-2,0-3.7-1.6-3.7-3.7c0-2.2,1.7-3.8,3.7-3.8v1.2c-1.4,0-2.5,1.1-2.5,2.7c0,1.3,1.1,2.5,2.5,2.5V171z
	 M647.8,163.5v1.2c1.5,0,2.7,1.1,2.7,2.7c0,1.3-1.1,2.5-2.7,2.5v1.1c2.2,0,3.8-1.6,3.8-3.7C651.6,165.2,650,163.5,647.8,163.5"/>
<rect x="643.8" y="163.1" class="st6" width="8.1" height="4.1"/>
<rect x="647.4" y="164" width="1" height="4.2"/>
<rect x="647.4" y="164" class="st7" width="1" height="4.2"/>
<text transform="matrix(1 0 0 1 637.6895 155.4398)" class="st8 st9">CAN_H</text>
<text transform="matrix(1 0 0 1 584.5254 155.4398)" class="st8 st9">CAN_L</text>
<text transform="matrix(1 0 0 1 597.252 167.1742)" class="st10 st8 st11">KG86(E)</text>
<text transform="matrix(1 0 0 1 622.8662 167.1742)" class="st10 st8 st11">-7</text>
<text transform="matrix(1 0 0 1 654.582 167.1742)" class="st10 st8 st11">KG86(E)</text>
<text transform="matrix(1 0 0 1 679.9438 167.1742)" class="st10 st8 st11">-21</text>
<path class="st4" d="M651.2,252.2c2.4,0,4.3-2,4.3-4.6c0-2.6-1.8-4.6-4.2-4.6l-63.7,9.4c-2.4-0.1-4.2-2.2-4.2-4.6
	c0-2.6,1.9-4.6,4.3-4.6L651.2,252.2z"/>
<rect x="633.8" y="194.8" class="st6" width="28.1" height="7.1"/>
<g class="st12">
	<g>
		<text transform="matrix(1 0 0 1 638.4399 200.1947)" class="st8 st11">P 0.35 </text>
	</g>
</g>
<rect x="580.1" y="194.8" class="st6" width="25.1" height="7.1"/>
<g class="st12">
	<g>
		<text transform="matrix(1 0 0 1 581.7827 200.1947)" class="st8 st11">V 0.35</text>
	</g>
</g>
<path d="M61.7,491.9c0,1.5-1.2,2.6-2.6,2.6c-1.5,0-2.6-1.2-2.6-2.6c0-1.5,1.2-2.6,2.6-2.6C60.5,489.3,61.7,490.4,61.7,491.9"/>
<path class="st14" d="M61.7,491.9c0,1.5-1.2,2.6-2.6,2.6c-1.5,0-2.6-1.2-2.6-2.6c0-1.5,1.2-2.6,2.6-2.6
	C60.5,489.3,61.7,490.4,61.7,491.9z"/>
<path d="M59.1,489.3c1.5,0,2.6,1.2,2.6,2.6c0,1.5-1.2,2.6-2.6,2.6"/>
<path class="st14" d="M59.1,489.3c1.5,0,2.6,1.2,2.6,2.6c0,1.5-1.2,2.6-2.6,2.6"/>
<path d="M521.7,614.2c0,1.5-1.2,2.6-2.6,2.6c-1.5,0-2.6-1.2-2.6-2.6c0-1.5,1.2-2.6,2.6-2.6C520.5,611.5,521.7,612.7,521.7,614.2"/>
<path class="st14" d="M521.7,614.2c0,1.5-1.2,2.6-2.6,2.6c-1.5,0-2.6-1.2-2.6-2.6c0-1.5,1.2-2.6,2.6-2.6
	C520.5,611.5,521.7,612.7,521.7,614.2z"/>
<path d="M519.1,611.5c1.5,0,2.6,1.2,2.6,2.6c0,1.5-1.2,2.6-2.6,2.6"/>
<path class="st14" d="M519.1,611.5c1.5,0,2.6,1.2,2.6,2.6c0,1.5-1.2,2.6-2.6,2.6"/>
<text transform="matrix(1 0 0 1 414.9019 740.0736)" class="st10 st8 st11">-6</text>
<path class="st2" d="M397.4,768.1l-77,0v-25.9l77,0c0,0-4.7,7.6,0,13C402,760.5,397.4,768.1,397.4,768.1"/>
<path class="st3" d="M397.4,768.1l-77,0v-25.9l77,0c0,0-4.7,7.6,0,13C402,760.5,397.4,768.1,397.4,768.1z"/>
<line class="st5" x1="331.6" y1="734" x2="331.6" y2="742.2"/>
<path class="st6" d="M331.5,730.9c-1.7,0-3,1.4-3,3c0,1.8,1.4,3.2,3,3.2c1.8,0,3.2-1.4,3.2-3.2C334.7,732.3,333.3,730.9,331.5,730.9
	"/>
<path d="M331.5,731.4c-1.4,0-2.5,1.2-2.5,2.5c0,1.6,1.1,2.7,2.5,2.7v1.2c-2,0-3.7-1.6-3.7-3.8c0-2.1,1.7-3.7,3.7-3.7V731.4z
	 M331.5,737.8c2.2,0,3.8-1.7,3.8-3.8s-1.6-3.7-3.8-3.7v1.1c1.6,0,2.7,1.2,2.7,2.5c0,1.6-1.2,2.7-2.7,2.7V737.8"/>
<rect x="327.5" y="734.1" class="st6" width="8.1" height="4.1"/>
<rect x="331.1" y="733.1" width="1" height="4.2"/>
<rect x="331.1" y="733.1" class="st7" width="1" height="4.2"/>
<line class="st5" x1="388.3" y1="734" x2="388.3" y2="742.2"/>
<path class="st6" d="M388.2,730.9c-1.7,0-3,1.4-3,3c0,1.8,1.4,3.2,3,3.2c1.8,0,3.2-1.4,3.2-3.2C391.4,732.3,390,730.9,388.2,730.9"
	/>
<path d="M388.2,731.4c-1.4,0-2.5,1.2-2.5,2.5c0,1.6,1.1,2.7,2.5,2.7v1.2c-2,0-3.7-1.6-3.7-3.8c0-2.1,1.7-3.7,3.7-3.7V731.4z
	 M388.2,737.8c2.2,0,3.8-1.7,3.8-3.8s-1.6-3.7-3.8-3.7v1.1c1.6,0,2.7,1.2,2.7,2.5c0,1.6-1.2,2.7-2.7,2.7V737.8"/>
<rect x="384.2" y="734.1" class="st6" width="8.1" height="4.1"/>
<rect x="387.8" y="733.1" width="1" height="4.2"/>
<rect x="387.8" y="733.1" class="st7" width="1" height="4.2"/>
<text transform="matrix(1 0 0 1 337.2088 740.0736)" class="st10 st8 st11">G03(A)</text>
<text transform="matrix(1 0 0 1 358.2088 740.0736)" class="st10 st8 st11">-14</text>
<text transform="matrix(1 0 0 1 393.5428 740.0736)" class="st10 st8 st11">G03(A)</text>
<text transform="matrix(1 0 0 1 329.6629 781.7316)" class="st10 st8 st11">OBD Interface</text>
<text transform="matrix(1 0 0 1 324.2996 748.2582)" class="st8 st9">CAN_L</text>
<text transform="matrix(1 0 0 1 379.0516 748.2582)" class="st8 st9">CAN_H</text>
<path d="M118.3,399.6c0,1.5-1.2,2.6-2.6,2.6c-1.5,0-2.6-1.2-2.6-2.6c0-1.5,1.2-2.6,2.6-2.6C117.2,397,118.3,398.2,118.3,399.6"/>
<path class="st14" d="M118.3,399.6c0,1.5-1.2,2.6-2.6,2.6c-1.5,0-2.6-1.2-2.6-2.6c0-1.5,1.2-2.6,2.6-2.6
	C117.2,397,118.3,398.2,118.3,399.6z"/>
<path d="M115.7,397c1.5,0,2.6,1.2,2.6,2.6c0,1.5-1.2,2.6-2.6,2.6"/>
<path class="st14" d="M115.7,397c1.5,0,2.6,1.2,2.6,2.6c0,1.5-1.2,2.6-2.6,2.6"/>
<path class="st4" d="M1035.2,252.2c2.4,0,4.3-2,4.3-4.6c0-2.6-1.8-4.6-4.2-4.6l-63.7,9.4c-2.4-0.1-4.2-2.2-4.2-4.6
	c0-2.6,1.9-4.6,4.3-4.6L1035.2,252.2z"/>
<rect x="1017" y="194.8" class="st6" width="28.1" height="7.1"/>
<g class="st12">
	<g>
		<text transform="matrix(1 0 0 1 1021.6094 200.1947)" class="st8 st11">V 0.35</text>
	</g>
</g>
<g>
	<polyline class="st18" points="30.2,42.9 1220.7,42.9 1220.7,98.5 30.2,98.5 	"/>
	<line class="st19" x1="30.2" y1="48.6" x2="1220.7" y2="48.6"/>
	<line class="st20" x1="30.2" y1="42.6" x2="1220.7" y2="42.6"/>
	<line class="st19" x1="30.2" y1="59.8" x2="1220.7" y2="59.8"/>
	<line class="st19" x1="30.2" y1="70.9" x2="1220.7" y2="70.9"/>
	<line class="st19" x1="30.2" y1="82.1" x2="1220.5" y2="82.1"/>
	<line class="st19" x1="30.2" y1="93.3" x2="1220.7" y2="93.3"/>
	<line class="st20" x1="30.2" y1="98.5" x2="1220.7" y2="98.5"/>
	<text transform="matrix(1 0 0 1 1224.7898 50.6302)" class="st8 st11">30</text>
	<text transform="matrix(1 0 0 1 1224.7898 61.7963)" class="st8 st11">IG1</text>
	<text transform="matrix(1 0 0 1 1224.7898 73.4183)" class="st8 st11">IG3</text>
	<text transform="matrix(1 0 0 1 1224.7898 84.9203)" class="st8 st11">IG4</text>
	<text transform="matrix(1 0 0 1 1224.7898 95.3363)" class="st8 st11">ACC</text>
	<text transform="matrix(1 0 0 1 19.8418 50.7084)" class="st8 st11">30</text>
	<text transform="matrix(1 0 0 1 16.6797 61.8744)" class="st8 st11">IG1</text>
	<text transform="matrix(1 0 0 1 16.7275 73.4965)" class="st8 st11">IG3</text>
	<text transform="matrix(1 0 0 1 16.6313 84.9984)" class="st8 st11">IG4</text>
	<text transform="matrix(1 0 0 1 13.1396 94.8324)" class="st8 st11">ACC</text>
</g>
<g>
	<text transform="matrix(1 0 0 1 180.8456 129.4731)" class="st21 st8 st11">Right Front Combination Light</text>
</g>
<g>
	<text transform="matrix(1 0 0 1 456.1722 130.4426)" class="st22 st8 st11">Right Body Control Module</text>
</g>
<g>
	<text transform="matrix(1 0 0 1 820.601 130.4427)" class="st22 st8 st11">Left Blind Spot Detection Module </text>
</g>
<g>
	<text transform="matrix(1 0 0 1 951.9773 129.4731)" class="st22 st8 st11">Right  Blind Spot Detection Module </text>
</g>
<g>
	<text transform="matrix(1 0 0 1 49.3987 778.3209)" class="st22 st8 st11">Left Combination Headlight</text>
</g>
</svg>
