<?xml version="1.0" encoding="utf-8"?>
<!-- Generator: Adobe Illustrator 24.0.1, SVG Export Plug-In . SVG Version: 6.00 Build 0)  -->
<svg version="1.1" id="图层_1" xmlns="http://www.w3.org/2000/svg" xmlns:xlink="http://www.w3.org/1999/xlink" x="0px" y="0px"
	 viewBox="0 0 1029.4 841.9" style="enable-background:new 0 0 1029.4 841.9;" xml:space="preserve">
<style type="text/css">
	.st0{fill:none;stroke:#FFF100;stroke-width:3;stroke-miterlimit:10;}
	.st1{fill:none;stroke:#E60012;stroke-miterlimit:10;}
	.st2{fill:none;stroke:#000000;stroke-width:3;stroke-miterlimit:10;}
	.st3{fill:none;stroke:#005EAD;stroke-miterlimit:10;}
	.st4{fill:#FFFFFF;stroke:#000000;stroke-width:0.5;stroke-miterlimit:10;}
	.st5{fill:none;stroke:#000000;stroke-miterlimit:10;}
	.st6{fill:none;stroke:#E60012;stroke-width:3;stroke-miterlimit:10;}
	.st7{stroke:#FFFFFF;stroke-width:0.5;}
	.st8{fill:#FFFFFF;stroke:#000000;stroke-width:0.25;}
	.st9{font-family:'FZLTHJW--GB1-0';}
	.st10{font-size:6px;}
	.st11{fill:none;stroke:#F29C97;stroke-width:3;stroke-miterlimit:10;}
	.st12{fill:none;stroke:#898989;stroke-miterlimit:10;}
	.st13{fill:#DCDDDD;}
	.st14{fill:none;stroke:#040000;stroke-width:0.5;}
	.st15{fill:none;stroke:#040000;}
	.st16{fill:#9FD9F6;stroke:#000000;stroke-width:0.5;stroke-linecap:round;stroke-miterlimit:10;}
	.st17{fill:#CCCCCC;stroke:#000000;stroke-width:0.5;stroke-miterlimit:10;}
	.st18{fill:none;stroke:#898989;stroke-width:3;stroke-miterlimit:10;}
	.st19{fill:none;stroke:#000000;stroke-width:0.75;}
	.st20{fill:none;stroke:#000000;stroke-width:0.5;stroke-linejoin:round;}
	.st21{fill:none;stroke:#000000;stroke-width:0.6;stroke-linejoin:round;}
	.st22{fill:#FFFFFF;}
	.st23{fill:none;stroke:#000000;stroke-width:0.72;stroke-linecap:round;stroke-linejoin:round;}
	.st24{fill:none;stroke:#89438F;stroke-width:3;stroke-linecap:round;stroke-linejoin:round;stroke-miterlimit:10;}
	.st25{fill:none;stroke:#F29C97;stroke-width:3;stroke-linecap:round;stroke-linejoin:round;stroke-miterlimit:10;}
	.st26{fill:none;stroke:#000000;stroke-linecap:round;stroke-linejoin:round;}
	.st27{fill:none;stroke:#000000;stroke-width:0.5;stroke-miterlimit:10;}
	.st28{stroke:#FFFFFF;stroke-width:0.5;stroke-linecap:round;}
	.st29{fill:none;stroke:#FFFFFF;stroke-width:1.0001;}
	.st30{fill:none;stroke:#000000;stroke-width:1.3;}
	.st31{font-size:4px;}
	.st32{fill:none;stroke:#F6AE6A;stroke-miterlimit:10;}
	.st33{fill:none;stroke:#005EAD;stroke-width:3;stroke-miterlimit:10;}
	.st34{fill:none;stroke:#FFFFFF;stroke-miterlimit:10;}
	.st35{fill:none;stroke:#009944;stroke-miterlimit:10;}
	.st36{fill:#FFFFFF;stroke:#000000;stroke-width:0.25;stroke-linecap:round;stroke-linejoin:round;}
	.st37{fill:none;stroke:#000000;stroke-width:0.6001;}
	.st38{fill:none;stroke:#090103;stroke-width:1.3;stroke-linecap:round;}
	.st39{fill:none;stroke:#000000;stroke-width:0.6;stroke-linecap:round;stroke-dasharray:3.001,1.8;}
	.st40{fill:none;stroke:#000000;}
	.st41{fill:none;stroke:#000000;stroke-width:0.6;stroke-linecap:round;stroke-linejoin:round;}
	.st42{fill:none;stroke:#000000;stroke-width:0.6;}
	.st43{fill:none;stroke:#090103;stroke-width:0.6;}
	.st44{fill:none;stroke:#FFFFFF;stroke-width:0.6;}
	.st45{fill:none;stroke:#000000;stroke-width:0.5;stroke-linecap:round;stroke-miterlimit:10;}
	.st46{fill:#005EAD;}
	.st47{fill:none;stroke:#231815;stroke-miterlimit:10;}
</style>
<line class="st0" x1="706.4" y1="533.6" x2="706.4" y2="720.5"/>
<line class="st0" x1="751" y1="533.6" x2="751" y2="720.5"/>
<line class="st1" x1="751" y1="533.6" x2="751" y2="720.5"/>
<line class="st2" x1="751.7" y1="357.9" x2="751.7" y2="487.3"/>
<line class="st3" x1="751.7" y1="357.9" x2="751.7" y2="487.3"/>
<g>
	<rect x="465.3" y="206.4" class="st4" width="3" height="104.3"/>
</g>
<line class="st1" x1="466.8" y1="206.4" x2="466.8" y2="310.7"/>
<g>
	<rect x="622.8" y="356.2" class="st4" width="3" height="129.9"/>
</g>
<line class="st5" x1="624.3" y1="356.2" x2="624.3" y2="486.2"/>
<line class="st6" x1="526.7" y1="206.4" x2="526.7" y2="310.7"/>
<path class="st7" d="M469.4,259.2c-0.2,1.5-1.4,2.5-2.8,2.5c-1.6,0-2.9-1.2-2.9-2.9c0-1.6,1.4-2.9,3.2-2.7
	C468.4,256.2,469.6,257.7,469.4,259.2z"/>
<rect x="471.4" y="256.1" class="st8" width="25.3" height="5.6"/>
<text transform="matrix(1 0 0 1 472.0685 260.9755)" class="st9 st10">SP1000</text>
<rect x="471.4" y="256.1" class="st8" width="25.3" height="5.6"/>
<text transform="matrix(1 0 0 1 472.0685 260.9755)" class="st9 st10">SP3233</text>
<line class="st11" x1="466.9" y1="357.9" x2="466.9" y2="487.3"/>
<line class="st3" x1="466.9" y1="357.9" x2="466.9" y2="487.3"/>
<line class="st2" x1="707.4" y1="357.9" x2="707.4" y2="487.3"/>
<line class="st1" x1="707.4" y1="357.9" x2="707.4" y2="487.3"/>
<line class="st2" x1="182.1" y1="206.8" x2="182.1" y2="351.1"/>
<line class="st2" x1="266.6" y1="779.4" x2="266.6" y2="534.3"/>
<polyline class="st2" points="312.3,534.3 312.3,596.6 265.5,596.6 "/>
<polyline class="st6" points="417.3,487.3 417.3,440.5 370.9,440.5 "/>
<polyline class="st12" points="417.3,487.3 417.3,440.5 370.9,440.5 "/>
<g>
	<polyline class="st13" points="63.9,41.9 979.4,41.9 979.4,99.7 63.9,99.7 	"/>
	<line class="st14" x1="63.9" y1="47.6" x2="979.4" y2="47.6"/>
	<line class="st15" x1="63.9" y1="41.6" x2="979.4" y2="41.6"/>
	<line class="st14" x1="63.9" y1="58.9" x2="979.4" y2="58.9"/>
	<line class="st14" x1="63.9" y1="70.6" x2="979.4" y2="70.6"/>
	<line class="st14" x1="63.9" y1="82.3" x2="979.4" y2="82.3"/>
	<line class="st14" x1="63.9" y1="93.9" x2="979.4" y2="93.9"/>
	<line class="st15" x1="63.9" y1="99.7" x2="979.4" y2="99.7"/>
</g>
<g>
	<text transform="matrix(1 0 0 1 983.434 49.6299)" class="st9 st10">30</text>
	<text transform="matrix(1 0 0 1 983.434 60.7959)" class="st9 st10">IG1</text>
	<text transform="matrix(1 0 0 1 983.434 72.4209)" class="st9 st10">IG3</text>
	<text transform="matrix(1 0 0 1 983.434 83.9248)" class="st9 st10">IG4</text>
	<text transform="matrix(1 0 0 1 983.434 96.1279)" class="st9 st10">ACC</text>
	<text transform="matrix(1 0 0 1 53.1304 49.7119)" class="st9 st10">30</text>
	<text transform="matrix(1 0 0 1 49.9664 60.8779)" class="st9 st10">IG1</text>
	<text transform="matrix(1 0 0 1 50.0132 72.5029)" class="st9 st10">IG3</text>
	<text transform="matrix(1 0 0 1 49.9664 84.0029)" class="st9 st10">IG4</text>
	<text transform="matrix(1 0 0 1 46.4741 96.1279)" class="st9 st10">ACC</text>
</g>
<path class="st16" d="M628.4,757.9H348.6V732h279.8V757.9"/>
<g>
	<path class="st16" d="M652.2,347h-51.5v-25.9h51.5c0,0-5,7.6,0,13S652.2,347,652.2,347"/>
</g>
<g id="REB_x2C_A3_3_">
	<rect x="96.1" y="124.7" class="st17" width="563.5" height="71"/>
</g>
<rect x="242.6" y="497.6" class="st16" width="674.7" height="26.1"/>
<rect x="443.6" y="321" class="st16" width="116" height="26.1"/>
<rect x="693.6" y="321" class="st16" width="85.1" height="26.1"/>
<rect x="131.7" y="497.6" class="st16" width="72.8" height="26.1"/>
<line class="st6" x1="370.3" y1="206.8" x2="370.3" y2="487.3"/>
<line class="st12" x1="370.3" y1="206.8" x2="370.3" y2="487.3"/>
<polyline class="st6" points="237.3,206.8 237.3,259.4 368.9,259.4 "/>
<polyline class="st12" points="237.3,206.8 237.3,259.4 368.9,259.4 "/>
<line class="st18" x1="370.5" y1="533.6" x2="370.5" y2="720.5"/>
<g>
	<g>
		<path class="st19" d="M370.4,165.9c-1.2,0-2.2,1-2.2,2.2s1,2.2,2.2,2.2s2.2-1,2.2-2.2C372.7,166.9,371.7,165.9,370.4,165.9"/>
	</g>
	<g>
		<path class="st19" d="M370.4,150c-1.2,0-2.2,1-2.2,2.1c0,1.2,1,2.2,2.2,2.2s2.2-0.9,2.2-2.2C372.7,151,371.7,150,370.4,150"/>
	</g>
	<g>
		<g>
			<path class="st19" d="M368.9,153.8c-0.1,2.5,0.2,3.2,1.3,4.3c1.2,1.2,2.4,1.7,2.8,3.7c0.4,1.6-0.1,3.5-1.1,4.5"/>
		</g>
		<g>
			<path class="st19" d="M371.8,166.4c0.2-0.8,0-2.9-0.6-3.7c-0.9-1.2-2.7-2.1-3.3-4c-0.9-2.8,0.7-4.6,1.1-5"/>
		</g>
	</g>
</g>
<g>
	<g>
		<polyline class="st20" points="370.4,170.3 370.4,175.2 370.4,195.6 		"/>
	</g>
</g>
<g>
	<g>
		<polyline class="st20" points="141.3,167.6 141.3,173 141.3,195.6 		"/>
	</g>
</g>
<g>
	<g>
		<polyline class="st20" points="182.1,162.6 182.1,168.9 182.1,195.6 		"/>
	</g>
</g>
<g>
	<g>
		<polyline class="st20" points="370.4,149.9 370.4,140.8 370.4,68.6 		"/>
	</g>
</g>
<g id="_x30_2-上针脚_45_">
	<line class="st21" x1="370.4" y1="203.8" x2="370.4" y2="195.6"/>
	<path class="st22" d="M370.3,206.9c-1.7,0-3-1.4-3-3c0-1.8,1.4-3.2,3-3.2c1.8,0,3.2,1.4,3.2,3.2
		C373.5,205.5,372.1,206.9,370.3,206.9"/>
	<path d="M370.3,207.5c-2,0-3.7-1.6-3.7-3.7c0-2.2,1.7-3.8,3.7-3.8v1.2c-1.4,0-2.5,1.1-2.5,2.7c0,1.3,1.1,2.5,2.5,2.5V207.5z
		 M370.3,200v1.2c1.5,0,2.7,1.1,2.7,2.7c0,1.3-1.1,2.5-2.7,2.5v1.1c2.2,0,3.8-1.6,3.8-3.7C374.1,201.7,372.5,200,370.3,200"/>
	<rect x="366.3" y="199.6" class="st22" width="8.1" height="4.1"/>
	<rect x="369.9" y="200.5" width="1" height="4.2"/>
	<rect x="369.9" y="200.5" class="st23" width="1" height="4.2"/>
</g>
<g id="_x30_2-上针脚_34_">
	<line class="st21" x1="466.9" y1="203.8" x2="466.9" y2="195.6"/>
	<path class="st22" d="M466.8,206.9c-1.7,0-3-1.4-3-3c0-1.8,1.4-3.2,3-3.2c1.8,0,3.2,1.4,3.2,3.2C470,205.5,468.6,206.9,466.8,206.9
		"/>
	<path d="M466.9,207.5c-2,0-3.7-1.6-3.7-3.7c0-2.2,1.7-3.8,3.7-3.8v1.2c-1.4,0-2.5,1.1-2.5,2.7c0,1.3,1.1,2.5,2.5,2.5V207.5z
		 M466.9,200v1.2c1.5,0,2.7,1.1,2.7,2.7c0,1.3-1.1,2.5-2.7,2.5v1.1c2.2,0,3.8-1.6,3.8-3.7C470.7,201.7,469.1,200,466.9,200"/>
	<rect x="462.9" y="199.6" class="st22" width="8.1" height="4.1"/>
	<rect x="466.4" y="200.5" width="1" height="4.2"/>
	<rect x="466.4" y="200.5" class="st23" width="1" height="4.2"/>
</g>
<g id="_x30_2-上针脚_23_">
	<line class="st21" x1="466.9" y1="355.3" x2="466.9" y2="347.1"/>
	<path class="st22" d="M466.8,358.4c-1.7,0-3-1.4-3-3c0-1.8,1.4-3.2,3-3.2c1.8,0,3.2,1.4,3.2,3.2C470,357,468.6,358.4,466.8,358.4"
		/>
	<path d="M466.8,359c-2,0-3.7-1.6-3.7-3.7c0-2.2,1.7-3.8,3.7-3.8v1.2c-1.4,0-2.5,1.1-2.5,2.7c0,1.3,1.1,2.5,2.5,2.5V359z
		 M466.8,351.5v1.2c1.5,0,2.7,1.1,2.7,2.7c0,1.3-1.1,2.5-2.7,2.5v1.1c2.2,0,3.8-1.6,3.8-3.7S469,351.5,466.8,351.5"/>
	<rect x="462.8" y="351.1" class="st22" width="8.1" height="4.1"/>
	<rect x="466.4" y="352" width="1" height="4.2"/>
	<rect x="466.4" y="352" class="st23" width="1" height="4.2"/>
</g>
<g id="_x30_2-上针脚_43_">
	<line class="st21" x1="417.2" y1="489.4" x2="417.2" y2="497.6"/>
	<path class="st22" d="M417.1,486.3c-1.7,0-3,1.4-3,3c0,1.8,1.4,3.2,3,3.2c1.8,0,3.2-1.4,3.2-3.2
		C420.3,487.7,418.9,486.3,417.1,486.3"/>
	<path d="M417.2,486.8c-1.4,0-2.5,1.2-2.5,2.5c0,1.6,1.1,2.7,2.5,2.7v1.2c-2,0-3.7-1.6-3.7-3.8c0-2.1,1.7-3.7,3.7-3.7V486.8z
		 M417.2,493.2c2.2,0,3.8-1.7,3.8-3.8c0-2.1-1.6-3.7-3.8-3.7v1.1c1.6,0,2.7,1.2,2.7,2.5c0,1.6-1.2,2.7-2.7,2.7V493.2"/>
	<rect x="413.2" y="489.5" class="st22" width="8.1" height="4.1"/>
	<rect x="416.7" y="488.5" width="1" height="4.2"/>
	<rect x="416.7" y="488.5" class="st23" width="1" height="4.2"/>
</g>
<line class="st24" x1="881.8" y1="529.4" x2="881.8" y2="720.5"/>
<line class="st25" x1="825.1" y1="529.4" x2="825.1" y2="720.5"/>
<path class="st26" d="M886.7,725.5l-0.6,2.1c0,0-0.6,2.5-3.3,2.6h-27.5l0,0l-2,2.7l-1.9-2.7c-9.2,0-27.3,0-27.3,0
	c-2.7-0.1-3.3-2.6-3.3-2.6l-0.6-2.1"/>
<path class="st27" d="M884.3,598.8c3,0,5.5,2.2,5.5,4.8s-2.4,4.7-5.4,4.8l-62-9.6c-3,0.1-5.4,2.2-5.4,4.8c0,2.7,2.5,4.8,5.5,4.8
	L884.3,598.8z"/>
<g>
	<path class="st28" d="M367.5,70.7c0-1.7,1.3-2.9,2.8-2.9c1.6,0,2.9,1.2,2.9,2.9c0,1.5-1.3,2.7-2.9,2.7
		C368.8,73.5,367.5,72.2,367.5,70.7z"/>
	<g>
		<path class="st29" d="M367.5,70.7c0-1.7,1.3-2.9,2.8-2.9c1.6,0,2.9,1.2,2.9,2.9c0,1.5-1.3,2.7-2.9,2.7
			C368.8,73.5,367.5,72.2,367.5,70.7"/>
	</g>
</g>
<g id="_x30_2-上针脚_31_">
	<line class="st21" x1="881.8" y1="531.9" x2="881.8" y2="523.7"/>
	<path class="st22" d="M881.7,535c-1.7,0-3-1.4-3-3c0-1.8,1.4-3.2,3-3.2c1.8,0,3.2,1.4,3.2,3.2C884.9,533.6,883.5,535,881.7,535"/>
	<path d="M881.8,535.6c-2,0-3.7-1.6-3.7-3.7c0-2.2,1.7-3.8,3.7-3.8v1.2c-1.4,0-2.5,1.1-2.5,2.7c0,1.3,1.1,2.5,2.5,2.5V535.6z
		 M881.8,528.1v1.2c1.5,0,2.7,1.1,2.7,2.7c0,1.3-1.1,2.5-2.7,2.5v1.1c2.2,0,3.8-1.6,3.8-3.7C885.6,529.8,884,528.1,881.8,528.1"/>
	<rect x="877.8" y="527.7" class="st22" width="8.1" height="4.1"/>
	<rect x="881.3" y="528.6" width="1" height="4.2"/>
	<rect x="881.3" y="528.6" class="st23" width="1" height="4.2"/>
</g>
<g id="_x30_2-上针脚_64_">
	<line class="st21" x1="706.3" y1="531.9" x2="706.3" y2="523.7"/>
	<path class="st22" d="M706.2,535c-1.7,0-3-1.4-3-3c0-1.8,1.4-3.2,3-3.2c1.8,0,3.2,1.4,3.2,3.2C709.4,533.6,708,535,706.2,535"/>
	<path d="M706.3,535.6c-2,0-3.7-1.6-3.7-3.7c0-2.2,1.7-3.8,3.7-3.8v1.2c-1.4,0-2.5,1.1-2.5,2.7c0,1.3,1.1,2.5,2.5,2.5V535.6z
		 M706.3,528.1v1.2c1.5,0,2.7,1.1,2.7,2.7c0,1.3-1.1,2.5-2.7,2.5v1.1c2.2,0,3.8-1.6,3.8-3.7C710.1,529.8,708.5,528.1,706.3,528.1"/>
	<rect x="702.3" y="527.7" class="st22" width="8.1" height="4.1"/>
	<rect x="705.8" y="528.6" width="1" height="4.2"/>
	<rect x="705.8" y="528.6" class="st23" width="1" height="4.2"/>
</g>
<g id="_x30_2-上针脚_93_">
	<line class="st21" x1="750.9" y1="531.9" x2="750.9" y2="523.7"/>
	<path class="st22" d="M750.8,535c-1.7,0-3-1.4-3-3c0-1.8,1.4-3.2,3-3.2c1.8,0,3.2,1.4,3.2,3.2C754,533.6,752.6,535,750.8,535"/>
	<path d="M750.9,535.6c-2,0-3.7-1.6-3.7-3.7c0-2.2,1.7-3.8,3.7-3.8v1.2c-1.4,0-2.5,1.1-2.5,2.7c0,1.3,1.1,2.5,2.5,2.5V535.6z
		 M750.9,528.1v1.2c1.5,0,2.7,1.1,2.7,2.7c0,1.3-1.1,2.5-2.7,2.5v1.1c2.2,0,3.8-1.6,3.8-3.7C754.7,529.8,753.1,528.1,750.9,528.1"/>
	<rect x="746.9" y="527.7" class="st22" width="8.1" height="4.1"/>
	<rect x="750.4" y="528.6" width="1" height="4.2"/>
	<rect x="750.4" y="528.6" class="st23" width="1" height="4.2"/>
</g>
<g id="_x30_2-上针脚_30_">
	<line class="st21" x1="825.1" y1="531.9" x2="825.1" y2="523.7"/>
	<path class="st22" d="M825,535c-1.7,0-3-1.4-3-3c0-1.8,1.4-3.2,3-3.2c1.8,0,3.2,1.4,3.2,3.2C828.2,533.6,826.8,535,825,535"/>
	<path d="M825.1,535.6c-2,0-3.7-1.6-3.7-3.7c0-2.2,1.7-3.8,3.7-3.8v1.2c-1.4,0-2.5,1.1-2.5,2.7c0,1.3,1.1,2.5,2.5,2.5V535.6z
		 M825.1,528.1v1.2c1.5,0,2.7,1.1,2.7,2.7c0,1.3-1.1,2.5-2.7,2.5v1.1c2.2,0,3.8-1.6,3.8-3.7C828.9,529.8,827.3,528.1,825.1,528.1"/>
	<rect x="821.1" y="527.7" class="st22" width="8.1" height="4.1"/>
	<rect x="824.6" y="528.6" width="1" height="4.2"/>
	<rect x="824.6" y="528.6" class="st23" width="1" height="4.2"/>
</g>
<g id="_x30_2-上针脚_12_">
	<line class="st21" x1="370.5" y1="723.8" x2="370.5" y2="732"/>
	<path class="st22" d="M370.4,720.7c-1.7,0-3,1.4-3,3c0,1.8,1.4,3.2,3,3.2c1.8,0,3.2-1.4,3.2-3.2
		C373.6,722.1,372.2,720.7,370.4,720.7"/>
	<path d="M370.5,721.2c-1.4,0-2.5,1.2-2.5,2.5c0,1.6,1.1,2.7,2.5,2.7v1.2c-2,0-3.7-1.6-3.7-3.8c0-2.1,1.7-3.7,3.7-3.7V721.2z
		 M370.5,727.6c2.2,0,3.8-1.7,3.8-3.8s-1.6-3.7-3.8-3.7v1.1c1.6,0,2.7,1.2,2.7,2.5c0,1.6-1.2,2.7-2.7,2.7V727.6"/>
	<rect x="366.5" y="723.9" class="st22" width="8.1" height="4.1"/>
	<rect x="370" y="722.9" width="1" height="4.2"/>
	<rect x="370" y="722.9" class="st23" width="1" height="4.2"/>
</g>
<path class="st7" d="M269.4,596.8c-0.2,1.5-1.4,2.5-2.8,2.5c-1.6,0-2.9-1.2-2.9-2.9c0-1.6,1.4-2.9,3.2-2.7
	C268.4,593.9,269.6,595.3,269.4,596.8z"/>
<g id="_x30_2-上针脚_7_">
	<line class="st21" x1="312.8" y1="531.7" x2="312.8" y2="523.5"/>
	<path class="st22" d="M312.7,534.8c-1.7,0-3-1.4-3-3c0-1.8,1.4-3.2,3-3.2c1.8,0,3.2,1.4,3.2,3.2
		C315.9,533.4,314.5,534.8,312.7,534.8"/>
	<path d="M312.8,535.4c-2,0-3.7-1.6-3.7-3.7c0-2.2,1.7-3.8,3.7-3.8v1.2c-1.4,0-2.5,1.1-2.5,2.7c0,1.3,1.1,2.5,2.5,2.5V535.4z
		 M312.8,527.9v1.2c1.5,0,2.7,1.1,2.7,2.7c0,1.3-1.1,2.5-2.7,2.5v1.1c2.2,0,3.8-1.6,3.8-3.7C316.6,529.6,315,527.9,312.8,527.9"/>
	<rect x="308.8" y="527.5" class="st22" width="8.1" height="4.1"/>
	<rect x="312.3" y="528.4" width="1" height="4.2"/>
	<rect x="312.3" y="528.4" class="st23" width="1" height="4.2"/>
</g>
<g id="_x30_2-上针脚_6_">
	<line class="st21" x1="266.6" y1="531.7" x2="266.6" y2="523.5"/>
	<path class="st22" d="M266.5,534.8c-1.7,0-3-1.4-3-3c0-1.8,1.4-3.2,3-3.2c1.8,0,3.2,1.4,3.2,3.2
		C269.7,533.4,268.3,534.8,266.5,534.8"/>
	<path d="M266.5,535.4c-2,0-3.7-1.6-3.7-3.7c0-2.2,1.7-3.8,3.7-3.8v1.2c-1.4,0-2.5,1.1-2.5,2.7c0,1.3,1.1,2.5,2.5,2.5V535.4z
		 M266.5,527.9v1.2c1.5,0,2.7,1.1,2.7,2.7c0,1.3-1.1,2.5-2.7,2.5v1.1c2.2,0,3.8-1.6,3.8-3.7S268.7,527.9,266.5,527.9"/>
	<rect x="262.5" y="527.5" class="st22" width="8.1" height="4.1"/>
	<rect x="266.1" y="528.4" width="1" height="4.2"/>
	<rect x="266.1" y="528.4" class="st23" width="1" height="4.2"/>
</g>
<g>
	<g>
		<line class="st30" x1="259.6" y1="779.4" x2="273.5" y2="779.4"/>
	</g>
	<g>
		<line class="st30" x1="262.5" y1="781.6" x2="270.6" y2="781.6"/>
	</g>
	<g>
		<line class="st30" x1="269" y1="783.7" x2="264.1" y2="783.7"/>
	</g>
</g>
<g id="_x30_2-上针脚_2_">
	<line class="st21" x1="370.5" y1="531.7" x2="370.5" y2="523.5"/>
	<path class="st22" d="M370.4,534.8c-1.7,0-3-1.4-3-3c0-1.8,1.4-3.2,3-3.2c1.8,0,3.2,1.4,3.2,3.2
		C373.6,533.4,372.2,534.8,370.4,534.8"/>
	<path d="M370.5,535.4c-2,0-3.7-1.6-3.7-3.7c0-2.2,1.7-3.8,3.7-3.8v1.2c-1.4,0-2.5,1.1-2.5,2.7c0,1.3,1.1,2.5,2.5,2.5V535.4z
		 M370.5,527.9v1.2c1.5,0,2.7,1.1,2.7,2.7c0,1.3-1.1,2.5-2.7,2.5v1.1c2.2,0,3.8-1.6,3.8-3.7S372.7,527.9,370.5,527.9"/>
	<rect x="366.5" y="527.5" class="st22" width="8.1" height="4.1"/>
	<rect x="370" y="528.4" width="1" height="4.2"/>
	<rect x="370" y="528.4" class="st23" width="1" height="4.2"/>
</g>
<g>
	<text transform="matrix(1 0 0 1 817.0853 521.8636)" class="st9 st31">CAN_H</text>
</g>
<g>
	<text transform="matrix(1 0 0 1 873.4943 521.8638)" class="st9 st31">CAN_L</text>
</g>
<g>
	<text transform="matrix(1 0 0 1 351.672 516.0578)" class="st9 st31">Accelerator </text>
	<text transform="matrix(1 0 0 1 351.672 520.8578)" class="st9 st31">pedal depth 1 power</text>
</g>
<g>
	<text transform="matrix(1 0 0 1 617.972 515.8643)" class="st9 st31">Accelerator </text>
	<text transform="matrix(1 0 0 1 617.972 520.6643)" class="st9 st31">pedal depth shield ground</text>
</g>
<g>
	<text transform="matrix(1 0 0 1 398.5101 516.0578)" class="st9 st31">Accelerator </text>
	<text transform="matrix(1 0 0 1 398.5101 520.8578)" class="st9 st31">pedal depth 1 signal</text>
</g>
<g>
	<text transform="matrix(1 0 0 1 443.2431 516.0582)" class="st9 st31">Accelerator </text>
	<text transform="matrix(1 0 0 1 443.2431 520.8582)" class="st9 st31">pedal depth  1 ground</text>
</g>
<g>
	<text transform="matrix(1 0 0 1 409.7683 502.544)" class="st9 st31">IG3 power supply</text>
</g>
<rect x="356.3" y="219.3" class="st22" width="28.1" height="7.1"/>
<g>
	<text transform="matrix(1 0 0 1 358.2141 224.6924)" class="st9 st10">R/Gr 0.5</text>
</g>
<rect x="231.6" y="219.3" class="st22" width="13.5" height="7.1"/>
<g>
	<text transform="matrix(1 0 0 1 225.4345 224.6924)" class="st9 st10">R/Gr 0.5</text>
</g>
<rect x="363.5" y="701" class="st22" width="13.9" height="7.1"/>
<g>
	<text transform="matrix(1 0 0 1 359.6279 706.6399)" class="st9 st10">Gr 0.35</text>
</g>
<line class="st0" x1="415.1" y1="533.6" x2="415.1" y2="720.5"/>
<line class="st32" x1="415.1" y1="533.6" x2="415.1" y2="720.5"/>
<g id="_x30_2-上针脚_5_">
	<line class="st21" x1="415.1" y1="723.8" x2="415.1" y2="732"/>
	<path class="st22" d="M415,720.7c-1.7,0-3,1.4-3,3c0,1.8,1.4,3.2,3,3.2c1.8,0,3.2-1.4,3.2-3.2C418.2,722.1,416.8,720.7,415,720.7"
		/>
	<path d="M415,721.2c-1.4,0-2.5,1.2-2.5,2.5c0,1.6,1.1,2.7,2.5,2.7v1.2c-2,0-3.7-1.6-3.7-3.8c0-2.1,1.7-3.7,3.7-3.7V721.2z
		 M415,727.6c2.2,0,3.8-1.7,3.8-3.8s-1.6-3.7-3.8-3.7v1.1c1.6,0,2.7,1.2,2.7,2.5c0,1.6-1.2,2.7-2.7,2.7V727.6"/>
	<rect x="411" y="723.9" class="st22" width="8.1" height="4.1"/>
	<rect x="414.6" y="722.9" width="1" height="4.2"/>
	<rect x="414.6" y="722.9" class="st23" width="1" height="4.2"/>
</g>
<g id="_x30_2-上针脚_1_">
	<line class="st21" x1="415.1" y1="531.7" x2="415.1" y2="523.5"/>
	<path class="st22" d="M415,534.8c-1.7,0-3-1.4-3-3c0-1.8,1.4-3.2,3-3.2c1.8,0,3.2,1.4,3.2,3.2C418.2,533.4,416.8,534.8,415,534.8"
		/>
	<path d="M415,535.4c-2,0-3.7-1.6-3.7-3.7c0-2.2,1.7-3.8,3.7-3.8v1.2c-1.4,0-2.5,1.1-2.5,2.7c0,1.3,1.1,2.5,2.5,2.5V535.4z
		 M415,527.9v1.2c1.5,0,2.7,1.1,2.7,2.7c0,1.3-1.1,2.5-2.7,2.5v1.1c2.2,0,3.8-1.6,3.8-3.7S417.2,527.9,415,527.9"/>
	<rect x="411" y="527.5" class="st22" width="8.1" height="4.1"/>
	<rect x="414.6" y="528.4" width="1" height="4.2"/>
	<rect x="414.6" y="528.4" class="st23" width="1" height="4.2"/>
</g>
<line class="st33" x1="459.6" y1="533.6" x2="459.6" y2="720.5"/>
<line class="st34" x1="459.6" y1="533.6" x2="459.6" y2="720.5"/>
<g id="_x30_2-上针脚_24_">
	<line class="st21" x1="459.6" y1="723.8" x2="459.6" y2="732"/>
	<path class="st22" d="M459.5,720.7c-1.7,0-3,1.4-3,3c0,1.8,1.4,3.2,3,3.2c1.8,0,3.2-1.4,3.2-3.2
		C462.7,722.1,461.3,720.7,459.5,720.7"/>
	<path d="M459.6,721.2c-1.4,0-2.5,1.2-2.5,2.5c0,1.6,1.1,2.7,2.5,2.7v1.2c-2,0-3.7-1.6-3.7-3.8c0-2.1,1.7-3.7,3.7-3.7V721.2z
		 M459.6,727.6c2.2,0,3.8-1.7,3.8-3.8s-1.6-3.7-3.8-3.7v1.1c1.6,0,2.7,1.2,2.7,2.5c0,1.6-1.2,2.7-2.7,2.7V727.6"/>
	<rect x="455.6" y="723.9" class="st22" width="8.1" height="4.1"/>
	<rect x="459.1" y="722.9" width="1" height="4.2"/>
	<rect x="459.1" y="722.9" class="st23" width="1" height="4.2"/>
</g>
<g id="_x30_2-上针脚_11_">
	<line class="st21" x1="459.6" y1="531.7" x2="459.6" y2="523.5"/>
	<path class="st22" d="M459.5,534.8c-1.7,0-3-1.4-3-3c0-1.8,1.4-3.2,3-3.2c1.8,0,3.2,1.4,3.2,3.2
		C462.7,533.4,461.3,534.8,459.5,534.8"/>
	<path d="M459.6,535.4c-2,0-3.7-1.6-3.7-3.7c0-2.2,1.7-3.8,3.7-3.8v1.2c-1.4,0-2.5,1.1-2.5,2.7c0,1.3,1.1,2.5,2.5,2.5V535.4z
		 M459.6,527.9v1.2c1.5,0,2.7,1.1,2.7,2.7c0,1.3-1.1,2.5-2.7,2.5v1.1c2.2,0,3.8-1.6,3.8-3.7S461.8,527.9,459.6,527.9"/>
	<rect x="455.6" y="527.5" class="st22" width="8.1" height="4.1"/>
	<rect x="459.1" y="528.4" width="1" height="4.2"/>
	<rect x="459.1" y="528.4" class="st23" width="1" height="4.2"/>
</g>
<line class="st33" x1="504.2" y1="533.6" x2="504.2" y2="720.5"/>
<line class="st32" x1="504.2" y1="533.6" x2="504.2" y2="720.5"/>
<g id="_x30_2-上针脚_26_">
	<line class="st21" x1="504.2" y1="723.8" x2="504.2" y2="732"/>
	<path class="st22" d="M504.1,720.7c-1.7,0-3,1.4-3,3c0,1.8,1.4,3.2,3,3.2c1.8,0,3.2-1.4,3.2-3.2
		C507.3,722.1,505.9,720.7,504.1,720.7"/>
	<path d="M504.2,721.2c-1.4,0-2.5,1.2-2.5,2.5c0,1.6,1.1,2.7,2.5,2.7v1.2c-2,0-3.7-1.6-3.7-3.8c0-2.1,1.7-3.7,3.7-3.7V721.2z
		 M504.2,727.6c2.2,0,3.8-1.7,3.8-3.8s-1.6-3.7-3.8-3.7v1.1c1.6,0,2.7,1.2,2.7,2.5c0,1.6-1.2,2.7-2.7,2.7V727.6"/>
	<rect x="500.2" y="723.9" class="st22" width="8.1" height="4.1"/>
	<rect x="503.7" y="722.9" width="1" height="4.2"/>
	<rect x="503.7" y="722.9" class="st23" width="1" height="4.2"/>
</g>
<g id="_x30_2-上针脚_25_">
	<line class="st21" x1="504.2" y1="531.7" x2="504.2" y2="523.5"/>
	<path class="st22" d="M504.1,534.8c-1.7,0-3-1.4-3-3c0-1.8,1.4-3.2,3-3.2c1.8,0,3.2,1.4,3.2,3.2
		C507.3,533.4,505.9,534.8,504.1,534.8"/>
	<path d="M504.2,535.4c-2,0-3.7-1.6-3.7-3.7c0-2.2,1.7-3.8,3.7-3.8v1.2c-1.4,0-2.5,1.1-2.5,2.7c0,1.3,1.1,2.5,2.5,2.5V535.4z
		 M504.2,527.9v1.2c1.5,0,2.7,1.1,2.7,2.7c0,1.3-1.1,2.5-2.7,2.5v1.1c2.2,0,3.8-1.6,3.8-3.7S506.4,527.9,504.2,527.9"/>
	<rect x="500.2" y="527.5" class="st22" width="8.1" height="4.1"/>
	<rect x="503.7" y="528.4" width="1" height="4.2"/>
	<rect x="503.7" y="528.4" class="st23" width="1" height="4.2"/>
</g>
<line class="st0" x1="548.8" y1="533.6" x2="548.8" y2="720.5"/>
<line class="st3" x1="548.8" y1="533.6" x2="548.8" y2="720.5"/>
<g id="_x30_2-上针脚_28_">
	<line class="st21" x1="548.8" y1="723.8" x2="548.8" y2="732"/>
	<path class="st22" d="M548.7,720.7c-1.7,0-3,1.4-3,3c0,1.8,1.4,3.2,3,3.2c1.8,0,3.2-1.4,3.2-3.2
		C551.9,722.1,550.5,720.7,548.7,720.7"/>
	<path d="M548.7,721.2c-1.4,0-2.5,1.2-2.5,2.5c0,1.6,1.1,2.7,2.5,2.7v1.2c-2,0-3.7-1.6-3.7-3.8c0-2.1,1.7-3.7,3.7-3.7V721.2z
		 M548.7,727.6c2.2,0,3.8-1.7,3.8-3.8s-1.6-3.7-3.8-3.7v1.1c1.6,0,2.7,1.2,2.7,2.5c0,1.6-1.2,2.7-2.7,2.7V727.6"/>
	<rect x="544.7" y="723.9" class="st22" width="8.1" height="4.1"/>
	<rect x="548.3" y="722.9" width="1" height="4.2"/>
	<rect x="548.3" y="722.9" class="st23" width="1" height="4.2"/>
</g>
<g id="_x30_2-上针脚_27_">
	<line class="st21" x1="548.8" y1="531.7" x2="548.8" y2="523.5"/>
	<path class="st22" d="M548.7,534.8c-1.7,0-3-1.4-3-3c0-1.8,1.4-3.2,3-3.2c1.8,0,3.2,1.4,3.2,3.2
		C551.9,533.4,550.5,534.8,548.7,534.8"/>
	<path d="M548.7,535.4c-2,0-3.7-1.6-3.7-3.7c0-2.2,1.7-3.8,3.7-3.8v1.2c-1.4,0-2.5,1.1-2.5,2.7c0,1.3,1.1,2.5,2.5,2.5V535.4z
		 M548.7,527.9v1.2c1.5,0,2.7,1.1,2.7,2.7c0,1.3-1.1,2.5-2.7,2.5v1.1c2.2,0,3.8-1.6,3.8-3.7S550.9,527.9,548.7,527.9"/>
	<rect x="544.7" y="527.5" class="st22" width="8.1" height="4.1"/>
	<rect x="548.3" y="528.4" width="1" height="4.2"/>
	<rect x="548.3" y="528.4" class="st23" width="1" height="4.2"/>
</g>
<line class="st0" x1="593.3" y1="533.6" x2="593.3" y2="720.5"/>
<line class="st35" x1="593.3" y1="533.6" x2="593.3" y2="720.5"/>
<g id="_x30_2-上针脚_41_">
	<line class="st21" x1="593.3" y1="723.8" x2="593.3" y2="732"/>
	<path class="st22" d="M593.2,720.7c-1.7,0-3,1.4-3,3c0,1.8,1.4,3.2,3,3.2c1.8,0,3.2-1.4,3.2-3.2C596.4,722.1,595,720.7,593.2,720.7
		"/>
	<path d="M593.3,721.2c-1.4,0-2.5,1.2-2.5,2.5c0,1.6,1.1,2.7,2.5,2.7v1.2c-2,0-3.7-1.6-3.7-3.8c0-2.1,1.7-3.7,3.7-3.7V721.2z
		 M593.3,727.6c2.2,0,3.8-1.7,3.8-3.8s-1.6-3.7-3.8-3.7v1.1c1.6,0,2.7,1.2,2.7,2.5c0,1.6-1.2,2.7-2.7,2.7V727.6"/>
	<rect x="589.3" y="723.9" class="st22" width="8.1" height="4.1"/>
	<rect x="592.8" y="722.9" width="1" height="4.2"/>
	<rect x="592.8" y="722.9" class="st23" width="1" height="4.2"/>
</g>
<g id="_x30_2-上针脚_29_">
	<line class="st21" x1="593.3" y1="531.7" x2="593.3" y2="523.5"/>
	<path class="st22" d="M593.2,534.8c-1.7,0-3-1.4-3-3c0-1.8,1.4-3.2,3-3.2c1.8,0,3.2,1.4,3.2,3.2C596.4,533.4,595,534.8,593.2,534.8
		"/>
	<path d="M593.3,535.4c-2,0-3.7-1.6-3.7-3.7c0-2.2,1.7-3.8,3.7-3.8v1.2c-1.4,0-2.5,1.1-2.5,2.7c0,1.3,1.1,2.5,2.5,2.5V535.4z
		 M593.3,527.9v1.2c1.5,0,2.7,1.1,2.7,2.7c0,1.3-1.1,2.5-2.7,2.5v1.1c2.2,0,3.8-1.6,3.8-3.7S595.5,527.9,593.3,527.9"/>
	<rect x="589.3" y="527.5" class="st22" width="8.1" height="4.1"/>
	<rect x="592.8" y="528.4" width="1" height="4.2"/>
	<rect x="592.8" y="528.4" class="st23" width="1" height="4.2"/>
</g>
<line class="st2" x1="637.9" y1="533.6" x2="637.9" y2="599.6"/>
<g id="_x30_2-上针脚_42_">
	<line class="st21" x1="637.9" y1="531.7" x2="637.9" y2="523.5"/>
	<path class="st22" d="M637.8,534.8c-1.7,0-3-1.4-3-3c0-1.8,1.4-3.2,3-3.2c1.8,0,3.2,1.4,3.2,3.2C641,533.4,639.6,534.8,637.8,534.8
		"/>
	<path d="M637.9,535.4c-2,0-3.7-1.6-3.7-3.7c0-2.2,1.7-3.8,3.7-3.8v1.2c-1.4,0-2.5,1.1-2.5,2.7c0,1.3,1.1,2.5,2.5,2.5V535.4z
		 M637.9,527.9v1.2c1.5,0,2.7,1.1,2.7,2.7c0,1.3-1.1,2.5-2.7,2.5v1.1c2.2,0,3.8-1.6,3.8-3.7S640.1,527.9,637.9,527.9"/>
	<rect x="633.9" y="527.5" class="st22" width="8.1" height="4.1"/>
	<rect x="637.4" y="528.4" width="1" height="4.2"/>
	<rect x="637.4" y="528.4" class="st23" width="1" height="4.2"/>
</g>
<rect x="298.8" y="546.4" class="st22" width="28.1" height="7.1"/>
<g>
	<text transform="matrix(1 0 0 1 303.449 551.7615)" class="st9 st10">B 0.35</text>
</g>
<rect x="252.5" y="546.4" class="st22" width="28.1" height="7.1"/>
<g>
	<text transform="matrix(1 0 0 1 259.0089 551.7615)" class="st9 st10">B 0.5</text>
</g>
<rect x="252.5" y="701" class="st22" width="28.1" height="7.1"/>
<g>
	<text transform="matrix(1 0 0 1 259.0094 706.4153)" class="st9 st10">B 0.5</text>
</g>
<rect x="298.8" y="546.4" class="st22" width="28.1" height="7.1"/>
<g>
	<text transform="matrix(1 0 0 1 305.6365 551.7615)" class="st9 st10">B 0.5</text>
</g>
<rect x="252.5" y="546.4" class="st22" width="28.1" height="7.1"/>
<g>
	<text transform="matrix(1 0 0 1 259.0093 551.7615)" class="st9 st10">B 0.5</text>
</g>
<rect x="252.5" y="701" class="st22" width="28.1" height="7.1"/>
<g>
	<text transform="matrix(1 0 0 1 257.2047 706.4153)" class="st9 st10">B 0.75</text>
</g>
<rect x="356.3" y="467.8" class="st22" width="28.1" height="7.1"/>
<g>
	<text transform="matrix(1 0 0 1 358.2147 473.1969)" class="st9 st10">R/Gr 0.5</text>
</g>
<rect x="356.3" y="393.7" class="st22" width="28.1" height="7.1"/>
<g>
	<text transform="matrix(1 0 0 1 358.2147 399.088)" class="st9 st10">R/Gr 0.5</text>
</g>
<rect x="452.3" y="370.9" class="st22" width="28.1" height="7.1"/>
<g>
	<text transform="matrix(1 0 0 1 454.235 376.3262)" class="st9 st10">P/L 0.35</text>
</g>
<rect x="356.3" y="314" class="st22" width="28.1" height="7.1"/>
<g>
	<text transform="matrix(1 0 0 1 358.2147 319.3582)" class="st9 st10">R/Gr 0.5</text>
</g>
<g id="_x30_2-上针脚_14_">
	<line class="st21" x1="370.4" y1="489.4" x2="370.4" y2="497.6"/>
	<path class="st22" d="M370.3,486.3c-1.7,0-3,1.4-3,3c0,1.8,1.4,3.2,3,3.2c1.8,0,3.2-1.4,3.2-3.2
		C373.5,487.7,372.1,486.3,370.3,486.3"/>
	<path d="M370.3,486.8c-1.4,0-2.5,1.2-2.5,2.5c0,1.6,1.1,2.7,2.5,2.7v1.2c-2,0-3.7-1.6-3.7-3.8c0-2.1,1.7-3.7,3.7-3.7V486.8z
		 M370.3,493.2c2.2,0,3.8-1.7,3.8-3.8c0-2.1-1.6-3.7-3.8-3.7v1.1c1.6,0,2.7,1.2,2.7,2.5c0,1.6-1.2,2.7-2.7,2.7V493.2"/>
	<rect x="366.3" y="489.5" class="st22" width="8.1" height="4.1"/>
	<rect x="369.9" y="488.5" width="1" height="4.2"/>
	<rect x="369.9" y="488.5" class="st23" width="1" height="4.2"/>
</g>
<rect x="458.9" y="219.3" class="st22" width="15.9" height="7.1"/>
<g>
	<text transform="matrix(1 0 0 1 453.2961 224.6924)" class="st9 st10">W/R 0.35</text>
</g>
<rect x="458.9" y="291.2" class="st22" width="15.9" height="7.1"/>
<g>
	<text transform="matrix(1 0 0 1 453.2961 296.5965)" class="st9 st10">W/R 0.35</text>
</g>
<g id="_x30_2-上针脚_33_">
	<line class="st21" x1="467.1" y1="312.8" x2="467.1" y2="321"/>
	<path class="st22" d="M467,309.7c-1.7,0-3,1.4-3,3c0,1.8,1.4,3.2,3,3.2c1.8,0,3.2-1.4,3.2-3.2C470.2,311.1,468.8,309.7,467,309.7"
		/>
	<path d="M467.1,310.2c-1.4,0-2.5,1.2-2.5,2.5c0,1.6,1.1,2.7,2.5,2.7v1.2c-2,0-3.7-1.6-3.7-3.8c0-2.1,1.7-3.7,3.7-3.7V310.2z
		 M467.1,316.6c2.2,0,3.8-1.7,3.8-3.8s-1.6-3.7-3.8-3.7v1.1c1.6,0,2.7,1.2,2.7,2.5c0,1.6-1.2,2.7-2.7,2.7V316.6"/>
	<rect x="463.1" y="312.9" class="st22" width="8.1" height="4.1"/>
	<rect x="466.6" y="311.9" width="1" height="4.2"/>
	<rect x="466.6" y="311.9" class="st23" width="1" height="4.2"/>
</g>
<rect x="452.9" y="467.8" class="st22" width="28.1" height="7.1"/>
<g>
	<text transform="matrix(1 0 0 1 454.8172 473.1969)" class="st9 st10">P/L 0.35</text>
</g>
<g id="_x30_2-上针脚_22_">
	<line class="st21" x1="467" y1="489.4" x2="467" y2="497.6"/>
	<path class="st22" d="M466.9,486.3c-1.7,0-3,1.4-3,3c0,1.8,1.4,3.2,3,3.2c1.8,0,3.2-1.4,3.2-3.2
		C470.1,487.7,468.7,486.3,466.9,486.3"/>
	<path d="M466.9,486.8c-1.4,0-2.5,1.2-2.5,2.5c0,1.6,1.1,2.7,2.5,2.7v1.2c-2,0-3.7-1.6-3.7-3.8c0-2.1,1.7-3.7,3.7-3.7V486.8z
		 M466.9,493.2c2.2,0,3.8-1.7,3.8-3.8c0-2.1-1.6-3.7-3.8-3.7v1.1c1.6,0,2.7,1.2,2.7,2.5c0,1.6-1.2,2.7-2.7,2.7V493.2"/>
	<rect x="462.9" y="489.5" class="st22" width="8.1" height="4.1"/>
	<rect x="466.5" y="488.5" width="1" height="4.2"/>
	<rect x="466.5" y="488.5" class="st23" width="1" height="4.2"/>
</g>
<line class="st2" x1="141.6" y1="206.8" x2="141.6" y2="487.3"/>
<line class="st1" x1="141.6" y1="206.8" x2="141.6" y2="487.3"/>
<rect x="127.5" y="467.8" class="st22" width="28.1" height="7.1"/>
<g>
	<text transform="matrix(1 0 0 1 129.4293 473.1969)" class="st9 st10">B/R 0.75</text>
</g>
<rect x="127.5" y="219.3" class="st22" width="28.1" height="7.1"/>
<g>
	<text transform="matrix(1 0 0 1 129.4293 224.6924)" class="st9 st10">B/R 0.75</text>
</g>
<rect x="176.5" y="219.3" class="st22" width="10.9" height="7.1"/>
<g>
	<text transform="matrix(1 0 0 1 171.9323 224.6924)" class="st9 st10">B 0.35</text>
</g>
<rect x="176.7" y="314" class="st22" width="10.9" height="7.1"/>
<g>
	<text transform="matrix(1 0 0 1 174.5411 319.3583)" class="st9 st10">B 1.0</text>
</g>
<g id="_x30_2-上针脚_17_">
	<line class="st21" x1="141.6" y1="489.4" x2="141.6" y2="497.6"/>
	<path class="st22" d="M141.5,486.3c-1.7,0-3,1.4-3,3c0,1.8,1.4,3.2,3,3.2c1.8,0,3.2-1.4,3.2-3.2
		C144.7,487.7,143.3,486.3,141.5,486.3"/>
	<path d="M141.5,486.8c-1.4,0-2.5,1.2-2.5,2.5c0,1.6,1.1,2.7,2.5,2.7v1.2c-2,0-3.7-1.6-3.7-3.8c0-2.1,1.7-3.7,3.7-3.7V486.8z
		 M141.5,493.2c2.2,0,3.8-1.7,3.8-3.8c0-2.1-1.6-3.7-3.8-3.7v1.1c1.6,0,2.7,1.2,2.7,2.5c0,1.6-1.2,2.7-2.7,2.7V493.2"/>
	<rect x="137.5" y="489.5" class="st22" width="8.1" height="4.1"/>
	<rect x="141.1" y="488.5" width="1" height="4.2"/>
	<rect x="141.1" y="488.5" class="st23" width="1" height="4.2"/>
</g>
<g>
	<text transform="matrix(1 0 0 1 362.9025 502.544)" class="st9 st31">IG3 power supply</text>
</g>
<g>
	<text transform="matrix(1 0 0 1 243.783 502.544)" class="st9 st31">Water pump detection input</text>
</g>
<g>
	<text transform="matrix(1 0 0 1 170.6055 500.9312)" class="st9 st31">Water pump</text>
	<text transform="matrix(1 0 0 1 170.6055 505.7312)" class="st9 st31"> detection signal</text>
</g>
<g>
	<text transform="matrix(1 0 0 1 302.1164 502.544)" class="st9 st31">Water pump detection input</text>
</g>
<g>
	<text transform="matrix(1 0 0 1 134.5692 502.544)" class="st9 st31">IG3 power supply</text>
</g>
<rect x="403.3" y="467.8" class="st22" width="28.1" height="7.1"/>
<g>
	<text transform="matrix(1 0 0 1 405.2058 473.1969)" class="st9 st10">R/Gr 0.5</text>
</g>
<g>
	<text transform="matrix(1 0 0 1 375.9826 164.6004)" class="st9 st10">10A</text>
</g>
<g>
	<g>
		<path class="st19" d="M467,165.9c-1.2,0-2.2,1-2.2,2.2s1,2.2,2.2,2.2s2.2-1,2.2-2.2S468.2,165.9,467,165.9"/>
	</g>
	<g>
		<path class="st19" d="M467,150c-1.2,0-2.2,1-2.2,2.1c0,1.2,1,2.2,2.2,2.2s2.2-0.9,2.2-2.2C469.2,151,468.2,150,467,150"/>
	</g>
	<g>
		<g>
			<path class="st19" d="M465.5,153.8c-0.1,2.5,0.2,3.2,1.3,4.3c1.2,1.2,2.4,1.7,2.8,3.7c0.4,1.6-0.1,3.5-1.1,4.5"/>
		</g>
		<g>
			<path class="st19" d="M468.4,166.4c0.2-0.8,0-2.9-0.6-3.7c-0.9-1.2-2.7-2.1-3.3-4c-0.9-2.8,0.7-4.6,1.1-5"/>
		</g>
	</g>
</g>
<g>
	<g>
		<polyline class="st20" points="466.9,170.3 466.9,175.2 466.9,195.6 		"/>
	</g>
</g>
<g>
	<g>
		<polyline class="st20" points="466.9,149.9 466.9,140.8 466.9,56.9 		"/>
	</g>
</g>
<g>
	<path class="st28" d="M464.1,59c0-1.7,1.3-2.9,2.8-2.9c1.6,0,2.9,1.2,2.9,2.9c0,1.5-1.3,2.7-2.9,2.7
		C465.4,61.7,464.1,60.5,464.1,59z"/>
	<g>
		<path class="st29" d="M464.1,59c0-1.7,1.3-2.9,2.8-2.9c1.6,0,2.9,1.2,2.9,2.9c0,1.5-1.3,2.7-2.9,2.7
			C465.4,61.7,464.1,60.5,464.1,59"/>
	</g>
</g>
<g>
	<text transform="matrix(1 0 0 1 472.5541 164.6004)" class="st9 st10">5A</text>
</g>
<g>
	<g>
		<path class="st19" d="M527.1,165.9c-1.2,0-2.2,1-2.2,2.2s1,2.2,2.2,2.2s2.2-1,2.2-2.2S528.3,165.9,527.1,165.9"/>
	</g>
	<g>
		<path class="st19" d="M527.1,150c-1.2,0-2.2,1-2.2,2.1c0,1.2,1,2.2,2.2,2.2s2.2-0.9,2.2-2.2C529.3,151,528.3,150,527.1,150"/>
	</g>
	<g>
		<g>
			<path class="st19" d="M525.6,153.8c-0.1,2.5,0.2,3.2,1.3,4.3c1.2,1.2,2.4,1.7,2.8,3.7c0.4,1.6-0.1,3.5-1.1,4.5"/>
		</g>
		<g>
			<path class="st19" d="M528.5,166.4c0.2-0.8,0-2.9-0.6-3.7c-0.9-1.2-2.7-2.1-3.3-4c-0.9-2.8,0.7-4.6,1.1-5"/>
		</g>
	</g>
</g>
<g>
	<g>
		<polyline class="st20" points="527,170.3 527,175.2 527,195.6 		"/>
	</g>
</g>
<g>
	<g>
		<polyline class="st20" points="527,149.9 527,140.8 527,45.6 		"/>
	</g>
</g>
<g>
	<path class="st28" d="M524.2,47.7c0-1.7,1.3-2.9,2.8-2.9c1.6,0,2.9,1.2,2.9,2.9c0,1.5-1.3,2.7-2.9,2.7
		C525.5,50.4,524.2,49.2,524.2,47.7z"/>
	<g>
		<path class="st29" d="M524.2,47.7c0-1.7,1.3-2.9,2.8-2.9c1.6,0,2.9,1.2,2.9,2.9c0,1.5-1.3,2.7-2.9,2.7
			C525.5,50.4,524.2,49.2,524.2,47.7"/>
	</g>
</g>
<g>
	<text transform="matrix(1 0 0 1 532.6667 164.6004)" class="st9 st10">60A</text>
</g>
<g>
	<g>
		<path class="st19" d="M623.8,165.9c-1.2,0-2.2,1-2.2,2.2s1,2.2,2.2,2.2s2.2-1,2.2-2.2C626.1,166.9,625.1,165.9,623.8,165.9"/>
	</g>
	<g>
		<path class="st19" d="M623.8,150c-1.2,0-2.2,1-2.2,2.1c0,1.2,1,2.2,2.2,2.2s2.2-0.9,2.2-2.2C626.1,151,625.1,150,623.8,150"/>
	</g>
	<g>
		<g>
			<path class="st19" d="M622.4,153.8c-0.1,2.5,0.2,3.2,1.3,4.3c1.2,1.2,2.4,1.7,2.8,3.7c0.4,1.6-0.1,3.5-1.1,4.5"/>
		</g>
		<g>
			<path class="st19" d="M625.3,166.4c0.2-0.8,0-2.9-0.6-3.7c-0.9-1.2-2.7-2.1-3.3-4c-0.9-2.8,0.7-4.6,1.1-5"/>
		</g>
	</g>
</g>
<g>
	<g>
		<polyline class="st20" points="623.8,170.3 623.8,175.2 623.8,195.6 		"/>
	</g>
</g>
<g>
	<g>
		<polyline class="st20" points="623.8,149.9 623.8,140.8 623.8,45.6 		"/>
	</g>
</g>
<g>
	<path class="st28" d="M620.9,47.7c0-1.7,1.3-2.9,2.8-2.9c1.6,0,2.9,1.2,2.9,2.9c0,1.5-1.3,2.7-2.9,2.7
		C622.2,50.4,620.9,49.2,620.9,47.7z"/>
	<g>
		<path class="st29" d="M620.9,47.7c0-1.7,1.3-2.9,2.8-2.9c1.6,0,2.9,1.2,2.9,2.9c0,1.5-1.3,2.7-2.9,2.7
			C622.2,50.4,620.9,49.2,620.9,47.7"/>
	</g>
</g>
<g>
	<text transform="matrix(1 0 0 1 629.4143 164.6004)" class="st9 st10">5A</text>
</g>
<g>
	<g>
		<path class="st19" d="M292,165.9c-1.2,0-2.2,1-2.2,2.2s1,2.2,2.2,2.2s2.2-1,2.2-2.2C294.3,166.9,293.3,165.9,292,165.9"/>
	</g>
	<g>
		<path class="st19" d="M292,150c-1.2,0-2.2,1-2.2,2.1c0,1.2,1,2.2,2.2,2.2s2.2-0.9,2.2-2.2C294.3,151,293.3,150,292,150"/>
	</g>
	<g>
		<g>
			<path class="st19" d="M290.6,153.8c-0.1,2.5,0.2,3.2,1.3,4.3c1.2,1.2,2.4,1.7,2.8,3.7c0.4,1.6-0.1,3.5-1.1,4.5"/>
		</g>
		<g>
			<path class="st19" d="M293.4,166.4c0.2-0.8,0-2.9-0.6-3.7c-0.9-1.2-2.7-2.1-3.3-4c-0.9-2.8,0.7-4.6,1.1-5"/>
		</g>
	</g>
</g>
<g>
	<g>
		<polyline class="st20" points="292,149.9 292,140.8 292,45.6 		"/>
	</g>
</g>
<g>
	<path class="st28" d="M289.1,47.7c0-1.7,1.3-2.9,2.8-2.9c1.6,0,2.9,1.2,2.9,2.9c0,1.5-1.3,2.7-2.9,2.7
		C290.4,50.4,289.1,49.2,289.1,47.7z"/>
	<g>
		<path class="st29" d="M289.1,47.7c0-1.7,1.3-2.9,2.8-2.9c1.6,0,2.9,1.2,2.9,2.9c0,1.5-1.3,2.7-2.9,2.7
			C290.4,50.4,289.1,49.2,289.1,47.7"/>
	</g>
</g>
<g>
	<text transform="matrix(1 0 0 1 297.5967 164.6004)" class="st9 st10">15A</text>
</g>
<g id="_x30_2-上针脚_18_">
	<line class="st21" x1="141.3" y1="203.8" x2="141.3" y2="195.6"/>
	<path class="st22" d="M141.2,206.9c-1.7,0-3-1.4-3-3c0-1.8,1.4-3.2,3-3.2c1.8,0,3.2,1.4,3.2,3.2C144.4,205.5,143,206.9,141.2,206.9
		"/>
	<path d="M141.2,207.5c-2,0-3.7-1.6-3.7-3.7c0-2.2,1.7-3.8,3.7-3.8v1.2c-1.4,0-2.5,1.1-2.5,2.7c0,1.3,1.1,2.5,2.5,2.5V207.5z
		 M141.2,200v1.2c1.5,0,2.7,1.1,2.7,2.7c0,1.3-1.1,2.5-2.7,2.5v1.1c2.2,0,3.8-1.6,3.8-3.7C145,201.7,143.4,200,141.2,200"/>
	<rect x="137.2" y="199.6" class="st22" width="8.1" height="4.1"/>
	<rect x="140.8" y="200.5" width="1" height="4.2"/>
	<rect x="140.8" y="200.5" class="st23" width="1" height="4.2"/>
</g>
<g id="_x30_2-上针脚_19_">
	<line class="st21" x1="182.1" y1="203.8" x2="182.1" y2="195.6"/>
	<path class="st22" d="M182,206.9c-1.7,0-3-1.4-3-3c0-1.8,1.4-3.2,3-3.2c1.8,0,3.2,1.4,3.2,3.2C185.2,205.5,183.8,206.9,182,206.9"
		/>
	<path d="M182,207.5c-2,0-3.7-1.6-3.7-3.7c0-2.2,1.7-3.8,3.7-3.8v1.2c-1.4,0-2.5,1.1-2.5,2.7c0,1.3,1.1,2.5,2.5,2.5V207.5z M182,200
		v1.2c1.5,0,2.7,1.1,2.7,2.7c0,1.3-1.1,2.5-2.7,2.5v1.1c2.2,0,3.8-1.6,3.8-3.7C185.8,201.7,184.2,200,182,200"/>
	<rect x="178" y="199.6" class="st22" width="8.1" height="4.1"/>
	<rect x="181.6" y="200.5" width="1" height="4.2"/>
	<rect x="181.6" y="200.5" class="st23" width="1" height="4.2"/>
</g>
<g id="_x30_2-上针脚_20_">
	<line class="st21" x1="237.3" y1="203.8" x2="237.3" y2="195.6"/>
	<path class="st22" d="M237.2,206.9c-1.7,0-3-1.4-3-3c0-1.8,1.4-3.2,3-3.2c1.8,0,3.2,1.4,3.2,3.2C240.4,205.5,239,206.9,237.2,206.9
		"/>
	<path d="M237.2,207.5c-2,0-3.7-1.6-3.7-3.7c0-2.2,1.7-3.8,3.7-3.8v1.2c-1.4,0-2.5,1.1-2.5,2.7c0,1.3,1.1,2.5,2.5,2.5V207.5z
		 M237.2,200v1.2c1.5,0,2.7,1.1,2.7,2.7c0,1.3-1.1,2.5-2.7,2.5v1.1c2.2,0,3.8-1.6,3.8-3.7C241,201.7,239.4,200,237.2,200"/>
	<rect x="233.2" y="199.6" class="st22" width="8.1" height="4.1"/>
	<rect x="236.8" y="200.5" width="1" height="4.2"/>
	<rect x="236.8" y="200.5" class="st23" width="1" height="4.2"/>
</g>
<g>
	<rect x="817.9" y="546.9" class="st22" width="12.1" height="6"/>
	<g>
		<text transform="matrix(1 0 0 1 815.7303 551.8995)" class="st9 st10">P 0.35</text>
	</g>
</g>
<g>
	<rect x="872.4" y="546.9" class="st22" width="13.5" height="6"/>
	<g>
		<text transform="matrix(1 0 0 1 872.3887 551.9001)" class="st9 st10">V 0.35</text>
	</g>
</g>
<g id="参见ECAN系统电路图_2_">
	<g id="参见ECAN系统电路图_4_">
		<text transform="matrix(1 0 0 1 800.4387 740.786)" class="st9 st10">See Energy Network Circuit Diagram</text>
	</g>
</g>
<rect x="271.9" y="586.7" class="st8" width="25.3" height="5.6"/>
<text transform="matrix(1 0 0 1 272.5974 591.6117)" class="st9 st10">SP1000</text>
<rect x="271.9" y="586.7" class="st8" width="25.3" height="5.6"/>
<text transform="matrix(1 0 0 1 272.5974 591.6117)" class="st9 st10">SP3316</text>
<path class="st7" d="M373.2,440.8c-0.2,1.5-1.4,2.5-2.8,2.5c-1.6,0-2.9-1.2-2.9-2.9c0-1.6,1.4-2.9,3.2-2.7
	C372.2,437.9,373.3,439.3,373.2,440.8z"/>
<rect x="373.2" y="430.7" class="st8" width="25.3" height="5.6"/>
<text transform="matrix(1 0 0 1 373.8979 435.5359)" class="st9 st10">SP1000</text>
<rect x="373.2" y="430.7" class="st8" width="25.3" height="5.6"/>
<text transform="matrix(1 0 0 1 373.8979 435.5359)" class="st9 st10">SP3221</text>
<polyline class="st2" points="313.3,487.3 313.3,440.5 266.8,440.5 "/>
<polyline class="st3" points="313.3,487.3 313.3,440.5 266.8,440.5 "/>
<polyline class="st2" points="266.3,487.3 266.3,380.5 187.9,380.5 187.9,487.3 "/>
<polyline class="st3" points="266.3,487.3 266.3,380.5 187.9,380.5 187.9,487.3 "/>
<g id="_x30_2-上针脚_15_">
	<line class="st21" x1="313.2" y1="489.4" x2="313.2" y2="497.6"/>
	<path class="st22" d="M313.1,486.3c-1.7,0-3,1.4-3,3c0,1.8,1.4,3.2,3,3.2c1.8,0,3.2-1.4,3.2-3.2
		C316.3,487.7,314.9,486.3,313.1,486.3"/>
	<path d="M313.2,486.8c-1.4,0-2.5,1.2-2.5,2.5c0,1.6,1.1,2.7,2.5,2.7v1.2c-2,0-3.7-1.6-3.7-3.8c0-2.1,1.7-3.7,3.7-3.7V486.8z
		 M313.2,493.2c2.2,0,3.8-1.7,3.8-3.8c0-2.1-1.6-3.7-3.8-3.7v1.1c1.6,0,2.7,1.2,2.7,2.5c0,1.6-1.2,2.7-2.7,2.7V493.2"/>
	<rect x="309.2" y="489.5" class="st22" width="8.1" height="4.1"/>
	<rect x="312.7" y="488.5" width="1" height="4.2"/>
	<rect x="312.7" y="488.5" class="st23" width="1" height="4.2"/>
</g>
<rect x="252.3" y="467.8" class="st22" width="28.1" height="7.1"/>
<g>
	<text transform="matrix(1 0 0 1 254.1935 473.1969)" class="st9 st10">B/L 0.35</text>
</g>
<rect x="176" y="467.8" class="st22" width="28.1" height="7.1"/>
<g>
	<text transform="matrix(1 0 0 1 177.8861 473.1969)" class="st9 st10">B/L 0.35</text>
</g>
<rect x="252.3" y="393.7" class="st22" width="28.1" height="7.1"/>
<g>
	<text transform="matrix(1 0 0 1 254.1935 399.088)" class="st9 st10">B/L 0.35</text>
</g>
<g id="_x30_2-上针脚_8_">
	<line class="st21" x1="266.3" y1="489.4" x2="266.3" y2="497.6"/>
	<path class="st22" d="M266.2,486.3c-1.7,0-3,1.4-3,3c0,1.8,1.4,3.2,3,3.2c1.8,0,3.2-1.4,3.2-3.2C269.4,487.7,268,486.3,266.2,486.3
		"/>
	<path d="M266.3,486.8c-1.4,0-2.5,1.2-2.5,2.5c0,1.6,1.1,2.7,2.5,2.7v1.2c-2,0-3.7-1.6-3.7-3.8c0-2.1,1.7-3.7,3.7-3.7V486.8z
		 M266.3,493.2c2.2,0,3.8-1.7,3.8-3.8c0-2.1-1.6-3.7-3.8-3.7v1.1c1.6,0,2.7,1.2,2.7,2.5c0,1.6-1.2,2.7-2.7,2.7V493.2"/>
	<rect x="262.3" y="489.5" class="st22" width="8.1" height="4.1"/>
	<rect x="265.8" y="488.5" width="1" height="4.2"/>
	<rect x="265.8" y="488.5" class="st23" width="1" height="4.2"/>
</g>
<g id="_x30_2-上针脚_16_">
	<line class="st21" x1="187.9" y1="489.4" x2="187.9" y2="497.6"/>
	<path class="st22" d="M187.8,486.3c-1.7,0-3,1.4-3,3c0,1.8,1.4,3.2,3,3.2c1.8,0,3.2-1.4,3.2-3.2C191,487.7,189.6,486.3,187.8,486.3
		"/>
	<path d="M187.9,486.8c-1.4,0-2.5,1.2-2.5,2.5c0,1.6,1.1,2.7,2.5,2.7v1.2c-2,0-3.7-1.6-3.7-3.8c0-2.1,1.7-3.7,3.7-3.7V486.8z
		 M187.9,493.2c2.2,0,3.8-1.7,3.8-3.8c0-2.1-1.6-3.7-3.8-3.7v1.1c1.6,0,2.7,1.2,2.7,2.5c0,1.6-1.2,2.7-2.7,2.7V493.2"/>
	<rect x="183.9" y="489.5" class="st22" width="8.1" height="4.1"/>
	<rect x="187.4" y="488.5" width="1" height="4.2"/>
	<rect x="187.4" y="488.5" class="st23" width="1" height="4.2"/>
</g>
<g>
	<text transform="matrix(1 0 0 1 453.8051 502.544)" class="st9 st31">Cooling fan speed control signal </text>
</g>
<g>
	<text transform="matrix(1 0 0 1 453.8051 345.587)" class="st9 st31">Cooling fan speed control signal </text>
</g>
<g>
	<text transform="matrix(1 0 0 1 523.815 345.587)" class="st9 st31">Ground</text>
</g>
<g>
	<text transform="matrix(1 0 0 1 702.9788 345.587)" class="st9 st31">Ground</text>
</g>
<g>
	<text transform="matrix(1 0 0 1 747.4788 345.587)" class="st9 st31">signal </text>
</g>
<g>
	<text transform="matrix(1 0 0 1 692.8954 501.7108)" class="st9 st31"> water temperature </text>
	<text transform="matrix(1 0 0 1 692.8954 506.5108)" class="st9 st31">sensor of front </text>
	<text transform="matrix(1 0 0 1 692.8954 511.3108)" class="st9 st31">drive motor ground</text>
</g>
<g>
	<text transform="matrix(1 0 0 1 739.7288 501.7108)" class="st9 st31">water temperature </text>
	<text transform="matrix(1 0 0 1 739.7288 506.5108)" class="st9 st31">sensor of front </text>
	<text transform="matrix(1 0 0 1 739.7288 511.3108)" class="st9 st31">drive motor  signal </text>
</g>
<g>
	<text transform="matrix(1 0 0 1 678.8538 516.6049)" class="st9 st31">water temperature </text>
	<text transform="matrix(1 0 0 1 678.8538 521.4049)" class="st9 st31">sensor of battery pack ground</text>
</g>
<g>
	<text transform="matrix(1 0 0 1 740.6871 517.605)" class="st9 st31">water temperature </text>
	<text transform="matrix(1 0 0 1 740.6871 522.405)" class="st9 st31">sensor of battery pack signal </text>
</g>
<g>
	<text transform="matrix(1 0 0 1 458.3884 325.9203)" class="st9 st31">IG1 power supply</text>
</g>
<g>
	<text transform="matrix(1 0 0 1 515.1466 325.9203)" class="st9 st31">Constant power</text>
</g>
<rect x="299.3" y="467.8" class="st22" width="28.1" height="7.1"/>
<g>
	<text transform="matrix(1 0 0 1 301.1846 473.1969)" class="st9 st10">B/L 0.35</text>
</g>
<path class="st7" d="M269.1,440.8c-0.2,1.5-1.4,2.5-2.8,2.5c-1.6,0-2.9-1.2-2.9-2.9c0-1.6,1.4-2.9,3.2-2.7
	C268.1,437.9,269.3,439.3,269.1,440.8z"/>
<rect x="269.2" y="430.7" class="st8" width="25.3" height="5.6"/>
<text transform="matrix(1 0 0 1 269.8768 435.5359)" class="st9 st10">SP1000</text>
<rect x="269.2" y="430.7" class="st8" width="25.3" height="5.6"/>
<text transform="matrix(1 0 0 1 269.8768 435.5359)" class="st9 st10">SP3220</text>
<path class="st7" d="M144.1,440.8c-0.2,1.5-1.4,2.5-2.8,2.5c-1.6,0-2.9-1.2-2.9-2.9c0-1.6,1.4-2.9,3.2-2.7
	C143.1,437.9,144.3,439.3,144.1,440.8z"/>
<rect x="146" y="437.7" class="st8" width="25.3" height="5.6"/>
<text transform="matrix(1 0 0 1 146.7582 442.6173)" class="st9 st10">SP1000</text>
<rect x="146" y="437.7" class="st8" width="25.3" height="5.6"/>
<text transform="matrix(1 0 0 1 146.7582 442.6173)" class="st9 st10">SP3222</text>
<path class="st7" d="M373.2,259.2c-0.2,1.5-1.4,2.5-2.8,2.5c-1.6,0-2.9-1.2-2.9-2.9c0-1.6,1.4-2.9,3.2-2.7
	C372.2,256.2,373.3,257.7,373.2,259.2z"/>
<rect x="375.1" y="256.1" class="st8" width="25.3" height="5.6"/>
<text transform="matrix(1 0 0 1 375.806 260.9755)" class="st9 st10">SP1000</text>
<rect x="375.1" y="256.1" class="st8" width="25.3" height="5.6"/>
<text transform="matrix(1 0 0 1 375.806 260.9755)" class="st9 st10">SP3215</text>
<path class="st7" d="M185,259.2c-0.2,1.5-1.4,2.5-2.8,2.5c-1.6,0-2.9-1.2-2.9-2.9c0-1.6,1.4-2.9,3.2-2.7
	C184,256.2,185.1,257.7,185,259.2z"/>
<rect x="187.2" y="256.1" class="st8" width="25.3" height="5.6"/>
<text transform="matrix(1 0 0 1 187.9236 260.9755)" class="st9 st10">SP1000</text>
<rect x="187.2" y="256.1" class="st8" width="25.3" height="5.6"/>
<text transform="matrix(1 0 0 1 187.9236 260.9755)" class="st9 st10">SP2777</text>
<path class="st7" d="M627.1,392.7c-0.2,1.5-1.4,2.5-2.8,2.5c-1.6,0-2.9-1.2-2.9-2.9c0-1.6,1.4-2.9,3.2-2.7
	C626.1,389.8,627.3,391.2,627.1,392.7z"/>
<rect x="629.5" y="389.7" class="st8" width="25.3" height="5.6"/>
<text transform="matrix(1 0 0 1 630.1682 394.535)" class="st9 st10">SP1000</text>
<rect x="629.5" y="389.7" class="st8" width="25.3" height="5.6"/>
<text transform="matrix(1 0 0 1 630.1682 394.535)" class="st9 st10">SP1636</text>
<g id="_x30_2-上针脚_36_">
	<line class="st21" x1="527" y1="203.8" x2="527" y2="195.6"/>
	<path class="st22" d="M526.9,206.9c-1.7,0-3-1.4-3-3c0-1.8,1.4-3.2,3-3.2c1.8,0,3.2,1.4,3.2,3.2
		C530.1,205.5,528.7,206.9,526.9,206.9"/>
	<path d="M527,207.5c-2,0-3.7-1.6-3.7-3.7c0-2.2,1.7-3.8,3.7-3.8v1.2c-1.4,0-2.5,1.1-2.5,2.7c0,1.3,1.1,2.5,2.5,2.5V207.5z M527,200
		v1.2c1.5,0,2.7,1.1,2.7,2.7c0,1.3-1.1,2.5-2.7,2.5v1.1c2.2,0,3.8-1.6,3.8-3.7C530.8,201.7,529.2,200,527,200"/>
	<rect x="523" y="199.6" class="st22" width="8.1" height="4.1"/>
	<rect x="526.5" y="200.5" width="1" height="4.2"/>
	<rect x="526.5" y="200.5" class="st23" width="1" height="4.2"/>
</g>
<rect x="518.7" y="291.2" class="st22" width="15.9" height="7.1"/>
<g>
	<text transform="matrix(1 0 0 1 518.919 296.5964)" class="st9 st10">R 6.0</text>
</g>
<rect x="519.2" y="219.3" class="st22" width="15.9" height="7.1"/>
<g>
	<text transform="matrix(1 0 0 1 519.3983 224.6924)" class="st9 st10">R 6.0</text>
</g>
<g id="_x30_2-上针脚_35_">
	<line class="st21" x1="527.2" y1="312.8" x2="527.2" y2="321"/>
	<path class="st22" d="M527.1,309.7c-1.7,0-3,1.4-3,3c0,1.8,1.4,3.2,3,3.2c1.8,0,3.2-1.4,3.2-3.2
		C530.3,311.1,528.9,309.7,527.1,309.7"/>
	<path d="M527.2,310.2c-1.4,0-2.5,1.2-2.5,2.5c0,1.6,1.1,2.7,2.5,2.7v1.2c-2,0-3.7-1.6-3.7-3.8c0-2.1,1.7-3.7,3.7-3.7V310.2z
		 M527.2,316.6c2.2,0,3.8-1.7,3.8-3.8s-1.6-3.7-3.8-3.7v1.1c1.6,0,2.7,1.2,2.7,2.5c0,1.6-1.2,2.7-2.7,2.7V316.6"/>
	<rect x="523.1" y="312.9" class="st22" width="8.1" height="4.1"/>
	<rect x="526.7" y="311.9" width="1" height="4.2"/>
	<rect x="526.7" y="311.9" class="st23" width="1" height="4.2"/>
</g>
<line class="st6" x1="623.4" y1="206.4" x2="623.4" y2="310.7"/>
<g id="_x30_2-上针脚_40_">
	<line class="st21" x1="623.8" y1="203.8" x2="623.8" y2="195.6"/>
	<path class="st22" d="M623.7,206.9c-1.7,0-3-1.4-3-3c0-1.8,1.4-3.2,3-3.2c1.8,0,3.2,1.4,3.2,3.2
		C626.9,205.5,625.5,206.9,623.7,206.9"/>
	<path d="M623.7,207.5c-2,0-3.7-1.6-3.7-3.7c0-2.2,1.7-3.8,3.7-3.8v1.2c-1.4,0-2.5,1.1-2.5,2.7c0,1.3,1.1,2.5,2.5,2.5V207.5z
		 M623.7,200v1.2c1.5,0,2.7,1.1,2.7,2.7c0,1.3-1.1,2.5-2.7,2.5v1.1c2.2,0,3.8-1.6,3.8-3.7C627.5,201.7,625.9,200,623.7,200"/>
	<rect x="619.7" y="199.6" class="st22" width="8.1" height="4.1"/>
	<rect x="623.3" y="200.5" width="1" height="4.2"/>
	<rect x="623.3" y="200.5" class="st23" width="1" height="4.2"/>
</g>
<rect x="615.5" y="291.2" class="st22" width="15.9" height="7.1"/>
<g>
	<text transform="matrix(1 0 0 1 613.8851 296.5964)" class="st9 st10">R 0.35</text>
</g>
<rect x="615.5" y="217.6" class="st22" width="15.9" height="7.1"/>
<g>
	<text transform="matrix(1 0 0 1 613.8851 222.9673)" class="st9 st10">R 0.35</text>
</g>
<g id="_x30_2-上针脚_39_">
	<line class="st21" x1="623.9" y1="312.8" x2="623.9" y2="321"/>
	<path class="st22" d="M623.8,309.7c-1.7,0-3,1.4-3,3c0,1.8,1.4,3.2,3,3.2c1.8,0,3.2-1.4,3.2-3.2C627,311.1,625.6,309.7,623.8,309.7
		"/>
	<path d="M623.9,310.2c-1.4,0-2.5,1.2-2.5,2.5c0,1.6,1.1,2.7,2.5,2.7v1.2c-2,0-3.7-1.6-3.7-3.8c0-2.1,1.7-3.7,3.7-3.7V310.2z
		 M623.9,316.6c2.2,0,3.8-1.7,3.8-3.8s-1.6-3.7-3.8-3.7v1.1c1.6,0,2.7,1.2,2.7,2.5c0,1.6-1.2,2.7-2.7,2.7V316.6"/>
	<rect x="619.9" y="312.9" class="st22" width="8.1" height="4.1"/>
	<rect x="623.4" y="311.9" width="1" height="4.2"/>
	<rect x="623.4" y="311.9" class="st23" width="1" height="4.2"/>
</g>
<g>
	<text transform="matrix(1 0 0 1 309.1551 521.8643)" class="st9 st31">Ground</text>
</g>
<g>
	<text transform="matrix(1 0 0 1 261.9037 521.8634)" class="st9 st31">Ground</text>
</g>
<line class="st2" x1="187.7" y1="779.4" x2="187.7" y2="534.3"/>
<g id="_x30_2-上针脚_21_">
	<line class="st21" x1="187.7" y1="531.7" x2="187.7" y2="523.5"/>
	<path class="st22" d="M187.6,534.8c-1.7,0-3-1.4-3-3c0-1.8,1.4-3.2,3-3.2c1.8,0,3.2,1.4,3.2,3.2
		C190.8,533.4,189.4,534.8,187.6,534.8"/>
	<path d="M187.7,535.4c-2,0-3.7-1.6-3.7-3.7c0-2.2,1.7-3.8,3.7-3.8v1.2c-1.4,0-2.5,1.1-2.5,2.7c0,1.3,1.1,2.5,2.5,2.5V535.4z
		 M187.7,527.9v1.2c1.5,0,2.7,1.1,2.7,2.7c0,1.3-1.1,2.5-2.7,2.5v1.1c2.2,0,3.8-1.6,3.8-3.7S189.9,527.9,187.7,527.9"/>
	<rect x="183.7" y="527.5" class="st22" width="8.1" height="4.1"/>
	<rect x="187.2" y="528.4" width="1" height="4.2"/>
	<rect x="187.2" y="528.4" class="st23" width="1" height="4.2"/>
</g>
<rect x="173.7" y="546.4" class="st22" width="28.1" height="7.1"/>
<g>
	<text transform="matrix(1 0 0 1 180.1535 551.7615)" class="st9 st10">B 0.5</text>
</g>
<rect x="173.7" y="546.4" class="st22" width="28.1" height="7.1"/>
<g>
	<text transform="matrix(1 0 0 1 180.1537 551.7615)" class="st9 st10">B 0.5</text>
</g>
<g>
	<text transform="matrix(1 0 0 1 182.9859 521.8634)" class="st9 st31">Ground</text>
</g>
<g>
	<rect x="256.4" y="786.6" class="st22" width="20.3" height="8.2"/>
	<rect x="256.7" y="787" class="st36" width="19.7" height="7.6"/>
</g>
<g>
	<g>
		<line class="st30" x1="520.7" y1="467.2" x2="534.6" y2="467.2"/>
	</g>
	<g>
		<line class="st30" x1="523.6" y1="469.4" x2="531.7" y2="469.4"/>
	</g>
	<g>
		<line class="st30" x1="530.1" y1="471.5" x2="525.2" y2="471.5"/>
	</g>
</g>
<g>
	<rect x="517.5" y="474.5" class="st22" width="20.3" height="8.2"/>
	<rect x="517.8" y="474.8" class="st36" width="19.7" height="7.6"/>
</g>
<g>
	<g>
		<line class="st30" x1="180.3" y1="779.4" x2="194.2" y2="779.4"/>
	</g>
	<g>
		<line class="st30" x1="183.2" y1="781.6" x2="191.3" y2="781.6"/>
	</g>
	<g>
		<line class="st30" x1="189.7" y1="783.7" x2="184.8" y2="783.7"/>
	</g>
</g>
<g>
	<rect x="177.1" y="786.6" class="st22" width="20.3" height="8.2"/>
	<rect x="177.4" y="787" class="st36" width="19.7" height="7.6"/>
</g>
<g>
	<g>
		<line class="st30" x1="174.9" y1="351.1" x2="188.8" y2="351.1"/>
	</g>
	<g>
		<line class="st30" x1="177.8" y1="353.3" x2="185.9" y2="353.3"/>
	</g>
	<g>
		<line class="st30" x1="184.3" y1="355.4" x2="179.4" y2="355.4"/>
	</g>
</g>
<g>
	<rect x="171.7" y="358.4" class="st22" width="20.3" height="8.2"/>
	<rect x="172" y="358.7" class="st36" width="19.7" height="7.6"/>
</g>
<g>
	<rect x="366" y="356.3" class="st22" width="8.5" height="19"/>
	<g>
		<g>
			<line class="st21" x1="370.2" y1="375.1" x2="370.2" y2="366.9"/>
			<path class="st22" d="M370.1,363.8c1.8,0,3.2,1.4,3.2,3c0,1.8-1.4,3.2-3.2,3.2c-1.6,0-3-1.4-3-3.2
				C367.1,365.2,368.4,363.8,370.1,363.8"/>
			<path d="M370.2,364.3c-1.4,0-2.5,1.2-2.5,2.5c0,1.6,1.1,2.7,2.5,2.7v1.2c-2,0-3.7-1.6-3.7-3.8c0-2.1,1.7-3.7,3.7-3.7V364.3z
				 M370.2,370.7c2.2,0,3.8-1.7,3.8-3.8s-1.6-3.7-3.8-3.7v1.1c1.6,0,2.7,1.2,2.7,2.5c0,1.6-1.2,2.7-2.7,2.7V370.7"/>
			<rect x="366.2" y="367" class="st22" width="8.1" height="4.1"/>
			<rect x="369.7" y="366" width="1" height="4.2"/>
			<rect x="369.7" y="366" class="st23" width="1" height="4.2"/>
		</g>
		<line class="st37" x1="370.2" y1="363.2" x2="370.2" y2="356.7"/>
	</g>
</g>
<g>
	<rect x="462.5" y="426.4" class="st22" width="8.5" height="19"/>
	<g>
		<g>
			<line class="st21" x1="466.8" y1="445.2" x2="466.8" y2="437"/>
			<path class="st22" d="M466.7,433.9c1.8,0,3.2,1.4,3.2,3c0,1.8-1.4,3.2-3.2,3.2c-1.6,0-3-1.4-3-3.2
				C463.7,435.3,465,433.9,466.7,433.9"/>
			<path d="M466.7,434.4c-1.4,0-2.5,1.2-2.5,2.5c0,1.6,1.1,2.7,2.5,2.7v1.2c-2,0-3.7-1.6-3.7-3.8c0-2.1,1.7-3.7,3.7-3.7V434.4z
				 M466.7,440.8c2.2,0,3.8-1.7,3.8-3.8c0-2.1-1.6-3.7-3.8-3.7v1.1c1.6,0,2.7,1.2,2.7,2.5c0,1.6-1.2,2.7-2.7,2.7V440.8"/>
			<rect x="462.7" y="437.1" class="st22" width="8.1" height="4.1"/>
			<rect x="466.3" y="436.1" width="1" height="4.2"/>
			<rect x="466.3" y="436.1" class="st23" width="1" height="4.2"/>
		</g>
		<line class="st37" x1="466.8" y1="433.3" x2="466.8" y2="426.8"/>
	</g>
</g>
<rect x="610.2" y="370.9" class="st22" width="28.1" height="7.1"/>
<g>
	<text transform="matrix(1 0 0 1 610.9081 376.3262)" class="st9 st10">W/B 0.35</text>
</g>
<rect x="610.2" y="409.4" class="st22" width="28.1" height="7.1"/>
<g>
	<text transform="matrix(1 0 0 1 610.9081 414.8262)" class="st9 st10">W/B 0.35</text>
</g>
<rect x="610.2" y="467.8" class="st22" width="28.1" height="7.1"/>
<g>
	<text transform="matrix(1 0 0 1 610.9082 473.1969)" class="st9 st10">W/B 0.35</text>
</g>
<g id="_x30_2-上针脚_37_">
	<line class="st21" x1="624.1" y1="489.4" x2="624.1" y2="497.6"/>
	<path class="st22" d="M624,486.3c-1.7,0-3,1.4-3,3c0,1.8,1.4,3.2,3,3.2c1.8,0,3.2-1.4,3.2-3.2C627.2,487.7,625.8,486.3,624,486.3"
		/>
	<path d="M624,486.8c-1.4,0-2.5,1.2-2.5,2.5c0,1.6,1.1,2.7,2.5,2.7v1.2c-2,0-3.7-1.6-3.7-3.8c0-2.1,1.7-3.7,3.7-3.7V486.8z
		 M624,493.2c2.2,0,3.8-1.7,3.8-3.8c0-2.1-1.6-3.7-3.8-3.7v1.1c1.6,0,2.7,1.2,2.7,2.5c0,1.6-1.2,2.7-2.7,2.7V493.2"/>
	<rect x="620" y="489.5" class="st22" width="8.1" height="4.1"/>
	<rect x="623.6" y="488.5" width="1" height="4.2"/>
	<rect x="623.6" y="488.5" class="st23" width="1" height="4.2"/>
</g>
<g>
	<rect x="619.7" y="426.4" class="st22" width="8.5" height="19"/>
	<g>
		<g>
			<line class="st21" x1="623.9" y1="445.2" x2="623.9" y2="437"/>
			<path class="st22" d="M623.8,433.9c1.8,0,3.2,1.4,3.2,3c0,1.8-1.4,3.2-3.2,3.2c-1.6,0-3-1.4-3-3.2
				C620.8,435.3,622.1,433.9,623.8,433.9"/>
			<path d="M623.9,434.4c-1.4,0-2.5,1.2-2.5,2.5c0,1.6,1.1,2.7,2.5,2.7v1.2c-2,0-3.7-1.6-3.7-3.8c0-2.1,1.7-3.7,3.7-3.7V434.4z
				 M623.9,440.8c2.2,0,3.8-1.7,3.8-3.8c0-2.1-1.6-3.7-3.8-3.7v1.1c1.6,0,2.7,1.2,2.7,2.5c0,1.6-1.2,2.7-2.7,2.7V440.8"/>
			<rect x="619.9" y="437.1" class="st22" width="8.1" height="4.1"/>
			<rect x="623.4" y="436.1" width="1" height="4.2"/>
			<rect x="623.4" y="436.1" class="st23" width="1" height="4.2"/>
		</g>
		<line class="st37" x1="623.9" y1="433.3" x2="623.9" y2="426.8"/>
	</g>
</g>
<line class="st2" x1="527.6" y1="357.9" x2="527.6" y2="467.2"/>
<g id="_x30_2-上针脚_32_">
	<line class="st21" x1="527.6" y1="355.3" x2="527.6" y2="347.1"/>
	<path class="st22" d="M527.5,358.4c-1.7,0-3-1.4-3-3c0-1.8,1.4-3.2,3-3.2c1.8,0,3.2,1.4,3.2,3.2C530.7,357,529.3,358.4,527.5,358.4
		"/>
	<path d="M527.5,359c-2,0-3.7-1.6-3.7-3.7c0-2.2,1.7-3.8,3.7-3.8v1.2c-1.4,0-2.5,1.1-2.5,2.7c0,1.3,1.1,2.5,2.5,2.5V359z
		 M527.5,351.5v1.2c1.5,0,2.7,1.1,2.7,2.7c0,1.3-1.1,2.5-2.7,2.5v1.1c2.2,0,3.8-1.6,3.8-3.7S529.7,351.5,527.5,351.5"/>
	<rect x="523.5" y="351.1" class="st22" width="8.1" height="4.1"/>
	<rect x="527.1" y="352" width="1" height="4.2"/>
	<rect x="527.1" y="352" class="st23" width="1" height="4.2"/>
</g>
<g id="_x30_2-上针脚_38_">
	<line class="st21" x1="624" y1="355.3" x2="624" y2="347.1"/>
	<path class="st22" d="M623.9,358.4c-1.7,0-3-1.4-3-3c0-1.8,1.4-3.2,3-3.2c1.8,0,3.2,1.4,3.2,3.2C627.1,357,625.7,358.4,623.9,358.4
		"/>
	<path d="M624,359c-2,0-3.7-1.6-3.7-3.7c0-2.2,1.7-3.8,3.7-3.8v1.2c-1.4,0-2.5,1.1-2.5,2.7c0,1.3,1.1,2.5,2.5,2.5V359z M624,351.5
		v1.2c1.5,0,2.7,1.1,2.7,2.7c0,1.3-1.1,2.5-2.7,2.5v1.1c2.2,0,3.8-1.6,3.8-3.7S626.2,351.5,624,351.5"/>
	<rect x="620" y="351.1" class="st22" width="8.1" height="4.1"/>
	<rect x="623.5" y="352" width="1" height="4.2"/>
	<rect x="623.5" y="352" class="st23" width="1" height="4.2"/>
</g>
<rect x="693.6" y="467.8" class="st22" width="28.1" height="7.1"/>
<g>
	<text transform="matrix(1 0 0 1 694.231 473.1969)" class="st9 st10">B/R 0.35</text>
</g>
<g id="_x30_2-上针脚_9_">
	<line class="st21" x1="707.4" y1="489.4" x2="707.4" y2="497.6"/>
	<path class="st22" d="M707.3,486.3c-1.7,0-3,1.4-3,3c0,1.8,1.4,3.2,3,3.2c1.8,0,3.2-1.4,3.2-3.2
		C710.5,487.7,709.1,486.3,707.3,486.3"/>
	<path d="M707.4,486.8c-1.4,0-2.5,1.2-2.5,2.5c0,1.6,1.1,2.7,2.5,2.7v1.2c-2,0-3.7-1.6-3.7-3.8c0-2.1,1.7-3.7,3.7-3.7V486.8z
		 M707.4,493.2c2.2,0,3.8-1.7,3.8-3.8c0-2.1-1.6-3.7-3.8-3.7v1.1c1.6,0,2.7,1.2,2.7,2.5c0,1.6-1.2,2.7-2.7,2.7V493.2"/>
	<rect x="703.4" y="489.5" class="st22" width="8.1" height="4.1"/>
	<rect x="706.9" y="488.5" width="1" height="4.2"/>
	<rect x="706.9" y="488.5" class="st23" width="1" height="4.2"/>
</g>
<g>
	<rect x="703" y="426.4" class="st22" width="8.5" height="19"/>
	<g>
		<g>
			<line class="st21" x1="707.2" y1="445.2" x2="707.2" y2="437"/>
			<path class="st22" d="M707.1,433.9c1.8,0,3.2,1.4,3.2,3c0,1.8-1.4,3.2-3.2,3.2c-1.6,0-3-1.4-3-3.2
				C704.1,435.3,705.4,433.9,707.1,433.9"/>
			<path d="M707.2,434.4c-1.4,0-2.5,1.2-2.5,2.5c0,1.6,1.1,2.7,2.5,2.7v1.2c-2,0-3.7-1.6-3.7-3.8c0-2.1,1.7-3.7,3.7-3.7V434.4z
				 M707.2,440.8c2.2,0,3.8-1.7,3.8-3.8c0-2.1-1.6-3.7-3.8-3.7v1.1c1.6,0,2.7,1.2,2.7,2.5c0,1.6-1.2,2.7-2.7,2.7V440.8"/>
			<rect x="703.2" y="437.1" class="st22" width="8.1" height="4.1"/>
			<rect x="706.7" y="436.1" width="1" height="4.2"/>
			<rect x="706.7" y="436.1" class="st23" width="1" height="4.2"/>
		</g>
		<line class="st37" x1="707.2" y1="433.3" x2="707.2" y2="426.8"/>
	</g>
</g>
<g id="_x30_2-上针脚_4_">
	<line class="st21" x1="707.4" y1="355.3" x2="707.4" y2="347.1"/>
	<path class="st22" d="M707.3,358.4c-1.7,0-3-1.4-3-3c0-1.8,1.4-3.2,3-3.2c1.8,0,3.2,1.4,3.2,3.2C710.5,357,709.1,358.4,707.3,358.4
		"/>
	<path d="M707.3,359c-2,0-3.7-1.6-3.7-3.7c0-2.2,1.7-3.8,3.7-3.8v1.2c-1.4,0-2.5,1.1-2.5,2.7c0,1.3,1.1,2.5,2.5,2.5V359z
		 M707.3,351.5v1.2c1.5,0,2.7,1.1,2.7,2.7c0,1.3-1.1,2.5-2.7,2.5v1.1c2.2,0,3.8-1.6,3.8-3.7S709.5,351.5,707.3,351.5"/>
	<rect x="703.3" y="351.1" class="st22" width="8.1" height="4.1"/>
	<rect x="706.9" y="352" width="1" height="4.2"/>
	<rect x="706.9" y="352" class="st23" width="1" height="4.2"/>
</g>
<rect x="745.4" y="467.8" class="st22" width="11.5" height="7.1"/>
<g>
	<text transform="matrix(1 0 0 1 738.7047 473.1969)" class="st9 st10">B/L 0.35</text>
</g>
<rect x="693.6" y="370.9" class="st22" width="28.1" height="7.1"/>
<g>
	<text transform="matrix(1 0 0 1 694.231 376.3262)" class="st9 st10">B/R 0.35</text>
</g>
<rect x="745.9" y="370.9" class="st22" width="11.5" height="7.1"/>
<g>
	<text transform="matrix(1 0 0 1 738.7047 376.3262)" class="st9 st10">B/L 0.35</text>
</g>
<g id="_x30_2-上针脚_13_">
	<line class="st21" x1="751.9" y1="489.4" x2="751.9" y2="497.6"/>
	<path class="st22" d="M751.8,486.3c-1.7,0-3,1.4-3,3c0,1.8,1.4,3.2,3,3.2c1.8,0,3.2-1.4,3.2-3.2C755,487.7,753.6,486.3,751.8,486.3
		"/>
	<path d="M751.8,486.8c-1.4,0-2.5,1.2-2.5,2.5c0,1.6,1.1,2.7,2.5,2.7v1.2c-2,0-3.7-1.6-3.7-3.8c0-2.1,1.7-3.7,3.7-3.7V486.8z
		 M751.8,493.2c2.2,0,3.8-1.7,3.8-3.8c0-2.1-1.6-3.7-3.8-3.7v1.1c1.6,0,2.7,1.2,2.7,2.5c0,1.6-1.2,2.7-2.7,2.7V493.2"/>
	<rect x="747.8" y="489.5" class="st22" width="8.1" height="4.1"/>
	<rect x="751.4" y="488.5" width="1" height="4.2"/>
	<rect x="751.4" y="488.5" class="st23" width="1" height="4.2"/>
</g>
<g>
	<rect x="747.5" y="426.4" class="st22" width="8.5" height="19"/>
	<g>
		<g>
			<line class="st21" x1="751.7" y1="445.2" x2="751.7" y2="437"/>
			<path class="st22" d="M751.6,433.9c1.8,0,3.2,1.4,3.2,3c0,1.8-1.4,3.2-3.2,3.2c-1.6,0-3-1.4-3-3.2
				C748.6,435.3,749.9,433.9,751.6,433.9"/>
			<path d="M751.7,434.4c-1.4,0-2.5,1.2-2.5,2.5c0,1.6,1.1,2.7,2.5,2.7v1.2c-2,0-3.7-1.6-3.7-3.8c0-2.1,1.7-3.7,3.7-3.7V434.4z
				 M751.7,440.8c2.2,0,3.8-1.7,3.8-3.8c0-2.1-1.6-3.7-3.8-3.7v1.1c1.6,0,2.7,1.2,2.7,2.5c0,1.6-1.2,2.7-2.7,2.7V440.8"/>
			<rect x="747.7" y="437.1" class="st22" width="8.1" height="4.1"/>
			<rect x="751.2" y="436.1" width="1" height="4.2"/>
			<rect x="751.2" y="436.1" class="st23" width="1" height="4.2"/>
		</g>
		<line class="st37" x1="751.7" y1="433.3" x2="751.7" y2="426.8"/>
	</g>
</g>
<g id="_x30_2-上针脚_10_">
	<line class="st21" x1="751.8" y1="355.3" x2="751.8" y2="347.1"/>
	<path class="st22" d="M751.7,358.4c-1.7,0-3-1.4-3-3c0-1.8,1.4-3.2,3-3.2c1.8,0,3.2,1.4,3.2,3.2C754.9,357,753.5,358.4,751.7,358.4
		"/>
	<path d="M751.8,359c-2,0-3.7-1.6-3.7-3.7c0-2.2,1.7-3.8,3.7-3.8v1.2c-1.4,0-2.5,1.1-2.5,2.7c0,1.3,1.1,2.5,2.5,2.5V359z
		 M751.8,351.5v1.2c1.5,0,2.7,1.1,2.7,2.7c0,1.3-1.1,2.5-2.7,2.5v1.1c2.2,0,3.8-1.6,3.8-3.7S754,351.5,751.8,351.5"/>
	<rect x="747.8" y="351.1" class="st22" width="8.1" height="4.1"/>
	<rect x="751.3" y="352" width="1" height="4.2"/>
	<rect x="751.3" y="352" class="st23" width="1" height="4.2"/>
</g>
<rect x="522.1" y="370.9" class="st22" width="8.5" height="7.1"/>
<g>
	<text transform="matrix(1 0 0 1 520.0409 376.3262)" class="st9 st10">B 6.0</text>
</g>
<g>
	<rect x="183.7" y="428.5" class="st22" width="8.5" height="19"/>
	<g>
		<g>
			<line class="st21" x1="187.9" y1="428.6" x2="187.9" y2="436.8"/>
			<path class="st22" d="M188,439.9c-1.8,0-3.2-1.4-3.2-3c0-1.8,1.4-3.2,3.2-3.2c1.6,0,3,1.4,3,3.2C191,438.5,189.7,439.9,188,439.9
				"/>
			<path d="M188,439.4c1.4,0,2.5-1.2,2.5-2.5c0-1.6-1.1-2.7-2.5-2.7V433c2,0,3.7,1.6,3.7,3.8c0,2.1-1.7,3.7-3.7,3.7V439.4z M188,433
				c-2.2,0-3.8,1.7-3.8,3.8s1.6,3.7,3.8,3.7v-1.1c-1.6,0-2.7-1.2-2.7-2.5c0-1.6,1.2-2.7,2.7-2.7V433"/>
			<rect x="183.9" y="432.6" class="st22" width="8.1" height="4.1"/>
			<rect x="187.4" y="433.5" width="1" height="4.2"/>
			<rect x="187.4" y="433.5" class="st23" width="1" height="4.2"/>
		</g>
		<line class="st37" x1="187.9" y1="440.5" x2="187.9" y2="447"/>
	</g>
</g>
<text transform="matrix(1 0 0 1 212.6958 159.5697)" class="st9 st10">IG3-2</text>
<text transform="matrix(1 0 0 1 212.6958 166.7697)" class="st9 st10">Relay</text>
<polyline class="st20" points="181.9,157.1 181.9,134.9 237.3,134.9 237.3,195.6 "/>
<g>
	<rect x="117" y="141.6" class="st38" width="91.3" height="37.2"/>
	<line class="st39" x1="194.3" y1="159.7" x2="141.3" y2="159.8"/>
	<rect x="174.9" y="157.1" class="st22" width="14.2" height="5.5"/>
	<rect x="174.9" y="157.1" class="st5" width="14.2" height="5.5"/>
	<rect x="194.3" y="156.1" class="st40" width="4" height="8.1"/>
	<polyline class="st41" points="196.3,155.8 196.3,149.1 183,149.1 	"/>
	<polyline class="st41" points="196.3,164.2 196.3,170.3 182.1,170.3 	"/>
	<line class="st40" x1="179.5" y1="162.6" x2="184.3" y2="157.1"/>
	<rect x="174.9" y="157.1" class="st40" width="14.2" height="5.5"/>
	<line class="st42" x1="141.2" y1="141.8" x2="141.2" y2="151.5"/>
	<line class="st43" x1="141.2" y1="166.7" x2="135.9" y2="155.7"/>
	<path d="M181.9,147.1c-1.1,0-2,0.9-2,2s0.9,2,2,2s2-0.9,2-2C183.9,147.9,183,147.1,181.9,147.1"/>
	<circle class="st44" cx="181.9" cy="149.1" r="2"/>
	<path d="M181.9,168.3c-1.1,0-2,0.9-2,2s0.9,2,2,2s2-0.9,2-2C183.9,169.1,183,168.3,181.9,168.3"/>
	<circle class="st44" cx="181.9" cy="170.3" r="2"/>
	<path class="st22" d="M141.2,150.9c-0.7,0-1.3,0.6-1.3,1.3s0.6,1.3,1.3,1.3s1.3-0.6,1.3-1.3C142.5,151.4,141.9,150.9,141.2,150.9"
		/>
	<path class="st43" d="M141.2,150.9c-0.7,0-1.3,0.6-1.3,1.3s0.6,1.3,1.3,1.3s1.3-0.6,1.3-1.3C142.5,151.4,141.9,150.9,141.2,150.9z"
		/>
	<path class="st22" d="M141.2,165c-0.7,0-1.3,0.6-1.3,1.3s0.6,1.3,1.3,1.3s1.3-0.6,1.3-1.3C142.5,165.5,141.9,165,141.2,165"/>
	<path class="st43" d="M141.2,165c-0.7,0-1.3,0.6-1.3,1.3s0.6,1.3,1.3,1.3s1.3-0.6,1.3-1.3C142.5,165.5,141.9,165,141.2,165z"/>
</g>
<polyline class="st20" points="141.2,141.8 141.2,131.1 271.1,131.1 271.1,189.5 292.3,189.5 292.3,170.3 "/>
<path class="st7" d="M190.7,596.8c-0.2,1.5-1.4,2.5-2.8,2.5c-1.6,0-2.9-1.2-2.9-2.9c0-1.6,1.4-2.9,3.2-2.7
	C189.7,593.9,190.9,595.3,190.7,596.8z"/>
<rect x="193.2" y="594.2" class="st8" width="25.3" height="5.6"/>
<text transform="matrix(1 0 0 1 193.8967 599.1117)" class="st9 st10">SP1000</text>
<rect x="193.2" y="594.2" class="st8" width="25.3" height="5.6"/>
<text transform="matrix(1 0 0 1 193.8967 599.1117)" class="st9 st10">SP2787</text>
<rect x="181.2" y="701" class="st22" width="9.5" height="7.1"/>
<g>
	<text transform="matrix(1 0 0 1 179.871 706.4155)" class="st9 st10">B 1.0</text>
</g>
<g>
	<text transform="matrix(1 0 0 1 601.6837 339.541)" class="st9 st31">step on </text>
	<text transform="matrix(1 0 0 1 601.6837 344.341)" class="st9 st31">connecting </text>
</g>
<g>
	<line class="st45" x1="624" y1="341.8" x2="624" y2="347"/>
	<line class="st45" x1="623.7" y1="328" x2="621.4" y2="338.7"/>
	<path class="st16" d="M624,325.1c-0.7,0-1.3,0.7-1.3,1.5c0,0.9,0.6,1.5,1.3,1.5s1.2-0.7,1.2-1.5C625.2,325.7,624.7,325.1,624,325.1
		"/>
	<path class="st16" d="M624,338.9c-0.7,0-1.3,0.7-1.3,1.5c0,0.9,0.6,1.5,1.3,1.5s1.2-0.7,1.2-1.5C625.2,339.5,624.7,338.9,624,338.9
		"/>
	<line class="st45" x1="624" y1="325.1" x2="624" y2="321.1"/>
	<polyline class="st16" points="619.8,336.7 618.9,336.7 618.9,332.9 619.8,332.9 	"/>
	<line class="st45" x1="619" y1="334.7" x2="622.2" y2="334.7"/>
</g>
<rect x="408.1" y="701" class="st22" width="13.9" height="7.1"/>
<g>
	<text transform="matrix(1 0 0 1 402.2518 706.6399)" class="st9 st10">Y/O 0.35</text>
</g>
<rect x="453.1" y="701" class="st22" width="13.9" height="7.1"/>
<g>
	<text transform="matrix(1 0 0 1 447.1959 706.6399)" class="st9 st10">L/W 0.35</text>
</g>
<rect x="497.1" y="701" class="st22" width="13.9" height="7.1"/>
<g>
	<text transform="matrix(1 0 0 1 491.2183 706.6399)" class="st9 st10">L/O 0.35</text>
</g>
<rect x="543.4" y="701" class="st22" width="13.9" height="7.1"/>
<g>
	<text transform="matrix(1 0 0 1 537.5688 706.6399)" class="st9 st10">Y/L 0.35</text>
</g>
<rect x="586.8" y="701" class="st22" width="13.9" height="7.1"/>
<g>
	<text transform="matrix(1 0 0 1 580.9438 706.6399)" class="st9 st10">Y/G 0.35</text>
</g>
<path class="st16" d="M777.3,757.9H689V732h88.3V757.9"/>
<g>
	<text transform="matrix(1 0 0 1 702.3701 736.2897)" class="st9 st31">Ground</text>
</g>
<g>
	<text transform="matrix(1 0 0 1 747.8923 736.2897)" class="st9 st31">signal </text>
</g>
<g id="_x30_2-上针脚_46_">
	<line class="st21" x1="706.4" y1="723.8" x2="706.4" y2="732"/>
	<path class="st22" d="M706.3,720.7c-1.7,0-3,1.4-3,3c0,1.8,1.4,3.2,3,3.2c1.8,0,3.2-1.4,3.2-3.2
		C709.5,722.1,708.1,720.7,706.3,720.7"/>
	<path d="M706.4,721.2c-1.4,0-2.5,1.2-2.5,2.5c0,1.6,1.1,2.7,2.5,2.7v1.2c-2,0-3.7-1.6-3.7-3.8c0-2.1,1.7-3.7,3.7-3.7V721.2z
		 M706.4,727.6c2.2,0,3.8-1.7,3.8-3.8s-1.6-3.7-3.8-3.7v1.1c1.6,0,2.7,1.2,2.7,2.5c0,1.6-1.2,2.7-2.7,2.7V727.6"/>
	<rect x="702.4" y="723.9" class="st22" width="8.1" height="4.1"/>
	<rect x="705.9" y="722.9" width="1" height="4.2"/>
	<rect x="705.9" y="722.9" class="st23" width="1" height="4.2"/>
</g>
<g id="_x30_2-上针脚_44_">
	<line class="st21" x1="751" y1="723.8" x2="751" y2="732"/>
	<path class="st22" d="M750.9,720.7c-1.7,0-3,1.4-3,3c0,1.8,1.4,3.2,3,3.2c1.8,0,3.2-1.4,3.2-3.2
		C754.1,722.1,752.7,720.7,750.9,720.7"/>
	<path d="M750.9,721.2c-1.4,0-2.5,1.2-2.5,2.5c0,1.6,1.1,2.7,2.5,2.7v1.2c-2,0-3.7-1.6-3.7-3.8c0-2.1,1.7-3.7,3.7-3.7V721.2z
		 M750.9,727.6c2.2,0,3.8-1.7,3.8-3.8s-1.6-3.7-3.8-3.7v1.1c1.6,0,2.7,1.2,2.7,2.5c0,1.6-1.2,2.7-2.7,2.7V727.6"/>
	<rect x="746.9" y="723.9" class="st22" width="8.1" height="4.1"/>
	<rect x="750.5" y="722.9" width="1" height="4.2"/>
	<rect x="750.5" y="722.9" class="st23" width="1" height="4.2"/>
</g>
<rect x="701.1" y="701" class="st22" width="13.9" height="7.1"/>
<g>
	<text transform="matrix(1 0 0 1 695.2121 706.6399)" class="st9 st10">Y/B 0.35</text>
</g>
<rect x="744.4" y="701" class="st22" width="13.9" height="7.1"/>
<g>
	<text transform="matrix(1 0 0 1 738.587 706.6399)" class="st9 st10">Y/R 0.35</text>
</g>
<rect x="701.1" y="546.4" class="st22" width="13.9" height="7.1"/>
<g>
	<text transform="matrix(1 0 0 1 695.2121 551.9662)" class="st9 st10">Y/B 0.35</text>
</g>
<rect x="744.4" y="546.4" class="st22" width="13.9" height="7.1"/>
<g>
	<text transform="matrix(1 0 0 1 738.587 551.9662)" class="st9 st10">Y/R 0.35</text>
</g>
<rect x="363.5" y="546.4" class="st22" width="13.9" height="7.1"/>
<g>
	<text transform="matrix(1 0 0 1 359.6279 551.9662)" class="st9 st10">Gr 0.35</text>
</g>
<rect x="408.1" y="546.4" class="st22" width="13.9" height="7.1"/>
<g>
	<text transform="matrix(1 0 0 1 402.2518 551.9662)" class="st9 st10">Y/O 0.35</text>
</g>
<rect x="453.1" y="546.4" class="st22" width="13.9" height="7.1"/>
<g>
	<text transform="matrix(1 0 0 1 447.1959 551.9662)" class="st9 st10">L/W 0.35</text>
</g>
<rect x="497.1" y="546.4" class="st22" width="13.9" height="7.1"/>
<g>
	<text transform="matrix(1 0 0 1 491.2183 551.9662)" class="st9 st10">L/O 0.35</text>
</g>
<rect x="543.4" y="546.4" class="st22" width="13.9" height="7.1"/>
<g>
	<text transform="matrix(1 0 0 1 537.5688 551.9662)" class="st9 st10">Y/L 0.35</text>
</g>
<rect x="586.8" y="546.4" class="st22" width="13.9" height="7.1"/>
<g>
	<text transform="matrix(1 0 0 1 580.9438 551.9662)" class="st9 st10">Y/G 0.35</text>
</g>
<rect x="630.5" y="546.4" class="st22" width="13.9" height="7.1"/>
<g>
	<text transform="matrix(1 0 0 1 628.371 551.9662)" class="st9 st10">B 0.35</text>
</g>
<path class="st7" d="M640.2,599.6c-0.2,1.5-1.4,2.5-2.8,2.5c-1.6,0-2.9-1.2-2.9-2.9c0-1.6,1.4-2.9,3.2-2.7
	C639.2,596.6,640.4,598.1,640.2,599.6z"/>
<g>
	<rect x="702.2" y="626" class="st22" width="8.5" height="19"/>
	<g>
		<g>
			<line class="st21" x1="706.4" y1="626.2" x2="706.4" y2="634.4"/>
			<path class="st22" d="M706.5,637.5c-1.8,0-3.2-1.4-3.2-3c0-1.8,1.4-3.2,3.2-3.2c1.6,0,3,1.4,3,3.2
				C709.5,636.1,708.2,637.5,706.5,637.5"/>
			<path d="M706.5,637c1.4,0,2.5-1.2,2.5-2.5c0-1.6-1.1-2.7-2.5-2.7v-1.2c2,0,3.7,1.6,3.7,3.8c0,2.1-1.7,3.7-3.7,3.7V637z
				 M706.5,630.6c-2.2,0-3.8,1.7-3.8,3.8s1.6,3.7,3.8,3.7V637c-1.6,0-2.7-1.2-2.7-2.5c0-1.6,1.2-2.7,2.7-2.7V630.6"/>
			<rect x="702.4" y="630.2" class="st22" width="8.1" height="4.1"/>
			<rect x="705.9" y="631.1" width="1" height="4.2"/>
			<rect x="705.9" y="631.1" class="st23" width="1" height="4.2"/>
		</g>
		<line class="st37" x1="706.4" y1="638.1" x2="706.4" y2="644.5"/>
	</g>
</g>
<g>
	<rect x="746.8" y="626" class="st22" width="8.5" height="19"/>
	<g>
		<g>
			<line class="st21" x1="751" y1="626.2" x2="751" y2="634.4"/>
			<path class="st22" d="M751.1,637.5c-1.8,0-3.2-1.4-3.2-3c0-1.8,1.4-3.2,3.2-3.2c1.6,0,3,1.4,3,3.2
				C754.1,636.1,752.8,637.5,751.1,637.5"/>
			<path d="M751.1,637c1.4,0,2.5-1.2,2.5-2.5c0-1.6-1.1-2.7-2.5-2.7v-1.2c2,0,3.7,1.6,3.7,3.8c0,2.1-1.7,3.7-3.7,3.7V637z
				 M751.1,630.6c-2.2,0-3.8,1.7-3.8,3.8s1.6,3.7,3.8,3.7V637c-1.6,0-2.7-1.2-2.7-2.5c0-1.6,1.2-2.7,2.7-2.7V630.6"/>
			<rect x="747" y="630.2" class="st22" width="8.1" height="4.1"/>
			<rect x="750.5" y="631.1" width="1" height="4.2"/>
			<rect x="750.5" y="631.1" class="st23" width="1" height="4.2"/>
		</g>
		<line class="st37" x1="751" y1="638.1" x2="751" y2="644.5"/>
	</g>
</g>
<text transform="matrix(1 0 0 1 616.3272 501.7108)" class="st9 st31">Brake switch signal</text>
<g>
	<text transform="matrix(1 0 0 1 487.8886 516.6048)" class="st9 st31">Accelerator </text>
	<text transform="matrix(1 0 0 1 487.8886 521.4048)" class="st9 st31">pedal depth 2 power</text>
</g>
<g>
	<text transform="matrix(1 0 0 1 530.097 516.6053)" class="st9 st31">Accelerator </text>
	<text transform="matrix(1 0 0 1 530.097 521.4053)" class="st9 st31">pedal depth 2 signal</text>
</g>
<g>
	<text transform="matrix(1 0 0 1 570.6534 516.6051)" class="st9 st31">Accelerator </text>
	<text transform="matrix(1 0 0 1 570.6534 521.4051)" class="st9 st31">pedal depth  2 ground</text>
</g>
<g>
	<text transform="matrix(1 0 0 1 357.4257 736.29)" class="st9 st31">Accelerator </text>
	<text transform="matrix(1 0 0 1 357.4257 741.09)" class="st9 st31">pedal depth 1 power</text>
</g>
<g>
	<text transform="matrix(1 0 0 1 404.2638 736.29)" class="st9 st31">Accelerator </text>
	<text transform="matrix(1 0 0 1 404.2638 741.09)" class="st9 st31">pedal depth 1 signal</text>
</g>
<g>
	<text transform="matrix(1 0 0 1 446.9968 736.2905)" class="st9 st31">Accelerator </text>
	<text transform="matrix(1 0 0 1 446.9968 741.0905)" class="st9 st31">pedal depth  1 ground</text>
</g>
<g>
	<text transform="matrix(1 0 0 1 493.6423 736.837)" class="st9 st31">Accelerator </text>
	<text transform="matrix(1 0 0 1 493.6423 741.637)" class="st9 st31">pedal depth 2 power</text>
</g>
<g>
	<text transform="matrix(1 0 0 1 535.8508 736.8376)" class="st9 st31">Accelerator </text>
	<text transform="matrix(1 0 0 1 535.8508 741.6376)" class="st9 st31">pedal depth 2 signal</text>
</g>
<g>
	<text transform="matrix(1 0 0 1 582.9877 736.2902)" class="st9 st31">Accelerator </text>
	<text transform="matrix(1 0 0 1 582.9877 741.0902)" class="st9 st31">pedal depth  2 ground</text>
</g>
<g id="图层_2_1_">
	<g>
		<text transform="matrix(1 0 0 1 375.779 157.9823)" class="st46 st9 st10">F1/25</text>
	</g>
	<g>
		<text transform="matrix(1 0 0 1 472.3505 157.9823)" class="st46 st9 st10">F1/40</text>
	</g>
	<g>
		<text transform="matrix(1 0 0 1 532.4631 157.9823)" class="st46 st9 st10">F1/51</text>
	</g>
	<g>
		<text transform="matrix(1 0 0 1 629.2107 157.9823)" class="st46 st9 st10">F1/15</text>
	</g>
	<g>
		<text transform="matrix(1 0 0 1 297.3931 157.9823)" class="st46 st9 st10">F1/31</text>
	</g>
	<g>
		<text transform="matrix(1 0 0 1 663.0877 158.3797)" class="st46 st9 st10"> Front Compartment Distribution Box</text>
	</g>
	<text transform="matrix(1 0 0 1 423.9053 495.1674)" class="st46 st9 st10">K49</text>
	<text transform="matrix(1 0 0 1 435.2178 495.1674)" class="st46 st9 st10">-3</text>
	<text transform="matrix(1 0 0 1 377.0396 495.1674)" class="st46 st9 st10">K49</text>
	<text transform="matrix(1 0 0 1 388.3521 495.1674)" class="st46 st9 st10">-1</text>
	<text transform="matrix(1 0 0 1 473.8018 318.5673)" class="st46 st9 st10">B14</text>
	<text transform="matrix(1 0 0 1 485.1143 318.5673)" class="st46 st9 st10">-1</text>
	<text transform="matrix(1 0 0 1 473.6422 495.1674)" class="st46 st9 st10">K49</text>
	<text transform="matrix(1 0 0 1 484.9547 495.1674)" class="st46 st9 st10">-1</text>
	<text transform="matrix(1 0 0 1 148.254 495.1674)" class="st46 st9 st10">B43</text>
	<text transform="matrix(1 0 0 1 159.5665 495.1674)" class="st46 st9 st10">-1</text>
	<text transform="matrix(1 0 0 1 319.8843 495.1674)" class="st46 st9 st10">K49</text>
	<text transform="matrix(1 0 0 1 331.1968 495.1674)" class="st46 st9 st10">-30</text>
	<text transform="matrix(1 0 0 1 271.1436 495.1674)" class="st46 st9 st10">K49</text>
	<text transform="matrix(1 0 0 1 282.4561 495.1674)" class="st46 st9 st10">-14</text>
	<text transform="matrix(1 0 0 1 271.1436 531.2402)" class="st46 st9 st10">K49</text>
	<text transform="matrix(1 0 0 1 282.4561 531.2402)" class="st46 st9 st10">-5</text>
	<text transform="matrix(1 0 0 1 318.7271 531.2402)" class="st46 st9 st10">K49</text>
	<text transform="matrix(1 0 0 1 330.0396 531.2402)" class="st46 st9 st10">-7</text>
	<text transform="matrix(1 0 0 1 376.9918 531.2402)" class="st46 st9 st10">K49</text>
	<text transform="matrix(1 0 0 1 388.3043 531.2402)" class="st46 st9 st10">-23</text>
	<text transform="matrix(1 0 0 1 192.7447 495.1674)" class="st46 st9 st10">B43</text>
	<text transform="matrix(1 0 0 1 204.0572 495.1674)" class="st46 st9 st10">-2</text>
	<text transform="matrix(1 0 0 1 192.7447 531.2402)" class="st46 st9 st10">B43</text>
	<text transform="matrix(1 0 0 1 204.0572 531.2402)" class="st46 st9 st10">-3</text>
	<g>
		<text transform="matrix(1 0 0 1 376.7794 203.207)" class="st46 st9 st10">B1C</text>
	</g>
	<g>
		<text transform="matrix(1 0 0 1 389.876 203.207)" class="st46 st9 st10">-33</text>
	</g>
	<g>
		<text transform="matrix(1 0 0 1 473.3687 203.207)" class="st46 st9 st10">B1C</text>
	</g>
	<g>
		<text transform="matrix(1 0 0 1 486.4654 203.207)" class="st46 st9 st10">-8</text>
	</g>
	<text transform="matrix(1 0 0 1 533.876 318.5673)" class="st46 st9 st10">B14</text>
	<text transform="matrix(1 0 0 1 545.1885 318.5673)" class="st46 st9 st10">-3</text>
	<g>
		<text transform="matrix(1 0 0 1 533.4429 203.207)" class="st46 st9 st10">B44_4</text>
	</g>
	<g>
		<text transform="matrix(1 0 0 1 552.4146 203.207)" class="st46 st9 st10">-1</text>
	</g>
	<g>
		<text transform="matrix(1 0 0 1 630.1905 203.207)" class="st46 st9 st10">B1D</text>
	</g>
	<g>
		<text transform="matrix(1 0 0 1 642.7872 203.207)" class="st46 st9 st10">-37</text>
	</g>
	<g>
		<text transform="matrix(1 0 0 1 473.2833 354.6801)" class="st46 st9 st10">B14</text>
	</g>
	<g>
		<text transform="matrix(1 0 0 1 484.3799 354.6801)" class="st46 st9 st10">-4</text>
	</g>
	<g>
		<text transform="matrix(1 0 0 1 147.7105 203.207)" class="st46 st9 st10">B1C</text>
	</g>
	<g>
		<text transform="matrix(1 0 0 1 160.8072 203.207)" class="st46 st9 st10">-5</text>
	</g>
	<g>
		<text transform="matrix(1 0 0 1 188.4898 203.207)" class="st46 st9 st10">B1C</text>
	</g>
	<g>
		<text transform="matrix(1 0 0 1 201.5865 203.207)" class="st46 st9 st10">-21</text>
	</g>
	<g>
		<text transform="matrix(1 0 0 1 243.6866 203.207)" class="st46 st9 st10">B1C</text>
	</g>
	<g>
		<text transform="matrix(1 0 0 1 256.7833 203.207)" class="st46 st9 st10">-14</text>
	</g>
	<g>
		<text transform="matrix(1 0 0 1 376.9922 729.5107)" class="st46 st9 st10">KG44</text>
	</g>
	<g>
		<text transform="matrix(1 0 0 1 393.5635 729.5107)" class="st46 st9 st10">-3</text>
	</g>
	<text transform="matrix(1 0 0 1 421.5611 531.2402)" class="st46 st9 st10">K49</text>
	<text transform="matrix(1 0 0 1 432.8736 531.2402)" class="st46 st9 st10">-62</text>
	<g>
		<text transform="matrix(1 0 0 1 421.5616 729.5107)" class="st46 st9 st10">KG44</text>
	</g>
	<g>
		<text transform="matrix(1 0 0 1 438.3414 729.5107)" class="st46 st9 st10">-2</text>
	</g>
	<text transform="matrix(1 0 0 1 466.1304 531.2402)" class="st46 st9 st10">K49</text>
	<text transform="matrix(1 0 0 1 477.4429 531.2402)" class="st46 st9 st10">-37</text>
	<g>
		<text transform="matrix(1 0 0 1 466.1309 729.5107)" class="st46 st9 st10">KG44</text>
	</g>
	<g>
		<text transform="matrix(1 0 0 1 482.9107 729.5107)" class="st46 st9 st10">-5</text>
	</g>
	<text transform="matrix(1 0 0 1 510.6998 531.2402)" class="st46 st9 st10">K49</text>
	<text transform="matrix(1 0 0 1 522.0123 531.2402)" class="st46 st9 st10">-24</text>
	<g>
		<text transform="matrix(1 0 0 1 510.7003 729.5107)" class="st46 st9 st10">KG44</text>
	</g>
	<g>
		<text transform="matrix(1 0 0 1 527.2925 729.5107)" class="st46 st9 st10">-6</text>
	</g>
	<text transform="matrix(1 0 0 1 555.2691 531.2402)" class="st46 st9 st10">K49</text>
	<text transform="matrix(1 0 0 1 566.5816 531.2402)" class="st46 st9 st10">-48</text>
	<g>
		<text transform="matrix(1 0 0 1 555.2696 729.5107)" class="st46 st9 st10">KG44</text>
	</g>
	<g>
		<text transform="matrix(1 0 0 1 571.7579 729.5107)" class="st46 st9 st10">-1</text>
	</g>
	<text transform="matrix(1 0 0 1 599.8384 531.2402)" class="st46 st9 st10">K49</text>
	<text transform="matrix(1 0 0 1 611.1509 531.2402)" class="st46 st9 st10">-38</text>
	<g>
		<text transform="matrix(1 0 0 1 599.8389 729.5107)" class="st46 st9 st10">KG44</text>
	</g>
	<g>
		<text transform="matrix(1 0 0 1 616.3272 729.5107)" class="st46 st9 st10">-4</text>
	</g>
	<g>
		<text transform="matrix(1 0 0 1 712.9131 729.5107)" class="st46 st9 st10">B83</text>
	</g>
	<g>
		<text transform="matrix(1 0 0 1 724.2764 729.5107)" class="st46 st9 st10">-3</text>
	</g>
	<g>
		<text transform="matrix(1 0 0 1 757.4825 729.5107)" class="st46 st9 st10">B83</text>
	</g>
	<g>
		<text transform="matrix(1 0 0 1 768.8458 729.5107)" class="st46 st9 st10">-1</text>
	</g>
	<text transform="matrix(1 0 0 1 644.4078 531.2402)" class="st46 st9 st10">K49</text>
	<text transform="matrix(1 0 0 1 655.7203 531.2402)" class="st46 st9 st10">-47</text>
	<text transform="matrix(1 0 0 1 830.0186 531.2402)" class="st46 st9 st10">K49</text>
	<text transform="matrix(1 0 0 1 841.3311 531.2402)" class="st46 st9 st10">-21</text>
	<text transform="matrix(1 0 0 1 887.6832 531.2402)" class="st46 st9 st10">K49</text>
	<text transform="matrix(1 0 0 1 898.9957 531.2402)" class="st46 st9 st10">-22</text>
	<text transform="matrix(1 0 0 1 712.2198 531.2402)" class="st46 st9 st10">K49</text>
	<text transform="matrix(1 0 0 1 723.5323 531.2402)" class="st46 st9 st10">-44</text>
	<text transform="matrix(1 0 0 1 756.7891 531.2402)" class="st46 st9 st10">K49</text>
	<text transform="matrix(1 0 0 1 768.1016 531.2402)" class="st46 st9 st10">-45</text>
	<g>
		<text transform="matrix(1 0 0 1 443.0439 751.8225)" class="st46 st9 st10">Accelerator Pedal Position Sensor</text>
	</g>
	<g>
		<text transform="matrix(1 0 0 1 672.0913 766.5515)" class="st46 st9 st10">Water Temperature Sensor Of Battery Pack</text>
	</g>
	<g>
		<text transform="matrix(1 0 0 1 258.9739 792.5298)" class="st46 st9 st10">Ek05</text>
	</g>
	<g>
		<text transform="matrix(1 0 0 1 520.0295 480.374)" class="st46 st9 st10">Eb01</text>
	</g>
	<g>
		<text transform="matrix(1 0 0 1 179.6186 792.5298)" class="st46 st9 st10">Eb02</text>
	</g>
	<g>
		<text transform="matrix(1 0 0 1 174.2311 364.2799)" class="st46 st9 st10">Eb07</text>
	</g>
	<g>
		<g>
			<g id="FB103_32_">
				<g>
					<g id="FB103_33_">
						<text transform="matrix(1 0 0 1 542.1222 507.4505)" class="st46 st9 st10">Vehicle Control Unit</text>
					</g>
				</g>
			</g>
		</g>
	</g>
	<g>
		<g>
			<g id="FB103_30_">
				<g>
					<g id="FB103_31_">
						<text transform="matrix(1 0 0 1 137.5247 510.6411)" class="st46 st9 st10">Electrically-controlled </text>
						<text transform="matrix(1 0 0 1 137.5247 517.8411)" class="st46 st9 st10">Cooling Water Pump</text>
					</g>
				</g>
			</g>
		</g>
	</g>
	<g>
		<g>
			<g id="FB103_28_">
				<g>
					<g id="FB103_29_">
						<text transform="matrix(1 0 0 1 451.2354 335.8689)" class="st46 st9 st10">Cooling Fan Speed Control Module</text>
					</g>
				</g>
			</g>
		</g>
	</g>
	<g>
		<text transform="matrix(1 0 0 1 377.084 361.685)" class="st46 st9 st10">BJK01</text>
	</g>
	<g>
		<text transform="matrix(1 0 0 1 377.084 368.8852)" class="st46 st9 st10">KJB01</text>
	</g>
	<g>
		<text transform="matrix(1 0 0 1 377.084 376.0854)" class="st46 st9 st10">-31</text>
	</g>
	<g>
		<text transform="matrix(1 0 0 1 473.6426 431.7753)" class="st46 st9 st10">BJK01</text>
	</g>
	<g>
		<text transform="matrix(1 0 0 1 473.6426 438.9755)" class="st46 st9 st10">KJB01</text>
	</g>
	<g>
		<text transform="matrix(1 0 0 1 473.6426 446.1757)" class="st46 st9 st10">-37</text>
	</g>
	<text transform="matrix(1 0 0 1 630.7598 495.1674)" class="st46 st9 st10">K49</text>
	<text transform="matrix(1 0 0 1 642.0723 495.1674)" class="st46 st9 st10">-15</text>
	<g>
		<text transform="matrix(1 0 0 1 630.7603 431.7753)" class="st46 st9 st10">BJK01</text>
	</g>
	<g>
		<text transform="matrix(1 0 0 1 630.7603 438.9755)" class="st46 st9 st10">KJB01</text>
	</g>
	<g>
		<text transform="matrix(1 0 0 1 630.7603 446.1757)" class="st46 st9 st10">-37</text>
	</g>
	<g>
		<text transform="matrix(1 0 0 1 533.9844 354.6801)" class="st46 st9 st10">B14</text>
	</g>
	<g>
		<text transform="matrix(1 0 0 1 545.0811 354.6801)" class="st46 st9 st10">-2</text>
	</g>
	<g>
		<text transform="matrix(1 0 0 1 630.4483 354.6801)" class="st46 st9 st10">BG28</text>
	</g>
	<g>
		<text transform="matrix(1 0 0 1 646.795 354.6801)" class="st46 st9 st10">-3</text>
	</g>
	<text transform="matrix(1 0 0 1 714.0826 495.1674)" class="st46 st9 st10">K49</text>
	<text transform="matrix(1 0 0 1 725.3951 495.1674)" class="st46 st9 st10">-58</text>
	<g>
		<text transform="matrix(1 0 0 1 714.0831 431.7753)" class="st46 st9 st10">BJK01</text>
	</g>
	<g>
		<text transform="matrix(1 0 0 1 714.0831 438.9755)" class="st46 st9 st10">KJB01</text>
	</g>
	<g>
		<text transform="matrix(1 0 0 1 714.0831 446.1757)" class="st46 st9 st10">-33</text>
	</g>
	<g>
		<text transform="matrix(1 0 0 1 713.7711 354.6801)" class="st46 st9 st10">B29</text>
	</g>
	<g>
		<text transform="matrix(1 0 0 1 725.0342 354.6801)" class="st46 st9 st10">-1</text>
	</g>
	<text transform="matrix(1 0 0 1 758.5562 495.1674)" class="st46 st9 st10">K49</text>
	<text transform="matrix(1 0 0 1 769.8687 495.1674)" class="st46 st9 st10">-59</text>
	<g>
		<text transform="matrix(1 0 0 1 758.5567 431.7753)" class="st46 st9 st10">BJK01</text>
	</g>
	<g>
		<text transform="matrix(1 0 0 1 758.5567 438.9755)" class="st46 st9 st10">KJB01</text>
	</g>
	<g>
		<text transform="matrix(1 0 0 1 758.5567 446.1757)" class="st46 st9 st10">-32</text>
	</g>
	<g>
		<text transform="matrix(1 0 0 1 758.2447 354.6801)" class="st46 st9 st10">B29</text>
	</g>
	<g>
		<text transform="matrix(1 0 0 1 769.5079 354.6801)" class="st46 st9 st10">-3</text>
	</g>
	<g>
		<text transform="matrix(1 0 0 1 630.4483 318.5673)" class="st46 st9 st10">BG28</text>
	</g>
	<g>
		<text transform="matrix(1 0 0 1 646.795 318.5673)" class="st46 st9 st10">-4</text>
	</g>
	<g>
		<text transform="matrix(1 0 0 1 194.5997 433.8852)" class="st46 st9 st10">KJB01</text>
	</g>
	<g>
		<text transform="matrix(1 0 0 1 194.5997 441.0854)" class="st46 st9 st10">BJK01</text>
	</g>
	<g>
		<text transform="matrix(1 0 0 1 194.5997 448.2856)" class="st46 st9 st10">-25</text>
	</g>
	<g>
		<text transform="matrix(1 0 0 1 635.7413 364.2797)" class="st46 st9 st10">Brake Switch</text>
	</g>
	<g>
		<text transform="matrix(1 0 0 1 677.0128 316.9711)" class="st46 st9 st10">water Temperature Sensor Of  Front Drive Motor</text>
	</g>
	<ellipse class="st27" cx="497.1" cy="599.1" rx="141.7" ry="6.3"/>
	<g>
		<text transform="matrix(1 0 0 1 713.5845 631.4194)" class="st46 st9 st10">KJB01</text>
	</g>
	<g>
		<text transform="matrix(1 0 0 1 713.5845 638.6196)" class="st46 st9 st10">BJK01</text>
	</g>
	<g>
		<text transform="matrix(1 0 0 1 713.5845 645.8198)" class="st46 st9 st10">-41</text>
	</g>
	<g>
		<text transform="matrix(1 0 0 1 758.3721 631.4194)" class="st46 st9 st10">KJB01</text>
	</g>
	<g>
		<text transform="matrix(1 0 0 1 758.3721 638.6196)" class="st46 st9 st10">BJK01</text>
	</g>
	<g>
		<text transform="matrix(1 0 0 1 758.3721 645.8198)" class="st46 st9 st10">-42</text>
	</g>
</g>
<line class="st47" x1="706.4" y1="533.6" x2="706.4" y2="720.5"/>
</svg>
