<?xml version="1.0" encoding="utf-8"?>
<!-- Generator: Adobe Illustrator 24.0.1, SVG Export Plug-In . SVG Version: 6.00 Build 0)  -->
<svg version="1.1" id="图层_1" xmlns="http://www.w3.org/2000/svg" xmlns:xlink="http://www.w3.org/1999/xlink" x="0px" y="0px"
	 viewBox="0 0 621 841.9" style="enable-background:new 0 0 621 841.9;" xml:space="preserve">
<style type="text/css">
	.st0{fill:none;stroke:#060001;stroke-width:3;stroke-miterlimit:10;}
	.st1{fill:none;stroke:#E60012;stroke-width:3;stroke-miterlimit:10;}
	.st2{fill:none;stroke:#FFF100;stroke-miterlimit:10;}
	.st3{fill:#DCDDDD;}
	.st4{fill:none;stroke:#060001;stroke-width:0.5;}
	.st5{font-family:'FZLTHJW--GB1-0';}
	.st6{font-size:6px;}
	.st7{fill:none;stroke:#060001;}
	.st8{fill:#9DD2EE;stroke:#000000;stroke-width:0.5;stroke-linecap:round;stroke-miterlimit:10;}
	.st9{fill:none;stroke:#000000;stroke-width:0.5;stroke-linecap:round;stroke-miterlimit:10;}
	.st10{fill:none;stroke:#000000;stroke-width:0.25;}
	.st11{fill:none;stroke:#000000;stroke-width:0.5;stroke-miterlimit:10;}
	.st12{fill:#FFFFFF;stroke:#000000;stroke-width:0.5;stroke-miterlimit:10;}
	.st13{fill:#9BCDE5;stroke:#060001;stroke-width:0.5;stroke-linecap:round;stroke-miterlimit:10;}
	.st14{fill:none;stroke:#000000;stroke-width:0.5;stroke-linecap:round;}
	.st15{fill:none;stroke:#000000;stroke-width:0.5;}
	.st16{fill:none;stroke:#F29C97;stroke-width:3;stroke-miterlimit:10;}
	.st17{fill:none;stroke:#89438F;stroke-width:3;stroke-miterlimit:10;}
	.st18{fill:none;stroke:#000000;stroke-width:3;stroke-linecap:round;stroke-miterlimit:10;}
	.st19{fill:none;stroke:#FFF100;stroke-width:3;stroke-linecap:round;stroke-miterlimit:10;}
	.st20{fill:none;stroke:#000000;stroke-linecap:round;stroke-miterlimit:10;}
	.st21{stroke:#FFFFFF;stroke-width:0.5;}
	.st22{fill:none;stroke:#000000;stroke-width:0.6;stroke-linecap:round;stroke-linejoin:round;}
	.st23{fill:#FFFFFF;}
	.st24{fill:none;stroke:#000000;stroke-width:0.72;stroke-linecap:round;stroke-linejoin:round;}
	.st25{fill:none;stroke:#000000;stroke-width:1.3;}
	.st26{fill:none;stroke:#000000;stroke-width:0.6;stroke-linejoin:round;}
	.st27{fill:#060001;stroke:#FFFFFF;stroke-width:0.5;}
	.st28{fill:#FFFFFF;stroke:#060001;stroke-width:0.25;stroke-linecap:round;stroke-linejoin:round;}
	.st29{fill:#FFFFFF;stroke:#060001;stroke-width:0.25;}
	.st30{fill:#FFFFFF;stroke:#000000;stroke-width:0.25;stroke-linecap:round;stroke-linejoin:round;}
	.st31{fill:#FFFFFF;stroke:#000000;stroke-width:0.25;}
	.st32{fill:none;stroke:#060001;stroke-width:0.5;stroke-linecap:round;stroke-linejoin:round;}
	.st33{fill:none;stroke:#060001;stroke-width:0.5;stroke-miterlimit:10;}
	.st34{font-size:4px;}
	.st35{fill:#005EAD;}
	.st36{fill:none;stroke:#000000;stroke-width:3;stroke-linecap:round;stroke-linejoin:round;stroke-miterlimit:10;}
	.st37{fill:#DCDDDD;stroke:#000000;stroke-width:0.5;stroke-linecap:round;stroke-miterlimit:10;}
	.st38{fill:none;stroke:#040000;stroke-width:0.75;}
	.st39{stroke:#FFFFFF;stroke-width:0.5;stroke-linecap:round;}
	.st40{fill:none;stroke:#FFFFFF;stroke-width:1.0001;}
	.st41{fill:none;stroke:#000000;stroke-miterlimit:10;}
	.st42{fill:none;stroke:#E60012;stroke-width:3;stroke-linecap:round;stroke-miterlimit:10;}
	.st43{fill:none;stroke:#FFFFFF;stroke-linecap:round;stroke-miterlimit:10;}
	.st44{fill:#0459A1;}
	.st45{font-size:8px;}
	.st46{fill:#0C528F;}
</style>
<g id="图层_1_1_">
	<polyline class="st0" points="449.1,618.7 449.1,692.9 376.6,692.9 	"/>
	<polyline class="st1" points="449.1,566.1 449.1,494.6 376.5,494.6 	"/>
	<polyline class="st2" points="449.1,566.1 449.1,494.6 376.5,494.6 	"/>
	<polyline class="st3" points="49,41.9 584.3,41.9 584.3,99.8 49,99.8 	"/>
	<line class="st4" x1="49" y1="47.6" x2="584.3" y2="47.6"/>
	<line class="st4" x1="49" y1="41.6" x2="584.3" y2="41.6"/>
	<line class="st4" x1="49" y1="58.9" x2="584.3" y2="58.9"/>
	<line class="st4" x1="49" y1="70.6" x2="584.3" y2="70.6"/>
	<line class="st4" x1="49" y1="82.3" x2="584.3" y2="82.3"/>
	<text transform="matrix(1 0 0 1 35.9894 49.7119)" class="st5 st6">30</text>
	<text transform="matrix(1 0 0 1 32.8253 60.8779)" class="st5 st6">IG1</text>
	<text transform="matrix(1 0 0 1 32.8253 72.5029)" class="st5 st6">IG3</text>
	<text transform="matrix(1 0 0 1 32.7785 84.0029)" class="st5 st6">IG4</text>
	<text transform="matrix(1 0 0 1 29.3332 96.0862)" class="st5 st6">ACC</text>
	<line class="st7" x1="49" y1="41.6" x2="584.3" y2="41.6"/>
	<line class="st4" x1="49" y1="94" x2="584.3" y2="94"/>
	<line class="st7" x1="49" y1="99.8" x2="584.3" y2="99.8"/>
	<text transform="matrix(1 0 0 1 587.5208 49.6298)" class="st5 st6">30</text>
	<text transform="matrix(1 0 0 1 587.5208 60.7958)" class="st5 st6">IG1</text>
	<text transform="matrix(1 0 0 1 587.5208 72.4208)" class="st5 st6">IG3</text>
	<text transform="matrix(1 0 0 1 587.5208 83.9247)" class="st5 st6">IG4</text>
	<text transform="matrix(1 0 0 1 587.5208 95.2581)" class="st5 st6">ACC</text>
	<g>
		<rect x="364" y="184.2" class="st8" width="82.5" height="25.9"/>
		<path class="st8" d="M449.5,247.7h-85.1v-25.9h85.1c0,0-4.1,6.5,0,12.3S449.5,247.7,449.5,247.7z"/>
		<line class="st9" x1="376.3" y1="221.7" x2="376.3" y2="210.3"/>
		<line class="st9" x1="435" y1="221.6" x2="435" y2="210.3"/>
		<path class="st10" d="M434.8,221.6v10.7h0.1c0.5,0,1,0.3,1.2,0.8c0.6,1.2-0.5,2.5-1.7,2.6c-1,0.1-2-0.3-2.7-1.1
			c-1.5-1.8-0.4-4.3,1.6-5c2.2-0.8,4.6,0.2,5.6,2.4c0.8,1.9,0.3,3.9-1.2,5.3c-1.3,1.1-2.9,1.5-4.6,1.3c-2.9-0.4-5.3-3.1-5.2-6.1
			c0.1-3.1,2.6-5.4,5.6-5.9c3.9-0.6,7.8,2.1,8.7,5.9c0.7,3.1-0.9,6.3-3.6,7.9c-1.4,0.8-2.3,1.1-3.8,1.2v6.5"/>
		<path class="st10" d="M376.3,221.7v10.7h0.1c0.5,0,1,0.3,1.2,0.8c0.6,1.2-0.5,2.5-1.7,2.6c-1,0.1-2-0.3-2.7-1.1
			c-1.5-1.8-0.4-4.3,1.6-5c2.2-0.8,4.6,0.2,5.6,2.4c0.8,1.9,0.3,3.9-1.2,5.3c-1.3,1.1-2.9,1.5-4.6,1.3c-2.9-0.4-5.3-3.1-5.2-6.1
			c0.1-3.1,2.6-5.4,5.6-5.9c3.9-0.6,7.8,2.1,8.7,5.9c0.7,3.1-0.9,6.3-3.6,7.9c-1.4,0.8-2.3,1.1-3.8,1.2v6.5"/>
		<g>
			<polyline class="st11" points="397.8,198.7 376.2,198.7 376.2,210.1 			"/>
			<ellipse class="st12" cx="399.5" cy="198.2" rx="1.6" ry="1.7"/>
			<line class="st11" x1="412.8" y1="198.3" x2="410.7" y2="198.3"/>
			<ellipse class="st12" cx="409" cy="198.3" rx="1.6" ry="1.7"/>
			<polyline class="st11" points="410.7,198.3 435,198.3 435,210.1 			"/>
			<rect x="397.4" y="193.3" class="st12" width="13.6" height="1.7"/>
		</g>
	</g>
	<g>
		<path class="st8" d="M591.3,425.8H54.5v-25.9h536.8c0,0-5,7.6,0,13S591.3,425.8,591.3,425.8"/>
		<path class="st8" d="M591.3,425.8H54.5v-25.9h536.8c0,0-5,7.6,0,13S591.3,425.8,591.3,425.8z"/>
	</g>
	<g>
		<rect x="363.4" y="576.5" class="st13" width="32.4" height="32.2"/>
	</g>
	<g>
		<polyline class="st14" points="380,588.6 388,588.6 388,597.6 381,593.5 		"/>
		<line class="st15" x1="376.6" y1="587.1" x2="376.6" y2="576.7"/>
		<line class="st15" x1="376.6" y1="608.6" x2="376.6" y2="596.6"/>
		<circle class="st15" cx="376.6" cy="591.9" r="4.7"/>
	</g>
	<line class="st16" x1="556.1" y1="198.7" x2="556.1" y2="389.1"/>
	<line class="st17" x1="504.7" y1="198.7" x2="504.7" y2="390.4"/>
	<line class="st1" x1="376.6" y1="437.3" x2="376.6" y2="566.1"/>
	<line class="st2" x1="376.6" y1="437.3" x2="376.6" y2="566.1"/>
	<line class="st18" x1="434.9" y1="259" x2="434.9" y2="372.5"/>
	<line class="st19" x1="376.4" y1="259" x2="376.4" y2="388.2"/>
	<line class="st20" x1="376.4" y1="259" x2="376.4" y2="388.2"/>
	<path class="st21" d="M437.8,291c0,1.7-1.3,2.9-2.8,2.9c-1.6,0-2.9-1.2-2.9-2.9c0-1.5,1.3-2.7,2.9-2.7
		C436.5,288.2,437.8,289.5,437.8,291z"/>
	<g>
		<g>
			<line class="st22" x1="376.5" y1="391.3" x2="376.5" y2="399.5"/>
		</g>
		<g>
			<path class="st23" d="M376.4,388.2c1.7,0,3,1.4,3,3c0,1.8-1.4,3.2-3,3.2c-1.8,0-3.2-1.4-3.2-3.2
				C373.3,389.6,374.7,388.2,376.4,388.2z"/>
			<path d="M376.4,387.6c2,0,3.7,1.7,3.7,3.7c0,2.2-1.7,3.8-3.7,3.8V394c1.4,0,2.5-1.1,2.5-2.7c0-1.4-1.1-2.5-2.5-2.5V387.6
				L376.4,387.6z M376.4,395.1V394c-1.5,0-2.7-1.1-2.7-2.7c0-1.4,1.1-2.5,2.7-2.5v-1.1c-2.2,0-3.8,1.7-3.8,3.7
				S374.3,395.1,376.4,395.1z"/>
		</g>
		<rect x="372.1" y="391.4" class="st23" width="8.5" height="4.1"/>
		<rect x="376.1" y="390.4" width="1" height="4.2"/>
		<rect x="376.1" y="390.4" class="st24" width="1" height="4.2"/>
	</g>
	<g>
		<g>
			<line class="st22" x1="504.9" y1="391.3" x2="504.9" y2="399.5"/>
		</g>
		<g>
			<path class="st23" d="M504.8,388.2c1.7,0,3,1.4,3,3c0,1.8-1.4,3.2-3,3.2c-1.8,0-3.2-1.4-3.2-3.2
				C501.6,389.6,503,388.2,504.8,388.2z"/>
			<path d="M504.8,387.6c2,0,3.7,1.7,3.7,3.7c0,2.2-1.7,3.8-3.7,3.8V394c1.4,0,2.5-1.1,2.5-2.7c0-1.4-1.1-2.5-2.5-2.5V387.6
				L504.8,387.6z M504.8,395.1V394c-1.5,0-2.7-1.1-2.7-2.7c0-1.4,1.1-2.5,2.7-2.5v-1.1c-2.2,0-3.8,1.7-3.8,3.7
				S502.7,395.1,504.8,395.1z"/>
		</g>
		<rect x="500.5" y="391.4" class="st23" width="8.5" height="4.1"/>
		<rect x="504.4" y="390.4" width="1" height="4.2"/>
		<rect x="504.4" y="390.4" class="st24" width="1" height="4.2"/>
	</g>
	<g>
		<g>
			<line class="st22" x1="556.3" y1="391.3" x2="556.3" y2="399.5"/>
		</g>
		<g>
			<path class="st23" d="M556.2,388.2c1.7,0,3,1.4,3,3c0,1.8-1.4,3.2-3,3.2c-1.8,0-3.2-1.4-3.2-3.2
				C553,389.6,554.4,388.2,556.2,388.2z"/>
			<path d="M556.2,387.6c2,0,3.7,1.7,3.7,3.7c0,2.2-1.7,3.8-3.7,3.8V394c1.4,0,2.5-1.1,2.5-2.7c0-1.4-1.1-2.5-2.5-2.5V387.6
				L556.2,387.6z M556.2,395.1V394c-1.5,0-2.7-1.1-2.7-2.7c0-1.4,1.1-2.5,2.7-2.5v-1.1c-2.2,0-3.8,1.7-3.8,3.7
				S554.1,395.1,556.2,395.1z"/>
		</g>
		<rect x="551.9" y="391.4" class="st23" width="8.5" height="4.1"/>
		<rect x="555.8" y="390.4" width="1" height="4.2"/>
		<rect x="555.8" y="390.4" class="st24" width="1" height="4.2"/>
	</g>
	<g>
		<g>
			<line class="st22" x1="434.8" y1="256" x2="434.8" y2="247.7"/>
		</g>
		<g>
			<path class="st23" d="M434.8,259c-1.7,0-3-1.4-3-3c0-1.8,1.4-3.2,3-3.2c1.8,0,3.2,1.4,3.2,3.2C438,257.6,436.6,259,434.8,259z"/>
			<path d="M434.8,259.6c-2,0-3.7-1.6-3.7-3.7c0-2.2,1.7-3.8,3.7-3.8v1.1c-1.4,0-2.5,1.1-2.5,2.7c0,1.4,1.1,2.5,2.5,2.5V259.6
				L434.8,259.6z M434.8,252.1v1.1c1.5,0,2.7,1.1,2.7,2.7c0,1.4-1.1,2.5-2.7,2.5v1.1c2.2,0,3.8-1.6,3.8-3.7
				C438.7,253.8,437,252.1,434.8,252.1z"/>
		</g>
		<rect x="430.7" y="251.8" class="st23" width="8.5" height="4.1"/>
		<rect x="434.2" y="252.7" width="1" height="4.2"/>
		<rect x="434.2" y="252.7" class="st24" width="1" height="4.2"/>
	</g>
	<g>
		<g>
			<line class="st22" x1="376.2" y1="255.9" x2="376.2" y2="247.7"/>
		</g>
		<g>
			<path class="st23" d="M376.3,259c-1.7,0-3-1.4-3-3c0-1.8,1.4-3.2,3-3.2c1.8,0,3.2,1.4,3.2,3.2C379.5,257.6,378.1,259,376.3,259z"
				/>
			<path d="M376.3,259.6c-2,0-3.7-1.6-3.7-3.7c0-2.2,1.7-3.8,3.7-3.8v1.1c-1.4,0-2.5,1.1-2.5,2.7c0,1.4,1.1,2.5,2.5,2.5V259.6
				L376.3,259.6z M376.3,252.1v1.1c1.5,0,2.7,1.1,2.7,2.7c0,1.4-1.1,2.5-2.7,2.5v1.1c2.2,0,3.8-1.6,3.8-3.7
				C380.1,253.8,378.5,252.1,376.3,252.1z"/>
		</g>
		<rect x="372.1" y="251.7" class="st23" width="8.5" height="4.1"/>
		<rect x="375.7" y="252.6" width="1" height="4.2"/>
		<rect x="375.7" y="252.6" class="st24" width="1" height="4.2"/>
	</g>
	<g>
		<g>
			<line class="st25" x1="434.9" y1="371.1" x2="434.9" y2="373.8"/>
		</g>
		<g>
			<line class="st25" x1="427.8" y1="373.8" x2="441.7" y2="373.8"/>
		</g>
		<g>
			<line class="st25" x1="430.7" y1="376" x2="438.9" y2="376"/>
		</g>
		<g>
			<line class="st25" x1="437.2" y1="378.1" x2="432.4" y2="378.1"/>
		</g>
	</g>
	<line class="st0" x1="376.6" y1="618.7" x2="376.6" y2="765.6"/>
	<line class="st0" x1="376.6" y1="618.7" x2="376.6" y2="765.6"/>
	<g id="_x30_2-上针脚_9_">
		<line class="st26" x1="376.7" y1="434.1" x2="376.7" y2="425.9"/>
		<path class="st23" d="M376.6,437.2c1.8,0,3.2-1.4,3.2-3c0-1.8-1.4-3.2-3.2-3.2c-1.6,0-3,1.4-3,3.2
			C373.6,435.8,374.9,437.2,376.6,437.2"/>
		<path d="M376.6,437.8c-2,0-3.7-1.6-3.7-3.7c0-2.2,1.7-3.8,3.7-3.8v1.2c-1.4,0-2.5,1.1-2.5,2.7c0,1.3,1.1,2.5,2.5,2.5V437.8z
			 M376.6,430.3v1.2c1.5,0,2.7,1.1,2.7,2.7c0,1.3-1.1,2.5-2.7,2.5v1.1c2.2,0,3.8-1.6,3.8-3.7S378.8,430.3,376.6,430.3"/>
		<rect x="372.6" y="429.9" class="st23" width="8.1" height="4.1"/>
		<rect x="376.2" y="430.8" width="1" height="4.2"/>
		<rect x="376.2" y="430.8" class="st24" width="1" height="4.2"/>
	</g>
	<g>
		<line class="st26" x1="376.6" y1="568.3" x2="376.6" y2="576.5"/>
		<path class="st23" d="M376.5,565.2c-1.7,0-3,1.4-3,3c0,1.8,1.4,3.2,3,3.2c1.8,0,3.2-1.4,3.2-3.2
			C379.7,566.6,378.3,565.2,376.5,565.2"/>
		<path d="M376.5,565.7c-1.4,0-2.5,1.2-2.5,2.5c0,1.6,1.1,2.7,2.5,2.7v1.2c-2,0-3.7-1.6-3.7-3.8c0-2.1,1.7-3.7,3.7-3.7V565.7z
			 M376.5,572.1c2.2,0,3.8-1.7,3.8-3.8s-1.6-3.7-3.8-3.7v1.1c1.6,0,2.7,1.2,2.7,2.5c0,1.6-1.2,2.7-2.7,2.7V572.1"/>
		<rect x="372.1" y="568.4" class="st23" width="8.9" height="4.1"/>
		<rect x="376.1" y="567.4" width="1" height="4.2"/>
		<rect x="376.1" y="567.4" class="st24" width="1" height="4.2"/>
	</g>
	<g id="_x30_2-上针脚_3_">
		<line class="st26" x1="376.6" y1="616.8" x2="376.6" y2="608.6"/>
		<path class="st23" d="M376.5,619.9c-1.7,0-3-1.4-3-3c0-1.8,1.4-3.2,3-3.2c1.8,0,3.2,1.4,3.2,3.2
			C379.7,618.5,378.3,619.9,376.5,619.9"/>
		<path d="M376.5,620.5c-2,0-3.7-1.6-3.7-3.7c0-2.2,1.7-3.8,3.7-3.8v1.2c-1.4,0-2.5,1.1-2.5,2.7c0,1.3,1.1,2.5,2.5,2.5V620.5z
			 M376.5,613v1.2c1.5,0,2.7,1.1,2.7,2.7c0,1.3-1.1,2.5-2.7,2.5v1.1c2.2,0,3.8-1.6,3.8-3.7C380.3,614.7,378.7,613,376.5,613"/>
		<rect x="372.5" y="612.6" class="st23" width="8.1" height="4.1"/>
		<rect x="376.1" y="613.5" width="1" height="4.2"/>
		<rect x="376.1" y="613.5" class="st24" width="1" height="4.2"/>
	</g>
	<g>
		<g>
			<line class="st25" x1="369.7" y1="766.3" x2="383.6" y2="766.3"/>
		</g>
		<g>
			<line class="st25" x1="372.6" y1="768.5" x2="380.7" y2="768.5"/>
		</g>
		<g>
			<line class="st25" x1="379.1" y1="770.6" x2="374.2" y2="770.6"/>
		</g>
	</g>
	<g>
		<circle class="st27" cx="376.6" cy="692.9" r="2.6"/>
	</g>
	<g>
		<rect x="366.5" y="773.1" class="st23" width="20.3" height="8.2"/>
		<rect x="366.9" y="773.5" class="st28" width="19.7" height="7.6"/>
	</g>
	<rect x="361.7" y="724.7" class="st23" width="29.8" height="7.1"/>
	<text transform="matrix(1 0 0 1 367.1486 730.0311)" class="st5 st6">B 2.5</text>
	<rect x="382.2" y="680.3" class="st29" width="27.9" height="6.9"/>
	<text transform="matrix(1 0 0 1 382.2267 685.6521)" class="st5 st6">SP3149</text>
	<g>
		<circle class="st27" cx="376.6" cy="494.6" r="2.6"/>
	</g>
	<rect x="381.2" y="483.2" class="st29" width="28.8" height="6.9"/>
	<text transform="matrix(1 0 0 1 381.6472 488.5687)" class="st5 st6">SP1815B</text>
	<rect x="361.7" y="651.4" class="st23" width="29.8" height="7.1"/>
	<text transform="matrix(1 0 0 1 367.1486 656.8126)" class="st5 st6">B 0.75</text>
	<rect x="373.2" y="450.6" class="st23" width="6.7" height="7.1"/>
	<text transform="matrix(1 0 0 1 363.8462 455.9504)" class="st5 st6">R/Y 0.75</text>
	<rect x="373.2" y="533.3" class="st23" width="6.7" height="7.1"/>
	<text transform="matrix(1 0 0 1 363.8464 538.6755)" class="st5 st6">R/Y 0.75</text>
	<g>
		<rect x="435.9" y="576.5" class="st13" width="32.4" height="32.2"/>
	</g>
	<g>
		<polyline class="st14" points="452.5,588.6 460.5,588.6 460.5,597.6 453.5,593.5 		"/>
		<line class="st15" x1="449.1" y1="587.1" x2="449.1" y2="576.7"/>
		<line class="st15" x1="449.1" y1="608.6" x2="449.1" y2="596.6"/>
		<circle class="st15" cx="449.1" cy="591.9" r="4.7"/>
	</g>
	<g>
		<line class="st26" x1="449.1" y1="568.3" x2="449.1" y2="576.5"/>
		<path class="st23" d="M449,565.2c-1.7,0-3,1.4-3,3c0,1.8,1.4,3.2,3,3.2c1.8,0,3.2-1.4,3.2-3.2C452.2,566.6,450.8,565.2,449,565.2"
			/>
		<path d="M449,565.7c-1.4,0-2.5,1.2-2.5,2.5c0,1.6,1.1,2.7,2.5,2.7v1.2c-2,0-3.7-1.6-3.7-3.8c0-2.1,1.7-3.7,3.7-3.7V565.7z
			 M449,572.1c2.2,0,3.8-1.7,3.8-3.8s-1.6-3.7-3.8-3.7v1.1c1.6,0,2.7,1.2,2.7,2.5c0,1.6-1.2,2.7-2.7,2.7V572.1"/>
		<rect x="444.6" y="568.4" class="st23" width="8.9" height="4.1"/>
		<rect x="448.6" y="567.4" width="1" height="4.2"/>
		<rect x="448.6" y="567.4" class="st24" width="1" height="4.2"/>
	</g>
	<g id="_x30_2-上针脚_1_">
		<line class="st26" x1="449.1" y1="616.8" x2="449.1" y2="608.6"/>
		<path class="st23" d="M449,619.9c-1.7,0-3-1.4-3-3c0-1.8,1.4-3.2,3-3.2c1.8,0,3.2,1.4,3.2,3.2C452.2,618.5,450.8,619.9,449,619.9"
			/>
		<path d="M449,620.5c-2,0-3.7-1.6-3.7-3.7c0-2.2,1.7-3.8,3.7-3.8v1.2c-1.4,0-2.5,1.1-2.5,2.7c0,1.3,1.1,2.5,2.5,2.5V620.5z
			 M449,613v1.2c1.5,0,2.7,1.1,2.7,2.7c0,1.3-1.1,2.5-2.7,2.5v1.1c2.2,0,3.8-1.6,3.8-3.7C452.8,614.7,451.2,613,449,613"/>
		<rect x="445" y="612.6" class="st23" width="8.1" height="4.1"/>
		<rect x="448.6" y="613.5" width="1" height="4.2"/>
		<rect x="448.6" y="613.5" class="st24" width="1" height="4.2"/>
	</g>
	<rect x="434.2" y="651.4" class="st23" width="29.8" height="7.1"/>
	<text transform="matrix(1 0 0 1 439.7037 656.8126)" class="st5 st6">B 0.75</text>
	<rect x="445.8" y="533.3" class="st23" width="6.7" height="7.1"/>
	<text transform="matrix(1 0 0 1 437.0747 538.6755)" class="st5 st6">R/Y 0.75</text>
	<rect x="369.4" y="270.9" class="st23" width="13.9" height="6"/>
	<g>
		<text transform="matrix(1 0 0 1 362.03 275.7347)" class="st5 st6">Y/B 0.22</text>
	</g>
	<rect x="369.4" y="353.2" class="st23" width="13.9" height="6"/>
	<g>
		<text transform="matrix(1 0 0 1 362.03 358.3601)" class="st5 st6">Y/B 0.22</text>
	</g>
	<rect x="427.9" y="270.9" class="st23" width="13.9" height="6"/>
	<g>
		<text transform="matrix(1 0 0 1 425.5414 275.7347)" class="st5 st6">B 0.5</text>
	</g>
	<rect x="427.9" y="305.6" class="st23" width="13.9" height="6"/>
	<g>
		<text transform="matrix(1 0 0 1 425.5414 310.4596)" class="st5 st6">B 0.5</text>
	</g>
	<rect x="428" y="353.2" class="st23" width="13.9" height="6"/>
	<g>
		<text transform="matrix(1 0 0 1 425.533 358.3599)" class="st5 st6">B 0.75</text>
	</g>
	<g>
		<rect x="424.5" y="380.6" class="st23" width="20.3" height="8.2"/>
		<rect x="424.8" y="381" class="st30" width="19.7" height="7.6"/>
	</g>
	<rect x="441.4" y="288" class="st31" width="29.1" height="5.6"/>
	<text transform="matrix(1 0 0 1 442.1356 292.9249)" class="st5 st6">SP2287G</text>
	<path class="st21" d="M437.8,328.9c0,1.7-1.3,2.9-2.8,2.9c-1.6,0-2.9-1.2-2.9-2.9c0-1.5,1.3-2.7,2.9-2.7
		C436.5,326.1,437.8,327.4,437.8,328.9z"/>
	<rect x="441.4" y="326" class="st31" width="24.9" height="5.6"/>
	<text transform="matrix(1 0 0 1 442.1356 330.8923)" class="st5 st6">SP2775</text>
	<line class="st16" x1="556.1" y1="437.7" x2="556.1" y2="698.4"/>
	<line class="st17" x1="504.7" y1="437.7" x2="504.7" y2="700.3"/>
	<path class="st32" d="M502.5,704.8l0.6,2.1c0,0,0.6,2.5,3.3,2.6h22.1l0,0l1.9,2.7l1.9-2.7c9,0,22.1,0,22.1,0
		c2.7-0.1,3.3-2.6,3.3-2.6l0.6-2.1"/>
	<path class="st33" d="M502,575.1c-1.9,0-3.5-1.5-3.5-3.5c0-1.9,1.6-3.5,3.5-3.5l57.7,6.9c1.9,0,3.5-1.5,3.5-3.5
		c0-1.9-1.6-3.5-3.5-3.5L502,575.1z"/>
	<g id="_x30_2-上针脚_5_">
		<line class="st26" x1="504.7" y1="434.5" x2="504.7" y2="426.3"/>
		<path class="st23" d="M504.6,437.6c-1.7,0-3-1.4-3-3c0-1.8,1.4-3.2,3-3.2c1.8,0,3.2,1.4,3.2,3.2
			C507.8,436.2,506.4,437.6,504.6,437.6"/>
		<path d="M504.7,438.2c-2,0-3.7-1.6-3.7-3.7c0-2.2,1.7-3.8,3.7-3.8v1.2c-1.4,0-2.5,1.1-2.5,2.7c0,1.3,1.1,2.5,2.5,2.5V438.2z
			 M504.7,430.7v1.2c1.5,0,2.7,1.1,2.7,2.7c0,1.3-1.1,2.5-2.7,2.5v1.1c2.2,0,3.8-1.6,3.8-3.7S506.9,430.7,504.7,430.7"/>
		<rect x="500.7" y="430.3" class="st23" width="8.1" height="4.1"/>
		<rect x="504.2" y="431.2" width="1" height="4.2"/>
		<rect x="504.2" y="431.2" class="st24" width="1" height="4.2"/>
	</g>
	<g id="_x30_2-上针脚_4_">
		<line class="st26" x1="556.1" y1="434.5" x2="556.1" y2="426.3"/>
		<path class="st23" d="M556,437.6c-1.7,0-3-1.4-3-3c0-1.8,1.4-3.2,3-3.2c1.8,0,3.2,1.4,3.2,3.2C559.2,436.2,557.8,437.6,556,437.6"
			/>
		<path d="M556.1,438.2c-2,0-3.7-1.6-3.7-3.7c0-2.2,1.7-3.8,3.7-3.8v1.2c-1.4,0-2.5,1.1-2.5,2.7c0,1.3,1.1,2.5,2.5,2.5V438.2z
			 M556.1,430.7v1.2c1.5,0,2.7,1.1,2.7,2.7c0,1.3-1.1,2.5-2.7,2.5v1.1c2.2,0,3.8-1.6,3.8-3.7S558.3,430.7,556.1,430.7"/>
		<rect x="552.1" y="430.3" class="st23" width="8.1" height="4.1"/>
		<rect x="555.6" y="431.2" width="1" height="4.2"/>
		<rect x="555.6" y="431.2" class="st24" width="1" height="4.2"/>
	</g>
	<g>
		<text transform="matrix(1 0 0 1 548.1519 423.8052)" class="st5 st34">CAN_H</text>
	</g>
	<g>
		<text transform="matrix(1 0 0 1 498.1038 423.8052)" class="st5 st34">CAN_L</text>
	</g>
	<g>
		<rect x="553.4" y="450.8" class="st23" width="5.9" height="6"/>
		<g>
			<text transform="matrix(1 0 0 1 548.4456 455.959)" class="st5 st6">P 0.35</text>
		</g>
	</g>
	<rect x="497.9" y="451.1" class="st23" width="13.7" height="6"/>
	<g>
		<text transform="matrix(1 0 0 1 495.369 455.9497)" class="st5 st6">V 0.35</text>
	</g>
	<path class="st32" d="M502.5,194.4l0.6-2.1c0,0,0.6-2.5,3.3-2.6h22.1l0,0l1.9-2.7l1.9,2.7c9,0,22.1,0,22.1,0
		c2.7,0.1,3.3,2.6,3.3,2.6l0.6,2.1"/>
	<path class="st33" d="M502,294.5c-1.9,0-3.5-1.5-3.5-3.5c0-1.9,1.6-3.5,3.5-3.5l57.7,6.9c1.9,0,3.5-1.5,3.5-3.5
		c0-1.9-1.6-3.5-3.5-3.5L502,294.5z"/>
	<g>
		<text transform="matrix(1 0 0 1 549.1523 405.0793)" class="st5 st34">CAN_H</text>
	</g>
	<g>
		<text transform="matrix(1 0 0 1 498.1043 405.0793)" class="st5 st34">CAN_L</text>
	</g>
	<g>
		<rect x="553.4" y="353.2" class="st23" width="5.9" height="6"/>
		<g>
			<text transform="matrix(1 0 0 1 548.446 358.3779)" class="st5 st6">P 0.35</text>
		</g>
	</g>
	<rect x="497.9" y="353.2" class="st23" width="13.7" height="6"/>
	<g>
		<text transform="matrix(1 0 0 1 495.3694 358.3599)" class="st5 st6">V 0.35</text>
	</g>
	<text transform="matrix(1 0 0 1 486.7966 722.0018)" class="st5 st6">See Body Network Circuit Diagram</text>
</g>
<g id="图层_2_1_">
	<g>
		<g>
			<text transform="matrix(1 0 0 1 369.0618 779.0415)" class="st35 st5 st6">Eb03</text>
		</g>
	</g>
	<g>
		<g>
			<text transform="matrix(1 0 0 1 426.9833 386.9705)" class="st35 st5 st6">Eg01</text>
		</g>
	</g>
	<g>
		<text transform="matrix(1 0 0 1 383.7852 433.949)" class="st35 st5 st6">BG64(C)</text>
	</g>
	<g>
		<text transform="matrix(1 0 0 1 409.2891 433.949)" class="st35 st5 st6">-5</text>
	</g>
	<g>
		<text transform="matrix(1 0 0 1 455.918 615.6736)" class="st35 st5 st6">B07(A)</text>
	</g>
	<g>
		<text transform="matrix(1 0 0 1 476.1675 615.6736)" class="st35 st5 st6">-2</text>
	</g>
	<g>
		<text transform="matrix(1 0 0 1 455.918 572.3318)" class="st35 st5 st6">B07(A)</text>
	</g>
	<g>
		<text transform="matrix(1 0 0 1 476.168 572.3325)" class="st35 st5 st6">-1</text>
	</g>
	<g>
		<text transform="matrix(1 0 0 1 381.5796 615.6736)" class="st35 st5 st6">B07(B)</text>
	</g>
	<g>
		<text transform="matrix(1 0 0 1 401.8291 615.6736)" class="st35 st5 st6">-2</text>
	</g>
	<g>
		<text transform="matrix(1 0 0 1 381.5796 572.3318)" class="st35 st5 st6">B07(B)</text>
	</g>
	<g>
		<text transform="matrix(1 0 0 1 401.8296 572.3325)" class="st35 st5 st6">-1</text>
	</g>
	<g>
		<text transform="matrix(1 0 0 1 440.8809 255.984)" class="st35 st5 st6">G18</text>
	</g>
	<g>
		<text transform="matrix(1 0 0 1 453.2144 255.7018)" class="st35 st5 st6">-2</text>
	</g>
	<g>
		<text transform="matrix(1 0 0 1 380.7217 255.4196)" class="st35 st5 st6">G18</text>
	</g>
	<g>
		<text transform="matrix(1 0 0 1 393.0552 255.1373)" class="st35 st5 st6">-8</text>
	</g>
	<g>
		<text transform="matrix(1 0 0 1 380.7217 397.3151)" class="st35 st5 st6">G64(G)</text>
	</g>
	<g>
		<text transform="matrix(1 0 0 1 402.2842 397.3151)" class="st35 st5 st6">-3</text>
	</g>
	<g>
		<text transform="matrix(1 0 0 1 562.2354 433.949)" class="st35 st5 st6">G64(G)</text>
	</g>
	<g>
		<text transform="matrix(1 0 0 1 583.8604 433.949)" class="st35 st5 st6">-56</text>
	</g>
	<g>
		<text transform="matrix(1 0 0 1 509.2095 433.949)" class="st35 st5 st6">G64(G)</text>
	</g>
	<g>
		<text transform="matrix(1 0 0 1 530.8345 433.949)" class="st35 st5 st6">-57</text>
	</g>
	<g>
		<text transform="matrix(1 0 0 1 562.2358 397.3151)" class="st35 st5 st6">G64(G)</text>
	</g>
	<g>
		<text transform="matrix(1 0 0 1 583.6577 397.3151)" class="st35 st5 st6">-52</text>
	</g>
	<g>
		<text transform="matrix(1 0 0 1 509.21 397.3151)" class="st35 st5 st6">G64(G)</text>
	</g>
	<g>
		<text transform="matrix(1 0 0 1 530.6318 397.3151)" class="st35 st5 st6">-53</text>
	</g>
	<g>
		<text transform="matrix(1 0 0 1 64.438 423.9951)" class="st5 st34">GND</text>
	</g>
	<line class="st18" x1="68.6" y1="435" x2="68.5" y2="766.5"/>
	<g>
		<g>
			<line class="st22" x1="68.6" y1="434.1" x2="68.6" y2="425.8"/>
		</g>
		<g>
			<path class="st23" d="M68.6,437.1c-1.7,0-3-1.4-3-3c0-1.8,1.4-3.2,3-3.2c1.8,0,3.2,1.4,3.2,3.2C71.8,435.7,70.4,437.1,68.6,437.1
				z"/>
			<path d="M68.6,437.7c-2,0-3.7-1.6-3.7-3.7c0-2.2,1.7-3.8,3.7-3.8v1.1c-1.4,0-2.5,1.1-2.5,2.7c0,1.4,1.1,2.5,2.5,2.5V437.7
				L68.6,437.7z M68.6,430.3v1.1c1.5,0,2.7,1.1,2.7,2.7c0,1.4-1.1,2.5-2.7,2.5v1.1c2.2,0,3.8-1.6,3.8-3.7
				C72.5,431.9,70.8,430.3,68.6,430.3z"/>
		</g>
		<rect x="64.5" y="429.9" class="st23" width="8.5" height="4.1"/>
		<rect x="68" y="430.8" width="1" height="4.2"/>
		<rect x="68" y="430.8" class="st24" width="1" height="4.2"/>
	</g>
	<rect x="65.6" y="454.7" class="st23" width="6.4" height="6"/>
	<g>
		<text transform="matrix(1 0 0 1 62.5942 459.4885)" class="st5 st6">B 2.5</text>
	</g>
	<g>
		<text transform="matrix(1 0 0 1 156.2578 423.9951)" class="st5 st34">GND</text>
	</g>
	<g id="GB031_9_">
		<g>
			<g>
				<line class="st25" x1="68.8" y1="764.7" x2="68.8" y2="767.3"/>
			</g>
			<g>
				<line class="st25" x1="61.8" y1="767.3" x2="75.6" y2="767.3"/>
			</g>
			<g>
				<line class="st25" x1="64.6" y1="769.6" x2="72.8" y2="769.6"/>
			</g>
			<g>
				<line class="st25" x1="71.1" y1="771.7" x2="66.3" y2="771.7"/>
			</g>
		</g>
		<g>
			<rect x="58.4" y="774.1" class="st23" width="20.3" height="8.2"/>
			<rect x="58.7" y="774.5" class="st30" width="19.7" height="7.6"/>
		</g>
	</g>
	<line class="st36" x1="230.2" y1="766.5" x2="230.3" y2="435"/>
	<line class="st36" x1="160.4" y1="435" x2="160.3" y2="766.5"/>
	<g>
		<g>
			<line class="st22" x1="160.4" y1="434.1" x2="160.4" y2="425.8"/>
		</g>
		<g>
			<path class="st23" d="M160.4,437.1c-1.6,0-2.9-1.4-3-3c0-1.8,1.4-3.3,3-3.3c1.8,0,3.2,1.4,3.2,3.2
				C163.6,435.7,162.2,437.2,160.4,437.1z"/>
			<path d="M160.5,437.7c-2,0-3.7-1.6-3.7-3.7c0-2.2,1.7-3.8,3.7-3.8v1.1c-1.4,0-2.5,1.1-2.5,2.7c0,1.4,1.1,2.5,2.5,2.5V437.7
				L160.5,437.7z M160.5,430.3v1.1c1.5,0,2.7,1.1,2.7,2.7c0,1.4-1.1,2.5-2.7,2.5v1.1c2.2,0,3.8-1.6,3.8-3.7S162.6,430.3,160.5,430.3
				z"/>
		</g>
		<rect x="156.3" y="429.9" class="st23" width="8.5" height="4.1"/>
		<rect x="159.8" y="430.8" width="1" height="4.2"/>
		<rect x="159.8" y="430.8" class="st24" width="1" height="4.2"/>
	</g>
	<rect x="157.4" y="454.7" class="st23" width="6.4" height="6"/>
	<g>
		<text transform="matrix(1 0 0 1 154.414 459.4885)" class="st5 st6">B 2.5</text>
	</g>
	<g>
		<text transform="matrix(1 0 0 1 298.4035 423.9941)" class="st5 st34">GND</text>
	</g>
	<g id="GB031_6_">
		<g>
			<g>
				<line class="st25" x1="302.5" y1="764.7" x2="302.5" y2="767.3"/>
			</g>
			<g>
				<line class="st25" x1="295.4" y1="767.3" x2="309.2" y2="767.3"/>
			</g>
			<g>
				<line class="st25" x1="298.2" y1="769.6" x2="306.4" y2="769.6"/>
			</g>
			<g>
				<line class="st25" x1="304.8" y1="771.7" x2="299.9" y2="771.7"/>
			</g>
		</g>
		<g>
			<rect x="292" y="774.1" class="st23" width="20.3" height="8.2"/>
			<rect x="292.3" y="774.5" class="st30" width="19.7" height="7.6"/>
		</g>
	</g>
	<line class="st18" x1="302.5" y1="435" x2="302.5" y2="766.5"/>
	<g>
		<g>
			<line class="st22" x1="302.5" y1="434.1" x2="302.5" y2="425.8"/>
		</g>
		<g>
			<path class="st23" d="M302.6,437.1c-1.7,0-3-1.4-3-3c0-1.8,1.4-3.2,3-3.2c1.8,0,3.2,1.4,3.2,3.2
				C305.8,435.7,304.4,437.1,302.6,437.1z"/>
			<path d="M302.6,437.7c-2,0-3.7-1.6-3.7-3.7c0-2.2,1.7-3.8,3.7-3.8v1.1c-1.4,0-2.5,1.1-2.5,2.7c0,1.4,1.1,2.5,2.5,2.5V437.7
				L302.6,437.7z M302.6,430.3v1.1c1.5,0,2.7,1.1,2.7,2.7c0,1.4-1.1,2.5-2.7,2.5v1.1c2.2,0,3.8-1.6,3.8-3.7S304.8,430.3,302.6,430.3
				z"/>
		</g>
		<rect x="298.4" y="429.9" class="st23" width="8.5" height="4.1"/>
		<rect x="302" y="430.8" width="1" height="4.2"/>
		<rect x="302" y="430.8" class="st24" width="1" height="4.2"/>
	</g>
	<rect x="299.5" y="454.7" class="st23" width="6.4" height="6"/>
	<g>
		<text transform="matrix(1 0 0 1 294.5598 459.4885)" class="st5 st6">B 2.5</text>
	</g>
	<g>
		<text transform="matrix(1 0 0 1 226.1323 423.9941)" class="st5 st34">GND</text>
	</g>
	<g id="GB031_4_">
		<g>
			<g>
				<line class="st25" x1="229.8" y1="764.7" x2="229.8" y2="767.3"/>
			</g>
			<g>
				<line class="st25" x1="222.8" y1="767.3" x2="236.6" y2="767.3"/>
			</g>
			<g>
				<line class="st25" x1="225.6" y1="769.6" x2="233.8" y2="769.6"/>
			</g>
			<g>
				<line class="st25" x1="232.2" y1="771.7" x2="227.3" y2="771.7"/>
			</g>
		</g>
		<g>
			<rect x="219.4" y="774.1" class="st23" width="20.3" height="8.2"/>
			<rect x="219.7" y="774.5" class="st30" width="19.7" height="7.6"/>
		</g>
	</g>
	<g>
		<g>
			<line class="st22" x1="230.3" y1="434.1" x2="230.3" y2="425.8"/>
		</g>
		<g>
			<path class="st23" d="M230.3,437.1c-1.7,0-3-1.4-3-3c0-1.8,1.4-3.2,3-3.2c1.8,0,3.2,1.4,3.2,3.2
				C233.5,435.7,232.1,437.1,230.3,437.1z"/>
			<path d="M230.3,437.7c-2,0-3.7-1.6-3.7-3.7c0-2.2,1.7-3.8,3.7-3.8v1.1c-1.4,0-2.5,1.1-2.5,2.7c0,1.4,1.1,2.5,2.5,2.5V437.7
				L230.3,437.7z M230.3,430.3v1.1c1.5,0,2.7,1.1,2.7,2.7c0,1.4-1.1,2.5-2.7,2.5v1.1c2.2,0,3.8-1.6,3.8-3.7
				C234.2,431.9,232.5,430.3,230.3,430.3z"/>
		</g>
		<rect x="226.2" y="429.9" class="st23" width="8.5" height="4.1"/>
		<rect x="229.7" y="430.8" width="1" height="4.2"/>
		<rect x="229.7" y="430.8" class="st24" width="1" height="4.2"/>
	</g>
	<rect x="227.3" y="454.7" class="st23" width="6.4" height="6"/>
	<g>
		<text transform="matrix(1 0 0 1 222.2885 459.4885)" class="st5 st6">B 0.75</text>
	</g>
	<g id="REB_x2C_A3_2_">
		<rect x="47.2" y="139.7" class="st37" width="48.4" height="56.3"/>
	</g>
	<g id="RF22_x2C_A3_2_">
		<g>
			<g>
				<path class="st38" d="M69.1,171c-1.2,0-2.2,1-2.2,2.2s1,2.2,2.2,2.2s2.2-1,2.2-2.2C71.4,172,70.4,171,69.1,171"/>
			</g>
			<g>
				<path class="st38" d="M69.1,155.2c-1.2,0-2.2,1-2.2,2.1c0,1.2,1,2.2,2.2,2.2s2.2-0.9,2.2-2.2C71.4,156.2,70.4,155.2,69.1,155.2"
					/>
			</g>
			<g>
				<path class="st38" d="M67.7,159c-0.1,2.5,0.2,3.2,1.3,4.3c1.2,1.2,2.4,1.7,2.8,3.7c0.4,1.6-0.1,3.5-1.1,4.5"/>
			</g>
			<g>
				<path class="st38" d="M70.6,171.6c0.2-0.8,0-2.9-0.6-3.7c-0.9-1.2-2.7-2.1-3.3-4c-0.9-2.8,0.7-4.6,1.1-5"/>
			</g>
		</g>
	</g>
	<line class="st1" x1="69.3" y1="204.5" x2="69.3" y2="389.4"/>
	<line class="st1" x1="69.3" y1="204.5" x2="69.3" y2="389.4"/>
	<g>
		<g>
			<polyline class="st22" points="69.1,175.4 69.1,179.4 69.1,196 			"/>
		</g>
	</g>
	<g>
		<g>
			<polyline class="st22" points="69.1,154.9 69.1,150.8 69.1,48 			"/>
		</g>
	</g>
	<g>
		<g>
			<line class="st22" x1="69.2" y1="204.5" x2="69.2" y2="196.2"/>
		</g>
		<g>
			<path class="st23" d="M69.3,207.5c-1.7,0-3-1.4-3-3c0-1.8,1.4-3.2,3-3.2c1.8,0,3.2,1.4,3.2,3.2C72.4,206.1,71,207.5,69.3,207.5z"
				/>
			<path d="M69.3,208.2c-2,0-3.7-1.6-3.7-3.7c0-2.2,1.7-3.8,3.7-3.8v1.1c-1.4,0-2.5,1.1-2.5,2.7c0,1.4,1.1,2.5,2.5,2.5V208.2
				L69.3,208.2z M69.3,200.7v1.1c1.5,0,2.7,1.1,2.7,2.7c0,1.4-1.1,2.5-2.7,2.5v1.1c2.2,0,3.8-1.6,3.8-3.7
				C73.1,202.3,71.4,200.7,69.3,200.7z"/>
		</g>
		<rect x="65.1" y="200.3" class="st23" width="8.5" height="4.1"/>
		<rect x="68.6" y="201.2" width="1" height="4.2"/>
		<rect x="68.6" y="201.2" class="st24" width="1" height="4.2"/>
	</g>
	<g>
		<g>
			<line class="st22" x1="69.5" y1="391.4" x2="69.5" y2="399.7"/>
		</g>
		<g>
			<path class="st23" d="M69.4,388.4c1.7,0,3,1.4,3,3c0,1.8-1.4,3.2-3,3.2c-1.8,0-3.2-1.4-3.2-3.2C66.2,389.8,67.6,388.4,69.4,388.4
				z"/>
			<path d="M69.4,387.8c2,0,3.7,1.7,3.7,3.7c0,2.2-1.7,3.8-3.7,3.8v-1.1c1.4,0,2.5-1.1,2.5-2.7c0-1.4-1.1-2.5-2.5-2.5V387.8
				L69.4,387.8z M69.4,395.3v-1.1c-1.5,0-2.7-1.1-2.7-2.7c0-1.4,1.1-2.5,2.7-2.5v-1.1c-2.2,0-3.8,1.7-3.8,3.7
				C65.6,393.6,67.2,395.3,69.4,395.3z"/>
		</g>
		<rect x="65.1" y="391.6" class="st23" width="8.5" height="4.1"/>
		<rect x="69" y="390.6" width="1" height="4.2"/>
		<rect x="69" y="390.6" class="st24" width="1" height="4.2"/>
	</g>
	<rect x="62.8" y="235.8" class="st23" width="12.7" height="6"/>
	<g>
		<path class="st39" d="M66,47.7c0-1.7,1.3-2.9,2.8-2.9c1.6,0,2.9,1.2,2.9,2.9c0,1.5-1.3,2.7-2.9,2.7C67.3,50.5,66,49.2,66,47.7z"/>
		<g>
			<path class="st40" d="M66,47.7c0-1.7,1.3-2.9,2.8-2.9c1.6,0,2.9,1.2,2.9,2.9c0,1.5-1.3,2.7-2.9,2.7C67.3,50.5,66,49.2,66,47.7"/>
		</g>
	</g>
	<rect x="62.8" y="359.2" class="st23" width="12.7" height="6"/>
	<rect x="62.8" y="359.2" class="st23" width="12.5" height="6"/>
	<g>
		<text transform="matrix(1 0 0 1 58.6982 364.1558)" class="st5 st6">R 20.0</text>
	</g>
	<g>
		<text transform="matrix(1 0 0 1 58.6977 241.0156)" class="st5 st6">R 20.0</text>
	</g>
	<g>
		<g>
			<text transform="matrix(1 0 0 1 73.5019 170.5938)" class="st5 st6">200A</text>
		</g>
	</g>
	<g>
		<text transform="matrix(1 0 0 1 73.8296 163.9756)" class="st35 st5 st6">F4/02</text>
	</g>
	<g>
		<text transform="matrix(1 0 0 1 73.7915 434.5723)" class="st35 st5 st6">KG64(E)</text>
	</g>
	<g>
		<text transform="matrix(1 0 0 1 98.7915 434.5728)" class="st35 st5 st6">-8</text>
	</g>
	<g>
		<text transform="matrix(1 0 0 1 164.6733 433.5723)" class="st35 st5 st6">KG64(E)</text>
	</g>
	<g>
		<text transform="matrix(1 0 0 1 189.6733 433.5728)" class="st35 st5 st6">-20</text>
	</g>
	<g>
		<text transform="matrix(1 0 0 1 61.064 780.5082)" class="st35 st5 st6">Ek01</text>
	</g>
	<g id="GB031_14_">
		<g>
			<g>
				<line class="st25" x1="160.7" y1="764.7" x2="160.7" y2="767.3"/>
			</g>
			<g>
				<line class="st25" x1="153.6" y1="767.3" x2="167.4" y2="767.3"/>
			</g>
			<g>
				<line class="st25" x1="156.4" y1="769.6" x2="164.6" y2="769.6"/>
			</g>
			<g>
				<line class="st25" x1="163" y1="771.7" x2="158.1" y2="771.7"/>
			</g>
		</g>
		<g>
			<rect x="150.2" y="774.1" class="st23" width="20.3" height="8.2"/>
			<rect x="150.5" y="774.5" class="st30" width="19.7" height="7.6"/>
		</g>
	</g>
	<g>
		<text transform="matrix(1 0 0 1 152.8833 780.5082)" class="st35 st5 st6">Ek05</text>
	</g>
	<g>
		<text transform="matrix(1 0 0 1 306.8188 433.5712)" class="st35 st5 st6">KG64(E)</text>
	</g>
	<g>
		<text transform="matrix(1 0 0 1 331.5688 433.5717)" class="st35 st5 st6">-13</text>
	</g>
	<g>
		<text transform="matrix(1 0 0 1 294.7192 780.5073)" class="st35 st5 st6">Ek03</text>
	</g>
	<g>
		<text transform="matrix(1 0 0 1 234.5474 433.5712)" class="st35 st5 st6">BG64(B)</text>
	</g>
	<g>
		<text transform="matrix(1 0 0 1 259.5474 433.5712)" class="st35 st5 st6">-43</text>
	</g>
	<g>
		<text transform="matrix(1 0 0 1 221.9292 780.5073)" class="st35 st5 st6">Eb03</text>
	</g>
	<g>
		<text transform="matrix(1 0 0 1 73.4487 203.2333)" class="st35 st5 st6">KB46_B</text>
	</g>
	<g>
		<text transform="matrix(1 0 0 1 97.3237 203.2333)" class="st35 st5 st6">-1</text>
	</g>
	<g>
		<text transform="matrix(1 0 0 1 74.7915 396.8281)" class="st35 st5 st6">KG64(A)</text>
	</g>
	<g>
		<text transform="matrix(1 0 0 1 101.2915 396.8281)" class="st35 st5 st6">-4</text>
	</g>
	<g id="REB_x2C_A3_4_">
		<rect x="132.2" y="139.7" class="st37" width="130.1" height="56.3"/>
	</g>
	<g>
		<line class="st1" x1="160.9" y1="206.5" x2="160.9" y2="389.6"/>
	</g>
	<g>
		<line class="st41" x1="160.9" y1="206.5" x2="160.9" y2="389.6"/>
	</g>
	<line class="st42" x1="230.2" y1="206.8" x2="230.2" y2="389.9"/>
	<line class="st42" x1="230.2" y1="206.8" x2="230.2" y2="389.9"/>
	<line class="st43" x1="230.2" y1="206.8" x2="230.2" y2="389.9"/>
	<rect x="237" y="289.8" class="st31" width="25.3" height="5.6"/>
	<text transform="matrix(1 0 0 1 237.701 294.6505)" class="st5 st6">SP1914</text>
	<path class="st21" d="M233.3,292.6c0,1.7-1.3,2.9-2.8,2.9c-1.6,0-2.9-1.2-2.9-2.9c0-1.5,1.3-2.7,2.9-2.7
		C232.1,289.9,233.3,291.1,233.3,292.6z"/>
	<rect x="167.4" y="289.5" class="st31" width="25.3" height="5.6"/>
	<text transform="matrix(1 0 0 1 168.0756 294.3336)" class="st5 st6">SP3322</text>
	<path class="st21" d="M163.7,292.3c0,1.7-1.3,2.9-2.8,2.9c-1.6,0-2.9-1.2-2.9-2.9c0-1.5,1.3-2.7,2.9-2.7
		C162.4,289.6,163.7,290.8,163.7,292.3z"/>
	<g id="RF22_x2C_A3_5_">
		<g>
			<g>
				<path class="st38" d="M230.1,171c-1.2,0-2.2,1-2.2,2.2s1,2.2,2.2,2.2s2.2-1,2.2-2.2C232.4,172,231.4,171,230.1,171"/>
			</g>
			<g>
				<path class="st38" d="M230.1,155.2c-1.2,0-2.2,1-2.2,2.1c0,1.2,1,2.2,2.2,2.2s2.2-0.9,2.2-2.2
					C232.4,156.2,231.4,155.2,230.1,155.2"/>
			</g>
			<g>
				<path class="st38" d="M228.6,159c-0.1,2.5,0.2,3.2,1.3,4.3c1.2,1.2,2.4,1.7,2.8,3.7c0.4,1.6-0.1,3.5-1.1,4.5"/>
			</g>
			<g>
				<path class="st38" d="M231.5,171.6c0.2-0.8,0-2.9-0.6-3.7c-0.9-1.2-2.7-2.1-3.3-4c-0.9-2.8,0.7-4.6,1.1-5"/>
			</g>
		</g>
	</g>
	<g>
		<g>
			<polyline class="st22" points="230.1,175.4 230.1,193 230.1,195.9 			"/>
		</g>
	</g>
	<g>
		<g>
			<polyline class="st22" points="230.1,154.9 230.1,150.8 230.1,83 			"/>
		</g>
	</g>
	<g>
		<g>
			<line class="st22" x1="230.2" y1="204.5" x2="230.2" y2="196.2"/>
		</g>
		<g>
			<path class="st23" d="M230.2,207.5c-1.7,0-3-1.4-3-3c0-1.8,1.4-3.2,3-3.2c1.8,0,3.2,1.4,3.2,3.2
				C233.4,206.1,232,207.5,230.2,207.5z"/>
			<path d="M230.2,208.2c-2,0-3.7-1.6-3.7-3.7c0-2.2,1.7-3.8,3.7-3.8v1.1c-1.4,0-2.5,1.1-2.5,2.7c0,1.4,1.1,2.5,2.5,2.5V208.2
				L230.2,208.2z M230.2,200.7v1.1c1.5,0,2.7,1.1,2.7,2.7c0,1.4-1.1,2.5-2.7,2.5v1.1c2.2,0,3.8-1.6,3.8-3.7
				C234.1,202.3,232.4,200.7,230.2,200.7z"/>
		</g>
		<rect x="226.1" y="200.3" class="st23" width="8.5" height="4.1"/>
		<rect x="229.6" y="201.2" width="1" height="4.2"/>
		<rect x="229.6" y="201.2" class="st24" width="1" height="4.2"/>
	</g>
	<g>
		<g>
			<line class="st22" x1="230.5" y1="391.9" x2="230.5" y2="400.1"/>
		</g>
		<g>
			<path class="st23" d="M230.4,388.8c1.7,0,3,1.4,3,3c0,1.8-1.4,3.2-3,3.2c-1.8,0-3.2-1.4-3.2-3.2
				C227.2,390.2,228.6,388.8,230.4,388.8z"/>
			<path d="M230.4,388.2c2,0,3.7,1.7,3.7,3.7c0,2.2-1.7,3.8-3.7,3.8v-1.1c1.4,0,2.5-1.1,2.5-2.7c0-1.4-1.1-2.5-2.5-2.5V388.2
				L230.4,388.2z M230.4,395.7v-1.1c-1.5,0-2.7-1.1-2.7-2.7c0-1.4,1.1-2.5,2.7-2.5v-1.1c-2.2,0-3.8,1.7-3.8,3.7
				C226.6,394,228.2,395.7,230.4,395.7z"/>
		</g>
		<rect x="226.1" y="392" class="st23" width="8.5" height="4.1"/>
		<rect x="230" y="391" width="1" height="4.2"/>
		<rect x="230" y="391" class="st24" width="1" height="4.2"/>
	</g>
	<rect x="217.9" y="234.6" class="st23" width="25.5" height="6"/>
	<g>
		<text transform="matrix(1 0 0 1 215.6803 239.6925)" class="st5 st6">R/W 0.35</text>
	</g>
	<g>
		<path class="st39" d="M227,82.7c0-1.7,1.3-2.9,2.8-2.9c1.6,0,2.9,1.2,2.9,2.9c0,1.5-1.3,2.7-2.9,2.7C228.3,85.5,227,84.2,227,82.7
			z"/>
		<g>
			<path class="st40" d="M227,82.7c0-1.7,1.3-2.9,2.8-2.9c1.6,0,2.9,1.2,2.9,2.9c0,1.5-1.3,2.7-2.9,2.7
				C228.3,85.5,227,84.2,227,82.7"/>
		</g>
	</g>
	<rect x="210.8" y="357.7" class="st23" width="25.7" height="6"/>
	<rect x="210.8" y="357.7" class="st23" width="25.5" height="6"/>
	<g>
		<text transform="matrix(1 0 0 1 215.6803 362.5953)" class="st5 st6">R/W 0.35</text>
	</g>
	<g>
		<g>
			<text transform="matrix(1 0 0 1 234.4841 170.5939)" class="st5 st6">7.5A</text>
		</g>
	</g>
	<g id="RF22_x2C_A3_1_">
		<g>
			<g>
				<path class="st38" d="M160.8,170.8c-1.2,0-2.2,1-2.2,2.2s1,2.2,2.2,2.2s2.2-1,2.2-2.2S162,170.8,160.8,170.8"/>
			</g>
			<g>
				<path class="st38" d="M160.8,155c-1.2,0-2.2,1-2.2,2.1c0,1.2,1,2.2,2.2,2.2s2.2-0.9,2.2-2.2C163,156,162,155,160.8,155"/>
			</g>
			<g>
				<path class="st38" d="M159.3,158.7c-0.1,2.5,0.2,3.2,1.3,4.3c1.2,1.2,2.4,1.7,2.8,3.7c0.4,1.6-0.1,3.5-1.1,4.5"/>
			</g>
			<g>
				<path class="st38" d="M162.2,171.3c0.2-0.8,0-2.9-0.6-3.7c-0.9-1.2-2.7-2.1-3.3-4c-0.9-2.8,0.7-4.6,1.1-5"/>
			</g>
		</g>
	</g>
	<g>
		<text transform="matrix(1 0 0 1 154.0701 404.9288)" class="st5 st34">IG3 Power supply</text>
	</g>
	<g>
		<text transform="matrix(1 0 0 1 224.4451 404.9288)" class="st5 st34">IG4 Power supply</text>
	</g>
	<g>
		<g>
			<polyline class="st22" points="160.8,175.3 160.8,192.9 160.8,195.9 			"/>
		</g>
	</g>
	<g>
		<g>
			<polyline class="st22" points="160.8,154.7 160.8,150.5 160.8,70.7 			"/>
		</g>
	</g>
	<g>
		<g>
			<line class="st22" x1="160.8" y1="204.2" x2="160.8" y2="196"/>
		</g>
		<g>
			<path class="st23" d="M160.9,207.3c-1.7,0-3-1.4-3-3c0-1.8,1.4-3.2,3-3.2c1.8,0,3.2,1.4,3.2,3.2
				C164.1,205.9,162.7,207.3,160.9,207.3z"/>
			<path d="M160.9,207.9c-2,0-3.7-1.6-3.7-3.7c0-2.2,1.7-3.8,3.7-3.8v1.1c-1.4,0-2.5,1.1-2.5,2.7c0,1.4,1.1,2.5,2.5,2.5V207.9
				L160.9,207.9z M160.9,200.4v1.1c1.5,0,2.7,1.1,2.7,2.7c0,1.4-1.1,2.5-2.7,2.5v1.1c2.2,0,3.8-1.6,3.8-3.7
				C164.7,202.1,163,200.4,160.9,200.4z"/>
		</g>
		<rect x="156.7" y="200" class="st23" width="8.5" height="4.1"/>
		<rect x="160.2" y="200.9" width="1" height="4.2"/>
		<rect x="160.2" y="200.9" class="st24" width="1" height="4.2"/>
	</g>
	<g>
		<g>
			<line class="st22" x1="161.1" y1="391.6" x2="161.1" y2="399.9"/>
		</g>
		<g>
			<path class="st23" d="M161,388.6c1.7,0,3,1.4,3,3c0,1.8-1.4,3.2-3,3.2c-1.8,0-3.2-1.4-3.2-3.2C157.8,390,159.2,388.6,161,388.6z"
				/>
			<path d="M161,388c2,0,3.7,1.7,3.7,3.7c0,2.2-1.7,3.8-3.7,3.8v-1.1c1.4,0,2.5-1.1,2.5-2.7c0-1.4-1.1-2.5-2.5-2.5V388L161,388z
				 M161,395.4v-1.1c-1.5,0-2.7-1.1-2.7-2.7c0-1.4,1.1-2.5,2.7-2.5V388c-2.2,0-3.8,1.7-3.8,3.7C157.2,393.8,158.9,395.4,161,395.4z"
				/>
		</g>
		<rect x="156.7" y="391.8" class="st23" width="8.5" height="4.1"/>
		<rect x="160.6" y="390.8" width="1" height="4.2"/>
		<rect x="160.6" y="390.8" class="st24" width="1" height="4.2"/>
	</g>
	<rect x="154.6" y="234.9" class="st23" width="12.5" height="6"/>
	<g>
		<text transform="matrix(1 0 0 1 146.7509 239.6925)" class="st5 st6">B/R 0.75</text>
	</g>
	<rect x="154.6" y="357.4" class="st23" width="12.5" height="6"/>
	<g>
		<text transform="matrix(1 0 0 1 146.7509 362.161)" class="st5 st6">B/R 0.75</text>
	</g>
	<g>
		<path class="st39" d="M157.6,70.5c0-1.7,1.3-2.9,2.8-2.9c1.6,0,2.9,1.2,2.9,2.9c0,1.5-1.3,2.7-2.9,2.7
			C158.9,73.2,157.6,72,157.6,70.5z"/>
		<g>
			<path class="st40" d="M157.6,70.5c0-1.7,1.3-2.9,2.8-2.9c1.6,0,2.9,1.2,2.9,2.9c0,1.5-1.3,2.7-2.9,2.7
				C158.9,73.2,157.6,72,157.6,70.5"/>
		</g>
	</g>
	<g>
		<g>
			<text transform="matrix(1 0 0 1 165.1165 170.3434)" class="st5 st6">10A</text>
		</g>
	</g>
	<g>
		<text transform="matrix(1 0 0 1 234.2804 163.9758)" class="st35 st5 st6">F1/12</text>
	</g>
	<g>
		<text transform="matrix(1 0 0 1 164.9129 163.7253)" class="st35 st5 st6">F1/23</text>
	</g>
	<g>
		<text transform="matrix(1 0 0 1 234.4316 203.2333)" class="st35 st5 st6">B1D</text>
	</g>
	<g>
		<text transform="matrix(1 0 0 1 246.9316 202.9833)" class="st35 st5 st6">-9</text>
	</g>
	<g>
		<text transform="matrix(1 0 0 1 235.7744 397.27)" class="st35 st5 st6">BG64(B)</text>
	</g>
	<g>
		<text transform="matrix(1 0 0 1 260.7446 397.02)" class="st35 st5 st6">-48</text>
	</g>
	<g>
		<text transform="matrix(1 0 0 1 165.064 202.9833)" class="st35 st5 st6">B1C</text>
	</g>
	<g>
		<text transform="matrix(1 0 0 1 177.564 202.9833)" class="st35 st5 st6">-30</text>
	</g>
	<g>
		<text transform="matrix(1 0 0 1 166.4067 397.02)" class="st35 st5 st6">BG64(B)</text>
	</g>
	<g>
		<text transform="matrix(1 0 0 1 191.377 397.02)" class="st35 st5 st6">-47</text>
	</g>
	<text transform="matrix(1 0 0 1 365.926 423.8048)" class="st5 st34">Horn contral</text>
	<g>
		<text transform="matrix(1 0 0 1 358.1416 405.0793)" class="st5 st34">Horn control signal acquisition</text>
	</g>
	<g>
		<text transform="matrix(1 0 0 1 449.8384 199.1085)" class="st5 st6">Speaker switch</text>
	</g>
	<text transform="matrix(1 0 0 1 478.9889 180.8793)" class="st5 st6">See Intelligent Access Network Circuit Diagram</text>
	<g>
		<text transform="matrix(1 0 0 1 329.8113 415.2875)" class="st44 st5 st45">Left Body Controller</text>
	</g>
	<g>
		<text transform="matrix(1 0 0 1 398.5856 594.3844)" class="st44 st5 st6">Right Horn</text>
	</g>
	<g>
		<text transform="matrix(1 0 0 1 471.1407 594.3844)" class="st44 st5 st6">Left Horn</text>
	</g>
	<g>
		<g>
			<text transform="matrix(1 0 0 1 454.8384 236.3011)" class="st44 st5 st6">Clock Spring</text>
		</g>
	</g>
	<g>
		<text transform="matrix(1 0 0 1 56.5843 405.0792)" class="st5 st34">Constant power</text>
	</g>
	<g>
		<text transform="matrix(1 0 0 1 73.8296 134.1107)" class="st46 st5 st6">Positive Fuse Box</text>
	</g>
	<g>
		<text transform="matrix(1 0 0 1 236.9886 134.1106)" class="st46 st5 st6"> Front Compartment Distribution Box</text>
	</g>
</g>
</svg>
