<?xml version="1.0" encoding="utf-8"?>
<!-- Generator: Adobe Illustrator 24.0.1, SVG Export Plug-In . SVG Version: 6.00 Build 0)  -->
<svg version="1.1" id="图层_1" xmlns="http://www.w3.org/2000/svg" xmlns:xlink="http://www.w3.org/1999/xlink" x="0px" y="0px"
	 viewBox="0 0 912.1 841.9" style="enable-background:new 0 0 912.1 841.9;" xml:space="preserve">
<style type="text/css">
	.st0{fill:none;stroke:#000000;stroke-width:3;stroke-miterlimit:10;}
	.st1{fill:#DCDDDD;}
	.st2{fill:none;stroke:#040000;stroke-width:0.5;}
	.st3{fill:none;stroke:#040000;stroke-width:0.75;}
	.st4{enable-background:new    ;}
	.st5{font-family:'FZLTHJW--GB1-0';}
	.st6{font-size:6px;}
	.st7{fill:#9FD9F6;}
	.st8{fill:none;stroke:#000000;stroke-width:0.5;stroke-linecap:round;stroke-miterlimit:10;}
	.st9{font-size:4px;}
	.st10{fill:none;stroke:#000000;stroke-width:0.5;stroke-miterlimit:10;}
	.st11{fill:none;stroke:#009944;stroke-width:3;stroke-miterlimit:10;}
	.st12{fill:none;stroke:#FFF100;stroke-width:3;stroke-miterlimit:10;}
	.st13{fill:none;stroke:#000000;stroke-width:1.3;}
	.st14{fill:none;stroke:#000000;stroke-width:0.6;stroke-linejoin:round;}
	.st15{fill:#FFFFFF;}
	.st16{fill:none;stroke:#000000;stroke-width:0.72;stroke-linecap:round;stroke-linejoin:round;}
	.st17{fill:none;stroke:#E60012;stroke-miterlimit:10;}
	.st18{fill:none;stroke:#E60012;stroke-width:3;stroke-miterlimit:10;}
	.st19{fill:none;stroke:#000000;stroke-width:0.5;stroke-linejoin:round;}
	.st20{fill:none;stroke:#060001;stroke-width:0.75;}
	.st21{fill:#040000;}
	.st22{fill:none;stroke:#FFFFFF;stroke-width:0.5;stroke-linecap:round;}
	.st23{fill:none;stroke:#FFFFFF;}
	.st24{fill:none;stroke:#000000;stroke-miterlimit:10;}
	.st25{fill:none;stroke:#000000;stroke-width:3;}
	.st26{fill:none;stroke:#FFFFFF;stroke-miterlimit:10;}
	.st27{fill:none;stroke:#070102;stroke-width:0.25;stroke-linecap:round;stroke-linejoin:round;}
	.st28{fill:none;stroke:#000000;stroke-width:0.25;stroke-linecap:round;stroke-linejoin:round;}
	.st29{fill:#005EAD;}
	.st30{fill:none;stroke:#FFFFFF;stroke-width:0.5;}
	.st31{fill:none;stroke:#000000;stroke-width:0.25;}
	.st32{fill:#065AA1;}
	.st33{fill:none;stroke:#898989;stroke-miterlimit:10;}
	.st34{fill:#FFFFFF;stroke:#000000;stroke-width:0.25;stroke-linecap:round;stroke-linejoin:round;}
	.st35{fill:#FFFFFF;stroke:#000000;stroke-width:0.25;}
	.st36{stroke:#FFFFFF;stroke-width:0.5;}
	.st37{fill:#DCDDDD;stroke:#000000;stroke-width:0.5;stroke-linecap:round;stroke-miterlimit:10;}
	.st38{fill:none;stroke:#E60012;stroke-width:3;stroke-linecap:round;stroke-miterlimit:10;}
	.st39{fill:#E60012;stroke:#E60012;stroke-width:3;stroke-linecap:round;stroke-miterlimit:10;}
	.st40{fill:none;stroke:#FFFFFF;stroke-linecap:round;stroke-miterlimit:10;}
	.st41{fill:none;stroke:#000000;stroke-width:0.6;stroke-linecap:round;stroke-linejoin:round;}
	.st42{stroke:#FFFFFF;stroke-width:0.5;stroke-linecap:round;}
	.st43{fill:none;stroke:#FFFFFF;stroke-width:1.0001;}
	.st44{fill:#DCDDDD;stroke:#0A0204;stroke-linecap:round;}
	.st45{fill:none;stroke:#070102;stroke-width:0.6001;}
	.st46{fill:none;stroke:#070102;stroke-width:0.6001;stroke-linecap:round;stroke-dasharray:3.0005,1.8003;}
	.st47{fill:#FFFFFF;stroke:#070102;stroke-width:0.6001;}
	.st48{fill:none;stroke:#070102;stroke-width:0.6001;stroke-linecap:round;stroke-linejoin:round;}
	.st49{fill:#FFFFFF;stroke:#0A0204;stroke-width:1.0001;}
	.st50{fill:none;stroke:#0A0204;stroke-width:1.0001;}
	.st51{fill:#090103;}
	.st52{fill:none;stroke:#FFFFFF;stroke-width:0.6001;}
	.st53{fill:none;stroke:#F29C97;stroke-width:3;stroke-linecap:round;stroke-miterlimit:10;}
	.st54{fill:none;stroke:#89438F;stroke-width:3;stroke-linecap:round;stroke-miterlimit:10;}
	.st55{fill:none;stroke:#000000;stroke-width:0.5;stroke-linecap:round;stroke-linejoin:round;}
	.st56{fill:#070001;}
	.st57{fill:#0B5698;}
</style>
<line class="st0" x1="714.8" y1="581.5" x2="714.8" y2="810.1"/>
<polyline class="st1" points="44,41.9 874.8,41.9 874.8,99.7 44,99.7 "/>
<line class="st2" x1="44" y1="47.6" x2="874.8" y2="47.6"/>
<line class="st3" x1="44" y1="41.6" x2="874.8" y2="41.6"/>
<line class="st2" x1="44" y1="58.9" x2="874.8" y2="58.9"/>
<line class="st2" x1="44" y1="70.6" x2="874.8" y2="70.6"/>
<line class="st2" x1="44" y1="82.3" x2="874.8" y2="82.3"/>
<line class="st2" x1="44" y1="93.9" x2="874.8" y2="93.9"/>
<line class="st3" x1="44" y1="99.7" x2="874.8" y2="99.7"/>
<g class="st4">
	<g>
		<text transform="matrix(1 0 0 1 877.9371 49.6302)" class="st5 st6">30</text>
	</g>
</g>
<g class="st4">
	<g>
		<text transform="matrix(1 0 0 1 877.9371 60.7963)" class="st5 st6">IG1</text>
	</g>
</g>
<g class="st4">
	<g>
		<text transform="matrix(1 0 0 1 877.9371 72.4213)" class="st5 st6">IG3</text>
	</g>
</g>
<g class="st4">
	<g>
		<text transform="matrix(1 0 0 1 877.9371 83.9252)" class="st5 st6">IG4</text>
	</g>
</g>
<g class="st4">
	<g>
		<text transform="matrix(1 0 0 1 877.9371 96.1283)" class="st5 st6">ACC</text>
	</g>
</g>
<g class="st4">
	<g>
		<text transform="matrix(1 0 0 1 33.2295 49.7123)" class="st5 st6">30</text>
	</g>
</g>
<g class="st4">
	<g>
		<text transform="matrix(1 0 0 1 30.0654 60.8783)" class="st5 st6">IG1</text>
	</g>
</g>
<g class="st4">
	<g>
		<text transform="matrix(1 0 0 1 30.1123 72.5033)" class="st5 st6">IG3</text>
	</g>
</g>
<path class="st7" d="M453,426.4H61.6v-32.9H453c0,0-6.4,9.6,0,16.5C459.4,416.9,453,426.4,453,426.4"/>
<g class="st4">
	<g>
		<text transform="matrix(1 0 0 1 30.0654 84.0033)" class="st5 st6">IG4</text>
	</g>
</g>
<g class="st4">
	<g>
		<text transform="matrix(1 0 0 1 26.5732 96.1283)" class="st5 st6">ACC</text>
	</g>
</g>
<path class="st7" d="M759.2,571.8h-61.1V536h61.1c0,0-8.2,10.5,0,18C767.4,561.5,759.2,571.8,759.2,571.8"/>
<path class="st8" d="M759.2,571.8h-61.1V536h61.1c0,0-8.2,10.5,0,18C767.4,561.5,759.2,571.8,759.2,571.8"/>
<rect x="703.2" y="539.1" class="st7" width="23.1" height="29.7"/>
<rect x="703.2" y="539.1" class="st8" width="23.1" height="29.7"/>
<path class="st8" d="M453,426.4H61.6v-32.9H453c0,0-6.4,9.6,0,16.5C459.4,416.9,453,426.4,453,426.4"/>
<path class="st7" d="M841.4,426.4H487.8v-32.9h353.6c0,0-6.4,9.6,0,16.5C847.7,416.9,841.4,426.4,841.4,426.4"/>
<path class="st8" d="M841.4,426.4H487.8v-32.9h353.6c0,0-6.4,9.6,0,16.5C847.7,416.9,841.4,426.4,841.4,426.4"/>
<line class="st7" x1="714.8" y1="571.8" x2="714.8" y2="562.1"/>
<line class="st8" x1="714.8" y1="571.8" x2="714.8" y2="562.1"/>
<polyline class="st7" points="714.7,546.1 711.8,559.7 714.5,559.7 "/>
<polyline class="st8" points="714.7,546.1 711.8,559.7 714.5,559.7 "/>
<path class="st7" d="M714.7,544.5c-0.8,0-1.5,0.7-1.5,1.6c0,1,0.6,1.7,1.5,1.7c0.8,0,1.4-0.7,1.4-1.7
	C716.1,545.2,715.5,544.5,714.7,544.5"/>
<path class="st8" d="M714.7,544.5c-0.8,0-1.5,0.7-1.5,1.6c0,1,0.6,1.7,1.5,1.7c0.8,0,1.4-0.7,1.4-1.7
	C716.1,545.2,715.5,544.5,714.7,544.5"/>
<path class="st7" d="M714.7,544.5c-0.8,0-1.5,0.7-1.5,1.6c0,1,0.6,1.7,1.5,1.7c0.8,0,1.4-0.7,1.4-1.7
	C716.1,545.2,715.5,544.5,714.7,544.5"/>
<path class="st8" d="M714.7,544.5c-0.8,0-1.5,0.7-1.5,1.6c0,1,0.6,1.7,1.5,1.7c0.8,0,1.4-0.7,1.4-1.7
	C716.1,545.2,715.5,544.5,714.7,544.5"/>
<path class="st7" d="M714.7,559.3c-0.7,0-1.2,0.6-1.2,1.4c0,0.8,0.5,1.5,1.2,1.5c0.7,0,1.2-0.6,1.2-1.5
	C715.9,559.9,715.4,559.3,714.7,559.3"/>
<path class="st8" d="M714.7,559.3c-0.7,0-1.2,0.6-1.2,1.4c0,0.8,0.5,1.5,1.2,1.5c0.7,0,1.2-0.6,1.2-1.5
	C715.9,559.9,715.4,559.3,714.7,559.3"/>
<path class="st7" d="M714.7,559.3c-0.7,0-1.2,0.6-1.2,1.4c0,0.8,0.5,1.5,1.2,1.5c0.7,0,1.2-0.6,1.2-1.5
	C715.9,559.9,715.4,559.3,714.7,559.3"/>
<path class="st8" d="M714.7,559.3c-0.7,0-1.2,0.6-1.2,1.4c0,0.8,0.5,1.5,1.2,1.5c0.7,0,1.2-0.6,1.2-1.5
	C715.9,559.9,715.4,559.3,714.7,559.3"/>
<line class="st7" x1="714.8" y1="544.5" x2="714.8" y2="536.1"/>
<line class="st8" x1="714.8" y1="544.5" x2="714.8" y2="536.1"/>
<polyline class="st7" points="710.1,557.5 709.1,557.5 709.1,553.2 710.1,553.2 "/>
<polyline class="st8" points="710.1,557.5 709.1,557.5 709.1,553.2 710.1,553.2 "/>
<line class="st7" x1="709.2" y1="555.3" x2="712.8" y2="555.3"/>
<line class="st8" x1="709.2" y1="555.3" x2="712.8" y2="555.3"/>
<g class="st4">
	<g>
		<text transform="matrix(1 0 0 1 717.9808 544.8666)" class="st7 st5 st9">+</text>
		<polygon class="st8" points="719.4,543.3 719.4,542.4 719.1,542.4 719.1,543.3 718.2,543.3 718.2,543.6 719.1,543.6 719.1,544.5 
			719.4,544.5 719.4,543.6 720.4,543.6 720.4,543.3 		"/>
	</g>
</g>
<g class="st4">
	<g>
		<text transform="matrix(1 0 0 1 717.1625 566.2162)" class="st7 st5 st9">-</text>
		<rect x="717.4" y="564.7" class="st8" width="2.2" height="0.3"/>
	</g>
</g>
<path class="st7" d="M357.5,571.8h-73.7V536h73.7c0,0-9,10.5,0,18C366.6,561.5,357.5,571.8,357.5,571.8"/>
<path class="st8" d="M357.5,571.8h-73.7V536h73.7c0,0-9,10.5,0,18C366.6,561.5,357.5,571.8,357.5,571.8"/>
<rect x="294.7" y="539.1" class="st7" width="23.1" height="29.7"/>
<rect x="294.7" y="539.1" class="st8" width="23.1" height="29.7"/>
<line class="st7" x1="306.4" y1="571.8" x2="306.4" y2="562.1"/>
<line class="st8" x1="306.4" y1="571.8" x2="306.4" y2="562.1"/>
<polyline class="st7" points="306.3,546.1 303.4,559.7 306.1,559.7 "/>
<polyline class="st8" points="306.3,546.1 303.4,559.7 306.1,559.7 "/>
<path class="st7" d="M306.3,544.5c-0.8,0-1.5,0.7-1.5,1.6c0,1,0.6,1.7,1.5,1.7c0.8,0,1.4-0.7,1.4-1.7
	C307.7,545.2,307.1,544.5,306.3,544.5"/>
<path class="st8" d="M306.3,544.5c-0.8,0-1.5,0.7-1.5,1.6c0,1,0.6,1.7,1.5,1.7c0.8,0,1.4-0.7,1.4-1.7
	C307.7,545.2,307.1,544.5,306.3,544.5"/>
<path class="st7" d="M306.3,544.5c-0.8,0-1.5,0.7-1.5,1.6c0,1,0.6,1.7,1.5,1.7c0.8,0,1.4-0.7,1.4-1.7
	C307.7,545.2,307.1,544.5,306.3,544.5"/>
<path class="st8" d="M306.3,544.5c-0.8,0-1.5,0.7-1.5,1.6c0,1,0.6,1.7,1.5,1.7c0.8,0,1.4-0.7,1.4-1.7
	C307.7,545.2,307.1,544.5,306.3,544.5"/>
<path class="st7" d="M306.3,559.3c-0.7,0-1.2,0.6-1.2,1.4c0,0.8,0.5,1.5,1.2,1.5c0.7,0,1.2-0.6,1.2-1.5
	C307.5,559.9,307,559.3,306.3,559.3"/>
<path class="st8" d="M306.3,559.3c-0.7,0-1.2,0.6-1.2,1.4c0,0.8,0.5,1.5,1.2,1.5c0.7,0,1.2-0.6,1.2-1.5
	C307.5,559.9,307,559.3,306.3,559.3"/>
<path class="st7" d="M306.3,559.3c-0.7,0-1.2,0.6-1.2,1.4c0,0.8,0.5,1.5,1.2,1.5c0.7,0,1.2-0.6,1.2-1.5
	C307.5,559.9,307,559.3,306.3,559.3"/>
<path class="st8" d="M306.3,559.3c-0.7,0-1.2,0.6-1.2,1.4c0,0.8,0.5,1.5,1.2,1.5c0.7,0,1.2-0.6,1.2-1.5
	C307.5,559.9,307,559.3,306.3,559.3"/>
<line class="st7" x1="306.4" y1="544.5" x2="306.4" y2="536.1"/>
<line class="st8" x1="306.4" y1="544.5" x2="306.4" y2="536.1"/>
<polyline class="st7" points="301.7,557.5 300.7,557.5 300.7,553.2 301.7,553.2 "/>
<polyline class="st8" points="301.7,557.5 300.7,557.5 300.7,553.2 301.7,553.2 "/>
<line class="st7" x1="300.8" y1="555.3" x2="304.4" y2="555.3"/>
<line class="st8" x1="300.8" y1="555.3" x2="304.4" y2="555.3"/>
<g class="st4">
	<g>
		<text transform="matrix(1 0 0 1 309.5713 544.9076)" class="st7 st5 st9">+</text>
		<polygon class="st8" points="311,543.3 311,542.4 310.7,542.4 310.7,543.3 309.8,543.3 309.8,543.6 310.7,543.6 310.7,544.6 
			311,544.6 311,543.6 312,543.6 312,543.3 		"/>
	</g>
</g>
<g class="st4">
	<g>
		<text transform="matrix(1 0 0 1 308.7534 566.2582)" class="st7 st5 st9">-</text>
		<rect x="309" y="564.7" class="st8" width="2.2" height="0.3"/>
	</g>
</g>
<rect x="493.9" y="131.8" class="st1" width="56.8" height="51.3"/>
<rect x="493.9" y="131.8" class="st10" width="56.8" height="51.3"/>
<path class="st7" d="M857.5,571.8h-64.4V536h64.4c0,0-8.7,10.5,0,18C866.2,561.5,857.5,571.8,857.5,571.8"/>
<path class="st8" d="M857.5,571.8h-64.4V536h64.4c0,0-8.7,10.5,0,18C866.2,561.5,857.5,571.8,857.5,571.8"/>
<rect x="798.3" y="539.1" class="st7" width="23.1" height="29.7"/>
<rect x="798.3" y="539.1" class="st8" width="23.1" height="29.7"/>
<line class="st7" x1="810" y1="571.8" x2="810" y2="562.1"/>
<line class="st8" x1="810" y1="571.8" x2="810" y2="562.1"/>
<polyline class="st7" points="809.9,546.1 807,559.7 809.7,559.7 "/>
<polyline class="st8" points="809.9,546.1 807,559.7 809.7,559.7 "/>
<path class="st7" d="M809.9,544.5c-0.8,0-1.5,0.7-1.5,1.6c0,1,0.6,1.7,1.5,1.7c0.8,0,1.4-0.7,1.4-1.7
	C811.3,545.2,810.7,544.5,809.9,544.5"/>
<path class="st8" d="M809.9,544.5c-0.8,0-1.5,0.7-1.5,1.6c0,1,0.6,1.7,1.5,1.7c0.8,0,1.4-0.7,1.4-1.7
	C811.3,545.2,810.7,544.5,809.9,544.5"/>
<path class="st7" d="M809.9,544.5c-0.8,0-1.5,0.7-1.5,1.6c0,1,0.6,1.7,1.5,1.7c0.8,0,1.4-0.7,1.4-1.7
	C811.3,545.2,810.7,544.5,809.9,544.5"/>
<path class="st8" d="M809.9,544.5c-0.8,0-1.5,0.7-1.5,1.6c0,1,0.6,1.7,1.5,1.7c0.8,0,1.4-0.7,1.4-1.7
	C811.3,545.2,810.7,544.5,809.9,544.5"/>
<path class="st7" d="M809.9,559.3c-0.7,0-1.2,0.6-1.2,1.4c0,0.8,0.5,1.5,1.2,1.5c0.7,0,1.2-0.6,1.2-1.5
	C811.1,559.9,810.6,559.3,809.9,559.3"/>
<path class="st8" d="M809.9,559.3c-0.7,0-1.2,0.6-1.2,1.4c0,0.8,0.5,1.5,1.2,1.5c0.7,0,1.2-0.6,1.2-1.5
	C811.1,559.9,810.6,559.3,809.9,559.3"/>
<path class="st7" d="M809.9,559.3c-0.7,0-1.2,0.6-1.2,1.4c0,0.8,0.5,1.5,1.2,1.5c0.7,0,1.2-0.6,1.2-1.5
	C811.1,559.9,810.6,559.3,809.9,559.3"/>
<path class="st8" d="M809.9,559.3c-0.7,0-1.2,0.6-1.2,1.4c0,0.8,0.5,1.5,1.2,1.5c0.7,0,1.2-0.6,1.2-1.5
	C811.1,559.9,810.6,559.3,809.9,559.3"/>
<line class="st7" x1="810" y1="544.5" x2="810" y2="536.1"/>
<line class="st8" x1="810" y1="544.5" x2="810" y2="536.1"/>
<polyline class="st7" points="805.3,557.5 804.3,557.5 804.3,553.2 805.3,553.2 "/>
<polyline class="st8" points="805.3,557.5 804.3,557.5 804.3,553.2 805.3,553.2 "/>
<line class="st7" x1="804.4" y1="555.3" x2="808" y2="555.3"/>
<line class="st8" x1="804.4" y1="555.3" x2="808" y2="555.3"/>
<g class="st4">
	<g>
		<text transform="matrix(1 0 0 1 813.1703 544.9076)" class="st7 st5 st9">+</text>
		<polygon class="st8" points="814.6,543.3 814.6,542.4 814.3,542.4 814.3,543.3 813.4,543.3 813.4,543.6 814.3,543.6 814.3,544.6 
			814.6,544.6 814.6,543.6 815.6,543.6 815.6,543.3 		"/>
	</g>
</g>
<g class="st4">
	<g>
		<text transform="matrix(1 0 0 1 812.3529 566.2582)" class="st7 st5 st9">-</text>
		<rect x="812.6" y="564.7" class="st8" width="2.2" height="0.3"/>
	</g>
</g>
<path class="st7" d="M569.6,571.8h-63.5V536h63.5c0,0-8.5,10.5,0,18C578.1,561.5,569.6,571.8,569.6,571.8"/>
<path class="st8" d="M569.6,571.8h-63.5V536h63.5c0,0-8.5,10.5,0,18C578.1,561.5,569.6,571.8,569.6,571.8"/>
<rect x="511.2" y="539.1" class="st7" width="23.1" height="29.7"/>
<rect x="511.2" y="539.1" class="st8" width="23.1" height="29.7"/>
<line class="st7" x1="522.9" y1="571.8" x2="522.9" y2="562.1"/>
<line class="st8" x1="522.9" y1="571.8" x2="522.9" y2="562.1"/>
<polyline class="st7" points="522.8,546.1 519.9,559.7 522.6,559.7 "/>
<polyline class="st8" points="522.8,546.1 519.9,559.7 522.6,559.7 "/>
<path class="st7" d="M522.8,544.5c-0.8,0-1.5,0.7-1.5,1.6c0,1,0.6,1.7,1.5,1.7c0.8,0,1.4-0.7,1.4-1.7
	C524.2,545.2,523.6,544.5,522.8,544.5"/>
<path class="st8" d="M522.8,544.5c-0.8,0-1.5,0.7-1.5,1.6c0,1,0.6,1.7,1.5,1.7c0.8,0,1.4-0.7,1.4-1.7
	C524.2,545.2,523.6,544.5,522.8,544.5"/>
<path class="st7" d="M522.8,544.5c-0.8,0-1.5,0.7-1.5,1.6c0,1,0.6,1.7,1.5,1.7c0.8,0,1.4-0.7,1.4-1.7
	C524.2,545.2,523.6,544.5,522.8,544.5"/>
<path class="st8" d="M522.8,544.5c-0.8,0-1.5,0.7-1.5,1.6c0,1,0.6,1.7,1.5,1.7c0.8,0,1.4-0.7,1.4-1.7
	C524.2,545.2,523.6,544.5,522.8,544.5"/>
<path class="st7" d="M522.8,559.3c-0.7,0-1.2,0.6-1.2,1.4c0,0.8,0.5,1.5,1.2,1.5c0.7,0,1.2-0.6,1.2-1.5
	C524,559.9,523.5,559.3,522.8,559.3"/>
<path class="st8" d="M522.8,559.3c-0.7,0-1.2,0.6-1.2,1.4c0,0.8,0.5,1.5,1.2,1.5c0.7,0,1.2-0.6,1.2-1.5
	C524,559.9,523.5,559.3,522.8,559.3"/>
<path class="st7" d="M522.8,559.3c-0.7,0-1.2,0.6-1.2,1.4c0,0.8,0.5,1.5,1.2,1.5c0.7,0,1.2-0.6,1.2-1.5
	C524,559.9,523.5,559.3,522.8,559.3"/>
<path class="st8" d="M522.8,559.3c-0.7,0-1.2,0.6-1.2,1.4c0,0.8,0.5,1.5,1.2,1.5c0.7,0,1.2-0.6,1.2-1.5
	C524,559.9,523.5,559.3,522.8,559.3"/>
<line class="st7" x1="522.9" y1="544.5" x2="522.9" y2="536.1"/>
<line class="st8" x1="522.9" y1="544.5" x2="522.9" y2="536.1"/>
<polyline class="st7" points="518.2,557.5 517.2,557.5 517.2,553.2 518.2,553.2 "/>
<polyline class="st8" points="518.2,557.5 517.2,557.5 517.2,553.2 518.2,553.2 "/>
<line class="st7" x1="517.3" y1="555.3" x2="520.9" y2="555.3"/>
<line class="st8" x1="517.3" y1="555.3" x2="520.9" y2="555.3"/>
<g class="st4">
	<g>
		<text transform="matrix(1 0 0 1 526.0912 544.9076)" class="st7 st5 st9">+</text>
		<polygon class="st8" points="527.6,543.3 527.6,542.4 527.2,542.4 527.2,543.3 526.3,543.3 526.3,543.6 527.2,543.6 527.2,544.6 
			527.6,544.6 527.6,543.6 528.5,543.6 528.5,543.3 		"/>
	</g>
</g>
<g class="st4">
	<g>
		<text transform="matrix(1 0 0 1 525.2728 566.2582)" class="st7 st5 st9">-</text>
		<rect x="525.5" y="564.7" class="st8" width="2.2" height="0.3"/>
	</g>
</g>
<line class="st11" x1="522.9" y1="435.6" x2="522.9" y2="527"/>
<line class="st11" x1="522.9" y1="435.6" x2="522.9" y2="527"/>
<polyline class="st0" points="249.7,809.2 262.3,774.3 306.2,774.3 306.2,771.5 306.3,578.9 "/>
<line class="st12" x1="306.4" y1="436.3" x2="306.4" y2="527"/>
<line class="st0" x1="79.5" y1="437.8" x2="79.5" y2="810.1"/>
<line class="st0" x1="249.6" y1="437.8" x2="249.6" y2="810.2"/>
<line class="st13" x1="72.6" y1="810.1" x2="86.5" y2="810.1"/>
<line class="st13" x1="75.5" y1="812.3" x2="83.6" y2="812.3"/>
<line class="st13" x1="82" y1="814.4" x2="77.1" y2="814.4"/>
<line class="st13" x1="242.6" y1="810.1" x2="256.5" y2="810.1"/>
<line class="st13" x1="245.5" y1="812.3" x2="253.6" y2="812.3"/>
<line class="st13" x1="252" y1="814.4" x2="247.1" y2="814.4"/>
<line class="st14" x1="79.5" y1="434.6" x2="79.5" y2="426.4"/>
<path class="st15" d="M79.4,437.7c-1.7,0-3-1.4-3-3c0-1.8,1.4-3.2,3-3.2c1.8,0,3.2,1.4,3.2,3.2C82.6,436.3,81.2,437.7,79.4,437.7"/>
<path d="M79.5,438.3c-2,0-3.7-1.6-3.7-3.7c0-2.2,1.7-3.8,3.7-3.8v1.2c-1.4,0-2.5,1.1-2.5,2.7c0,1.3,1.1,2.5,2.5,2.5V438.3z
	 M79.5,430.8v1.2c1.5,0,2.7,1.1,2.7,2.7c0,1.3-1.1,2.5-2.7,2.5v1.1c2.2,0,3.8-1.6,3.8-3.7S81.7,430.8,79.5,430.8"/>
<rect x="75.4" y="430.4" class="st15" width="8.1" height="4.1"/>
<rect x="79" y="431.3" width="1" height="4.2"/>
<rect x="79" y="431.3" class="st16" width="1" height="4.2"/>
<line class="st14" x1="249.6" y1="434.6" x2="249.6" y2="426.4"/>
<path class="st15" d="M249.5,437.7c-1.7,0-3-1.4-3-3c0-1.8,1.4-3.2,3-3.2c1.8,0,3.2,1.4,3.2,3.2
	C252.7,436.3,251.3,437.7,249.5,437.7"/>
<path d="M249.5,438.3c-2,0-3.7-1.6-3.7-3.7c0-2.2,1.7-3.8,3.7-3.8v1.2c-1.4,0-2.5,1.1-2.5,2.7c0,1.3,1.1,2.5,2.5,2.5V438.3z
	 M249.5,430.8v1.2c1.5,0,2.7,1.1,2.7,2.7c0,1.3-1.1,2.5-2.7,2.5v1.1c2.2,0,3.8-1.6,3.8-3.7S251.7,430.8,249.5,430.8"/>
<rect x="245.5" y="430.4" class="st15" width="8.1" height="4.1"/>
<rect x="249.1" y="431.3" width="1" height="4.2"/>
<rect x="249.1" y="431.3" class="st16" width="1" height="4.2"/>
<rect x="713.4" y="435.6" class="st10" width="3" height="92.5"/>
<line class="st17" x1="714.9" y1="435.6" x2="714.9" y2="528"/>
<line x1="601.2" y1="436.7" x2="601.1" y2="810.2"/>
<line class="st0" x1="601.2" y1="436.7" x2="601.1" y2="810.2"/>
<line class="st18" x1="522.4" y1="194.4" x2="522.4" y2="382"/>
<polyline class="st19" points="522.3,147.1 522.3,143.9 522.3,48.1 "/>
<polyline class="st19" points="522.3,167.7 522.3,170.6 522.3,182.9 "/>
<line class="st14" x1="522.4" y1="191.3" x2="522.4" y2="183.1"/>
<path class="st15" d="M522.3,194.4c-1.7,0-3-1.4-3-3c0-1.8,1.4-3.2,3-3.2c1.8,0,3.2,1.4,3.2,3.2C525.5,193,524.1,194.4,522.3,194.4"
	/>
<path d="M522.4,195c-2,0-3.7-1.6-3.7-3.7c0-2.2,1.7-3.8,3.7-3.8v1.2c-1.4,0-2.5,1.1-2.5,2.7c0,1.3,1.1,2.5,2.5,2.5V195z
	 M522.4,187.5v1.2c1.5,0,2.7,1.1,2.7,2.7c0,1.3-1.1,2.5-2.7,2.5v1.1c2.2,0,3.8-1.6,3.8-3.7C526.2,189.2,524.6,187.5,522.4,187.5"/>
<rect x="518.4" y="187.1" class="st15" width="8.1" height="4.1"/>
<rect x="521.9" y="188" width="1" height="4.2"/>
<rect x="521.9" y="188" class="st16" width="1" height="4.2"/>
<line class="st14" x1="522.4" y1="385.1" x2="522.4" y2="393.3"/>
<path class="st15" d="M522.3,382c-1.7,0-3,1.4-3,3c0,1.8,1.4,3.2,3,3.2c1.8,0,3.2-1.4,3.2-3.2C525.5,383.4,524.1,382,522.3,382"/>
<path d="M522.4,382.5c-1.4,0-2.5,1.2-2.5,2.5c0,1.6,1.1,2.7,2.5,2.7v1.2c-2,0-3.7-1.6-3.7-3.8c0-2.1,1.7-3.7,3.7-3.7V382.5z
	 M522.4,388.9c2.2,0,3.8-1.7,3.8-3.8s-1.6-3.7-3.8-3.7v1.1c1.6,0,2.7,1.2,2.7,2.5c0,1.6-1.2,2.7-2.7,2.7V388.9"/>
<rect x="518.4" y="385.2" class="st15" width="8.1" height="4.1"/>
<rect x="521.9" y="384.2" width="1" height="4.2"/>
<rect x="521.9" y="384.2" class="st16" width="1" height="4.2"/>
<line class="st13" x1="601.2" y1="807.4" x2="601.2" y2="810.1"/>
<line class="st13" x1="594.2" y1="810.1" x2="608" y2="810.1"/>
<line class="st13" x1="597" y1="812.3" x2="605.2" y2="812.3"/>
<line class="st13" x1="603.5" y1="814.4" x2="598.7" y2="814.4"/>
<line class="st13" x1="708" y1="810.1" x2="721.9" y2="810.1"/>
<line class="st13" x1="710.9" y1="812.3" x2="719" y2="812.3"/>
<line class="st13" x1="717.4" y1="814.4" x2="712.5" y2="814.4"/>
<line class="st14" x1="714.8" y1="527.9" x2="714.8" y2="536.1"/>
<path class="st15" d="M714.7,524.8c-1.7,0-3,1.4-3,3c0,1.8,1.4,3.2,3,3.2c1.8,0,3.2-1.4,3.2-3.2
	C717.9,526.2,716.5,524.8,714.7,524.8"/>
<path d="M714.7,525.3c-1.4,0-2.5,1.2-2.5,2.5c0,1.6,1.1,2.7,2.5,2.7v1.2c-2,0-3.7-1.6-3.7-3.8c0-2.1,1.7-3.7,3.7-3.7V525.3z
	 M714.7,531.7c2.2,0,3.8-1.7,3.8-3.8c0-2.1-1.6-3.7-3.8-3.7v1.1c1.6,0,2.7,1.2,2.7,2.5c0,1.6-1.2,2.7-2.7,2.7V531.7"/>
<rect x="710.7" y="528" class="st15" width="8.1" height="4.1"/>
<rect x="714.3" y="527" width="1" height="4.2"/>
<rect x="714.3" y="527" class="st16" width="1" height="4.2"/>
<line class="st14" x1="714.8" y1="579" x2="714.8" y2="570.8"/>
<path class="st15" d="M714.7,582.1c-1.7,0-3-1.4-3-3c0-1.8,1.4-3.2,3-3.2c1.8,0,3.2,1.4,3.2,3.2
	C717.9,580.7,716.5,582.1,714.7,582.1"/>
<path d="M714.7,582.7c-2,0-3.7-1.6-3.7-3.7c0-2.2,1.7-3.8,3.7-3.8v1.2c-1.4,0-2.5,1.1-2.5,2.7c0,1.3,1.1,2.5,2.5,2.5V582.7z
	 M714.7,575.2v1.2c1.5,0,2.7,1.1,2.7,2.7c0,1.3-1.1,2.5-2.7,2.5v1.1c2.2,0,3.8-1.6,3.8-3.7S716.9,575.2,714.7,575.2"/>
<rect x="710.7" y="574.8" class="st15" width="8.1" height="4.1"/>
<rect x="714.3" y="575.7" width="1" height="4.2"/>
<rect x="714.3" y="575.7" class="st16" width="1" height="4.2"/>
<line class="st14" x1="306.2" y1="579" x2="306.2" y2="570.8"/>
<path class="st15" d="M306.1,582.1c-1.7,0-3-1.4-3-3c0-1.8,1.4-3.2,3-3.2c1.8,0,3.2,1.4,3.2,3.2
	C309.3,580.7,307.9,582.1,306.1,582.1"/>
<path d="M306.2,582.7c-2,0-3.7-1.6-3.7-3.7c0-2.2,1.7-3.8,3.7-3.8v1.2c-1.4,0-2.5,1.1-2.5,2.7c0,1.3,1.1,2.5,2.5,2.5V582.7z
	 M306.2,575.2v1.2c1.5,0,2.7,1.1,2.7,2.7c0,1.3-1.1,2.5-2.7,2.5v1.1c2.2,0,3.8-1.6,3.8-3.7S308.4,575.2,306.2,575.2"/>
<rect x="302.2" y="574.8" class="st15" width="8.1" height="4.1"/>
<rect x="305.7" y="575.7" width="1" height="4.2"/>
<rect x="305.7" y="575.7" class="st16" width="1" height="4.2"/>
<line class="st14" x1="601.1" y1="434.9" x2="601.1" y2="426.7"/>
<path class="st15" d="M601,438c-1.7,0-3-1.4-3-3c0-1.8,1.4-3.2,3-3.2c1.8,0,3.2,1.4,3.2,3.2C604.2,436.6,602.8,438,601,438"/>
<path d="M601.1,438.6c-2,0-3.7-1.6-3.7-3.7c0-2.2,1.7-3.8,3.7-3.8v1.2c-1.4,0-2.5,1.1-2.5,2.7c0,1.3,1.1,2.5,2.5,2.5V438.6z
	 M601.1,431.1v1.2c1.5,0,2.7,1.1,2.7,2.7c0,1.3-1.1,2.5-2.7,2.5v1.1c2.2,0,3.8-1.6,3.8-3.7S603.3,431.1,601.1,431.1"/>
<rect x="597.1" y="430.7" class="st15" width="8.1" height="4.1"/>
<rect x="600.6" y="431.6" width="1" height="4.2"/>
<rect x="600.6" y="431.6" class="st16" width="1" height="4.2"/>
<line class="st14" x1="714.8" y1="434.9" x2="714.8" y2="426.7"/>
<path class="st15" d="M714.7,438c-1.7,0-3-1.4-3-3c0-1.8,1.4-3.2,3-3.2c1.8,0,3.2,1.4,3.2,3.2C717.9,436.6,716.5,438,714.7,438"/>
<path d="M714.8,438.6c-2,0-3.7-1.6-3.7-3.7c0-2.2,1.7-3.8,3.7-3.8v1.2c-1.4,0-2.5,1.1-2.5,2.7c0,1.3,1.1,2.5,2.5,2.5V438.6z
	 M714.8,431.1v1.2c1.5,0,2.7,1.1,2.7,2.7c0,1.3-1.1,2.5-2.7,2.5v1.1c2.2,0,3.8-1.6,3.8-3.7S717,431.1,714.8,431.1"/>
<rect x="710.8" y="430.7" class="st15" width="8.1" height="4.1"/>
<rect x="714.3" y="431.6" width="1" height="4.2"/>
<rect x="714.3" y="431.6" class="st16" width="1" height="4.2"/>
<path class="st20" d="M522.3,163.2c-1.2,0-2.2,1-2.2,2.2s1,2.2,2.2,2.2c1.2,0,2.2-1,2.2-2.2S523.5,163.2,522.3,163.2"/>
<path class="st20" d="M522.3,147.3c-1.2,0-2.2,1-2.2,2.1c0,1.2,1,2.2,2.2,2.2c1.2,0,2.2-0.9,2.2-2.2
	C524.5,148.3,523.5,147.3,522.3,147.3"/>
<path class="st20" d="M520.8,151.1c-0.1,2.5,0.2,3.2,1.3,4.3c1.2,1.2,2.4,1.7,2.8,3.7c0.4,1.6-0.1,3.5-1.1,4.5"/>
<path class="st20" d="M523.7,163.7c0.2-0.8,0-2.9-0.6-3.7c-0.9-1.2-2.7-2.1-3.3-4c-0.9-2.8,0.7-4.6,1.1-5"/>
<path class="st21" d="M519.5,48.2c0-1.7,1.3-2.8,2.8-2.8c1.6,0,2.9,1.2,2.9,2.8c0,1.5-1.3,2.6-2.9,2.6
	C520.8,50.9,519.5,49.8,519.5,48.2"/>
<path class="st22" d="M519.5,48.2c0-1.7,1.3-2.8,2.8-2.8c1.6,0,2.9,1.2,2.9,2.8c0,1.5-1.3,2.6-2.9,2.6
	C520.8,50.9,519.5,49.8,519.5,48.2z"/>
<path class="st23" d="M519.5,48.2c0-1.7,1.3-2.8,2.8-2.8c1.6,0,2.9,1.2,2.9,2.8c0,1.5-1.3,2.6-2.9,2.6
	C520.8,50.9,519.5,49.8,519.5,48.2"/>
<line class="st24" x1="306.4" y1="436.3" x2="306.4" y2="527"/>
<line class="st14" x1="306.3" y1="434.6" x2="306.3" y2="426.4"/>
<path class="st15" d="M306.2,437.7c-1.7,0-3-1.4-3-3c0-1.8,1.4-3.2,3-3.2c1.8,0,3.2,1.4,3.2,3.2C309.4,436.3,308,437.7,306.2,437.7"
	/>
<path d="M306.2,438.3c-2,0-3.7-1.6-3.7-3.7c0-2.2,1.7-3.8,3.7-3.8v1.2c-1.4,0-2.5,1.1-2.5,2.7c0,1.3,1.1,2.5,2.5,2.5V438.3z
	 M306.2,430.8v1.2c1.5,0,2.7,1.1,2.7,2.7c0,1.3-1.1,2.5-2.7,2.5v1.1c2.2,0,3.8-1.6,3.8-3.7S308.4,430.8,306.2,430.8"/>
<rect x="302.2" y="430.4" class="st15" width="8.1" height="4.1"/>
<rect x="305.8" y="431.3" width="1" height="4.2"/>
<rect x="305.8" y="431.3" class="st16" width="1" height="4.2"/>
<line class="st14" x1="306.2" y1="527.9" x2="306.2" y2="536.1"/>
<path class="st15" d="M306.1,524.8c-1.7,0-3,1.4-3,3c0,1.8,1.4,3.2,3,3.2c1.8,0,3.2-1.4,3.2-3.2
	C309.3,526.2,307.9,524.8,306.1,524.8"/>
<path d="M306.2,525.3c-1.4,0-2.5,1.2-2.5,2.5c0,1.6,1.1,2.7,2.5,2.7v1.2c-2,0-3.7-1.6-3.7-3.8c0-2.1,1.7-3.7,3.7-3.7V525.3z
	 M306.2,531.7c2.2,0,3.8-1.7,3.8-3.8c0-2.1-1.6-3.7-3.8-3.7v1.1c1.6,0,2.7,1.2,2.7,2.5c0,1.6-1.2,2.7-2.7,2.7V531.7"/>
<rect x="302.2" y="528" class="st15" width="8.1" height="4.1"/>
<rect x="305.7" y="527" width="1" height="4.2"/>
<rect x="305.7" y="527" class="st16" width="1" height="4.2"/>
<polyline class="st25" points="809.8,580.9 809.8,664.3 715.8,664.3 "/>
<line class="st0" x1="136.2" y1="437.8" x2="136.2" y2="810.2"/>
<line class="st13" x1="129.2" y1="810.1" x2="143.1" y2="810.1"/>
<line class="st13" x1="132.1" y1="812.3" x2="140.2" y2="812.3"/>
<line class="st13" x1="138.6" y1="814.4" x2="133.7" y2="814.4"/>
<line class="st14" x1="136.2" y1="434.6" x2="136.2" y2="426.4"/>
<path class="st15" d="M136.1,437.7c-1.7,0-3-1.4-3-3c0-1.8,1.4-3.2,3-3.2c1.8,0,3.2,1.4,3.2,3.2
	C139.3,436.3,137.9,437.7,136.1,437.7"/>
<path d="M136.1,438.3c-2,0-3.7-1.6-3.7-3.7c0-2.2,1.7-3.8,3.7-3.8v1.2c-1.4,0-2.5,1.1-2.5,2.7c0,1.3,1.1,2.5,2.5,2.5V438.3z
	 M136.1,430.8v1.2c1.5,0,2.7,1.1,2.7,2.7c0,1.3-1.1,2.5-2.7,2.5v1.1c2.2,0,3.8-1.6,3.8-3.7S138.3,430.8,136.1,430.8"/>
<rect x="132.1" y="430.4" class="st15" width="8.1" height="4.1"/>
<rect x="135.7" y="431.3" width="1" height="4.2"/>
<rect x="135.7" y="431.3" class="st16" width="1" height="4.2"/>
<line class="st11" x1="809.9" y1="435.6" x2="809.9" y2="527"/>
<line class="st26" x1="810" y1="435.6" x2="810" y2="527"/>
<line class="st14" x1="809.8" y1="579" x2="809.8" y2="570.8"/>
<path class="st15" d="M809.7,582.1c-1.7,0-3-1.4-3-3c0-1.8,1.4-3.2,3-3.2c1.8,0,3.2,1.4,3.2,3.2
	C812.9,580.7,811.5,582.1,809.7,582.1"/>
<path d="M809.8,582.7c-2,0-3.7-1.6-3.7-3.7c0-2.2,1.7-3.8,3.7-3.8v1.2c-1.4,0-2.5,1.1-2.5,2.7c0,1.3,1.1,2.5,2.5,2.5V582.7z
	 M809.8,575.2v1.2c1.5,0,2.7,1.1,2.7,2.7c0,1.3-1.1,2.5-2.7,2.5v1.1c2.2,0,3.8-1.6,3.8-3.7S812,575.2,809.8,575.2"/>
<rect x="805.8" y="574.8" class="st15" width="8.1" height="4.1"/>
<rect x="809.3" y="575.7" width="1" height="4.2"/>
<rect x="809.3" y="575.7" class="st16" width="1" height="4.2"/>
<line class="st14" x1="809.9" y1="434.9" x2="809.9" y2="426.7"/>
<path class="st15" d="M809.8,438c-1.7,0-3-1.4-3-3c0-1.8,1.4-3.2,3-3.2c1.8,0,3.2,1.4,3.2,3.2C813,436.6,811.6,438,809.8,438"/>
<path d="M809.8,438.6c-2,0-3.7-1.6-3.7-3.7c0-2.2,1.7-3.8,3.7-3.8v1.2c-1.4,0-2.5,1.1-2.5,2.7c0,1.3,1.1,2.5,2.5,2.5V438.6z
	 M809.8,431.1v1.2c1.5,0,2.7,1.1,2.7,2.7c0,1.3-1.1,2.5-2.7,2.5v1.1c2.2,0,3.8-1.6,3.8-3.7S812,431.1,809.8,431.1"/>
<rect x="805.8" y="430.7" class="st15" width="8.1" height="4.1"/>
<rect x="809.4" y="431.6" width="1" height="4.2"/>
<rect x="809.4" y="431.6" class="st16" width="1" height="4.2"/>
<line class="st0" x1="192.9" y1="437.8" x2="192.9" y2="810.2"/>
<line class="st14" x1="192.9" y1="434.6" x2="192.9" y2="426.4"/>
<path class="st15" d="M192.8,437.7c-1.7,0-3-1.4-3-3c0-1.8,1.4-3.2,3-3.2c1.8,0,3.2,1.4,3.2,3.2C196,436.3,194.6,437.7,192.8,437.7"
	/>
<path d="M192.8,438.3c-2,0-3.7-1.6-3.7-3.7c0-2.2,1.7-3.8,3.7-3.8v1.2c-1.4,0-2.5,1.1-2.5,2.7c0,1.3,1.1,2.5,2.5,2.5V438.3z
	 M192.8,430.8v1.2c1.5,0,2.7,1.1,2.7,2.7c0,1.3-1.1,2.5-2.7,2.5v1.1c2.2,0,3.8-1.6,3.8-3.7S195,430.8,192.8,430.8"/>
<rect x="188.8" y="430.4" class="st15" width="8.1" height="4.1"/>
<rect x="192.4" y="431.3" width="1" height="4.2"/>
<rect x="192.4" y="431.3" class="st16" width="1" height="4.2"/>
<line class="st13" x1="185.9" y1="810.1" x2="199.8" y2="810.1"/>
<line class="st13" x1="188.8" y1="812.3" x2="196.9" y2="812.3"/>
<line class="st13" x1="195.3" y1="814.4" x2="190.4" y2="814.4"/>
<rect x="182.7" y="817.3" class="st15" width="20.3" height="8.2"/>
<rect x="183.1" y="817.7" class="st15" width="19.7" height="7.6"/>
<rect x="183.1" y="817.7" class="st27" width="19.7" height="7.6"/>
<rect x="126" y="817.3" class="st15" width="20.3" height="8.2"/>
<rect x="126.4" y="817.7" class="st15" width="19.7" height="7.6"/>
<rect x="126.4" y="817.7" class="st27" width="19.7" height="7.6"/>
<line class="st11" x1="809.9" y1="435.6" x2="809.9" y2="527"/>
<line class="st26" x1="810" y1="435.6" x2="810" y2="527"/>
<line class="st14" x1="809.8" y1="579" x2="809.8" y2="570.8"/>
<path class="st15" d="M809.7,582.1c-1.7,0-3-1.4-3-3c0-1.8,1.4-3.2,3-3.2c1.8,0,3.2,1.4,3.2,3.2
	C812.9,580.7,811.5,582.1,809.7,582.1"/>
<path d="M809.8,582.7c-2,0-3.7-1.6-3.7-3.7c0-2.2,1.7-3.8,3.7-3.8v1.2c-1.4,0-2.5,1.1-2.5,2.7c0,1.3,1.1,2.5,2.5,2.5V582.7z
	 M809.8,575.2v1.2c1.5,0,2.7,1.1,2.7,2.7c0,1.3-1.1,2.5-2.7,2.5v1.1c2.2,0,3.8-1.6,3.8-3.7S812,575.2,809.8,575.2"/>
<rect x="805.8" y="574.8" class="st15" width="8.1" height="4.1"/>
<rect x="809.3" y="575.7" width="1" height="4.2"/>
<rect x="809.3" y="575.7" class="st16" width="1" height="4.2"/>
<line class="st14" x1="809.9" y1="434.9" x2="809.9" y2="426.7"/>
<path class="st15" d="M809.8,438c-1.7,0-3-1.4-3-3c0-1.8,1.4-3.2,3-3.2c1.8,0,3.2,1.4,3.2,3.2C813,436.6,811.6,438,809.8,438"/>
<path d="M809.8,438.6c-2,0-3.7-1.6-3.7-3.7c0-2.2,1.7-3.8,3.7-3.8v1.2c-1.4,0-2.5,1.1-2.5,2.7c0,1.3,1.1,2.5,2.5,2.5V438.6z
	 M809.8,431.1v1.2c1.5,0,2.7,1.1,2.7,2.7c0,1.3-1.1,2.5-2.7,2.5v1.1c2.2,0,3.8-1.6,3.8-3.7S812,431.1,809.8,431.1"/>
<rect x="805.8" y="430.7" class="st15" width="8.1" height="4.1"/>
<rect x="809.4" y="431.6" width="1" height="4.2"/>
<rect x="809.4" y="431.6" class="st16" width="1" height="4.2"/>
<line class="st0" x1="192.9" y1="437.8" x2="192.9" y2="810.2"/>
<line class="st14" x1="192.9" y1="434.6" x2="192.9" y2="426.4"/>
<path class="st15" d="M192.8,437.7c-1.7,0-3-1.4-3-3c0-1.8,1.4-3.2,3-3.2c1.8,0,3.2,1.4,3.2,3.2C196,436.3,194.6,437.7,192.8,437.7"
	/>
<path d="M192.8,438.3c-2,0-3.7-1.6-3.7-3.7c0-2.2,1.7-3.8,3.7-3.8v1.2c-1.4,0-2.5,1.1-2.5,2.7c0,1.3,1.1,2.5,2.5,2.5V438.3z
	 M192.8,430.8v1.2c1.5,0,2.7,1.1,2.7,2.7c0,1.3-1.1,2.5-2.7,2.5v1.1c2.2,0,3.8-1.6,3.8-3.7S195,430.8,192.8,430.8"/>
<rect x="188.8" y="430.4" class="st15" width="8.1" height="4.1"/>
<rect x="192.4" y="431.3" width="1" height="4.2"/>
<rect x="192.4" y="431.3" class="st16" width="1" height="4.2"/>
<line class="st13" x1="185.9" y1="810.1" x2="199.8" y2="810.1"/>
<line class="st13" x1="188.8" y1="812.3" x2="196.9" y2="812.3"/>
<line class="st13" x1="195.3" y1="814.4" x2="190.4" y2="814.4"/>
<line class="st14" x1="809.8" y1="527.9" x2="809.8" y2="536.1"/>
<path class="st15" d="M809.7,524.8c-1.7,0-3,1.4-3,3c0,1.8,1.4,3.2,3,3.2c1.8,0,3.2-1.4,3.2-3.2
	C812.9,526.2,811.5,524.8,809.7,524.8"/>
<path d="M809.8,525.3c-1.4,0-2.5,1.2-2.5,2.5c0,1.6,1.1,2.7,2.5,2.7v1.2c-2,0-3.7-1.6-3.7-3.8c0-2.1,1.7-3.7,3.7-3.7V525.3z
	 M809.8,531.7c2.2,0,3.8-1.7,3.8-3.8c0-2.1-1.6-3.7-3.8-3.7v1.1c1.6,0,2.7,1.2,2.7,2.5c0,1.6-1.2,2.7-2.7,2.7V531.7"/>
<rect x="805.8" y="528" class="st15" width="8.1" height="4.1"/>
<rect x="809.3" y="527" width="1" height="4.2"/>
<rect x="809.3" y="527" class="st16" width="1" height="4.2"/>
<line x1="657.8" y1="436.7" x2="657.7" y2="810.2"/>
<line class="st0" x1="657.8" y1="436.7" x2="657.7" y2="810.2"/>
<line class="st13" x1="657.9" y1="807.4" x2="657.9" y2="810.1"/>
<line class="st13" x1="650.9" y1="810.1" x2="664.7" y2="810.1"/>
<line class="st13" x1="653.7" y1="812.3" x2="661.9" y2="812.3"/>
<line class="st13" x1="660.2" y1="814.4" x2="655.4" y2="814.4"/>
<rect x="647.6" y="817.3" class="st15" width="20.3" height="8.2"/>
<rect x="647.9" y="817.6" class="st15" width="19.7" height="7.6"/>
<rect x="647.9" y="817.6" class="st28" width="19.7" height="7.6"/>
<text transform="matrix(1 0 0 1 650.182 823.2513)" class="st29 st5 st6">Eb06</text>
<line class="st14" x1="658.1" y1="434.9" x2="658.1" y2="426.7"/>
<path class="st15" d="M658.1,438c-1.7,0-3-1.4-3-3c0-1.8,1.4-3.2,3-3.2c1.8,0,3.2,1.4,3.2,3.2C661.3,436.6,659.9,438,658.1,438"/>
<path d="M658.1,438.6c-2,0-3.7-1.6-3.7-3.7c0-2.2,1.7-3.8,3.7-3.8v1.2c-1.4,0-2.5,1.1-2.5,2.7c0,1.3,1.1,2.5,2.5,2.5V438.6z
	 M658.1,431.1v1.2c1.5,0,2.7,1.1,2.7,2.7c0,1.3-1.1,2.5-2.7,2.5v1.1c2.2,0,3.8-1.6,3.8-3.7S660.3,431.1,658.1,431.1"/>
<rect x="654.1" y="430.7" class="st15" width="8.1" height="4.1"/>
<rect x="657.6" y="431.6" width="1" height="4.2"/>
<rect x="657.6" y="431.6" class="st16" width="1" height="4.2"/>
<polyline class="st0" points="248.9,809.2 264.6,794.7 523,794.7 523,581.7 "/>
<rect x="508.7" y="599.1" class="st15" width="28.1" height="7.1"/>
<g class="st4">
	<g>
		<text transform="matrix(1 0 0 1 513.3422 604.2806)" class="st5 st6">B 0.13</text>
	</g>
</g>
<line class="st14" x1="522.8" y1="527.9" x2="522.8" y2="536.1"/>
<path class="st15" d="M522.7,524.8c-1.7,0-3,1.4-3,3c0,1.8,1.4,3.2,3,3.2c1.8,0,3.2-1.4,3.2-3.2
	C525.9,526.2,524.5,524.8,522.7,524.8"/>
<path d="M522.7,525.3c-1.4,0-2.5,1.2-2.5,2.5c0,1.6,1.1,2.7,2.5,2.7v1.2c-2,0-3.7-1.6-3.7-3.8c0-2.1,1.7-3.7,3.7-3.7V525.3z
	 M522.7,531.7c2.2,0,3.8-1.7,3.8-3.8c0-2.1-1.6-3.7-3.8-3.7v1.1c1.6,0,2.7,1.2,2.7,2.5c0,1.6-1.2,2.7-2.7,2.7V531.7"/>
<rect x="518.7" y="528" class="st15" width="8.1" height="4.1"/>
<rect x="522.3" y="527" width="1" height="4.2"/>
<rect x="522.3" y="527" class="st16" width="1" height="4.2"/>
<line class="st14" x1="522.8" y1="579" x2="522.8" y2="570.8"/>
<path class="st15" d="M522.7,582.1c-1.7,0-3-1.4-3-3c0-1.8,1.4-3.2,3-3.2c1.8,0,3.2,1.4,3.2,3.2
	C525.9,580.7,524.5,582.1,522.7,582.1"/>
<path d="M522.7,582.7c-2,0-3.7-1.6-3.7-3.7c0-2.2,1.7-3.8,3.7-3.8v1.2c-1.4,0-2.5,1.1-2.5,2.7c0,1.3,1.1,2.5,2.5,2.5V582.7z
	 M522.7,575.2v1.2c1.5,0,2.7,1.1,2.7,2.7c0,1.3-1.1,2.5-2.7,2.5v1.1c2.2,0,3.8-1.6,3.8-3.7S524.9,575.2,522.7,575.2"/>
<rect x="518.7" y="574.8" class="st15" width="8.1" height="4.1"/>
<rect x="522.3" y="575.7" width="1" height="4.2"/>
<rect x="522.3" y="575.7" class="st16" width="1" height="4.2"/>
<line class="st14" x1="522.8" y1="434.9" x2="522.8" y2="426.7"/>
<path class="st15" d="M522.7,438c-1.7,0-3-1.4-3-3c0-1.8,1.4-3.2,3-3.2c1.8,0,3.2,1.4,3.2,3.2C525.9,436.6,524.5,438,522.7,438"/>
<path d="M522.8,438.6c-2,0-3.7-1.6-3.7-3.7c0-2.2,1.7-3.8,3.7-3.8v1.2c-1.4,0-2.5,1.1-2.5,2.7c0,1.3,1.1,2.5,2.5,2.5V438.6z
	 M522.8,431.1v1.2c1.5,0,2.7,1.1,2.7,2.7c0,1.3-1.1,2.5-2.7,2.5v1.1c2.2,0,3.8-1.6,3.8-3.7S525,431.1,522.8,431.1"/>
<rect x="518.7" y="430.7" class="st15" width="8.1" height="4.1"/>
<rect x="522.3" y="431.6" width="1" height="4.2"/>
<rect x="522.3" y="431.6" class="st16" width="1" height="4.2"/>
<line class="st14" x1="522.8" y1="527.9" x2="522.8" y2="536.1"/>
<path class="st15" d="M522.7,524.8c-1.7,0-3,1.4-3,3c0,1.8,1.4,3.2,3,3.2c1.8,0,3.2-1.4,3.2-3.2
	C525.9,526.2,524.5,524.8,522.7,524.8"/>
<path d="M522.7,525.3c-1.4,0-2.5,1.2-2.5,2.5c0,1.6,1.1,2.7,2.5,2.7v1.2c-2,0-3.7-1.6-3.7-3.8c0-2.1,1.7-3.7,3.7-3.7V525.3z
	 M522.7,531.7c2.2,0,3.8-1.7,3.8-3.8c0-2.1-1.6-3.7-3.8-3.7v1.1c1.6,0,2.7,1.2,2.7,2.5c0,1.6-1.2,2.7-2.7,2.7V531.7"/>
<rect x="518.7" y="528" class="st15" width="8.1" height="4.1"/>
<rect x="522.3" y="527" width="1" height="4.2"/>
<rect x="522.3" y="527" class="st16" width="1" height="4.2"/>
<line class="st14" x1="522.8" y1="579" x2="522.8" y2="570.8"/>
<path class="st15" d="M522.7,582.1c-1.7,0-3-1.4-3-3c0-1.8,1.4-3.2,3-3.2c1.8,0,3.2,1.4,3.2,3.2
	C525.9,580.7,524.5,582.1,522.7,582.1"/>
<path d="M522.7,582.7c-2,0-3.7-1.6-3.7-3.7c0-2.2,1.7-3.8,3.7-3.8v1.2c-1.4,0-2.5,1.1-2.5,2.7c0,1.3,1.1,2.5,2.5,2.5V582.7z
	 M522.7,575.2v1.2c1.5,0,2.7,1.1,2.7,2.7c0,1.3-1.1,2.5-2.7,2.5v1.1c2.2,0,3.8-1.6,3.8-3.7S524.9,575.2,522.7,575.2"/>
<rect x="518.7" y="574.8" class="st15" width="8.1" height="4.1"/>
<rect x="522.3" y="575.7" width="1" height="4.2"/>
<rect x="522.3" y="575.7" class="st16" width="1" height="4.2"/>
<line class="st14" x1="522.8" y1="434.9" x2="522.8" y2="426.7"/>
<path class="st15" d="M522.7,438c-1.7,0-3-1.4-3-3c0-1.8,1.4-3.2,3-3.2c1.8,0,3.2,1.4,3.2,3.2C525.9,436.6,524.5,438,522.7,438"/>
<path d="M522.8,438.6c-2,0-3.7-1.6-3.7-3.7c0-2.2,1.7-3.8,3.7-3.8v1.2c-1.4,0-2.5,1.1-2.5,2.7c0,1.3,1.1,2.5,2.5,2.5V438.6z
	 M522.8,431.1v1.2c1.5,0,2.7,1.1,2.7,2.7c0,1.3-1.1,2.5-2.7,2.5v1.1c2.2,0,3.8-1.6,3.8-3.7S525,431.1,522.8,431.1"/>
<rect x="518.7" y="430.7" class="st15" width="8.1" height="4.1"/>
<rect x="522.3" y="431.6" width="1" height="4.2"/>
<rect x="522.3" y="431.6" class="st16" width="1" height="4.2"/>
<path d="M525.7,664.5c-0.2,1.5-1.4,2.5-2.8,2.5c-1.6,0-2.9-1.2-2.9-2.9c0-1.6,1.4-2.9,3.2-2.7C524.7,661.6,525.9,663,525.7,664.5"/>
<path class="st30" d="M525.7,664.5c-0.2,1.5-1.4,2.5-2.8,2.5c-1.6,0-2.9-1.2-2.9-2.9c0-1.6,1.4-2.9,3.2-2.7
	C524.7,661.6,525.9,663,525.7,664.5z"/>
<path d="M525.7,664.5c-0.2,1.5-1.4,2.5-2.8,2.5c-1.6,0-2.9-1.2-2.9-2.9c0-1.6,1.4-2.9,3.2-2.7C524.7,661.6,525.9,663,525.7,664.5"/>
<path class="st30" d="M525.7,664.5c-0.2,1.5-1.4,2.5-2.8,2.5c-1.6,0-2.9-1.2-2.9-2.9c0-1.6,1.4-2.9,3.2-2.7
	C524.7,661.6,525.9,663,525.7,664.5z"/>
<rect x="508.7" y="744.1" class="st15" width="28.1" height="7.1"/>
<g class="st4">
	<g>
		<text transform="matrix(1 0 0 1 515.1469 749.4662)" class="st5 st6">B 1.0</text>
	</g>
</g>
<rect x="527.9" y="660" class="st31" width="25.3" height="7"/>
<text transform="matrix(1 0 0 1 528.6581 665.8595)" class="st5 st6">SP3317</text>
<rect x="65.5" y="454.8" class="st15" width="28.1" height="7.1"/>
<rect x="235.5" y="454.8" class="st15" width="28.1" height="7.1"/>
<g class="st4">
	<g>
		<text transform="matrix(1 0 0 1 71.9673 459.9317)" class="st5 st6">B 2.5</text>
	</g>
</g>
<g class="st4">
	<g>
		<text transform="matrix(1 0 0 1 242.0454 459.9317)" class="st5 st6">B 2.5</text>
	</g>
</g>
<rect x="69.4" y="817.3" class="st15" width="20.3" height="8.2"/>
<rect x="69.8" y="817.7" class="st15" width="19.7" height="7.6"/>
<rect x="69.8" y="817.7" class="st27" width="19.7" height="7.6"/>
<rect x="239.4" y="817.3" class="st15" width="20.3" height="8.2"/>
<rect x="239.8" y="817.7" class="st15" width="19.7" height="7.6"/>
<rect x="239.8" y="817.7" class="st27" width="19.7" height="7.6"/>
<rect x="292.2" y="454.8" class="st15" width="28.1" height="7.1"/>
<g class="st4">
	<g>
		<text transform="matrix(1 0 0 1 293.4546 459.9307)" class="st5 st6">Y/B 0.35</text>
	</g>
</g>
<rect x="292.4" y="599.1" class="st15" width="28.1" height="7.1"/>
<g class="st4">
	<g>
		<text transform="matrix(1 0 0 1 297.0103 604.2816)" class="st5 st6">B 0.35</text>
	</g>
</g>
<rect x="291.2" y="744.1" class="st15" width="28.1" height="7.1"/>
<g class="st4">
	<g>
		<text transform="matrix(1 0 0 1 297.6939 749.4662)" class="st5 st6">B 0.75</text>
	</g>
</g>
<rect x="311.5" y="660.3" class="st31" width="25.3" height="6.8"/>
<text transform="matrix(1 0 0 1 312.8982 665.4579)" class="st5 st6">SP3316</text>
<rect x="700.8" y="454.8" class="st15" width="28.1" height="7.1"/>
<g class="st4">
	<g>
		<text transform="matrix(1 0 0 1 701.2719 459.9307)" class="st5 st6">W/R 0.35</text>
	</g>
</g>
<rect x="700.7" y="599.1" class="st15" width="28.1" height="7.1"/>
<g class="st4">
	<g>
		<text transform="matrix(1 0 0 1 705.3812 604.2806)" class="st5 st6">B 0.35</text>
	</g>
</g>
<rect x="516.2" y="234.6" class="st15" width="12.5" height="6"/>
<rect x="516.2" y="234.6" class="st15" width="12.5" height="6"/>
<g class="st4">
	<g>
		<text transform="matrix(1 0 0 1 512.8285 239.7453)" class="st5 st6">R 10.0</text>
	</g>
</g>
<rect x="654.9" y="454.8" class="st15" width="6.4" height="6"/>
<g class="st4">
	<g>
		<text transform="matrix(1 0 0 1 648.7631 459.9307)" class="st5 st6">B 2.5</text>
	</g>
</g>
<rect x="597.9" y="454.8" class="st15" width="6.4" height="6"/>
<g class="st4">
	<g>
		<text transform="matrix(1 0 0 1 593.5717 459.9317)" class="st5 st6">B 2.5</text>
	</g>
</g>
<rect x="516.2" y="356.1" class="st15" width="12.5" height="6"/>
<g class="st4">
	<g>
		<text transform="matrix(1 0 0 1 512.8285 361.2676)" class="st5 st6">R 10.0</text>
	</g>
</g>
<rect x="700.7" y="744.1" class="st15" width="28.1" height="7.1"/>
<g class="st4">
	<g>
		<text transform="matrix(1 0 0 1 705.4047 749.4662)" class="st5 st6">B 0.75</text>
	</g>
</g>
<rect x="719" y="652.7" class="st31" width="25.3" height="6.9"/>
<text transform="matrix(1 0 0 1 719.7656 658.3747)" class="st5 st6">SP2997</text>
<rect x="591" y="817.3" class="st15" width="20.3" height="8.2"/>
<rect x="591.3" y="817.6" class="st15" width="19.7" height="7.6"/>
<rect x="591.3" y="817.6" class="st28" width="19.7" height="7.6"/>
<rect x="704.8" y="817.3" class="st15" width="20.3" height="8.2"/>
<rect x="705.1" y="817.7" class="st15" width="19.7" height="7.6"/>
<rect x="705.1" y="817.7" class="st28" width="19.7" height="7.6"/>
<path d="M717.8,664.5c-0.2,1.5-1.4,2.5-2.8,2.5c-1.6,0-2.9-1.2-2.9-2.9c0-1.6,1.4-2.9,3.2-2.7C716.8,661.6,717.9,663,717.8,664.5"/>
<path class="st30" d="M717.8,664.5c-0.2,1.5-1.4,2.5-2.8,2.5c-1.6,0-2.9-1.2-2.9-2.9c0-1.6,1.4-2.9,3.2-2.7
	C716.8,661.6,717.9,663,717.8,664.5z"/>
<path d="M309.1,664.5c-0.2,1.5-1.4,2.5-2.8,2.5c-1.6,0-2.9-1.2-2.9-2.9c0-1.6,1.4-2.9,3.2-2.7C308.1,661.6,309.3,663,309.1,664.5"/>
<path class="st30" d="M309.1,664.5c-0.2,1.5-1.4,2.5-2.8,2.5c-1.6,0-2.9-1.2-2.9-2.9c0-1.6,1.4-2.9,3.2-2.7
	C308.1,661.6,309.3,663,309.1,664.5z"/>
<g class="st4">
	<g>
		<text transform="matrix(1 0 0 1 526.6302 162.6869)" class="st5 st6">100A</text>
	</g>
</g>
<rect x="795.8" y="454.8" class="st15" width="28.1" height="7.1"/>
<g class="st4">
	<g>
		<text transform="matrix(1 0 0 1 796.1361 459.9307)" class="st5 st6">G/W 0.13</text>
	</g>
</g>
<rect x="795.8" y="599.1" class="st15" width="28.1" height="7.1"/>
<g class="st4">
	<g>
		<text transform="matrix(1 0 0 1 800.4213 604.2806)" class="st5 st6">B 0.13</text>
	</g>
</g>
<rect x="178.8" y="454.8" class="st15" width="28.1" height="7.1"/>
<g class="st4">
	<g>
		<text transform="matrix(1 0 0 1 183.502 459.9317)" class="st5 st6">B 0.75</text>
	</g>
</g>
<rect x="122.1" y="454.8" class="st15" width="28.1" height="7.1"/>
<g class="st4">
	<g>
		<text transform="matrix(1 0 0 1 128.6602 459.9317)" class="st5 st6">B 2.5</text>
	</g>
</g>
<rect x="182.7" y="817.3" class="st15" width="20.3" height="8.2"/>
<rect x="183.1" y="817.7" class="st15" width="19.7" height="7.6"/>
<rect x="183.1" y="817.7" class="st27" width="19.7" height="7.6"/>
<rect x="126" y="817.3" class="st15" width="20.3" height="8.2"/>
<rect x="126.4" y="817.7" class="st15" width="19.7" height="7.6"/>
<rect x="126.4" y="817.7" class="st27" width="19.7" height="7.6"/>
<rect x="508.8" y="454.8" class="st15" width="28.1" height="7.1"/>
<g class="st4">
	<g>
		<text transform="matrix(1 0 0 1 513.0404 459.9307)" class="st5 st6">G 0.13</text>
	</g>
</g>
<text transform="matrix(1 0 0 1 86.062 433.7515)" class="st29 st5 st6">KG64(E)</text>
<text transform="matrix(1 0 0 1 255.5259 433.7515)" class="st29 st5 st6">KG64(E)</text>
<text transform="matrix(1 0 0 1 72.106 823.2426)" class="st29 st5 st6">Ek01</text>
<text transform="matrix(1 0 0 1 242.1099 823.2426)" class="st29 st5 st6">Ek05</text>
<text transform="matrix(1 0 0 1 313.6543 433.7515)" class="st29 st5 st6">KG64(J)</text>
<text transform="matrix(1 0 0 1 112.5523 433.7515)" class="st29 st5 st6">-8</text>
<text transform="matrix(1 0 0 1 282.0161 433.7515)" class="st29 st5 st6">-20</text>
<text transform="matrix(1 0 0 1 337.6499 433.7515)" class="st29 st5 st6">-11</text>
<text transform="matrix(1 0 0 1 312.3101 532.9261)" class="st29 st5 st6">K01_2</text>
<text transform="matrix(1 0 0 1 331.9361 532.9261)" class="st29 st5 st6">-4</text>
<text transform="matrix(1 0 0 1 312.3101 579.8763)" class="st29 st5 st6">K01_2</text>
<text transform="matrix(1 0 0 1 331.9361 579.8763)" class="st29 st5 st6">-3</text>
<text transform="matrix(1 0 0 1 528.5687 190.3265)" class="st29 st5 st6">KB46_A</text>
<text transform="matrix(1 0 0 1 554.3314 190.3265)" class="st29 st5 st6">-1</text>
<text transform="matrix(1 0 0 1 553.2318 390.8277)" class="st29 st5 st6">-1</text>
<text transform="matrix(1 0 0 1 527.9086 390.8277)" class="st29 st5 st6">KG86(A)</text>
<text transform="matrix(1 0 0 1 526.4144 156.5165)" class="st29 st5 st6">F4/01</text>
<text transform="matrix(1 0 0 1 633.1013 433.7515)" class="st29 st5 st6">-1</text>
<text transform="matrix(1 0 0 1 607.3549 433.7515)" class="st29 st5 st6">BG86(D)</text>
<text transform="matrix(1 0 0 1 688.7263 433.7515)" class="st29 st5 st6">-2</text>
<text transform="matrix(1 0 0 1 662.9799 433.7515)" class="st29 st5 st6">BG86(D)</text>
<text transform="matrix(1 0 0 1 593.4886 823.2484)" class="st29 st5 st6">Eb08</text>
<text transform="matrix(1 0 0 1 554.8607 155.7006)" class="st32 st5 st6">Positive Fuse Box</text>
<text transform="matrix(1 0 0 1 554.8607 162.9003)" class="st29 st5 st6">  </text>
<text transform="matrix(1 0 0 1 720.8676 433.7515)" class="st29 st5 st6">KG86(E)</text>
<text transform="matrix(1 0 0 1 720.8676 532.9261)" class="st29 st5 st6">K02_1</text>
<text transform="matrix(1 0 0 1 739.7367 532.9261)" class="st29 st5 st6">-1</text>
<text transform="matrix(1 0 0 1 720.8676 579.8763)" class="st29 st5 st6">K02_1</text>
<text transform="matrix(1 0 0 1 739.7367 579.8763)" class="st29 st5 st6">-3</text>
<text transform="matrix(1 0 0 1 707.5531 823.2484)" class="st29 st5 st6">Ek04</text>
<text transform="matrix(1 0 0 1 747.2015 433.7515)" class="st29 st5 st6">-45</text>
<text transform="matrix(1 0 0 1 815.9047 532.9261)" class="st29 st5 st6">K68(B)</text>
<text transform="matrix(1 0 0 1 837.9789 532.9261)" class="st29 st5 st6">-11</text>
<text transform="matrix(1 0 0 1 815.9047 578.9281)" class="st29 st5 st6">K68(B)</text>
<text transform="matrix(1 0 0 1 837.0622 578.9281)" class="st29 st5 st6">-12</text>
<text transform="matrix(1 0 0 1 815.9047 433.7515)" class="st29 st5 st6">KG86(E)</text>
<text transform="matrix(1 0 0 1 842.2386 433.7515)" class="st29 st5 st6">-46</text>
<text transform="matrix(1 0 0 1 199.4546 433.7515)" class="st29 st5 st6">BG64(B)</text>
<text transform="matrix(1 0 0 1 185.2705 823.2426)" class="st29 st5 st6">Eb03</text>
<text transform="matrix(1 0 0 1 225.9566 433.7515)" class="st29 st5 st6">-43</text>
<text transform="matrix(1 0 0 1 142.7666 433.7515)" class="st29 st5 st6">KG64(E)</text>
<text transform="matrix(1 0 0 1 128.8047 823.2426)" class="st29 st5 st6">Ek03</text>
<text transform="matrix(1 0 0 1 169.2686 433.7515)" class="st29 st5 st6">-13</text>
<text transform="matrix(1 0 0 1 528.8373 433.7515)" class="st29 st5 st6">KG86(E)</text>
<text transform="matrix(1 0 0 1 528.8373 532.9261)" class="st29 st5 st6">K68(A)</text>
<text transform="matrix(1 0 0 1 550.9115 532.9261)" class="st29 st5 st6">-11</text>
<text transform="matrix(1 0 0 1 528.8373 578.9281)" class="st29 st5 st6">K68(A)</text>
<text transform="matrix(1 0 0 1 550.9115 578.9281)" class="st29 st5 st6">-12</text>
<text transform="matrix(1 0 0 1 553.8588 433.7515)" class="st29 st5 st6">-33</text>
<line class="st0" x1="159" y1="206.8" x2="159" y2="341"/>
<polyline class="st18" points="122.4,206.8 122.4,305.2 84.3,305.2 84.3,205.1 "/>
<polyline class="st33" points="122.4,206.8 122.4,305.2 84.3,305.2 84.3,205.1 "/>
<rect x="155.8" y="304.8" class="st15" width="6.4" height="6"/>
<g>
	<text transform="matrix(1 0 0 1 151.4619 309.7464)" class="st5 st6">B 1.0</text>
</g>
<g>
	<g id="GB031_17_">
		<g>
			<g>
				<line class="st13" x1="159.1" y1="339" x2="159.1" y2="341.7"/>
			</g>
			<g>
				<line class="st13" x1="152.1" y1="341.7" x2="165.9" y2="341.7"/>
			</g>
			<g>
				<line class="st13" x1="154.9" y1="343.9" x2="163.1" y2="343.9"/>
			</g>
			<g>
				<line class="st13" x1="161.4" y1="346" x2="156.6" y2="346"/>
			</g>
		</g>
		<g>
			<rect x="148.7" y="348.5" class="st15" width="20.3" height="8.2"/>
			<rect x="149" y="348.8" class="st34" width="19.7" height="7.6"/>
		</g>
	</g>
</g>
<rect x="163.7" y="278.7" class="st35" width="25" height="7.4"/>
<text transform="matrix(1 0 0 1 164.0392 284.1926)" class="st5 st6">SP2777</text>
<path class="st36" d="M161.7,283c0,1.7-1.3,2.9-2.8,2.9c-1.6,0-2.9-1.2-2.9-2.9c0-1.5,1.3-2.7,2.9-2.7
	C160.4,280.3,161.7,281.5,161.7,283z"/>
<rect x="89.3" y="278.7" class="st35" width="25" height="7.4"/>
<text transform="matrix(1 0 0 1 89.7059 284.1926)" class="st5 st6">SP3215</text>
<path class="st36" d="M87.3,283c0,1.7-1.3,2.9-2.8,2.9c-1.6,0-2.9-1.2-2.9-2.9c0-1.5,1.3-2.7,2.9-2.7C86,280.3,87.3,281.5,87.3,283z
	"/>
<text transform="matrix(1 0 0 1 151.3867 354.826)" class="st29 st5 st6">Ek07</text>
<g id="REB_x2C_A3_4_">
	<rect x="71.6" y="120" class="st37" width="265.6" height="76"/>
</g>
<g>
	<line class="st0" x1="209.3" y1="206.5" x2="209.3" y2="382.9"/>
</g>
<g>
	<line class="st17" x1="209.3" y1="206.5" x2="209.3" y2="382.9"/>
</g>
<line class="st38" x1="309.7" y1="206.8" x2="309.7" y2="383.1"/>
<line class="st39" x1="309.7" y1="206.8" x2="309.7" y2="383.1"/>
<line class="st40" x1="309.7" y1="206.8" x2="309.7" y2="383.1"/>
<rect x="316.4" y="289.8" class="st35" width="25.3" height="5.6"/>
<text transform="matrix(1 0 0 1 317.1319 294.6505)" class="st5 st6">SP1914</text>
<path class="st36" d="M312.8,292.6c0,1.7-1.3,2.9-2.8,2.9c-1.6,0-2.9-1.2-2.9-2.9c0-1.5,1.3-2.7,2.9-2.7
	C311.5,289.9,312.8,291.1,312.8,292.6z"/>
<rect x="215.8" y="289.5" class="st35" width="25.3" height="5.6"/>
<text transform="matrix(1 0 0 1 216.5032 294.3336)" class="st5 st6">SP3222</text>
<path class="st36" d="M212.2,292.3c0,1.7-1.3,2.9-2.8,2.9c-1.6,0-2.9-1.2-2.9-2.9c0-1.5,1.3-2.7,2.9-2.7
	C210.9,289.6,212.2,290.8,212.2,292.3z"/>
<g id="RF22_x2C_A3_5_">
	<g>
		<g>
			<path class="st3" d="M309.6,163.7c-1.2,0-2.2,1-2.2,2.2c0,1.2,1,2.2,2.2,2.2c1.2,0,2.2-1,2.2-2.2
				C311.8,164.7,310.8,163.7,309.6,163.7"/>
		</g>
		<g>
			<path class="st3" d="M309.6,147.9c-1.2,0-2.2,1-2.2,2.1c0,1.2,1,2.2,2.2,2.2c1.2,0,2.2-0.9,2.2-2.2
				C311.8,148.9,310.8,147.9,309.6,147.9"/>
		</g>
		<g>
			<path class="st3" d="M308.1,151.7c-0.1,2.5,0.2,3.2,1.3,4.3c1.2,1.2,2.4,1.7,2.8,3.7c0.4,1.6-0.1,3.5-1.1,4.5"/>
		</g>
		<g>
			<path class="st3" d="M311,164.2c0.2-0.8,0-2.9-0.6-3.7c-0.9-1.2-2.7-2.1-3.3-4c-0.9-2.8,0.7-4.6,1.1-5"/>
		</g>
	</g>
</g>
<g id="RF22_x2C_A3_4_">
	<g>
		<g>
			<path class="st3" d="M272.1,163.7c-1.2,0-2.2,1-2.2,2.2c0,1.2,1,2.2,2.2,2.2c1.2,0,2.2-1,2.2-2.2
				C274.3,164.7,273.3,163.7,272.1,163.7"/>
		</g>
		<g>
			<path class="st3" d="M272.1,147.9c-1.2,0-2.2,1-2.2,2.1c0,1.2,1,2.2,2.2,2.2c1.2,0,2.2-0.9,2.2-2.2
				C274.3,148.9,273.3,147.9,272.1,147.9"/>
		</g>
		<g>
			<path class="st3" d="M270.6,151.7c-0.1,2.5,0.2,3.2,1.3,4.3c1.2,1.2,2.4,1.7,2.8,3.7c0.4,1.6-0.1,3.5-1.1,4.5"/>
		</g>
		<g>
			<path class="st3" d="M273.5,164.2c0.2-0.8,0-2.9-0.6-3.7c-0.9-1.2-2.7-2.1-3.3-4c-0.9-2.8,0.7-4.6,1.1-5"/>
		</g>
	</g>
</g>
<g>
	<g>
		<polyline class="st41" points="309.6,168.1 309.6,191.9 309.6,195.9 		"/>
	</g>
</g>
<g>
	<g>
		<polyline class="st41" points="309.6,147.9 309.6,144.1 309.6,80.4 		"/>
	</g>
</g>
<g>
	<g>
		<line class="st41" x1="309.6" y1="204.5" x2="309.6" y2="196.2"/>
	</g>
	<g>
		<path class="st15" d="M309.7,207.5c-1.7,0-3-1.4-3-3c0-1.8,1.4-3.2,3-3.2c1.8,0,3.2,1.4,3.2,3.2
			C312.9,206.1,311.5,207.5,309.7,207.5z"/>
		<path d="M309.7,208.2c-2,0-3.7-1.6-3.7-3.7c0-2.2,1.7-3.8,3.7-3.8v1.1c-1.4,0-2.5,1.1-2.5,2.7c0,1.4,1.1,2.5,2.5,2.5V208.2
			L309.7,208.2z M309.7,200.7v1.1c1.5,0,2.7,1.1,2.7,2.7c0,1.4-1.1,2.5-2.7,2.5v1.1c2.2,0,3.8-1.6,3.8-3.7
			C313.5,202.3,311.8,200.7,309.7,200.7z"/>
	</g>
	<rect x="305.5" y="200.3" class="st15" width="8.5" height="4.1"/>
	<rect x="309" y="201.2" width="1" height="4.2"/>
	<rect x="309" y="201.2" class="st16" width="1" height="4.2"/>
</g>
<g>
	<g>
		<line class="st41" x1="309.9" y1="385.1" x2="309.9" y2="393.3"/>
	</g>
	<g>
		<path class="st15" d="M309.8,382.1c1.7,0,3,1.4,3,3c0,1.8-1.4,3.2-3,3.2c-1.8,0-3.2-1.4-3.2-3.2
			C306.6,383.5,308,382.1,309.8,382.1z"/>
		<path d="M309.8,381.4c2,0,3.7,1.7,3.7,3.7c0,2.2-1.7,3.8-3.7,3.8v-1.1c1.4,0,2.5-1.1,2.5-2.7c0-1.4-1.1-2.5-2.5-2.5V381.4
			L309.8,381.4z M309.8,388.9v-1.1c-1.5,0-2.7-1.1-2.7-2.7c0-1.4,1.1-2.5,2.7-2.5v-1.1c-2.2,0-3.8,1.7-3.8,3.7
			C306,387.3,307.6,388.9,309.8,388.9z"/>
	</g>
	<rect x="305.5" y="385.2" class="st15" width="8.5" height="4.1"/>
	<rect x="309.4" y="384.2" width="1" height="4.2"/>
	<rect x="309.4" y="384.2" class="st16" width="1" height="4.2"/>
</g>
<rect x="297.3" y="234.6" class="st15" width="25.5" height="6"/>
<g>
	<text transform="matrix(1 0 0 1 295.1112 239.6925)" class="st5 st6">R/W 0.35</text>
</g>
<g>
	<path class="st42" d="M306.4,80.1c0-1.7,1.3-2.9,2.8-2.9c1.6,0,2.9,1.2,2.9,2.9c0,1.5-1.3,2.7-2.9,2.7
		C307.7,82.9,306.4,81.6,306.4,80.1z"/>
	<g>
		<path class="st43" d="M306.4,80.1c0-1.7,1.3-2.9,2.8-2.9c1.6,0,2.9,1.2,2.9,2.9c0,1.5-1.3,2.7-2.9,2.7
			C307.7,82.9,306.4,81.6,306.4,80.1"/>
	</g>
</g>
<g>
	<g>
		<polyline class="st41" points="272.3,147.9 272.3,144.1 272.3,47 		"/>
	</g>
</g>
<g>
	<path class="st42" d="M269.2,46.7c0-1.7,1.3-2.9,2.8-2.9c1.6,0,2.9,1.2,2.9,2.9c0,1.5-1.3,2.7-2.9,2.7
		C270.5,49.5,269.2,48.2,269.2,46.7z"/>
	<g>
		<path class="st43" d="M269.2,46.7c0-1.7,1.3-2.9,2.8-2.9c1.6,0,2.9,1.2,2.9,2.9c0,1.5-1.3,2.7-2.9,2.7
			C270.5,49.5,269.2,48.2,269.2,46.7"/>
	</g>
</g>
<rect x="290.2" y="356" class="st15" width="25.7" height="6"/>
<rect x="290.2" y="356" class="st15" width="25.5" height="6"/>
<g>
	<text transform="matrix(1 0 0 1 295.1112 360.9452)" class="st5 st6">R/W 0.35</text>
</g>
<g>
	<g>
		<text transform="matrix(1 0 0 1 313.9149 162.0314)" class="st5 st6">7.5A</text>
	</g>
</g>
<g>
	<g>
		<line class="st41" x1="209.2" y1="204.2" x2="209.2" y2="196"/>
	</g>
	<g>
		<path class="st15" d="M209.3,207.3c-1.7,0-3-1.4-3-3c0-1.8,1.4-3.2,3-3.2c1.8,0,3.2,1.4,3.2,3.2
			C212.5,205.9,211.1,207.3,209.3,207.3z"/>
		<path d="M209.3,207.9c-2,0-3.7-1.6-3.7-3.7c0-2.2,1.7-3.8,3.7-3.8v1.1c-1.4,0-2.5,1.1-2.5,2.7c0,1.4,1.1,2.5,2.5,2.5V207.9
			L209.3,207.9z M209.3,200.4v1.1c1.5,0,2.7,1.1,2.7,2.7c0,1.4-1.1,2.5-2.7,2.5v1.1c2.2,0,3.8-1.6,3.8-3.7
			C213.1,202.1,211.5,200.4,209.3,200.4z"/>
	</g>
	<rect x="205.1" y="200" class="st15" width="8.5" height="4.1"/>
	<rect x="208.7" y="200.9" width="1" height="4.2"/>
	<rect x="208.7" y="200.9" class="st16" width="1" height="4.2"/>
</g>
<g>
	<g>
		<line class="st41" x1="209.5" y1="384.8" x2="209.5" y2="393.1"/>
	</g>
	<g>
		<path class="st15" d="M209.4,381.8c1.7,0,3,1.4,3,3c0,1.8-1.4,3.2-3,3.2c-1.8,0-3.2-1.4-3.2-3.2
			C206.3,383.2,207.7,381.8,209.4,381.8z"/>
		<path d="M209.4,381.2c2,0,3.7,1.7,3.7,3.7c0,2.2-1.7,3.8-3.7,3.8v-1.1c1.4,0,2.5-1.1,2.5-2.7c0-1.4-1.1-2.5-2.5-2.5V381.2
			L209.4,381.2z M209.4,388.7v-1.1c-1.5,0-2.7-1.1-2.7-2.7c0-1.4,1.1-2.5,2.7-2.5v-1.1c-2.2,0-3.8,1.7-3.8,3.7
			C205.6,387,207.3,388.7,209.4,388.7z"/>
	</g>
	<rect x="205.1" y="385" class="st15" width="8.5" height="4.1"/>
	<rect x="209.1" y="384" width="1" height="4.2"/>
	<rect x="209.1" y="384" class="st16" width="1" height="4.2"/>
</g>
<rect x="203.1" y="234.9" class="st15" width="12.5" height="6"/>
<g>
	<text transform="matrix(1 0 0 1 195.1785 239.6925)" class="st5 st6">B/R 0.75</text>
</g>
<rect x="153.2" y="234.9" class="st15" width="12.5" height="6"/>
<g>
	<text transform="matrix(1 0 0 1 149.0938 239.6925)" class="st5 st6">B 0.35</text>
</g>
<rect x="116.5" y="234.9" class="st15" width="12.5" height="6"/>
<g>
	<text transform="matrix(1 0 0 1 110.8996 239.6925)" class="st5 st6">R/Gr 0.5</text>
</g>
<rect x="76.8" y="234.9" class="st15" width="12.5" height="6"/>
<g>
	<text transform="matrix(1 0 0 1 71.1348 239.6925)" class="st5 st6">R/Gr 0.5</text>
</g>
<rect x="203.1" y="355.7" class="st15" width="12.5" height="6"/>
<g>
	<text transform="matrix(1 0 0 1 195.1785 360.5109)" class="st5 st6">B/R 0.75</text>
</g>
<g>
	<text transform="matrix(1 0 0 1 313.7113 155.4133)" class="st29 st5 st6">F1/12</text>
</g>
<g id="RF22_x2C_A3_1_">
	<g>
		<g>
			<path class="st3" d="M84.2,163.7c-1.2,0-2.2,1-2.2,2.2c0,1.2,1,2.2,2.2,2.2c1.2,0,2.2-1,2.2-2.2
				C86.4,164.7,85.4,163.7,84.2,163.7"/>
		</g>
		<g>
			<path class="st3" d="M84.2,147.9c-1.2,0-2.2,1-2.2,2.1c0,1.2,1,2.2,2.2,2.2c1.2,0,2.2-0.9,2.2-2.2
				C86.4,148.9,85.4,147.9,84.2,147.9"/>
		</g>
		<g>
			<path class="st3" d="M82.7,151.7c-0.1,2.5,0.2,3.2,1.3,4.3c1.2,1.2,2.4,1.7,2.8,3.7c0.4,1.6-0.1,3.5-1.1,4.5"/>
		</g>
		<g>
			<path class="st3" d="M85.6,164.2c0.2-0.8,0-2.9-0.6-3.7c-0.9-1.2-2.7-2.1-3.3-4c-0.9-2.8,0.7-4.6,1.1-5"/>
		</g>
	</g>
</g>
<g>
	<g>
		<polyline class="st41" points="84.2,168.1 84.2,191.9 84.2,195.9 		"/>
	</g>
</g>
<g>
	<g>
		<polyline class="st41" points="84.2,147.9 84.2,144.1 84.2,68.7 		"/>
	</g>
</g>
<g>
	<path class="st42" d="M81,68.5c0-1.7,1.3-2.9,2.8-2.9c1.6,0,2.9,1.2,2.9,2.9c0,1.5-1.3,2.7-2.9,2.7C82.3,71.2,81,70,81,68.5z"/>
	<g>
		<path class="st43" d="M81,68.5c0-1.7,1.3-2.9,2.8-2.9c1.6,0,2.9,1.2,2.9,2.9c0,1.5-1.3,2.7-2.9,2.7C82.3,71.2,81,70,81,68.5"/>
	</g>
</g>
<g>
	<g>
		<text transform="matrix(1 0 0 1 88.5097 162.0314)" class="st5 st6">10A</text>
	</g>
</g>
<g>
	<text transform="matrix(1 0 0 1 88.3061 155.4133)" class="st29 st5 st6">F1/25</text>
</g>
<g>
	<g>
		<text transform="matrix(1 0 0 1 276.1414 162.0314)" class="st5 st6">15A</text>
	</g>
</g>
<g>
	<text transform="matrix(1 0 0 1 275.9378 155.4133)" class="st29 st5 st6">F1/31</text>
</g>
<g>
	<text transform="matrix(1 0 0 1 341.7436 141.5461)" class="st32 st5 st6"> Front Compartment Distribution Box</text>
</g>
<g>
	<text transform="matrix(1 0 0 1 313.8623 203.2332)" class="st29 st5 st6">B1D</text>
</g>
<g>
	<text transform="matrix(1 0 0 1 326.3623 202.9832)" class="st29 st5 st6">-9</text>
</g>
<g>
	<text transform="matrix(1 0 0 1 315.2051 390.4808)" class="st29 st5 st6">BG64(B)</text>
</g>
<g>
	<text transform="matrix(1 0 0 1 340.1748 390.2308)" class="st29 st5 st6">-48</text>
</g>
<g>
	<text transform="matrix(1 0 0 1 213.4912 202.9832)" class="st29 st5 st6">B1C</text>
</g>
<g>
	<text transform="matrix(1 0 0 1 225.9912 202.9832)" class="st29 st5 st6">-5</text>
</g>
<g>
	<g>
		<line class="st41" x1="159.1" y1="204.2" x2="159.1" y2="196"/>
	</g>
	<g>
		<path class="st15" d="M159.2,207.3c-1.7,0-3-1.4-3-3c0-1.8,1.4-3.2,3-3.2c1.8,0,3.2,1.4,3.2,3.2
			C162.4,205.9,161,207.3,159.2,207.3z"/>
		<path d="M159.2,207.9c-2,0-3.7-1.6-3.7-3.7c0-2.2,1.7-3.8,3.7-3.8v1.1c-1.4,0-2.5,1.1-2.5,2.7c0,1.4,1.1,2.5,2.5,2.5V207.9
			L159.2,207.9z M159.2,200.4v1.1c1.5,0,2.7,1.1,2.7,2.7c0,1.4-1.1,2.5-2.7,2.5v1.1c2.2,0,3.8-1.6,3.8-3.7
			C163,202.1,161.3,200.4,159.2,200.4z"/>
	</g>
	<rect x="155" y="200" class="st15" width="8.5" height="4.1"/>
	<rect x="158.5" y="200.9" width="1" height="4.2"/>
	<rect x="158.5" y="200.9" class="st16" width="1" height="4.2"/>
</g>
<g>
	<text transform="matrix(1 0 0 1 163.3662 202.9832)" class="st29 st5 st6">B1C</text>
</g>
<g>
	<text transform="matrix(1 0 0 1 175.8662 202.9832)" class="st29 st5 st6">-21</text>
</g>
<g>
	<g>
		<line class="st41" x1="122.5" y1="204.2" x2="122.5" y2="196"/>
	</g>
	<g>
		<path class="st15" d="M122.6,207.3c-1.7,0-3-1.4-3-3c0-1.8,1.4-3.2,3-3.2c1.8,0,3.2,1.4,3.2,3.2
			C125.7,205.9,124.3,207.3,122.6,207.3z"/>
		<path d="M122.6,207.9c-2,0-3.7-1.6-3.7-3.7c0-2.2,1.7-3.8,3.7-3.8v1.1c-1.4,0-2.5,1.1-2.5,2.7c0,1.4,1.1,2.5,2.5,2.5V207.9
			L122.6,207.9z M122.6,200.4v1.1c1.5,0,2.7,1.1,2.7,2.7c0,1.4-1.1,2.5-2.7,2.5v1.1c2.2,0,3.8-1.6,3.8-3.7
			C126.4,202.1,124.7,200.4,122.6,200.4z"/>
	</g>
	<rect x="118.4" y="200" class="st15" width="8.5" height="4.1"/>
	<rect x="121.9" y="200.9" width="1" height="4.2"/>
	<rect x="121.9" y="200.9" class="st16" width="1" height="4.2"/>
</g>
<g>
	<text transform="matrix(1 0 0 1 126.7412 202.9832)" class="st29 st5 st6">B1C</text>
</g>
<g>
	<text transform="matrix(1 0 0 1 139.2412 202.9832)" class="st29 st5 st6">-14</text>
</g>
<g>
	<g>
		<line class="st41" x1="84.3" y1="204.2" x2="84.3" y2="196"/>
	</g>
	<g>
		<path class="st15" d="M84.4,207.3c-1.7,0-3-1.4-3-3c0-1.8,1.4-3.2,3-3.2c1.8,0,3.2,1.4,3.2,3.2C87.6,205.9,86.2,207.3,84.4,207.3z
			"/>
		<path d="M84.4,207.9c-2,0-3.7-1.6-3.7-3.7c0-2.2,1.7-3.8,3.7-3.8v1.1c-1.4,0-2.5,1.1-2.5,2.7c0,1.4,1.1,2.5,2.5,2.5V207.9
			L84.4,207.9z M84.4,200.4v1.1c1.5,0,2.7,1.1,2.7,2.7c0,1.4-1.1,2.5-2.7,2.5v1.1c2.2,0,3.8-1.6,3.8-3.7
			C88.2,202.1,86.5,200.4,84.4,200.4z"/>
	</g>
	<rect x="80.2" y="200" class="st15" width="8.5" height="4.1"/>
	<rect x="83.8" y="200.9" width="1" height="4.2"/>
	<rect x="83.8" y="200.9" class="st16" width="1" height="4.2"/>
</g>
<g>
	<text transform="matrix(1 0 0 1 88.5742 202.9832)" class="st29 st5 st6">B1C</text>
</g>
<g>
	<text transform="matrix(1 0 0 1 101.0742 202.9832)" class="st29 st5 st6">-33</text>
</g>
<g>
	<text transform="matrix(1 0 0 1 214.834 390.2308)" class="st29 st5 st6">BG64(B)</text>
</g>
<g>
	<text transform="matrix(1 0 0 1 239.8037 390.2308)" class="st29 st5 st6">-47</text>
</g>
<rect x="134.8" y="146.4" class="st44" width="91.3" height="38.8"/>
<g>
	<line class="st45" x1="212.9" y1="171.8" x2="207.6" y2="161.3"/>
</g>
<g>
	<line class="st46" x1="146.6" y1="166.2" x2="208.6" y2="166.1"/>
</g>
<path class="st15" d="M208.7,160.1c0-0.6-0.5-1.2-1.2-1.2c-0.6,0-1.2,0.5-1.2,1.2c0,0.6,0.5,1.2,1.2,1.2S208.7,160.8,208.7,160.1z"
	/>
<g>
	<path class="st47" d="M208.7,160.1c0-0.6-0.5-1.2-1.2-1.2c-0.6,0-1.2,0.5-1.2,1.2c0,0.6,0.5,1.2,1.2,1.2S208.7,160.8,208.7,160.1"
		/>
</g>
<g>
	<polyline class="st48" points="159.2,196 159.2,172.3 159.2,166.2 159.2,137.7 159.2,126.5 122.5,126.5 122.5,195.9 	"/>
</g>
<path class="st15" d="M210.6,171.8c0-0.6-0.5-1.2-1.2-1.2c-0.6,0-1.2,0.5-1.2,1.2c0,0.6,0.5,1.1,1.2,1.1
	C210.1,172.9,210.6,172.4,210.6,171.8z"/>
<g>
	<path class="st47" d="M210.6,171.8c0-0.6-0.5-1.2-1.2-1.2c-0.6,0-1.2,0.5-1.2,1.2c0,0.6,0.5,1.1,1.2,1.1
		C210.1,172.9,210.6,172.4,210.6,171.8"/>
</g>
<rect x="151.8" y="163.2" class="st49" width="14.2" height="5.7"/>
<g>
	<rect x="142.7" y="161.6" class="st50" width="4" height="8.5"/>
	<g>
		<polyline class="st48" points="144.7,170.3 144.7,177.3 158,177.3 		"/>
	</g>
	<g>
		<polyline class="st48" points="144.7,161.5 144.7,155.1 158.9,155.1 		"/>
	</g>
</g>
<g>
	<line class="st50" x1="161.5" y1="163.2" x2="156.7" y2="169.1"/>
</g>
<polyline class="st48" points="207.6,126.5 207.6,155.3 207.6,158.8 "/>
<polyline class="st48" points="209.4,173.2 209.4,193.8 209.4,196.2 "/>
<g>
	<text transform="matrix(1 0 0 1 230.9191 162.4907)" class="st5 st6">IG3-2</text>
	<text transform="matrix(1 0 0 1 230.9191 170.5491)" class="st5 st6">Relay</text>
</g>
<g>
	<path class="st48" d="M159.1,155"/>
	<path class="st51" d="M159.1,156.9c-1,0-1.7-0.8-1.7-1.7c0-1,0.7-1.8,1.7-1.8c0.9,0,1.7,0.8,1.7,1.8
		C160.8,156.1,160,156.9,159.1,156.9z"/>
	<g>
		<path class="st52" d="M159.1,156.9c-1,0-1.7-0.8-1.7-1.7c0-1,0.7-1.8,1.7-1.8c0.9,0,1.7,0.8,1.7,1.8
			C160.8,156.1,160,156.9,159.1,156.9"/>
	</g>
</g>
<path class="st48" d="M207.7,126.4"/>
<g>
	<path class="st48" d="M159.1,177.1"/>
	<path class="st51" d="M159.1,179c-1,0-1.7-0.8-1.7-1.7c0-1,0.7-1.8,1.7-1.8c0.9,0,1.7,0.8,1.7,1.8C160.8,178.2,160,179,159.1,179z"
		/>
	<g>
		<path class="st52" d="M159.1,179c-1,0-1.7-0.8-1.7-1.7c0-1,0.7-1.8,1.7-1.8c0.9,0,1.7,0.8,1.7,1.8C160.8,178.2,160,179,159.1,179"
			/>
	</g>
</g>
<path class="st48" d="M207.7,126.4"/>
<polyline class="st48" points="207.7,126.4 254.3,126.4 254.3,189.3 272,189.3 272,168.1 "/>
<line class="st53" x1="370.6" y1="246.6" x2="370.6" y2="386"/>
<line class="st54" x1="426.1" y1="247.6" x2="426.1" y2="387.1"/>
<g>
	<rect x="419.4" y="355.9" class="st15" width="13.9" height="6"/>
	<g>
		<text transform="matrix(1 0 0 1 417.7032 361.0242)" class="st5 st6">V 0.35</text>
	</g>
</g>
<g>
	<rect x="365.3" y="355.9" class="st15" width="13.9" height="6"/>
	<g>
		<text transform="matrix(1 0 0 1 361.5606 361.0242)" class="st5 st6">P 0.35</text>
	</g>
</g>
<path class="st10" d="M368.2,324c-1.8,0-3.2-1.5-3.2-3.5c0-1.9,1.4-3.5,3.2-3.5l59.9,6.9c1.8,0,3.2-1.5,3.2-3.5
	c0-1.9-1.4-3.5-3.2-3.5L368.2,324z"/>
<g>
	<text transform="matrix(1 0 0 1 419.3998 398.9147)" class="st5 st9">CAN_L</text>
</g>
<g>
	<text transform="matrix(1 0 0 1 361.5609 398.4355)" class="st5 st9">CAN_H</text>
</g>
<g>
	<text transform="matrix(1 0 0 1 355.0334 234.3349)" class="st5 st6">See Body Network Circuit Diagram</text>
</g>
<path class="st55" d="M430.3,244.4l-0.5-2.1c0,0-0.5-2.5-2.7-2.6h-28.3l0,0l-1.6-2.7l-1.6,2.7c-7.4,0-28.2,0-28.2,0
	c-2.2,0.1-2.7,2.6-2.7,2.6l-0.5,2.1"/>
<g>
	<g>
		<line class="st41" x1="370.6" y1="385.1" x2="370.6" y2="393.3"/>
	</g>
	<g>
		<path class="st15" d="M370.5,382c1.7,0,3,1.4,3,3c0,1.8-1.4,3.2-3,3.2c-1.8,0-3.2-1.4-3.2-3.2C367.3,383.4,368.7,382,370.5,382z"
			/>
		<path d="M370.5,381.4c2,0,3.7,1.7,3.7,3.7c0,2.2-1.7,3.8-3.7,3.8v-1.1c1.4,0,2.5-1.1,2.5-2.7c0-1.4-1.1-2.5-2.5-2.5V381.4
			L370.5,381.4z M370.5,388.9v-1.1c-1.5,0-2.7-1.1-2.7-2.7c0-1.4,1.1-2.5,2.7-2.5v-1.1c-2.2,0-3.8,1.7-3.8,3.7
			C366.7,387.2,368.3,388.9,370.5,388.9z"/>
	</g>
	<rect x="366.2" y="385.2" class="st15" width="8.5" height="4.1"/>
	<rect x="370.1" y="384.2" width="1" height="4.2"/>
	<rect x="370.1" y="384.2" class="st16" width="1" height="4.2"/>
</g>
<g>
	<g>
		<line class="st41" x1="426" y1="385.1" x2="426" y2="393.3"/>
	</g>
	<g>
		<path class="st15" d="M426,382c1.7,0,3,1.4,3,3c0,1.8-1.4,3.2-3,3.2c-1.8,0-3.2-1.4-3.2-3.2C422.8,383.4,424.2,382,426,382z"/>
		<path d="M426,381.4c2,0,3.7,1.7,3.7,3.7c0,2.2-1.7,3.8-3.7,3.8v-1.1c1.4,0,2.5-1.1,2.5-2.7c0-1.4-1.1-2.5-2.5-2.5V381.4L426,381.4
			z M426,388.9v-1.1c-1.5,0-2.7-1.1-2.7-2.7c0-1.4,1.1-2.5,2.7-2.5v-1.1c-2.2,0-3.8,1.7-3.8,3.7C422.1,387.2,423.8,388.9,426,388.9z
			"/>
	</g>
	<rect x="421.6" y="385.2" class="st15" width="8.5" height="4.1"/>
	<rect x="425.6" y="384.2" width="1" height="4.2"/>
	<rect x="425.6" y="384.2" class="st16" width="1" height="4.2"/>
</g>
<text transform="matrix(1 0 0 1 375.8379 390.4676)" class="st29 st5 st6">G64(G)</text>
<text transform="matrix(1 0 0 1 397.8257 390.4676)" class="st29 st5 st6">-10</text>
<text transform="matrix(1 0 0 1 431.3379 390.4676)" class="st29 st5 st6">G64(G)</text>
<text transform="matrix(1 0 0 1 453.3257 390.4676)" class="st29 st5 st6">-9</text>
<line class="st53" x1="602.5" y1="246.6" x2="602.5" y2="386"/>
<line class="st54" x1="658" y1="247.6" x2="658" y2="387.1"/>
<g>
	<rect x="651.3" y="355.9" class="st15" width="13.9" height="6"/>
	<g>
		<text transform="matrix(1 0 0 1 649.6312 361.0242)" class="st5 st6">V 0.35</text>
	</g>
</g>
<g>
	<rect x="597.2" y="355.9" class="st15" width="13.9" height="6"/>
	<g>
		<text transform="matrix(1 0 0 1 593.4886 361.0242)" class="st5 st6">P 0.35</text>
	</g>
</g>
<path class="st10" d="M600.1,324c-1.8,0-3.2-1.5-3.2-3.5c0-1.9,1.4-3.5,3.2-3.5L660,324c1.8,0,3.2-1.5,3.2-3.5
	c0-1.9-1.4-3.5-3.2-3.5L600.1,324z"/>
<g>
	<text transform="matrix(1 0 0 1 651.3279 398.9147)" class="st5 st9">CAN_L</text>
</g>
<g>
	<text transform="matrix(1 0 0 1 593.4889 398.4355)" class="st5 st9">CAN_H</text>
</g>
<g>
	<text transform="matrix(1 0 0 1 608.9615 227.3349)" class="st5 st6">See Body Network Circuit Diagram</text>
</g>
<path class="st55" d="M662.2,244.4l-0.5-2.1c0,0-0.5-2.5-2.7-2.6h-28.3l0,0l-1.6-2.7l-1.6,2.7c-7.4,0-28.2,0-28.2,0
	c-2.2,0.1-2.7,2.6-2.7,2.6l-0.5,2.1"/>
<g>
	<g>
		<line class="st41" x1="602.5" y1="385.1" x2="602.5" y2="393.3"/>
	</g>
	<g>
		<path class="st15" d="M602.4,382c1.7,0,3,1.4,3,3c0,1.8-1.4,3.2-3,3.2c-1.8,0-3.2-1.4-3.2-3.2C599.2,383.4,600.6,382,602.4,382z"
			/>
		<path d="M602.4,381.4c2,0,3.7,1.7,3.7,3.7c0,2.2-1.7,3.8-3.7,3.8v-1.1c1.4,0,2.5-1.1,2.5-2.7c0-1.4-1.1-2.5-2.5-2.5V381.4
			L602.4,381.4z M602.4,388.9v-1.1c-1.5,0-2.7-1.1-2.7-2.7c0-1.4,1.1-2.5,2.7-2.5v-1.1c-2.2,0-3.8,1.7-3.8,3.7
			C598.6,387.2,600.2,388.9,602.4,388.9z"/>
	</g>
	<rect x="598.1" y="385.2" class="st15" width="8.5" height="4.1"/>
	<rect x="602" y="384.2" width="1" height="4.2"/>
	<rect x="602" y="384.2" class="st16" width="1" height="4.2"/>
</g>
<g>
	<g>
		<line class="st41" x1="658" y1="385.1" x2="658" y2="393.3"/>
	</g>
	<g>
		<path class="st15" d="M657.9,382c1.7,0,3,1.4,3,3c0,1.8-1.4,3.2-3,3.2c-1.8,0-3.2-1.4-3.2-3.2C654.7,383.4,656.1,382,657.9,382z"
			/>
		<path d="M657.9,381.4c2,0,3.7,1.7,3.7,3.7c0,2.2-1.7,3.8-3.7,3.8v-1.1c1.4,0,2.5-1.1,2.5-2.7c0-1.4-1.1-2.5-2.5-2.5V381.4
			L657.9,381.4z M657.9,388.9v-1.1c-1.5,0-2.7-1.1-2.7-2.7c0-1.4,1.1-2.5,2.7-2.5v-1.1c-2.2,0-3.8,1.7-3.8,3.7
			C654.1,387.2,655.7,388.9,657.9,388.9z"/>
	</g>
	<rect x="653.6" y="385.2" class="st15" width="8.5" height="4.1"/>
	<rect x="657.5" y="384.2" width="1" height="4.2"/>
	<rect x="657.5" y="384.2" class="st16" width="1" height="4.2"/>
</g>
<text transform="matrix(1 0 0 1 607.7661 390.4676)" class="st29 st5 st6">G86(H)</text>
<text transform="matrix(1 0 0 1 629.7539 390.4676)" class="st29 st5 st6">-10</text>
<text transform="matrix(1 0 0 1 663.2661 390.4676)" class="st29 st5 st6">G86(H)</text>
<text transform="matrix(1 0 0 1 685.2539 390.4676)" class="st29 st5 st6">-9</text>
<g id="保险丝名称_8_">
	<text transform="matrix(1 0 0 1 182.1472 397.4138)" class="st56 st5 st9">IG3 Pwer supply</text>
</g>
<g>
	<text transform="matrix(1 0 0 1 499.0972 423.8264)" class="st21 st5 st9">Seat belt alarm sensor</text>
</g>
<g>
	<text transform="matrix(1 0 0 1 679.1362 423.8264)" class="st21 st5 st9">Acquistion of non system warning signal</text>
</g>
<g id="保险丝名称_7_">
	<text transform="matrix(1 0 0 1 299.1151 397.4139)" class="st56 st5 st9">IG4 Power supply</text>
</g>
<g id="保险丝名称_5_">
	<text transform="matrix(1 0 0 1 66.1334 423.8265)" class="st56 st5 st9">Power ground</text>
</g>
<g id="保险丝名称_3_">
	<text transform="matrix(1 0 0 1 236.2614 423.8265)" class="st56 st5 st9">Power ground</text>
</g>
<text transform="matrix(1 0 0 1 275.9565 423.8265)" class="st56 st5 st9">Driver seat belt buckle signal</text>
<g id="保险丝名称_1_">
	<text transform="matrix(1 0 0 1 179.5699 423.8265)" class="st56 st5 st9">Signal ground</text>
</g>
<g id="保险丝名称_2_">
	<text transform="matrix(1 0 0 1 122.8762 423.8265)" class="st56 st5 st9">Power ground</text>
</g>
<g>
	<g id="FB103_3_">
		<g>
			<g id="FB103_16_">
				<text transform="matrix(1 0 0 1 247.028 411.3504)" class="st57 st5 st6">Left Body Controller</text>
			</g>
		</g>
	</g>
</g>
<g>
	<text transform="matrix(1 0 0 1 502.1063 398.1309)" class="st56 st5 st9">Constant power</text>
</g>
<g id="保险丝名称_4_">
	<text transform="matrix(1 0 0 1 580.7286 423.8265)" class="st56 st5 st9">Power ground</text>
</g>
<g id="保险丝名称_6_">
	<text transform="matrix(1 0 0 1 639.5674 423.5734)" class="st56 st5 st9">Power ground</text>
</g>
<g>
	<text transform="matrix(1 0 0 1 770.8111 423.5733)" class="st56 st5 st9">Buckle / Alarm signal</text>
</g>
<g>
	<g id="FB103_2_">
		<g>
			<g id="FB103_4_">
				<text transform="matrix(1 0 0 1 631.7582 409.2051)" class="st57 st5 st6">Right Body Controller</text>
			</g>
		</g>
	</g>
</g>
<text transform="matrix(1 0 0 1 320.4407 559.3459)" class="st56 st5 st9">Driver seat belt </text>
<text transform="matrix(1 0 0 1 320.993 564.6958)" class="st56 st5 st9">buckle </text>
<g>
	<text transform="matrix(1 0 0 1 328.7718 589.6001)" class="st57 st5 st6">Driver Seat </text>
	<text transform="matrix(1 0 0 1 328.7718 596.8001)" class="st57 st5 st6">(Ventilation And Heating)</text>
</g>
<text transform="matrix(1 0 0 1 538.3264 561.3457)" class="st56 st5 st9">Middle row left </text>
<text transform="matrix(1 0 0 1 538.3263 566.1449)" class="st56 st5 st9">safety belt buckle</text>
<text transform="matrix(1 0 0 1 728.8843 562.2454)" class="st56 st5 st9">Front passenger </text>
<text transform="matrix(1 0 0 1 728.8353 566.9959)" class="st56 st5 st9">seat belt buckle</text>
<g>
	<text transform="matrix(1 0 0 1 720.8959 591.0643)" class="st32 st5 st6">Front Passenger </text>
	<text transform="matrix(1 0 0 1 720.8964 597.0772)" class="st32 st5 st6">Seat Belt Buckle</text>
</g>
<text transform="matrix(1 0 0 1 821.8694 562.1039)" class="st56 st5 st9">Middle row right  </text>
<text transform="matrix(1 0 0 1 822.4141 566.9541)" class="st56 st5 st9">safety belt buckle</text>
<text transform="matrix(1 0 0 1 531.5626 586.1314)" class="st57 st5 st6">Middle Row </text>
<text transform="matrix(1 0 0 1 531.5625 593.0734)" class="st57 st5 st6">Left Seat Cable </text>
<g>
	<text transform="matrix(1 0 0 1 820.321 586.9508)" class="st57 st5 st6">Middle Row </text>
	<text transform="matrix(1 0 0 1 820.321 594.1508)" class="st57 st5 st6">Right Seat Cable </text>
</g>
</svg>
