<?xml version="1.0" encoding="utf-8"?>
<!-- Generator: Adobe Illustrator 24.0.1, SVG Export Plug-In . SVG Version: 6.00 Build 0)  -->
<svg version="1.1" id="图层_1" xmlns="http://www.w3.org/2000/svg" xmlns:xlink="http://www.w3.org/1999/xlink" x="0px" y="0px"
	 viewBox="0 0 873 841.9" style="enable-background:new 0 0 873 841.9;" xml:space="preserve">
<style type="text/css">
	.st0{fill:#DCDDDD;}
	.st1{fill:none;stroke:#040000;stroke-width:0.5;}
	.st2{enable-background:new    ;}
	.st3{font-family:'FZLTHJW--GB1-0';}
	.st4{font-size:6px;}
	.st5{fill:#9FD9F6;}
	.st6{fill:none;stroke:#000000;stroke-width:0.5;stroke-linecap:round;stroke-miterlimit:10;}
	.st7{font-size:4px;}
	.st8{fill:none;stroke:#000000;stroke-width:0.5;stroke-miterlimit:10;}
	.st9{fill:none;stroke:#000000;stroke-width:3;stroke-miterlimit:10;}
	.st10{fill:none;stroke:#009944;stroke-width:3;stroke-miterlimit:10;}
	.st11{fill:none;stroke:#000000;stroke-width:1.3;}
	.st12{fill:none;stroke:#000000;stroke-width:0.6;stroke-linejoin:round;}
	.st13{fill:#FFFFFF;}
	.st14{fill:none;stroke:#000000;stroke-width:0.72;stroke-linecap:round;stroke-linejoin:round;}
	.st15{fill:none;stroke:#E60012;stroke-miterlimit:10;}
	.st16{fill:none;stroke:#000000;stroke-miterlimit:10;}
	.st17{fill:none;stroke:#E60012;stroke-width:3;stroke-miterlimit:10;}
	.st18{fill:none;stroke:#000000;stroke-width:0.5;stroke-linejoin:round;}
	.st19{fill:none;stroke:#060001;stroke-width:0.5;}
	.st20{fill:#040000;}
	.st21{fill:none;stroke:#FFFFFF;stroke-width:0.5;stroke-linecap:round;}
	.st22{fill:none;stroke:#FFFFFF;}
	.st23{fill:none;stroke:#000000;stroke-width:3;}
	.st24{fill:none;stroke:#FFFFFF;stroke-miterlimit:10;}
	.st25{fill:none;stroke:#070102;stroke-width:0.25;stroke-linecap:round;stroke-linejoin:round;}
	.st26{fill:none;stroke:#000000;stroke-width:0.25;stroke-linecap:round;stroke-linejoin:round;}
	.st27{fill:#005EAD;}
	.st28{fill:none;stroke:#000000;stroke-width:0.25;}
	.st29{fill:#090103;}
	.st30{fill:#065AA1;}
	.st31{fill:#105390;}
	.st32{fill:none;stroke:#FFFFFF;stroke-width:0.5;}
	.st33{fill:none;stroke:#898989;stroke-miterlimit:10;}
	.st34{fill:#FFFFFF;stroke:#000000;stroke-width:0.25;stroke-linecap:round;stroke-linejoin:round;}
	.st35{fill:#FFFFFF;stroke:#000000;stroke-width:0.25;}
	.st36{stroke:#FFFFFF;stroke-width:0.5;}
	.st37{fill:#DCDDDD;stroke:#000000;stroke-width:0.5;stroke-linecap:round;stroke-miterlimit:10;}
	.st38{fill:none;stroke:#E60012;stroke-width:3;stroke-linecap:round;stroke-miterlimit:10;}
	.st39{fill:#E60012;stroke:#E60012;stroke-width:3;stroke-linecap:round;stroke-miterlimit:10;}
	.st40{fill:none;stroke:#FFFFFF;stroke-linecap:round;stroke-miterlimit:10;}
	.st41{fill:none;stroke:#040000;stroke-width:0.75;}
	.st42{fill:none;stroke:#000000;stroke-width:0.6;stroke-linecap:round;stroke-linejoin:round;}
	.st43{stroke:#FFFFFF;stroke-width:0.5;stroke-linecap:round;}
	.st44{fill:none;stroke:#FFFFFF;stroke-width:1.0001;}
	.st45{fill:#DCDDDD;stroke:#0A0204;stroke-linecap:round;}
	.st46{fill:none;stroke:#070102;stroke-width:0.6001;}
	.st47{fill:none;stroke:#070102;stroke-width:0.6001;stroke-linecap:round;stroke-dasharray:3.0005,1.8003;}
	.st48{fill:#FFFFFF;stroke:#070102;stroke-width:0.6001;}
	.st49{fill:none;stroke:#070102;stroke-width:0.6001;stroke-linecap:round;stroke-linejoin:round;}
	.st50{fill:#FFFFFF;stroke:#0A0204;stroke-width:1.0001;}
	.st51{fill:none;stroke:#0A0204;stroke-width:1.0001;}
	.st52{fill:none;stroke:#FFFFFF;stroke-width:0.6001;}
	.st53{fill:none;stroke:#F29C97;stroke-width:3;stroke-linecap:round;stroke-miterlimit:10;}
	.st54{fill:none;stroke:#89438F;stroke-width:3;stroke-linecap:round;stroke-miterlimit:10;}
	.st55{fill:none;stroke:#000000;stroke-width:0.5;stroke-linecap:round;stroke-linejoin:round;}
	.st56{fill:#0B5698;}
	.st57{fill:#070001;}
</style>
<polyline class="st0" points="44,41.9 837.2,41.9 837.2,99.7 44,99.7 "/>
<line class="st1" x1="44" y1="47.6" x2="837.2" y2="47.6"/>
<line class="st1" x1="44" y1="41.6" x2="837.2" y2="41.6"/>
<line class="st1" x1="44" y1="58.9" x2="837.2" y2="58.9"/>
<line class="st1" x1="44" y1="70.6" x2="837.2" y2="70.6"/>
<line class="st1" x1="44" y1="82.3" x2="837.2" y2="82.3"/>
<line class="st1" x1="44" y1="93.9" x2="837.2" y2="93.9"/>
<line class="st1" x1="44" y1="99.7" x2="837.2" y2="99.7"/>
<g class="st2">
	<g>
		<text transform="matrix(1 0 0 1 840.2838 49.6302)" class="st3 st4">30</text>
	</g>
</g>
<g class="st2">
	<g>
		<text transform="matrix(1 0 0 1 840.2838 60.7963)" class="st3 st4">IG1</text>
	</g>
</g>
<g class="st2">
	<g>
		<text transform="matrix(1 0 0 1 840.2838 72.4213)" class="st3 st4">IG3</text>
	</g>
</g>
<g class="st2">
	<g>
		<text transform="matrix(1 0 0 1 840.2838 83.9252)" class="st3 st4">IG4</text>
	</g>
</g>
<g class="st2">
	<g>
		<text transform="matrix(1 0 0 1 840.2838 96.1283)" class="st3 st4">ACC</text>
	</g>
</g>
<g class="st2">
	<g>
		<text transform="matrix(1 0 0 1 33.2295 49.7123)" class="st3 st4">30</text>
	</g>
</g>
<g class="st2">
	<g>
		<text transform="matrix(1 0 0 1 30.0654 60.8783)" class="st3 st4">IG1</text>
	</g>
</g>
<g class="st2">
	<g>
		<text transform="matrix(1 0 0 1 30.1123 72.5033)" class="st3 st4">IG3</text>
	</g>
</g>
<g class="st2">
	<g>
		<text transform="matrix(1 0 0 1 30.0654 84.0033)" class="st3 st4">IG4</text>
	</g>
</g>
<g class="st2">
	<g>
		<text transform="matrix(1 0 0 1 26.5732 96.1283)" class="st3 st4">ACC</text>
	</g>
</g>
<path class="st5" d="M431.3,439H51v-32.9h380.3c0,0-6.4,9.6,0,16.5C437.7,429.5,431.3,439,431.3,439"/>
<path class="st6" d="M431.3,439H51v-32.9h380.3c0,0-6.4,9.6,0,16.5C437.7,429.5,431.3,439,431.3,439"/>
<path class="st5" d="M811.1,439H470v-32.9h341.1c0,0-6.4,9.6,0,16.5C817.5,429.5,811.1,439,811.1,439"/>
<path class="st6" d="M811.1,439H470v-32.9h341.1c0,0-6.4,9.6,0,16.5C817.5,429.5,811.1,439,811.1,439"/>
<path class="st5" d="M724.9,546.2h-67v-35.9h67c0,0-9,10.5,0,18C733.9,535.8,724.9,546.2,724.9,546.2"/>
<path class="st6" d="M724.9,546.2h-67v-35.9h67c0,0-9,10.5,0,18C733.9,535.8,724.9,546.2,724.9,546.2"/>
<rect x="660.2" y="625.1" class="st5" width="46" height="29.7"/>
<rect x="660.2" y="625.1" class="st6" width="46" height="29.7"/>
<line class="st6" x1="683.2" y1="657.7" x2="683.2" y2="648"/>
<polyline class="st5" points="683.1,632 680.2,645.6 682.9,645.6 "/>
<polyline class="st6" points="683.1,632 680.2,645.6 682.9,645.6 "/>
<path class="st5" d="M683.1,630.4c-0.8,0-1.5,0.7-1.5,1.6c0,1,0.6,1.7,1.5,1.7c0.8,0,1.4-0.7,1.4-1.7
	C684.5,631.1,683.9,630.4,683.1,630.4"/>
<path class="st6" d="M683.1,630.4c-0.8,0-1.5,0.7-1.5,1.6c0,1,0.6,1.7,1.5,1.7c0.8,0,1.4-0.7,1.4-1.7
	C684.5,631.1,683.9,630.4,683.1,630.4"/>
<path class="st5" d="M683.1,630.4c-0.8,0-1.5,0.7-1.5,1.6c0,1,0.6,1.7,1.5,1.7c0.8,0,1.4-0.7,1.4-1.7
	C684.5,631.1,683.9,630.4,683.1,630.4"/>
<path class="st6" d="M683.1,630.4c-0.8,0-1.5,0.7-1.5,1.6c0,1,0.6,1.7,1.5,1.7c0.8,0,1.4-0.7,1.4-1.7
	C684.5,631.1,683.9,630.4,683.1,630.4"/>
<path class="st5" d="M683.1,645.2c-0.7,0-1.2,0.6-1.2,1.4c0,0.8,0.5,1.5,1.2,1.5c0.7,0,1.2-0.6,1.2-1.5
	C684.3,645.8,683.8,645.2,683.1,645.2"/>
<path class="st6" d="M683.1,645.2c-0.7,0-1.2,0.6-1.2,1.4c0,0.8,0.5,1.5,1.2,1.5c0.7,0,1.2-0.6,1.2-1.5
	C684.3,645.8,683.8,645.2,683.1,645.2"/>
<path class="st5" d="M683.1,645.2c-0.7,0-1.2,0.6-1.2,1.4c0,0.8,0.5,1.5,1.2,1.5c0.7,0,1.2-0.6,1.2-1.5
	C684.3,645.8,683.8,645.2,683.1,645.2"/>
<path class="st6" d="M683.1,645.2c-0.7,0-1.2,0.6-1.2,1.4c0,0.8,0.5,1.5,1.2,1.5c0.7,0,1.2-0.6,1.2-1.5
	C684.3,645.8,683.8,645.2,683.1,645.2"/>
<line class="st6" x1="683.2" y1="630.4" x2="683.2" y2="622"/>
<polyline class="st5" points="678.5,643.4 677.5,643.4 677.5,639.1 678.5,639.1 "/>
<polyline class="st6" points="678.5,643.4 677.5,643.4 677.5,639.1 678.5,639.1 "/>
<line class="st6" x1="677.6" y1="641.2" x2="681.2" y2="641.2"/>
<g class="st2">
	<g>
		<text transform="matrix(1 0 0 1 686.399 630.8038)" class="st5 st3 st7">+</text>
		<polygon class="st6" points="687.9,629.2 687.9,628.3 687.6,628.3 687.6,629.2 686.6,629.2 686.6,629.5 687.6,629.5 687.6,630.5 
			687.9,630.5 687.9,629.5 688.8,629.5 688.8,629.2 		"/>
	</g>
</g>
<g class="st2">
	<g>
		<text transform="matrix(1 0 0 1 685.5816 652.1534)" class="st5 st3 st7">-</text>
		<rect x="685.8" y="650.6" class="st6" width="2.2" height="0.3"/>
	</g>
</g>
<path class="st5" d="M337,657.8h-63.7v-35.9H337c0,0-7.8,10.5,0,18C344.8,647.4,337,657.8,337,657.8"/>
<path class="st6" d="M337,657.8h-63.7v-35.9H337c0,0-7.8,10.5,0,18C344.8,647.4,337,657.8,337,657.8"/>
<rect x="284" y="625.1" class="st5" width="23.1" height="29.7"/>
<rect x="284" y="625.1" class="st6" width="23.1" height="29.7"/>
<line class="st6" x1="295.7" y1="657.8" x2="295.7" y2="648.1"/>
<polyline class="st5" points="295.6,632.1 292.7,645.7 295.4,645.7 "/>
<polyline class="st6" points="295.6,632.1 292.7,645.7 295.4,645.7 "/>
<path class="st5" d="M295.6,630.5c-0.8,0-1.5,0.7-1.5,1.6c0,1,0.6,1.7,1.5,1.7c0.8,0,1.4-0.7,1.4-1.7
	C297,631.2,296.4,630.5,295.6,630.5"/>
<path class="st6" d="M295.6,630.5c-0.8,0-1.5,0.7-1.5,1.6c0,1,0.6,1.7,1.5,1.7c0.8,0,1.4-0.7,1.4-1.7
	C297,631.2,296.4,630.5,295.6,630.5"/>
<path class="st5" d="M295.6,630.5c-0.8,0-1.5,0.7-1.5,1.6c0,1,0.6,1.7,1.5,1.7c0.8,0,1.4-0.7,1.4-1.7
	C297,631.2,296.4,630.5,295.6,630.5"/>
<path class="st6" d="M295.6,630.5c-0.8,0-1.5,0.7-1.5,1.6c0,1,0.6,1.7,1.5,1.7c0.8,0,1.4-0.7,1.4-1.7
	C297,631.2,296.4,630.5,295.6,630.5"/>
<path class="st5" d="M295.6,645.3c-0.7,0-1.2,0.6-1.2,1.4c0,0.8,0.5,1.5,1.2,1.5c0.7,0,1.2-0.6,1.2-1.5
	C296.8,645.9,296.3,645.3,295.6,645.3"/>
<path class="st6" d="M295.6,645.3c-0.7,0-1.2,0.6-1.2,1.4c0,0.8,0.5,1.5,1.2,1.5c0.7,0,1.2-0.6,1.2-1.5
	C296.8,645.9,296.3,645.3,295.6,645.3"/>
<path class="st5" d="M295.6,645.3c-0.7,0-1.2,0.6-1.2,1.4c0,0.8,0.5,1.5,1.2,1.5c0.7,0,1.2-0.6,1.2-1.5
	C296.8,645.9,296.3,645.3,295.6,645.3"/>
<path class="st6" d="M295.6,645.3c-0.7,0-1.2,0.6-1.2,1.4c0,0.8,0.5,1.5,1.2,1.5c0.7,0,1.2-0.6,1.2-1.5
	C296.8,645.9,296.3,645.3,295.6,645.3"/>
<line class="st6" x1="295.7" y1="630.5" x2="295.7" y2="622.1"/>
<polyline class="st5" points="291,643.5 290,643.5 290,639.2 291,639.2 "/>
<polyline class="st6" points="291,643.5 290,643.5 290,639.2 291,639.2 "/>
<line class="st6" x1="290.1" y1="641.3" x2="293.7" y2="641.3"/>
<g class="st2">
	<g>
		<text transform="matrix(1 0 0 1 298.9238 630.8448)" class="st5 st3 st7">+</text>
		<polygon class="st6" points="300.4,629.3 300.4,628.4 300.1,628.4 300.1,629.3 299.2,629.3 299.2,629.6 300.1,629.6 300.1,630.5 
			300.4,630.5 300.4,629.6 301.3,629.6 301.3,629.3 		"/>
	</g>
</g>
<g class="st2">
	<g>
		<text transform="matrix(1 0 0 1 298.106 652.1954)" class="st5 st3 st7">-</text>
		<rect x="298.3" y="650.6" class="st6" width="2.2" height="0.3"/>
	</g>
</g>
<rect x="465.9" y="131.8" class="st0" width="56.8" height="51.3"/>
<rect x="465.9" y="131.8" class="st8" width="56.8" height="51.3"/>
<path class="st5" d="M817.2,657.8h-65.6v-35.9h65.6c0,0-8.8,10.5,0,18C826,647.4,817.2,657.8,817.2,657.8"/>
<path class="st6" d="M817.2,657.8h-65.6v-35.9h65.6c0,0-8.8,10.5,0,18C826,647.4,817.2,657.8,817.2,657.8"/>
<rect x="756.7" y="625.1" class="st5" width="23.1" height="29.7"/>
<rect x="756.7" y="625.1" class="st6" width="23.1" height="29.7"/>
<line class="st6" x1="768.4" y1="657.8" x2="768.4" y2="648.1"/>
<polyline class="st5" points="768.3,632.1 765.4,645.7 768.1,645.7 "/>
<polyline class="st6" points="768.3,632.1 765.4,645.7 768.1,645.7 "/>
<path class="st5" d="M768.3,630.5c-0.8,0-1.5,0.7-1.5,1.6c0,1,0.6,1.7,1.5,1.7c0.8,0,1.4-0.7,1.4-1.7
	C769.7,631.2,769.1,630.5,768.3,630.5"/>
<path class="st6" d="M768.3,630.5c-0.8,0-1.5,0.7-1.5,1.6c0,1,0.6,1.7,1.5,1.7c0.8,0,1.4-0.7,1.4-1.7
	C769.7,631.2,769.1,630.5,768.3,630.5"/>
<path class="st5" d="M768.3,630.5c-0.8,0-1.5,0.7-1.5,1.6c0,1,0.6,1.7,1.5,1.7c0.8,0,1.4-0.7,1.4-1.7
	C769.7,631.2,769.1,630.5,768.3,630.5"/>
<path class="st6" d="M768.3,630.5c-0.8,0-1.5,0.7-1.5,1.6c0,1,0.6,1.7,1.5,1.7c0.8,0,1.4-0.7,1.4-1.7
	C769.7,631.2,769.1,630.5,768.3,630.5"/>
<path class="st5" d="M768.3,645.3c-0.7,0-1.2,0.6-1.2,1.4c0,0.8,0.5,1.5,1.2,1.5c0.7,0,1.2-0.6,1.2-1.5
	C769.5,645.9,769,645.3,768.3,645.3"/>
<path class="st6" d="M768.3,645.3c-0.7,0-1.2,0.6-1.2,1.4c0,0.8,0.5,1.5,1.2,1.5c0.7,0,1.2-0.6,1.2-1.5
	C769.5,645.9,769,645.3,768.3,645.3"/>
<path class="st5" d="M768.3,645.3c-0.7,0-1.2,0.6-1.2,1.4c0,0.8,0.5,1.5,1.2,1.5c0.7,0,1.2-0.6,1.2-1.5
	C769.5,645.9,769,645.3,768.3,645.3"/>
<path class="st6" d="M768.3,645.3c-0.7,0-1.2,0.6-1.2,1.4c0,0.8,0.5,1.5,1.2,1.5c0.7,0,1.2-0.6,1.2-1.5
	C769.5,645.9,769,645.3,768.3,645.3"/>
<line class="st6" x1="768.4" y1="630.5" x2="768.4" y2="622.1"/>
<polyline class="st5" points="763.7,643.5 762.7,643.5 762.7,639.2 763.7,639.2 "/>
<polyline class="st6" points="763.7,643.5 762.7,643.5 762.7,639.2 763.7,639.2 "/>
<line class="st6" x1="762.8" y1="641.3" x2="766.4" y2="641.3"/>
<g class="st2">
	<g>
		<text transform="matrix(1 0 0 1 771.5894 630.8448)" class="st5 st3 st7">+</text>
		<polygon class="st6" points="773.1,629.3 773.1,628.4 772.7,628.4 772.7,629.3 771.8,629.3 771.8,629.6 772.7,629.6 772.7,630.5 
			773.1,630.5 773.1,629.6 774,629.6 774,629.3 		"/>
	</g>
</g>
<g class="st2">
	<g>
		<text transform="matrix(1 0 0 1 770.7711 652.1954)" class="st5 st3 st7">-</text>
		<rect x="771" y="650.6" class="st6" width="2.2" height="0.3"/>
	</g>
</g>
<polyline class="st9" points="239,809.2 251.7,780.3 295.6,780.3 295.6,777.5 295.7,664.8 "/>
<line class="st9" x1="683.4" y1="665" x2="683.3" y2="810.2"/>
<line class="st9" x1="683.4" y1="665" x2="683.3" y2="810.2"/>
<line class="st10" x1="295.8" y1="448.9" x2="295.8" y2="613"/>
<line class="st9" x1="68.9" y1="450.4" x2="68.9" y2="810.1"/>
<line class="st9" x1="238.9" y1="450.4" x2="238.9" y2="810.2"/>
<line class="st11" x1="61.9" y1="810.1" x2="75.8" y2="810.1"/>
<line class="st11" x1="64.8" y1="812.3" x2="72.9" y2="812.3"/>
<line class="st11" x1="71.3" y1="814.4" x2="66.4" y2="814.4"/>
<line class="st11" x1="232" y1="810.1" x2="245.9" y2="810.1"/>
<line class="st11" x1="234.9" y1="812.3" x2="243" y2="812.3"/>
<line class="st11" x1="241.4" y1="814.4" x2="236.5" y2="814.4"/>
<line class="st12" x1="68.9" y1="447.2" x2="68.9" y2="439"/>
<path class="st13" d="M68.8,450.3c-1.7,0-3-1.4-3-3c0-1.8,1.4-3.2,3-3.2c1.8,0,3.2,1.4,3.2,3.2C72,448.9,70.6,450.3,68.8,450.3"/>
<path d="M68.8,450.9c-2,0-3.7-1.6-3.7-3.7c0-2.2,1.7-3.8,3.7-3.8v1.2c-1.4,0-2.5,1.1-2.5,2.7c0,1.3,1.1,2.5,2.5,2.5V450.9z
	 M68.8,443.4v1.2c1.5,0,2.7,1.1,2.7,2.7c0,1.3-1.1,2.5-2.7,2.5v1.1c2.2,0,3.8-1.6,3.8-3.7S71,443.4,68.8,443.4"/>
<rect x="64.8" y="443" class="st13" width="8.1" height="4.1"/>
<rect x="68.4" y="443.9" width="1" height="4.2"/>
<rect x="68.4" y="443.9" class="st14" width="1" height="4.2"/>
<line class="st12" x1="238.9" y1="447.2" x2="238.9" y2="439"/>
<path class="st13" d="M238.8,450.3c-1.7,0-3-1.4-3-3c0-1.8,1.4-3.2,3-3.2c1.8,0,3.2,1.4,3.2,3.2C242,448.9,240.6,450.3,238.8,450.3"
	/>
<path d="M238.9,450.9c-2,0-3.7-1.6-3.7-3.7c0-2.2,1.7-3.8,3.7-3.8v1.2c-1.4,0-2.5,1.1-2.5,2.7c0,1.3,1.1,2.5,2.5,2.5V450.9z
	 M238.9,443.4v1.2c1.5,0,2.7,1.1,2.7,2.7c0,1.3-1.1,2.5-2.7,2.5v1.1c2.2,0,3.8-1.6,3.8-3.7S241.1,443.4,238.9,443.4"/>
<rect x="234.9" y="443" class="st13" width="8.1" height="4.1"/>
<rect x="238.4" y="443.9" width="1" height="4.2"/>
<rect x="238.4" y="443.9" class="st14" width="1" height="4.2"/>
<rect x="681.9" y="448.2" class="st8" width="3" height="53.2"/>
<line class="st15" x1="683.4" y1="448.2" x2="683.4" y2="501.4"/>
<rect x="681.9" y="555.5" class="st8" width="3" height="57.5"/>
<line class="st16" x1="683.4" y1="555.5" x2="683.4" y2="613"/>
<line x1="569.6" y1="449.3" x2="569.5" y2="810.2"/>
<line class="st9" x1="569.6" y1="449.3" x2="569.5" y2="810.2"/>
<line class="st17" x1="494.4" y1="194.4" x2="494.4" y2="394.6"/>
<polyline class="st18" points="494.3,146.9 494.3,143.7 494.3,48.1 "/>
<polyline class="st18" points="494.3,167.7 494.3,170.6 494.3,182.9 "/>
<line class="st12" x1="494.4" y1="191.3" x2="494.4" y2="183.1"/>
<path class="st13" d="M494.3,194.4c-1.7,0-3-1.4-3-3c0-1.8,1.4-3.2,3-3.2c1.8,0,3.2,1.4,3.2,3.2C497.5,193,496.1,194.4,494.3,194.4"
	/>
<path d="M494.3,195c-2,0-3.7-1.6-3.7-3.7c0-2.2,1.7-3.8,3.7-3.8v1.2c-1.4,0-2.5,1.1-2.5,2.7c0,1.3,1.1,2.5,2.5,2.5V195z
	 M494.3,187.5v1.2c1.5,0,2.7,1.1,2.7,2.7c0,1.3-1.1,2.5-2.7,2.5v1.1c2.2,0,3.8-1.6,3.8-3.7C498.1,189.2,496.5,187.5,494.3,187.5"/>
<rect x="490.3" y="187.1" class="st13" width="8.1" height="4.1"/>
<rect x="493.9" y="188" width="1" height="4.2"/>
<rect x="493.9" y="188" class="st14" width="1" height="4.2"/>
<line class="st12" x1="494.4" y1="397.7" x2="494.4" y2="405.9"/>
<path class="st13" d="M494.3,394.6c-1.7,0-3,1.4-3,3c0,1.8,1.4,3.2,3,3.2c1.8,0,3.2-1.4,3.2-3.2C497.5,396,496.1,394.6,494.3,394.6"
	/>
<path d="M494.3,395.1c-1.4,0-2.5,1.2-2.5,2.5c0,1.6,1.1,2.7,2.5,2.7v1.2c-2,0-3.7-1.6-3.7-3.8c0-2.1,1.7-3.7,3.7-3.7V395.1z
	 M494.3,401.5c2.2,0,3.8-1.7,3.8-3.8s-1.6-3.7-3.8-3.7v1.1c1.6,0,2.7,1.2,2.7,2.5c0,1.6-1.2,2.7-2.7,2.7V401.5"/>
<rect x="490.3" y="397.8" class="st13" width="8.1" height="4.1"/>
<rect x="493.9" y="396.8" width="1" height="4.2"/>
<rect x="493.9" y="396.8" class="st14" width="1" height="4.2"/>
<line class="st11" x1="569.6" y1="807.4" x2="569.6" y2="810.1"/>
<line class="st11" x1="562.6" y1="810.1" x2="576.4" y2="810.1"/>
<line class="st11" x1="565.4" y1="812.3" x2="573.6" y2="812.3"/>
<line class="st11" x1="571.9" y1="814.4" x2="567.1" y2="814.4"/>
<line class="st11" x1="676.4" y1="810.1" x2="690.3" y2="810.1"/>
<line class="st11" x1="679.3" y1="812.3" x2="687.4" y2="812.3"/>
<line class="st11" x1="685.8" y1="814.4" x2="680.9" y2="814.4"/>
<line class="st12" x1="683.2" y1="613.9" x2="683.2" y2="622.1"/>
<path class="st13" d="M683.1,610.8c-1.7,0-3,1.4-3,3c0,1.8,1.4,3.2,3,3.2c1.8,0,3.2-1.4,3.2-3.2
	C686.3,612.2,684.9,610.8,683.1,610.8"/>
<path d="M683.2,611.3c-1.4,0-2.5,1.2-2.5,2.5c0,1.6,1.1,2.7,2.5,2.7v1.2c-2,0-3.7-1.6-3.7-3.8c0-2.1,1.7-3.7,3.7-3.7V611.3z
	 M683.2,617.7c2.2,0,3.8-1.7,3.8-3.8c0-2.1-1.6-3.7-3.8-3.7v1.1c1.6,0,2.7,1.2,2.7,2.5c0,1.6-1.2,2.7-2.7,2.7V617.7"/>
<rect x="679.2" y="614" class="st13" width="8.1" height="4.1"/>
<rect x="682.7" y="613" width="1" height="4.2"/>
<rect x="682.7" y="613" class="st14" width="1" height="4.2"/>
<line class="st12" x1="683.2" y1="502.3" x2="683.2" y2="510.5"/>
<path class="st13" d="M683.1,499.2c-1.7,0-3,1.4-3,3c0,1.8,1.4,3.2,3,3.2c1.8,0,3.2-1.4,3.2-3.2
	C686.3,500.6,684.9,499.2,683.1,499.2"/>
<path d="M683.2,499.7c-1.4,0-2.5,1.2-2.5,2.5c0,1.6,1.1,2.7,2.5,2.7v1.2c-2,0-3.7-1.6-3.7-3.8c0-2.1,1.7-3.7,3.7-3.7V499.7z
	 M683.2,506.1c2.2,0,3.8-1.7,3.8-3.8c0-2.1-1.6-3.7-3.8-3.7v1.1c1.6,0,2.7,1.2,2.7,2.5c0,1.6-1.2,2.7-2.7,2.7V506.1"/>
<rect x="679.2" y="502.4" class="st13" width="8.1" height="4.1"/>
<rect x="682.7" y="501.4" width="1" height="4.2"/>
<rect x="682.7" y="501.4" class="st14" width="1" height="4.2"/>
<line class="st12" x1="683.2" y1="664.9" x2="683.2" y2="656.7"/>
<path class="st13" d="M683.1,668c-1.7,0-3-1.4-3-3c0-1.8,1.4-3.2,3-3.2c1.8,0,3.2,1.4,3.2,3.2C686.3,666.6,684.9,668,683.1,668"/>
<path d="M683.2,668.6c-2,0-3.7-1.6-3.7-3.7c0-2.2,1.7-3.8,3.7-3.8v1.2c-1.4,0-2.5,1.1-2.5,2.7c0,1.3,1.1,2.5,2.5,2.5V668.6z
	 M683.2,661.1v1.2c1.5,0,2.7,1.1,2.7,2.7c0,1.3-1.1,2.5-2.7,2.5v1.1c2.2,0,3.8-1.6,3.8-3.7C687,662.8,685.4,661.1,683.2,661.1"/>
<rect x="679.2" y="660.7" class="st13" width="8.1" height="4.1"/>
<rect x="682.7" y="661.6" width="1" height="4.2"/>
<rect x="682.7" y="661.6" class="st14" width="1" height="4.2"/>
<line class="st12" x1="683.2" y1="554.6" x2="683.2" y2="546.4"/>
<path class="st13" d="M683.1,557.7c-1.7,0-3-1.4-3-3c0-1.8,1.4-3.2,3-3.2c1.8,0,3.2,1.4,3.2,3.2
	C686.3,556.3,684.9,557.7,683.1,557.7"/>
<path d="M683.2,558.3c-2,0-3.7-1.6-3.7-3.7c0-2.2,1.7-3.8,3.7-3.8v1.2c-1.4,0-2.5,1.1-2.5,2.7c0,1.3,1.1,2.5,2.5,2.5V558.3z
	 M683.2,550.8v1.2c1.5,0,2.7,1.1,2.7,2.7c0,1.3-1.1,2.5-2.7,2.5v1.1c2.2,0,3.8-1.6,3.8-3.7C687,552.5,685.4,550.8,683.2,550.8"/>
<rect x="679.2" y="550.4" class="st13" width="8.1" height="4.1"/>
<rect x="682.7" y="551.3" width="1" height="4.2"/>
<rect x="682.7" y="551.3" class="st14" width="1" height="4.2"/>
<line class="st12" x1="295.6" y1="664.9" x2="295.6" y2="656.7"/>
<path class="st13" d="M295.5,668c-1.7,0-3-1.4-3-3c0-1.8,1.4-3.2,3-3.2c1.8,0,3.2,1.4,3.2,3.2C298.7,666.6,297.3,668,295.5,668"/>
<path d="M295.5,668.6c-2,0-3.7-1.6-3.7-3.7c0-2.2,1.7-3.8,3.7-3.8v1.2c-1.4,0-2.5,1.1-2.5,2.7c0,1.3,1.1,2.5,2.5,2.5V668.6z
	 M295.5,661.1v1.2c1.5,0,2.7,1.1,2.7,2.7c0,1.3-1.1,2.5-2.7,2.5v1.1c2.2,0,3.8-1.6,3.8-3.7C299.3,662.8,297.7,661.1,295.5,661.1"/>
<rect x="291.5" y="660.7" class="st13" width="8.1" height="4.1"/>
<rect x="295.1" y="661.6" width="1" height="4.2"/>
<rect x="295.1" y="661.6" class="st14" width="1" height="4.2"/>
<line class="st12" x1="569.5" y1="447.5" x2="569.5" y2="439.3"/>
<path class="st13" d="M569.4,450.6c-1.7,0-3-1.4-3-3c0-1.8,1.4-3.2,3-3.2c1.8,0,3.2,1.4,3.2,3.2
	C572.6,449.2,571.2,450.6,569.4,450.6"/>
<path d="M569.5,451.2c-2,0-3.7-1.6-3.7-3.7c0-2.2,1.7-3.8,3.7-3.8v1.2c-1.4,0-2.5,1.1-2.5,2.7c0,1.3,1.1,2.5,2.5,2.5V451.2z
	 M569.5,443.7v1.2c1.5,0,2.7,1.1,2.7,2.7c0,1.3-1.1,2.5-2.7,2.5v1.1c2.2,0,3.8-1.6,3.8-3.7S571.7,443.7,569.5,443.7"/>
<rect x="565.5" y="443.3" class="st13" width="8.1" height="4.1"/>
<rect x="569" y="444.2" width="1" height="4.2"/>
<rect x="569" y="444.2" class="st14" width="1" height="4.2"/>
<line class="st12" x1="683.3" y1="447.5" x2="683.3" y2="439.3"/>
<path class="st13" d="M683.2,450.6c-1.7,0-3-1.4-3-3c0-1.8,1.4-3.2,3-3.2c1.8,0,3.2,1.4,3.2,3.2C686.4,449.2,685,450.6,683.2,450.6"
	/>
<path d="M683.2,451.2c-2,0-3.7-1.6-3.7-3.7c0-2.2,1.7-3.8,3.7-3.8v1.2c-1.4,0-2.5,1.1-2.5,2.7c0,1.3,1.1,2.5,2.5,2.5V451.2z
	 M683.2,443.7v1.2c1.5,0,2.7,1.1,2.7,2.7c0,1.3-1.1,2.5-2.7,2.5v1.1c2.2,0,3.8-1.6,3.8-3.7S685.4,443.7,683.2,443.7"/>
<rect x="679.2" y="443.3" class="st13" width="8.1" height="4.1"/>
<rect x="682.8" y="444.2" width="1" height="4.2"/>
<rect x="682.8" y="444.2" class="st14" width="1" height="4.2"/>
<path class="st19" d="M494.3,163.2c-1.2,0-2.2,1-2.2,2.2s1,2.2,2.2,2.2c1.2,0,2.2-1,2.2-2.2S495.5,163.2,494.3,163.2"/>
<path class="st19" d="M494.3,147.3c-1.2,0-2.2,1-2.2,2.1c0,1.2,1,2.2,2.2,2.2c1.2,0,2.2-0.9,2.2-2.2
	C496.5,148.3,495.5,147.3,494.3,147.3"/>
<path class="st19" d="M492.8,151.1c-0.1,2.5,0.2,3.2,1.3,4.3c1.2,1.2,2.4,1.7,2.8,3.7c0.4,1.6-0.1,3.5-1.1,4.5"/>
<path class="st19" d="M495.7,163.7c0.2-0.8,0-2.9-0.6-3.7c-0.9-1.2-2.7-2.1-3.3-4c-0.9-2.8,0.7-4.6,1.1-5"/>
<path class="st20" d="M491.4,48.2c0-1.7,1.3-2.8,2.8-2.8c1.6,0,2.9,1.2,2.9,2.8c0,1.5-1.3,2.6-2.9,2.6
	C492.7,50.9,491.4,49.8,491.4,48.2"/>
<path class="st21" d="M491.4,48.2c0-1.7,1.3-2.8,2.8-2.8c1.6,0,2.9,1.2,2.9,2.8c0,1.5-1.3,2.6-2.9,2.6
	C492.7,50.9,491.4,49.8,491.4,48.2z"/>
<path class="st22" d="M491.4,48.2c0-1.7,1.3-2.8,2.8-2.8c1.6,0,2.9,1.2,2.9,2.8c0,1.5-1.3,2.6-2.9,2.6
	C492.7,50.9,491.4,49.8,491.4,48.2"/>
<line class="st16" x1="295.8" y1="448.9" x2="295.8" y2="613"/>
<line class="st12" x1="295.6" y1="447.2" x2="295.6" y2="439"/>
<path class="st13" d="M295.5,450.3c-1.7,0-3-1.4-3-3c0-1.8,1.4-3.2,3-3.2c1.8,0,3.2,1.4,3.2,3.2
	C298.7,448.9,297.3,450.3,295.5,450.3"/>
<path d="M295.6,450.9c-2,0-3.7-1.6-3.7-3.7c0-2.2,1.7-3.8,3.7-3.8v1.2c-1.4,0-2.5,1.1-2.5,2.7c0,1.3,1.1,2.5,2.5,2.5V450.9z
	 M295.6,443.4v1.2c1.5,0,2.7,1.1,2.7,2.7c0,1.3-1.1,2.5-2.7,2.5v1.1c2.2,0,3.8-1.6,3.8-3.7S297.8,443.4,295.6,443.4"/>
<rect x="291.6" y="443" class="st13" width="8.1" height="4.1"/>
<rect x="295.1" y="443.9" width="1" height="4.2"/>
<rect x="295.1" y="443.9" class="st14" width="1" height="4.2"/>
<line class="st12" x1="295.6" y1="613.9" x2="295.6" y2="622.1"/>
<path class="st13" d="M295.5,610.8c-1.7,0-3,1.4-3,3c0,1.8,1.4,3.2,3,3.2c1.8,0,3.2-1.4,3.2-3.2
	C298.7,612.2,297.3,610.8,295.5,610.8"/>
<path d="M295.5,611.3c-1.4,0-2.5,1.2-2.5,2.5c0,1.6,1.1,2.7,2.5,2.7v1.2c-2,0-3.7-1.6-3.7-3.8c0-2.1,1.7-3.7,3.7-3.7V611.3z
	 M295.5,617.7c2.2,0,3.8-1.7,3.8-3.8c0-2.1-1.6-3.7-3.8-3.7v1.1c1.6,0,2.7,1.2,2.7,2.5c0,1.6-1.2,2.7-2.7,2.7V617.7"/>
<rect x="291.5" y="614" class="st13" width="8.1" height="4.1"/>
<rect x="295.1" y="613" width="1" height="4.2"/>
<rect x="295.1" y="613" class="st14" width="1" height="4.2"/>
<polyline class="st23" points="768.3,666.8 768.3,731.8 683.7,731.8 "/>
<line class="st9" x1="125.5" y1="450.4" x2="125.5" y2="810.2"/>
<line class="st11" x1="118.6" y1="810.1" x2="132.5" y2="810.1"/>
<line class="st11" x1="121.5" y1="812.3" x2="129.6" y2="812.3"/>
<line class="st11" x1="128" y1="814.4" x2="123.1" y2="814.4"/>
<line class="st12" x1="125.5" y1="447.2" x2="125.5" y2="439"/>
<path class="st13" d="M125.4,450.3c-1.7,0-3-1.4-3-3c0-1.8,1.4-3.2,3-3.2c1.8,0,3.2,1.4,3.2,3.2
	C128.6,448.9,127.2,450.3,125.4,450.3"/>
<path d="M125.5,450.9c-2,0-3.7-1.6-3.7-3.7c0-2.2,1.7-3.8,3.7-3.8v1.2c-1.4,0-2.5,1.1-2.5,2.7c0,1.3,1.1,2.5,2.5,2.5V450.9z
	 M125.5,443.4v1.2c1.5,0,2.7,1.1,2.7,2.7c0,1.3-1.1,2.5-2.7,2.5v1.1c2.2,0,3.8-1.6,3.8-3.7S127.7,443.4,125.5,443.4"/>
<rect x="121.5" y="443" class="st13" width="8.1" height="4.1"/>
<rect x="125" y="443.9" width="1" height="4.2"/>
<rect x="125" y="443.9" class="st14" width="1" height="4.2"/>
<line class="st10" x1="768.3" y1="448.2" x2="768.3" y2="613"/>
<line class="st24" x1="768.4" y1="448.2" x2="768.4" y2="613"/>
<line class="st12" x1="768.3" y1="664.9" x2="768.3" y2="656.7"/>
<path class="st13" d="M768.1,668c-1.7,0-3-1.4-3-3c0-1.8,1.4-3.2,3-3.2c1.8,0,3.2,1.4,3.2,3.2C771.3,666.6,769.9,668,768.1,668"/>
<path d="M768.2,668.6c-2,0-3.7-1.6-3.7-3.7c0-2.2,1.7-3.8,3.7-3.8v1.2c-1.4,0-2.5,1.1-2.5,2.7c0,1.3,1.1,2.5,2.5,2.5V668.6z
	 M768.2,661.1v1.2c1.5,0,2.7,1.1,2.7,2.7c0,1.3-1.1,2.5-2.7,2.5v1.1c2.2,0,3.8-1.6,3.8-3.7C772,662.8,770.4,661.1,768.2,661.1"/>
<rect x="764.2" y="660.7" class="st13" width="8.1" height="4.1"/>
<rect x="767.8" y="661.6" width="1" height="4.2"/>
<rect x="767.8" y="661.6" class="st14" width="1" height="4.2"/>
<line class="st12" x1="768.3" y1="447.5" x2="768.3" y2="439.3"/>
<path class="st13" d="M768.2,450.6c-1.7,0-3-1.4-3-3c0-1.8,1.4-3.2,3-3.2c1.8,0,3.2,1.4,3.2,3.2C771.4,449.2,770,450.6,768.2,450.6"
	/>
<path d="M768.3,451.2c-2,0-3.7-1.6-3.7-3.7c0-2.2,1.7-3.8,3.7-3.8v1.2c-1.4,0-2.5,1.1-2.5,2.7c0,1.3,1.1,2.5,2.5,2.5V451.2z
	 M768.3,443.7v1.2c1.5,0,2.7,1.1,2.7,2.7c0,1.3-1.1,2.5-2.7,2.5v1.1c2.2,0,3.8-1.6,3.8-3.7S770.4,443.7,768.3,443.7"/>
<rect x="764.2" y="443.3" class="st13" width="8.1" height="4.1"/>
<rect x="767.8" y="444.2" width="1" height="4.2"/>
<rect x="767.8" y="444.2" class="st14" width="1" height="4.2"/>
<line class="st9" x1="182.2" y1="450.4" x2="182.2" y2="810.2"/>
<line class="st12" x1="182.2" y1="447.2" x2="182.2" y2="439"/>
<path class="st13" d="M182.1,450.3c-1.7,0-3-1.4-3-3c0-1.8,1.4-3.2,3-3.2c1.8,0,3.2,1.4,3.2,3.2
	C185.3,448.9,183.9,450.3,182.1,450.3"/>
<path d="M182.2,450.9c-2,0-3.7-1.6-3.7-3.7c0-2.2,1.7-3.8,3.7-3.8v1.2c-1.4,0-2.5,1.1-2.5,2.7c0,1.3,1.1,2.5,2.5,2.5V450.9z
	 M182.2,443.4v1.2c1.5,0,2.7,1.1,2.7,2.7c0,1.3-1.1,2.5-2.7,2.5v1.1c2.2,0,3.8-1.6,3.8-3.7S184.4,443.4,182.2,443.4"/>
<rect x="178.2" y="443" class="st13" width="8.1" height="4.1"/>
<rect x="181.7" y="443.9" width="1" height="4.2"/>
<rect x="181.7" y="443.9" class="st14" width="1" height="4.2"/>
<line class="st11" x1="175.3" y1="810.1" x2="189.2" y2="810.1"/>
<line class="st11" x1="178.2" y1="812.3" x2="186.3" y2="812.3"/>
<line class="st11" x1="184.7" y1="814.4" x2="179.8" y2="814.4"/>
<rect x="172.1" y="817.3" class="st13" width="20.3" height="8.2"/>
<rect x="172.5" y="817.7" class="st13" width="19.7" height="7.6"/>
<rect x="172.5" y="817.7" class="st25" width="19.7" height="7.6"/>
<rect x="115.4" y="817.3" class="st13" width="20.3" height="8.2"/>
<rect x="115.8" y="817.7" class="st13" width="19.7" height="7.6"/>
<rect x="115.8" y="817.7" class="st25" width="19.7" height="7.6"/>
<line class="st10" x1="768.3" y1="448.2" x2="768.3" y2="613"/>
<line class="st24" x1="768.4" y1="448.2" x2="768.4" y2="613"/>
<line class="st12" x1="768.3" y1="664.9" x2="768.3" y2="656.7"/>
<path class="st13" d="M768.1,668c-1.7,0-3-1.4-3-3c0-1.8,1.4-3.2,3-3.2c1.8,0,3.2,1.4,3.2,3.2C771.3,666.6,769.9,668,768.1,668"/>
<path d="M768.2,668.6c-2,0-3.7-1.6-3.7-3.7c0-2.2,1.7-3.8,3.7-3.8v1.2c-1.4,0-2.5,1.1-2.5,2.7c0,1.3,1.1,2.5,2.5,2.5V668.6z
	 M768.2,661.1v1.2c1.5,0,2.7,1.1,2.7,2.7c0,1.3-1.1,2.5-2.7,2.5v1.1c2.2,0,3.8-1.6,3.8-3.7C772,662.8,770.4,661.1,768.2,661.1"/>
<rect x="764.2" y="660.7" class="st13" width="8.1" height="4.1"/>
<rect x="767.8" y="661.6" width="1" height="4.2"/>
<rect x="767.8" y="661.6" class="st14" width="1" height="4.2"/>
<line class="st12" x1="768.3" y1="447.5" x2="768.3" y2="439.3"/>
<path class="st13" d="M768.2,450.6c-1.7,0-3-1.4-3-3c0-1.8,1.4-3.2,3-3.2c1.8,0,3.2,1.4,3.2,3.2C771.4,449.2,770,450.6,768.2,450.6"
	/>
<path d="M768.3,451.2c-2,0-3.7-1.6-3.7-3.7c0-2.2,1.7-3.8,3.7-3.8v1.2c-1.4,0-2.5,1.1-2.5,2.7c0,1.3,1.1,2.5,2.5,2.5V451.2z
	 M768.3,443.7v1.2c1.5,0,2.7,1.1,2.7,2.7c0,1.3-1.1,2.5-2.7,2.5v1.1c2.2,0,3.8-1.6,3.8-3.7S770.4,443.7,768.3,443.7"/>
<rect x="764.2" y="443.3" class="st13" width="8.1" height="4.1"/>
<rect x="767.8" y="444.2" width="1" height="4.2"/>
<rect x="767.8" y="444.2" class="st14" width="1" height="4.2"/>
<line class="st9" x1="182.2" y1="450.4" x2="182.2" y2="810.2"/>
<line class="st12" x1="182.2" y1="447.2" x2="182.2" y2="439"/>
<path class="st13" d="M182.1,450.3c-1.7,0-3-1.4-3-3c0-1.8,1.4-3.2,3-3.2c1.8,0,3.2,1.4,3.2,3.2
	C185.3,448.9,183.9,450.3,182.1,450.3"/>
<path d="M182.2,450.9c-2,0-3.7-1.6-3.7-3.7c0-2.2,1.7-3.8,3.7-3.8v1.2c-1.4,0-2.5,1.1-2.5,2.7c0,1.3,1.1,2.5,2.5,2.5V450.9z
	 M182.2,443.4v1.2c1.5,0,2.7,1.1,2.7,2.7c0,1.3-1.1,2.5-2.7,2.5v1.1c2.2,0,3.8-1.6,3.8-3.7S184.4,443.4,182.2,443.4"/>
<rect x="178.2" y="443" class="st13" width="8.1" height="4.1"/>
<rect x="181.7" y="443.9" width="1" height="4.2"/>
<rect x="181.7" y="443.9" class="st14" width="1" height="4.2"/>
<line class="st11" x1="175.3" y1="810.1" x2="189.2" y2="810.1"/>
<line class="st11" x1="178.2" y1="812.3" x2="186.3" y2="812.3"/>
<line class="st11" x1="184.7" y1="814.4" x2="179.8" y2="814.4"/>
<line class="st12" x1="768.3" y1="613.9" x2="768.3" y2="622.1"/>
<path class="st13" d="M768.1,610.8c-1.7,0-3,1.4-3,3c0,1.8,1.4,3.2,3,3.2c1.8,0,3.2-1.4,3.2-3.2
	C771.3,612.2,769.9,610.8,768.1,610.8"/>
<path d="M768.2,611.3c-1.4,0-2.5,1.2-2.5,2.5c0,1.6,1.1,2.7,2.5,2.7v1.2c-2,0-3.7-1.6-3.7-3.8c0-2.1,1.7-3.7,3.7-3.7V611.3z
	 M768.2,617.7c2.2,0,3.8-1.7,3.8-3.8c0-2.1-1.6-3.7-3.8-3.7v1.1c1.6,0,2.7,1.2,2.7,2.5c0,1.6-1.2,2.7-2.7,2.7V617.7"/>
<rect x="764.2" y="614" class="st13" width="8.1" height="4.1"/>
<rect x="767.8" y="613" width="1" height="4.2"/>
<rect x="767.8" y="613" class="st14" width="1" height="4.2"/>
<line x1="626.3" y1="449.3" x2="626.2" y2="810.2"/>
<line class="st9" x1="626.3" y1="449.3" x2="626.2" y2="810.2"/>
<line class="st11" x1="626.3" y1="807.4" x2="626.3" y2="810.1"/>
<line class="st11" x1="619.3" y1="810.1" x2="633.1" y2="810.1"/>
<line class="st11" x1="622.1" y1="812.3" x2="630.3" y2="812.3"/>
<line class="st11" x1="628.6" y1="814.4" x2="623.8" y2="814.4"/>
<rect x="616.1" y="817.3" class="st13" width="20.3" height="8.2"/>
<rect x="616.4" y="817.6" class="st13" width="19.7" height="7.6"/>
<rect x="616.4" y="817.6" class="st26" width="19.7" height="7.6"/>
<text transform="matrix(1 0 0 1 618.6011 823.2513)" class="st27 st3 st4">Eb06</text>
<line class="st12" x1="626.6" y1="447.5" x2="626.6" y2="439.3"/>
<path class="st13" d="M626.5,450.6c-1.7,0-3-1.4-3-3c0-1.8,1.4-3.2,3-3.2c1.8,0,3.2,1.4,3.2,3.2
	C629.7,449.2,628.3,450.6,626.5,450.6"/>
<path d="M626.5,451.2c-2,0-3.7-1.6-3.7-3.7c0-2.2,1.7-3.8,3.7-3.8v1.2c-1.4,0-2.5,1.1-2.5,2.7c0,1.3,1.1,2.5,2.5,2.5V451.2z
	 M626.5,443.7v1.2c1.5,0,2.7,1.1,2.7,2.7c0,1.3-1.1,2.5-2.7,2.5v1.1c2.2,0,3.8-1.6,3.8-3.7S628.7,443.7,626.5,443.7"/>
<rect x="622.5" y="443.3" class="st13" width="8.1" height="4.1"/>
<rect x="626.1" y="444.2" width="1" height="4.2"/>
<rect x="626.1" y="444.2" class="st14" width="1" height="4.2"/>
<polyline class="st9" points="239.5,808.1 254,793.6 493.8,793.6 493.8,665.8 "/>
<rect x="54.8" y="467.4" class="st13" width="28.1" height="7.1"/>
<rect x="224.9" y="467.4" class="st13" width="28.1" height="7.1"/>
<g class="st2">
	<g>
		<text transform="matrix(1 0 0 1 61.3198 472.5293)" class="st3 st4">B 2.5</text>
	</g>
</g>
<g class="st2">
	<g>
		<text transform="matrix(1 0 0 1 231.3979 472.5293)" class="st3 st4">B 2.5</text>
	</g>
</g>
<rect x="224.9" y="761.7" class="st13" width="28.1" height="7.1"/>
<g class="st2">
	<g>
		<text transform="matrix(1 0 0 1 231.3975 767.046)" class="st3 st4">B 2.5</text>
	</g>
</g>
<rect x="58.7" y="817.3" class="st13" width="20.3" height="8.2"/>
<rect x="59.1" y="817.7" class="st13" width="19.7" height="7.6"/>
<rect x="59.1" y="817.7" class="st25" width="19.7" height="7.6"/>
<rect x="228.8" y="817.3" class="st13" width="20.3" height="8.2"/>
<rect x="229.2" y="817.7" class="st13" width="19.7" height="7.6"/>
<rect x="229.2" y="817.7" class="st25" width="19.7" height="7.6"/>
<rect x="281.6" y="467.4" class="st13" width="28.1" height="7.1"/>
<g class="st2">
	<g>
		<text transform="matrix(1 0 0 1 282.8071 472.5283)" class="st3 st4">G/B 0.22</text>
	</g>
</g>
<rect x="281.6" y="577" class="st13" width="28.1" height="7.1"/>
<g class="st2">
	<g>
		<text transform="matrix(1 0 0 1 282.8071 582.3643)" class="st3 st4">G/B 0.22</text>
	</g>
</g>
<rect x="281.7" y="685.1" class="st13" width="28.1" height="7.1"/>
<g class="st2">
	<g>
		<text transform="matrix(1 0 0 1 286.3628 690.2188)" class="st3 st4">B 0.22</text>
	</g>
</g>
<rect x="280.6" y="761.7" class="st13" width="28.1" height="7.1"/>
<g class="st2">
	<g>
		<text transform="matrix(1 0 0 1 287.0464 767.046)" class="st3 st4">B 0.75</text>
	</g>
</g>
<rect x="300.6" y="728.4" class="st28" width="25.3" height="6.9"/>
<text transform="matrix(1 0 0 1 302.0107 733.9221)" class="st3 st4">SP3316</text>
<rect x="669.2" y="467.4" class="st13" width="28.1" height="7.1"/>
<g class="st2">
	<g>
		<text transform="matrix(1 0 0 1 669.69 472.5283)" class="st3 st4">W/R 0.35</text>
	</g>
</g>
<rect x="669.2" y="577.2" class="st13" width="28.1" height="7.1"/>
<g class="st2">
	<g>
		<text transform="matrix(1 0 0 1 669.69 582.3643)" class="st3 st4">W/B 0.35</text>
	</g>
</g>
<rect x="669.2" y="685.1" class="st13" width="28.1" height="7.1"/>
<g class="st2">
	<g>
		<text transform="matrix(1 0 0 1 673.7994 690.2178)" class="st3 st4">B 0.35</text>
	</g>
</g>
<text transform="matrix(1 0 0 1 782.4509 650.9452)" class="st29 st3 st7">Middle row right  </text>
<text transform="matrix(1 0 0 1 783.1343 655.5096)" class="st29 st3 st7">safety belt buckle</text>
<g>
	<text transform="matrix(1 0 0 1 692.4366 674.136)" class="st30 st3 st4">Front Passenger </text>
	<text transform="matrix(1 0 0 1 692.4366 681.3359)" class="st30 st3 st4">Seat Belt Buckle</text>
</g>
<g>
	<text transform="matrix(1 0 0 1 658.1782 530.1129)" class="st30 st3 st4">Front Passenger Seat</text>
	<text transform="matrix(1 0 0 1 658.1782 537.3129)" class="st30 st3 st4">Seat Belt Alarm Sensor</text>
</g>
<g>
	<text transform="matrix(1 0 0 1 777.785 673.5548)" class="st31 st3 st4">Middle Row </text>
	<text transform="matrix(1 0 0 1 777.785 680.7548)" class="st31 st3 st4">Right Seat Cable Line  </text>
</g>
<g>
	<text transform="matrix(1 0 0 1 500.5121 673.5547)" class="st31 st3 st4">Middle Row </text>
	<text transform="matrix(1 0 0 1 500.5121 680.7548)" class="st31 st3 st4">Left Seat Cable Line  </text>
</g>
<text transform="matrix(1 0 0 1 309.4101 649.6658)" class="st29 st3 st7">Driver seat belt </text>
<text transform="matrix(1 0 0 1 309.8146 654.2667)" class="st29 st3 st7">buckle </text>
<text transform="matrix(1 0 0 1 301.6627 677.6915)" class="st31 st3 st4">Driver Seat </text>
<rect x="488.1" y="215.3" class="st13" width="12.5" height="6"/>
<rect x="488.1" y="215.3" class="st13" width="12.5" height="6"/>
<g class="st2">
	<g>
		<text transform="matrix(1 0 0 1 484.7779 220.4681)" class="st3 st4">R 10.0</text>
	</g>
</g>
<rect x="623.4" y="467.4" class="st13" width="6.4" height="6"/>
<g class="st2">
	<g>
		<text transform="matrix(1 0 0 1 617.1812 472.5283)" class="st3 st4">B 2.5</text>
	</g>
</g>
<rect x="566.3" y="467.4" class="st13" width="6.4" height="6"/>
<g class="st2">
	<g>
		<text transform="matrix(1 0 0 1 561.9908 472.5293)" class="st3 st4">B 2.5</text>
	</g>
</g>
<rect x="566.3" y="762.2" class="st13" width="6.4" height="6"/>
<g class="st2">
	<g>
		<text transform="matrix(1 0 0 1 561.9908 767.046)" class="st3 st4">B 2.5</text>
	</g>
</g>
<rect x="623.8" y="762.2" class="st13" width="6.4" height="6"/>
<g class="st2">
	<g>
		<text transform="matrix(1 0 0 1 619.4908 767.046)" class="st3 st4">B 2.5</text>
	</g>
</g>
<rect x="488.1" y="368.7" class="st13" width="12.5" height="6"/>
<g class="st2">
	<g>
		<text transform="matrix(1 0 0 1 484.7774 373.8652)" class="st3 st4">R 10.0</text>
	</g>
</g>
<rect x="669.2" y="761.7" class="st13" width="28.1" height="7.1"/>
<g class="st2">
	<g>
		<text transform="matrix(1 0 0 1 673.8238 767.046)" class="st3 st4">B 0.75</text>
	</g>
</g>
<rect x="687.3" y="720.6" class="st28" width="25.9" height="6.3"/>
<text transform="matrix(1 0 0 1 687.9146 725.8034)" class="st3 st4">SP2997</text>
<rect x="559.4" y="817.3" class="st13" width="20.3" height="8.2"/>
<rect x="559.7" y="817.6" class="st13" width="19.7" height="7.6"/>
<rect x="559.7" y="817.6" class="st26" width="19.7" height="7.6"/>
<rect x="673.2" y="817.3" class="st13" width="20.3" height="8.2"/>
<rect x="673.5" y="817.7" class="st13" width="19.7" height="7.6"/>
<rect x="673.5" y="817.7" class="st26" width="19.7" height="7.6"/>
<path d="M686.2,732.1c-0.2,1.5-1.4,2.5-2.8,2.5c-1.6,0-2.9-1.2-2.9-2.9c0-1.6,1.4-2.9,3.2-2.7C685.2,729.2,686.4,730.6,686.2,732.1"
	/>
<path class="st32" d="M686.2,732.1c-0.2,1.5-1.4,2.5-2.8,2.5c-1.6,0-2.9-1.2-2.9-2.9c0-1.6,1.4-2.9,3.2-2.7
	C685.2,729.2,686.4,730.6,686.2,732.1z"/>
<path d="M298.5,732.1c-0.2,1.5-1.4,2.5-2.8,2.5c-1.6,0-2.9-1.2-2.9-2.9c0-1.6,1.4-2.9,3.2-2.7C297.5,729.2,298.6,730.6,298.5,732.1"
	/>
<path class="st32" d="M298.5,732.1c-0.2,1.5-1.4,2.5-2.8,2.5c-1.6,0-2.9-1.2-2.9-2.9c0-1.6,1.4-2.9,3.2-2.7
	C297.5,729.2,298.6,730.6,298.5,732.1z"/>
<g class="st2">
	<g>
		<text transform="matrix(1 0 0 1 498.5787 162.6869)" class="st3 st4">100A</text>
	</g>
</g>
<rect x="754.3" y="467.4" class="st13" width="28.1" height="7.1"/>
<g class="st2">
	<g>
		<text transform="matrix(1 0 0 1 754.5543 472.5283)" class="st3 st4">G/W 0.13</text>
	</g>
</g>
<rect x="754.3" y="577" class="st13" width="28.1" height="7.1"/>
<g class="st2">
	<g>
		<text transform="matrix(1 0 0 1 754.5543 582.3643)" class="st3 st4">G/W 0.13</text>
	</g>
</g>
<rect x="754.2" y="685.1" class="st13" width="28.1" height="7.1"/>
<g class="st2">
	<g>
		<text transform="matrix(1 0 0 1 758.8394 690.2178)" class="st3 st4">B 0.13</text>
	</g>
</g>
<rect x="168.2" y="467.4" class="st13" width="28.1" height="7.1"/>
<g class="st2">
	<g>
		<text transform="matrix(1 0 0 1 172.8545 472.5293)" class="st3 st4">B 0.75</text>
	</g>
</g>
<rect x="111.5" y="467.4" class="st13" width="28.1" height="7.1"/>
<g class="st2">
	<g>
		<text transform="matrix(1 0 0 1 118.0127 472.5293)" class="st3 st4">B 2.5</text>
	</g>
</g>
<rect x="172.1" y="817.3" class="st13" width="20.3" height="8.2"/>
<rect x="172.5" y="817.7" class="st13" width="19.7" height="7.6"/>
<rect x="172.5" y="817.7" class="st25" width="19.7" height="7.6"/>
<rect x="115.4" y="817.3" class="st13" width="20.3" height="8.2"/>
<rect x="115.8" y="817.7" class="st13" width="19.7" height="7.6"/>
<rect x="115.8" y="817.7" class="st25" width="19.7" height="7.6"/>
<text transform="matrix(1 0 0 1 75.4146 446.3491)" class="st27 st3 st4">KG64(E)</text>
<text transform="matrix(1 0 0 1 244.8784 446.3491)" class="st27 st3 st4">KG64(E)</text>
<text transform="matrix(1 0 0 1 61.4585 823.2426)" class="st27 st3 st4">Ek01</text>
<text transform="matrix(1 0 0 1 231.4624 823.2426)" class="st27 st3 st4">Ek05</text>
<text transform="matrix(1 0 0 1 303.0068 446.3491)" class="st27 st3 st4">KG64(J)</text>
<text transform="matrix(1 0 0 1 101.9048 446.3491)" class="st27 st3 st4">-8</text>
<text transform="matrix(1 0 0 1 271.3687 446.3491)" class="st27 st3 st4">-20</text>
<text transform="matrix(1 0 0 1 329.5024 446.3491)" class="st27 st3 st4">-11</text>
<text transform="matrix(1 0 0 1 301.6626 618.8614)" class="st27 st3 st4">K01</text>
<text transform="matrix(1 0 0 1 313.2847 618.8614)" class="st27 st3 st4">-13</text>
<text transform="matrix(1 0 0 1 301.6626 664.5274)" class="st27 st3 st4">K01</text>
<text transform="matrix(1 0 0 1 313.2847 664.5274)" class="st27 st3 st4">-12</text>
<text transform="matrix(1 0 0 1 500.5123 190.3207)" class="st27 st3 st4">KB46</text>
<text transform="matrix(1 0 0 1 517.1509 190.3207)" class="st27 st3 st4">-A-1</text>
<text transform="matrix(1 0 0 1 522.5504 403.4189)" class="st27 st3 st4">-1</text>
<text transform="matrix(1 0 0 1 499.8521 403.4189)" class="st27 st3 st4">KG86A</text>
<text transform="matrix(1 0 0 1 498.3589 156.5106)" class="st27 st3 st4">F4/01</text>
<text transform="matrix(1 0 0 1 654.7242 446.3433)" class="st27 st3 st4">-2</text>
<text transform="matrix(1 0 0 1 598.6783 446.3433)" class="st27 st3 st4">-1</text>
<text transform="matrix(1 0 0 1 632.2369 446.3433)" class="st27 st3 st4">BG86D</text>
<text transform="matrix(1 0 0 1 575.7584 446.3433)" class="st27 st3 st4">BG86D</text>
<text transform="matrix(1 0 0 1 561.8922 823.2426)" class="st27 st3 st4">Eb08</text>
<text transform="matrix(1 0 0 1 526.7925 162.8944)" class="st27 st3 st4">  </text>
<text transform="matrix(1 0 0 1 689.2896 446.3491)" class="st27 st3 st4">KG86(E)</text>
<text transform="matrix(1 0 0 1 689.2896 618.8614)" class="st27 st3 st4">K02_3</text>
<text transform="matrix(1 0 0 1 709.4908 618.8614)" class="st27 st3 st4">-2</text>
<text transform="matrix(1 0 0 1 689.2896 664.8633)" class="st27 st3 st4">K02_3</text>
<text transform="matrix(1 0 0 1 710.3433 664.8633)" class="st27 st3 st4">-1</text>
<text transform="matrix(1 0 0 1 689.2896 507.2428)" class="st27 st3 st4">K02_2</text>
<text transform="matrix(1 0 0 1 709.4908 507.2428)" class="st27 st3 st4">-2</text>
<text transform="matrix(1 0 0 1 689.2896 553.2448)" class="st27 st3 st4">K02_2</text>
<text transform="matrix(1 0 0 1 710.3433 553.2448)" class="st27 st3 st4">-1</text>
<text transform="matrix(1 0 0 1 675.9752 823.2484)" class="st27 st3 st4">Ek04</text>
<text transform="matrix(1 0 0 1 715.6236 446.3491)" class="st27 st3 st4">-45</text>
<text transform="matrix(1 0 0 1 774.3277 618.8614)" class="st27 st3 st4">K68(B)</text>
<text transform="matrix(1 0 0 1 796.4009 618.8614)" class="st27 st3 st4">-11</text>
<text transform="matrix(1 0 0 1 774.3277 664.8633)" class="st27 st3 st4">K68(B)</text>
<text transform="matrix(1 0 0 1 796.4009 664.8633)" class="st27 st3 st4">-12</text>
<text transform="matrix(1 0 0 1 774.3277 446.3491)" class="st27 st3 st4">KG86(E)</text>
<text transform="matrix(1 0 0 1 800.6617 446.3491)" class="st27 st3 st4">-46</text>
<text transform="matrix(1 0 0 1 188.8135 446.3491)" class="st27 st3 st4">BG64(B)</text>
<text transform="matrix(1 0 0 1 174.6294 823.2426)" class="st27 st3 st4">Eb03</text>
<text transform="matrix(1 0 0 1 215.3154 446.3491)" class="st27 st3 st4">-43</text>
<text transform="matrix(1 0 0 1 132.1255 446.3491)" class="st27 st3 st4">KG64(E)</text>
<text transform="matrix(1 0 0 1 118.1631 823.2426)" class="st27 st3 st4">Ek03</text>
<text transform="matrix(1 0 0 1 158.6274 446.3491)" class="st27 st3 st4">-13</text>
<path class="st5" d="M544.9,657.8h-67.8v-35.9h67.8c0,0-9.1,10.5,0,18C554,647.4,544.9,657.8,544.9,657.8"/>
<path class="st6" d="M544.9,657.8h-67.8v-35.9h67.8c0,0-9.1,10.5,0,18C554,647.4,544.9,657.8,544.9,657.8"/>
<rect x="482.3" y="625.1" class="st5" width="23.1" height="29.7"/>
<rect x="482.3" y="625.1" class="st6" width="23.1" height="29.7"/>
<line class="st6" x1="494" y1="657.8" x2="494" y2="648.1"/>
<polyline class="st5" points="493.9,632.1 491,645.7 493.7,645.7 "/>
<polyline class="st6" points="493.9,632.1 491,645.7 493.7,645.7 "/>
<path class="st5" d="M493.9,630.5c-0.8,0-1.5,0.7-1.5,1.6c0,1,0.6,1.7,1.5,1.7c0.8,0,1.4-0.7,1.4-1.7
	C495.3,631.2,494.7,630.5,493.9,630.5"/>
<path class="st6" d="M493.9,630.5c-0.8,0-1.5,0.7-1.5,1.6c0,1,0.6,1.7,1.5,1.7c0.8,0,1.4-0.7,1.4-1.7
	C495.3,631.2,494.7,630.5,493.9,630.5"/>
<path class="st5" d="M493.9,630.5c-0.8,0-1.5,0.7-1.5,1.6c0,1,0.6,1.7,1.5,1.7c0.8,0,1.4-0.7,1.4-1.7
	C495.3,631.2,494.7,630.5,493.9,630.5"/>
<path class="st6" d="M493.9,630.5c-0.8,0-1.5,0.7-1.5,1.6c0,1,0.6,1.7,1.5,1.7c0.8,0,1.4-0.7,1.4-1.7
	C495.3,631.2,494.7,630.5,493.9,630.5"/>
<path class="st5" d="M493.9,645.3c-0.7,0-1.2,0.6-1.2,1.4c0,0.8,0.5,1.5,1.2,1.5c0.7,0,1.2-0.6,1.2-1.5
	C495.1,645.9,494.6,645.3,493.9,645.3"/>
<path class="st6" d="M493.9,645.3c-0.7,0-1.2,0.6-1.2,1.4c0,0.8,0.5,1.5,1.2,1.5c0.7,0,1.2-0.6,1.2-1.5
	C495.1,645.9,494.6,645.3,493.9,645.3"/>
<path class="st5" d="M493.9,645.3c-0.7,0-1.2,0.6-1.2,1.4c0,0.8,0.5,1.5,1.2,1.5c0.7,0,1.2-0.6,1.2-1.5
	C495.1,645.9,494.6,645.3,493.9,645.3"/>
<path class="st6" d="M493.9,645.3c-0.7,0-1.2,0.6-1.2,1.4c0,0.8,0.5,1.5,1.2,1.5c0.7,0,1.2-0.6,1.2-1.5
	C495.1,645.9,494.6,645.3,493.9,645.3"/>
<line class="st6" x1="494" y1="630.5" x2="494" y2="622.1"/>
<polyline class="st5" points="489.3,643.5 488.3,643.5 488.3,639.2 489.3,639.2 "/>
<polyline class="st6" points="489.3,643.5 488.3,643.5 488.3,639.2 489.3,639.2 "/>
<line class="st6" x1="488.4" y1="641.3" x2="492" y2="641.3"/>
<g class="st2">
	<g>
		<text transform="matrix(1 0 0 1 497.1656 630.8448)" class="st5 st3 st7">+</text>
		<polygon class="st6" points="498.6,629.3 498.6,628.4 498.3,628.4 498.3,629.3 497.4,629.3 497.4,629.6 498.3,629.6 498.3,630.5 
			498.6,630.5 498.6,629.6 499.6,629.6 499.6,629.3 		"/>
	</g>
</g>
<g class="st2">
	<g>
		<text transform="matrix(1 0 0 1 496.3472 652.1954)" class="st5 st3 st7">-</text>
		<rect x="496.6" y="650.6" class="st6" width="2.2" height="0.3"/>
	</g>
</g>
<line class="st10" x1="494" y1="448.2" x2="494" y2="613"/>
<line class="st12" x1="493.8" y1="613.9" x2="493.8" y2="622.1"/>
<path class="st13" d="M493.7,610.8c-1.7,0-3,1.4-3,3c0,1.8,1.4,3.2,3,3.2c1.8,0,3.2-1.4,3.2-3.2
	C496.9,612.2,495.5,610.8,493.7,610.8"/>
<path d="M493.8,611.3c-1.4,0-2.5,1.2-2.5,2.5c0,1.6,1.1,2.7,2.5,2.7v1.2c-2,0-3.7-1.6-3.7-3.8c0-2.1,1.7-3.7,3.7-3.7V611.3z
	 M493.8,617.7c2.2,0,3.8-1.7,3.8-3.8c0-2.1-1.6-3.7-3.8-3.7v1.1c1.6,0,2.7,1.2,2.7,2.5c0,1.6-1.2,2.7-2.7,2.7V617.7"/>
<rect x="489.8" y="614" class="st13" width="8.1" height="4.1"/>
<rect x="493.3" y="613" width="1" height="4.2"/>
<rect x="493.3" y="613" class="st14" width="1" height="4.2"/>
<line class="st12" x1="493.8" y1="664.9" x2="493.8" y2="656.7"/>
<path class="st13" d="M493.7,668c-1.7,0-3-1.4-3-3c0-1.8,1.4-3.2,3-3.2c1.8,0,3.2,1.4,3.2,3.2C496.9,666.6,495.5,668,493.7,668"/>
<path d="M493.8,668.6c-2,0-3.7-1.6-3.7-3.7c0-2.2,1.7-3.8,3.7-3.8v1.2c-1.4,0-2.5,1.1-2.5,2.7c0,1.3,1.1,2.5,2.5,2.5V668.6z
	 M493.8,661.1v1.2c1.5,0,2.7,1.1,2.7,2.7c0,1.3-1.1,2.5-2.7,2.5v1.1c2.2,0,3.8-1.6,3.8-3.7C497.6,662.8,496,661.1,493.8,661.1"/>
<rect x="489.8" y="660.7" class="st13" width="8.1" height="4.1"/>
<rect x="493.3" y="661.6" width="1" height="4.2"/>
<rect x="493.3" y="661.6" class="st14" width="1" height="4.2"/>
<line class="st12" x1="493.9" y1="447.5" x2="493.9" y2="439.3"/>
<path class="st13" d="M493.8,450.6c-1.7,0-3-1.4-3-3c0-1.8,1.4-3.2,3-3.2c1.8,0,3.2,1.4,3.2,3.2C497,449.2,495.6,450.6,493.8,450.6"
	/>
<path d="M493.8,451.2c-2,0-3.7-1.6-3.7-3.7c0-2.2,1.7-3.8,3.7-3.8v1.2c-1.4,0-2.5,1.1-2.5,2.7c0,1.3,1.1,2.5,2.5,2.5V451.2z
	 M493.8,443.7v1.2c1.5,0,2.7,1.1,2.7,2.7c0,1.3-1.1,2.5-2.7,2.5v1.1c2.2,0,3.8-1.6,3.8-3.7S496,443.7,493.8,443.7"/>
<rect x="489.8" y="443.3" class="st13" width="8.1" height="4.1"/>
<rect x="493.4" y="444.2" width="1" height="4.2"/>
<rect x="493.4" y="444.2" class="st14" width="1" height="4.2"/>
<path d="M496.8,732.1c-0.2,1.5-1.4,2.5-2.8,2.5c-1.6,0-2.9-1.2-2.9-2.9c0-1.6,1.4-2.9,3.2-2.7C495.8,729.2,497,730.6,496.8,732.1"/>
<path class="st32" d="M496.8,732.1c-0.2,1.5-1.4,2.5-2.8,2.5c-1.6,0-2.9-1.2-2.9-2.9c0-1.6,1.4-2.9,3.2-2.7
	C495.8,729.2,497,730.6,496.8,732.1z"/>
<line class="st10" x1="494" y1="448.2" x2="494" y2="613"/>
<line class="st12" x1="493.8" y1="613.9" x2="493.8" y2="622.1"/>
<path class="st13" d="M493.7,610.8c-1.7,0-3,1.4-3,3c0,1.8,1.4,3.2,3,3.2c1.8,0,3.2-1.4,3.2-3.2
	C496.9,612.2,495.5,610.8,493.7,610.8"/>
<path d="M493.8,611.3c-1.4,0-2.5,1.2-2.5,2.5c0,1.6,1.1,2.7,2.5,2.7v1.2c-2,0-3.7-1.6-3.7-3.8c0-2.1,1.7-3.7,3.7-3.7V611.3z
	 M493.8,617.7c2.2,0,3.8-1.7,3.8-3.8c0-2.1-1.6-3.7-3.8-3.7v1.1c1.6,0,2.7,1.2,2.7,2.5c0,1.6-1.2,2.7-2.7,2.7V617.7"/>
<rect x="489.8" y="614" class="st13" width="8.1" height="4.1"/>
<rect x="493.3" y="613" width="1" height="4.2"/>
<rect x="493.3" y="613" class="st14" width="1" height="4.2"/>
<line class="st12" x1="493.8" y1="664.9" x2="493.8" y2="656.7"/>
<path class="st13" d="M493.7,668c-1.7,0-3-1.4-3-3c0-1.8,1.4-3.2,3-3.2c1.8,0,3.2,1.4,3.2,3.2C496.9,666.6,495.5,668,493.7,668"/>
<path d="M493.8,668.6c-2,0-3.7-1.6-3.7-3.7c0-2.2,1.7-3.8,3.7-3.8v1.2c-1.4,0-2.5,1.1-2.5,2.7c0,1.3,1.1,2.5,2.5,2.5V668.6z
	 M493.8,661.1v1.2c1.5,0,2.7,1.1,2.7,2.7c0,1.3-1.1,2.5-2.7,2.5v1.1c2.2,0,3.8-1.6,3.8-3.7C497.6,662.8,496,661.1,493.8,661.1"/>
<rect x="489.8" y="660.7" class="st13" width="8.1" height="4.1"/>
<rect x="493.3" y="661.6" width="1" height="4.2"/>
<rect x="493.3" y="661.6" class="st14" width="1" height="4.2"/>
<line class="st12" x1="493.9" y1="447.5" x2="493.9" y2="439.3"/>
<path class="st13" d="M493.8,450.6c-1.7,0-3-1.4-3-3c0-1.8,1.4-3.2,3-3.2c1.8,0,3.2,1.4,3.2,3.2C497,449.2,495.6,450.6,493.8,450.6"
	/>
<path d="M493.8,451.2c-2,0-3.7-1.6-3.7-3.7c0-2.2,1.7-3.8,3.7-3.8v1.2c-1.4,0-2.5,1.1-2.5,2.7c0,1.3,1.1,2.5,2.5,2.5V451.2z
	 M493.8,443.7v1.2c1.5,0,2.7,1.1,2.7,2.7c0,1.3-1.1,2.5-2.7,2.5v1.1c2.2,0,3.8-1.6,3.8-3.7S496,443.7,493.8,443.7"/>
<rect x="489.8" y="443.3" class="st13" width="8.1" height="4.1"/>
<rect x="493.4" y="444.2" width="1" height="4.2"/>
<rect x="493.4" y="444.2" class="st14" width="1" height="4.2"/>
<path d="M496.8,732.1c-0.2,1.5-1.4,2.5-2.8,2.5c-1.6,0-2.9-1.2-2.9-2.9c0-1.6,1.4-2.9,3.2-2.7C495.8,729.2,497,730.6,496.8,732.1"/>
<path class="st32" d="M496.8,732.1c-0.2,1.5-1.4,2.5-2.8,2.5c-1.6,0-2.9-1.2-2.9-2.9c0-1.6,1.4-2.9,3.2-2.7
	C495.8,729.2,497,730.6,496.8,732.1z"/>
<rect x="479.8" y="467.4" class="st13" width="28.1" height="7.1"/>
<g class="st2">
	<g>
		<text transform="matrix(1 0 0 1 484.1148 472.5283)" class="st3 st4">G 0.13</text>
	</g>
</g>
<rect x="479.8" y="685.1" class="st13" width="28.1" height="7.1"/>
<g class="st2">
	<g>
		<text transform="matrix(1 0 0 1 484.4166 690.2178)" class="st3 st4">B 0.13</text>
	</g>
</g>
<rect x="479.8" y="761.7" class="st13" width="28.1" height="7.1"/>
<g class="st2">
	<g>
		<text transform="matrix(1 0 0 1 486.2213 767.046)" class="st3 st4">B 1.0</text>
	</g>
</g>
<rect x="498.6" y="728.3" class="st28" width="26.2" height="6.3"/>
<text transform="matrix(1 0 0 1 499.4986 733.4714)" class="st3 st4">SP3317</text>
<rect x="479.8" y="577" class="st13" width="28.1" height="7.1"/>
<g class="st2">
	<g>
		<text transform="matrix(1 0 0 1 484.1148 582.3643)" class="st3 st4">G 0.13</text>
	</g>
</g>
<text transform="matrix(1 0 0 1 499.9058 446.353)" class="st27 st3 st4">KG86(E)</text>
<text transform="matrix(1 0 0 1 499.9058 618.8653)" class="st27 st3 st4">K68(A)</text>
<text transform="matrix(1 0 0 1 521.98 618.8653)" class="st27 st3 st4">-11</text>
<text transform="matrix(1 0 0 1 499.9058 664.8672)" class="st27 st3 st4">K68(A)</text>
<text transform="matrix(1 0 0 1 521.98 664.8672)" class="st27 st3 st4">-12</text>
<text transform="matrix(1 0 0 1 526.2398 446.353)" class="st27 st3 st4">-33</text>
<line class="st9" x1="143.1" y1="206.8" x2="143.1" y2="341"/>
<polyline class="st17" points="106.5,206.8 106.5,305.2 68.4,305.2 68.4,205.1 "/>
<polyline class="st33" points="106.5,206.8 106.5,305.2 68.4,305.2 68.4,205.1 "/>
<rect x="139.9" y="304.8" class="st13" width="6.4" height="6"/>
<g>
	<text transform="matrix(1 0 0 1 135.5593 309.7464)" class="st3 st4">B 1.0</text>
</g>
<g>
	<g id="GB031_17_">
		<g>
			<g>
				<line class="st11" x1="143.2" y1="339" x2="143.2" y2="341.7"/>
			</g>
			<g>
				<line class="st11" x1="136.2" y1="341.7" x2="150" y2="341.7"/>
			</g>
			<g>
				<line class="st11" x1="139" y1="343.9" x2="147.2" y2="343.9"/>
			</g>
			<g>
				<line class="st11" x1="145.5" y1="346" x2="140.7" y2="346"/>
			</g>
		</g>
		<g>
			<rect x="132.8" y="348.5" class="st13" width="20.3" height="8.2"/>
			<rect x="133.1" y="348.8" class="st34" width="19.7" height="7.6"/>
		</g>
	</g>
</g>
<rect x="147.8" y="278.7" class="st35" width="25" height="7.4"/>
<text transform="matrix(1 0 0 1 148.1366 284.1926)" class="st3 st4">SP2777</text>
<path class="st36" d="M145.8,283c0,1.7-1.3,2.9-2.8,2.9c-1.6,0-2.9-1.2-2.9-2.9c0-1.5,1.3-2.7,2.9-2.7
	C144.5,280.3,145.8,281.5,145.8,283z"/>
<rect x="73.4" y="278.7" class="st35" width="25" height="7.4"/>
<text transform="matrix(1 0 0 1 73.8033 284.1926)" class="st3 st4">SP3215</text>
<path class="st36" d="M71.4,283c0,1.7-1.3,2.9-2.8,2.9c-1.6,0-2.9-1.2-2.9-2.9c0-1.5,1.3-2.7,2.9-2.7
	C70.1,280.3,71.4,281.5,71.4,283z"/>
<text transform="matrix(1 0 0 1 135.4844 354.826)" class="st27 st3 st4">Ek07</text>
<g id="REB_x2C_A3_4_">
	<rect x="55.7" y="120" class="st37" width="265.6" height="76"/>
</g>
<g>
	<line class="st9" x1="193.4" y1="206.5" x2="193.4" y2="395.5"/>
</g>
<g>
	<line class="st15" x1="193.4" y1="206.5" x2="193.4" y2="395.5"/>
</g>
<line class="st38" x1="293.8" y1="206.8" x2="293.8" y2="395.8"/>
<line class="st39" x1="293.8" y1="206.8" x2="293.8" y2="395.8"/>
<line class="st40" x1="293.8" y1="206.8" x2="293.8" y2="395.8"/>
<rect x="300.5" y="289.8" class="st35" width="25.3" height="5.6"/>
<text transform="matrix(1 0 0 1 301.2293 294.6505)" class="st3 st4">SP1914</text>
<path class="st36" d="M296.9,292.6c0,1.7-1.3,2.9-2.8,2.9c-1.6,0-2.9-1.2-2.9-2.9c0-1.5,1.3-2.7,2.9-2.7
	C295.6,289.9,296.9,291.1,296.9,292.6z"/>
<rect x="199.9" y="289.5" class="st35" width="25.3" height="5.6"/>
<text transform="matrix(1 0 0 1 200.6006 294.3336)" class="st3 st4">SP3222</text>
<path class="st36" d="M196.2,292.3c0,1.7-1.3,2.9-2.8,2.9c-1.6,0-2.9-1.2-2.9-2.9c0-1.5,1.3-2.7,2.9-2.7
	C195,289.6,196.2,290.8,196.2,292.3z"/>
<g id="RF22_x2C_A3_5_">
	<g>
		<g>
			<path class="st41" d="M293.7,163.7c-1.2,0-2.2,1-2.2,2.2c0,1.2,1,2.2,2.2,2.2c1.2,0,2.2-1,2.2-2.2
				C295.9,164.7,294.9,163.7,293.7,163.7"/>
		</g>
		<g>
			<path class="st41" d="M293.7,147.9c-1.2,0-2.2,1-2.2,2.1c0,1.2,1,2.2,2.2,2.2c1.2,0,2.2-0.9,2.2-2.2
				C295.9,148.9,294.9,147.9,293.7,147.9"/>
		</g>
		<g>
			<path class="st41" d="M292.2,151.7c-0.1,2.5,0.2,3.2,1.3,4.3c1.2,1.2,2.4,1.7,2.8,3.7c0.4,1.6-0.1,3.5-1.1,4.5"/>
		</g>
		<g>
			<path class="st41" d="M295.1,164.2c0.2-0.8,0-2.9-0.6-3.7c-0.9-1.2-2.7-2.1-3.3-4c-0.9-2.8,0.7-4.6,1.1-5"/>
		</g>
	</g>
</g>
<g id="RF22_x2C_A3_4_">
	<g>
		<g>
			<path class="st41" d="M256.2,163.7c-1.2,0-2.2,1-2.2,2.2c0,1.2,1,2.2,2.2,2.2c1.2,0,2.2-1,2.2-2.2
				C258.4,164.7,257.4,163.7,256.2,163.7"/>
		</g>
		<g>
			<path class="st41" d="M256.2,147.9c-1.2,0-2.2,1-2.2,2.1c0,1.2,1,2.2,2.2,2.2c1.2,0,2.2-0.9,2.2-2.2
				C258.4,148.9,257.4,147.9,256.2,147.9"/>
		</g>
		<g>
			<path class="st41" d="M254.7,151.7c-0.1,2.5,0.2,3.2,1.3,4.3c1.2,1.2,2.4,1.7,2.8,3.7c0.4,1.6-0.1,3.5-1.1,4.5"/>
		</g>
		<g>
			<path class="st41" d="M257.6,164.2c0.2-0.8,0-2.9-0.6-3.7c-0.9-1.2-2.7-2.1-3.3-4c-0.9-2.8,0.7-4.6,1.1-5"/>
		</g>
	</g>
</g>
<g>
	<g>
		<polyline class="st42" points="293.7,168.1 293.7,191.9 293.7,195.9 		"/>
	</g>
</g>
<g>
	<g>
		<polyline class="st42" points="293.7,147.9 293.7,144.1 293.7,80.4 		"/>
	</g>
</g>
<g>
	<g>
		<line class="st42" x1="293.7" y1="204.5" x2="293.7" y2="196.2"/>
	</g>
	<g>
		<path class="st13" d="M293.8,207.5c-1.7,0-3-1.4-3-3c0-1.8,1.4-3.2,3-3.2c1.8,0,3.2,1.4,3.2,3.2
			C296.9,206.1,295.6,207.5,293.8,207.5z"/>
		<path d="M293.8,208.2c-2,0-3.7-1.6-3.7-3.7c0-2.2,1.7-3.8,3.7-3.8v1.1c-1.4,0-2.5,1.1-2.5,2.7c0,1.4,1.1,2.5,2.5,2.5V208.2
			L293.8,208.2z M293.8,200.7v1.1c1.5,0,2.7,1.1,2.7,2.7c0,1.4-1.1,2.5-2.7,2.5v1.1c2.2,0,3.8-1.6,3.8-3.7
			C297.6,202.3,295.9,200.7,293.8,200.7z"/>
	</g>
	<rect x="289.6" y="200.3" class="st13" width="8.5" height="4.1"/>
	<rect x="293.1" y="201.2" width="1" height="4.2"/>
	<rect x="293.1" y="201.2" class="st14" width="1" height="4.2"/>
</g>
<g>
	<g>
		<line class="st42" x1="294" y1="397.8" x2="294" y2="406"/>
	</g>
	<g>
		<path class="st13" d="M293.9,394.8c1.7,0,3,1.4,3,3c0,1.8-1.4,3.2-3,3.2c-1.8,0-3.2-1.4-3.2-3.2
			C290.7,396.1,292.1,394.8,293.9,394.8z"/>
		<path d="M293.9,394.1c2,0,3.7,1.7,3.7,3.7c0,2.2-1.7,3.8-3.7,3.8v-1.1c1.4,0,2.5-1.1,2.5-2.7c0-1.4-1.1-2.5-2.5-2.5V394.1
			L293.9,394.1z M293.9,401.6v-1.1c-1.5,0-2.7-1.1-2.7-2.7c0-1.4,1.1-2.5,2.7-2.5v-1.1c-2.2,0-3.8,1.7-3.8,3.7
			C290.1,400,291.7,401.6,293.9,401.6z"/>
	</g>
	<rect x="289.6" y="397.9" class="st13" width="8.5" height="4.1"/>
	<rect x="293.5" y="396.9" width="1" height="4.2"/>
	<rect x="293.5" y="396.9" class="st14" width="1" height="4.2"/>
</g>
<rect x="281.4" y="234.6" class="st13" width="25.5" height="6"/>
<g>
	<text transform="matrix(1 0 0 1 279.2086 239.6925)" class="st3 st4">R/W 0.35</text>
</g>
<g>
	<path class="st43" d="M290.5,80.1c0-1.7,1.3-2.9,2.8-2.9c1.6,0,2.9,1.2,2.9,2.9c0,1.5-1.3,2.7-2.9,2.7
		C291.8,82.9,290.5,81.6,290.5,80.1z"/>
	<g>
		<path class="st44" d="M290.5,80.1c0-1.7,1.3-2.9,2.8-2.9c1.6,0,2.9,1.2,2.9,2.9c0,1.5-1.3,2.7-2.9,2.7
			C291.8,82.9,290.5,81.6,290.5,80.1"/>
	</g>
</g>
<g>
	<g>
		<polyline class="st42" points="256.4,147.9 256.4,144.1 256.4,47 		"/>
	</g>
</g>
<g>
	<path class="st43" d="M253.3,46.7c0-1.7,1.3-2.9,2.8-2.9c1.6,0,2.9,1.2,2.9,2.9c0,1.5-1.3,2.7-2.9,2.7
		C254.6,49.5,253.3,48.2,253.3,46.7z"/>
	<g>
		<path class="st44" d="M253.3,46.7c0-1.7,1.3-2.9,2.8-2.9c1.6,0,2.9,1.2,2.9,2.9c0,1.5-1.3,2.7-2.9,2.7
			C254.6,49.5,253.3,48.2,253.3,46.7"/>
	</g>
</g>
<rect x="274.3" y="368.5" class="st13" width="25.7" height="6"/>
<rect x="274.3" y="368.5" class="st13" width="25.5" height="6"/>
<g>
	<text transform="matrix(1 0 0 1 279.2086 373.4452)" class="st3 st4">R/W 0.35</text>
</g>
<g>
	<g>
		<text transform="matrix(1 0 0 1 298.0123 162.0314)" class="st3 st4">7.5A</text>
	</g>
</g>
<g>
	<g>
		<line class="st42" x1="193.3" y1="204.2" x2="193.3" y2="196"/>
	</g>
	<g>
		<path class="st13" d="M193.4,207.3c-1.7,0-3-1.4-3-3c0-1.8,1.4-3.2,3-3.2c1.8,0,3.2,1.4,3.2,3.2
			C196.6,205.9,195.2,207.3,193.4,207.3z"/>
		<path d="M193.4,207.9c-2,0-3.7-1.6-3.7-3.7c0-2.2,1.7-3.8,3.7-3.8v1.1c-1.4,0-2.5,1.1-2.5,2.7c0,1.4,1.1,2.5,2.5,2.5V207.9
			L193.4,207.9z M193.4,200.4v1.1c1.5,0,2.7,1.1,2.7,2.7c0,1.4-1.1,2.5-2.7,2.5v1.1c2.2,0,3.8-1.6,3.8-3.7
			C197.2,202.1,195.6,200.4,193.4,200.4z"/>
	</g>
	<rect x="189.2" y="200" class="st13" width="8.5" height="4.1"/>
	<rect x="192.8" y="200.9" width="1" height="4.2"/>
	<rect x="192.8" y="200.9" class="st14" width="1" height="4.2"/>
</g>
<g>
	<g>
		<line class="st42" x1="193.6" y1="397.5" x2="193.6" y2="405.8"/>
	</g>
	<g>
		<path class="st13" d="M193.5,394.5c1.7,0,3,1.4,3,3c0,1.8-1.4,3.2-3,3.2c-1.8,0-3.2-1.4-3.2-3.2
			C190.4,395.9,191.8,394.5,193.5,394.5z"/>
		<path d="M193.5,393.9c2,0,3.7,1.7,3.7,3.7c0,2.2-1.7,3.8-3.7,3.8v-1.1c1.4,0,2.5-1.1,2.5-2.7c0-1.4-1.1-2.5-2.5-2.5V393.9
			L193.5,393.9z M193.5,401.4v-1.1c-1.5,0-2.7-1.1-2.7-2.7c0-1.4,1.1-2.5,2.7-2.5v-1.1c-2.2,0-3.8,1.7-3.8,3.7
			C189.7,399.7,191.4,401.4,193.5,401.4z"/>
	</g>
	<rect x="189.2" y="397.7" class="st13" width="8.5" height="4.1"/>
	<rect x="193.2" y="396.7" width="1" height="4.2"/>
	<rect x="193.2" y="396.7" class="st14" width="1" height="4.2"/>
</g>
<rect x="187.2" y="234.9" class="st13" width="12.5" height="6"/>
<g>
	<text transform="matrix(1 0 0 1 179.2759 239.6925)" class="st3 st4">B/R 0.75</text>
</g>
<rect x="137.3" y="234.9" class="st13" width="12.5" height="6"/>
<g>
	<text transform="matrix(1 0 0 1 133.1913 239.6925)" class="st3 st4">B 0.35</text>
</g>
<rect x="100.6" y="234.9" class="st13" width="12.5" height="6"/>
<g>
	<text transform="matrix(1 0 0 1 94.9971 239.6925)" class="st3 st4">R/Gr 0.5</text>
</g>
<rect x="60.9" y="234.9" class="st13" width="12.5" height="6"/>
<g>
	<text transform="matrix(1 0 0 1 55.2322 239.6925)" class="st3 st4">R/Gr 0.5</text>
</g>
<rect x="187.2" y="368.2" class="st13" width="12.5" height="6"/>
<g>
	<text transform="matrix(1 0 0 1 179.2759 373.0109)" class="st3 st4">B/R 0.75</text>
</g>
<g>
	<text transform="matrix(1 0 0 1 297.8087 155.4133)" class="st27 st3 st4">F1/12</text>
</g>
<g id="RF22_x2C_A3_1_">
	<g>
		<g>
			<path class="st41" d="M68.2,163.7c-1.2,0-2.2,1-2.2,2.2c0,1.2,1,2.2,2.2,2.2c1.2,0,2.2-1,2.2-2.2
				C70.5,164.7,69.5,163.7,68.2,163.7"/>
		</g>
		<g>
			<path class="st41" d="M68.2,147.9c-1.2,0-2.2,1-2.2,2.1c0,1.2,1,2.2,2.2,2.2c1.2,0,2.2-0.9,2.2-2.2
				C70.5,148.9,69.5,147.9,68.2,147.9"/>
		</g>
		<g>
			<path class="st41" d="M66.8,151.7c-0.1,2.5,0.2,3.2,1.3,4.3c1.2,1.2,2.4,1.7,2.8,3.7c0.4,1.6-0.1,3.5-1.1,4.5"/>
		</g>
		<g>
			<path class="st41" d="M69.7,164.2c0.2-0.8,0-2.9-0.6-3.7c-0.9-1.2-2.7-2.1-3.3-4c-0.9-2.8,0.7-4.6,1.1-5"/>
		</g>
	</g>
</g>
<g>
	<g>
		<polyline class="st42" points="68.2,168.1 68.2,191.9 68.2,195.9 		"/>
	</g>
</g>
<g>
	<g>
		<polyline class="st42" points="68.2,147.9 68.2,144.1 68.2,68.7 		"/>
	</g>
</g>
<g>
	<path class="st43" d="M65.1,68.5c0-1.7,1.3-2.9,2.8-2.9c1.6,0,2.9,1.2,2.9,2.9c0,1.5-1.3,2.7-2.9,2.7C66.4,71.2,65.1,70,65.1,68.5z
		"/>
	<g>
		<path class="st44" d="M65.1,68.5c0-1.7,1.3-2.9,2.8-2.9c1.6,0,2.9,1.2,2.9,2.9c0,1.5-1.3,2.7-2.9,2.7C66.4,71.2,65.1,70,65.1,68.5
			"/>
	</g>
</g>
<g>
	<g>
		<text transform="matrix(1 0 0 1 72.6071 162.0314)" class="st3 st4">10A</text>
	</g>
</g>
<g>
	<text transform="matrix(1 0 0 1 72.4035 155.4133)" class="st27 st3 st4">F1/25</text>
</g>
<g>
	<g>
		<text transform="matrix(1 0 0 1 260.2388 162.0314)" class="st3 st4">15A</text>
	</g>
</g>
<g>
	<text transform="matrix(1 0 0 1 260.0352 155.4133)" class="st27 st3 st4">F1/31</text>
</g>
<g>
	<text transform="matrix(1 0 0 1 297.96 203.2332)" class="st27 st3 st4">B1D</text>
</g>
<g>
	<text transform="matrix(1 0 0 1 310.46 202.9832)" class="st27 st3 st4">-9</text>
</g>
<g>
	<text transform="matrix(1 0 0 1 299.3027 403.1785)" class="st27 st3 st4">BG64(B)</text>
</g>
<g>
	<text transform="matrix(1 0 0 1 324.2725 402.9285)" class="st27 st3 st4">-48</text>
</g>
<g>
	<text transform="matrix(1 0 0 1 197.5889 202.9832)" class="st27 st3 st4">B1C</text>
</g>
<g>
	<text transform="matrix(1 0 0 1 210.0889 202.9832)" class="st27 st3 st4">-5</text>
</g>
<g>
	<g>
		<line class="st42" x1="143.2" y1="204.2" x2="143.2" y2="196"/>
	</g>
	<g>
		<path class="st13" d="M143.3,207.3c-1.7,0-3-1.4-3-3c0-1.8,1.4-3.2,3-3.2c1.8,0,3.2,1.4,3.2,3.2
			C146.5,205.9,145.1,207.3,143.3,207.3z"/>
		<path d="M143.3,207.9c-2,0-3.7-1.6-3.7-3.7c0-2.2,1.7-3.8,3.7-3.8v1.1c-1.4,0-2.5,1.1-2.5,2.7c0,1.4,1.1,2.5,2.5,2.5V207.9
			L143.3,207.9z M143.3,200.4v1.1c1.5,0,2.7,1.1,2.7,2.7c0,1.4-1.1,2.5-2.7,2.5v1.1c2.2,0,3.8-1.6,3.8-3.7
			C147.1,202.1,145.4,200.4,143.3,200.4z"/>
	</g>
	<rect x="139.1" y="200" class="st13" width="8.5" height="4.1"/>
	<rect x="142.6" y="200.9" width="1" height="4.2"/>
	<rect x="142.6" y="200.9" class="st14" width="1" height="4.2"/>
</g>
<g>
	<text transform="matrix(1 0 0 1 147.4639 202.9832)" class="st27 st3 st4">B1C</text>
</g>
<g>
	<text transform="matrix(1 0 0 1 159.9639 202.9832)" class="st27 st3 st4">-21</text>
</g>
<g>
	<g>
		<line class="st42" x1="106.6" y1="204.2" x2="106.6" y2="196"/>
	</g>
	<g>
		<path class="st13" d="M106.7,207.3c-1.7,0-3-1.4-3-3c0-1.8,1.4-3.2,3-3.2c1.8,0,3.2,1.4,3.2,3.2
			C109.8,205.9,108.4,207.3,106.7,207.3z"/>
		<path d="M106.7,207.9c-2,0-3.7-1.6-3.7-3.7c0-2.2,1.7-3.8,3.7-3.8v1.1c-1.4,0-2.5,1.1-2.5,2.7c0,1.4,1.1,2.5,2.5,2.5V207.9
			L106.7,207.9z M106.7,200.4v1.1c1.5,0,2.7,1.1,2.7,2.7c0,1.4-1.1,2.5-2.7,2.5v1.1c2.2,0,3.8-1.6,3.8-3.7
			C110.5,202.1,108.8,200.4,106.7,200.4z"/>
	</g>
	<rect x="102.5" y="200" class="st13" width="8.5" height="4.1"/>
	<rect x="106" y="200.9" width="1" height="4.2"/>
	<rect x="106" y="200.9" class="st14" width="1" height="4.2"/>
</g>
<g>
	<text transform="matrix(1 0 0 1 110.8389 202.9832)" class="st27 st3 st4">B1C</text>
</g>
<g>
	<text transform="matrix(1 0 0 1 123.3389 202.9832)" class="st27 st3 st4">-14</text>
</g>
<g>
	<g>
		<line class="st42" x1="68.4" y1="204.2" x2="68.4" y2="196"/>
	</g>
	<g>
		<path class="st13" d="M68.5,207.3c-1.7,0-3-1.4-3-3c0-1.8,1.4-3.2,3-3.2c1.8,0,3.2,1.4,3.2,3.2C71.7,205.9,70.3,207.3,68.5,207.3z
			"/>
		<path d="M68.5,207.9c-2,0-3.7-1.6-3.7-3.7c0-2.2,1.7-3.8,3.7-3.8v1.1c-1.4,0-2.5,1.1-2.5,2.7c0,1.4,1.1,2.5,2.5,2.5V207.9
			L68.5,207.9z M68.5,200.4v1.1c1.5,0,2.7,1.1,2.7,2.7c0,1.4-1.1,2.5-2.7,2.5v1.1c2.2,0,3.8-1.6,3.8-3.7
			C72.3,202.1,70.6,200.4,68.5,200.4z"/>
	</g>
	<rect x="64.3" y="200" class="st13" width="8.5" height="4.1"/>
	<rect x="67.9" y="200.9" width="1" height="4.2"/>
	<rect x="67.9" y="200.9" class="st14" width="1" height="4.2"/>
</g>
<g>
	<text transform="matrix(1 0 0 1 72.6719 202.9832)" class="st27 st3 st4">B1C</text>
</g>
<g>
	<text transform="matrix(1 0 0 1 85.1719 202.9832)" class="st27 st3 st4">-33</text>
</g>
<g>
	<text transform="matrix(1 0 0 1 198.9316 402.9285)" class="st27 st3 st4">BG64(B)</text>
</g>
<g>
	<text transform="matrix(1 0 0 1 223.9014 402.9285)" class="st27 st3 st4">-47</text>
</g>
<rect x="118.9" y="146.4" class="st45" width="91.3" height="38.8"/>
<g>
	<line class="st46" x1="197" y1="171.8" x2="191.7" y2="161.3"/>
</g>
<g>
	<line class="st47" x1="130.7" y1="166.2" x2="192.7" y2="166.1"/>
</g>
<path class="st13" d="M192.8,160.1c0-0.6-0.5-1.2-1.2-1.2c-0.6,0-1.2,0.5-1.2,1.2c0,0.6,0.5,1.2,1.2,1.2S192.8,160.8,192.8,160.1z"
	/>
<g>
	<path class="st48" d="M192.8,160.1c0-0.6-0.5-1.2-1.2-1.2c-0.6,0-1.2,0.5-1.2,1.2c0,0.6,0.5,1.2,1.2,1.2S192.8,160.8,192.8,160.1"
		/>
</g>
<g>
	<polyline class="st49" points="143.3,196 143.3,172.3 143.3,166.2 143.3,137.7 143.3,126.5 106.6,126.5 106.6,195.9 	"/>
</g>
<path class="st13" d="M194.7,171.8c0-0.6-0.5-1.2-1.2-1.2c-0.6,0-1.2,0.5-1.2,1.2c0,0.6,0.5,1.1,1.2,1.1
	C194.2,172.9,194.7,172.4,194.7,171.8z"/>
<g>
	<path class="st48" d="M194.7,171.8c0-0.6-0.5-1.2-1.2-1.2c-0.6,0-1.2,0.5-1.2,1.2c0,0.6,0.5,1.1,1.2,1.1
		C194.2,172.9,194.7,172.4,194.7,171.8"/>
</g>
<rect x="135.9" y="163.2" class="st50" width="14.2" height="5.7"/>
<g>
	<rect x="126.8" y="161.6" class="st51" width="4" height="8.5"/>
	<g>
		<polyline class="st49" points="128.8,170.3 128.8,177.3 142.1,177.3 		"/>
	</g>
	<g>
		<polyline class="st49" points="128.8,161.5 128.8,155.1 143,155.1 		"/>
	</g>
</g>
<g>
	<line class="st51" x1="145.6" y1="163.2" x2="140.8" y2="169.1"/>
</g>
<polyline class="st49" points="191.7,126.5 191.7,155.3 191.7,158.8 "/>
<polyline class="st49" points="193.5,173.2 193.5,193.8 193.5,196.2 "/>
<g>
	<text transform="matrix(1 0 0 1 215.0165 162.4907)" class="st3 st4">IG3-2</text>
	<text transform="matrix(1 0 0 1 215.0165 170.5491)" class="st3 st4">Relay </text>
</g>
<g>
	<path class="st29" d="M143.2,156.9c-1,0-1.7-0.8-1.7-1.7c0-1,0.7-1.8,1.7-1.8c0.9,0,1.7,0.8,1.7,1.8
		C144.9,156.1,144.1,156.9,143.2,156.9z"/>
	<g>
		<path class="st52" d="M143.2,156.9c-1,0-1.7-0.8-1.7-1.7c0-1,0.7-1.8,1.7-1.8c0.9,0,1.7,0.8,1.7,1.8
			C144.9,156.1,144.1,156.9,143.2,156.9"/>
	</g>
</g>
<g>
	<path class="st29" d="M143.2,179c-1,0-1.7-0.8-1.7-1.7c0-1,0.7-1.8,1.7-1.8c0.9,0,1.7,0.8,1.7,1.8C144.9,178.2,144.1,179,143.2,179
		z"/>
	<g>
		<path class="st52" d="M143.2,179c-1,0-1.7-0.8-1.7-1.7c0-1,0.7-1.8,1.7-1.8c0.9,0,1.7,0.8,1.7,1.8
			C144.9,178.2,144.1,179,143.2,179"/>
	</g>
</g>
<polyline class="st49" points="191.8,126.4 238.4,126.4 238.4,189.3 256.1,189.3 256.1,168.1 "/>
<line class="st53" x1="352.4" y1="259.1" x2="352.4" y2="398.5"/>
<line class="st54" x1="407.9" y1="260.1" x2="407.9" y2="399.6"/>
<g>
	<rect x="401.2" y="368.4" class="st13" width="13.9" height="6"/>
	<g>
		<text transform="matrix(1 0 0 1 399.5363 373.5242)" class="st3 st4">V 0.35</text>
	</g>
</g>
<g>
	<rect x="347.1" y="368.4" class="st13" width="13.9" height="6"/>
	<g>
		<text transform="matrix(1 0 0 1 343.3937 373.5242)" class="st3 st4">P 0.35</text>
	</g>
</g>
<path class="st8" d="M350,336.5c-1.8,0-3.2-1.5-3.2-3.5c0-1.9,1.4-3.5,3.2-3.5l59.9,6.9c1.8,0,3.2-1.5,3.2-3.5
	c0-1.9-1.4-3.5-3.2-3.5L350,336.5z"/>
<g>
	<text transform="matrix(1 0 0 1 401.2329 411.4147)" class="st3 st7">CAN_L</text>
</g>
<g>
	<text transform="matrix(1 0 0 1 343.394 410.9355)" class="st3 st7">CAN_H</text>
</g>
<path class="st55" d="M412.1,256.9l-0.5-2.1c0,0-0.5-2.5-2.7-2.6h-28.3l0,0l-1.6-2.7l-1.6,2.7c-7.4,0-28.2,0-28.2,0
	c-2.2,0.1-2.7,2.6-2.7,2.6l-0.5,2.1"/>
<g>
	<text transform="matrix(1 0 0 1 326.3897 247.1898)" class="st3 st4">See Body Network - Circuit Diagram</text>
</g>
<g>
	<g>
		<line class="st42" x1="352.4" y1="397.6" x2="352.4" y2="405.8"/>
	</g>
	<g>
		<path class="st13" d="M352.3,394.5c1.7,0,3,1.4,3,3c0,1.8-1.4,3.2-3,3.2c-1.8,0-3.2-1.4-3.2-3.2
			C349.1,395.9,350.5,394.5,352.3,394.5z"/>
		<path d="M352.3,393.9c2,0,3.7,1.7,3.7,3.7c0,2.2-1.7,3.8-3.7,3.8v-1.1c1.4,0,2.5-1.1,2.5-2.7c0-1.4-1.1-2.5-2.5-2.5V393.9
			L352.3,393.9z M352.3,401.4v-1.1c-1.5,0-2.7-1.1-2.7-2.7c0-1.4,1.1-2.5,2.7-2.5v-1.1c-2.2,0-3.8,1.7-3.8,3.7
			C348.5,399.7,350.1,401.4,352.3,401.4z"/>
	</g>
	<rect x="348" y="397.7" class="st13" width="8.5" height="4.1"/>
	<rect x="351.9" y="396.7" width="1" height="4.2"/>
	<rect x="351.9" y="396.7" class="st14" width="1" height="4.2"/>
</g>
<g>
	<g>
		<line class="st42" x1="407.9" y1="397.6" x2="407.9" y2="405.8"/>
	</g>
	<g>
		<path class="st13" d="M407.8,394.5c1.7,0,3,1.4,3,3c0,1.8-1.4,3.2-3,3.2c-1.8,0-3.2-1.4-3.2-3.2
			C404.6,395.9,406,394.5,407.8,394.5z"/>
		<path d="M407.8,393.9c2,0,3.7,1.7,3.7,3.7c0,2.2-1.7,3.8-3.7,3.8v-1.1c1.4,0,2.5-1.1,2.5-2.7c0-1.4-1.1-2.5-2.5-2.5V393.9
			L407.8,393.9z M407.8,401.4v-1.1c-1.5,0-2.7-1.1-2.7-2.7c0-1.4,1.1-2.5,2.7-2.5v-1.1c-2.2,0-3.8,1.7-3.8,3.7
			C404,399.7,405.6,401.4,407.8,401.4z"/>
	</g>
	<rect x="403.5" y="397.7" class="st13" width="8.5" height="4.1"/>
	<rect x="407.4" y="396.7" width="1" height="4.2"/>
	<rect x="407.4" y="396.7" class="st14" width="1" height="4.2"/>
</g>
<text transform="matrix(1 0 0 1 357.6709 402.9676)" class="st27 st3 st4">G64(G)</text>
<text transform="matrix(1 0 0 1 379.6587 402.9676)" class="st27 st3 st4">-10</text>
<text transform="matrix(1 0 0 1 413.1709 402.9676)" class="st27 st3 st4">G64(G)</text>
<text transform="matrix(1 0 0 1 435.1587 402.9676)" class="st27 st3 st4">-9</text>
<line class="st53" x1="626.4" y1="259.1" x2="626.4" y2="398.5"/>
<line class="st54" x1="681.9" y1="260.1" x2="681.9" y2="399.6"/>
<g>
	<rect x="675.2" y="368.4" class="st13" width="13.9" height="6"/>
	<g>
		<text transform="matrix(1 0 0 1 673.4825 373.524)" class="st3 st4">V 0.35</text>
	</g>
</g>
<g>
	<rect x="621" y="368.4" class="st13" width="13.9" height="6"/>
	<g>
		<text transform="matrix(1 0 0 1 617.3399 373.524)" class="st3 st4">P 0.35</text>
	</g>
</g>
<path class="st8" d="M624,336.5c-1.8,0-3.2-1.5-3.2-3.5c0-1.9,1.4-3.5,3.2-3.5l59.9,6.9c1.8,0,3.2-1.5,3.2-3.5
	c0-1.9-1.4-3.5-3.2-3.5L624,336.5z"/>
<g>
	<text transform="matrix(1 0 0 1 675.1791 411.4145)" class="st3 st7">CAN_L</text>
</g>
<g>
	<text transform="matrix(1 0 0 1 617.3401 410.9353)" class="st3 st7">CAN_H</text>
</g>
<g>
	<text transform="matrix(1 0 0 1 606.4901 244.2193)" class="st3 st4">See Body Network - Circuit Diagram</text>
</g>
<path class="st55" d="M686.1,256.9l-0.5-2.1c0,0-0.5-2.5-2.7-2.6h-28.3l0,0l-1.6-2.7l-1.6,2.7c-7.4,0-28.2,0-28.2,0
	c-2.2,0.1-2.7,2.6-2.7,2.6l-0.5,2.1"/>
<g>
	<g>
		<line class="st42" x1="626.3" y1="397.6" x2="626.3" y2="405.8"/>
	</g>
	<g>
		<path class="st13" d="M626.2,394.5c1.7,0,3,1.4,3,3c0,1.8-1.4,3.2-3,3.2c-1.8,0-3.2-1.4-3.2-3.2
			C623.1,395.9,624.5,394.5,626.2,394.5z"/>
		<path d="M626.2,393.9c2,0,3.7,1.7,3.7,3.7c0,2.2-1.7,3.8-3.7,3.8v-1.1c1.4,0,2.5-1.1,2.5-2.7c0-1.4-1.1-2.5-2.5-2.5V393.9
			L626.2,393.9z M626.2,401.4v-1.1c-1.5,0-2.7-1.1-2.7-2.7c0-1.4,1.1-2.5,2.7-2.5v-1.1c-2.2,0-3.8,1.7-3.8,3.7
			C622.4,399.7,624.1,401.4,626.2,401.4z"/>
	</g>
	<rect x="621.9" y="397.7" class="st13" width="8.5" height="4.1"/>
	<rect x="625.9" y="396.7" width="1" height="4.2"/>
	<rect x="625.9" y="396.7" class="st14" width="1" height="4.2"/>
</g>
<g>
	<g>
		<line class="st42" x1="681.8" y1="397.6" x2="681.8" y2="405.8"/>
	</g>
	<g>
		<path class="st13" d="M681.7,394.5c1.7,0,3,1.4,3,3c0,1.8-1.4,3.2-3,3.2c-1.8,0-3.2-1.4-3.2-3.2
			C678.6,395.9,680,394.5,681.7,394.5z"/>
		<path d="M681.7,393.9c2,0,3.7,1.7,3.7,3.7c0,2.2-1.7,3.8-3.7,3.8v-1.1c1.4,0,2.5-1.1,2.5-2.7c0-1.4-1.1-2.5-2.5-2.5V393.9
			L681.7,393.9z M681.7,401.4v-1.1c-1.5,0-2.7-1.1-2.7-2.7c0-1.4,1.1-2.5,2.7-2.5v-1.1c-2.2,0-3.8,1.7-3.8,3.7
			C677.9,399.7,679.6,401.4,681.7,401.4z"/>
	</g>
	<rect x="677.4" y="397.7" class="st13" width="8.5" height="4.1"/>
	<rect x="681.4" y="396.7" width="1" height="4.2"/>
	<rect x="681.4" y="396.7" class="st14" width="1" height="4.2"/>
</g>
<text transform="matrix(1 0 0 1 631.6172 402.9676)" class="st27 st3 st4">G86(H)</text>
<text transform="matrix(1 0 0 1 653.605 402.9676)" class="st27 st3 st4">-10</text>
<text transform="matrix(1 0 0 1 687.1172 402.9676)" class="st27 st3 st4">G86(H)</text>
<text transform="matrix(1 0 0 1 709.105 402.9676)" class="st27 st3 st4">-9</text>
<g>
	<text transform="matrix(1 0 0 1 326.3899 141.6956)" class="st56 st3 st4"> Front Compartment Distribution Box</text>
</g>
<g>
	<g>
		<text transform="matrix(1 0 0 1 532.6176 159.0869)" class="st56 st3 st4">Positive Fuse Box</text>
	</g>
	<g>
		<text transform="matrix(1 0 0 1 532.6176 166.2867)" class="st56 st3 st4">  </text>
	</g>
</g>
<g id="保险丝名称_8_">
	<text transform="matrix(1 0 0 1 203.0866 411.4712)" class="st57 st3 st7">IG3 Pwer supply</text>
</g>
<g id="保险丝名称_7_">
	<text transform="matrix(1 0 0 1 279.2084 410.181)" class="st57 st3 st7">IG4 Power supply</text>
</g>
<g id="保险丝名称_5_">
	<text transform="matrix(1 0 0 1 53.8687 436.8839)" class="st57 st3 st7">Power ground</text>
</g>
<g id="保险丝名称_3_">
	<text transform="matrix(1 0 0 1 223.2008 436.8839)" class="st57 st3 st7">Power ground</text>
</g>
<text transform="matrix(1 0 0 1 262.8959 436.8839)" class="st57 st3 st7">Driver seat belt buckle signal</text>
<g id="保险丝名称_1_">
	<text transform="matrix(1 0 0 1 166.5093 436.8839)" class="st57 st3 st7">Signal ground</text>
</g>
<g id="保险丝名称_2_">
	<text transform="matrix(1 0 0 1 110.6115 436.8839)" class="st57 st3 st7">Power ground</text>
</g>
<g>
	<g id="FB103_3_">
		<g>
			<g id="FB103_16_">
				<text transform="matrix(1 0 0 1 267.9674 425.4078)" class="st56 st3 st4">Left Body Controller</text>
			</g>
		</g>
	</g>
</g>
<g>
	<text transform="matrix(1 0 0 1 477.3123 437.1105)" class="st20 st3 st7">Seat belt alarm sensor</text>
</g>
<g>
	<text transform="matrix(1 0 0 1 657.3515 437.1105)" class="st57 st3 st7">Acquistion of non system warning signal</text>
</g>
<g>
	<text transform="matrix(1 0 0 1 480.3215 411.4149)" class="st57 st3 st7">Constant power</text>
</g>
<g id="保险丝名称_4_">
	<text transform="matrix(1 0 0 1 558.9438 437.1105)" class="st57 st3 st7">Power ground</text>
</g>
<g id="保险丝名称_6_">
	<text transform="matrix(1 0 0 1 617.7827 436.8574)" class="st57 st3 st7">Power ground</text>
</g>
<g>
	<text transform="matrix(1 0 0 1 749.0264 436.8574)" class="st57 st3 st7">Buckle / Alarm signal</text>
</g>
<g>
	<g id="FB103_2_">
		<g>
			<g id="FB103_4_">
				<text transform="matrix(1 0 0 1 609.9735 422.4891)" class="st56 st3 st4">Right Body Controller</text>
			</g>
		</g>
	</g>
</g>
<text transform="matrix(1 0 0 1 510.6354 649.9797)" class="st29 st3 st7">Middle row left </text>
<text transform="matrix(1 0 0 1 510.0481 654.7836)" class="st29 st3 st7">safety belt buckle</text>
</svg>
