<?xml version="1.0" encoding="utf-8"?>
<!-- Generator: Adobe Illustrator 24.0.1, SVG Export Plug-In . SVG Version: 6.00 Build 0)  -->
<svg version="1.1" id="图层_1" xmlns="http://www.w3.org/2000/svg" xmlns:xlink="http://www.w3.org/1999/xlink" x="0px" y="0px"
	 viewBox="0 0 671.1 814.3" style="enable-background:new 0 0 671.1 814.3;" xml:space="preserve">
<style type="text/css">
	.st0{fill:#F2F2F2;stroke:#000000;stroke-miterlimit:10;}
	.st1{fill:none;stroke:#000000;stroke-miterlimit:10;}
	.st2{fill:#9FD9F6;stroke:#000000;stroke-width:0.5;stroke-linecap:round;stroke-miterlimit:10;}
	.st3{fill:none;stroke:#000000;stroke-width:0.5;stroke-linecap:round;}
	.st4{fill:none;stroke:#231815;stroke-width:0.5;stroke-miterlimit:10;}
	.st5{fill:none;}
	.st6{fill:#9FD9F6;}
	.st7{fill:none;stroke:#040000;stroke-width:0.5;}
	.st8{fill:#FFFFFF;}
	.st9{fill:none;stroke:#231815;stroke-width:0.5;stroke-miterlimit:10;stroke-dasharray:6.47,3.23;}
	.st10{fill:none;stroke:#231815;stroke-width:0.5;stroke-miterlimit:10;stroke-dasharray:3.11,3.11;}
	.st11{fill:#231815;}
	.st12{fill:none;stroke:#FFFFFF;stroke-width:0.15;stroke-miterlimit:10;}
	.st13{enable-background:new    ;}
	.st14{font-family:'FZLTHJW--GB1-0';}
	.st15{font-size:10px;}
	.st16{fill:#CCCCCC;}
	.st17{fill:none;stroke:#231815;stroke-width:0.5;}
	.st18{fill:none;stroke:#231815;stroke-width:0.5;stroke-linecap:round;stroke-linejoin:round;}
	.st19{fill:none;stroke:#000000;stroke-width:0.5;stroke-linecap:round;stroke-miterlimit:10;}
</style>
<title>图形符号</title>
<rect class="st0" width="671.1" height="57.5"/>
<rect y="57.5" class="st1" width="671.1" height="354.7"/>
<line class="st1" x1="0" y1="354.7" x2="671.1" y2="354.7"/>
<line class="st1" x1="0" y1="297.3" x2="671.1" y2="297.3"/>
<line class="st1" x1="0" y1="229.9" x2="671.1" y2="229.9"/>
<line class="st1" x1="0" y1="172.4" x2="671.1" y2="172.4"/>
<line class="st1" x1="0" y1="115" x2="671.1" y2="115"/>
<line class="st1" x1="671.1" y1="57.5" x2="671.1" y2="412.2"/>
<line class="st1" x1="193.4" y1="0" x2="193.4" y2="412.2"/>
<line class="st1" x1="105.6" y1="0" x2="105.6" y2="412.2"/>
<line class="st1" x1="37.8" y1="0" x2="37.8" y2="412.2"/>
<rect x="138.6" y="67.4" class="st2" width="24.4" height="40.7"/>
<rect x="138.6" y="67.4" class="st3" width="24.4" height="40.7"/>
<line class="st4" x1="151.1" y1="67.6" x2="151.1" y2="81.2"/>
<line class="st4" x1="151.1" y1="108" x2="151.1" y2="93.5"/>
<line class="st5" x1="147" y1="81.2" x2="154.6" y2="81.2"/>
<line class="st4" x1="147" y1="81.2" x2="154.6" y2="81.2"/>
<line class="st5" x1="147.9" y1="82.6" x2="153.8" y2="82.6"/>
<line class="st4" x1="147.9" y1="82.6" x2="153.8" y2="82.6"/>
<line class="st5" x1="148.7" y1="84.1" x2="152.9" y2="84.1"/>
<line class="st4" x1="148.7" y1="84.1" x2="152.9" y2="84.1"/>
<line class="st5" x1="147" y1="86" x2="154.6" y2="86"/>
<line class="st4" x1="147" y1="86" x2="154.6" y2="86"/>
<line class="st5" x1="147.9" y1="87.4" x2="153.8" y2="87.4"/>
<line class="st4" x1="147.9" y1="87.4" x2="153.8" y2="87.4"/>
<line class="st5" x1="148.7" y1="88.8" x2="152.9" y2="88.8"/>
<line class="st4" x1="148.7" y1="88.8" x2="152.9" y2="88.8"/>
<line class="st5" x1="147" y1="90.7" x2="154.6" y2="90.7"/>
<line class="st4" x1="147" y1="90.7" x2="154.6" y2="90.7"/>
<line class="st5" x1="147.9" y1="92.1" x2="153.8" y2="92.1"/>
<line class="st4" x1="147.9" y1="92.1" x2="153.8" y2="92.1"/>
<line class="st5" x1="148.7" y1="93.5" x2="152.9" y2="93.5"/>
<line class="st4" x1="148.7" y1="93.5" x2="152.9" y2="93.5"/>
<polygon class="st6" points="147.8,136.9 147.1,137.6 146.6,138.5 146.3,139.3 145.8,142.7 146.1,143.8 146.7,145.2 147.3,146.4 
	148.6,147.6 149.5,148.6 150.1,149.2 150.7,149.8 151.3,150.2 151.6,151.2 152.2,152.4 152.4,153.5 152.5,154.5 152.7,155.6 
	153.3,155.4 153.8,154.1 154.1,153 154.4,151.2 154.5,149.9 154.1,148.7 153.7,147.4 153.1,146.4 152.5,145.8 152,145.1 
	151.2,144.7 150.6,144 149.7,143.4 149,142.4 148.5,141.6 148.3,140.8 148,139.1 148,137.7 "/>
<path class="st2" d="M150.2,155.4c-1.9,0-3.4,1.6-3.4,3.5s1.6,3.4,3.5,3.4c1.9,0,3.4-1.6,3.4-3.5
	C153.6,156.9,152.1,155.4,150.2,155.4"/>
<path class="st2" d="M150.2,130.9c-1.9,0-3.4,1.4-3.5,3.3c-0.1,1.9,1.4,3.6,3.3,3.7c1.9,0.1,3.6-1.4,3.7-3.3
	c0.1-1.9-1.4-3.6-3.3-3.7C150.3,130.9,150.3,130.9,150.2,130.9"/>
<path class="st7" d="M147.9,136.7c-0.1,3.9,0.3,4.9,2,6.7c1.9,1.9,3.7,2.6,4.3,5.7c0.5,2.5-0.1,5.1-1.7,7.1"/>
<path class="st7" d="M152.4,156.2c0.3-1.3,0-4.5-1-5.7c-1.5-1.9-4.1-3.2-5.1-6.1c-1-2.7-0.3-5.6,1.6-7.7"/>
<rect x="120.2" y="190.3" class="st2" width="61.3" height="26.2"/>
<rect x="120.2" y="190.3" class="st4" width="61.3" height="26.2"/>
<rect x="125.4" y="200.5" class="st4" width="3.1" height="6.1"/>
<polyline class="st4" points="127,200.5 127,196.4 136.7,196.4 "/>
<polyline class="st4" points="127,206.7 127,211.2 136.7,211.2 "/>
<line class="st4" x1="136.7" y1="205.6" x2="136.7" y2="216.5"/>
<line class="st4" x1="136.7" y1="190.3" x2="136.7" y2="201.7"/>
<line class="st4" x1="169.1" y1="190.3" x2="169.1" y2="199"/>
<path class="st8" d="M170,199.7c0,0.5-0.4,0.9-0.9,0.9s-0.9-0.4-0.9-0.9s0.4-0.9,0.9-0.9h0C169.6,198.8,170,199.2,170,199.7"/>
<circle class="st4" cx="169.1" cy="199.7" r="0.9"/>
<path class="st8" d="M176.5,207.5c0,0.5-0.4,0.9-0.9,0.9s-0.9-0.4-0.9-0.9s0.4-0.9,0.9-0.9h0c0.5,0,0.9,0.3,0.9,0.8
	C176.5,207.4,176.5,207.5,176.5,207.5"/>
<circle class="st4" cx="175.7" cy="207.5" r="0.9"/>
<line class="st5" x1="169.1" y1="200.5" x2="174.8" y2="207.5"/>
<line class="st4" x1="169.1" y1="200.5" x2="174.8" y2="207.5"/>
<rect x="131.6" y="201.7" class="st8" width="9.7" height="3.9"/>
<rect x="131.6" y="201.7" class="st4" width="9.7" height="3.9"/>
<line class="st4" x1="138.2" y1="201.7" x2="135.1" y2="205.6"/>
<line class="st5" x1="141.4" y1="203.8" x2="169.1" y2="203.8"/>
<line class="st4" x1="141.4" y1="203.8" x2="144.3" y2="203.8"/>
<line class="st9" x1="147.5" y1="203.8" x2="164.7" y2="203.8"/>
<line class="st4" x1="166.2" y1="203.8" x2="169.1" y2="203.8"/>
<line class="st5" x1="128.4" y1="203.8" x2="131.4" y2="203.8"/>
<line class="st10" x1="128.4" y1="203.8" x2="131.4" y2="203.8"/>
<path class="st8" d="M164.4,207.5c0,0.5-0.4,0.9-0.9,0.9s-0.9-0.4-0.9-0.9s0.4-0.9,0.9-0.9h0C164,206.6,164.4,207,164.4,207.5"/>
<circle class="st4" cx="163.6" cy="207.5" r="0.9"/>
<line class="st4" x1="163.6" y1="208.3" x2="163.6" y2="216.5"/>
<path class="st11" d="M137.1,211.2c0,0.2-0.2,0.4-0.4,0.4s-0.4-0.2-0.4-0.4s0.2-0.4,0.4-0.4h0C136.9,210.7,137.1,210.9,137.1,211.2"
	/>
<circle class="st12" cx="136.7" cy="211.2" r="0.4"/>
<path class="st11" d="M137.1,196.4c0,0.2-0.2,0.4-0.4,0.4s-0.4-0.2-0.4-0.4s0.2-0.4,0.4-0.4h0C136.9,196,137.1,196.2,137.1,196.4"/>
<circle class="st12" cx="136.7" cy="196.4" r="0.4"/>
<rect y="412.2" class="st1" width="671.1" height="344.7"/>
<line class="st1" x1="0" y1="699.4" x2="671.1" y2="699.4"/>
<line class="st1" x1="0" y1="642" x2="671.1" y2="642"/>
<line class="st1" x1="0" y1="584.5" x2="671.1" y2="584.5"/>
<line class="st1" x1="0" y1="527" x2="671.1" y2="527"/>
<line class="st1" x1="0" y1="469.6" x2="671.1" y2="469.6"/>
<line class="st1" x1="671.1" y1="412.2" x2="671.1" y2="756.9"/>
<line class="st1" x1="193.4" y1="353.2" x2="193.4" y2="697.9"/>
<line class="st1" x1="105.6" y1="353.2" x2="105.6" y2="697.9"/>
<line class="st1" x1="37.8" y1="353.2" x2="37.8" y2="697.9"/>
<rect y="756.9" class="st1" width="671.1" height="57.4"/>
<line class="st1" x1="671.1" y1="756.9" x2="671.1" y2="814.3"/>
<text transform="matrix(1 0 0 1 200.1599 82.4667)" class="st13"><tspan x="0" y="0" class="st14 st15">It can be used to store chemical energy and convert the chemical energy into electric energy,</tspan><tspan x="0" y="12" class="st14 st15">thus providing direct current for various circuits of the vehicle.</tspan></text>
<text transform="matrix(1 0 0 1 200.16 130.8998)" class="st13"><tspan x="0" y="0" class="st14 st15">A fuse is a metal sheet that fuses when excess current passes through it, blocking the current to</tspan><tspan x="0" y="12" class="st14 st15">prevent circuit damage. A thick wire in a high-current circuit that will fuse if the current is too high,</tspan><tspan x="0" y="24" class="st14 st15">thus protecting the circuit.The number represents the cross section area of the wire.</tspan></text>
<text transform="matrix(1 0 0 1 200.1599 192.65)" class="st13"><tspan x="0" y="0" class="st14 st15">It is an electronic control device, which is composed of a control system and a controlled system.</tspan><tspan x="0" y="12" class="st14 st15">It is usually used in automatic control circuits. It functions as an &quot;automatic switch&quot; which controls </tspan><tspan x="0" y="24" class="st14 st15">a larger current with a smaller current.</tspan></text>
<text transform="matrix(1 0 0 1 200.1599 243.3)" class="st13"><tspan x="0" y="0" class="st14 st15">The solenoid valve uses electric energy to flow through the coil to generate electromagnetic</tspan><tspan x="0" y="12" class="st14 st15">suction to attract the spool (overcome the spring or gravity). It is divided into two types which are</tspan><tspan x="0" y="24" class="st14 st15">normally open and normally closed. It is usually used to cut off the flow of oil, water, gas and other</tspan><tspan x="0" y="36" class="st14 st15">substances. It can work with pressure, temperature sensors and other electrical equipment to</tspan><tspan x="0" y="48" class="st14 st15">achieve automatic control.</tspan></text>
<text transform="matrix(1 0 0 1 200.16 332.63)" class="st14 st15">Convert electric energy into kinetic energy.</text>
<text transform="matrix(1 0 0 1 200.16 386.83)" class="st14 st15">An electronic device that emits high-frequency audio signals.</text>
<text transform="matrix(1 0 0 1 200.16 445.14)" class="st14 st15">A small storage unit that temporarily stores voltage.</text>
<text transform="matrix(1 0 0 1 200.16 502.6)" class="st14 st15">A semiconductor that allows only unidirectional flow of current.</text>
<text transform="matrix(1 0 0 1 200.16 557.36)" class="st14 st15">The photodiode is a semiconductor that controls the current according to the intensity of light.</text>
<text transform="matrix(1 0 0 1 200.16 615.2)" class="st14 st15">Convert electric energy into heat energy.</text>
<text transform="matrix(1 0 0 1 200.16 673.77)" class="st13"><tspan x="0" y="0" class="st14 st15">The switch is used to control circuit on and off, usually divided into two types which are normally</tspan><tspan x="0" y="12" class="st14 st15">open and normally closed.</tspan></text>
<text transform="matrix(1 0 0 1 200.16 729.51)" class="st14 st15">The current causes the filament to heat and glow.</text>
<text transform="matrix(1 0 0 1 200.16 786.27)" class="st13"><tspan x="0" y="0" class="st14 st15">A loudspeaker is an electromechanical device that generates sound waves by means of an</tspan><tspan x="0" y="12" class="st14 st15">electric current.</tspan></text>
<line class="st1" x1="193.4" y1="640.4" x2="193.4" y2="814.3"/>
<line class="st1" x1="105.6" y1="640.4" x2="105.6" y2="814.3"/>
<line class="st1" x1="37.8" y1="640.4" x2="37.8" y2="814.3"/>
<text transform="matrix(1 0 0 1 54.801 88.8)" class="st14 st15">Battery</text>
<text transform="matrix(1 0 0 1 59.9377 147.6)" class="st14 st15">Fuse</text>
<text transform="matrix(1 0 0 1 58.2776 202.08)" class="st14 st15">Relay</text>
<text transform="matrix(1 0 0 1 51.051 260.35)" class="st13"><tspan x="0" y="0" class="st14 st15">Solenoid</tspan><tspan x="0" y="12" class="st14 st15">valve</tspan></text>
<text transform="matrix(1 0 0 1 58.0823 330.5)" class="st14 st15">Motor</text>
<text transform="matrix(1 0 0 1 41.9104 386.6)" class="st14 st15">Electric horn</text>
<text transform="matrix(1 0 0 1 48.7268 445.14)" class="st14 st15">Capacitor</text>
<text transform="matrix(1 0 0 1 57.9846 498.57)" class="st14 st15">Diode</text>
<text transform="matrix(1 0 0 1 44.6643 555.73)" class="st14 st15">Photodiode</text>
<text transform="matrix(1 0 0 1 42.0081 617.41)" class="st14 st15">Heating wire</text>
<text transform="matrix(1 0 0 1 56.1877 673)" class="st14 st15">Switch</text>
<text transform="matrix(1 0 0 1 40.309 731.13)" class="st14 st15">Halogen bulb</text>
<text transform="matrix(1 0 0 1 40.4456 785.61)" class="st14 st15">Loudspeaker</text>
<rect x="120.6" y="242.3" class="st16" width="57.8" height="33.7"/>
<rect x="120.6" y="242.3" class="st2" width="57.8" height="33.7"/>
<rect x="127" y="253.6" class="st5" width="26" height="11.3"/>
<rect x="127" y="253.6" class="st3" width="26" height="11.3"/>
<line class="st5" x1="140" y1="253.6" x2="140" y2="242.3"/>
<line class="st3" x1="140" y1="253.6" x2="140" y2="242.3"/>
<line class="st5" x1="140" y1="264.9" x2="140" y2="276.2"/>
<line class="st3" x1="140" y1="264.9" x2="140" y2="276.2"/>
<line class="st5" x1="133.6" y1="264.9" x2="146.3" y2="253.6"/>
<line class="st3" x1="133.6" y1="264.9" x2="146.3" y2="253.6"/>
<polygon class="st5" points="165.7,253.6 172.4,253.6 165.7,264.9 172.4,264.9 "/>
<polygon class="st3" points="165.7,253.6 172.4,253.6 165.7,264.9 172.4,264.9 "/>
<line class="st5" x1="153" y1="259.3" x2="169.1" y2="259.3"/>
<line class="st3" x1="153" y1="259.3" x2="169.1" y2="259.3"/>
<rect x="145.6" y="305.5" width="6.6" height="6.6"/>
<rect x="145.6" y="305.5" class="st3" width="6.6" height="6.6"/>
<rect x="145.1" y="333.3" width="6.6" height="6.6"/>
<rect x="145.1" y="333.3" class="st3" width="6.6" height="6.6"/>
<path class="st2" d="M159.6,322.5c0,5.9-4.8,10.7-10.7,10.7s-10.7-4.8-10.7-10.7c0-5.9,4.8-10.7,10.7-10.7
	C154.8,311.8,159.6,316.5,159.6,322.5"/>
<text transform="matrix(1 0 0 1 142.79 327.65)" class="st11 st14 st15">M</text>
<rect x="129.9" y="365.9" class="st16" width="40.4" height="32"/>
<rect x="129.9" y="365.9" class="st2" width="40.4" height="32"/>
<polyline class="st3" points="150.9,377.9 158.9,377.9 158.9,386.9 151.9,382.8 "/>
<line class="st17" x1="147.4" y1="376.4" x2="147.4" y2="365.9"/>
<line class="st17" x1="147.4" y1="397.9" x2="147.4" y2="385.9"/>
<circle class="st17" cx="147.4" cy="381.1" r="4.7"/>
<rect x="136.7" y="416.8" class="st2" width="24.4" height="40.2"/>
<line class="st17" x1="149.4" y1="457.4" x2="149.4" y2="438.2"/>
<line class="st17" x1="149.3" y1="416.5" x2="149.3" y2="436.4"/>
<line class="st17" x1="145.3" y1="436.4" x2="153.5" y2="436.4"/>
<line class="st17" x1="145.3" y1="438.2" x2="153.5" y2="438.2"/>
<polygon class="st2" points="148.5,502.5 138.5,487.7 158.4,487.7 "/>
<polygon class="st3" points="148.5,502.5 138.5,487.7 158.4,487.7 "/>
<line class="st4" x1="140" y1="502.5" x2="157" y2="502.5"/>
<line class="st4" x1="148.5" y1="473.5" x2="148.5" y2="487.7"/>
<line class="st4" x1="148.5" y1="502.5" x2="148.5" y2="520"/>
<polygon class="st2" points="148.8,560 138.8,545 158.8,545 "/>
<polygon class="st3" points="148.8,560 138.8,545 158.8,545 "/>
<line class="st4" x1="140.4" y1="560" x2="157.4" y2="560"/>
<line class="st4" x1="148.8" y1="530.9" x2="148.8" y2="545"/>
<polygon class="st11" points="142,554.4 137.9,559.5 135.7,556.2 "/>
<polygon class="st18" points="142,554.4 137.9,559.5 135.7,556.2 "/>
<line class="st5" x1="142" y1="554.4" x2="132.6" y2="560.9"/>
<line class="st18" x1="142" y1="554.4" x2="132.6" y2="560.9"/>
<polygon class="st11" points="136.3,550.8 132.1,556 130,552.7 "/>
<polygon class="st18" points="136.3,550.8 132.1,556 130,552.7 "/>
<line class="st18" x1="136.3" y1="550.8" x2="126.8" y2="557.4"/>
<line class="st4" x1="148.8" y1="560" x2="148.8" y2="577.5"/>
<rect x="136.1" y="590.5" class="st2" width="23.6" height="41.9"/>
<rect x="136.1" y="590.5" class="st2" width="23.6" height="41.9"/>
<polyline class="st2" points="147.8,632.4 147.8,619 150.7,617.4 145.3,616.3 150.7,614 145.1,612.8 150.7,610.3 145.1,609 
	150.7,606.7 145.1,605.7 150.7,603.3 147.8,602 147.8,590.5 "/>
<rect x="135.7" y="651.8" class="st2" width="24.4" height="40.7"/>
<rect x="135.7" y="651.8" class="st3" width="24.4" height="40.7"/>
<line class="st4" x1="148.2" y1="652" x2="148.2" y2="664.9"/>
<polyline class="st4" points="148.2,692.5 148.2,680.3 139.3,664.9 "/>
<path class="st8" d="M149.5,680.3c0,0.7-0.6,1.3-1.3,1.3c-0.7,0-1.3-0.6-1.3-1.3c0-0.7,0.6-1.3,1.3-1.3h0
	C148.9,679,149.5,679.5,149.5,680.3"/>
<circle class="st4" cx="148.2" cy="680.3" r="1.3"/>
<path class="st8" d="M149.5,664.8c0,0.7-0.6,1.3-1.3,1.3c-0.7,0-1.3-0.6-1.3-1.3c0-0.7,0.6-1.3,1.3-1.3h0
	C148.9,663.6,149.5,664.1,149.5,664.8"/>
<circle class="st4" cx="148.2" cy="664.9" r="1.3"/>
<rect x="134.1" y="708.5" class="st2" width="29.6" height="33.7"/>
<rect x="134.1" y="708.5" class="st2" width="29.6" height="33.7"/>
<path class="st2" d="M153.6,725.6c0,3-2.5,5.5-5.5,5.5s-5.5-2.5-5.5-5.5s2.5-5.5,5.5-5.5c3,0,5.5,2.3,5.5,5.3
	C153.6,725.5,153.6,725.6,153.6,725.6"/>
<circle class="st2" cx="148.2" cy="725.7" r="5.5"/>
<line class="st19" x1="148.2" y1="708.5" x2="148.2" y2="720.2"/>
<line class="st19" x1="148.2" y1="731" x2="148.2" y2="742.3"/>
<line class="st19" x1="151.9" y1="721.7" x2="144.3" y2="729.5"/>
<line class="st19" x1="144.3" y1="721.8" x2="152" y2="729.5"/>
<rect x="132.4" y="769.8" class="st2" width="33" height="26.1"/>
<rect x="132.4" y="769.8" class="st2" width="33" height="26.1"/>
<rect x="142.3" y="780.4" class="st2" width="5" height="6"/>
<polyline class="st2" points="147.3,786.3 153.4,792.2 153.4,774.4 147.3,780.4 "/>
<text transform="matrix(1 0 0 1 12.69 88.8)" class="st14 st15">1</text>
<text transform="matrix(1 0 0 1 370.5 35.13)" class="st14 st15">Function description</text>
<text transform="matrix(1 0 0 1 57.6135 31.797)" class="st14 st15">Name</text>
<text transform="matrix(1 0 0 1 110.6 31.7971)" class="st14 st15">Graphic symbol</text>
<text transform="matrix(1 0 0 1 5.19 25.7971)" class="st13"><tspan x="0" y="0" class="st14 st15">Serial</tspan><tspan x="0" y="12" class="st14 st15"> No</tspan></text>
<text transform="matrix(1 0 0 1 12.69 144.98)" class="st14 st15">2</text>
<text transform="matrix(1 0 0 1 12.69 201.72)" class="st14 st15">3</text>
<text transform="matrix(1 0 0 1 12.69 260.35)" class="st14 st15">4</text>
<text transform="matrix(1 0 0 1 12.69 330.5)" class="st14 st15">5</text>
<text transform="matrix(1 0 0 1 12.69 386.6)" class="st14 st15">6</text>
<text transform="matrix(1 0 0 1 12.69 445.14)" class="st14 st15">7</text>
<text transform="matrix(1 0 0 1 12.69 498.57)" class="st14 st15">8</text>
<text transform="matrix(1 0 0 1 12.69 555.73)" class="st14 st15">9</text>
<text transform="matrix(1 0 0 1 12.69 617.41)" class="st14 st15">10</text>
<text transform="matrix(1 0 0 1 11.35 673)" class="st14 st15">11</text>
<text transform="matrix(1 0 0 1 12.69 730.09)" class="st14 st15">12</text>
<text transform="matrix(1 0 0 1 12.69 785.61)" class="st14 st15">13</text>
<line class="st1" x1="0" y1="57.5" x2="671.1" y2="57.5"/>
</svg>
